<?xml version="1.0" encoding="UTF-8" standalone="no"?>
<!DOCTYPE svg PUBLIC "-//W3C//DTD SVG 1.1//EN"
 "http://www.w3.org/Graphics/SVG/1.1/DTD/svg11.dtd">
<!-- Generated by graphviz version 2.46.0 (20210118.1747)
 -->
<!-- Title: graphname Pages: 1 -->
<svg width="4824pt" height="3906pt"
 viewBox="0.00 0.00 4824.00 3906.46" xmlns="http://www.w3.org/2000/svg" xmlns:xlink="http://www.w3.org/1999/xlink">
<g id="graph0" class="graph" transform="scale(3.9 3.9) rotate(0) translate(4 998.42)">
<title>graphname</title>
<polygon fill="white" stroke="transparent" points="-4,4 -4,-998.42 1233.87,-998.42 1233.87,4 -4,4"/>
<!-- 6 -->
<g id="node1" class="node">
<title>6</title>
<path fill="lightpink" stroke="lightpink" d="M441.26,-101.56C441.26,-101.56 324.26,-101.56 324.26,-101.56 318.26,-101.56 312.26,-95.56 312.26,-89.56 312.26,-89.56 312.26,-77.56 312.26,-77.56 312.26,-71.56 318.26,-65.56 324.26,-65.56 324.26,-65.56 441.26,-65.56 441.26,-65.56 447.26,-65.56 453.26,-71.56 453.26,-77.56 453.26,-77.56 453.26,-89.56 453.26,-89.56 453.26,-95.56 447.26,-101.56 441.26,-101.56"/>
<text text-anchor="middle" x="382.76" y="-79.86" font-family="Times,serif" font-size="14.00">{&#39;fileID&#39;: 1810339578}</text>
</g>
<!-- 8 -->
<g id="node2" class="node">
<title>8</title>
<path fill="lightpink" stroke="lightpink" d="M771.54,-240.07C771.54,-240.07 654.54,-240.07 654.54,-240.07 648.54,-240.07 642.54,-234.07 642.54,-228.07 642.54,-228.07 642.54,-216.07 642.54,-216.07 642.54,-210.07 648.54,-204.07 654.54,-204.07 654.54,-204.07 771.54,-204.07 771.54,-204.07 777.54,-204.07 783.54,-210.07 783.54,-216.07 783.54,-216.07 783.54,-228.07 783.54,-228.07 783.54,-234.07 777.54,-240.07 771.54,-240.07"/>
<text text-anchor="middle" x="713.04" y="-218.37" font-family="Times,serif" font-size="14.00">{&#39;fileID&#39;: 1810339577}</text>
</g>
<!-- 10 -->
<g id="node3" class="node">
<title>10</title>
<path fill="lightpink" stroke="lightpink" d="M659.01,-36C659.01,-36 542.01,-36 542.01,-36 536.01,-36 530.01,-30 530.01,-24 530.01,-24 530.01,-12 530.01,-12 530.01,-6 536.01,0 542.01,0 542.01,0 659.01,0 659.01,0 665.01,0 671.01,-6 671.01,-12 671.01,-12 671.01,-24 671.01,-24 671.01,-30 665.01,-36 659.01,-36"/>
<text text-anchor="middle" x="600.51" y="-14.3" font-family="Times,serif" font-size="14.00">{&#39;fileID&#39;: 1810339576}</text>
</g>
<!-- 2 -->
<g id="node4" class="node">
<title>2</title>
<path fill="#b0e2ff" stroke="#b0e2ff" d="M622.54,-244.13C622.54,-244.13 458.54,-244.13 458.54,-244.13 452.54,-244.13 446.54,-238.13 446.54,-232.13 446.54,-232.13 446.54,-218.13 446.54,-218.13 446.54,-212.13 452.54,-206.13 458.54,-206.13 458.54,-206.13 622.54,-206.13 622.54,-206.13 628.54,-206.13 634.54,-212.13 634.54,-218.13 634.54,-218.13 634.54,-232.13 634.54,-232.13 634.54,-238.13 628.54,-244.13 622.54,-244.13"/>
<text text-anchor="middle" x="540.54" y="-228.93" font-family="Times,serif" font-size="14.00">GameObject_1_ID1810339575</text>
<text text-anchor="middle" x="540.54" y="-213.93" font-family="Times,serif" font-size="14.00">Main Camera</text>
</g>
<!-- 2&#45;&gt;6 -->
<g id="edge1" class="edge">
<title>2&#45;&gt;6</title>
<path fill="none" stroke="black" d="M519.27,-206.04C491.19,-180.85 441.72,-136.47 410.68,-108.61"/>
<polygon fill="black" stroke="black" points="412.98,-105.98 403.2,-101.9 408.31,-111.19 412.98,-105.98"/>
</g>
<!-- 2&#45;&gt;8 -->
<g id="edge2" class="edge">
<title>2&#45;&gt;8</title>
<path fill="none" stroke="black" d="M634.62,-223.46C634.78,-223.46 634.93,-223.45 635.09,-223.45"/>
<polygon fill="black" stroke="black" points="632.21,-227 642.15,-223.33 632.09,-220.01 632.21,-227"/>
</g>
<!-- 2&#45;&gt;10 -->
<g id="edge3" class="edge">
<title>2&#45;&gt;10</title>
<path fill="none" stroke="black" d="M546.08,-206.02C556.71,-169.29 580.04,-88.7 592.42,-45.94"/>
<polygon fill="black" stroke="black" points="595.83,-46.76 595.25,-36.18 589.11,-44.81 595.83,-46.76"/>
</g>
<!-- 17 -->
<g id="node5" class="node">
<title>17</title>
<path fill="lightpink" stroke="lightpink" d="M172.49,-356.78C172.49,-356.78 62.49,-356.78 62.49,-356.78 56.49,-356.78 50.49,-350.78 50.49,-344.78 50.49,-344.78 50.49,-332.78 50.49,-332.78 50.49,-326.78 56.49,-320.78 62.49,-320.78 62.49,-320.78 172.49,-320.78 172.49,-320.78 178.49,-320.78 184.49,-326.78 184.49,-332.78 184.49,-332.78 184.49,-344.78 184.49,-344.78 184.49,-350.78 178.49,-356.78 172.49,-356.78"/>
<text text-anchor="middle" x="117.49" y="-335.08" font-family="Times,serif" font-size="14.00">{&#39;fileID&#39;: 636665500}</text>
</g>
<!-- 19 -->
<g id="node6" class="node">
<title>19</title>
<path fill="lightpink" stroke="lightpink" d="M122,-549.57C122,-549.57 12,-549.57 12,-549.57 6,-549.57 0,-543.57 0,-537.57 0,-537.57 0,-525.57 0,-525.57 0,-519.57 6,-513.57 12,-513.57 12,-513.57 122,-513.57 122,-513.57 128,-513.57 134,-519.57 134,-525.57 134,-525.57 134,-537.57 134,-537.57 134,-543.57 128,-549.57 122,-549.57"/>
<text text-anchor="middle" x="67" y="-527.87" font-family="Times,serif" font-size="14.00">{&#39;fileID&#39;: 636665499}</text>
</g>
<!-- 13 -->
<g id="node7" class="node">
<title>13</title>
<path fill="#b0e2ff" stroke="#b0e2ff" d="M358.31,-494.52C358.31,-494.52 201.31,-494.52 201.31,-494.52 195.31,-494.52 189.31,-488.52 189.31,-482.52 189.31,-482.52 189.31,-468.52 189.31,-468.52 189.31,-462.52 195.31,-456.52 201.31,-456.52 201.31,-456.52 358.31,-456.52 358.31,-456.52 364.31,-456.52 370.31,-462.52 370.31,-468.52 370.31,-468.52 370.31,-482.52 370.31,-482.52 370.31,-488.52 364.31,-494.52 358.31,-494.52"/>
<text text-anchor="middle" x="279.81" y="-479.32" font-family="Times,serif" font-size="14.00">GameObject_1_ID636665498</text>
<text text-anchor="middle" x="279.81" y="-464.32" font-family="Times,serif" font-size="14.00">Directional Light</text>
</g>
<!-- 13&#45;&gt;17 -->
<g id="edge4" class="edge">
<title>13&#45;&gt;17</title>
<path fill="none" stroke="black" d="M257.24,-456.5C228.53,-432.32 178.88,-390.5 147.15,-363.76"/>
<polygon fill="black" stroke="black" points="149,-360.74 139.09,-356.98 144.49,-366.09 149,-360.74"/>
</g>
<!-- 13&#45;&gt;19 -->
<g id="edge5" class="edge">
<title>13&#45;&gt;19</title>
<path fill="none" stroke="black" d="M207.47,-494.57C186.97,-499.97 164.6,-505.87 143.85,-511.33"/>
<polygon fill="black" stroke="black" points="142.91,-507.96 134.13,-513.89 144.69,-514.73 142.91,-507.96"/>
</g>
<!-- 26 -->
<g id="node8" class="node">
<title>26</title>
<path fill="lightpink" stroke="lightpink" d="M1140.12,-563.29C1140.12,-563.29 1030.12,-563.29 1030.12,-563.29 1024.12,-563.29 1018.12,-557.29 1018.12,-551.29 1018.12,-551.29 1018.12,-539.29 1018.12,-539.29 1018.12,-533.29 1024.12,-527.29 1030.12,-527.29 1030.12,-527.29 1140.12,-527.29 1140.12,-527.29 1146.12,-527.29 1152.12,-533.29 1152.12,-539.29 1152.12,-539.29 1152.12,-551.29 1152.12,-551.29 1152.12,-557.29 1146.12,-563.29 1140.12,-563.29"/>
<text text-anchor="middle" x="1085.12" y="-541.59" font-family="Times,serif" font-size="14.00">{&#39;fileID&#39;: 628318587}</text>
</g>
<!-- 28 -->
<g id="node9" class="node">
<title>28</title>
<path fill="lightpink" stroke="lightpink" d="M1217.87,-431.2C1217.87,-431.2 1107.87,-431.2 1107.87,-431.2 1101.87,-431.2 1095.87,-425.2 1095.87,-419.2 1095.87,-419.2 1095.87,-407.2 1095.87,-407.2 1095.87,-401.2 1101.87,-395.2 1107.87,-395.2 1107.87,-395.2 1217.87,-395.2 1217.87,-395.2 1223.87,-395.2 1229.87,-401.2 1229.87,-407.2 1229.87,-407.2 1229.87,-419.2 1229.87,-419.2 1229.87,-425.2 1223.87,-431.2 1217.87,-431.2"/>
<text text-anchor="middle" x="1162.87" y="-409.5" font-family="Times,serif" font-size="14.00">{&#39;fileID&#39;: 628318586}</text>
</g>
<!-- 30 -->
<g id="node10" class="node">
<title>30</title>
<path fill="lightpink" stroke="lightpink" d="M1046.16,-321.78C1046.16,-321.78 936.16,-321.78 936.16,-321.78 930.16,-321.78 924.16,-315.78 924.16,-309.78 924.16,-309.78 924.16,-297.78 924.16,-297.78 924.16,-291.78 930.16,-285.78 936.16,-285.78 936.16,-285.78 1046.16,-285.78 1046.16,-285.78 1052.16,-285.78 1058.16,-291.78 1058.16,-297.78 1058.16,-297.78 1058.16,-309.78 1058.16,-309.78 1058.16,-315.78 1052.16,-321.78 1046.16,-321.78"/>
<text text-anchor="middle" x="991.16" y="-300.08" font-family="Times,serif" font-size="14.00">{&#39;fileID&#39;: 628318585}</text>
</g>
<!-- 32 -->
<g id="node11" class="node">
<title>32</title>
<path fill="lightpink" stroke="lightpink" d="M1047.38,-730.92C1047.38,-730.92 937.38,-730.92 937.38,-730.92 931.38,-730.92 925.38,-724.92 925.38,-718.92 925.38,-718.92 925.38,-706.92 925.38,-706.92 925.38,-700.92 931.38,-694.92 937.38,-694.92 937.38,-694.92 1047.38,-694.92 1047.38,-694.92 1053.38,-694.92 1059.38,-700.92 1059.38,-706.92 1059.38,-706.92 1059.38,-718.92 1059.38,-718.92 1059.38,-724.92 1053.38,-730.92 1047.38,-730.92"/>
<text text-anchor="middle" x="992.38" y="-709.22" font-family="Times,serif" font-size="14.00">{&#39;fileID&#39;: 628318584}</text>
</g>
<!-- 22 -->
<g id="node12" class="node">
<title>22</title>
<path fill="#b0e2ff" stroke="#b0e2ff" d="M992.27,-518.73C992.27,-518.73 835.27,-518.73 835.27,-518.73 829.27,-518.73 823.27,-512.73 823.27,-506.73 823.27,-506.73 823.27,-492.73 823.27,-492.73 823.27,-486.73 829.27,-480.73 835.27,-480.73 835.27,-480.73 992.27,-480.73 992.27,-480.73 998.27,-480.73 1004.27,-486.73 1004.27,-492.73 1004.27,-492.73 1004.27,-506.73 1004.27,-506.73 1004.27,-512.73 998.27,-518.73 992.27,-518.73"/>
<text text-anchor="middle" x="913.77" y="-503.53" font-family="Times,serif" font-size="14.00">GameObject_1_ID628318583</text>
<text text-anchor="middle" x="913.77" y="-488.53" font-family="Times,serif" font-size="14.00">Plane</text>
</g>
<!-- 22&#45;&gt;26 -->
<g id="edge6" class="edge">
<title>22&#45;&gt;26</title>
<path fill="none" stroke="black" d="M985.45,-518.79C992.97,-520.79 1000.64,-522.83 1008.22,-524.84"/>
<polygon fill="black" stroke="black" points="1007.55,-528.29 1018.11,-527.47 1009.35,-521.52 1007.55,-528.29"/>
</g>
<!-- 22&#45;&gt;28 -->
<g id="edge7" class="edge">
<title>22&#45;&gt;28</title>
<path fill="none" stroke="black" d="M968.74,-480.64C1008.01,-467 1060.85,-448.64 1101.49,-434.52"/>
<polygon fill="black" stroke="black" points="1102.72,-437.8 1111.01,-431.21 1100.42,-431.19 1102.72,-437.8"/>
</g>
<!-- 22&#45;&gt;30 -->
<g id="edge8" class="edge">
<title>22&#45;&gt;30</title>
<path fill="none" stroke="black" d="M921.33,-480.59C935.11,-445.7 964.35,-371.65 980.28,-331.34"/>
<polygon fill="black" stroke="black" points="983.6,-332.45 984.02,-321.86 977.09,-329.87 983.6,-332.45"/>
</g>
<!-- 22&#45;&gt;32 -->
<g id="edge9" class="edge">
<title>22&#45;&gt;32</title>
<path fill="none" stroke="black" d="M920.89,-519.03C934.88,-556.97 966.01,-641.39 982.18,-685.26"/>
<polygon fill="black" stroke="black" points="978.93,-686.56 985.67,-694.73 985.5,-684.14 978.93,-686.56"/>
</g>
<!-- 39 -->
<g id="node13" class="node">
<title>39</title>
<path fill="lightpink" stroke="lightpink" d="M642.74,-994.42C642.74,-994.42 532.74,-994.42 532.74,-994.42 526.74,-994.42 520.74,-988.42 520.74,-982.42 520.74,-982.42 520.74,-970.42 520.74,-970.42 520.74,-964.42 526.74,-958.42 532.74,-958.42 532.74,-958.42 642.74,-958.42 642.74,-958.42 648.74,-958.42 654.74,-964.42 654.74,-970.42 654.74,-970.42 654.74,-982.42 654.74,-982.42 654.74,-988.42 648.74,-994.42 642.74,-994.42"/>
<text text-anchor="middle" x="587.74" y="-972.72" font-family="Times,serif" font-size="14.00">{&#39;fileID&#39;: 722127365}</text>
</g>
<!-- 41 -->
<g id="node14" class="node">
<title>41</title>
<path fill="lightpink" stroke="lightpink" d="M416.69,-943.98C416.69,-943.98 306.69,-943.98 306.69,-943.98 300.69,-943.98 294.69,-937.98 294.69,-931.98 294.69,-931.98 294.69,-919.98 294.69,-919.98 294.69,-913.98 300.69,-907.98 306.69,-907.98 306.69,-907.98 416.69,-907.98 416.69,-907.98 422.69,-907.98 428.69,-913.98 428.69,-919.98 428.69,-919.98 428.69,-931.98 428.69,-931.98 428.69,-937.98 422.69,-943.98 416.69,-943.98"/>
<text text-anchor="middle" x="361.69" y="-922.28" font-family="Times,serif" font-size="14.00">{&#39;fileID&#39;: 722127364}</text>
</g>
<!-- 35 -->
<g id="node15" class="node">
<title>35</title>
<path fill="#b0e2ff" stroke="#b0e2ff" d="M591.87,-798.43C591.87,-798.43 434.87,-798.43 434.87,-798.43 428.87,-798.43 422.87,-792.43 422.87,-786.43 422.87,-786.43 422.87,-772.43 422.87,-772.43 422.87,-766.43 428.87,-760.43 434.87,-760.43 434.87,-760.43 591.87,-760.43 591.87,-760.43 597.87,-760.43 603.87,-766.43 603.87,-772.43 603.87,-772.43 603.87,-786.43 603.87,-786.43 603.87,-792.43 597.87,-798.43 591.87,-798.43"/>
<text text-anchor="middle" x="513.37" y="-783.23" font-family="Times,serif" font-size="14.00">GameObject_1_ID722127363</text>
<text text-anchor="middle" x="513.37" y="-768.23" font-family="Times,serif" font-size="14.00">GameObject</text>
</g>
<!-- 35&#45;&gt;39 -->
<g id="edge10" class="edge">
<title>35&#45;&gt;39</title>
<path fill="none" stroke="black" d="M520.63,-798.68C533.88,-833.75 561.98,-908.19 577.28,-948.72"/>
<polygon fill="black" stroke="black" points="574.07,-950.13 580.88,-958.24 580.62,-947.65 574.07,-950.13"/>
</g>
<!-- 35&#45;&gt;41 -->
<g id="edge11" class="edge">
<title>35&#45;&gt;41</title>
<path fill="none" stroke="black" d="M493.54,-798.59C466.44,-824.77 417.8,-871.77 387.78,-900.78"/>
<polygon fill="black" stroke="black" points="385.33,-898.28 380.57,-907.74 390.19,-903.31 385.33,-898.28"/>
</g>
<!-- 1 -->
<g id="node16" class="node">
<title>1</title>
<ellipse fill="red" stroke="red" cx="574.38" cy="-503.59" rx="27" ry="18"/>
</g>
<!-- 1&#45;&gt;2 -->
<g id="edge12" class="edge">
<title>1&#45;&gt;2</title>
<path fill="none" stroke="black" d="M572.16,-485.32C566.43,-438.15 551.1,-311.95 544.1,-254.43"/>
<polygon fill="black" stroke="black" points="547.54,-253.71 542.86,-244.2 540.59,-254.55 547.54,-253.71"/>
</g>
<!-- 1&#45;&gt;13 -->
<g id="edge13" class="edge">
<title>1&#45;&gt;13</title>
<path fill="none" stroke="black" d="M547.46,-501.02C509.87,-497.44 439.61,-490.74 380.51,-485.11"/>
<polygon fill="black" stroke="black" points="380.66,-481.61 370.38,-484.15 380,-488.58 380.66,-481.61"/>
</g>
<!-- 1&#45;&gt;22 -->
<g id="edge14" class="edge">
<title>1&#45;&gt;22</title>
<path fill="none" stroke="black" d="M601.58,-503.28C646.95,-502.76 740.28,-501.7 813.13,-500.88"/>
<polygon fill="black" stroke="black" points="813.31,-504.38 823.27,-500.76 813.23,-497.38 813.31,-504.38"/>
</g>
<!-- 1&#45;&gt;35 -->
<g id="edge15" class="edge">
<title>1&#45;&gt;35</title>
<path fill="none" stroke="black" d="M570.38,-521.69C560.05,-568.4 532.41,-693.35 519.8,-750.35"/>
<polygon fill="black" stroke="black" points="516.37,-749.65 517.63,-760.17 523.2,-751.16 516.37,-749.65"/>
</g>
</g>
</svg>
