<?xml version="1.0" encoding="UTF-8" standalone="no"?>
<!DOCTYPE svg PUBLIC "-//W3C//DTD SVG 1.1//EN"
 "http://www.w3.org/Graphics/SVG/1.1/DTD/svg11.dtd">
<!-- Generated by graphviz version 2.46.0 (20210118.1747)
 -->
<!-- Title: graphname Pages: 1 -->
<svg width="738pt" height="46pt"
 viewBox="0.00 0.00 738.00 46.00" xmlns="http://www.w3.org/2000/svg" xmlns:xlink="http://www.w3.org/1999/xlink">
<g id="graph0" class="graph" transform="scale(1 1) rotate(0) translate(4 42)">
<title>graphname</title>
<polygon fill="white" stroke="transparent" points="-4,4 -4,-42 734,-42 734,4 -4,4"/>
<!-- 9 -->
<g id="node1" class="node">
<title>9</title>
<path fill="yellowgreen" stroke="yellowgreen" d="M718,-38C718,-38 626,-38 626,-38 620,-38 614,-32 614,-26 614,-26 614,-12 614,-12 614,-6 620,0 626,0 626,0 718,0 718,0 724,0 730,-6 730,-12 730,-12 730,-26 730,-26 730,-32 724,-38 718,-38"/>
<text text-anchor="middle" x="672" y="-22.8" font-family="Times,serif" font-size="14.00">m_GameObject</text>
<text text-anchor="middle" x="672" y="-7.8" font-family="Times,serif" font-size="14.00">fileID: 722127363</text>
</g>
<!-- 2 -->
<g id="node2" class="node">
<title>2</title>
<path fill="lightpink" stroke="lightpink" d="M566,-38C566,-38 102,-38 102,-38 96,-38 90,-32 90,-26 90,-26 90,-12 90,-12 90,-6 96,0 102,0 102,0 566,0 566,0 572,0 578,-6 578,-12 578,-12 578,-26 578,-26 578,-32 572,-38 566,-38"/>
<text text-anchor="middle" x="334" y="-22.8" font-family="Times,serif" font-size="14.00">MonoBehaviour_114_ID722127364</text>
<text text-anchor="middle" x="334" y="-7.8" font-family="Times,serif" font-size="14.00">m_Script: {&#39;guid&#39;: &#39;96d347c34434d674abfcf6224d2acf63&#39;, &#39;type&#39;: 3, &#39;fileID&#39;: 11500000}</text>
</g>
<!-- 2&#45;&gt;9 -->
<g id="edge1" class="edge">
<title>2&#45;&gt;9</title>
<path fill="none" stroke="black" d="M578.3,-19C587.15,-19 595.64,-19 603.66,-19"/>
<polygon fill="black" stroke="black" points="603.9,-22.5 613.9,-19 603.9,-15.5 603.9,-22.5"/>
</g>
<!-- 1 -->
<g id="node3" class="node">
<title>1</title>
<ellipse fill="red" stroke="red" cx="27" cy="-19" rx="27" ry="18"/>
</g>
<!-- 1&#45;&gt;2 -->
<g id="edge2" class="edge">
<title>1&#45;&gt;2</title>
<path fill="none" stroke="black" d="M54,-19C61.41,-19 70.13,-19 79.84,-19"/>
<polygon fill="black" stroke="black" points="79.86,-22.5 89.86,-19 79.86,-15.5 79.86,-22.5"/>
</g>
</g>
</svg>
