<?xml version="1.0" encoding="UTF-8" standalone="no"?>
<!DOCTYPE svg PUBLIC "-//W3C//DTD SVG 1.1//EN"
 "http://www.w3.org/Graphics/SVG/1.1/DTD/svg11.dtd">
<!-- Generated by graphviz version 2.46.0 (20210118.1747)
 -->
<!-- Title: graphname Pages: 1 -->
<svg width="463pt" height="584pt"
 viewBox="0.00 0.00 463.00 584.00" xmlns="http://www.w3.org/2000/svg" xmlns:xlink="http://www.w3.org/1999/xlink">
<g id="graph0" class="graph" transform="scale(1 1) rotate(0) translate(4 580)">
<title>graphname</title>
<polygon fill="white" stroke="transparent" points="-4,4 -4,-580 459,-580 459,4 -4,4"/>
<!-- 6 -->
<g id="node1" class="node">
<title>6</title>
<path fill="lightpink" stroke="lightpink" d="M443,-576C443,-576 326,-576 326,-576 320,-576 314,-570 314,-564 314,-564 314,-552 314,-552 314,-546 320,-540 326,-540 326,-540 443,-540 443,-540 449,-540 455,-546 455,-552 455,-552 455,-564 455,-564 455,-570 449,-576 443,-576"/>
<text text-anchor="middle" x="384.5" y="-554.3" font-family="Times,serif" font-size="14.00">{&#39;fileID&#39;: 1810339578}</text>
</g>
<!-- 8 -->
<g id="node2" class="node">
<title>8</title>
<path fill="lightpink" stroke="lightpink" d="M443,-522C443,-522 326,-522 326,-522 320,-522 314,-516 314,-510 314,-510 314,-498 314,-498 314,-492 320,-486 326,-486 326,-486 443,-486 443,-486 449,-486 455,-492 455,-498 455,-498 455,-510 455,-510 455,-516 449,-522 443,-522"/>
<text text-anchor="middle" x="384.5" y="-500.3" font-family="Times,serif" font-size="14.00">{&#39;fileID&#39;: 1810339577}</text>
</g>
<!-- 10 -->
<g id="node3" class="node">
<title>10</title>
<path fill="lightpink" stroke="lightpink" d="M443,-468C443,-468 326,-468 326,-468 320,-468 314,-462 314,-456 314,-456 314,-444 314,-444 314,-438 320,-432 326,-432 326,-432 443,-432 443,-432 449,-432 455,-438 455,-444 455,-444 455,-456 455,-456 455,-462 449,-468 443,-468"/>
<text text-anchor="middle" x="384.5" y="-446.3" font-family="Times,serif" font-size="14.00">{&#39;fileID&#39;: 1810339576}</text>
</g>
<!-- 2 -->
<g id="node4" class="node">
<title>2</title>
<path fill="#b0e2ff" stroke="#b0e2ff" d="M266,-496C266,-496 102,-496 102,-496 96,-496 90,-490 90,-484 90,-484 90,-470 90,-470 90,-464 96,-458 102,-458 102,-458 266,-458 266,-458 272,-458 278,-464 278,-470 278,-470 278,-484 278,-484 278,-490 272,-496 266,-496"/>
<text text-anchor="middle" x="184" y="-480.8" font-family="Times,serif" font-size="14.00">GameObject_1_ID1810339575</text>
<text text-anchor="middle" x="184" y="-465.8" font-family="Times,serif" font-size="14.00">Main Camera</text>
</g>
<!-- 2&#45;&gt;6 -->
<g id="edge1" class="edge">
<title>2&#45;&gt;6</title>
<path fill="none" stroke="black" d="M229.66,-496.03C254.44,-506.5 285.86,-519.64 314,-531 318.16,-532.68 322.48,-534.4 326.82,-536.12"/>
<polygon fill="black" stroke="black" points="325.74,-539.46 336.33,-539.86 328.31,-532.94 325.74,-539.46"/>
</g>
<!-- 2&#45;&gt;8 -->
<g id="edge2" class="edge">
<title>2&#45;&gt;8</title>
<path fill="none" stroke="black" d="M278.15,-489.67C286.67,-490.83 295.25,-492 303.64,-493.14"/>
<polygon fill="black" stroke="black" points="303.38,-496.63 313.76,-494.51 304.33,-489.7 303.38,-496.63"/>
</g>
<!-- 2&#45;&gt;10 -->
<g id="edge3" class="edge">
<title>2&#45;&gt;10</title>
<path fill="none" stroke="black" d="M278.15,-464.33C286.67,-463.17 295.25,-462 303.64,-460.86"/>
<polygon fill="black" stroke="black" points="304.33,-464.3 313.76,-459.49 303.38,-457.37 304.33,-464.3"/>
</g>
<!-- 17 -->
<g id="node5" class="node">
<title>17</title>
<path fill="lightpink" stroke="lightpink" d="M439.5,-414C439.5,-414 329.5,-414 329.5,-414 323.5,-414 317.5,-408 317.5,-402 317.5,-402 317.5,-390 317.5,-390 317.5,-384 323.5,-378 329.5,-378 329.5,-378 439.5,-378 439.5,-378 445.5,-378 451.5,-384 451.5,-390 451.5,-390 451.5,-402 451.5,-402 451.5,-408 445.5,-414 439.5,-414"/>
<text text-anchor="middle" x="384.5" y="-392.3" font-family="Times,serif" font-size="14.00">{&#39;fileID&#39;: 636665500}</text>
</g>
<!-- 19 -->
<g id="node6" class="node">
<title>19</title>
<path fill="lightpink" stroke="lightpink" d="M439.5,-360C439.5,-360 329.5,-360 329.5,-360 323.5,-360 317.5,-354 317.5,-348 317.5,-348 317.5,-336 317.5,-336 317.5,-330 323.5,-324 329.5,-324 329.5,-324 439.5,-324 439.5,-324 445.5,-324 451.5,-330 451.5,-336 451.5,-336 451.5,-348 451.5,-348 451.5,-354 445.5,-360 439.5,-360"/>
<text text-anchor="middle" x="384.5" y="-338.3" font-family="Times,serif" font-size="14.00">{&#39;fileID&#39;: 636665499}</text>
</g>
<!-- 13 -->
<g id="node7" class="node">
<title>13</title>
<path fill="#b0e2ff" stroke="#b0e2ff" d="M262.5,-361C262.5,-361 105.5,-361 105.5,-361 99.5,-361 93.5,-355 93.5,-349 93.5,-349 93.5,-335 93.5,-335 93.5,-329 99.5,-323 105.5,-323 105.5,-323 262.5,-323 262.5,-323 268.5,-323 274.5,-329 274.5,-335 274.5,-335 274.5,-349 274.5,-349 274.5,-355 268.5,-361 262.5,-361"/>
<text text-anchor="middle" x="184" y="-345.8" font-family="Times,serif" font-size="14.00">GameObject_1_ID636665498</text>
<text text-anchor="middle" x="184" y="-330.8" font-family="Times,serif" font-size="14.00">Directional Light</text>
</g>
<!-- 13&#45;&gt;17 -->
<g id="edge4" class="edge">
<title>13&#45;&gt;17</title>
<path fill="none" stroke="black" d="M254.98,-361.04C271.97,-365.66 290.2,-370.62 307.45,-375.31"/>
<polygon fill="black" stroke="black" points="306.91,-378.79 317.47,-378.04 308.74,-372.04 306.91,-378.79"/>
</g>
<!-- 13&#45;&gt;19 -->
<g id="edge5" class="edge">
<title>13&#45;&gt;19</title>
<path fill="none" stroke="black" d="M274.67,-342C285.57,-342 296.62,-342 307.3,-342"/>
<polygon fill="black" stroke="black" points="307.41,-345.5 317.41,-342 307.41,-338.5 307.41,-345.5"/>
</g>
<!-- 26 -->
<g id="node8" class="node">
<title>26</title>
<path fill="lightpink" stroke="lightpink" d="M439.5,-306C439.5,-306 329.5,-306 329.5,-306 323.5,-306 317.5,-300 317.5,-294 317.5,-294 317.5,-282 317.5,-282 317.5,-276 323.5,-270 329.5,-270 329.5,-270 439.5,-270 439.5,-270 445.5,-270 451.5,-276 451.5,-282 451.5,-282 451.5,-294 451.5,-294 451.5,-300 445.5,-306 439.5,-306"/>
<text text-anchor="middle" x="384.5" y="-284.3" font-family="Times,serif" font-size="14.00">{&#39;fileID&#39;: 628318587}</text>
</g>
<!-- 28 -->
<g id="node9" class="node">
<title>28</title>
<path fill="lightpink" stroke="lightpink" d="M439.5,-252C439.5,-252 329.5,-252 329.5,-252 323.5,-252 317.5,-246 317.5,-240 317.5,-240 317.5,-228 317.5,-228 317.5,-222 323.5,-216 329.5,-216 329.5,-216 439.5,-216 439.5,-216 445.5,-216 451.5,-222 451.5,-228 451.5,-228 451.5,-240 451.5,-240 451.5,-246 445.5,-252 439.5,-252"/>
<text text-anchor="middle" x="384.5" y="-230.3" font-family="Times,serif" font-size="14.00">{&#39;fileID&#39;: 628318586}</text>
</g>
<!-- 30 -->
<g id="node10" class="node">
<title>30</title>
<path fill="lightpink" stroke="lightpink" d="M439.5,-198C439.5,-198 329.5,-198 329.5,-198 323.5,-198 317.5,-192 317.5,-186 317.5,-186 317.5,-174 317.5,-174 317.5,-168 323.5,-162 329.5,-162 329.5,-162 439.5,-162 439.5,-162 445.5,-162 451.5,-168 451.5,-174 451.5,-174 451.5,-186 451.5,-186 451.5,-192 445.5,-198 439.5,-198"/>
<text text-anchor="middle" x="384.5" y="-176.3" font-family="Times,serif" font-size="14.00">{&#39;fileID&#39;: 628318585}</text>
</g>
<!-- 32 -->
<g id="node11" class="node">
<title>32</title>
<path fill="lightpink" stroke="lightpink" d="M439.5,-144C439.5,-144 329.5,-144 329.5,-144 323.5,-144 317.5,-138 317.5,-132 317.5,-132 317.5,-120 317.5,-120 317.5,-114 323.5,-108 329.5,-108 329.5,-108 439.5,-108 439.5,-108 445.5,-108 451.5,-114 451.5,-120 451.5,-120 451.5,-132 451.5,-132 451.5,-138 445.5,-144 439.5,-144"/>
<text text-anchor="middle" x="384.5" y="-122.3" font-family="Times,serif" font-size="14.00">{&#39;fileID&#39;: 628318584}</text>
</g>
<!-- 22 -->
<g id="node12" class="node">
<title>22</title>
<path fill="#b0e2ff" stroke="#b0e2ff" d="M262.5,-253C262.5,-253 105.5,-253 105.5,-253 99.5,-253 93.5,-247 93.5,-241 93.5,-241 93.5,-227 93.5,-227 93.5,-221 99.5,-215 105.5,-215 105.5,-215 262.5,-215 262.5,-215 268.5,-215 274.5,-221 274.5,-227 274.5,-227 274.5,-241 274.5,-241 274.5,-247 268.5,-253 262.5,-253"/>
<text text-anchor="middle" x="184" y="-237.8" font-family="Times,serif" font-size="14.00">GameObject_1_ID628318583</text>
<text text-anchor="middle" x="184" y="-222.8" font-family="Times,serif" font-size="14.00">Plane</text>
</g>
<!-- 22&#45;&gt;26 -->
<g id="edge6" class="edge">
<title>22&#45;&gt;26</title>
<path fill="none" stroke="black" d="M254.98,-253.04C271.97,-257.66 290.2,-262.62 307.45,-267.31"/>
<polygon fill="black" stroke="black" points="306.91,-270.79 317.47,-270.04 308.74,-264.04 306.91,-270.79"/>
</g>
<!-- 22&#45;&gt;28 -->
<g id="edge7" class="edge">
<title>22&#45;&gt;28</title>
<path fill="none" stroke="black" d="M274.67,-234C285.57,-234 296.62,-234 307.3,-234"/>
<polygon fill="black" stroke="black" points="307.41,-237.5 317.41,-234 307.41,-230.5 307.41,-237.5"/>
</g>
<!-- 22&#45;&gt;30 -->
<g id="edge8" class="edge">
<title>22&#45;&gt;30</title>
<path fill="none" stroke="black" d="M254.98,-214.96C271.97,-210.34 290.2,-205.38 307.45,-200.69"/>
<polygon fill="black" stroke="black" points="308.74,-203.96 317.47,-197.96 306.91,-197.21 308.74,-203.96"/>
</g>
<!-- 22&#45;&gt;32 -->
<g id="edge9" class="edge">
<title>22&#45;&gt;32</title>
<path fill="none" stroke="black" d="M212.29,-214.72C237.81,-197.22 277.37,-171.4 314,-153 317.32,-151.33 320.77,-149.7 324.27,-148.12"/>
<polygon fill="black" stroke="black" points="325.86,-151.24 333.64,-144.04 323.07,-144.82 325.86,-151.24"/>
</g>
<!-- 39 -->
<g id="node13" class="node">
<title>39</title>
<path fill="lightpink" stroke="lightpink" d="M439.5,-90C439.5,-90 329.5,-90 329.5,-90 323.5,-90 317.5,-84 317.5,-78 317.5,-78 317.5,-66 317.5,-66 317.5,-60 323.5,-54 329.5,-54 329.5,-54 439.5,-54 439.5,-54 445.5,-54 451.5,-60 451.5,-66 451.5,-66 451.5,-78 451.5,-78 451.5,-84 445.5,-90 439.5,-90"/>
<text text-anchor="middle" x="384.5" y="-68.3" font-family="Times,serif" font-size="14.00">{&#39;fileID&#39;: 722127365}</text>
</g>
<!-- 41 -->
<g id="node14" class="node">
<title>41</title>
<path fill="lightpink" stroke="lightpink" d="M439.5,-36C439.5,-36 329.5,-36 329.5,-36 323.5,-36 317.5,-30 317.5,-24 317.5,-24 317.5,-12 317.5,-12 317.5,-6 323.5,0 329.5,0 329.5,0 439.5,0 439.5,0 445.5,0 451.5,-6 451.5,-12 451.5,-12 451.5,-24 451.5,-24 451.5,-30 445.5,-36 439.5,-36"/>
<text text-anchor="middle" x="384.5" y="-14.3" font-family="Times,serif" font-size="14.00">{&#39;fileID&#39;: 722127364}</text>
</g>
<!-- 35 -->
<g id="node15" class="node">
<title>35</title>
<path fill="#b0e2ff" stroke="#b0e2ff" d="M262.5,-91C262.5,-91 105.5,-91 105.5,-91 99.5,-91 93.5,-85 93.5,-79 93.5,-79 93.5,-65 93.5,-65 93.5,-59 99.5,-53 105.5,-53 105.5,-53 262.5,-53 262.5,-53 268.5,-53 274.5,-59 274.5,-65 274.5,-65 274.5,-79 274.5,-79 274.5,-85 268.5,-91 262.5,-91"/>
<text text-anchor="middle" x="184" y="-75.8" font-family="Times,serif" font-size="14.00">GameObject_1_ID722127363</text>
<text text-anchor="middle" x="184" y="-60.8" font-family="Times,serif" font-size="14.00">GameObject</text>
</g>
<!-- 35&#45;&gt;39 -->
<g id="edge10" class="edge">
<title>35&#45;&gt;39</title>
<path fill="none" stroke="black" d="M274.67,-72C285.57,-72 296.62,-72 307.3,-72"/>
<polygon fill="black" stroke="black" points="307.41,-75.5 317.41,-72 307.41,-68.5 307.41,-75.5"/>
</g>
<!-- 35&#45;&gt;41 -->
<g id="edge11" class="edge">
<title>35&#45;&gt;41</title>
<path fill="none" stroke="black" d="M254.98,-52.96C271.97,-48.34 290.2,-43.38 307.45,-38.69"/>
<polygon fill="black" stroke="black" points="308.74,-41.96 317.47,-35.96 306.91,-35.21 308.74,-41.96"/>
</g>
<!-- 1 -->
<g id="node16" class="node">
<title>1</title>
<ellipse fill="red" stroke="red" cx="27" cy="-288" rx="27" ry="18"/>
</g>
<!-- 1&#45;&gt;2 -->
<g id="edge12" class="edge">
<title>1&#45;&gt;2</title>
<path fill="none" stroke="black" d="M39.57,-303.97C51.8,-320.67 71.79,-347.54 90,-370 112.55,-397.8 139.49,-428.54 158.55,-449.91"/>
<polygon fill="black" stroke="black" points="156.17,-452.5 165.45,-457.62 161.39,-447.84 156.17,-452.5"/>
</g>
<!-- 1&#45;&gt;13 -->
<g id="edge13" class="edge">
<title>1&#45;&gt;13</title>
<path fill="none" stroke="black" d="M51.21,-296.08C69.17,-302.34 94.97,-311.33 118.98,-319.7"/>
<polygon fill="black" stroke="black" points="117.83,-323 128.42,-322.99 120.13,-316.39 117.83,-323"/>
</g>
<!-- 1&#45;&gt;22 -->
<g id="edge14" class="edge">
<title>1&#45;&gt;22</title>
<path fill="none" stroke="black" d="M51.21,-279.92C69.17,-273.66 94.97,-264.67 118.98,-256.3"/>
<polygon fill="black" stroke="black" points="120.13,-259.61 128.42,-253.01 117.83,-253 120.13,-259.61"/>
</g>
<!-- 1&#45;&gt;35 -->
<g id="edge15" class="edge">
<title>1&#45;&gt;35</title>
<path fill="none" stroke="black" d="M39.65,-271.76C66.04,-234.99 130.62,-144.99 163.33,-99.41"/>
<polygon fill="black" stroke="black" points="166.25,-101.34 169.24,-91.18 160.57,-97.26 166.25,-101.34"/>
</g>
</g>
</svg>
