<?xml version="1.0" encoding="UTF-8" standalone="no"?>
<!DOCTYPE svg PUBLIC "-//W3C//DTD SVG 1.1//EN"
 "http://www.w3.org/Graphics/SVG/1.1/DTD/svg11.dtd">
<!-- Generated by graphviz version 2.46.0 (20210118.1747)
 -->
<!-- Title: graphname Pages: 1 -->
<svg width="4824pt" height="1799pt"
 viewBox="0.00 0.00 4824.00 1799.27" xmlns="http://www.w3.org/2000/svg" xmlns:xlink="http://www.w3.org/1999/xlink">
<g id="graph0" class="graph" transform="scale(9.73 9.73) rotate(0) translate(4 181)">
<title>graphname</title>
<polygon fill="white" stroke="transparent" points="-4,4 -4,-181 492,-181 492,4 -4,4"/>
<!-- 9 -->
<g id="node1" class="node">
<title>9</title>
<path fill="yellowgreen" stroke="yellowgreen" d="M224.82,-177.13C224.82,-177.13 132.82,-177.13 132.82,-177.13 126.82,-177.13 120.82,-171.13 120.82,-165.13 120.82,-165.13 120.82,-151.13 120.82,-151.13 120.82,-145.13 126.82,-139.13 132.82,-139.13 132.82,-139.13 224.82,-139.13 224.82,-139.13 230.82,-139.13 236.82,-145.13 236.82,-151.13 236.82,-151.13 236.82,-165.13 236.82,-165.13 236.82,-171.13 230.82,-177.13 224.82,-177.13"/>
<text text-anchor="middle" x="178.82" y="-161.93" font-family="Times,serif" font-size="14.00">m_GameObject</text>
<text text-anchor="middle" x="178.82" y="-146.93" font-family="Times,serif" font-size="14.00">fileID: 722127363</text>
</g>
<!-- 2 -->
<g id="node2" class="node">
<title>2</title>
<path fill="lightpink" stroke="lightpink" d="M475.93,-131.13C475.93,-131.13 11.93,-131.13 11.93,-131.13 5.93,-131.13 -0.07,-125.13 -0.07,-119.13 -0.07,-119.13 -0.07,-105.13 -0.07,-105.13 -0.07,-99.13 5.93,-93.13 11.93,-93.13 11.93,-93.13 475.93,-93.13 475.93,-93.13 481.93,-93.13 487.93,-99.13 487.93,-105.13 487.93,-105.13 487.93,-119.13 487.93,-119.13 487.93,-125.13 481.93,-131.13 475.93,-131.13"/>
<text text-anchor="middle" x="243.93" y="-115.93" font-family="Times,serif" font-size="14.00">MonoBehaviour_114_ID722127364</text>
<text text-anchor="middle" x="243.93" y="-100.93" font-family="Times,serif" font-size="14.00">m_Script: {&#39;guid&#39;: &#39;96d347c34434d674abfcf6224d2acf63&#39;, &#39;type&#39;: 3, &#39;fileID&#39;: 11500000}</text>
</g>
<!-- 2&#45;&gt;9 -->
<g id="edge1" class="edge">
<title>2&#45;&gt;9</title>
<path fill="none" stroke="black" d="M216.69,-131.37C215.79,-132.01 214.87,-132.66 213.96,-133.3"/>
<polygon fill="black" stroke="black" points="211.88,-130.49 205.73,-139.12 215.92,-136.2 211.88,-130.49"/>
</g>
<!-- 1 -->
<g id="node3" class="node">
<title>1</title>
<ellipse fill="red" stroke="red" cx="254.78" cy="-17.97" rx="27" ry="18"/>
</g>
<!-- 1&#45;&gt;2 -->
<g id="edge2" class="edge">
<title>1&#45;&gt;2</title>
<path fill="none" stroke="black" d="M252.69,-36.13C251.16,-49.41 249.05,-67.72 247.28,-83.04"/>
<polygon fill="black" stroke="black" points="243.79,-82.73 246.13,-93.06 250.75,-83.53 243.79,-82.73"/>
</g>
</g>
</svg>
