<?xml version="1.0" encoding="UTF-8" standalone="no"?>
<!DOCTYPE svg PUBLIC "-//W3C//DTD SVG 1.1//EN"
 "http://www.w3.org/Graphics/SVG/1.1/DTD/svg11.dtd">
<!-- Generated by graphviz version 2.46.0 (20210118.1747)
 -->
<!-- Title: graphname Pages: 1 -->
<svg width="4824pt" height="4209pt"
 viewBox="0.00 0.00 4824.00 4208.75" xmlns="http://www.w3.org/2000/svg" xmlns:xlink="http://www.w3.org/1999/xlink">
<g id="graph0" class="graph" transform="scale(6.46 6.46) rotate(0) translate(4 648)">
<title>graphname</title>
<polygon fill="white" stroke="transparent" points="-4,4 -4,-648 743.31,-648 743.31,4 -4,4"/>
<!-- 6 -->
<g id="node1" class="node">
<title>6</title>
<path fill="lightpink" stroke="lightpink" d="M727.31,-426.53C727.31,-426.53 610.31,-426.53 610.31,-426.53 604.31,-426.53 598.31,-420.53 598.31,-414.53 598.31,-414.53 598.31,-402.53 598.31,-402.53 598.31,-396.53 604.31,-390.53 610.31,-390.53 610.31,-390.53 727.31,-390.53 727.31,-390.53 733.31,-390.53 739.31,-396.53 739.31,-402.53 739.31,-402.53 739.31,-414.53 739.31,-414.53 739.31,-420.53 733.31,-426.53 727.31,-426.53"/>
<text text-anchor="middle" x="668.81" y="-404.83" font-family="Times,serif" font-size="14.00">{&#39;fileID&#39;: 1810339578}</text>
</g>
<!-- 8 -->
<g id="node2" class="node">
<title>8</title>
<path fill="lightpink" stroke="lightpink" d="M633.75,-572.11C633.75,-572.11 516.75,-572.11 516.75,-572.11 510.75,-572.11 504.75,-566.11 504.75,-560.11 504.75,-560.11 504.75,-548.11 504.75,-548.11 504.75,-542.11 510.75,-536.11 516.75,-536.11 516.75,-536.11 633.75,-536.11 633.75,-536.11 639.75,-536.11 645.75,-542.11 645.75,-548.11 645.75,-548.11 645.75,-560.11 645.75,-560.11 645.75,-566.11 639.75,-572.11 633.75,-572.11"/>
<text text-anchor="middle" x="575.25" y="-550.41" font-family="Times,serif" font-size="14.00">{&#39;fileID&#39;: 1810339577}</text>
</g>
<!-- 10 -->
<g id="node3" class="node">
<title>10</title>
<path fill="lightpink" stroke="lightpink" d="M476.33,-644C476.33,-644 359.33,-644 359.33,-644 353.33,-644 347.33,-638 347.33,-632 347.33,-632 347.33,-620 347.33,-620 347.33,-614 353.33,-608 359.33,-608 359.33,-608 476.33,-608 476.33,-608 482.33,-608 488.33,-614 488.33,-620 488.33,-620 488.33,-632 488.33,-632 488.33,-638 482.33,-644 476.33,-644"/>
<text text-anchor="middle" x="417.83" y="-622.3" font-family="Times,serif" font-size="14.00">{&#39;fileID&#39;: 1810339576}</text>
</g>
<!-- 2 -->
<g id="node4" class="node">
<title>2</title>
<path fill="#b0e2ff" stroke="#b0e2ff" d="M556.69,-457.06C556.69,-457.06 392.69,-457.06 392.69,-457.06 386.69,-457.06 380.69,-451.06 380.69,-445.06 380.69,-445.06 380.69,-431.06 380.69,-431.06 380.69,-425.06 386.69,-419.06 392.69,-419.06 392.69,-419.06 556.69,-419.06 556.69,-419.06 562.69,-419.06 568.69,-425.06 568.69,-431.06 568.69,-431.06 568.69,-445.06 568.69,-445.06 568.69,-451.06 562.69,-457.06 556.69,-457.06"/>
<text text-anchor="middle" x="474.69" y="-441.86" font-family="Times,serif" font-size="14.00">GameObject_1_ID1810339575</text>
<text text-anchor="middle" x="474.69" y="-426.86" font-family="Times,serif" font-size="14.00">Main Camera</text>
</g>
<!-- 2&#45;&gt;6 -->
<g id="edge1" class="edge">
<title>2&#45;&gt;6</title>
<path fill="none" stroke="black" d="M568.91,-423.72C575.37,-422.74 581.86,-421.75 588.24,-420.78"/>
<polygon fill="black" stroke="black" points="588.82,-424.24 598.18,-419.27 587.77,-417.32 588.82,-424.24"/>
</g>
<!-- 2&#45;&gt;8 -->
<g id="edge2" class="edge">
<title>2&#45;&gt;8</title>
<path fill="none" stroke="black" d="M491.29,-457.22C508.11,-476.63 534.24,-506.78 552.87,-528.28"/>
<polygon fill="black" stroke="black" points="550.42,-530.8 559.61,-536.06 555.71,-526.22 550.42,-530.8"/>
</g>
<!-- 2&#45;&gt;10 -->
<g id="edge3" class="edge">
<title>2&#45;&gt;10</title>
<path fill="none" stroke="black" d="M468.92,-457.11C458.84,-490.44 437.97,-559.43 426.27,-598.13"/>
<polygon fill="black" stroke="black" points="422.91,-597.14 423.36,-607.73 429.61,-599.17 422.91,-597.14"/>
</g>
<!-- 17 -->
<g id="node5" class="node">
<title>17</title>
<path fill="lightpink" stroke="lightpink" d="M301.54,-619.37C301.54,-619.37 191.54,-619.37 191.54,-619.37 185.54,-619.37 179.54,-613.37 179.54,-607.37 179.54,-607.37 179.54,-595.37 179.54,-595.37 179.54,-589.37 185.54,-583.37 191.54,-583.37 191.54,-583.37 301.54,-583.37 301.54,-583.37 307.54,-583.37 313.54,-589.37 313.54,-595.37 313.54,-595.37 313.54,-607.37 313.54,-607.37 313.54,-613.37 307.54,-619.37 301.54,-619.37"/>
<text text-anchor="middle" x="246.54" y="-597.67" font-family="Times,serif" font-size="14.00">{&#39;fileID&#39;: 636665500}</text>
</g>
<!-- 19 -->
<g id="node6" class="node">
<title>19</title>
<path fill="lightpink" stroke="lightpink" d="M170.76,-506.05C170.76,-506.05 60.76,-506.05 60.76,-506.05 54.76,-506.05 48.76,-500.05 48.76,-494.05 48.76,-494.05 48.76,-482.05 48.76,-482.05 48.76,-476.05 54.76,-470.05 60.76,-470.05 60.76,-470.05 170.76,-470.05 170.76,-470.05 176.76,-470.05 182.76,-476.05 182.76,-482.05 182.76,-482.05 182.76,-494.05 182.76,-494.05 182.76,-500.05 176.76,-506.05 170.76,-506.05"/>
<text text-anchor="middle" x="115.76" y="-484.35" font-family="Times,serif" font-size="14.00">{&#39;fileID&#39;: 636665499}</text>
</g>
<!-- 13 -->
<g id="node7" class="node">
<title>13</title>
<path fill="#b0e2ff" stroke="#b0e2ff" d="M352.06,-457.06C352.06,-457.06 195.06,-457.06 195.06,-457.06 189.06,-457.06 183.06,-451.06 183.06,-445.06 183.06,-445.06 183.06,-431.06 183.06,-431.06 183.06,-425.06 189.06,-419.06 195.06,-419.06 195.06,-419.06 352.06,-419.06 352.06,-419.06 358.06,-419.06 364.06,-425.06 364.06,-431.06 364.06,-431.06 364.06,-445.06 364.06,-445.06 364.06,-451.06 358.06,-457.06 352.06,-457.06"/>
<text text-anchor="middle" x="273.56" y="-441.86" font-family="Times,serif" font-size="14.00">GameObject_1_ID636665498</text>
<text text-anchor="middle" x="273.56" y="-426.86" font-family="Times,serif" font-size="14.00">Directional Light</text>
</g>
<!-- 13&#45;&gt;17 -->
<g id="edge4" class="edge">
<title>13&#45;&gt;17</title>
<path fill="none" stroke="black" d="M270.41,-457.11C265.69,-485.66 256.74,-539.72 251.25,-572.94"/>
<polygon fill="black" stroke="black" points="247.77,-572.5 249.59,-582.94 254.68,-573.65 247.77,-572.5"/>
</g>
<!-- 13&#45;&gt;19 -->
<g id="edge5" class="edge">
<title>13&#45;&gt;19</title>
<path fill="none" stroke="black" d="M213.45,-457.1C203.29,-460.32 192.68,-463.68 182.36,-466.95"/>
<polygon fill="black" stroke="black" points="181.06,-463.69 172.58,-470.04 183.17,-470.36 181.06,-463.69"/>
</g>
<!-- 26 -->
<g id="node8" class="node">
<title>26</title>
<path fill="lightpink" stroke="lightpink" d="M122,-340C122,-340 12,-340 12,-340 6,-340 0,-334 0,-328 0,-328 0,-316 0,-316 0,-310 6,-304 12,-304 12,-304 122,-304 122,-304 128,-304 134,-310 134,-316 134,-316 134,-328 134,-328 134,-334 128,-340 122,-340"/>
<text text-anchor="middle" x="67" y="-318.3" font-family="Times,serif" font-size="14.00">{&#39;fileID&#39;: 628318587}</text>
</g>
<!-- 28 -->
<g id="node9" class="node">
<title>28</title>
<path fill="lightpink" stroke="lightpink" d="M170.76,-173.96C170.76,-173.96 60.76,-173.96 60.76,-173.96 54.76,-173.96 48.76,-167.96 48.76,-161.96 48.76,-161.96 48.76,-149.96 48.76,-149.96 48.76,-143.96 54.76,-137.96 60.76,-137.96 60.76,-137.96 170.76,-137.96 170.76,-137.96 176.76,-137.96 182.76,-143.96 182.76,-149.96 182.76,-149.96 182.76,-161.96 182.76,-161.96 182.76,-167.96 176.76,-173.96 170.76,-173.96"/>
<text text-anchor="middle" x="115.76" y="-152.26" font-family="Times,serif" font-size="14.00">{&#39;fileID&#39;: 628318586}</text>
</g>
<!-- 30 -->
<g id="node10" class="node">
<title>30</title>
<path fill="lightpink" stroke="lightpink" d="M301.54,-60.63C301.54,-60.63 191.54,-60.63 191.54,-60.63 185.54,-60.63 179.54,-54.63 179.54,-48.63 179.54,-48.63 179.54,-36.63 179.54,-36.63 179.54,-30.63 185.54,-24.63 191.54,-24.63 191.54,-24.63 301.54,-24.63 301.54,-24.63 307.54,-24.63 313.54,-30.63 313.54,-36.63 313.54,-36.63 313.54,-48.63 313.54,-48.63 313.54,-54.63 307.54,-60.63 301.54,-60.63"/>
<text text-anchor="middle" x="246.54" y="-38.93" font-family="Times,serif" font-size="14.00">{&#39;fileID&#39;: 628318585}</text>
</g>
<!-- 32 -->
<g id="node11" class="node">
<title>32</title>
<path fill="lightpink" stroke="lightpink" d="M472.83,-36C472.83,-36 362.83,-36 362.83,-36 356.83,-36 350.83,-30 350.83,-24 350.83,-24 350.83,-12 350.83,-12 350.83,-6 356.83,0 362.83,0 362.83,0 472.83,0 472.83,0 478.83,0 484.83,-6 484.83,-12 484.83,-12 484.83,-24 484.83,-24 484.83,-30 478.83,-36 472.83,-36"/>
<text text-anchor="middle" x="417.83" y="-14.3" font-family="Times,serif" font-size="14.00">{&#39;fileID&#39;: 628318584}</text>
</g>
<!-- 22 -->
<g id="node12" class="node">
<title>22</title>
<path fill="#b0e2ff" stroke="#b0e2ff" d="M352.06,-224.94C352.06,-224.94 195.06,-224.94 195.06,-224.94 189.06,-224.94 183.06,-218.94 183.06,-212.94 183.06,-212.94 183.06,-198.94 183.06,-198.94 183.06,-192.94 189.06,-186.94 195.06,-186.94 195.06,-186.94 352.06,-186.94 352.06,-186.94 358.06,-186.94 364.06,-192.94 364.06,-198.94 364.06,-198.94 364.06,-212.94 364.06,-212.94 364.06,-218.94 358.06,-224.94 352.06,-224.94"/>
<text text-anchor="middle" x="273.56" y="-209.74" font-family="Times,serif" font-size="14.00">GameObject_1_ID628318583</text>
<text text-anchor="middle" x="273.56" y="-194.74" font-family="Times,serif" font-size="14.00">Plane</text>
</g>
<!-- 22&#45;&gt;26 -->
<g id="edge6" class="edge">
<title>22&#45;&gt;26</title>
<path fill="none" stroke="black" d="M239.45,-225.11C203.39,-245.37 146.49,-277.34 108,-298.96"/>
<polygon fill="black" stroke="black" points="106.12,-296 99.12,-303.95 109.55,-302.11 106.12,-296"/>
</g>
<!-- 22&#45;&gt;28 -->
<g id="edge7" class="edge">
<title>22&#45;&gt;28</title>
<path fill="none" stroke="black" d="M213.45,-186.9C203.29,-183.68 192.68,-180.32 182.36,-177.05"/>
<polygon fill="black" stroke="black" points="183.17,-173.64 172.58,-173.96 181.06,-180.31 183.17,-173.64"/>
</g>
<!-- 22&#45;&gt;30 -->
<g id="edge8" class="edge">
<title>22&#45;&gt;30</title>
<path fill="none" stroke="black" d="M270.41,-186.89C265.69,-158.34 256.74,-104.28 251.25,-71.06"/>
<polygon fill="black" stroke="black" points="254.68,-70.35 249.59,-61.06 247.77,-71.5 254.68,-70.35"/>
</g>
<!-- 22&#45;&gt;32 -->
<g id="edge9" class="edge">
<title>22&#45;&gt;32</title>
<path fill="none" stroke="black" d="M288.19,-186.89C314.1,-153.14 368.09,-82.81 397.56,-44.41"/>
<polygon fill="black" stroke="black" points="400.5,-46.34 403.81,-36.27 394.94,-42.07 400.5,-46.34"/>
</g>
<!-- 39 -->
<g id="node13" class="node">
<title>39</title>
<path fill="lightpink" stroke="lightpink" d="M630.25,-107.89C630.25,-107.89 520.25,-107.89 520.25,-107.89 514.25,-107.89 508.25,-101.89 508.25,-95.89 508.25,-95.89 508.25,-83.89 508.25,-83.89 508.25,-77.89 514.25,-71.89 520.25,-71.89 520.25,-71.89 630.25,-71.89 630.25,-71.89 636.25,-71.89 642.25,-77.89 642.25,-83.89 642.25,-83.89 642.25,-95.89 642.25,-95.89 642.25,-101.89 636.25,-107.89 630.25,-107.89"/>
<text text-anchor="middle" x="575.25" y="-86.19" font-family="Times,serif" font-size="14.00">{&#39;fileID&#39;: 722127365}</text>
</g>
<!-- 41 -->
<g id="node14" class="node">
<title>41</title>
<path fill="lightpink" stroke="lightpink" d="M723.81,-253.47C723.81,-253.47 613.81,-253.47 613.81,-253.47 607.81,-253.47 601.81,-247.47 601.81,-241.47 601.81,-241.47 601.81,-229.47 601.81,-229.47 601.81,-223.47 607.81,-217.47 613.81,-217.47 613.81,-217.47 723.81,-217.47 723.81,-217.47 729.81,-217.47 735.81,-223.47 735.81,-229.47 735.81,-229.47 735.81,-241.47 735.81,-241.47 735.81,-247.47 729.81,-253.47 723.81,-253.47"/>
<text text-anchor="middle" x="668.81" y="-231.77" font-family="Times,serif" font-size="14.00">{&#39;fileID&#39;: 722127364}</text>
</g>
<!-- 35 -->
<g id="node15" class="node">
<title>35</title>
<path fill="#b0e2ff" stroke="#b0e2ff" d="M581.81,-257.98C581.81,-257.98 424.81,-257.98 424.81,-257.98 418.81,-257.98 412.81,-251.98 412.81,-245.98 412.81,-245.98 412.81,-231.98 412.81,-231.98 412.81,-225.98 418.81,-219.98 424.81,-219.98 424.81,-219.98 581.81,-219.98 581.81,-219.98 587.81,-219.98 593.81,-225.98 593.81,-231.98 593.81,-231.98 593.81,-245.98 593.81,-245.98 593.81,-251.98 587.81,-257.98 581.81,-257.98"/>
<text text-anchor="middle" x="503.31" y="-242.78" font-family="Times,serif" font-size="14.00">GameObject_1_ID722127363</text>
<text text-anchor="middle" x="503.31" y="-227.78" font-family="Times,serif" font-size="14.00">GameObject</text>
</g>
<!-- 35&#45;&gt;39 -->
<g id="edge10" class="edge">
<title>35&#45;&gt;39</title>
<path fill="none" stroke="black" d="M512.57,-219.79C525.12,-193.79 547.6,-147.2 561.95,-117.46"/>
<polygon fill="black" stroke="black" points="565.29,-118.6 566.48,-108.07 558.98,-115.55 565.29,-118.6"/>
</g>
<!-- 35&#45;&gt;41 -->
<g id="edge11" class="edge">
<title>35&#45;&gt;41</title>
<path fill="none" stroke="black" d="M594.29,-237.05C594.44,-237.05 594.59,-237.04 594.74,-237.04"/>
<polygon fill="black" stroke="black" points="591.54,-240.61 601.47,-236.9 591.39,-233.61 591.54,-240.61"/>
</g>
<!-- 1 -->
<g id="node16" class="node">
<title>1</title>
<ellipse fill="red" stroke="red" cx="374.13" cy="-322" rx="27" ry="18"/>
</g>
<!-- 1&#45;&gt;2 -->
<g id="edge12" class="edge">
<title>1&#45;&gt;2</title>
<path fill="none" stroke="black" d="M387.69,-337.65C403.99,-356.47 431.63,-388.36 451.38,-411.15"/>
<polygon fill="black" stroke="black" points="448.81,-413.53 458,-418.8 454.1,-408.95 448.81,-413.53"/>
</g>
<!-- 1&#45;&gt;13 -->
<g id="edge13" class="edge">
<title>1&#45;&gt;13</title>
<path fill="none" stroke="black" d="M360.56,-337.65C344.26,-356.47 316.63,-388.36 296.88,-411.15"/>
<polygon fill="black" stroke="black" points="294.15,-408.95 290.25,-418.8 299.44,-413.53 294.15,-408.95"/>
</g>
<!-- 1&#45;&gt;22 -->
<g id="edge14" class="edge">
<title>1&#45;&gt;22</title>
<path fill="none" stroke="black" d="M360.56,-306.35C344.26,-287.53 316.63,-255.64 296.88,-232.85"/>
<polygon fill="black" stroke="black" points="299.44,-230.47 290.25,-225.2 294.15,-235.05 299.44,-230.47"/>
</g>
<!-- 1&#45;&gt;35 -->
<g id="edge15" class="edge">
<title>1&#45;&gt;35</title>
<path fill="none" stroke="black" d="M393.75,-309.39C412.52,-297.32 441.37,-278.79 464.74,-263.76"/>
<polygon fill="black" stroke="black" points="466.89,-266.55 473.41,-258.2 463.1,-260.66 466.89,-266.55"/>
</g>
</g>
</svg>
