<?xml version="1.0" encoding="UTF-8" standalone="no"?>
<!DOCTYPE svg PUBLIC "-//W3C//DTD SVG 1.1//EN"
 "http://www.w3.org/Graphics/SVG/1.1/DTD/svg11.dtd">
<!-- Generated by graphviz version 2.46.0 (20210118.1747)
 -->
<!-- Title: graphname Pages: 1 -->
<svg width="4824pt" height="312pt"
 viewBox="0.00 0.00 4824.00 312.27" xmlns="http://www.w3.org/2000/svg" xmlns:xlink="http://www.w3.org/1999/xlink">
<g id="graph0" class="graph" transform="scale(6.79 6.79) rotate(0) translate(4 42)">
<title>graphname</title>
<polygon fill="white" stroke="transparent" points="-4,4 -4,-42 706.61,-42 706.61,4 -4,4"/>
<!-- 9 -->
<g id="node1" class="node">
<title>9</title>
<path fill="yellowgreen" stroke="yellowgreen" d="M104,-38C104,-38 12,-38 12,-38 6,-38 0,-32 0,-26 0,-26 0,-12 0,-12 0,-6 6,0 12,0 12,0 104,0 104,0 110,0 116,-6 116,-12 116,-12 116,-26 116,-26 116,-32 110,-38 104,-38"/>
<text text-anchor="middle" x="58" y="-22.8" font-family="Times,serif" font-size="14.00">m_GameObject</text>
<text text-anchor="middle" x="58" y="-7.8" font-family="Times,serif" font-size="14.00">fileID: 722127363</text>
</g>
<!-- 2 -->
<g id="node2" class="node">
<title>2</title>
<path fill="lightpink" stroke="lightpink" d="M600,-38C600,-38 136,-38 136,-38 130,-38 124,-32 124,-26 124,-26 124,-12 124,-12 124,-6 130,0 136,0 136,0 600,0 600,0 606,0 612,-6 612,-12 612,-12 612,-26 612,-26 612,-32 606,-38 600,-38"/>
<text text-anchor="middle" x="368" y="-22.8" font-family="Times,serif" font-size="14.00">MonoBehaviour_114_ID722127364</text>
<text text-anchor="middle" x="368" y="-7.8" font-family="Times,serif" font-size="14.00">m_Script: {&#39;guid&#39;: &#39;96d347c34434d674abfcf6224d2acf63&#39;, &#39;type&#39;: 3, &#39;fileID&#39;: 11500000}</text>
</g>
<!-- 2&#45;&gt;9 -->
<g id="edge1" class="edge">
<title>2&#45;&gt;9</title>
<path fill="none" stroke="black" d="M123.74,-19C123.58,-19 123.42,-19 123.27,-19"/>
<polygon fill="black" stroke="black" points="126.24,-15.5 116.24,-19 126.24,-22.5 126.24,-15.5"/>
</g>
<!-- 1 -->
<g id="node3" class="node">
<title>1</title>
<ellipse fill="red" stroke="red" cx="675.61" cy="-19" rx="27" ry="18"/>
</g>
<!-- 1&#45;&gt;2 -->
<g id="edge2" class="edge">
<title>1&#45;&gt;2</title>
<path fill="none" stroke="black" d="M648.58,-19C641.05,-19 632.21,-19 622.39,-19"/>
<polygon fill="black" stroke="black" points="622.25,-15.5 612.25,-19 622.25,-22.5 622.25,-15.5"/>
</g>
</g>
</svg>
