<?xml version="1.0" encoding="UTF-8" standalone="no"?>
<!DOCTYPE svg PUBLIC "-//W3C//DTD SVG 1.1//EN"
 "http://www.w3.org/Graphics/SVG/1.1/DTD/svg11.dtd">
<!-- Generated by graphviz version 2.46.0 (20210118.1747)
 -->
<!-- Title: graphname Pages: 1 -->
<svg width="4824pt" height="4719pt"
 viewBox="0.00 0.00 4824.00 4718.99" xmlns="http://www.w3.org/2000/svg" xmlns:xlink="http://www.w3.org/1999/xlink">
<g id="graph0" class="graph" transform="scale(6.56 6.56) rotate(0) translate(4 715)">
<title>graphname</title>
<polygon fill="white" stroke="transparent" points="-4,4 -4,-715 731,-715 731,4 -4,4"/>
<!-- 6 -->
<g id="node1" class="node">
<title>6</title>
<path fill="lightpink" stroke="lightpink" d="M128.57,-447.77C128.57,-447.77 11.57,-447.77 11.57,-447.77 5.57,-447.77 -0.43,-441.77 -0.43,-435.77 -0.43,-435.77 -0.43,-423.77 -0.43,-423.77 -0.43,-417.77 5.57,-411.77 11.57,-411.77 11.57,-411.77 128.57,-411.77 128.57,-411.77 134.57,-411.77 140.57,-417.77 140.57,-423.77 140.57,-423.77 140.57,-435.77 140.57,-435.77 140.57,-441.77 134.57,-447.77 128.57,-447.77"/>
<text text-anchor="middle" x="70.07" y="-426.07" font-family="Times,serif" font-size="14.00">{&#39;fileID&#39;: 1810339578}</text>
</g>
<!-- 8 -->
<g id="node2" class="node">
<title>8</title>
<path fill="lightpink" stroke="lightpink" d="M293.86,-252.15C293.86,-252.15 176.86,-252.15 176.86,-252.15 170.86,-252.15 164.86,-246.15 164.86,-240.15 164.86,-240.15 164.86,-228.15 164.86,-228.15 164.86,-222.15 170.86,-216.15 176.86,-216.15 176.86,-216.15 293.86,-216.15 293.86,-216.15 299.86,-216.15 305.86,-222.15 305.86,-228.15 305.86,-228.15 305.86,-240.15 305.86,-240.15 305.86,-246.15 299.86,-252.15 293.86,-252.15"/>
<text text-anchor="middle" x="235.36" y="-230.45" font-family="Times,serif" font-size="14.00">{&#39;fileID&#39;: 1810339577}</text>
</g>
<!-- 10 -->
<g id="node3" class="node">
<title>10</title>
<path fill="lightpink" stroke="lightpink" d="M134.4,-279.83C134.4,-279.83 17.4,-279.83 17.4,-279.83 11.4,-279.83 5.4,-273.83 5.4,-267.83 5.4,-267.83 5.4,-255.83 5.4,-255.83 5.4,-249.83 11.4,-243.83 17.4,-243.83 17.4,-243.83 134.4,-243.83 134.4,-243.83 140.4,-243.83 146.4,-249.83 146.4,-255.83 146.4,-255.83 146.4,-267.83 146.4,-267.83 146.4,-273.83 140.4,-279.83 134.4,-279.83"/>
<text text-anchor="middle" x="75.9" y="-258.13" font-family="Times,serif" font-size="14.00">{&#39;fileID&#39;: 1810339576}</text>
</g>
<!-- 2 -->
<g id="node4" class="node">
<title>2</title>
<path fill="#b0e2ff" stroke="#b0e2ff" d="M275.8,-373.97C275.8,-373.97 111.8,-373.97 111.8,-373.97 105.8,-373.97 99.8,-367.97 99.8,-361.97 99.8,-361.97 99.8,-347.97 99.8,-347.97 99.8,-341.97 105.8,-335.97 111.8,-335.97 111.8,-335.97 275.8,-335.97 275.8,-335.97 281.8,-335.97 287.8,-341.97 287.8,-347.97 287.8,-347.97 287.8,-361.97 287.8,-361.97 287.8,-367.97 281.8,-373.97 275.8,-373.97"/>
<text text-anchor="middle" x="193.8" y="-358.77" font-family="Times,serif" font-size="14.00">GameObject_1_ID1810339575</text>
<text text-anchor="middle" x="193.8" y="-343.77" font-family="Times,serif" font-size="14.00">Main Camera</text>
</g>
<!-- 2&#45;&gt;6 -->
<g id="edge1" class="edge">
<title>2&#45;&gt;6</title>
<path fill="none" stroke="black" d="M162.26,-374.04C145.92,-383.91 125.83,-396.06 108.58,-406.49"/>
<polygon fill="black" stroke="black" points="106.6,-403.6 99.85,-411.76 110.22,-409.59 106.6,-403.6"/>
</g>
<!-- 2&#45;&gt;8 -->
<g id="edge2" class="edge">
<title>2&#45;&gt;8</title>
<path fill="none" stroke="black" d="M200.39,-335.82C207.22,-315.97 217.96,-284.74 225.74,-262.13"/>
<polygon fill="black" stroke="black" points="229.13,-263.01 229.08,-252.42 222.52,-260.73 229.13,-263.01"/>
</g>
<!-- 2&#45;&gt;10 -->
<g id="edge3" class="edge">
<title>2&#45;&gt;10</title>
<path fill="none" stroke="black" d="M169.66,-335.89C151.5,-321.55 126.49,-301.79 106.86,-286.28"/>
<polygon fill="black" stroke="black" points="108.83,-283.38 98.81,-279.93 104.49,-288.87 108.83,-283.38"/>
</g>
<!-- 17 -->
<g id="node5" class="node">
<title>17</title>
<path fill="lightpink" stroke="lightpink" d="M408.58,-711.1C408.58,-711.1 298.58,-711.1 298.58,-711.1 292.58,-711.1 286.58,-705.1 286.58,-699.1 286.58,-699.1 286.58,-687.1 286.58,-687.1 286.58,-681.1 292.58,-675.1 298.58,-675.1 298.58,-675.1 408.58,-675.1 408.58,-675.1 414.58,-675.1 420.58,-681.1 420.58,-687.1 420.58,-687.1 420.58,-699.1 420.58,-699.1 420.58,-705.1 414.58,-711.1 408.58,-711.1"/>
<text text-anchor="middle" x="353.58" y="-689.4" font-family="Times,serif" font-size="14.00">{&#39;fileID&#39;: 636665500}</text>
</g>
<!-- 19 -->
<g id="node6" class="node">
<title>19</title>
<path fill="lightpink" stroke="lightpink" d="M234.78,-663.67C234.78,-663.67 124.78,-663.67 124.78,-663.67 118.78,-663.67 112.78,-657.67 112.78,-651.67 112.78,-651.67 112.78,-639.67 112.78,-639.67 112.78,-633.67 118.78,-627.67 124.78,-627.67 124.78,-627.67 234.78,-627.67 234.78,-627.67 240.78,-627.67 246.78,-633.67 246.78,-639.67 246.78,-639.67 246.78,-651.67 246.78,-651.67 246.78,-657.67 240.78,-663.67 234.78,-663.67"/>
<text text-anchor="middle" x="179.78" y="-641.97" font-family="Times,serif" font-size="14.00">{&#39;fileID&#39;: 636665499}</text>
</g>
<!-- 13 -->
<g id="node7" class="node">
<title>13</title>
<path fill="#b0e2ff" stroke="#b0e2ff" d="M388.91,-576.31C388.91,-576.31 231.91,-576.31 231.91,-576.31 225.91,-576.31 219.91,-570.31 219.91,-564.31 219.91,-564.31 219.91,-550.31 219.91,-550.31 219.91,-544.31 225.91,-538.31 231.91,-538.31 231.91,-538.31 388.91,-538.31 388.91,-538.31 394.91,-538.31 400.91,-544.31 400.91,-550.31 400.91,-550.31 400.91,-564.31 400.91,-564.31 400.91,-570.31 394.91,-576.31 388.91,-576.31"/>
<text text-anchor="middle" x="310.41" y="-561.11" font-family="Times,serif" font-size="14.00">GameObject_1_ID636665498</text>
<text text-anchor="middle" x="310.41" y="-546.11" font-family="Times,serif" font-size="14.00">Directional Light</text>
</g>
<!-- 13&#45;&gt;17 -->
<g id="edge4" class="edge">
<title>13&#45;&gt;17</title>
<path fill="none" stroke="black" d="M316.51,-576.48C323.85,-599.58 336.25,-638.6 344.67,-665.08"/>
<polygon fill="black" stroke="black" points="341.43,-666.43 347.79,-674.9 348.1,-664.31 341.43,-666.43"/>
</g>
<!-- 13&#45;&gt;19 -->
<g id="edge5" class="edge">
<title>13&#45;&gt;19</title>
<path fill="none" stroke="black" d="M282.07,-576.48C262.41,-589.77 236.1,-607.57 215.09,-621.79"/>
<polygon fill="black" stroke="black" points="213.05,-618.94 206.73,-627.44 216.98,-624.73 213.05,-618.94"/>
</g>
<!-- 26 -->
<g id="node8" class="node">
<title>26</title>
<path fill="lightpink" stroke="lightpink" d="M664.65,-148.38C664.65,-148.38 554.65,-148.38 554.65,-148.38 548.65,-148.38 542.65,-142.38 542.65,-136.38 542.65,-136.38 542.65,-124.38 542.65,-124.38 542.65,-118.38 548.65,-112.38 554.65,-112.38 554.65,-112.38 664.65,-112.38 664.65,-112.38 670.65,-112.38 676.65,-118.38 676.65,-124.38 676.65,-124.38 676.65,-136.38 676.65,-136.38 676.65,-142.38 670.65,-148.38 664.65,-148.38"/>
<text text-anchor="middle" x="609.65" y="-126.68" font-family="Times,serif" font-size="14.00">{&#39;fileID&#39;: 628318587}</text>
</g>
<!-- 28 -->
<g id="node9" class="node">
<title>28</title>
<path fill="lightpink" stroke="lightpink" d="M338.44,-72.03C338.44,-72.03 228.44,-72.03 228.44,-72.03 222.44,-72.03 216.44,-66.03 216.44,-60.03 216.44,-60.03 216.44,-48.03 216.44,-48.03 216.44,-42.03 222.44,-36.03 228.44,-36.03 228.44,-36.03 338.44,-36.03 338.44,-36.03 344.44,-36.03 350.44,-42.03 350.44,-48.03 350.44,-48.03 350.44,-60.03 350.44,-60.03 350.44,-66.03 344.44,-72.03 338.44,-72.03"/>
<text text-anchor="middle" x="283.44" y="-50.33" font-family="Times,serif" font-size="14.00">{&#39;fileID&#39;: 628318586}</text>
</g>
<!-- 30 -->
<g id="node10" class="node">
<title>30</title>
<path fill="lightpink" stroke="lightpink" d="M539.7,-35.93C539.7,-35.93 429.7,-35.93 429.7,-35.93 423.7,-35.93 417.7,-29.93 417.7,-23.93 417.7,-23.93 417.7,-11.93 417.7,-11.93 417.7,-5.93 423.7,0.07 429.7,0.07 429.7,0.07 539.7,0.07 539.7,0.07 545.7,0.07 551.7,-5.93 551.7,-11.93 551.7,-11.93 551.7,-23.93 551.7,-23.93 551.7,-29.93 545.7,-35.93 539.7,-35.93"/>
<text text-anchor="middle" x="484.7" y="-14.23" font-family="Times,serif" font-size="14.00">{&#39;fileID&#39;: 628318585}</text>
</g>
<!-- 32 -->
<g id="node11" class="node">
<title>32</title>
<path fill="lightpink" stroke="lightpink" d="M610.59,-306.72C610.59,-306.72 500.59,-306.72 500.59,-306.72 494.59,-306.72 488.59,-300.72 488.59,-294.72 488.59,-294.72 488.59,-282.72 488.59,-282.72 488.59,-276.72 494.59,-270.72 500.59,-270.72 500.59,-270.72 610.59,-270.72 610.59,-270.72 616.59,-270.72 622.59,-276.72 622.59,-282.72 622.59,-282.72 622.59,-294.72 622.59,-294.72 622.59,-300.72 616.59,-306.72 610.59,-306.72"/>
<text text-anchor="middle" x="555.59" y="-285.02" font-family="Times,serif" font-size="14.00">{&#39;fileID&#39;: 628318584}</text>
</g>
<!-- 22 -->
<g id="node12" class="node">
<title>22</title>
<path fill="#b0e2ff" stroke="#b0e2ff" d="M536.16,-199.3C536.16,-199.3 379.16,-199.3 379.16,-199.3 373.16,-199.3 367.16,-193.3 367.16,-187.3 367.16,-187.3 367.16,-173.3 367.16,-173.3 367.16,-167.3 373.16,-161.3 379.16,-161.3 379.16,-161.3 536.16,-161.3 536.16,-161.3 542.16,-161.3 548.16,-167.3 548.16,-173.3 548.16,-173.3 548.16,-187.3 548.16,-187.3 548.16,-193.3 542.16,-199.3 536.16,-199.3"/>
<text text-anchor="middle" x="457.66" y="-184.1" font-family="Times,serif" font-size="14.00">GameObject_1_ID628318583</text>
<text text-anchor="middle" x="457.66" y="-169.1" font-family="Times,serif" font-size="14.00">Plane</text>
</g>
<!-- 22&#45;&gt;26 -->
<g id="edge6" class="edge">
<title>22&#45;&gt;26</title>
<path fill="none" stroke="black" d="M515.56,-161.28C525.12,-158.14 535.09,-154.87 544.81,-151.67"/>
<polygon fill="black" stroke="black" points="546.02,-154.96 554.43,-148.52 543.83,-148.31 546.02,-154.96"/>
</g>
<!-- 22&#45;&gt;28 -->
<g id="edge7" class="edge">
<title>22&#45;&gt;28</title>
<path fill="none" stroke="black" d="M431.2,-161.12C400.62,-138.95 350.23,-102.43 316.94,-78.31"/>
<polygon fill="black" stroke="black" points="318.6,-75.19 308.45,-72.15 314.49,-80.86 318.6,-75.19"/>
</g>
<!-- 22&#45;&gt;30 -->
<g id="edge8" class="edge">
<title>22&#45;&gt;30</title>
<path fill="none" stroke="black" d="M460.87,-161.03C465.61,-132.53 474.53,-78.97 480.01,-46.07"/>
<polygon fill="black" stroke="black" points="483.47,-46.61 481.66,-36.17 476.57,-45.46 483.47,-46.61"/>
</g>
<!-- 22&#45;&gt;32 -->
<g id="edge9" class="edge">
<title>22&#45;&gt;32</title>
<path fill="none" stroke="black" d="M474.94,-199.43C490.87,-217.06 514.63,-243.37 532.24,-262.87"/>
<polygon fill="black" stroke="black" points="529.83,-265.42 539.13,-270.5 535.03,-260.73 529.83,-265.42"/>
</g>
<!-- 39 -->
<g id="node13" class="node">
<title>39</title>
<path fill="lightpink" stroke="lightpink" d="M715.08,-491.26C715.08,-491.26 605.08,-491.26 605.08,-491.26 599.08,-491.26 593.08,-485.26 593.08,-479.26 593.08,-479.26 593.08,-467.26 593.08,-467.26 593.08,-461.26 599.08,-455.26 605.08,-455.26 605.08,-455.26 715.08,-455.26 715.08,-455.26 721.08,-455.26 727.08,-461.26 727.08,-467.26 727.08,-467.26 727.08,-479.26 727.08,-479.26 727.08,-485.26 721.08,-491.26 715.08,-491.26"/>
<text text-anchor="middle" x="660.08" y="-469.56" font-family="Times,serif" font-size="14.00">{&#39;fileID&#39;: 722127365}</text>
</g>
<!-- 41 -->
<g id="node14" class="node">
<title>41</title>
<path fill="lightpink" stroke="lightpink" d="M629.84,-684.19C629.84,-684.19 519.84,-684.19 519.84,-684.19 513.84,-684.19 507.84,-678.19 507.84,-672.19 507.84,-672.19 507.84,-660.19 507.84,-660.19 507.84,-654.19 513.84,-648.19 519.84,-648.19 519.84,-648.19 629.84,-648.19 629.84,-648.19 635.84,-648.19 641.84,-654.19 641.84,-660.19 641.84,-660.19 641.84,-672.19 641.84,-672.19 641.84,-678.19 635.84,-684.19 629.84,-684.19"/>
<text text-anchor="middle" x="574.84" y="-662.49" font-family="Times,serif" font-size="14.00">{&#39;fileID&#39;: 722127364}</text>
</g>
<!-- 35 -->
<g id="node15" class="node">
<title>35</title>
<path fill="#b0e2ff" stroke="#b0e2ff" d="M573.08,-521.48C573.08,-521.48 416.08,-521.48 416.08,-521.48 410.08,-521.48 404.08,-515.48 404.08,-509.48 404.08,-509.48 404.08,-495.48 404.08,-495.48 404.08,-489.48 410.08,-483.48 416.08,-483.48 416.08,-483.48 573.08,-483.48 573.08,-483.48 579.08,-483.48 585.08,-489.48 585.08,-495.48 585.08,-495.48 585.08,-509.48 585.08,-509.48 585.08,-515.48 579.08,-521.48 573.08,-521.48"/>
<text text-anchor="middle" x="494.58" y="-506.28" font-family="Times,serif" font-size="14.00">GameObject_1_ID722127363</text>
<text text-anchor="middle" x="494.58" y="-491.28" font-family="Times,serif" font-size="14.00">GameObject</text>
</g>
<!-- 35&#45;&gt;39 -->
<g id="edge10" class="edge">
<title>35&#45;&gt;39</title>
<path fill="none" stroke="black" d="M585.56,-486.42C585.71,-486.39 585.86,-486.37 586.01,-486.34"/>
<polygon fill="black" stroke="black" points="583.5,-490.34 592.74,-485.15 582.28,-483.44 583.5,-490.34"/>
</g>
<!-- 35&#45;&gt;41 -->
<g id="edge11" class="edge">
<title>35&#45;&gt;41</title>
<path fill="none" stroke="black" d="M503.95,-521.58C518.1,-550.45 545,-605.33 561.29,-638.56"/>
<polygon fill="black" stroke="black" points="558.23,-640.28 565.78,-647.72 564.52,-637.2 558.23,-640.28"/>
</g>
<!-- 1 -->
<g id="node16" class="node">
<title>1</title>
<ellipse fill="red" stroke="red" cx="384.44" cy="-390.29" rx="27" ry="18"/>
</g>
<!-- 1&#45;&gt;2 -->
<g id="edge12" class="edge">
<title>1&#45;&gt;2</title>
<path fill="none" stroke="black" d="M358.33,-385.45C342.25,-382.47 320.47,-378.44 298.03,-374.28"/>
<polygon fill="black" stroke="black" points="298.51,-370.81 288.04,-372.43 297.24,-377.69 298.51,-370.81"/>
</g>
<!-- 1&#45;&gt;13 -->
<g id="edge13" class="edge">
<title>1&#45;&gt;13</title>
<path fill="none" stroke="black" d="M376.66,-407.85C363.92,-436.59 338.5,-493.93 323.12,-528.64"/>
<polygon fill="black" stroke="black" points="319.73,-527.64 318.88,-538.2 326.13,-530.48 319.73,-527.64"/>
</g>
<!-- 1&#45;&gt;22 -->
<g id="edge14" class="edge">
<title>1&#45;&gt;22</title>
<path fill="none" stroke="black" d="M390.55,-372.75C403.18,-336.53 432.24,-253.2 447.65,-209.02"/>
<polygon fill="black" stroke="black" points="451,-210.04 450.98,-199.44 444.39,-207.73 451,-210.04"/>
</g>
<!-- 1&#45;&gt;35 -->
<g id="edge15" class="edge">
<title>1&#45;&gt;35</title>
<path fill="none" stroke="black" d="M399.29,-405.42C417.05,-423.51 447.06,-454.08 468.67,-476.08"/>
<polygon fill="black" stroke="black" points="466.42,-478.79 475.92,-483.48 471.42,-473.89 466.42,-478.79"/>
</g>
</g>
</svg>
