<?xml version="1.0" encoding="UTF-8" standalone="no"?>
<!DOCTYPE svg PUBLIC "-//W3C//DTD SVG 1.1//EN"
 "http://www.w3.org/Graphics/SVG/1.1/DTD/svg11.dtd">
<!-- Generated by graphviz version 2.46.0 (20210118.1747)
 -->
<!-- Title: graphname Pages: 1 -->
<svg width="4824pt" height="1838pt"
 viewBox="0.00 0.00 4824.00 1838.18" xmlns="http://www.w3.org/2000/svg" xmlns:xlink="http://www.w3.org/1999/xlink">
<g id="graph0" class="graph" transform="scale(9.73 9.73) rotate(0) translate(4 185)">
<title>graphname</title>
<polygon fill="white" stroke="transparent" points="-4,4 -4,-185 492,-185 492,4 -4,4"/>
<!-- 9 -->
<g id="node1" class="node">
<title>9</title>
<path fill="yellowgreen" stroke="yellowgreen" d="M290,-181C290,-181 198,-181 198,-181 192,-181 186,-175 186,-169 186,-169 186,-155 186,-155 186,-149 192,-143 198,-143 198,-143 290,-143 290,-143 296,-143 302,-149 302,-155 302,-155 302,-169 302,-169 302,-175 296,-181 290,-181"/>
<text text-anchor="middle" x="244" y="-165.8" font-family="Times,serif" font-size="14.00">m_GameObject</text>
<text text-anchor="middle" x="244" y="-150.8" font-family="Times,serif" font-size="14.00">fileID: 722127363</text>
</g>
<!-- 2 -->
<g id="node2" class="node">
<title>2</title>
<path fill="lightpink" stroke="lightpink" d="M476,-109C476,-109 12,-109 12,-109 6,-109 0,-103 0,-97 0,-97 0,-83 0,-83 0,-77 6,-71 12,-71 12,-71 476,-71 476,-71 482,-71 488,-77 488,-83 488,-83 488,-97 488,-97 488,-103 482,-109 476,-109"/>
<text text-anchor="middle" x="244" y="-93.8" font-family="Times,serif" font-size="14.00">MonoBehaviour_114_ID722127364</text>
<text text-anchor="middle" x="244" y="-78.8" font-family="Times,serif" font-size="14.00">m_Script: {&#39;guid&#39;: &#39;96d347c34434d674abfcf6224d2acf63&#39;, &#39;type&#39;: 3, &#39;fileID&#39;: 11500000}</text>
</g>
<!-- 2&#45;&gt;9 -->
<g id="edge1" class="edge">
<title>2&#45;&gt;9</title>
<path fill="none" stroke="black" d="M244,-109.29C244,-116.4 244,-124.61 244,-132.41"/>
<polygon fill="black" stroke="black" points="240.5,-132.65 244,-142.65 247.5,-132.65 240.5,-132.65"/>
</g>
<!-- 1 -->
<g id="node3" class="node">
<title>1</title>
<ellipse fill="red" stroke="red" cx="244" cy="-18" rx="27" ry="18"/>
</g>
<!-- 1&#45;&gt;2 -->
<g id="edge2" class="edge">
<title>1&#45;&gt;2</title>
<path fill="none" stroke="black" d="M244,-36.17C244,-43.61 244,-52.41 244,-60.71"/>
<polygon fill="black" stroke="black" points="240.5,-60.83 244,-70.83 247.5,-60.83 240.5,-60.83"/>
</g>
</g>
</svg>
