<?xml version="1.0" encoding="UTF-8" standalone="no"?>
<!DOCTYPE svg PUBLIC "-//W3C//DTD SVG 1.1//EN"
 "http://www.w3.org/Graphics/SVG/1.1/DTD/svg11.dtd">
<!-- Generated by graphviz version 2.46.0 (20210118.1747)
 -->
<!-- Title: graphname Pages: 1 -->
<svg width="4824pt" height="4316pt"
 viewBox="0.00 0.00 4824.00 4315.81" xmlns="http://www.w3.org/2000/svg" xmlns:xlink="http://www.w3.org/1999/xlink">
<g id="graph0" class="graph" transform="scale(1.08 1.08) rotate(0) translate(4 3979)">
<title>graphname</title>
<polygon fill="white" stroke="transparent" points="-4,4 -4,-3979 4448,-3979 4448,4 -4,4"/>
<!-- 9 -->
<g id="node1" class="node">
<title>9</title>
<path fill="yellowgreen" stroke="yellowgreen" d="M194.1,-1590.15C194.1,-1590.15 95.1,-1590.15 95.1,-1590.15 89.1,-1590.15 83.1,-1584.15 83.1,-1578.15 83.1,-1578.15 83.1,-1564.15 83.1,-1564.15 83.1,-1558.15 89.1,-1552.15 95.1,-1552.15 95.1,-1552.15 194.1,-1552.15 194.1,-1552.15 200.1,-1552.15 206.1,-1558.15 206.1,-1564.15 206.1,-1564.15 206.1,-1578.15 206.1,-1578.15 206.1,-1584.15 200.1,-1590.15 194.1,-1590.15"/>
<text text-anchor="middle" x="144.6" y="-1574.95" font-family="Times,serif" font-size="14.00">m_GameObject</text>
<text text-anchor="middle" x="144.6" y="-1559.95" font-family="Times,serif" font-size="14.00">fileID: 1040292123</text>
</g>
<!-- 2 -->
<g id="node2" class="node">
<title>2</title>
<path fill="lightpink" stroke="lightpink" d="M1154.53,-1748.17C1154.53,-1748.17 693.53,-1748.17 693.53,-1748.17 687.53,-1748.17 681.53,-1742.17 681.53,-1736.17 681.53,-1736.17 681.53,-1722.17 681.53,-1722.17 681.53,-1716.17 687.53,-1710.17 693.53,-1710.17 693.53,-1710.17 1154.53,-1710.17 1154.53,-1710.17 1160.53,-1710.17 1166.53,-1716.17 1166.53,-1722.17 1166.53,-1722.17 1166.53,-1736.17 1166.53,-1736.17 1166.53,-1742.17 1160.53,-1748.17 1154.53,-1748.17"/>
<text text-anchor="middle" x="924.03" y="-1732.97" font-family="Times,serif" font-size="14.00">MonoBehaviour_114_ID1040292125</text>
<text text-anchor="middle" x="924.03" y="-1717.97" font-family="Times,serif" font-size="14.00">m_Script: {&#39;guid&#39;: &#39;5f7201a12d95ffc409449d95f23cf332&#39;, &#39;type&#39;: 3, &#39;fileID&#39;: 11500000}</text>
</g>
<!-- 2&#45;&gt;9 -->
<g id="edge1" class="edge">
<title>2&#45;&gt;9</title>
<path fill="none" stroke="black" d="M830.01,-1710.1C672.15,-1678.1 357.25,-1614.26 216.02,-1585.63"/>
<polygon fill="black" stroke="black" points="216.66,-1582.18 206.16,-1583.63 215.27,-1589.04 216.66,-1582.18"/>
</g>
<!-- 17 -->
<g id="node3" class="node">
<title>17</title>
<path fill="yellowgreen" stroke="yellowgreen" d="M1746.14,-3970.61C1746.14,-3970.61 1647.14,-3970.61 1647.14,-3970.61 1641.14,-3970.61 1635.14,-3964.61 1635.14,-3958.61 1635.14,-3958.61 1635.14,-3944.61 1635.14,-3944.61 1635.14,-3938.61 1641.14,-3932.61 1647.14,-3932.61 1647.14,-3932.61 1746.14,-3932.61 1746.14,-3932.61 1752.14,-3932.61 1758.14,-3938.61 1758.14,-3944.61 1758.14,-3944.61 1758.14,-3958.61 1758.14,-3958.61 1758.14,-3964.61 1752.14,-3970.61 1746.14,-3970.61"/>
<text text-anchor="middle" x="1696.64" y="-3955.41" font-family="Times,serif" font-size="14.00">m_GameObject</text>
<text text-anchor="middle" x="1696.64" y="-3940.41" font-family="Times,serif" font-size="14.00">fileID: 1089201443</text>
</g>
<!-- 12 -->
<g id="node4" class="node">
<title>12</title>
<path fill="lightpink" stroke="lightpink" d="M2180.34,-3552.79C2180.34,-3552.79 1717.34,-3552.79 1717.34,-3552.79 1711.34,-3552.79 1705.34,-3546.79 1705.34,-3540.79 1705.34,-3540.79 1705.34,-3526.79 1705.34,-3526.79 1705.34,-3520.79 1711.34,-3514.79 1717.34,-3514.79 1717.34,-3514.79 2180.34,-3514.79 2180.34,-3514.79 2186.34,-3514.79 2192.34,-3520.79 2192.34,-3526.79 2192.34,-3526.79 2192.34,-3540.79 2192.34,-3540.79 2192.34,-3546.79 2186.34,-3552.79 2180.34,-3552.79"/>
<text text-anchor="middle" x="1948.84" y="-3537.59" font-family="Times,serif" font-size="14.00">MonoBehaviour_114_ID1089201445</text>
<text text-anchor="middle" x="1948.84" y="-3522.59" font-family="Times,serif" font-size="14.00">m_Script: {&#39;guid&#39;: &#39;59f8146938fff824cb5fd77236b75775&#39;, &#39;type&#39;: 3, &#39;fileID&#39;: 11500000}</text>
</g>
<!-- 12&#45;&gt;17 -->
<g id="edge2" class="edge">
<title>12&#45;&gt;17</title>
<path fill="none" stroke="black" d="M1937.35,-3552.83C1896.98,-3619.71 1761.5,-3844.16 1713.59,-3923.52"/>
<polygon fill="black" stroke="black" points="1710.37,-3922.09 1708.2,-3932.46 1716.36,-3925.71 1710.37,-3922.09"/>
</g>
<!-- 26 -->
<g id="node5" class="node">
<title>26</title>
<path fill="yellowgreen" stroke="yellowgreen" d="M1310.08,-636.06C1310.08,-636.06 1218.08,-636.06 1218.08,-636.06 1212.08,-636.06 1206.08,-630.06 1206.08,-624.06 1206.08,-624.06 1206.08,-610.06 1206.08,-610.06 1206.08,-604.06 1212.08,-598.06 1218.08,-598.06 1218.08,-598.06 1310.08,-598.06 1310.08,-598.06 1316.08,-598.06 1322.08,-604.06 1322.08,-610.06 1322.08,-610.06 1322.08,-624.06 1322.08,-624.06 1322.08,-630.06 1316.08,-636.06 1310.08,-636.06"/>
<text text-anchor="middle" x="1264.08" y="-620.86" font-family="Times,serif" font-size="14.00">m_GameObject</text>
<text text-anchor="middle" x="1264.08" y="-605.86" font-family="Times,serif" font-size="14.00">fileID: 628076939</text>
</g>
<!-- 19 -->
<g id="node6" class="node">
<title>19</title>
<path fill="lightpink" stroke="lightpink" d="M1918.61,-1164.21C1918.61,-1164.21 1457.61,-1164.21 1457.61,-1164.21 1451.61,-1164.21 1445.61,-1158.21 1445.61,-1152.21 1445.61,-1152.21 1445.61,-1138.21 1445.61,-1138.21 1445.61,-1132.21 1451.61,-1126.21 1457.61,-1126.21 1457.61,-1126.21 1918.61,-1126.21 1918.61,-1126.21 1924.61,-1126.21 1930.61,-1132.21 1930.61,-1138.21 1930.61,-1138.21 1930.61,-1152.21 1930.61,-1152.21 1930.61,-1158.21 1924.61,-1164.21 1918.61,-1164.21"/>
<text text-anchor="middle" x="1688.11" y="-1149.01" font-family="Times,serif" font-size="14.00">MonoBehaviour_114_ID628076941</text>
<text text-anchor="middle" x="1688.11" y="-1134.01" font-family="Times,serif" font-size="14.00">m_Script: {&#39;guid&#39;: &#39;5f7201a12d95ffc409449d95f23cf332&#39;, &#39;type&#39;: 3, &#39;fileID&#39;: 11500000}</text>
</g>
<!-- 19&#45;&gt;26 -->
<g id="edge3" class="edge">
<title>19&#45;&gt;26</title>
<path fill="none" stroke="black" d="M1672.77,-1126.1C1608.49,-1046.04 1360.71,-737.41 1285.71,-644"/>
<polygon fill="black" stroke="black" points="1288.39,-641.75 1279.4,-636.14 1282.93,-646.13 1288.39,-641.75"/>
</g>
<!-- 36 -->
<g id="node7" class="node">
<title>36</title>
<path fill="yellowgreen" stroke="yellowgreen" d="M1650.56,-760.61C1650.56,-760.61 1551.56,-760.61 1551.56,-760.61 1545.56,-760.61 1539.56,-754.61 1539.56,-748.61 1539.56,-748.61 1539.56,-734.61 1539.56,-734.61 1539.56,-728.61 1545.56,-722.61 1551.56,-722.61 1551.56,-722.61 1650.56,-722.61 1650.56,-722.61 1656.56,-722.61 1662.56,-728.61 1662.56,-734.61 1662.56,-734.61 1662.56,-748.61 1662.56,-748.61 1662.56,-754.61 1656.56,-760.61 1650.56,-760.61"/>
<text text-anchor="middle" x="1601.06" y="-745.41" font-family="Times,serif" font-size="14.00">m_GameObject</text>
<text text-anchor="middle" x="1601.06" y="-730.41" font-family="Times,serif" font-size="14.00">fileID: 1525520955</text>
</g>
<!-- 29 -->
<g id="node8" class="node">
<title>29</title>
<path fill="lightpink" stroke="lightpink" d="M2222.97,-1733.75C2222.97,-1733.75 1761.97,-1733.75 1761.97,-1733.75 1755.97,-1733.75 1749.97,-1727.75 1749.97,-1721.75 1749.97,-1721.75 1749.97,-1707.75 1749.97,-1707.75 1749.97,-1701.75 1755.97,-1695.75 1761.97,-1695.75 1761.97,-1695.75 2222.97,-1695.75 2222.97,-1695.75 2228.97,-1695.75 2234.97,-1701.75 2234.97,-1707.75 2234.97,-1707.75 2234.97,-1721.75 2234.97,-1721.75 2234.97,-1727.75 2228.97,-1733.75 2222.97,-1733.75"/>
<text text-anchor="middle" x="1992.47" y="-1718.55" font-family="Times,serif" font-size="14.00">MonoBehaviour_114_ID1525520957</text>
<text text-anchor="middle" x="1992.47" y="-1703.55" font-family="Times,serif" font-size="14.00">m_Script: {&#39;guid&#39;: &#39;4e29b1a8efbd4b44bb3f3716e73f07ff&#39;, &#39;type&#39;: 3, &#39;fileID&#39;: 11500000}</text>
</g>
<!-- 29&#45;&gt;36 -->
<g id="edge4" class="edge">
<title>29&#45;&gt;36</title>
<path fill="none" stroke="black" d="M1984.83,-1695.75C1936.32,-1575.13 1671.42,-916.54 1612.63,-770.36"/>
<polygon fill="black" stroke="black" points="1615.74,-768.71 1608.76,-760.74 1609.24,-771.32 1615.74,-768.71"/>
</g>
<!-- 48 -->
<g id="node9" class="node">
<title>48</title>
<path fill="yellowgreen" stroke="yellowgreen" d="M1328.05,-1511.77C1328.05,-1511.77 1229.05,-1511.77 1229.05,-1511.77 1223.05,-1511.77 1217.05,-1505.77 1217.05,-1499.77 1217.05,-1499.77 1217.05,-1485.77 1217.05,-1485.77 1217.05,-1479.77 1223.05,-1473.77 1229.05,-1473.77 1229.05,-1473.77 1328.05,-1473.77 1328.05,-1473.77 1334.05,-1473.77 1340.05,-1479.77 1340.05,-1485.77 1340.05,-1485.77 1340.05,-1499.77 1340.05,-1499.77 1340.05,-1505.77 1334.05,-1511.77 1328.05,-1511.77"/>
<text text-anchor="middle" x="1278.55" y="-1496.57" font-family="Times,serif" font-size="14.00">m_GameObject</text>
<text text-anchor="middle" x="1278.55" y="-1481.57" font-family="Times,serif" font-size="14.00">fileID: 1285890736</text>
</g>
<!-- 41 -->
<g id="node10" class="node">
<title>41</title>
<path fill="lightpink" stroke="lightpink" d="M1923.39,-2009.21C1923.39,-2009.21 1462.39,-2009.21 1462.39,-2009.21 1456.39,-2009.21 1450.39,-2003.21 1450.39,-1997.21 1450.39,-1997.21 1450.39,-1983.21 1450.39,-1983.21 1450.39,-1977.21 1456.39,-1971.21 1462.39,-1971.21 1462.39,-1971.21 1923.39,-1971.21 1923.39,-1971.21 1929.39,-1971.21 1935.39,-1977.21 1935.39,-1983.21 1935.39,-1983.21 1935.39,-1997.21 1935.39,-1997.21 1935.39,-2003.21 1929.39,-2009.21 1923.39,-2009.21"/>
<text text-anchor="middle" x="1692.89" y="-1994.01" font-family="Times,serif" font-size="14.00">MonoBehaviour_114_ID1285890738</text>
<text text-anchor="middle" x="1692.89" y="-1979.01" font-family="Times,serif" font-size="14.00">m_Script: {&#39;guid&#39;: &#39;5f7201a12d95ffc409449d95f23cf332&#39;, &#39;type&#39;: 3, &#39;fileID&#39;: 11500000}</text>
</g>
<!-- 41&#45;&gt;48 -->
<g id="edge5" class="edge">
<title>41&#45;&gt;48</title>
<path fill="none" stroke="black" d="M1676.9,-1971.02C1612.94,-1894.23 1375.36,-1609 1300.97,-1519.69"/>
<polygon fill="black" stroke="black" points="1303.58,-1517.35 1294.49,-1511.91 1298.2,-1521.83 1303.58,-1517.35"/>
</g>
<!-- 58 -->
<g id="node11" class="node">
<title>58</title>
<path fill="yellowgreen" stroke="yellowgreen" d="M3766.82,-3328.63C3766.82,-3328.63 3674.82,-3328.63 3674.82,-3328.63 3668.82,-3328.63 3662.82,-3322.63 3662.82,-3316.63 3662.82,-3316.63 3662.82,-3302.63 3662.82,-3302.63 3662.82,-3296.63 3668.82,-3290.63 3674.82,-3290.63 3674.82,-3290.63 3766.82,-3290.63 3766.82,-3290.63 3772.82,-3290.63 3778.82,-3296.63 3778.82,-3302.63 3778.82,-3302.63 3778.82,-3316.63 3778.82,-3316.63 3778.82,-3322.63 3772.82,-3328.63 3766.82,-3328.63"/>
<text text-anchor="middle" x="3720.82" y="-3313.43" font-family="Times,serif" font-size="14.00">m_GameObject</text>
<text text-anchor="middle" x="3720.82" y="-3298.43" font-family="Times,serif" font-size="14.00">fileID: 530533593</text>
</g>
<!-- 51 -->
<g id="node12" class="node">
<title>51</title>
<path fill="lightpink" stroke="lightpink" d="M3615.84,-2971.98C3615.84,-2971.98 3154.84,-2971.98 3154.84,-2971.98 3148.84,-2971.98 3142.84,-2965.98 3142.84,-2959.98 3142.84,-2959.98 3142.84,-2945.98 3142.84,-2945.98 3142.84,-2939.98 3148.84,-2933.98 3154.84,-2933.98 3154.84,-2933.98 3615.84,-2933.98 3615.84,-2933.98 3621.84,-2933.98 3627.84,-2939.98 3627.84,-2945.98 3627.84,-2945.98 3627.84,-2959.98 3627.84,-2959.98 3627.84,-2965.98 3621.84,-2971.98 3615.84,-2971.98"/>
<text text-anchor="middle" x="3385.34" y="-2956.78" font-family="Times,serif" font-size="14.00">MonoBehaviour_114_ID530533596</text>
<text text-anchor="middle" x="3385.34" y="-2941.78" font-family="Times,serif" font-size="14.00">m_Script: {&#39;guid&#39;: &#39;fe87c0e1cc204ed48ad3b37840f39efc&#39;, &#39;type&#39;: 3, &#39;fileID&#39;: 11500000}</text>
</g>
<!-- 51&#45;&gt;58 -->
<g id="edge6" class="edge">
<title>51&#45;&gt;58</title>
<path fill="none" stroke="black" d="M3403.37,-2972.16C3459.46,-3031.79 3630.92,-3214.07 3695.69,-3282.92"/>
<polygon fill="black" stroke="black" points="3693.29,-3285.47 3702.69,-3290.36 3698.39,-3280.68 3693.29,-3285.47"/>
</g>
<!-- 68 -->
<g id="node13" class="node">
<title>68</title>
<path fill="yellowgreen" stroke="yellowgreen" d="M4368.14,-1576.27C4368.14,-1576.27 4276.14,-1576.27 4276.14,-1576.27 4270.14,-1576.27 4264.14,-1570.27 4264.14,-1564.27 4264.14,-1564.27 4264.14,-1550.27 4264.14,-1550.27 4264.14,-1544.27 4270.14,-1538.27 4276.14,-1538.27 4276.14,-1538.27 4368.14,-1538.27 4368.14,-1538.27 4374.14,-1538.27 4380.14,-1544.27 4380.14,-1550.27 4380.14,-1550.27 4380.14,-1564.27 4380.14,-1564.27 4380.14,-1570.27 4374.14,-1576.27 4368.14,-1576.27"/>
<text text-anchor="middle" x="4322.14" y="-1561.07" font-family="Times,serif" font-size="14.00">m_GameObject</text>
<text text-anchor="middle" x="4322.14" y="-1546.07" font-family="Times,serif" font-size="14.00">fileID: 530533593</text>
</g>
<!-- 61 -->
<g id="node14" class="node">
<title>61</title>
<path fill="lightpink" stroke="lightpink" d="M3765.38,-1998.6C3765.38,-1998.6 3304.38,-1998.6 3304.38,-1998.6 3298.38,-1998.6 3292.38,-1992.6 3292.38,-1986.6 3292.38,-1986.6 3292.38,-1972.6 3292.38,-1972.6 3292.38,-1966.6 3298.38,-1960.6 3304.38,-1960.6 3304.38,-1960.6 3765.38,-1960.6 3765.38,-1960.6 3771.38,-1960.6 3777.38,-1966.6 3777.38,-1972.6 3777.38,-1972.6 3777.38,-1986.6 3777.38,-1986.6 3777.38,-1992.6 3771.38,-1998.6 3765.38,-1998.6"/>
<text text-anchor="middle" x="3534.88" y="-1983.4" font-family="Times,serif" font-size="14.00">MonoBehaviour_114_ID530533595</text>
<text text-anchor="middle" x="3534.88" y="-1968.4" font-family="Times,serif" font-size="14.00">m_Script: {&#39;guid&#39;: &#39;4e29b1a8efbd4b44bb3f3716e73f07ff&#39;, &#39;type&#39;: 3, &#39;fileID&#39;: 11500000}</text>
</g>
<!-- 61&#45;&gt;68 -->
<g id="edge7" class="edge">
<title>61&#45;&gt;68</title>
<path fill="none" stroke="black" d="M3570.49,-1960.5C3698.63,-1891.76 4136.07,-1657.09 4277.58,-1581.17"/>
<polygon fill="black" stroke="black" points="4279.31,-1584.21 4286.47,-1576.4 4276,-1578.05 4279.31,-1584.21"/>
</g>
<!-- 76 -->
<g id="node15" class="node">
<title>76</title>
<path fill="yellowgreen" stroke="yellowgreen" d="M4431.57,-2243.3C4431.57,-2243.3 4339.57,-2243.3 4339.57,-2243.3 4333.57,-2243.3 4327.57,-2237.3 4327.57,-2231.3 4327.57,-2231.3 4327.57,-2217.3 4327.57,-2217.3 4327.57,-2211.3 4333.57,-2205.3 4339.57,-2205.3 4339.57,-2205.3 4431.57,-2205.3 4431.57,-2205.3 4437.57,-2205.3 4443.57,-2211.3 4443.57,-2217.3 4443.57,-2217.3 4443.57,-2231.3 4443.57,-2231.3 4443.57,-2237.3 4437.57,-2243.3 4431.57,-2243.3"/>
<text text-anchor="middle" x="4385.57" y="-2228.1" font-family="Times,serif" font-size="14.00">m_GameObject</text>
<text text-anchor="middle" x="4385.57" y="-2213.1" font-family="Times,serif" font-size="14.00">fileID: 361157713</text>
</g>
<!-- 73 -->
<g id="node16" class="node">
<title>73</title>
<path fill="lightpink" stroke="lightpink" d="M3816.46,-2291.41C3816.46,-2291.41 3351.46,-2291.41 3351.46,-2291.41 3345.46,-2291.41 3339.46,-2285.41 3339.46,-2279.41 3339.46,-2279.41 3339.46,-2265.41 3339.46,-2265.41 3339.46,-2259.41 3345.46,-2253.41 3351.46,-2253.41 3351.46,-2253.41 3816.46,-2253.41 3816.46,-2253.41 3822.46,-2253.41 3828.46,-2259.41 3828.46,-2265.41 3828.46,-2265.41 3828.46,-2279.41 3828.46,-2279.41 3828.46,-2285.41 3822.46,-2291.41 3816.46,-2291.41"/>
<text text-anchor="middle" x="3583.96" y="-2276.21" font-family="Times,serif" font-size="14.00">MonoBehaviour_114_ID361157715</text>
<text text-anchor="middle" x="3583.96" y="-2261.21" font-family="Times,serif" font-size="14.00">m_Script: {&#39;guid&#39;: &#39;76c392e42b5098c458856cdf6ecaaaa1&#39;, &#39;type&#39;: 3, &#39;fileID&#39;: 11500000}</text>
</g>
<!-- 73&#45;&gt;76 -->
<g id="edge8" class="edge">
<title>73&#45;&gt;76</title>
<path fill="none" stroke="black" d="M3828.55,-2257.73C3997.4,-2247.6 4210.08,-2234.83 4317.22,-2228.4"/>
<polygon fill="black" stroke="black" points="4317.48,-2231.9 4327.25,-2227.8 4317.06,-2224.91 4317.48,-2231.9"/>
</g>
<!-- 84 -->
<g id="node17" class="node">
<title>84</title>
<path fill="yellowgreen" stroke="yellowgreen" d="M1130.18,-2170.8C1130.18,-2170.8 1038.18,-2170.8 1038.18,-2170.8 1032.18,-2170.8 1026.18,-2164.8 1026.18,-2158.8 1026.18,-2158.8 1026.18,-2144.8 1026.18,-2144.8 1026.18,-2138.8 1032.18,-2132.8 1038.18,-2132.8 1038.18,-2132.8 1130.18,-2132.8 1130.18,-2132.8 1136.18,-2132.8 1142.18,-2138.8 1142.18,-2144.8 1142.18,-2144.8 1142.18,-2158.8 1142.18,-2158.8 1142.18,-2164.8 1136.18,-2170.8 1130.18,-2170.8"/>
<text text-anchor="middle" x="1084.18" y="-2155.6" font-family="Times,serif" font-size="14.00">m_GameObject</text>
<text text-anchor="middle" x="1084.18" y="-2140.6" font-family="Times,serif" font-size="14.00">fileID: 361157713</text>
</g>
<!-- 80 -->
<g id="node18" class="node">
<title>80</title>
<path fill="lightpink" stroke="lightpink" d="M2026.07,-2319.26C2026.07,-2319.26 1560.07,-2319.26 1560.07,-2319.26 1554.07,-2319.26 1548.07,-2313.26 1548.07,-2307.26 1548.07,-2307.26 1548.07,-2293.26 1548.07,-2293.26 1548.07,-2287.26 1554.07,-2281.26 1560.07,-2281.26 1560.07,-2281.26 2026.07,-2281.26 2026.07,-2281.26 2032.07,-2281.26 2038.07,-2287.26 2038.07,-2293.26 2038.07,-2293.26 2038.07,-2307.26 2038.07,-2307.26 2038.07,-2313.26 2032.07,-2319.26 2026.07,-2319.26"/>
<text text-anchor="middle" x="1793.07" y="-2304.06" font-family="Times,serif" font-size="14.00">MonoBehaviour_114_ID361157714</text>
<text text-anchor="middle" x="1793.07" y="-2289.06" font-family="Times,serif" font-size="14.00">m_Script: {&#39;guid&#39;: &#39;4f231c4fb786f3946a6b90b886c48677&#39;, &#39;type&#39;: 3, &#39;fileID&#39;: 11500000}</text>
</g>
<!-- 80&#45;&gt;84 -->
<g id="edge9" class="edge">
<title>80&#45;&gt;84</title>
<path fill="none" stroke="black" d="M1702.21,-2281.24C1558.16,-2251.07 1280.6,-2192.94 1152.29,-2166.07"/>
<polygon fill="black" stroke="black" points="1152.7,-2162.58 1142.2,-2163.95 1151.27,-2169.43 1152.7,-2162.58"/>
</g>
<!-- 93 -->
<g id="node19" class="node">
<title>93</title>
<path fill="yellowgreen" stroke="yellowgreen" d="M2552.63,-1131.68C2552.63,-1131.68 2460.63,-1131.68 2460.63,-1131.68 2454.63,-1131.68 2448.63,-1125.68 2448.63,-1119.68 2448.63,-1119.68 2448.63,-1105.68 2448.63,-1105.68 2448.63,-1099.68 2454.63,-1093.68 2460.63,-1093.68 2460.63,-1093.68 2552.63,-1093.68 2552.63,-1093.68 2558.63,-1093.68 2564.63,-1099.68 2564.63,-1105.68 2564.63,-1105.68 2564.63,-1119.68 2564.63,-1119.68 2564.63,-1125.68 2558.63,-1131.68 2552.63,-1131.68"/>
<text text-anchor="middle" x="2506.63" y="-1116.48" font-family="Times,serif" font-size="14.00">m_GameObject</text>
<text text-anchor="middle" x="2506.63" y="-1101.48" font-family="Times,serif" font-size="14.00">fileID: 808250884</text>
</g>
<!-- 86 -->
<g id="node20" class="node">
<title>86</title>
<path fill="lightpink" stroke="lightpink" d="M2490.93,-1659.62C2490.93,-1659.62 2029.93,-1659.62 2029.93,-1659.62 2023.93,-1659.62 2017.93,-1653.62 2017.93,-1647.62 2017.93,-1647.62 2017.93,-1633.62 2017.93,-1633.62 2017.93,-1627.62 2023.93,-1621.62 2029.93,-1621.62 2029.93,-1621.62 2490.93,-1621.62 2490.93,-1621.62 2496.93,-1621.62 2502.93,-1627.62 2502.93,-1633.62 2502.93,-1633.62 2502.93,-1647.62 2502.93,-1647.62 2502.93,-1653.62 2496.93,-1659.62 2490.93,-1659.62"/>
<text text-anchor="middle" x="2260.43" y="-1644.42" font-family="Times,serif" font-size="14.00">MonoBehaviour_114_ID808250886</text>
<text text-anchor="middle" x="2260.43" y="-1629.42" font-family="Times,serif" font-size="14.00">m_Script: {&#39;guid&#39;: &#39;5f7201a12d95ffc409449d95f23cf332&#39;, &#39;type&#39;: 3, &#39;fileID&#39;: 11500000}</text>
</g>
<!-- 86&#45;&gt;93 -->
<g id="edge10" class="edge">
<title>86&#45;&gt;93</title>
<path fill="none" stroke="black" d="M2269.34,-1621.51C2306.47,-1541.88 2449.08,-1236.08 2493.4,-1141.03"/>
<polygon fill="black" stroke="black" points="2496.68,-1142.29 2497.73,-1131.75 2490.33,-1139.34 2496.68,-1142.29"/>
</g>
<!-- 103 -->
<g id="node21" class="node">
<title>103</title>
<path fill="yellowgreen" stroke="yellowgreen" d="M840.43,-974.91C840.43,-974.91 741.43,-974.91 741.43,-974.91 735.43,-974.91 729.43,-968.91 729.43,-962.91 729.43,-962.91 729.43,-948.91 729.43,-948.91 729.43,-942.91 735.43,-936.91 741.43,-936.91 741.43,-936.91 840.43,-936.91 840.43,-936.91 846.43,-936.91 852.43,-942.91 852.43,-948.91 852.43,-948.91 852.43,-962.91 852.43,-962.91 852.43,-968.91 846.43,-974.91 840.43,-974.91"/>
<text text-anchor="middle" x="790.93" y="-959.71" font-family="Times,serif" font-size="14.00">m_GameObject</text>
<text text-anchor="middle" x="790.93" y="-944.71" font-family="Times,serif" font-size="14.00">fileID: 1747895406</text>
</g>
<!-- 96 -->
<g id="node22" class="node">
<title>96</title>
<path fill="lightpink" stroke="lightpink" d="M1366.92,-1209.21C1366.92,-1209.21 905.92,-1209.21 905.92,-1209.21 899.92,-1209.21 893.92,-1203.21 893.92,-1197.21 893.92,-1197.21 893.92,-1183.21 893.92,-1183.21 893.92,-1177.21 899.92,-1171.21 905.92,-1171.21 905.92,-1171.21 1366.92,-1171.21 1366.92,-1171.21 1372.92,-1171.21 1378.92,-1177.21 1378.92,-1183.21 1378.92,-1183.21 1378.92,-1197.21 1378.92,-1197.21 1378.92,-1203.21 1372.92,-1209.21 1366.92,-1209.21"/>
<text text-anchor="middle" x="1136.42" y="-1194.01" font-family="Times,serif" font-size="14.00">MonoBehaviour_114_ID1747895408</text>
<text text-anchor="middle" x="1136.42" y="-1179.01" font-family="Times,serif" font-size="14.00">m_Script: {&#39;guid&#39;: &#39;5f7201a12d95ffc409449d95f23cf332&#39;, &#39;type&#39;: 3, &#39;fileID&#39;: 11500000}</text>
</g>
<!-- 96&#45;&gt;103 -->
<g id="edge11" class="edge">
<title>96&#45;&gt;103</title>
<path fill="none" stroke="black" d="M1108.14,-1171.03C1045.86,-1128.8 896.86,-1027.76 827.55,-980.75"/>
<polygon fill="black" stroke="black" points="829.35,-977.74 819.11,-975.02 825.42,-983.53 829.35,-977.74"/>
</g>
<!-- 109 -->
<g id="node23" class="node">
<title>109</title>
<path fill="yellowgreen" stroke="yellowgreen" d="M3545.67,-1009.49C3545.67,-1009.49 3446.67,-1009.49 3446.67,-1009.49 3440.67,-1009.49 3434.67,-1003.49 3434.67,-997.49 3434.67,-997.49 3434.67,-983.49 3434.67,-983.49 3434.67,-977.49 3440.67,-971.49 3446.67,-971.49 3446.67,-971.49 3545.67,-971.49 3545.67,-971.49 3551.67,-971.49 3557.67,-977.49 3557.67,-983.49 3557.67,-983.49 3557.67,-997.49 3557.67,-997.49 3557.67,-1003.49 3551.67,-1009.49 3545.67,-1009.49"/>
<text text-anchor="middle" x="3496.17" y="-994.29" font-family="Times,serif" font-size="14.00">m_GameObject</text>
<text text-anchor="middle" x="3496.17" y="-979.29" font-family="Times,serif" font-size="14.00">fileID: 2009980923</text>
</g>
<!-- 106 -->
<g id="node24" class="node">
<title>106</title>
<path fill="lightpink" stroke="lightpink" d="M3125.3,-1234C3125.3,-1234 2659.3,-1234 2659.3,-1234 2653.3,-1234 2647.3,-1228 2647.3,-1222 2647.3,-1222 2647.3,-1208 2647.3,-1208 2647.3,-1202 2653.3,-1196 2659.3,-1196 2659.3,-1196 3125.3,-1196 3125.3,-1196 3131.3,-1196 3137.3,-1202 3137.3,-1208 3137.3,-1208 3137.3,-1222 3137.3,-1222 3137.3,-1228 3131.3,-1234 3125.3,-1234"/>
<text text-anchor="middle" x="2892.3" y="-1218.8" font-family="Times,serif" font-size="14.00">MonoBehaviour_114_ID2009980924</text>
<text text-anchor="middle" x="2892.3" y="-1203.8" font-family="Times,serif" font-size="14.00">m_Script: {&#39;guid&#39;: &#39;dc42784cf147c0c48a680349fa168899&#39;, &#39;type&#39;: 3, &#39;fileID&#39;: 11500000}</text>
</g>
<!-- 106&#45;&gt;109 -->
<g id="edge12" class="edge">
<title>106&#45;&gt;109</title>
<path fill="none" stroke="black" d="M2943.52,-1195.95C3054.32,-1154.76 3315.84,-1057.53 3435.05,-1013.22"/>
<polygon fill="black" stroke="black" points="3436.6,-1016.37 3444.75,-1009.61 3434.16,-1009.81 3436.6,-1016.37"/>
</g>
<!-- 118 -->
<g id="node25" class="node">
<title>118</title>
<path fill="yellowgreen" stroke="yellowgreen" d="M3361.45,-3651.38C3361.45,-3651.38 3281.45,-3651.38 3281.45,-3651.38 3275.45,-3651.38 3269.45,-3645.38 3269.45,-3639.38 3269.45,-3639.38 3269.45,-3625.38 3269.45,-3625.38 3269.45,-3619.38 3275.45,-3613.38 3281.45,-3613.38 3281.45,-3613.38 3361.45,-3613.38 3361.45,-3613.38 3367.45,-3613.38 3373.45,-3619.38 3373.45,-3625.38 3373.45,-3625.38 3373.45,-3639.38 3373.45,-3639.38 3373.45,-3645.38 3367.45,-3651.38 3361.45,-3651.38"/>
<text text-anchor="middle" x="3321.45" y="-3636.18" font-family="Times,serif" font-size="14.00">m_GameObject</text>
<text text-anchor="middle" x="3321.45" y="-3621.18" font-family="Times,serif" font-size="14.00">fileID: 5973995</text>
</g>
<!-- 113 -->
<g id="node26" class="node">
<title>113</title>
<path fill="lightpink" stroke="lightpink" d="M2828.03,-2957.78C2828.03,-2957.78 2365.03,-2957.78 2365.03,-2957.78 2359.03,-2957.78 2353.03,-2951.78 2353.03,-2945.78 2353.03,-2945.78 2353.03,-2931.78 2353.03,-2931.78 2353.03,-2925.78 2359.03,-2919.78 2365.03,-2919.78 2365.03,-2919.78 2828.03,-2919.78 2828.03,-2919.78 2834.03,-2919.78 2840.03,-2925.78 2840.03,-2931.78 2840.03,-2931.78 2840.03,-2945.78 2840.03,-2945.78 2840.03,-2951.78 2834.03,-2957.78 2828.03,-2957.78"/>
<text text-anchor="middle" x="2596.53" y="-2942.58" font-family="Times,serif" font-size="14.00">MonoBehaviour_114_ID5973997</text>
<text text-anchor="middle" x="2596.53" y="-2927.58" font-family="Times,serif" font-size="14.00">m_Script: {&#39;guid&#39;: &#39;59f8146938fff824cb5fd77236b75775&#39;, &#39;type&#39;: 3, &#39;fileID&#39;: 11500000}</text>
</g>
<!-- 113&#45;&gt;118 -->
<g id="edge13" class="edge">
<title>113&#45;&gt;118</title>
<path fill="none" stroke="black" d="M2616.67,-2958.06C2718.49,-3055.48 3176.25,-3493.45 3293.84,-3605.96"/>
<polygon fill="black" stroke="black" points="3291.76,-3608.81 3301.4,-3613.2 3296.59,-3603.75 3291.76,-3608.81"/>
</g>
<!-- 127 -->
<g id="node27" class="node">
<title>127</title>
<path fill="yellowgreen" stroke="yellowgreen" d="M4045.75,-2918.1C4045.75,-2918.1 3953.75,-2918.1 3953.75,-2918.1 3947.75,-2918.1 3941.75,-2912.1 3941.75,-2906.1 3941.75,-2906.1 3941.75,-2892.1 3941.75,-2892.1 3941.75,-2886.1 3947.75,-2880.1 3953.75,-2880.1 3953.75,-2880.1 4045.75,-2880.1 4045.75,-2880.1 4051.75,-2880.1 4057.75,-2886.1 4057.75,-2892.1 4057.75,-2892.1 4057.75,-2906.1 4057.75,-2906.1 4057.75,-2912.1 4051.75,-2918.1 4045.75,-2918.1"/>
<text text-anchor="middle" x="3999.75" y="-2902.9" font-family="Times,serif" font-size="14.00">m_GameObject</text>
<text text-anchor="middle" x="3999.75" y="-2887.9" font-family="Times,serif" font-size="14.00">fileID: 132945516</text>
</g>
<!-- 120 -->
<g id="node28" class="node">
<title>120</title>
<path fill="lightpink" stroke="lightpink" d="M3377.34,-2361.44C3377.34,-2361.44 2916.34,-2361.44 2916.34,-2361.44 2910.34,-2361.44 2904.34,-2355.44 2904.34,-2349.44 2904.34,-2349.44 2904.34,-2335.44 2904.34,-2335.44 2904.34,-2329.44 2910.34,-2323.44 2916.34,-2323.44 2916.34,-2323.44 3377.34,-2323.44 3377.34,-2323.44 3383.34,-2323.44 3389.34,-2329.44 3389.34,-2335.44 3389.34,-2335.44 3389.34,-2349.44 3389.34,-2349.44 3389.34,-2355.44 3383.34,-2361.44 3377.34,-2361.44"/>
<text text-anchor="middle" x="3146.84" y="-2346.24" font-family="Times,serif" font-size="14.00">MonoBehaviour_114_ID132945518</text>
<text text-anchor="middle" x="3146.84" y="-2331.24" font-family="Times,serif" font-size="14.00">m_Script: {&#39;guid&#39;: &#39;5f7201a12d95ffc409449d95f23cf332&#39;, &#39;type&#39;: 3, &#39;fileID&#39;: 11500000}</text>
</g>
<!-- 120&#45;&gt;127 -->
<g id="edge14" class="edge">
<title>120&#45;&gt;127</title>
<path fill="none" stroke="black" d="M3176.19,-2361.6C3304.73,-2445.49 3817.88,-2780.4 3961.96,-2874.44"/>
<polygon fill="black" stroke="black" points="3960.23,-2877.49 3970.52,-2880.02 3964.06,-2871.62 3960.23,-2877.49"/>
</g>
<!-- 137 -->
<g id="node29" class="node">
<title>137</title>
<path fill="yellowgreen" stroke="yellowgreen" d="M1826.44,-332.97C1826.44,-332.97 1734.44,-332.97 1734.44,-332.97 1728.44,-332.97 1722.44,-326.97 1722.44,-320.97 1722.44,-320.97 1722.44,-306.97 1722.44,-306.97 1722.44,-300.97 1728.44,-294.97 1734.44,-294.97 1734.44,-294.97 1826.44,-294.97 1826.44,-294.97 1832.44,-294.97 1838.44,-300.97 1838.44,-306.97 1838.44,-306.97 1838.44,-320.97 1838.44,-320.97 1838.44,-326.97 1832.44,-332.97 1826.44,-332.97"/>
<text text-anchor="middle" x="1780.44" y="-317.77" font-family="Times,serif" font-size="14.00">m_GameObject</text>
<text text-anchor="middle" x="1780.44" y="-302.77" font-family="Times,serif" font-size="14.00">fileID: 130449831</text>
</g>
<!-- 130 -->
<g id="node30" class="node">
<title>130</title>
<path fill="lightpink" stroke="lightpink" d="M2183.1,-827.56C2183.1,-827.56 1722.1,-827.56 1722.1,-827.56 1716.1,-827.56 1710.1,-821.56 1710.1,-815.56 1710.1,-815.56 1710.1,-801.56 1710.1,-801.56 1710.1,-795.56 1716.1,-789.56 1722.1,-789.56 1722.1,-789.56 2183.1,-789.56 2183.1,-789.56 2189.1,-789.56 2195.1,-795.56 2195.1,-801.56 2195.1,-801.56 2195.1,-815.56 2195.1,-815.56 2195.1,-821.56 2189.1,-827.56 2183.1,-827.56"/>
<text text-anchor="middle" x="1952.6" y="-812.36" font-family="Times,serif" font-size="14.00">MonoBehaviour_114_ID130449834</text>
<text text-anchor="middle" x="1952.6" y="-797.36" font-family="Times,serif" font-size="14.00">m_Script: {&#39;guid&#39;: &#39;fe87c0e1cc204ed48ad3b37840f39efc&#39;, &#39;type&#39;: 3, &#39;fileID&#39;: 11500000}</text>
</g>
<!-- 130&#45;&gt;137 -->
<g id="edge15" class="edge">
<title>130&#45;&gt;137</title>
<path fill="none" stroke="black" d="M1945.95,-789.47C1919.56,-713.66 1822.05,-433.52 1790.42,-342.64"/>
<polygon fill="black" stroke="black" points="1793.66,-341.29 1787.06,-332.99 1787.04,-343.59 1793.66,-341.29"/>
</g>
<!-- 147 -->
<g id="node31" class="node">
<title>147</title>
<path fill="yellowgreen" stroke="yellowgreen" d="M2799.73,-1758.98C2799.73,-1758.98 2700.73,-1758.98 2700.73,-1758.98 2694.73,-1758.98 2688.73,-1752.98 2688.73,-1746.98 2688.73,-1746.98 2688.73,-1732.98 2688.73,-1732.98 2688.73,-1726.98 2694.73,-1720.98 2700.73,-1720.98 2700.73,-1720.98 2799.73,-1720.98 2799.73,-1720.98 2805.73,-1720.98 2811.73,-1726.98 2811.73,-1732.98 2811.73,-1732.98 2811.73,-1746.98 2811.73,-1746.98 2811.73,-1752.98 2805.73,-1758.98 2799.73,-1758.98"/>
<text text-anchor="middle" x="2750.23" y="-1743.78" font-family="Times,serif" font-size="14.00">m_GameObject</text>
<text text-anchor="middle" x="2750.23" y="-1728.78" font-family="Times,serif" font-size="14.00">fileID: 1651329295</text>
</g>
<!-- 140 -->
<g id="node32" class="node">
<title>140</title>
<path fill="lightpink" stroke="lightpink" d="M3093.25,-2303.5C3093.25,-2303.5 2632.25,-2303.5 2632.25,-2303.5 2626.25,-2303.5 2620.25,-2297.5 2620.25,-2291.5 2620.25,-2291.5 2620.25,-2277.5 2620.25,-2277.5 2620.25,-2271.5 2626.25,-2265.5 2632.25,-2265.5 2632.25,-2265.5 3093.25,-2265.5 3093.25,-2265.5 3099.25,-2265.5 3105.25,-2271.5 3105.25,-2277.5 3105.25,-2277.5 3105.25,-2291.5 3105.25,-2291.5 3105.25,-2297.5 3099.25,-2303.5 3093.25,-2303.5"/>
<text text-anchor="middle" x="2862.75" y="-2288.3" font-family="Times,serif" font-size="14.00">MonoBehaviour_114_ID1651329297</text>
<text text-anchor="middle" x="2862.75" y="-2273.3" font-family="Times,serif" font-size="14.00">m_Script: {&#39;guid&#39;: &#39;5f7201a12d95ffc409449d95f23cf332&#39;, &#39;type&#39;: 3, &#39;fileID&#39;: 11500000}</text>
</g>
<!-- 140&#45;&gt;147 -->
<g id="edge16" class="edge">
<title>140&#45;&gt;147</title>
<path fill="none" stroke="black" d="M2858.81,-2265.44C2842.03,-2184.26 2776.47,-1867 2756.22,-1768.98"/>
<polygon fill="black" stroke="black" points="2759.64,-1768.25 2754.19,-1759.16 2752.79,-1769.67 2759.64,-1768.25"/>
</g>
<!-- 157 -->
<g id="node33" class="node">
<title>157</title>
<path fill="yellowgreen" stroke="yellowgreen" d="M104.29,-2175.46C104.29,-2175.46 12.29,-2175.46 12.29,-2175.46 6.29,-2175.46 0.29,-2169.46 0.29,-2163.46 0.29,-2163.46 0.29,-2149.46 0.29,-2149.46 0.29,-2143.46 6.29,-2137.46 12.29,-2137.46 12.29,-2137.46 104.29,-2137.46 104.29,-2137.46 110.29,-2137.46 116.29,-2143.46 116.29,-2149.46 116.29,-2149.46 116.29,-2163.46 116.29,-2163.46 116.29,-2169.46 110.29,-2175.46 104.29,-2175.46"/>
<text text-anchor="middle" x="58.29" y="-2160.26" font-family="Times,serif" font-size="14.00">m_GameObject</text>
<text text-anchor="middle" x="58.29" y="-2145.26" font-family="Times,serif" font-size="14.00">fileID: 960558223</text>
</g>
<!-- 150 -->
<g id="node34" class="node">
<title>150</title>
<path fill="lightpink" stroke="lightpink" d="M1062.96,-2228.28C1062.96,-2228.28 601.96,-2228.28 601.96,-2228.28 595.96,-2228.28 589.96,-2222.28 589.96,-2216.28 589.96,-2216.28 589.96,-2202.28 589.96,-2202.28 589.96,-2196.28 595.96,-2190.28 601.96,-2190.28 601.96,-2190.28 1062.96,-2190.28 1062.96,-2190.28 1068.96,-2190.28 1074.96,-2196.28 1074.96,-2202.28 1074.96,-2202.28 1074.96,-2216.28 1074.96,-2216.28 1074.96,-2222.28 1068.96,-2228.28 1062.96,-2228.28"/>
<text text-anchor="middle" x="832.46" y="-2213.08" font-family="Times,serif" font-size="14.00">MonoBehaviour_114_ID960558225</text>
<text text-anchor="middle" x="832.46" y="-2198.08" font-family="Times,serif" font-size="14.00">m_Script: {&#39;guid&#39;: &#39;5f7201a12d95ffc409449d95f23cf332&#39;, &#39;type&#39;: 3, &#39;fileID&#39;: 11500000}</text>
</g>
<!-- 150&#45;&gt;157 -->
<g id="edge17" class="edge">
<title>150&#45;&gt;157</title>
<path fill="none" stroke="black" d="M589.9,-2192.73C429.11,-2181.76 229.48,-2168.14 126.63,-2161.13"/>
<polygon fill="black" stroke="black" points="126.6,-2157.62 116.39,-2160.43 126.12,-2164.6 126.6,-2157.62"/>
</g>
<!-- 167 -->
<g id="node35" class="node">
<title>167</title>
<path fill="yellowgreen" stroke="yellowgreen" d="M3751.82,-1313.36C3751.82,-1313.36 3652.82,-1313.36 3652.82,-1313.36 3646.82,-1313.36 3640.82,-1307.36 3640.82,-1301.36 3640.82,-1301.36 3640.82,-1287.36 3640.82,-1287.36 3640.82,-1281.36 3646.82,-1275.36 3652.82,-1275.36 3652.82,-1275.36 3751.82,-1275.36 3751.82,-1275.36 3757.82,-1275.36 3763.82,-1281.36 3763.82,-1287.36 3763.82,-1287.36 3763.82,-1301.36 3763.82,-1301.36 3763.82,-1307.36 3757.82,-1313.36 3751.82,-1313.36"/>
<text text-anchor="middle" x="3702.32" y="-1298.16" font-family="Times,serif" font-size="14.00">m_GameObject</text>
<text text-anchor="middle" x="3702.32" y="-1283.16" font-family="Times,serif" font-size="14.00">fileID: 1908155155</text>
</g>
<!-- 160 -->
<g id="node36" class="node">
<title>160</title>
<path fill="lightpink" stroke="lightpink" d="M3405.18,-2131.36C3405.18,-2131.36 2944.18,-2131.36 2944.18,-2131.36 2938.18,-2131.36 2932.18,-2125.36 2932.18,-2119.36 2932.18,-2119.36 2932.18,-2105.36 2932.18,-2105.36 2932.18,-2099.36 2938.18,-2093.36 2944.18,-2093.36 2944.18,-2093.36 3405.18,-2093.36 3405.18,-2093.36 3411.18,-2093.36 3417.18,-2099.36 3417.18,-2105.36 3417.18,-2105.36 3417.18,-2119.36 3417.18,-2119.36 3417.18,-2125.36 3411.18,-2131.36 3405.18,-2131.36"/>
<text text-anchor="middle" x="3174.68" y="-2116.16" font-family="Times,serif" font-size="14.00">MonoBehaviour_114_ID1908155157</text>
<text text-anchor="middle" x="3174.68" y="-2101.16" font-family="Times,serif" font-size="14.00">m_Script: {&#39;guid&#39;: &#39;fe87c0e1cc204ed48ad3b37840f39efc&#39;, &#39;type&#39;: 3, &#39;fileID&#39;: 11500000}</text>
</g>
<!-- 160&#45;&gt;167 -->
<g id="edge18" class="edge">
<title>160&#45;&gt;167</title>
<path fill="none" stroke="black" d="M3186.94,-2093.35C3256.53,-1985.47 3601.48,-1450.7 3684.38,-1322.18"/>
<polygon fill="black" stroke="black" points="3687.41,-1323.94 3689.89,-1313.64 3681.53,-1320.14 3687.41,-1323.94"/>
</g>
<!-- 177 -->
<g id="node37" class="node">
<title>177</title>
<path fill="yellowgreen" stroke="yellowgreen" d="M2950.25,-3974.92C2950.25,-3974.92 2851.25,-3974.92 2851.25,-3974.92 2845.25,-3974.92 2839.25,-3968.92 2839.25,-3962.92 2839.25,-3962.92 2839.25,-3948.92 2839.25,-3948.92 2839.25,-3942.92 2845.25,-3936.92 2851.25,-3936.92 2851.25,-3936.92 2950.25,-3936.92 2950.25,-3936.92 2956.25,-3936.92 2962.25,-3942.92 2962.25,-3948.92 2962.25,-3948.92 2962.25,-3962.92 2962.25,-3962.92 2962.25,-3968.92 2956.25,-3974.92 2950.25,-3974.92"/>
<text text-anchor="middle" x="2900.75" y="-3959.72" font-family="Times,serif" font-size="14.00">m_GameObject</text>
<text text-anchor="middle" x="2900.75" y="-3944.72" font-family="Times,serif" font-size="14.00">fileID: 1525520955</text>
</g>
<!-- 170 -->
<g id="node38" class="node">
<title>170</title>
<path fill="lightpink" stroke="lightpink" d="M2925.41,-3549.87C2925.41,-3549.87 2464.41,-3549.87 2464.41,-3549.87 2458.41,-3549.87 2452.41,-3543.87 2452.41,-3537.87 2452.41,-3537.87 2452.41,-3523.87 2452.41,-3523.87 2452.41,-3517.87 2458.41,-3511.87 2464.41,-3511.87 2464.41,-3511.87 2925.41,-3511.87 2925.41,-3511.87 2931.41,-3511.87 2937.41,-3517.87 2937.41,-3523.87 2937.41,-3523.87 2937.41,-3537.87 2937.41,-3537.87 2937.41,-3543.87 2931.41,-3549.87 2925.41,-3549.87"/>
<text text-anchor="middle" x="2694.91" y="-3534.67" font-family="Times,serif" font-size="14.00">MonoBehaviour_114_ID1525520958</text>
<text text-anchor="middle" x="2694.91" y="-3519.67" font-family="Times,serif" font-size="14.00">m_Script: {&#39;guid&#39;: &#39;fe87c0e1cc204ed48ad3b37840f39efc&#39;, &#39;type&#39;: 3, &#39;fileID&#39;: 11500000}</text>
</g>
<!-- 170&#45;&gt;177 -->
<g id="edge19" class="edge">
<title>170&#45;&gt;177</title>
<path fill="none" stroke="black" d="M2704.15,-3549.96C2737,-3617.79 2848.22,-3847.44 2887.15,-3927.84"/>
<polygon fill="black" stroke="black" points="2884.02,-3929.41 2891.53,-3936.88 2890.32,-3926.36 2884.02,-3929.41"/>
</g>
<!-- 187 -->
<g id="node39" class="node">
<title>187</title>
<path fill="yellowgreen" stroke="yellowgreen" d="M1380.14,-3749.59C1380.14,-3749.59 1288.14,-3749.59 1288.14,-3749.59 1282.14,-3749.59 1276.14,-3743.59 1276.14,-3737.59 1276.14,-3737.59 1276.14,-3723.59 1276.14,-3723.59 1276.14,-3717.59 1282.14,-3711.59 1288.14,-3711.59 1288.14,-3711.59 1380.14,-3711.59 1380.14,-3711.59 1386.14,-3711.59 1392.14,-3717.59 1392.14,-3723.59 1392.14,-3723.59 1392.14,-3737.59 1392.14,-3737.59 1392.14,-3743.59 1386.14,-3749.59 1380.14,-3749.59"/>
<text text-anchor="middle" x="1334.14" y="-3734.39" font-family="Times,serif" font-size="14.00">m_GameObject</text>
<text text-anchor="middle" x="1334.14" y="-3719.39" font-family="Times,serif" font-size="14.00">fileID: 265550441</text>
</g>
<!-- 180 -->
<g id="node40" class="node">
<title>180</title>
<path fill="lightpink" stroke="lightpink" d="M1751.65,-3319.48C1751.65,-3319.48 1290.65,-3319.48 1290.65,-3319.48 1284.65,-3319.48 1278.65,-3313.48 1278.65,-3307.48 1278.65,-3307.48 1278.65,-3293.48 1278.65,-3293.48 1278.65,-3287.48 1284.65,-3281.48 1290.65,-3281.48 1290.65,-3281.48 1751.65,-3281.48 1751.65,-3281.48 1757.65,-3281.48 1763.65,-3287.48 1763.65,-3293.48 1763.65,-3293.48 1763.65,-3307.48 1763.65,-3307.48 1763.65,-3313.48 1757.65,-3319.48 1751.65,-3319.48"/>
<text text-anchor="middle" x="1521.15" y="-3304.28" font-family="Times,serif" font-size="14.00">MonoBehaviour_114_ID265550443</text>
<text text-anchor="middle" x="1521.15" y="-3289.28" font-family="Times,serif" font-size="14.00">m_Script: {&#39;guid&#39;: &#39;5f7201a12d95ffc409449d95f23cf332&#39;, &#39;type&#39;: 3, &#39;fileID&#39;: 11500000}</text>
</g>
<!-- 180&#45;&gt;187 -->
<g id="edge20" class="edge">
<title>180&#45;&gt;187</title>
<path fill="none" stroke="black" d="M1512.87,-3319.52C1483.22,-3387.72 1382.18,-3620.12 1346.63,-3701.87"/>
<polygon fill="black" stroke="black" points="1343.32,-3700.72 1342.54,-3711.29 1349.74,-3703.51 1343.32,-3700.72"/>
</g>
<!-- 194 -->
<g id="node41" class="node">
<title>194</title>
<path fill="yellowgreen" stroke="yellowgreen" d="M3400.73,-1521.49C3400.73,-1521.49 3301.73,-1521.49 3301.73,-1521.49 3295.73,-1521.49 3289.73,-1515.49 3289.73,-1509.49 3289.73,-1509.49 3289.73,-1495.49 3289.73,-1495.49 3289.73,-1489.49 3295.73,-1483.49 3301.73,-1483.49 3301.73,-1483.49 3400.73,-1483.49 3400.73,-1483.49 3406.73,-1483.49 3412.73,-1489.49 3412.73,-1495.49 3412.73,-1495.49 3412.73,-1509.49 3412.73,-1509.49 3412.73,-1515.49 3406.73,-1521.49 3400.73,-1521.49"/>
<text text-anchor="middle" x="3351.23" y="-1506.29" font-family="Times,serif" font-size="14.00">m_GameObject</text>
<text text-anchor="middle" x="3351.23" y="-1491.29" font-family="Times,serif" font-size="14.00">fileID: 2009980923</text>
</g>
<!-- 190 -->
<g id="node42" class="node">
<title>190</title>
<path fill="lightpink" stroke="lightpink" d="M2713.77,-1815.84C2713.77,-1815.84 2244.77,-1815.84 2244.77,-1815.84 2238.77,-1815.84 2232.77,-1809.84 2232.77,-1803.84 2232.77,-1803.84 2232.77,-1789.84 2232.77,-1789.84 2232.77,-1783.84 2238.77,-1777.84 2244.77,-1777.84 2244.77,-1777.84 2713.77,-1777.84 2713.77,-1777.84 2719.77,-1777.84 2725.77,-1783.84 2725.77,-1789.84 2725.77,-1789.84 2725.77,-1803.84 2725.77,-1803.84 2725.77,-1809.84 2719.77,-1815.84 2713.77,-1815.84"/>
<text text-anchor="middle" x="2479.27" y="-1800.64" font-family="Times,serif" font-size="14.00">MonoBehaviour_114_ID2009980925</text>
<text text-anchor="middle" x="2479.27" y="-1785.64" font-family="Times,serif" font-size="14.00">m_Script: {&#39;guid&#39;: &#39;0cd44c1031e13a943bb63640046fad76&#39;, &#39;type&#39;: 3, &#39;fileID&#39;: 11500000}</text>
</g>
<!-- 190&#45;&gt;194 -->
<g id="edge21" class="edge">
<title>190&#45;&gt;194</title>
<path fill="none" stroke="black" d="M2535.81,-1777.76C2690.48,-1725.54 3120.01,-1580.55 3285.26,-1524.76"/>
<polygon fill="black" stroke="black" points="3286.47,-1528.05 3294.82,-1521.53 3284.23,-1521.41 3286.47,-1528.05"/>
</g>
<!-- 204 -->
<g id="node43" class="node">
<title>204</title>
<path fill="yellowgreen" stroke="yellowgreen" d="M2092.55,-2838.8C2092.55,-2838.8 2000.55,-2838.8 2000.55,-2838.8 1994.55,-2838.8 1988.55,-2832.8 1988.55,-2826.8 1988.55,-2826.8 1988.55,-2812.8 1988.55,-2812.8 1988.55,-2806.8 1994.55,-2800.8 2000.55,-2800.8 2000.55,-2800.8 2092.55,-2800.8 2092.55,-2800.8 2098.55,-2800.8 2104.55,-2806.8 2104.55,-2812.8 2104.55,-2812.8 2104.55,-2826.8 2104.55,-2826.8 2104.55,-2832.8 2098.55,-2838.8 2092.55,-2838.8"/>
<text text-anchor="middle" x="2046.55" y="-2823.6" font-family="Times,serif" font-size="14.00">m_GameObject</text>
<text text-anchor="middle" x="2046.55" y="-2808.6" font-family="Times,serif" font-size="14.00">fileID: 301893718</text>
</g>
<!-- 197 -->
<g id="node44" class="node">
<title>197</title>
<path fill="lightpink" stroke="lightpink" d="M2692.32,-2721.07C2692.32,-2721.07 2231.32,-2721.07 2231.32,-2721.07 2225.32,-2721.07 2219.32,-2715.07 2219.32,-2709.07 2219.32,-2709.07 2219.32,-2695.07 2219.32,-2695.07 2219.32,-2689.07 2225.32,-2683.07 2231.32,-2683.07 2231.32,-2683.07 2692.32,-2683.07 2692.32,-2683.07 2698.32,-2683.07 2704.32,-2689.07 2704.32,-2695.07 2704.32,-2695.07 2704.32,-2709.07 2704.32,-2709.07 2704.32,-2715.07 2698.32,-2721.07 2692.32,-2721.07"/>
<text text-anchor="middle" x="2461.82" y="-2705.87" font-family="Times,serif" font-size="14.00">MonoBehaviour_114_ID301893720</text>
<text text-anchor="middle" x="2461.82" y="-2690.87" font-family="Times,serif" font-size="14.00">m_Script: {&#39;guid&#39;: &#39;fe87c0e1cc204ed48ad3b37840f39efc&#39;, &#39;type&#39;: 3, &#39;fileID&#39;: 11500000}</text>
</g>
<!-- 197&#45;&gt;204 -->
<g id="edge22" class="edge">
<title>197&#45;&gt;204</title>
<path fill="none" stroke="black" d="M2394.64,-2721.12C2317.48,-2742.99 2191.61,-2778.68 2114.24,-2800.61"/>
<polygon fill="black" stroke="black" points="2113.25,-2797.25 2104.58,-2803.35 2115.16,-2803.99 2113.25,-2797.25"/>
</g>
<!-- 210 -->
<g id="node45" class="node">
<title>210</title>
<path fill="yellowgreen" stroke="yellowgreen" d="M3212.79,-255.22C3212.79,-255.22 3120.79,-255.22 3120.79,-255.22 3114.79,-255.22 3108.79,-249.22 3108.79,-243.22 3108.79,-243.22 3108.79,-229.22 3108.79,-229.22 3108.79,-223.22 3114.79,-217.22 3120.79,-217.22 3120.79,-217.22 3212.79,-217.22 3212.79,-217.22 3218.79,-217.22 3224.79,-223.22 3224.79,-229.22 3224.79,-229.22 3224.79,-243.22 3224.79,-243.22 3224.79,-249.22 3218.79,-255.22 3212.79,-255.22"/>
<text text-anchor="middle" x="3166.79" y="-240.02" font-family="Times,serif" font-size="14.00">m_GameObject</text>
<text text-anchor="middle" x="3166.79" y="-225.02" font-family="Times,serif" font-size="14.00">fileID: 130449831</text>
</g>
<!-- 207 -->
<g id="node46" class="node">
<title>207</title>
<path fill="lightpink" stroke="lightpink" d="M3028.58,-1007.22C3028.58,-1007.22 2566.58,-1007.22 2566.58,-1007.22 2560.58,-1007.22 2554.58,-1001.22 2554.58,-995.22 2554.58,-995.22 2554.58,-981.22 2554.58,-981.22 2554.58,-975.22 2560.58,-969.22 2566.58,-969.22 2566.58,-969.22 3028.58,-969.22 3028.58,-969.22 3034.58,-969.22 3040.58,-975.22 3040.58,-981.22 3040.58,-981.22 3040.58,-995.22 3040.58,-995.22 3040.58,-1001.22 3034.58,-1007.22 3028.58,-1007.22"/>
<text text-anchor="middle" x="2797.58" y="-992.02" font-family="Times,serif" font-size="14.00">MonoBehaviour_114_ID130449833</text>
<text text-anchor="middle" x="2797.58" y="-977.02" font-family="Times,serif" font-size="14.00">m_Script: {&#39;guid&#39;: &#39;cfbcc1c9cd748aa4eadf517d081ad03e&#39;, &#39;type&#39;: 3, &#39;fileID&#39;: 11500000}</text>
</g>
<!-- 207&#45;&gt;210 -->
<g id="edge23" class="edge">
<title>207&#45;&gt;210</title>
<path fill="none" stroke="black" d="M2807.08,-968.87C2857.41,-866.36 3092.93,-386.66 3152.88,-264.55"/>
<polygon fill="black" stroke="black" points="3156.09,-265.95 3157.35,-255.43 3149.8,-262.87 3156.09,-265.95"/>
</g>
<!-- 221 -->
<g id="node47" class="node">
<title>221</title>
<path fill="yellowgreen" stroke="yellowgreen" d="M1733.83,-2690.25C1733.83,-2690.25 1634.83,-2690.25 1634.83,-2690.25 1628.83,-2690.25 1622.83,-2684.25 1622.83,-2678.25 1622.83,-2678.25 1622.83,-2664.25 1622.83,-2664.25 1622.83,-2658.25 1628.83,-2652.25 1634.83,-2652.25 1634.83,-2652.25 1733.83,-2652.25 1733.83,-2652.25 1739.83,-2652.25 1745.83,-2658.25 1745.83,-2664.25 1745.83,-2664.25 1745.83,-2678.25 1745.83,-2678.25 1745.83,-2684.25 1739.83,-2690.25 1733.83,-2690.25"/>
<text text-anchor="middle" x="1684.33" y="-2675.05" font-family="Times,serif" font-size="14.00">m_GameObject</text>
<text text-anchor="middle" x="1684.33" y="-2660.05" font-family="Times,serif" font-size="14.00">fileID: 1351522636</text>
</g>
<!-- 214 -->
<g id="node48" class="node">
<title>214</title>
<path fill="lightpink" stroke="lightpink" d="M2187.5,-2501.73C2187.5,-2501.73 1726.5,-2501.73 1726.5,-2501.73 1720.5,-2501.73 1714.5,-2495.73 1714.5,-2489.73 1714.5,-2489.73 1714.5,-2475.73 1714.5,-2475.73 1714.5,-2469.73 1720.5,-2463.73 1726.5,-2463.73 1726.5,-2463.73 2187.5,-2463.73 2187.5,-2463.73 2193.5,-2463.73 2199.5,-2469.73 2199.5,-2475.73 2199.5,-2475.73 2199.5,-2489.73 2199.5,-2489.73 2199.5,-2495.73 2193.5,-2501.73 2187.5,-2501.73"/>
<text text-anchor="middle" x="1957" y="-2486.53" font-family="Times,serif" font-size="14.00">MonoBehaviour_114_ID1351522639</text>
<text text-anchor="middle" x="1957" y="-2471.53" font-family="Times,serif" font-size="14.00">m_Script: {&#39;guid&#39;: &#39;fe87c0e1cc204ed48ad3b37840f39efc&#39;, &#39;type&#39;: 3, &#39;fileID&#39;: 11500000}</text>
</g>
<!-- 214&#45;&gt;221 -->
<g id="edge24" class="edge">
<title>214&#45;&gt;221</title>
<path fill="none" stroke="black" d="M1929.36,-2501.84C1879.75,-2536.14 1775.66,-2608.11 1720.47,-2646.26"/>
<polygon fill="black" stroke="black" points="1718.29,-2643.52 1712.05,-2652.09 1722.27,-2649.28 1718.29,-2643.52"/>
</g>
<!-- 231 -->
<g id="node49" class="node">
<title>231</title>
<path fill="yellowgreen" stroke="yellowgreen" d="M3219.39,-3094.46C3219.39,-3094.46 3120.39,-3094.46 3120.39,-3094.46 3114.39,-3094.46 3108.39,-3088.46 3108.39,-3082.46 3108.39,-3082.46 3108.39,-3068.46 3108.39,-3068.46 3108.39,-3062.46 3114.39,-3056.46 3120.39,-3056.46 3120.39,-3056.46 3219.39,-3056.46 3219.39,-3056.46 3225.39,-3056.46 3231.39,-3062.46 3231.39,-3068.46 3231.39,-3068.46 3231.39,-3082.46 3231.39,-3082.46 3231.39,-3088.46 3225.39,-3094.46 3219.39,-3094.46"/>
<text text-anchor="middle" x="3169.89" y="-3079.26" font-family="Times,serif" font-size="14.00">m_GameObject</text>
<text text-anchor="middle" x="3169.89" y="-3064.26" font-family="Times,serif" font-size="14.00">fileID: 1351522636</text>
</g>
<!-- 224 -->
<g id="node50" class="node">
<title>224</title>
<path fill="lightpink" stroke="lightpink" d="M2963.61,-2581.55C2963.61,-2581.55 2502.61,-2581.55 2502.61,-2581.55 2496.61,-2581.55 2490.61,-2575.55 2490.61,-2569.55 2490.61,-2569.55 2490.61,-2555.55 2490.61,-2555.55 2490.61,-2549.55 2496.61,-2543.55 2502.61,-2543.55 2502.61,-2543.55 2963.61,-2543.55 2963.61,-2543.55 2969.61,-2543.55 2975.61,-2549.55 2975.61,-2555.55 2975.61,-2555.55 2975.61,-2569.55 2975.61,-2569.55 2975.61,-2575.55 2969.61,-2581.55 2963.61,-2581.55"/>
<text text-anchor="middle" x="2733.11" y="-2566.35" font-family="Times,serif" font-size="14.00">MonoBehaviour_114_ID1351522638</text>
<text text-anchor="middle" x="2733.11" y="-2551.35" font-family="Times,serif" font-size="14.00">m_Script: {&#39;guid&#39;: &#39;4e29b1a8efbd4b44bb3f3716e73f07ff&#39;, &#39;type&#39;: 3, &#39;fileID&#39;: 11500000}</text>
</g>
<!-- 224&#45;&gt;231 -->
<g id="edge25" class="edge">
<title>224&#45;&gt;231</title>
<path fill="none" stroke="black" d="M2749.44,-2581.72C2816.26,-2660.19 3069.06,-2957.05 3146.92,-3048.49"/>
<polygon fill="black" stroke="black" points="3144.33,-3050.85 3153.48,-3056.19 3149.66,-3046.31 3144.33,-3050.85"/>
</g>
<!-- 243 -->
<g id="node51" class="node">
<title>243</title>
<path fill="yellowgreen" stroke="yellowgreen" d="M2642.05,-37.58C2642.05,-37.58 2543.05,-37.58 2543.05,-37.58 2537.05,-37.58 2531.05,-31.58 2531.05,-25.58 2531.05,-25.58 2531.05,-11.58 2531.05,-11.58 2531.05,-5.58 2537.05,0.42 2543.05,0.42 2543.05,0.42 2642.05,0.42 2642.05,0.42 2648.05,0.42 2654.05,-5.58 2654.05,-11.58 2654.05,-11.58 2654.05,-25.58 2654.05,-25.58 2654.05,-31.58 2648.05,-37.58 2642.05,-37.58"/>
<text text-anchor="middle" x="2592.55" y="-22.38" font-family="Times,serif" font-size="14.00">m_GameObject</text>
<text text-anchor="middle" x="2592.55" y="-7.38" font-family="Times,serif" font-size="14.00">fileID: 1093729419</text>
</g>
<!-- 236 -->
<g id="node52" class="node">
<title>236</title>
<path fill="lightpink" stroke="lightpink" d="M2676.1,-861C2676.1,-861 2215.1,-861 2215.1,-861 2209.1,-861 2203.1,-855 2203.1,-849 2203.1,-849 2203.1,-835 2203.1,-835 2203.1,-829 2209.1,-823 2215.1,-823 2215.1,-823 2676.1,-823 2676.1,-823 2682.1,-823 2688.1,-829 2688.1,-835 2688.1,-835 2688.1,-849 2688.1,-849 2688.1,-855 2682.1,-861 2676.1,-861"/>
<text text-anchor="middle" x="2445.6" y="-845.8" font-family="Times,serif" font-size="14.00">MonoBehaviour_114_ID1093729421</text>
<text text-anchor="middle" x="2445.6" y="-830.8" font-family="Times,serif" font-size="14.00">m_Script: {&#39;guid&#39;: &#39;5f7201a12d95ffc409449d95f23cf332&#39;, &#39;type&#39;: 3, &#39;fileID&#39;: 11500000}</text>
</g>
<!-- 236&#45;&gt;243 -->
<g id="edge26" class="edge">
<title>236&#45;&gt;243</title>
<path fill="none" stroke="black" d="M2449.01,-822.86C2468.33,-714.58 2563.9,-179.09 2587.35,-47.72"/>
<polygon fill="black" stroke="black" points="2590.84,-48.07 2589.15,-37.61 2583.95,-46.84 2590.84,-48.07"/>
</g>
<!-- 251 -->
<g id="node53" class="node">
<title>251</title>
<path fill="yellowgreen" stroke="yellowgreen" d="M2374.57,-3895.05C2374.57,-3895.05 2282.57,-3895.05 2282.57,-3895.05 2276.57,-3895.05 2270.57,-3889.05 2270.57,-3883.05 2270.57,-3883.05 2270.57,-3869.05 2270.57,-3869.05 2270.57,-3863.05 2276.57,-3857.05 2282.57,-3857.05 2282.57,-3857.05 2374.57,-3857.05 2374.57,-3857.05 2380.57,-3857.05 2386.57,-3863.05 2386.57,-3869.05 2386.57,-3869.05 2386.57,-3883.05 2386.57,-3883.05 2386.57,-3889.05 2380.57,-3895.05 2374.57,-3895.05"/>
<text text-anchor="middle" x="2328.57" y="-3879.85" font-family="Times,serif" font-size="14.00">m_GameObject</text>
<text text-anchor="middle" x="2328.57" y="-3864.85" font-family="Times,serif" font-size="14.00">fileID: 138731492</text>
</g>
<!-- 246 -->
<g id="node54" class="node">
<title>246</title>
<path fill="lightpink" stroke="lightpink" d="M2550.57,-3407.67C2550.57,-3407.67 2087.57,-3407.67 2087.57,-3407.67 2081.57,-3407.67 2075.57,-3401.67 2075.57,-3395.67 2075.57,-3395.67 2075.57,-3381.67 2075.57,-3381.67 2075.57,-3375.67 2081.57,-3369.67 2087.57,-3369.67 2087.57,-3369.67 2550.57,-3369.67 2550.57,-3369.67 2556.57,-3369.67 2562.57,-3375.67 2562.57,-3381.67 2562.57,-3381.67 2562.57,-3395.67 2562.57,-3395.67 2562.57,-3401.67 2556.57,-3407.67 2550.57,-3407.67"/>
<text text-anchor="middle" x="2319.07" y="-3392.47" font-family="Times,serif" font-size="14.00">MonoBehaviour_114_ID138731494</text>
<text text-anchor="middle" x="2319.07" y="-3377.47" font-family="Times,serif" font-size="14.00">m_Script: {&#39;guid&#39;: &#39;59f8146938fff824cb5fd77236b75775&#39;, &#39;type&#39;: 3, &#39;fileID&#39;: 11500000}</text>
</g>
<!-- 246&#45;&gt;251 -->
<g id="edge27" class="edge">
<title>246&#45;&gt;251</title>
<path fill="none" stroke="black" d="M2319.44,-3407.77C2320.9,-3482.61 2326.24,-3756.12 2328,-3846.7"/>
<polygon fill="black" stroke="black" points="2324.51,-3846.88 2328.2,-3856.81 2331.5,-3846.74 2324.51,-3846.88"/>
</g>
<!-- 260 -->
<g id="node55" class="node">
<title>260</title>
<path fill="yellowgreen" stroke="yellowgreen" d="M834.32,-3127.76C834.32,-3127.76 742.32,-3127.76 742.32,-3127.76 736.32,-3127.76 730.32,-3121.76 730.32,-3115.76 730.32,-3115.76 730.32,-3101.76 730.32,-3101.76 730.32,-3095.76 736.32,-3089.76 742.32,-3089.76 742.32,-3089.76 834.32,-3089.76 834.32,-3089.76 840.32,-3089.76 846.32,-3095.76 846.32,-3101.76 846.32,-3101.76 846.32,-3115.76 846.32,-3115.76 846.32,-3121.76 840.32,-3127.76 834.32,-3127.76"/>
<text text-anchor="middle" x="788.32" y="-3112.56" font-family="Times,serif" font-size="14.00">m_GameObject</text>
<text text-anchor="middle" x="788.32" y="-3097.56" font-family="Times,serif" font-size="14.00">fileID: 771856868</text>
</g>
<!-- 253 -->
<g id="node56" class="node">
<title>253</title>
<path fill="lightpink" stroke="lightpink" d="M1280.84,-2952.52C1280.84,-2952.52 819.84,-2952.52 819.84,-2952.52 813.84,-2952.52 807.84,-2946.52 807.84,-2940.52 807.84,-2940.52 807.84,-2926.52 807.84,-2926.52 807.84,-2920.52 813.84,-2914.52 819.84,-2914.52 819.84,-2914.52 1280.84,-2914.52 1280.84,-2914.52 1286.84,-2914.52 1292.84,-2920.52 1292.84,-2926.52 1292.84,-2926.52 1292.84,-2940.52 1292.84,-2940.52 1292.84,-2946.52 1286.84,-2952.52 1280.84,-2952.52"/>
<text text-anchor="middle" x="1050.34" y="-2937.32" font-family="Times,serif" font-size="14.00">MonoBehaviour_114_ID771856871</text>
<text text-anchor="middle" x="1050.34" y="-2922.32" font-family="Times,serif" font-size="14.00">m_Script: {&#39;guid&#39;: &#39;fe87c0e1cc204ed48ad3b37840f39efc&#39;, &#39;type&#39;: 3, &#39;fileID&#39;: 11500000}</text>
</g>
<!-- 253&#45;&gt;260 -->
<g id="edge28" class="edge">
<title>253&#45;&gt;260</title>
<path fill="none" stroke="black" d="M1021.8,-2952.6C974.06,-2984.54 878.04,-3048.75 825.23,-3084.08"/>
<polygon fill="black" stroke="black" points="823.19,-3081.23 816.83,-3089.7 827.09,-3087.04 823.19,-3081.23"/>
</g>
<!-- 270 -->
<g id="node57" class="node">
<title>270</title>
<path fill="yellowgreen" stroke="yellowgreen" d="M643.1,-2857.35C643.1,-2857.35 551.1,-2857.35 551.1,-2857.35 545.1,-2857.35 539.1,-2851.35 539.1,-2845.35 539.1,-2845.35 539.1,-2831.35 539.1,-2831.35 539.1,-2825.35 545.1,-2819.35 551.1,-2819.35 551.1,-2819.35 643.1,-2819.35 643.1,-2819.35 649.1,-2819.35 655.1,-2825.35 655.1,-2831.35 655.1,-2831.35 655.1,-2845.35 655.1,-2845.35 655.1,-2851.35 649.1,-2857.35 643.1,-2857.35"/>
<text text-anchor="middle" x="597.1" y="-2842.15" font-family="Times,serif" font-size="14.00">m_GameObject</text>
<text text-anchor="middle" x="597.1" y="-2827.15" font-family="Times,serif" font-size="14.00">fileID: 771856868</text>
</g>
<!-- 263 -->
<g id="node58" class="node">
<title>263</title>
<path fill="lightpink" stroke="lightpink" d="M1551.77,-2421.45C1551.77,-2421.45 1090.77,-2421.45 1090.77,-2421.45 1084.77,-2421.45 1078.77,-2415.45 1078.77,-2409.45 1078.77,-2409.45 1078.77,-2395.45 1078.77,-2395.45 1078.77,-2389.45 1084.77,-2383.45 1090.77,-2383.45 1090.77,-2383.45 1551.77,-2383.45 1551.77,-2383.45 1557.77,-2383.45 1563.77,-2389.45 1563.77,-2395.45 1563.77,-2395.45 1563.77,-2409.45 1563.77,-2409.45 1563.77,-2415.45 1557.77,-2421.45 1551.77,-2421.45"/>
<text text-anchor="middle" x="1321.27" y="-2406.25" font-family="Times,serif" font-size="14.00">MonoBehaviour_114_ID771856870</text>
<text text-anchor="middle" x="1321.27" y="-2391.25" font-family="Times,serif" font-size="14.00">m_Script: {&#39;guid&#39;: &#39;4e29b1a8efbd4b44bb3f3716e73f07ff&#39;, &#39;type&#39;: 3, &#39;fileID&#39;: 11500000}</text>
</g>
<!-- 263&#45;&gt;270 -->
<g id="edge29" class="edge">
<title>263&#45;&gt;270</title>
<path fill="none" stroke="black" d="M1289.68,-2421.46C1173.24,-2491.55 767.98,-2735.49 637.74,-2813.89"/>
<polygon fill="black" stroke="black" points="635.61,-2811.09 628.84,-2819.24 639.22,-2817.08 635.61,-2811.09"/>
</g>
<!-- 1 -->
<g id="node59" class="node">
<title>1</title>
<ellipse fill="red" stroke="red" cx="2219.56" cy="-2017.47" rx="27" ry="18"/>
</g>
<!-- 1&#45;&gt;2 -->
<g id="edge30" class="edge">
<title>1&#45;&gt;2</title>
<path fill="none" stroke="black" d="M2193.69,-2011.71C2044.31,-1978.47 1289.58,-1810.51 1019.95,-1750.51"/>
<polygon fill="black" stroke="black" points="1020.31,-1747.01 1009.79,-1748.25 1018.79,-1753.84 1020.31,-1747.01"/>
</g>
<!-- 1&#45;&gt;12 -->
<g id="edge31" class="edge">
<title>1&#45;&gt;12</title>
<path fill="none" stroke="black" d="M2216.34,-2035.55C2188.48,-2191.57 1988.97,-3309.06 1954.05,-3504.62"/>
<polygon fill="black" stroke="black" points="1950.56,-3504.25 1952.25,-3514.71 1957.45,-3505.48 1950.56,-3504.25"/>
</g>
<!-- 1&#45;&gt;19 -->
<g id="edge32" class="edge">
<title>1&#45;&gt;19</title>
<path fill="none" stroke="black" d="M2209.19,-2000.44C2143.67,-1892.91 1787.55,-1308.43 1705.14,-1173.16"/>
<polygon fill="black" stroke="black" points="1708.09,-1171.28 1699.9,-1164.56 1702.11,-1174.92 1708.09,-1171.28"/>
</g>
<!-- 1&#45;&gt;29 -->
<g id="edge33" class="edge">
<title>1&#45;&gt;29</title>
<path fill="none" stroke="black" d="M2207.36,-2001.19C2170.31,-1951.81 2058.92,-1803.33 2012.81,-1741.86"/>
<polygon fill="black" stroke="black" points="2015.55,-1739.68 2006.75,-1733.78 2009.95,-1743.88 2015.55,-1739.68"/>
</g>
<!-- 1&#45;&gt;41 -->
<g id="edge34" class="edge">
<title>1&#45;&gt;41</title>
<path fill="none" stroke="black" d="M2192.36,-2016.06C2145.37,-2013.63 2044.5,-2008.41 1945.63,-2003.29"/>
<polygon fill="black" stroke="black" points="1945.62,-1999.79 1935.45,-2002.77 1945.26,-2006.78 1945.62,-1999.79"/>
</g>
<!-- 1&#45;&gt;51 -->
<g id="edge35" class="edge">
<title>1&#45;&gt;51</title>
<path fill="none" stroke="black" d="M2236.95,-2031.42C2366.53,-2135.41 3181.48,-2789.39 3353.48,-2927.42"/>
<polygon fill="black" stroke="black" points="3351.42,-2930.25 3361.41,-2933.78 3355.8,-2924.79 3351.42,-2930.25"/>
</g>
<!-- 1&#45;&gt;61 -->
<g id="edge36" class="edge">
<title>1&#45;&gt;61</title>
<path fill="none" stroke="black" d="M2246.74,-2016.69C2376.98,-2012.94 2944.99,-1996.58 3281.71,-1986.89"/>
<polygon fill="black" stroke="black" points="3282.21,-1990.38 3292.1,-1986.59 3282,-1983.38 3282.21,-1990.38"/>
</g>
<!-- 1&#45;&gt;73 -->
<g id="edge37" class="edge">
<title>1&#45;&gt;73</title>
<path fill="none" stroke="black" d="M2245.6,-2022.33C2398.02,-2050.81 3177.98,-2196.55 3471.8,-2251.45"/>
<polygon fill="black" stroke="black" points="3471.57,-2254.97 3482.05,-2253.36 3472.86,-2248.09 3471.57,-2254.97"/>
</g>
<!-- 1&#45;&gt;80 -->
<g id="edge38" class="edge">
<title>1&#45;&gt;80</title>
<path fill="none" stroke="black" d="M2200.41,-2030.17C2134.75,-2073.71 1918,-2217.42 1830.35,-2275.55"/>
<polygon fill="black" stroke="black" points="1828.18,-2272.78 1821.78,-2281.22 1832.05,-2278.62 1828.18,-2272.78"/>
</g>
<!-- 1&#45;&gt;86 -->
<g id="edge39" class="edge">
<title>1&#45;&gt;86</title>
<path fill="none" stroke="black" d="M2221.54,-1999.29C2228.09,-1938.89 2249.16,-1744.52 2257.24,-1670.04"/>
<polygon fill="black" stroke="black" points="2260.74,-1670.27 2258.33,-1659.95 2253.78,-1669.51 2260.74,-1670.27"/>
</g>
<!-- 1&#45;&gt;96 -->
<g id="edge40" class="edge">
<title>1&#45;&gt;96</title>
<path fill="none" stroke="black" d="M2201.67,-2003.8C2076.96,-1908.55 1337.8,-1344.01 1170.2,-1216.01"/>
<polygon fill="black" stroke="black" points="1171.83,-1212.85 1161.76,-1209.56 1167.58,-1218.41 1171.83,-1212.85"/>
</g>
<!-- 1&#45;&gt;106 -->
<g id="edge41" class="edge">
<title>1&#45;&gt;106</title>
<path fill="none" stroke="black" d="M2233,-2001.44C2316.45,-1901.9 2763.68,-1368.42 2869.73,-1241.92"/>
<polygon fill="black" stroke="black" points="2872.48,-1244.09 2876.22,-1234.18 2867.11,-1239.6 2872.48,-1244.09"/>
</g>
<!-- 1&#45;&gt;113 -->
<g id="edge42" class="edge">
<title>1&#45;&gt;113</title>
<path fill="none" stroke="black" d="M2226.76,-2035.05C2272.88,-2147.77 2526.99,-2768.82 2584.81,-2910.15"/>
<polygon fill="black" stroke="black" points="2581.61,-2911.56 2588.63,-2919.49 2588.09,-2908.91 2581.61,-2911.56"/>
</g>
<!-- 1&#45;&gt;120 -->
<g id="edge43" class="edge">
<title>1&#45;&gt;120</title>
<path fill="none" stroke="black" d="M2243.89,-2025.99C2364.18,-2068.15 2897.07,-2254.91 3082.76,-2319.99"/>
<polygon fill="black" stroke="black" points="3081.8,-2323.36 3092.39,-2323.36 3084.11,-2316.75 3081.8,-2323.36"/>
</g>
<!-- 1&#45;&gt;130 -->
<g id="edge44" class="edge">
<title>1&#45;&gt;130</title>
<path fill="none" stroke="black" d="M2215.58,-1999.44C2185.67,-1864 1996.33,-1006.6 1958.99,-837.5"/>
<polygon fill="black" stroke="black" points="1962.37,-836.59 1956.8,-827.58 1955.54,-838.1 1962.37,-836.59"/>
</g>
<!-- 1&#45;&gt;140 -->
<g id="edge45" class="edge">
<title>1&#45;&gt;140</title>
<path fill="none" stroke="black" d="M2242.84,-2027.13C2334.66,-2065.25 2673.34,-2205.86 2807.5,-2261.56"/>
<polygon fill="black" stroke="black" points="2806.22,-2264.82 2816.8,-2265.42 2808.9,-2258.36 2806.22,-2264.82"/>
</g>
<!-- 1&#45;&gt;150 -->
<g id="edge46" class="edge">
<title>1&#45;&gt;150</title>
<path fill="none" stroke="black" d="M2193.09,-2021.13C2043.68,-2041.79 1301.12,-2144.48 980.39,-2188.83"/>
<polygon fill="black" stroke="black" points="979.52,-2185.41 970.1,-2190.25 980.48,-2192.35 979.52,-2185.41"/>
</g>
<!-- 1&#45;&gt;160 -->
<g id="edge47" class="edge">
<title>1&#45;&gt;160</title>
<path fill="none" stroke="black" d="M2246.36,-2020.13C2350.26,-2030.45 2732.72,-2068.45 2973.12,-2092.34"/>
<polygon fill="black" stroke="black" points="2973.09,-2095.85 2983.39,-2093.36 2973.78,-2088.88 2973.09,-2095.85"/>
</g>
<!-- 1&#45;&gt;170 -->
<g id="edge48" class="edge">
<title>1&#45;&gt;170</title>
<path fill="none" stroke="black" d="M2225.15,-2035.25C2273.76,-2190.03 2624.74,-3307.46 2685.85,-3502.02"/>
<polygon fill="black" stroke="black" points="2682.59,-3503.32 2688.92,-3511.81 2689.26,-3501.22 2682.59,-3503.32"/>
</g>
<!-- 1&#45;&gt;180 -->
<g id="edge49" class="edge">
<title>1&#45;&gt;180</title>
<path fill="none" stroke="black" d="M2210.22,-2034.63C2135.2,-2172.45 1631.36,-3098.02 1536.53,-3272.24"/>
<polygon fill="black" stroke="black" points="1533.42,-3270.62 1531.71,-3281.08 1539.57,-3273.97 1533.42,-3270.62"/>
</g>
<!-- 1&#45;&gt;190 -->
<g id="edge50" class="edge">
<title>1&#45;&gt;190</title>
<path fill="none" stroke="black" d="M2236.6,-2002.99C2279.84,-1966.26 2394.26,-1869.05 2449.12,-1822.46"/>
<polygon fill="black" stroke="black" points="2451.4,-1825.11 2456.76,-1815.96 2446.87,-1819.77 2451.4,-1825.11"/>
</g>
<!-- 1&#45;&gt;197 -->
<g id="edge51" class="edge">
<title>1&#45;&gt;197</title>
<path fill="none" stroke="black" d="M2225.8,-2035.08C2258.54,-2127.62 2410.75,-2557.75 2451.67,-2673.39"/>
<polygon fill="black" stroke="black" points="2448.43,-2674.72 2455.07,-2682.98 2455.03,-2672.39 2448.43,-2674.72"/>
</g>
<!-- 1&#45;&gt;207 -->
<g id="edge52" class="edge">
<title>1&#45;&gt;207</title>
<path fill="none" stroke="black" d="M2229.12,-2000.46C2296.26,-1880.9 2697.16,-1167.03 2781.87,-1016.2"/>
<polygon fill="black" stroke="black" points="2784.92,-1017.91 2786.77,-1007.47 2778.82,-1014.48 2784.92,-1017.91"/>
</g>
<!-- 1&#45;&gt;214 -->
<g id="edge53" class="edge">
<title>1&#45;&gt;214</title>
<path fill="none" stroke="black" d="M2209.91,-2034.58C2170.5,-2104.42 2021.6,-2368.26 1972.68,-2454.94"/>
<polygon fill="black" stroke="black" points="1969.61,-2453.27 1967.74,-2463.7 1975.71,-2456.71 1969.61,-2453.27"/>
</g>
<!-- 1&#45;&gt;224 -->
<g id="edge54" class="edge">
<title>1&#45;&gt;224</title>
<path fill="none" stroke="black" d="M2234.11,-2032.9C2305.31,-2108.47 2617.36,-2439.69 2708.21,-2536.12"/>
<polygon fill="black" stroke="black" points="2705.69,-2538.55 2715.1,-2543.43 2710.79,-2533.75 2705.69,-2538.55"/>
</g>
<!-- 1&#45;&gt;236 -->
<g id="edge55" class="edge">
<title>1&#45;&gt;236</title>
<path fill="none" stroke="black" d="M2223.02,-1999.47C2248.57,-1866.63 2407.8,-1038.53 2439.94,-871.39"/>
<polygon fill="black" stroke="black" points="2443.42,-871.83 2441.87,-861.35 2436.55,-870.51 2443.42,-871.83"/>
</g>
<!-- 1&#45;&gt;246 -->
<g id="edge56" class="edge">
<title>1&#45;&gt;246</title>
<path fill="none" stroke="black" d="M2220.88,-2035.56C2231.52,-2182.2 2303.59,-3175.41 2316.95,-3359.38"/>
<polygon fill="black" stroke="black" points="2313.46,-3359.68 2317.67,-3369.4 2320.44,-3359.17 2313.46,-3359.68"/>
</g>
<!-- 1&#45;&gt;253 -->
<g id="edge57" class="edge">
<title>1&#45;&gt;253</title>
<path fill="none" stroke="black" d="M2201.67,-2031.49C2070.36,-2134.36 1256.14,-2772.27 1082.78,-2908.1"/>
<polygon fill="black" stroke="black" points="1080.49,-2905.44 1074.78,-2914.37 1084.81,-2910.95 1080.49,-2905.44"/>
</g>
<!-- 1&#45;&gt;263 -->
<g id="edge58" class="edge">
<title>1&#45;&gt;263</title>
<path fill="none" stroke="black" d="M2196.46,-2027.37C2079.01,-2077.7 1547.15,-2305.64 1375.12,-2379.37"/>
<polygon fill="black" stroke="black" points="1373.57,-2376.23 1365.75,-2383.38 1376.32,-2382.66 1373.57,-2376.23"/>
</g>
</g>
</svg>
