<?xml version="1.0" encoding="UTF-8" standalone="no"?>
<!DOCTYPE svg PUBLIC "-//W3C//DTD SVG 1.1//EN"
 "http://www.w3.org/Graphics/SVG/1.1/DTD/svg11.dtd">
<!-- Generated by graphviz version 2.46.0 (20210118.1747)
 -->
<!-- Title: graphname Pages: 1 -->
<svg width="4824pt" height="4789pt"
 viewBox="0.00 0.00 4824.00 4788.58" xmlns="http://www.w3.org/2000/svg" xmlns:xlink="http://www.w3.org/1999/xlink">
<g id="graph0" class="graph" transform="scale(0.52 0.52) rotate(0) translate(4 9198.58)">
<title>graphname</title>
<polygon fill="white" stroke="transparent" points="-4,4 -4,-9198.58 9266.65,-9198.58 9266.65,4 -4,4"/>
<!-- 9 -->
<g id="node1" class="node">
<title>9</title>
<path fill="yellowgreen" stroke="yellowgreen" d="M9250.65,-5112.01C9250.65,-5112.01 9151.65,-5112.01 9151.65,-5112.01 9145.65,-5112.01 9139.65,-5106.01 9139.65,-5100.01 9139.65,-5100.01 9139.65,-5086.01 9139.65,-5086.01 9139.65,-5080.01 9145.65,-5074.01 9151.65,-5074.01 9151.65,-5074.01 9250.65,-5074.01 9250.65,-5074.01 9256.65,-5074.01 9262.65,-5080.01 9262.65,-5086.01 9262.65,-5086.01 9262.65,-5100.01 9262.65,-5100.01 9262.65,-5106.01 9256.65,-5112.01 9250.65,-5112.01"/>
<text text-anchor="middle" x="9201.15" y="-5096.81" font-family="Times,serif" font-size="14.00">m_GameObject</text>
<text text-anchor="middle" x="9201.15" y="-5081.81" font-family="Times,serif" font-size="14.00">fileID: 1040292123</text>
</g>
<!-- 2 -->
<g id="node2" class="node">
<title>2</title>
<path fill="lightpink" stroke="lightpink" d="M7152.58,-4864.15C7152.58,-4864.15 6691.58,-4864.15 6691.58,-4864.15 6685.58,-4864.15 6679.58,-4858.15 6679.58,-4852.15 6679.58,-4852.15 6679.58,-4838.15 6679.58,-4838.15 6679.58,-4832.15 6685.58,-4826.15 6691.58,-4826.15 6691.58,-4826.15 7152.58,-4826.15 7152.58,-4826.15 7158.58,-4826.15 7164.58,-4832.15 7164.58,-4838.15 7164.58,-4838.15 7164.58,-4852.15 7164.58,-4852.15 7164.58,-4858.15 7158.58,-4864.15 7152.58,-4864.15"/>
<text text-anchor="middle" x="6922.08" y="-4848.95" font-family="Times,serif" font-size="14.00">MonoBehaviour_114_ID1040292125</text>
<text text-anchor="middle" x="6922.08" y="-4833.95" font-family="Times,serif" font-size="14.00">m_Script: {&#39;guid&#39;: &#39;5f7201a12d95ffc409449d95f23cf332&#39;, &#39;type&#39;: 3, &#39;fileID&#39;: 11500000}</text>
</g>
<!-- 2&#45;&gt;9 -->
<g id="edge1" class="edge">
<title>2&#45;&gt;9</title>
<path fill="none" stroke="black" d="M7097.13,-4864.19C7562.2,-4914.77 8814.54,-5050.97 9128.83,-5085.15"/>
<polygon fill="black" stroke="black" points="9128.86,-5088.67 9139.18,-5086.28 9129.62,-5081.71 9128.86,-5088.67"/>
</g>
<!-- 17 -->
<g id="node3" class="node">
<title>17</title>
<path fill="yellowgreen" stroke="yellowgreen" d="M9037.51,-6080.29C9037.51,-6080.29 8938.51,-6080.29 8938.51,-6080.29 8932.51,-6080.29 8926.51,-6074.29 8926.51,-6068.29 8926.51,-6068.29 8926.51,-6054.29 8926.51,-6054.29 8926.51,-6048.29 8932.51,-6042.29 8938.51,-6042.29 8938.51,-6042.29 9037.51,-6042.29 9037.51,-6042.29 9043.51,-6042.29 9049.51,-6048.29 9049.51,-6054.29 9049.51,-6054.29 9049.51,-6068.29 9049.51,-6068.29 9049.51,-6074.29 9043.51,-6080.29 9037.51,-6080.29"/>
<text text-anchor="middle" x="8988.01" y="-6065.09" font-family="Times,serif" font-size="14.00">m_GameObject</text>
<text text-anchor="middle" x="8988.01" y="-6050.09" font-family="Times,serif" font-size="14.00">fileID: 1089201443</text>
</g>
<!-- 12 -->
<g id="node4" class="node">
<title>12</title>
<path fill="lightpink" stroke="lightpink" d="M7047.01,-5348.29C7047.01,-5348.29 6584.01,-5348.29 6584.01,-5348.29 6578.01,-5348.29 6572.01,-5342.29 6572.01,-5336.29 6572.01,-5336.29 6572.01,-5322.29 6572.01,-5322.29 6572.01,-5316.29 6578.01,-5310.29 6584.01,-5310.29 6584.01,-5310.29 7047.01,-5310.29 7047.01,-5310.29 7053.01,-5310.29 7059.01,-5316.29 7059.01,-5322.29 7059.01,-5322.29 7059.01,-5336.29 7059.01,-5336.29 7059.01,-5342.29 7053.01,-5348.29 7047.01,-5348.29"/>
<text text-anchor="middle" x="6815.51" y="-5333.09" font-family="Times,serif" font-size="14.00">MonoBehaviour_114_ID1089201445</text>
<text text-anchor="middle" x="6815.51" y="-5318.09" font-family="Times,serif" font-size="14.00">m_Script: {&#39;guid&#39;: &#39;59f8146938fff824cb5fd77236b75775&#39;, &#39;type&#39;: 3, &#39;fileID&#39;: 11500000}</text>
</g>
<!-- 12&#45;&gt;17 -->
<g id="edge2" class="edge">
<title>12&#45;&gt;17</title>
<path fill="none" stroke="black" d="M6871.95,-5348.3C7173.89,-5450.04 8596.84,-5929.49 8921.81,-6038.98"/>
<polygon fill="black" stroke="black" points="8920.96,-6042.39 8931.56,-6042.27 8923.2,-6035.76 8920.96,-6042.39"/>
</g>
<!-- 26 -->
<g id="node5" class="node">
<title>26</title>
<path fill="yellowgreen" stroke="yellowgreen" d="M8617.71,-6980.11C8617.71,-6980.11 8525.71,-6980.11 8525.71,-6980.11 8519.71,-6980.11 8513.71,-6974.11 8513.71,-6968.11 8513.71,-6968.11 8513.71,-6954.11 8513.71,-6954.11 8513.71,-6948.11 8519.71,-6942.11 8525.71,-6942.11 8525.71,-6942.11 8617.71,-6942.11 8617.71,-6942.11 8623.71,-6942.11 8629.71,-6948.11 8629.71,-6954.11 8629.71,-6954.11 8629.71,-6968.11 8629.71,-6968.11 8629.71,-6974.11 8623.71,-6980.11 8617.71,-6980.11"/>
<text text-anchor="middle" x="8571.71" y="-6964.91" font-family="Times,serif" font-size="14.00">m_GameObject</text>
<text text-anchor="middle" x="8571.71" y="-6949.91" font-family="Times,serif" font-size="14.00">fileID: 628076939</text>
</g>
<!-- 19 -->
<g id="node6" class="node">
<title>19</title>
<path fill="lightpink" stroke="lightpink" d="M6837.86,-5798.2C6837.86,-5798.2 6376.86,-5798.2 6376.86,-5798.2 6370.86,-5798.2 6364.86,-5792.2 6364.86,-5786.2 6364.86,-5786.2 6364.86,-5772.2 6364.86,-5772.2 6364.86,-5766.2 6370.86,-5760.2 6376.86,-5760.2 6376.86,-5760.2 6837.86,-5760.2 6837.86,-5760.2 6843.86,-5760.2 6849.86,-5766.2 6849.86,-5772.2 6849.86,-5772.2 6849.86,-5786.2 6849.86,-5786.2 6849.86,-5792.2 6843.86,-5798.2 6837.86,-5798.2"/>
<text text-anchor="middle" x="6607.36" y="-5783" font-family="Times,serif" font-size="14.00">MonoBehaviour_114_ID628076941</text>
<text text-anchor="middle" x="6607.36" y="-5768" font-family="Times,serif" font-size="14.00">m_Script: {&#39;guid&#39;: &#39;5f7201a12d95ffc409449d95f23cf332&#39;, &#39;type&#39;: 3, &#39;fileID&#39;: 11500000}</text>
</g>
<!-- 19&#45;&gt;26 -->
<g id="edge3" class="edge">
<title>19&#45;&gt;26</title>
<path fill="none" stroke="black" d="M6639.01,-5798.24C6868.35,-5936.23 8273.72,-6781.81 8531.21,-6936.74"/>
<polygon fill="black" stroke="black" points="8529.51,-6939.8 8539.88,-6941.96 8533.12,-6933.8 8529.51,-6939.8"/>
</g>
<!-- 36 -->
<g id="node7" class="node">
<title>36</title>
<path fill="yellowgreen" stroke="yellowgreen" d="M8021.21,-7769.4C8021.21,-7769.4 7922.21,-7769.4 7922.21,-7769.4 7916.21,-7769.4 7910.21,-7763.4 7910.21,-7757.4 7910.21,-7757.4 7910.21,-7743.4 7910.21,-7743.4 7910.21,-7737.4 7916.21,-7731.4 7922.21,-7731.4 7922.21,-7731.4 8021.21,-7731.4 8021.21,-7731.4 8027.21,-7731.4 8033.21,-7737.4 8033.21,-7743.4 8033.21,-7743.4 8033.21,-7757.4 8033.21,-7757.4 8033.21,-7763.4 8027.21,-7769.4 8021.21,-7769.4"/>
<text text-anchor="middle" x="7971.71" y="-7754.2" font-family="Times,serif" font-size="14.00">m_GameObject</text>
<text text-anchor="middle" x="7971.71" y="-7739.2" font-family="Times,serif" font-size="14.00">fileID: 1525520955</text>
</g>
<!-- 29 -->
<g id="node8" class="node">
<title>29</title>
<path fill="lightpink" stroke="lightpink" d="M6537.86,-6192.84C6537.86,-6192.84 6076.86,-6192.84 6076.86,-6192.84 6070.86,-6192.84 6064.86,-6186.84 6064.86,-6180.84 6064.86,-6180.84 6064.86,-6166.84 6064.86,-6166.84 6064.86,-6160.84 6070.86,-6154.84 6076.86,-6154.84 6076.86,-6154.84 6537.86,-6154.84 6537.86,-6154.84 6543.86,-6154.84 6549.86,-6160.84 6549.86,-6166.84 6549.86,-6166.84 6549.86,-6180.84 6549.86,-6180.84 6549.86,-6186.84 6543.86,-6192.84 6537.86,-6192.84"/>
<text text-anchor="middle" x="6307.36" y="-6177.64" font-family="Times,serif" font-size="14.00">MonoBehaviour_114_ID1525520957</text>
<text text-anchor="middle" x="6307.36" y="-6162.64" font-family="Times,serif" font-size="14.00">m_Script: {&#39;guid&#39;: &#39;4e29b1a8efbd4b44bb3f3716e73f07ff&#39;, &#39;type&#39;: 3, &#39;fileID&#39;: 11500000}</text>
</g>
<!-- 29&#45;&gt;36 -->
<g id="edge4" class="edge">
<title>29&#45;&gt;36</title>
<path fill="none" stroke="black" d="M6327.51,-6192.93C6501.09,-6357.35 7742.64,-7533.41 7944.12,-7724.26"/>
<polygon fill="black" stroke="black" points="7941.96,-7727.04 7951.63,-7731.38 7946.78,-7721.96 7941.96,-7727.04"/>
</g>
<!-- 48 -->
<g id="node9" class="node">
<title>48</title>
<path fill="yellowgreen" stroke="yellowgreen" d="M7265.56,-8411.25C7265.56,-8411.25 7166.56,-8411.25 7166.56,-8411.25 7160.56,-8411.25 7154.56,-8405.25 7154.56,-8399.25 7154.56,-8399.25 7154.56,-8385.25 7154.56,-8385.25 7154.56,-8379.25 7160.56,-8373.25 7166.56,-8373.25 7166.56,-8373.25 7265.56,-8373.25 7265.56,-8373.25 7271.56,-8373.25 7277.56,-8379.25 7277.56,-8385.25 7277.56,-8385.25 7277.56,-8399.25 7277.56,-8399.25 7277.56,-8405.25 7271.56,-8411.25 7265.56,-8411.25"/>
<text text-anchor="middle" x="7216.06" y="-8396.05" font-family="Times,serif" font-size="14.00">m_GameObject</text>
<text text-anchor="middle" x="7216.06" y="-8381.05" font-family="Times,serif" font-size="14.00">fileID: 1285890736</text>
</g>
<!-- 41 -->
<g id="node10" class="node">
<title>41</title>
<path fill="lightpink" stroke="lightpink" d="M6160.04,-6513.77C6160.04,-6513.77 5699.04,-6513.77 5699.04,-6513.77 5693.04,-6513.77 5687.04,-6507.77 5687.04,-6501.77 5687.04,-6501.77 5687.04,-6487.77 5687.04,-6487.77 5687.04,-6481.77 5693.04,-6475.77 5699.04,-6475.77 5699.04,-6475.77 6160.04,-6475.77 6160.04,-6475.77 6166.04,-6475.77 6172.04,-6481.77 6172.04,-6487.77 6172.04,-6487.77 6172.04,-6501.77 6172.04,-6501.77 6172.04,-6507.77 6166.04,-6513.77 6160.04,-6513.77"/>
<text text-anchor="middle" x="5929.54" y="-6498.57" font-family="Times,serif" font-size="14.00">MonoBehaviour_114_ID1285890738</text>
<text text-anchor="middle" x="5929.54" y="-6483.57" font-family="Times,serif" font-size="14.00">m_Script: {&#39;guid&#39;: &#39;5f7201a12d95ffc409449d95f23cf332&#39;, &#39;type&#39;: 3, &#39;fileID&#39;: 11500000}</text>
</g>
<!-- 41&#45;&gt;48 -->
<g id="edge5" class="edge">
<title>41&#45;&gt;48</title>
<path fill="none" stroke="black" d="M5942.48,-6513.86C6066.87,-6697.31 7049.16,-8146.1 7197.36,-8364.67"/>
<polygon fill="black" stroke="black" points="7194.53,-8366.73 7203.04,-8373.05 7200.33,-8362.81 7194.53,-8366.73"/>
</g>
<!-- 58 -->
<g id="node11" class="node">
<title>58</title>
<path fill="yellowgreen" stroke="yellowgreen" d="M6386.1,-8875.66C6386.1,-8875.66 6294.1,-8875.66 6294.1,-8875.66 6288.1,-8875.66 6282.1,-8869.66 6282.1,-8863.66 6282.1,-8863.66 6282.1,-8849.66 6282.1,-8849.66 6282.1,-8843.66 6288.1,-8837.66 6294.1,-8837.66 6294.1,-8837.66 6386.1,-8837.66 6386.1,-8837.66 6392.1,-8837.66 6398.1,-8843.66 6398.1,-8849.66 6398.1,-8849.66 6398.1,-8863.66 6398.1,-8863.66 6398.1,-8869.66 6392.1,-8875.66 6386.1,-8875.66"/>
<text text-anchor="middle" x="6340.1" y="-8860.46" font-family="Times,serif" font-size="14.00">m_GameObject</text>
<text text-anchor="middle" x="6340.1" y="-8845.46" font-family="Times,serif" font-size="14.00">fileID: 530533593</text>
</g>
<!-- 51 -->
<g id="node12" class="node">
<title>51</title>
<path fill="lightpink" stroke="lightpink" d="M5722.06,-6745.97C5722.06,-6745.97 5261.06,-6745.97 5261.06,-6745.97 5255.06,-6745.97 5249.06,-6739.97 5249.06,-6733.97 5249.06,-6733.97 5249.06,-6719.97 5249.06,-6719.97 5249.06,-6713.97 5255.06,-6707.97 5261.06,-6707.97 5261.06,-6707.97 5722.06,-6707.97 5722.06,-6707.97 5728.06,-6707.97 5734.06,-6713.97 5734.06,-6719.97 5734.06,-6719.97 5734.06,-6733.97 5734.06,-6733.97 5734.06,-6739.97 5728.06,-6745.97 5722.06,-6745.97"/>
<text text-anchor="middle" x="5491.56" y="-6730.77" font-family="Times,serif" font-size="14.00">MonoBehaviour_114_ID530533596</text>
<text text-anchor="middle" x="5491.56" y="-6715.77" font-family="Times,serif" font-size="14.00">m_Script: {&#39;guid&#39;: &#39;fe87c0e1cc204ed48ad3b37840f39efc&#39;, &#39;type&#39;: 3, &#39;fileID&#39;: 11500000}</text>
</g>
<!-- 51&#45;&gt;58 -->
<g id="edge6" class="edge">
<title>51&#45;&gt;58</title>
<path fill="none" stroke="black" d="M5499.15,-6746.03C5577.29,-6942.16 6234.05,-8590.48 6328.74,-8828.15"/>
<polygon fill="black" stroke="black" points="6325.52,-8829.51 6332.47,-8837.51 6332.02,-8826.92 6325.52,-8829.51"/>
</g>
<!-- 68 -->
<g id="node13" class="node">
<title>68</title>
<path fill="yellowgreen" stroke="yellowgreen" d="M5430.78,-9140.9C5430.78,-9140.9 5338.78,-9140.9 5338.78,-9140.9 5332.78,-9140.9 5326.78,-9134.9 5326.78,-9128.9 5326.78,-9128.9 5326.78,-9114.9 5326.78,-9114.9 5326.78,-9108.9 5332.78,-9102.9 5338.78,-9102.9 5338.78,-9102.9 5430.78,-9102.9 5430.78,-9102.9 5436.78,-9102.9 5442.78,-9108.9 5442.78,-9114.9 5442.78,-9114.9 5442.78,-9128.9 5442.78,-9128.9 5442.78,-9134.9 5436.78,-9140.9 5430.78,-9140.9"/>
<text text-anchor="middle" x="5384.78" y="-9125.7" font-family="Times,serif" font-size="14.00">m_GameObject</text>
<text text-anchor="middle" x="5384.78" y="-9110.7" font-family="Times,serif" font-size="14.00">fileID: 530533593</text>
</g>
<!-- 61 -->
<g id="node14" class="node">
<title>61</title>
<path fill="lightpink" stroke="lightpink" d="M5244.4,-6878.59C5244.4,-6878.59 4783.4,-6878.59 4783.4,-6878.59 4777.4,-6878.59 4771.4,-6872.59 4771.4,-6866.59 4771.4,-6866.59 4771.4,-6852.59 4771.4,-6852.59 4771.4,-6846.59 4777.4,-6840.59 4783.4,-6840.59 4783.4,-6840.59 5244.4,-6840.59 5244.4,-6840.59 5250.4,-6840.59 5256.4,-6846.59 5256.4,-6852.59 5256.4,-6852.59 5256.4,-6866.59 5256.4,-6866.59 5256.4,-6872.59 5250.4,-6878.59 5244.4,-6878.59"/>
<text text-anchor="middle" x="5013.9" y="-6863.39" font-family="Times,serif" font-size="14.00">MonoBehaviour_114_ID530533595</text>
<text text-anchor="middle" x="5013.9" y="-6848.39" font-family="Times,serif" font-size="14.00">m_Script: {&#39;guid&#39;: &#39;4e29b1a8efbd4b44bb3f3716e73f07ff&#39;, &#39;type&#39;: 3, &#39;fileID&#39;: 11500000}</text>
</g>
<!-- 61&#45;&gt;68 -->
<g id="edge7" class="edge">
<title>61&#45;&gt;68</title>
<path fill="none" stroke="black" d="M5017.05,-6878.81C5050.46,-7082.62 5339.2,-8843.85 5380,-9092.71"/>
<polygon fill="black" stroke="black" points="5376.58,-9093.5 5381.65,-9102.8 5383.49,-9092.36 5376.58,-9093.5"/>
</g>
<!-- 76 -->
<g id="node15" class="node">
<title>76</title>
<path fill="yellowgreen" stroke="yellowgreen" d="M4440.78,-9194.58C4440.78,-9194.58 4348.78,-9194.58 4348.78,-9194.58 4342.78,-9194.58 4336.78,-9188.58 4336.78,-9182.58 4336.78,-9182.58 4336.78,-9168.58 4336.78,-9168.58 4336.78,-9162.58 4342.78,-9156.58 4348.78,-9156.58 4348.78,-9156.58 4440.78,-9156.58 4440.78,-9156.58 4446.78,-9156.58 4452.78,-9162.58 4452.78,-9168.58 4452.78,-9168.58 4452.78,-9182.58 4452.78,-9182.58 4452.78,-9188.58 4446.78,-9194.58 4440.78,-9194.58"/>
<text text-anchor="middle" x="4394.78" y="-9179.38" font-family="Times,serif" font-size="14.00">m_GameObject</text>
<text text-anchor="middle" x="4394.78" y="-9164.38" font-family="Times,serif" font-size="14.00">fileID: 361157713</text>
</g>
<!-- 73 -->
<g id="node16" class="node">
<title>73</title>
<path fill="lightpink" stroke="lightpink" d="M4751.4,-6905.43C4751.4,-6905.43 4286.4,-6905.43 4286.4,-6905.43 4280.4,-6905.43 4274.4,-6899.43 4274.4,-6893.43 4274.4,-6893.43 4274.4,-6879.43 4274.4,-6879.43 4274.4,-6873.43 4280.4,-6867.43 4286.4,-6867.43 4286.4,-6867.43 4751.4,-6867.43 4751.4,-6867.43 4757.4,-6867.43 4763.4,-6873.43 4763.4,-6879.43 4763.4,-6879.43 4763.4,-6893.43 4763.4,-6893.43 4763.4,-6899.43 4757.4,-6905.43 4751.4,-6905.43"/>
<text text-anchor="middle" x="4518.9" y="-6890.23" font-family="Times,serif" font-size="14.00">MonoBehaviour_114_ID361157715</text>
<text text-anchor="middle" x="4518.9" y="-6875.23" font-family="Times,serif" font-size="14.00">m_Script: {&#39;guid&#39;: &#39;76c392e42b5098c458856cdf6ecaaaa1&#39;, &#39;type&#39;: 3, &#39;fileID&#39;: 11500000}</text>
</g>
<!-- 73&#45;&gt;76 -->
<g id="edge8" class="edge">
<title>73&#45;&gt;76</title>
<path fill="none" stroke="black" d="M4517.86,-6905.53C4506.77,-7110.22 4409.95,-8895.8 4396.37,-9146.4"/>
<polygon fill="black" stroke="black" points="4392.86,-9146.38 4395.82,-9156.55 4399.85,-9146.76 4392.86,-9146.38"/>
</g>
<!-- 84 -->
<g id="node17" class="node">
<title>84</title>
<path fill="yellowgreen" stroke="yellowgreen" d="M3462.39,-9034.18C3462.39,-9034.18 3370.39,-9034.18 3370.39,-9034.18 3364.39,-9034.18 3358.39,-9028.18 3358.39,-9022.18 3358.39,-9022.18 3358.39,-9008.18 3358.39,-9008.18 3358.39,-9002.18 3364.39,-8996.18 3370.39,-8996.18 3370.39,-8996.18 3462.39,-8996.18 3462.39,-8996.18 3468.39,-8996.18 3474.39,-9002.18 3474.39,-9008.18 3474.39,-9008.18 3474.39,-9022.18 3474.39,-9022.18 3474.39,-9028.18 3468.39,-9034.18 3462.39,-9034.18"/>
<text text-anchor="middle" x="3416.39" y="-9018.98" font-family="Times,serif" font-size="14.00">m_GameObject</text>
<text text-anchor="middle" x="3416.39" y="-9003.98" font-family="Times,serif" font-size="14.00">fileID: 361157713</text>
</g>
<!-- 80 -->
<g id="node18" class="node">
<title>80</title>
<path fill="lightpink" stroke="lightpink" d="M4262.7,-6825.23C4262.7,-6825.23 3796.7,-6825.23 3796.7,-6825.23 3790.7,-6825.23 3784.7,-6819.23 3784.7,-6813.23 3784.7,-6813.23 3784.7,-6799.23 3784.7,-6799.23 3784.7,-6793.23 3790.7,-6787.23 3796.7,-6787.23 3796.7,-6787.23 4262.7,-6787.23 4262.7,-6787.23 4268.7,-6787.23 4274.7,-6793.23 4274.7,-6799.23 4274.7,-6799.23 4274.7,-6813.23 4274.7,-6813.23 4274.7,-6819.23 4268.7,-6825.23 4262.7,-6825.23"/>
<text text-anchor="middle" x="4029.7" y="-6810.03" font-family="Times,serif" font-size="14.00">MonoBehaviour_114_ID361157714</text>
<text text-anchor="middle" x="4029.7" y="-6795.03" font-family="Times,serif" font-size="14.00">m_Script: {&#39;guid&#39;: &#39;4f231c4fb786f3946a6b90b886c48677&#39;, &#39;type&#39;: 3, &#39;fileID&#39;: 11500000}</text>
</g>
<!-- 80&#45;&gt;84 -->
<g id="edge9" class="edge">
<title>80&#45;&gt;84</title>
<path fill="none" stroke="black" d="M4024.4,-6825.33C3968.77,-7025.71 3492.68,-8740.4 3424.51,-8985.95"/>
<polygon fill="black" stroke="black" points="3421.04,-8985.34 3421.74,-8995.92 3427.79,-8987.22 3421.04,-8985.34"/>
</g>
<!-- 93 -->
<g id="node19" class="node">
<title>93</title>
<path fill="yellowgreen" stroke="yellowgreen" d="M2541.35,-8667.2C2541.35,-8667.2 2449.35,-8667.2 2449.35,-8667.2 2443.35,-8667.2 2437.35,-8661.2 2437.35,-8655.2 2437.35,-8655.2 2437.35,-8641.2 2437.35,-8641.2 2437.35,-8635.2 2443.35,-8629.2 2449.35,-8629.2 2449.35,-8629.2 2541.35,-8629.2 2541.35,-8629.2 2547.35,-8629.2 2553.35,-8635.2 2553.35,-8641.2 2553.35,-8641.2 2553.35,-8655.2 2553.35,-8655.2 2553.35,-8661.2 2547.35,-8667.2 2541.35,-8667.2"/>
<text text-anchor="middle" x="2495.35" y="-8652" font-family="Times,serif" font-size="14.00">m_GameObject</text>
<text text-anchor="middle" x="2495.35" y="-8637" font-family="Times,serif" font-size="14.00">fileID: 808250884</text>
</g>
<!-- 86 -->
<g id="node20" class="node">
<title>86</title>
<path fill="lightpink" stroke="lightpink" d="M3799.68,-6641.74C3799.68,-6641.74 3338.68,-6641.74 3338.68,-6641.74 3332.68,-6641.74 3326.68,-6635.74 3326.68,-6629.74 3326.68,-6629.74 3326.68,-6615.74 3326.68,-6615.74 3326.68,-6609.74 3332.68,-6603.74 3338.68,-6603.74 3338.68,-6603.74 3799.68,-6603.74 3799.68,-6603.74 3805.68,-6603.74 3811.68,-6609.74 3811.68,-6615.74 3811.68,-6615.74 3811.68,-6629.74 3811.68,-6629.74 3811.68,-6635.74 3805.68,-6641.74 3799.68,-6641.74"/>
<text text-anchor="middle" x="3569.18" y="-6626.54" font-family="Times,serif" font-size="14.00">MonoBehaviour_114_ID808250886</text>
<text text-anchor="middle" x="3569.18" y="-6611.54" font-family="Times,serif" font-size="14.00">m_Script: {&#39;guid&#39;: &#39;5f7201a12d95ffc409449d95f23cf332&#39;, &#39;type&#39;: 3, &#39;fileID&#39;: 11500000}</text>
</g>
<!-- 86&#45;&gt;93 -->
<g id="edge10" class="edge">
<title>86&#45;&gt;93</title>
<path fill="none" stroke="black" d="M3559.07,-6641.82C3458.05,-6832.36 2631.74,-8390.95 2510.25,-8620.11"/>
<polygon fill="black" stroke="black" points="2507.05,-8618.68 2505.45,-8629.15 2513.23,-8621.96 2507.05,-8618.68"/>
</g>
<!-- 103 -->
<g id="node21" class="node">
<title>103</title>
<path fill="yellowgreen" stroke="yellowgreen" d="M1724.24,-8110.81C1724.24,-8110.81 1625.24,-8110.81 1625.24,-8110.81 1619.24,-8110.81 1613.24,-8104.81 1613.24,-8098.81 1613.24,-8098.81 1613.24,-8084.81 1613.24,-8084.81 1613.24,-8078.81 1619.24,-8072.81 1625.24,-8072.81 1625.24,-8072.81 1724.24,-8072.81 1724.24,-8072.81 1730.24,-8072.81 1736.24,-8078.81 1736.24,-8084.81 1736.24,-8084.81 1736.24,-8098.81 1736.24,-8098.81 1736.24,-8104.81 1730.24,-8110.81 1724.24,-8110.81"/>
<text text-anchor="middle" x="1674.74" y="-8095.61" font-family="Times,serif" font-size="14.00">m_GameObject</text>
<text text-anchor="middle" x="1674.74" y="-8080.61" font-family="Times,serif" font-size="14.00">fileID: 1747895406</text>
</g>
<!-- 96 -->
<g id="node22" class="node">
<title>96</title>
<path fill="lightpink" stroke="lightpink" d="M3389.38,-6363.55C3389.38,-6363.55 2928.38,-6363.55 2928.38,-6363.55 2922.38,-6363.55 2916.38,-6357.55 2916.38,-6351.55 2916.38,-6351.55 2916.38,-6337.55 2916.38,-6337.55 2916.38,-6331.55 2922.38,-6325.55 2928.38,-6325.55 2928.38,-6325.55 3389.38,-6325.55 3389.38,-6325.55 3395.38,-6325.55 3401.38,-6331.55 3401.38,-6337.55 3401.38,-6337.55 3401.38,-6351.55 3401.38,-6351.55 3401.38,-6357.55 3395.38,-6363.55 3389.38,-6363.55"/>
<text text-anchor="middle" x="3158.88" y="-6348.35" font-family="Times,serif" font-size="14.00">MonoBehaviour_114_ID1747895408</text>
<text text-anchor="middle" x="3158.88" y="-6333.35" font-family="Times,serif" font-size="14.00">m_Script: {&#39;guid&#39;: &#39;5f7201a12d95ffc409449d95f23cf332&#39;, &#39;type&#39;: 3, &#39;fileID&#39;: 11500000}</text>
</g>
<!-- 96&#45;&gt;103 -->
<g id="edge11" class="edge">
<title>96&#45;&gt;103</title>
<path fill="none" stroke="black" d="M3142.71,-6363.58C2994.46,-6538.12 1872.24,-7859.29 1697.56,-8064.94"/>
<polygon fill="black" stroke="black" points="1694.88,-8062.69 1691.07,-8072.58 1700.22,-8067.22 1694.88,-8062.69"/>
</g>
<!-- 109 -->
<g id="node23" class="node">
<title>109</title>
<path fill="yellowgreen" stroke="yellowgreen" d="M1042.42,-7391.02C1042.42,-7391.02 943.42,-7391.02 943.42,-7391.02 937.42,-7391.02 931.42,-7385.02 931.42,-7379.02 931.42,-7379.02 931.42,-7365.02 931.42,-7365.02 931.42,-7359.02 937.42,-7353.02 943.42,-7353.02 943.42,-7353.02 1042.42,-7353.02 1042.42,-7353.02 1048.42,-7353.02 1054.42,-7359.02 1054.42,-7365.02 1054.42,-7365.02 1054.42,-7379.02 1054.42,-7379.02 1054.42,-7385.02 1048.42,-7391.02 1042.42,-7391.02"/>
<text text-anchor="middle" x="992.92" y="-7375.82" font-family="Times,serif" font-size="14.00">m_GameObject</text>
<text text-anchor="middle" x="992.92" y="-7360.82" font-family="Times,serif" font-size="14.00">fileID: 2009980923</text>
</g>
<!-- 106 -->
<g id="node24" class="node">
<title>106</title>
<path fill="lightpink" stroke="lightpink" d="M3050.96,-6003.65C3050.96,-6003.65 2584.96,-6003.65 2584.96,-6003.65 2578.96,-6003.65 2572.96,-5997.65 2572.96,-5991.65 2572.96,-5991.65 2572.96,-5977.65 2572.96,-5977.65 2572.96,-5971.65 2578.96,-5965.65 2584.96,-5965.65 2584.96,-5965.65 3050.96,-5965.65 3050.96,-5965.65 3056.96,-5965.65 3062.96,-5971.65 3062.96,-5977.65 3062.96,-5977.65 3062.96,-5991.65 3062.96,-5991.65 3062.96,-5997.65 3056.96,-6003.65 3050.96,-6003.65"/>
<text text-anchor="middle" x="2817.96" y="-5988.45" font-family="Times,serif" font-size="14.00">MonoBehaviour_114_ID2009980924</text>
<text text-anchor="middle" x="2817.96" y="-5973.45" font-family="Times,serif" font-size="14.00">m_Script: {&#39;guid&#39;: &#39;dc42784cf147c0c48a680349fa168899&#39;, &#39;type&#39;: 3, &#39;fileID&#39;: 11500000}</text>
</g>
<!-- 106&#45;&gt;109 -->
<g id="edge12" class="edge">
<title>106&#45;&gt;109</title>
<path fill="none" stroke="black" d="M2792.86,-6003.74C2592.51,-6156.04 1254.74,-7172.99 1026.12,-7346.78"/>
<polygon fill="black" stroke="black" points="1024,-7343.99 1018.16,-7352.83 1028.24,-7349.57 1024,-7343.99"/>
</g>
<!-- 118 -->
<g id="node25" class="node">
<title>118</title>
<path fill="yellowgreen" stroke="yellowgreen" d="M521.77,-6541.48C521.77,-6541.48 441.77,-6541.48 441.77,-6541.48 435.77,-6541.48 429.77,-6535.48 429.77,-6529.48 429.77,-6529.48 429.77,-6515.48 429.77,-6515.48 429.77,-6509.48 435.77,-6503.48 441.77,-6503.48 441.77,-6503.48 521.77,-6503.48 521.77,-6503.48 527.77,-6503.48 533.77,-6509.48 533.77,-6515.48 533.77,-6515.48 533.77,-6529.48 533.77,-6529.48 533.77,-6535.48 527.77,-6541.48 521.77,-6541.48"/>
<text text-anchor="middle" x="481.77" y="-6526.28" font-family="Times,serif" font-size="14.00">m_GameObject</text>
<text text-anchor="middle" x="481.77" y="-6511.28" font-family="Times,serif" font-size="14.00">fileID: 5973995</text>
</g>
<!-- 113 -->
<g id="node26" class="node">
<title>113</title>
<path fill="lightpink" stroke="lightpink" d="M2793.89,-5578.89C2793.89,-5578.89 2330.89,-5578.89 2330.89,-5578.89 2324.89,-5578.89 2318.89,-5572.89 2318.89,-5566.89 2318.89,-5566.89 2318.89,-5552.89 2318.89,-5552.89 2318.89,-5546.89 2324.89,-5540.89 2330.89,-5540.89 2330.89,-5540.89 2793.89,-5540.89 2793.89,-5540.89 2799.89,-5540.89 2805.89,-5546.89 2805.89,-5552.89 2805.89,-5552.89 2805.89,-5566.89 2805.89,-5566.89 2805.89,-5572.89 2799.89,-5578.89 2793.89,-5578.89"/>
<text text-anchor="middle" x="2562.39" y="-5563.69" font-family="Times,serif" font-size="14.00">MonoBehaviour_114_ID5973997</text>
<text text-anchor="middle" x="2562.39" y="-5548.69" font-family="Times,serif" font-size="14.00">m_Script: {&#39;guid&#39;: &#39;59f8146938fff824cb5fd77236b75775&#39;, &#39;type&#39;: 3, &#39;fileID&#39;: 11500000}</text>
</g>
<!-- 113&#45;&gt;118 -->
<g id="edge13" class="edge">
<title>113&#45;&gt;118</title>
<path fill="none" stroke="black" d="M2521.3,-5578.9C2259.07,-5700.22 821.59,-6365.27 532.45,-6499.04"/>
<polygon fill="black" stroke="black" points="530.65,-6496.01 523.04,-6503.39 533.59,-6502.37 530.65,-6496.01"/>
</g>
<!-- 127 -->
<g id="node27" class="node">
<title>127</title>
<path fill="yellowgreen" stroke="yellowgreen" d="M211.2,-5601.93C211.2,-5601.93 119.2,-5601.93 119.2,-5601.93 113.2,-5601.93 107.2,-5595.93 107.2,-5589.93 107.2,-5589.93 107.2,-5575.93 107.2,-5575.93 107.2,-5569.93 113.2,-5563.93 119.2,-5563.93 119.2,-5563.93 211.2,-5563.93 211.2,-5563.93 217.2,-5563.93 223.2,-5569.93 223.2,-5575.93 223.2,-5575.93 223.2,-5589.93 223.2,-5589.93 223.2,-5595.93 217.2,-5601.93 211.2,-5601.93"/>
<text text-anchor="middle" x="165.2" y="-5586.73" font-family="Times,serif" font-size="14.00">m_GameObject</text>
<text text-anchor="middle" x="165.2" y="-5571.73" font-family="Times,serif" font-size="14.00">fileID: 132945516</text>
</g>
<!-- 120 -->
<g id="node28" class="node">
<title>120</title>
<path fill="lightpink" stroke="lightpink" d="M2634.6,-5109.11C2634.6,-5109.11 2173.6,-5109.11 2173.6,-5109.11 2167.6,-5109.11 2161.6,-5103.11 2161.6,-5097.11 2161.6,-5097.11 2161.6,-5083.11 2161.6,-5083.11 2161.6,-5077.11 2167.6,-5071.11 2173.6,-5071.11 2173.6,-5071.11 2634.6,-5071.11 2634.6,-5071.11 2640.6,-5071.11 2646.6,-5077.11 2646.6,-5083.11 2646.6,-5083.11 2646.6,-5097.11 2646.6,-5097.11 2646.6,-5103.11 2640.6,-5109.11 2634.6,-5109.11"/>
<text text-anchor="middle" x="2404.1" y="-5093.91" font-family="Times,serif" font-size="14.00">MonoBehaviour_114_ID132945518</text>
<text text-anchor="middle" x="2404.1" y="-5078.91" font-family="Times,serif" font-size="14.00">m_Script: {&#39;guid&#39;: &#39;5f7201a12d95ffc409449d95f23cf332&#39;, &#39;type&#39;: 3, &#39;fileID&#39;: 11500000}</text>
</g>
<!-- 120&#45;&gt;127 -->
<g id="edge14" class="edge">
<title>120&#45;&gt;127</title>
<path fill="none" stroke="black" d="M2317.71,-5109.13C1955.09,-5188.94 559.79,-5496.07 233.65,-5567.86"/>
<polygon fill="black" stroke="black" points="232.42,-5564.55 223.41,-5570.12 233.93,-5571.38 232.42,-5564.55"/>
</g>
<!-- 137 -->
<g id="node29" class="node">
<title>137</title>
<path fill="yellowgreen" stroke="yellowgreen" d="M104,-4616.29C104,-4616.29 12,-4616.29 12,-4616.29 6,-4616.29 0,-4610.29 0,-4604.29 0,-4604.29 0,-4590.29 0,-4590.29 0,-4584.29 6,-4578.29 12,-4578.29 12,-4578.29 104,-4578.29 104,-4578.29 110,-4578.29 116,-4584.29 116,-4590.29 116,-4590.29 116,-4604.29 116,-4604.29 116,-4610.29 110,-4616.29 104,-4616.29"/>
<text text-anchor="middle" x="58" y="-4601.09" font-family="Times,serif" font-size="14.00">m_GameObject</text>
<text text-anchor="middle" x="58" y="-4586.09" font-family="Times,serif" font-size="14.00">fileID: 130449831</text>
</g>
<!-- 130 -->
<g id="node30" class="node">
<title>130</title>
<path fill="lightpink" stroke="lightpink" d="M2581.01,-4616.29C2581.01,-4616.29 2120.01,-4616.29 2120.01,-4616.29 2114.01,-4616.29 2108.01,-4610.29 2108.01,-4604.29 2108.01,-4604.29 2108.01,-4590.29 2108.01,-4590.29 2108.01,-4584.29 2114.01,-4578.29 2120.01,-4578.29 2120.01,-4578.29 2581.01,-4578.29 2581.01,-4578.29 2587.01,-4578.29 2593.01,-4584.29 2593.01,-4590.29 2593.01,-4590.29 2593.01,-4604.29 2593.01,-4604.29 2593.01,-4610.29 2587.01,-4616.29 2581.01,-4616.29"/>
<text text-anchor="middle" x="2350.51" y="-4601.09" font-family="Times,serif" font-size="14.00">MonoBehaviour_114_ID130449834</text>
<text text-anchor="middle" x="2350.51" y="-4586.09" font-family="Times,serif" font-size="14.00">m_Script: {&#39;guid&#39;: &#39;fe87c0e1cc204ed48ad3b37840f39efc&#39;, &#39;type&#39;: 3, &#39;fileID&#39;: 11500000}</text>
</g>
<!-- 130&#45;&gt;137 -->
<g id="edge15" class="edge">
<title>130&#45;&gt;137</title>
<path fill="none" stroke="black" d="M2107.88,-4597.29C1594.57,-4597.29 421.5,-4597.29 126.37,-4597.29"/>
<polygon fill="black" stroke="black" points="126.24,-4593.79 116.24,-4597.29 126.24,-4600.79 126.24,-4593.79"/>
</g>
<!-- 147 -->
<g id="node31" class="node">
<title>147</title>
<path fill="yellowgreen" stroke="yellowgreen" d="M214.7,-3630.65C214.7,-3630.65 115.7,-3630.65 115.7,-3630.65 109.7,-3630.65 103.7,-3624.65 103.7,-3618.65 103.7,-3618.65 103.7,-3604.65 103.7,-3604.65 103.7,-3598.65 109.7,-3592.65 115.7,-3592.65 115.7,-3592.65 214.7,-3592.65 214.7,-3592.65 220.7,-3592.65 226.7,-3598.65 226.7,-3604.65 226.7,-3604.65 226.7,-3618.65 226.7,-3618.65 226.7,-3624.65 220.7,-3630.65 214.7,-3630.65"/>
<text text-anchor="middle" x="165.2" y="-3615.45" font-family="Times,serif" font-size="14.00">m_GameObject</text>
<text text-anchor="middle" x="165.2" y="-3600.45" font-family="Times,serif" font-size="14.00">fileID: 1651329295</text>
</g>
<!-- 140 -->
<g id="node32" class="node">
<title>140</title>
<path fill="lightpink" stroke="lightpink" d="M2634.6,-4123.47C2634.6,-4123.47 2173.6,-4123.47 2173.6,-4123.47 2167.6,-4123.47 2161.6,-4117.47 2161.6,-4111.47 2161.6,-4111.47 2161.6,-4097.47 2161.6,-4097.47 2161.6,-4091.47 2167.6,-4085.47 2173.6,-4085.47 2173.6,-4085.47 2634.6,-4085.47 2634.6,-4085.47 2640.6,-4085.47 2646.6,-4091.47 2646.6,-4097.47 2646.6,-4097.47 2646.6,-4111.47 2646.6,-4111.47 2646.6,-4117.47 2640.6,-4123.47 2634.6,-4123.47"/>
<text text-anchor="middle" x="2404.1" y="-4108.27" font-family="Times,serif" font-size="14.00">MonoBehaviour_114_ID1651329297</text>
<text text-anchor="middle" x="2404.1" y="-4093.27" font-family="Times,serif" font-size="14.00">m_Script: {&#39;guid&#39;: &#39;5f7201a12d95ffc409449d95f23cf332&#39;, &#39;type&#39;: 3, &#39;fileID&#39;: 11500000}</text>
</g>
<!-- 140&#45;&gt;147 -->
<g id="edge16" class="edge">
<title>140&#45;&gt;147</title>
<path fill="none" stroke="black" d="M2317.71,-4085.45C1956.2,-4005.88 568.35,-3700.39 236.69,-3627.38"/>
<polygon fill="black" stroke="black" points="237.24,-3623.92 226.72,-3625.19 235.74,-3630.76 237.24,-3623.92"/>
</g>
<!-- 157 -->
<g id="node33" class="node">
<title>157</title>
<path fill="yellowgreen" stroke="yellowgreen" d="M527.77,-2691.09C527.77,-2691.09 435.77,-2691.09 435.77,-2691.09 429.77,-2691.09 423.77,-2685.09 423.77,-2679.09 423.77,-2679.09 423.77,-2665.09 423.77,-2665.09 423.77,-2659.09 429.77,-2653.09 435.77,-2653.09 435.77,-2653.09 527.77,-2653.09 527.77,-2653.09 533.77,-2653.09 539.77,-2659.09 539.77,-2665.09 539.77,-2665.09 539.77,-2679.09 539.77,-2679.09 539.77,-2685.09 533.77,-2691.09 527.77,-2691.09"/>
<text text-anchor="middle" x="481.77" y="-2675.89" font-family="Times,serif" font-size="14.00">m_GameObject</text>
<text text-anchor="middle" x="481.77" y="-2660.89" font-family="Times,serif" font-size="14.00">fileID: 960558223</text>
</g>
<!-- 150 -->
<g id="node34" class="node">
<title>150</title>
<path fill="lightpink" stroke="lightpink" d="M2792.89,-3653.69C2792.89,-3653.69 2331.89,-3653.69 2331.89,-3653.69 2325.89,-3653.69 2319.89,-3647.69 2319.89,-3641.69 2319.89,-3641.69 2319.89,-3627.69 2319.89,-3627.69 2319.89,-3621.69 2325.89,-3615.69 2331.89,-3615.69 2331.89,-3615.69 2792.89,-3615.69 2792.89,-3615.69 2798.89,-3615.69 2804.89,-3621.69 2804.89,-3627.69 2804.89,-3627.69 2804.89,-3641.69 2804.89,-3641.69 2804.89,-3647.69 2798.89,-3653.69 2792.89,-3653.69"/>
<text text-anchor="middle" x="2562.39" y="-3638.49" font-family="Times,serif" font-size="14.00">MonoBehaviour_114_ID960558225</text>
<text text-anchor="middle" x="2562.39" y="-3623.49" font-family="Times,serif" font-size="14.00">m_Script: {&#39;guid&#39;: &#39;5f7201a12d95ffc409449d95f23cf332&#39;, &#39;type&#39;: 3, &#39;fileID&#39;: 11500000}</text>
</g>
<!-- 150&#45;&gt;157 -->
<g id="edge17" class="edge">
<title>150&#45;&gt;157</title>
<path fill="none" stroke="black" d="M2521.3,-3615.68C2259.07,-3494.36 821.59,-2829.31 532.45,-2695.54"/>
<polygon fill="black" stroke="black" points="533.59,-2692.21 523.04,-2691.19 530.65,-2698.56 533.59,-2692.21"/>
</g>
<!-- 167 -->
<g id="node35" class="node">
<title>167</title>
<path fill="yellowgreen" stroke="yellowgreen" d="M1042.42,-1841.56C1042.42,-1841.56 943.42,-1841.56 943.42,-1841.56 937.42,-1841.56 931.42,-1835.56 931.42,-1829.56 931.42,-1829.56 931.42,-1815.56 931.42,-1815.56 931.42,-1809.56 937.42,-1803.56 943.42,-1803.56 943.42,-1803.56 1042.42,-1803.56 1042.42,-1803.56 1048.42,-1803.56 1054.42,-1809.56 1054.42,-1815.56 1054.42,-1815.56 1054.42,-1829.56 1054.42,-1829.56 1054.42,-1835.56 1048.42,-1841.56 1042.42,-1841.56"/>
<text text-anchor="middle" x="992.92" y="-1826.36" font-family="Times,serif" font-size="14.00">m_GameObject</text>
<text text-anchor="middle" x="992.92" y="-1811.36" font-family="Times,serif" font-size="14.00">fileID: 1908155155</text>
</g>
<!-- 160 -->
<g id="node36" class="node">
<title>160</title>
<path fill="lightpink" stroke="lightpink" d="M3048.46,-3228.92C3048.46,-3228.92 2587.46,-3228.92 2587.46,-3228.92 2581.46,-3228.92 2575.46,-3222.92 2575.46,-3216.92 2575.46,-3216.92 2575.46,-3202.92 2575.46,-3202.92 2575.46,-3196.92 2581.46,-3190.92 2587.46,-3190.92 2587.46,-3190.92 3048.46,-3190.92 3048.46,-3190.92 3054.46,-3190.92 3060.46,-3196.92 3060.46,-3202.92 3060.46,-3202.92 3060.46,-3216.92 3060.46,-3216.92 3060.46,-3222.92 3054.46,-3228.92 3048.46,-3228.92"/>
<text text-anchor="middle" x="2817.96" y="-3213.72" font-family="Times,serif" font-size="14.00">MonoBehaviour_114_ID1908155157</text>
<text text-anchor="middle" x="2817.96" y="-3198.72" font-family="Times,serif" font-size="14.00">m_Script: {&#39;guid&#39;: &#39;fe87c0e1cc204ed48ad3b37840f39efc&#39;, &#39;type&#39;: 3, &#39;fileID&#39;: 11500000}</text>
</g>
<!-- 160&#45;&gt;167 -->
<g id="edge18" class="edge">
<title>160&#45;&gt;167</title>
<path fill="none" stroke="black" d="M2792.86,-3190.84C2592.51,-3038.53 1254.74,-2021.59 1026.12,-1847.8"/>
<polygon fill="black" stroke="black" points="1028.24,-1845.01 1018.16,-1841.74 1024,-1850.58 1028.24,-1845.01"/>
</g>
<!-- 177 -->
<g id="node37" class="node">
<title>177</title>
<path fill="yellowgreen" stroke="yellowgreen" d="M1724.24,-1121.77C1724.24,-1121.77 1625.24,-1121.77 1625.24,-1121.77 1619.24,-1121.77 1613.24,-1115.77 1613.24,-1109.77 1613.24,-1109.77 1613.24,-1095.77 1613.24,-1095.77 1613.24,-1089.77 1619.24,-1083.77 1625.24,-1083.77 1625.24,-1083.77 1724.24,-1083.77 1724.24,-1083.77 1730.24,-1083.77 1736.24,-1089.77 1736.24,-1095.77 1736.24,-1095.77 1736.24,-1109.77 1736.24,-1109.77 1736.24,-1115.77 1730.24,-1121.77 1724.24,-1121.77"/>
<text text-anchor="middle" x="1674.74" y="-1106.57" font-family="Times,serif" font-size="14.00">m_GameObject</text>
<text text-anchor="middle" x="1674.74" y="-1091.57" font-family="Times,serif" font-size="14.00">fileID: 1525520955</text>
</g>
<!-- 170 -->
<g id="node38" class="node">
<title>170</title>
<path fill="lightpink" stroke="lightpink" d="M3389.38,-2869.03C3389.38,-2869.03 2928.38,-2869.03 2928.38,-2869.03 2922.38,-2869.03 2916.38,-2863.03 2916.38,-2857.03 2916.38,-2857.03 2916.38,-2843.03 2916.38,-2843.03 2916.38,-2837.03 2922.38,-2831.03 2928.38,-2831.03 2928.38,-2831.03 3389.38,-2831.03 3389.38,-2831.03 3395.38,-2831.03 3401.38,-2837.03 3401.38,-2843.03 3401.38,-2843.03 3401.38,-2857.03 3401.38,-2857.03 3401.38,-2863.03 3395.38,-2869.03 3389.38,-2869.03"/>
<text text-anchor="middle" x="3158.88" y="-2853.83" font-family="Times,serif" font-size="14.00">MonoBehaviour_114_ID1525520958</text>
<text text-anchor="middle" x="3158.88" y="-2838.83" font-family="Times,serif" font-size="14.00">m_Script: {&#39;guid&#39;: &#39;fe87c0e1cc204ed48ad3b37840f39efc&#39;, &#39;type&#39;: 3, &#39;fileID&#39;: 11500000}</text>
</g>
<!-- 170&#45;&gt;177 -->
<g id="edge19" class="edge">
<title>170&#45;&gt;177</title>
<path fill="none" stroke="black" d="M3142.71,-2831C2994.46,-2656.46 1872.24,-1335.29 1697.56,-1129.64"/>
<polygon fill="black" stroke="black" points="1700.22,-1127.35 1691.07,-1122 1694.88,-1131.89 1700.22,-1127.35"/>
</g>
<!-- 187 -->
<g id="node39" class="node">
<title>187</title>
<path fill="yellowgreen" stroke="yellowgreen" d="M2541.35,-565.37C2541.35,-565.37 2449.35,-565.37 2449.35,-565.37 2443.35,-565.37 2437.35,-559.37 2437.35,-553.37 2437.35,-553.37 2437.35,-539.37 2437.35,-539.37 2437.35,-533.37 2443.35,-527.37 2449.35,-527.37 2449.35,-527.37 2541.35,-527.37 2541.35,-527.37 2547.35,-527.37 2553.35,-533.37 2553.35,-539.37 2553.35,-539.37 2553.35,-553.37 2553.35,-553.37 2553.35,-559.37 2547.35,-565.37 2541.35,-565.37"/>
<text text-anchor="middle" x="2495.35" y="-550.17" font-family="Times,serif" font-size="14.00">m_GameObject</text>
<text text-anchor="middle" x="2495.35" y="-535.17" font-family="Times,serif" font-size="14.00">fileID: 265550441</text>
</g>
<!-- 180 -->
<g id="node40" class="node">
<title>180</title>
<path fill="lightpink" stroke="lightpink" d="M3799.68,-2590.83C3799.68,-2590.83 3338.68,-2590.83 3338.68,-2590.83 3332.68,-2590.83 3326.68,-2584.83 3326.68,-2578.83 3326.68,-2578.83 3326.68,-2564.83 3326.68,-2564.83 3326.68,-2558.83 3332.68,-2552.83 3338.68,-2552.83 3338.68,-2552.83 3799.68,-2552.83 3799.68,-2552.83 3805.68,-2552.83 3811.68,-2558.83 3811.68,-2564.83 3811.68,-2564.83 3811.68,-2578.83 3811.68,-2578.83 3811.68,-2584.83 3805.68,-2590.83 3799.68,-2590.83"/>
<text text-anchor="middle" x="3569.18" y="-2575.63" font-family="Times,serif" font-size="14.00">MonoBehaviour_114_ID265550443</text>
<text text-anchor="middle" x="3569.18" y="-2560.63" font-family="Times,serif" font-size="14.00">m_Script: {&#39;guid&#39;: &#39;5f7201a12d95ffc409449d95f23cf332&#39;, &#39;type&#39;: 3, &#39;fileID&#39;: 11500000}</text>
</g>
<!-- 180&#45;&gt;187 -->
<g id="edge20" class="edge">
<title>180&#45;&gt;187</title>
<path fill="none" stroke="black" d="M3559.07,-2552.75C3458.05,-2362.21 2631.74,-803.63 2510.25,-574.47"/>
<polygon fill="black" stroke="black" points="2513.23,-572.62 2505.45,-565.42 2507.05,-575.9 2513.23,-572.62"/>
</g>
<!-- 194 -->
<g id="node41" class="node">
<title>194</title>
<path fill="yellowgreen" stroke="yellowgreen" d="M3465.89,-198.4C3465.89,-198.4 3366.89,-198.4 3366.89,-198.4 3360.89,-198.4 3354.89,-192.4 3354.89,-186.4 3354.89,-186.4 3354.89,-172.4 3354.89,-172.4 3354.89,-166.4 3360.89,-160.4 3366.89,-160.4 3366.89,-160.4 3465.89,-160.4 3465.89,-160.4 3471.89,-160.4 3477.89,-166.4 3477.89,-172.4 3477.89,-172.4 3477.89,-186.4 3477.89,-186.4 3477.89,-192.4 3471.89,-198.4 3465.89,-198.4"/>
<text text-anchor="middle" x="3416.39" y="-183.2" font-family="Times,serif" font-size="14.00">m_GameObject</text>
<text text-anchor="middle" x="3416.39" y="-168.2" font-family="Times,serif" font-size="14.00">fileID: 2009980923</text>
</g>
<!-- 190 -->
<g id="node42" class="node">
<title>190</title>
<path fill="lightpink" stroke="lightpink" d="M4264.2,-2407.34C4264.2,-2407.34 3795.2,-2407.34 3795.2,-2407.34 3789.2,-2407.34 3783.2,-2401.34 3783.2,-2395.34 3783.2,-2395.34 3783.2,-2381.34 3783.2,-2381.34 3783.2,-2375.34 3789.2,-2369.34 3795.2,-2369.34 3795.2,-2369.34 4264.2,-2369.34 4264.2,-2369.34 4270.2,-2369.34 4276.2,-2375.34 4276.2,-2381.34 4276.2,-2381.34 4276.2,-2395.34 4276.2,-2395.34 4276.2,-2401.34 4270.2,-2407.34 4264.2,-2407.34"/>
<text text-anchor="middle" x="4029.7" y="-2392.14" font-family="Times,serif" font-size="14.00">MonoBehaviour_114_ID2009980925</text>
<text text-anchor="middle" x="4029.7" y="-2377.14" font-family="Times,serif" font-size="14.00">m_Script: {&#39;guid&#39;: &#39;0cd44c1031e13a943bb63640046fad76&#39;, &#39;type&#39;: 3, &#39;fileID&#39;: 11500000}</text>
</g>
<!-- 190&#45;&gt;194 -->
<g id="edge21" class="edge">
<title>190&#45;&gt;194</title>
<path fill="none" stroke="black" d="M4024.4,-2369.25C3968.77,-2168.87 3492.68,-454.17 3424.51,-208.63"/>
<polygon fill="black" stroke="black" points="3427.79,-207.36 3421.74,-198.66 3421.04,-209.23 3427.79,-207.36"/>
</g>
<!-- 204 -->
<g id="node43" class="node">
<title>204</title>
<path fill="yellowgreen" stroke="yellowgreen" d="M4440.78,-38C4440.78,-38 4348.78,-38 4348.78,-38 4342.78,-38 4336.78,-32 4336.78,-26 4336.78,-26 4336.78,-12 4336.78,-12 4336.78,-6 4342.78,0 4348.78,0 4348.78,0 4440.78,0 4440.78,0 4446.78,0 4452.78,-6 4452.78,-12 4452.78,-12 4452.78,-26 4452.78,-26 4452.78,-32 4446.78,-38 4440.78,-38"/>
<text text-anchor="middle" x="4394.78" y="-22.8" font-family="Times,serif" font-size="14.00">m_GameObject</text>
<text text-anchor="middle" x="4394.78" y="-7.8" font-family="Times,serif" font-size="14.00">fileID: 301893718</text>
</g>
<!-- 197 -->
<g id="node44" class="node">
<title>197</title>
<path fill="lightpink" stroke="lightpink" d="M4749.4,-2327.14C4749.4,-2327.14 4288.4,-2327.14 4288.4,-2327.14 4282.4,-2327.14 4276.4,-2321.14 4276.4,-2315.14 4276.4,-2315.14 4276.4,-2301.14 4276.4,-2301.14 4276.4,-2295.14 4282.4,-2289.14 4288.4,-2289.14 4288.4,-2289.14 4749.4,-2289.14 4749.4,-2289.14 4755.4,-2289.14 4761.4,-2295.14 4761.4,-2301.14 4761.4,-2301.14 4761.4,-2315.14 4761.4,-2315.14 4761.4,-2321.14 4755.4,-2327.14 4749.4,-2327.14"/>
<text text-anchor="middle" x="4518.9" y="-2311.94" font-family="Times,serif" font-size="14.00">MonoBehaviour_114_ID301893720</text>
<text text-anchor="middle" x="4518.9" y="-2296.94" font-family="Times,serif" font-size="14.00">m_Script: {&#39;guid&#39;: &#39;fe87c0e1cc204ed48ad3b37840f39efc&#39;, &#39;type&#39;: 3, &#39;fileID&#39;: 11500000}</text>
</g>
<!-- 197&#45;&gt;204 -->
<g id="edge22" class="edge">
<title>197&#45;&gt;204</title>
<path fill="none" stroke="black" d="M4517.86,-2289.04C4506.77,-2084.36 4409.95,-298.78 4396.37,-48.17"/>
<polygon fill="black" stroke="black" points="4399.85,-47.82 4395.82,-38.02 4392.86,-48.2 4399.85,-47.82"/>
</g>
<!-- 210 -->
<g id="node45" class="node">
<title>210</title>
<path fill="yellowgreen" stroke="yellowgreen" d="M5430.78,-91.68C5430.78,-91.68 5338.78,-91.68 5338.78,-91.68 5332.78,-91.68 5326.78,-85.68 5326.78,-79.68 5326.78,-79.68 5326.78,-65.68 5326.78,-65.68 5326.78,-59.68 5332.78,-53.68 5338.78,-53.68 5338.78,-53.68 5430.78,-53.68 5430.78,-53.68 5436.78,-53.68 5442.78,-59.68 5442.78,-65.68 5442.78,-65.68 5442.78,-79.68 5442.78,-79.68 5442.78,-85.68 5436.78,-91.68 5430.78,-91.68"/>
<text text-anchor="middle" x="5384.78" y="-76.48" font-family="Times,serif" font-size="14.00">m_GameObject</text>
<text text-anchor="middle" x="5384.78" y="-61.48" font-family="Times,serif" font-size="14.00">fileID: 130449831</text>
</g>
<!-- 207 -->
<g id="node46" class="node">
<title>207</title>
<path fill="lightpink" stroke="lightpink" d="M5244.9,-2353.98C5244.9,-2353.98 4782.9,-2353.98 4782.9,-2353.98 4776.9,-2353.98 4770.9,-2347.98 4770.9,-2341.98 4770.9,-2341.98 4770.9,-2327.98 4770.9,-2327.98 4770.9,-2321.98 4776.9,-2315.98 4782.9,-2315.98 4782.9,-2315.98 5244.9,-2315.98 5244.9,-2315.98 5250.9,-2315.98 5256.9,-2321.98 5256.9,-2327.98 5256.9,-2327.98 5256.9,-2341.98 5256.9,-2341.98 5256.9,-2347.98 5250.9,-2353.98 5244.9,-2353.98"/>
<text text-anchor="middle" x="5013.9" y="-2338.78" font-family="Times,serif" font-size="14.00">MonoBehaviour_114_ID130449833</text>
<text text-anchor="middle" x="5013.9" y="-2323.78" font-family="Times,serif" font-size="14.00">m_Script: {&#39;guid&#39;: &#39;cfbcc1c9cd748aa4eadf517d081ad03e&#39;, &#39;type&#39;: 3, &#39;fileID&#39;: 11500000}</text>
</g>
<!-- 207&#45;&gt;210 -->
<g id="edge23" class="edge">
<title>207&#45;&gt;210</title>
<path fill="none" stroke="black" d="M5017.05,-2315.77C5050.46,-2111.96 5339.2,-350.72 5380,-101.86"/>
<polygon fill="black" stroke="black" points="5383.49,-102.21 5381.65,-91.78 5376.58,-101.08 5383.49,-102.21"/>
</g>
<!-- 221 -->
<g id="node47" class="node">
<title>221</title>
<path fill="yellowgreen" stroke="yellowgreen" d="M6389.6,-356.92C6389.6,-356.92 6290.6,-356.92 6290.6,-356.92 6284.6,-356.92 6278.6,-350.92 6278.6,-344.92 6278.6,-344.92 6278.6,-330.92 6278.6,-330.92 6278.6,-324.92 6284.6,-318.92 6290.6,-318.92 6290.6,-318.92 6389.6,-318.92 6389.6,-318.92 6395.6,-318.92 6401.6,-324.92 6401.6,-330.92 6401.6,-330.92 6401.6,-344.92 6401.6,-344.92 6401.6,-350.92 6395.6,-356.92 6389.6,-356.92"/>
<text text-anchor="middle" x="6340.1" y="-341.72" font-family="Times,serif" font-size="14.00">m_GameObject</text>
<text text-anchor="middle" x="6340.1" y="-326.72" font-family="Times,serif" font-size="14.00">fileID: 1351522636</text>
</g>
<!-- 214 -->
<g id="node48" class="node">
<title>214</title>
<path fill="lightpink" stroke="lightpink" d="M5722.06,-2486.6C5722.06,-2486.6 5261.06,-2486.6 5261.06,-2486.6 5255.06,-2486.6 5249.06,-2480.6 5249.06,-2474.6 5249.06,-2474.6 5249.06,-2460.6 5249.06,-2460.6 5249.06,-2454.6 5255.06,-2448.6 5261.06,-2448.6 5261.06,-2448.6 5722.06,-2448.6 5722.06,-2448.6 5728.06,-2448.6 5734.06,-2454.6 5734.06,-2460.6 5734.06,-2460.6 5734.06,-2474.6 5734.06,-2474.6 5734.06,-2480.6 5728.06,-2486.6 5722.06,-2486.6"/>
<text text-anchor="middle" x="5491.56" y="-2471.4" font-family="Times,serif" font-size="14.00">MonoBehaviour_114_ID1351522639</text>
<text text-anchor="middle" x="5491.56" y="-2456.4" font-family="Times,serif" font-size="14.00">m_Script: {&#39;guid&#39;: &#39;fe87c0e1cc204ed48ad3b37840f39efc&#39;, &#39;type&#39;: 3, &#39;fileID&#39;: 11500000}</text>
</g>
<!-- 214&#45;&gt;221 -->
<g id="edge24" class="edge">
<title>214&#45;&gt;221</title>
<path fill="none" stroke="black" d="M5499.15,-2448.54C5577.29,-2252.42 6234.05,-604.09 6328.74,-366.43"/>
<polygon fill="black" stroke="black" points="6332.02,-367.65 6332.47,-357.07 6325.52,-365.06 6332.02,-367.65"/>
</g>
<!-- 231 -->
<g id="node49" class="node">
<title>231</title>
<path fill="yellowgreen" stroke="yellowgreen" d="M7265.56,-821.32C7265.56,-821.32 7166.56,-821.32 7166.56,-821.32 7160.56,-821.32 7154.56,-815.32 7154.56,-809.32 7154.56,-809.32 7154.56,-795.32 7154.56,-795.32 7154.56,-789.32 7160.56,-783.32 7166.56,-783.32 7166.56,-783.32 7265.56,-783.32 7265.56,-783.32 7271.56,-783.32 7277.56,-789.32 7277.56,-795.32 7277.56,-795.32 7277.56,-809.32 7277.56,-809.32 7277.56,-815.32 7271.56,-821.32 7265.56,-821.32"/>
<text text-anchor="middle" x="7216.06" y="-806.12" font-family="Times,serif" font-size="14.00">m_GameObject</text>
<text text-anchor="middle" x="7216.06" y="-791.12" font-family="Times,serif" font-size="14.00">fileID: 1351522636</text>
</g>
<!-- 224 -->
<g id="node50" class="node">
<title>224</title>
<path fill="lightpink" stroke="lightpink" d="M6160.04,-2718.81C6160.04,-2718.81 5699.04,-2718.81 5699.04,-2718.81 5693.04,-2718.81 5687.04,-2712.81 5687.04,-2706.81 5687.04,-2706.81 5687.04,-2692.81 5687.04,-2692.81 5687.04,-2686.81 5693.04,-2680.81 5699.04,-2680.81 5699.04,-2680.81 6160.04,-2680.81 6160.04,-2680.81 6166.04,-2680.81 6172.04,-2686.81 6172.04,-2692.81 6172.04,-2692.81 6172.04,-2706.81 6172.04,-2706.81 6172.04,-2712.81 6166.04,-2718.81 6160.04,-2718.81"/>
<text text-anchor="middle" x="5929.54" y="-2703.61" font-family="Times,serif" font-size="14.00">MonoBehaviour_114_ID1351522638</text>
<text text-anchor="middle" x="5929.54" y="-2688.61" font-family="Times,serif" font-size="14.00">m_Script: {&#39;guid&#39;: &#39;4e29b1a8efbd4b44bb3f3716e73f07ff&#39;, &#39;type&#39;: 3, &#39;fileID&#39;: 11500000}</text>
</g>
<!-- 224&#45;&gt;231 -->
<g id="edge25" class="edge">
<title>224&#45;&gt;231</title>
<path fill="none" stroke="black" d="M5942.48,-2680.72C6066.87,-2497.26 7049.16,-1048.48 7197.36,-829.9"/>
<polygon fill="black" stroke="black" points="7200.33,-831.77 7203.04,-821.53 7194.53,-827.84 7200.33,-831.77"/>
</g>
<!-- 243 -->
<g id="node51" class="node">
<title>243</title>
<path fill="yellowgreen" stroke="yellowgreen" d="M8021.21,-1463.18C8021.21,-1463.18 7922.21,-1463.18 7922.21,-1463.18 7916.21,-1463.18 7910.21,-1457.18 7910.21,-1451.18 7910.21,-1451.18 7910.21,-1437.18 7910.21,-1437.18 7910.21,-1431.18 7916.21,-1425.18 7922.21,-1425.18 7922.21,-1425.18 8021.21,-1425.18 8021.21,-1425.18 8027.21,-1425.18 8033.21,-1431.18 8033.21,-1437.18 8033.21,-1437.18 8033.21,-1451.18 8033.21,-1451.18 8033.21,-1457.18 8027.21,-1463.18 8021.21,-1463.18"/>
<text text-anchor="middle" x="7971.71" y="-1447.98" font-family="Times,serif" font-size="14.00">m_GameObject</text>
<text text-anchor="middle" x="7971.71" y="-1432.98" font-family="Times,serif" font-size="14.00">fileID: 1093729419</text>
</g>
<!-- 236 -->
<g id="node52" class="node">
<title>236</title>
<path fill="lightpink" stroke="lightpink" d="M6537.86,-3039.73C6537.86,-3039.73 6076.86,-3039.73 6076.86,-3039.73 6070.86,-3039.73 6064.86,-3033.73 6064.86,-3027.73 6064.86,-3027.73 6064.86,-3013.73 6064.86,-3013.73 6064.86,-3007.73 6070.86,-3001.73 6076.86,-3001.73 6076.86,-3001.73 6537.86,-3001.73 6537.86,-3001.73 6543.86,-3001.73 6549.86,-3007.73 6549.86,-3013.73 6549.86,-3013.73 6549.86,-3027.73 6549.86,-3027.73 6549.86,-3033.73 6543.86,-3039.73 6537.86,-3039.73"/>
<text text-anchor="middle" x="6307.36" y="-3024.53" font-family="Times,serif" font-size="14.00">MonoBehaviour_114_ID1093729421</text>
<text text-anchor="middle" x="6307.36" y="-3009.53" font-family="Times,serif" font-size="14.00">m_Script: {&#39;guid&#39;: &#39;5f7201a12d95ffc409449d95f23cf332&#39;, &#39;type&#39;: 3, &#39;fileID&#39;: 11500000}</text>
</g>
<!-- 236&#45;&gt;243 -->
<g id="edge26" class="edge">
<title>236&#45;&gt;243</title>
<path fill="none" stroke="black" d="M6327.51,-3001.65C6501.09,-2837.22 7742.64,-1661.17 7944.12,-1470.32"/>
<polygon fill="black" stroke="black" points="7946.78,-1472.62 7951.63,-1463.2 7941.96,-1467.53 7946.78,-1472.62"/>
</g>
<!-- 251 -->
<g id="node53" class="node">
<title>251</title>
<path fill="yellowgreen" stroke="yellowgreen" d="M8617.71,-2252.47C8617.71,-2252.47 8525.71,-2252.47 8525.71,-2252.47 8519.71,-2252.47 8513.71,-2246.47 8513.71,-2240.47 8513.71,-2240.47 8513.71,-2226.47 8513.71,-2226.47 8513.71,-2220.47 8519.71,-2214.47 8525.71,-2214.47 8525.71,-2214.47 8617.71,-2214.47 8617.71,-2214.47 8623.71,-2214.47 8629.71,-2220.47 8629.71,-2226.47 8629.71,-2226.47 8629.71,-2240.47 8629.71,-2240.47 8629.71,-2246.47 8623.71,-2252.47 8617.71,-2252.47"/>
<text text-anchor="middle" x="8571.71" y="-2237.27" font-family="Times,serif" font-size="14.00">m_GameObject</text>
<text text-anchor="middle" x="8571.71" y="-2222.27" font-family="Times,serif" font-size="14.00">fileID: 138731492</text>
</g>
<!-- 246 -->
<g id="node54" class="node">
<title>246</title>
<path fill="lightpink" stroke="lightpink" d="M6838.86,-3434.38C6838.86,-3434.38 6375.86,-3434.38 6375.86,-3434.38 6369.86,-3434.38 6363.86,-3428.38 6363.86,-3422.38 6363.86,-3422.38 6363.86,-3408.38 6363.86,-3408.38 6363.86,-3402.38 6369.86,-3396.38 6375.86,-3396.38 6375.86,-3396.38 6838.86,-3396.38 6838.86,-3396.38 6844.86,-3396.38 6850.86,-3402.38 6850.86,-3408.38 6850.86,-3408.38 6850.86,-3422.38 6850.86,-3422.38 6850.86,-3428.38 6844.86,-3434.38 6838.86,-3434.38"/>
<text text-anchor="middle" x="6607.36" y="-3419.18" font-family="Times,serif" font-size="14.00">MonoBehaviour_114_ID138731494</text>
<text text-anchor="middle" x="6607.36" y="-3404.18" font-family="Times,serif" font-size="14.00">m_Script: {&#39;guid&#39;: &#39;59f8146938fff824cb5fd77236b75775&#39;, &#39;type&#39;: 3, &#39;fileID&#39;: 11500000}</text>
</g>
<!-- 246&#45;&gt;251 -->
<g id="edge27" class="edge">
<title>246&#45;&gt;251</title>
<path fill="none" stroke="black" d="M6639.01,-3396.33C6868.35,-3258.34 8273.72,-2412.76 8531.21,-2257.84"/>
<polygon fill="black" stroke="black" points="8533.12,-2260.77 8539.88,-2252.62 8529.51,-2254.77 8533.12,-2260.77"/>
</g>
<!-- 260 -->
<g id="node55" class="node">
<title>260</title>
<path fill="yellowgreen" stroke="yellowgreen" d="M9034.01,-3152.29C9034.01,-3152.29 8942.01,-3152.29 8942.01,-3152.29 8936.01,-3152.29 8930.01,-3146.29 8930.01,-3140.29 8930.01,-3140.29 8930.01,-3126.29 8930.01,-3126.29 8930.01,-3120.29 8936.01,-3114.29 8942.01,-3114.29 8942.01,-3114.29 9034.01,-3114.29 9034.01,-3114.29 9040.01,-3114.29 9046.01,-3120.29 9046.01,-3126.29 9046.01,-3126.29 9046.01,-3140.29 9046.01,-3140.29 9046.01,-3146.29 9040.01,-3152.29 9034.01,-3152.29"/>
<text text-anchor="middle" x="8988.01" y="-3137.09" font-family="Times,serif" font-size="14.00">m_GameObject</text>
<text text-anchor="middle" x="8988.01" y="-3122.09" font-family="Times,serif" font-size="14.00">fileID: 771856868</text>
</g>
<!-- 253 -->
<g id="node56" class="node">
<title>253</title>
<path fill="lightpink" stroke="lightpink" d="M7046.01,-3884.29C7046.01,-3884.29 6585.01,-3884.29 6585.01,-3884.29 6579.01,-3884.29 6573.01,-3878.29 6573.01,-3872.29 6573.01,-3872.29 6573.01,-3858.29 6573.01,-3858.29 6573.01,-3852.29 6579.01,-3846.29 6585.01,-3846.29 6585.01,-3846.29 7046.01,-3846.29 7046.01,-3846.29 7052.01,-3846.29 7058.01,-3852.29 7058.01,-3858.29 7058.01,-3858.29 7058.01,-3872.29 7058.01,-3872.29 7058.01,-3878.29 7052.01,-3884.29 7046.01,-3884.29"/>
<text text-anchor="middle" x="6815.51" y="-3869.09" font-family="Times,serif" font-size="14.00">MonoBehaviour_114_ID771856871</text>
<text text-anchor="middle" x="6815.51" y="-3854.09" font-family="Times,serif" font-size="14.00">m_Script: {&#39;guid&#39;: &#39;fe87c0e1cc204ed48ad3b37840f39efc&#39;, &#39;type&#39;: 3, &#39;fileID&#39;: 11500000}</text>
</g>
<!-- 253&#45;&gt;260 -->
<g id="edge28" class="edge">
<title>253&#45;&gt;260</title>
<path fill="none" stroke="black" d="M6871.95,-3846.27C7173.89,-3744.53 8596.84,-3265.09 8921.81,-3155.59"/>
<polygon fill="black" stroke="black" points="8923.2,-3158.82 8931.56,-3152.31 8920.96,-3152.18 8923.2,-3158.82"/>
</g>
<!-- 270 -->
<g id="node57" class="node">
<title>270</title>
<path fill="yellowgreen" stroke="yellowgreen" d="M9247.15,-4120.56C9247.15,-4120.56 9155.15,-4120.56 9155.15,-4120.56 9149.15,-4120.56 9143.15,-4114.56 9143.15,-4108.56 9143.15,-4108.56 9143.15,-4094.56 9143.15,-4094.56 9143.15,-4088.56 9149.15,-4082.56 9155.15,-4082.56 9155.15,-4082.56 9247.15,-4082.56 9247.15,-4082.56 9253.15,-4082.56 9259.15,-4088.56 9259.15,-4094.56 9259.15,-4094.56 9259.15,-4108.56 9259.15,-4108.56 9259.15,-4114.56 9253.15,-4120.56 9247.15,-4120.56"/>
<text text-anchor="middle" x="9201.15" y="-4105.36" font-family="Times,serif" font-size="14.00">m_GameObject</text>
<text text-anchor="middle" x="9201.15" y="-4090.36" font-family="Times,serif" font-size="14.00">fileID: 771856868</text>
</g>
<!-- 263 -->
<g id="node58" class="node">
<title>263</title>
<path fill="lightpink" stroke="lightpink" d="M7152.58,-4368.42C7152.58,-4368.42 6691.58,-4368.42 6691.58,-4368.42 6685.58,-4368.42 6679.58,-4362.42 6679.58,-4356.42 6679.58,-4356.42 6679.58,-4342.42 6679.58,-4342.42 6679.58,-4336.42 6685.58,-4330.42 6691.58,-4330.42 6691.58,-4330.42 7152.58,-4330.42 7152.58,-4330.42 7158.58,-4330.42 7164.58,-4336.42 7164.58,-4342.42 7164.58,-4342.42 7164.58,-4356.42 7164.58,-4356.42 7164.58,-4362.42 7158.58,-4368.42 7152.58,-4368.42"/>
<text text-anchor="middle" x="6922.08" y="-4353.22" font-family="Times,serif" font-size="14.00">MonoBehaviour_114_ID771856870</text>
<text text-anchor="middle" x="6922.08" y="-4338.22" font-family="Times,serif" font-size="14.00">m_Script: {&#39;guid&#39;: &#39;4e29b1a8efbd4b44bb3f3716e73f07ff&#39;, &#39;type&#39;: 3, &#39;fileID&#39;: 11500000}</text>
</g>
<!-- 263&#45;&gt;270 -->
<g id="edge29" class="edge">
<title>263&#45;&gt;270</title>
<path fill="none" stroke="black" d="M7097.13,-4330.39C7564.26,-4279.58 8825.66,-4142.4 9132.96,-4108.98"/>
<polygon fill="black" stroke="black" points="9133.49,-4112.44 9143.06,-4107.88 9132.74,-4105.48 9133.49,-4112.44"/>
</g>
<!-- 1 -->
<g id="node59" class="node">
<title>1</title>
<ellipse fill="red" stroke="red" cx="4643.01" cy="-4597.29" rx="27" ry="18"/>
</g>
<!-- 1&#45;&gt;2 -->
<g id="edge30" class="edge">
<title>1&#45;&gt;2</title>
<path fill="none" stroke="black" d="M4669.79,-4600.2C4877.48,-4622.79 6236.18,-4770.56 6737.06,-4825.03"/>
<polygon fill="black" stroke="black" points="6736.96,-4828.54 6747.28,-4826.14 6737.71,-4821.58 6736.96,-4828.54"/>
</g>
<!-- 1&#45;&gt;12 -->
<g id="edge31" class="edge">
<title>1&#45;&gt;12</title>
<path fill="none" stroke="black" d="M4667.41,-4605.51C4879.47,-4676.96 6410.33,-5192.77 6749.21,-5306.95"/>
<polygon fill="black" stroke="black" points="6748.29,-5310.33 6758.88,-5310.21 6750.53,-5303.7 6748.29,-5310.33"/>
</g>
<!-- 1&#45;&gt;19 -->
<g id="edge32" class="edge">
<title>1&#45;&gt;19</title>
<path fill="none" stroke="black" d="M4663.09,-4609.37C4851.27,-4722.59 6304.3,-5596.85 6566.79,-5754.79"/>
<polygon fill="black" stroke="black" points="6565.25,-5757.94 6575.62,-5760.1 6568.86,-5751.94 6565.25,-5757.94"/>
</g>
<!-- 1&#45;&gt;29 -->
<g id="edge33" class="edge">
<title>1&#45;&gt;29</title>
<path fill="none" stroke="black" d="M4658.69,-4612.14C4814.11,-4759.36 6077.17,-5955.8 6279.94,-6147.87"/>
<polygon fill="black" stroke="black" points="6277.56,-6150.44 6287.23,-6154.78 6282.38,-6145.36 6277.56,-6150.44"/>
</g>
<!-- 1&#45;&gt;41 -->
<g id="edge34" class="edge">
<title>1&#45;&gt;41</title>
<path fill="none" stroke="black" d="M4654.13,-4613.69C4770.41,-4785.18 5762.17,-6247.92 5910.9,-6467.28"/>
<polygon fill="black" stroke="black" points="5908.09,-6469.37 5916.6,-6475.68 5913.88,-6465.44 5908.09,-6469.37"/>
</g>
<!-- 1&#45;&gt;51 -->
<g id="edge35" class="edge">
<title>1&#45;&gt;51</title>
<path fill="none" stroke="black" d="M4649.97,-4614.74C4725.07,-4803.24 5384.97,-6459.47 5480.14,-6698.32"/>
<polygon fill="black" stroke="black" points="5476.94,-6699.73 5483.89,-6707.73 5483.44,-6697.14 5476.94,-6699.73"/>
</g>
<!-- 1&#45;&gt;61 -->
<g id="edge36" class="edge">
<title>1&#45;&gt;61</title>
<path fill="none" stroke="black" d="M4646,-4615.5C4678.61,-4814.41 4968.18,-6580.71 5009.1,-6830.32"/>
<polygon fill="black" stroke="black" points="5005.69,-6831.13 5010.76,-6840.43 5012.59,-6830 5005.69,-6831.13"/>
</g>
<!-- 1&#45;&gt;73 -->
<g id="edge37" class="edge">
<title>1&#45;&gt;73</title>
<path fill="none" stroke="black" d="M4642.03,-4615.38C4631.2,-4815.1 4534.11,-6605.82 4520.48,-6857.17"/>
<polygon fill="black" stroke="black" points="4516.98,-6857.18 4519.93,-6867.35 4523.97,-6857.55 4516.98,-6857.18"/>
</g>
<!-- 1&#45;&gt;80 -->
<g id="edge38" class="edge">
<title>1&#45;&gt;80</title>
<path fill="none" stroke="black" d="M4638.08,-4615.07C4584.18,-4809.19 4105.8,-6532.15 4037.74,-6777.27"/>
<polygon fill="black" stroke="black" points="4034.29,-6776.64 4034.98,-6787.21 4041.03,-6778.51 4034.29,-6776.64"/>
</g>
<!-- 1&#45;&gt;86 -->
<g id="edge39" class="edge">
<title>1&#45;&gt;86</title>
<path fill="none" stroke="black" d="M4633.89,-4614.49C4537.45,-4796.39 3706.39,-6363.95 3584.17,-6594.48"/>
<polygon fill="black" stroke="black" points="3580.94,-6593.1 3579.34,-6603.58 3587.12,-6596.38 3580.94,-6593.1"/>
</g>
<!-- 1&#45;&gt;96 -->
<g id="edge40" class="edge">
<title>1&#45;&gt;96</title>
<path fill="none" stroke="black" d="M4629.5,-4613.2C4492.56,-4774.41 3357.38,-6110.86 3181.68,-6317.7"/>
<polygon fill="black" stroke="black" points="3178.96,-6315.49 3175.16,-6325.38 3184.3,-6320.03 3178.96,-6315.49"/>
</g>
<!-- 1&#45;&gt;106 -->
<g id="edge41" class="edge">
<title>1&#45;&gt;106</title>
<path fill="none" stroke="black" d="M4624.95,-4611.02C4451.52,-4742.85 3082.72,-5783.39 2851.18,-5959.4"/>
<polygon fill="black" stroke="black" points="2848.96,-5956.69 2843.12,-5965.53 2853.2,-5962.26 2848.96,-5956.69"/>
</g>
<!-- 1&#45;&gt;113 -->
<g id="edge42" class="edge">
<title>1&#45;&gt;113</title>
<path fill="none" stroke="black" d="M4620.71,-4607.61C4418.98,-4700.94 2910.28,-5398.94 2613.12,-5536.42"/>
<polygon fill="black" stroke="black" points="2611.48,-5533.32 2603.87,-5540.69 2614.42,-5539.67 2611.48,-5533.32"/>
</g>
<!-- 1&#45;&gt;120 -->
<g id="edge43" class="edge">
<title>1&#45;&gt;120</title>
<path fill="none" stroke="black" d="M4617.09,-4602.99C4401.12,-4650.53 2898.5,-4981.28 2500.6,-5068.87"/>
<polygon fill="black" stroke="black" points="2499.58,-5065.51 2490.56,-5071.08 2501.08,-5072.35 2499.58,-5065.51"/>
</g>
<!-- 1&#45;&gt;130 -->
<g id="edge44" class="edge">
<title>1&#45;&gt;130</title>
<path fill="none" stroke="black" d="M4615.67,-4597.29C4414.08,-4597.29 3150.74,-4597.29 2603.15,-4597.29"/>
<polygon fill="black" stroke="black" points="2603.15,-4593.79 2593.15,-4597.29 2603.15,-4600.79 2603.15,-4593.79"/>
</g>
<!-- 1&#45;&gt;140 -->
<g id="edge45" class="edge">
<title>1&#45;&gt;140</title>
<path fill="none" stroke="black" d="M4617.09,-4591.58C4401.12,-4544.04 2898.5,-4213.29 2500.6,-4125.71"/>
<polygon fill="black" stroke="black" points="2501.08,-4122.23 2490.56,-4123.5 2499.58,-4129.07 2501.08,-4122.23"/>
</g>
<!-- 1&#45;&gt;150 -->
<g id="edge46" class="edge">
<title>1&#45;&gt;150</title>
<path fill="none" stroke="black" d="M4620.71,-4586.97C4418.98,-4493.64 2910.28,-3795.64 2613.12,-3658.16"/>
<polygon fill="black" stroke="black" points="2614.42,-3654.9 2603.87,-3653.88 2611.48,-3661.26 2614.42,-3654.9"/>
</g>
<!-- 1&#45;&gt;160 -->
<g id="edge47" class="edge">
<title>1&#45;&gt;160</title>
<path fill="none" stroke="black" d="M4624.95,-4583.56C4451.52,-4451.72 3082.72,-3411.19 2851.18,-3235.17"/>
<polygon fill="black" stroke="black" points="2853.2,-3232.31 2843.12,-3229.05 2848.96,-3237.88 2853.2,-3232.31"/>
</g>
<!-- 1&#45;&gt;170 -->
<g id="edge48" class="edge">
<title>1&#45;&gt;170</title>
<path fill="none" stroke="black" d="M4629.5,-4581.38C4492.56,-4420.16 3357.38,-3083.72 3181.68,-2876.87"/>
<polygon fill="black" stroke="black" points="3184.3,-2874.55 3175.16,-2869.19 3178.96,-2879.08 3184.3,-2874.55"/>
</g>
<!-- 1&#45;&gt;180 -->
<g id="edge49" class="edge">
<title>1&#45;&gt;180</title>
<path fill="none" stroke="black" d="M4633.89,-4580.08C4537.45,-4398.19 3706.39,-2830.63 3584.17,-2600.1"/>
<polygon fill="black" stroke="black" points="3587.12,-2598.19 3579.34,-2591 3580.94,-2601.47 3587.12,-2598.19"/>
</g>
<!-- 1&#45;&gt;190 -->
<g id="edge50" class="edge">
<title>1&#45;&gt;190</title>
<path fill="none" stroke="black" d="M4638.08,-4579.51C4584.18,-4385.39 4105.8,-2662.43 4037.74,-2417.31"/>
<polygon fill="black" stroke="black" points="4041.03,-2416.06 4034.98,-2407.37 4034.29,-2417.94 4041.03,-2416.06"/>
</g>
<!-- 1&#45;&gt;197 -->
<g id="edge51" class="edge">
<title>1&#45;&gt;197</title>
<path fill="none" stroke="black" d="M4642.03,-4579.2C4631.2,-4379.48 4534.11,-2588.76 4520.48,-2337.4"/>
<polygon fill="black" stroke="black" points="4523.97,-2337.02 4519.93,-2327.23 4516.98,-2337.4 4523.97,-2337.02"/>
</g>
<!-- 1&#45;&gt;207 -->
<g id="edge52" class="edge">
<title>1&#45;&gt;207</title>
<path fill="none" stroke="black" d="M4646,-4579.08C4678.61,-4380.17 4968.18,-2613.86 5009.1,-2364.26"/>
<polygon fill="black" stroke="black" points="5012.59,-2364.58 5010.76,-2354.14 5005.69,-2363.44 5012.59,-2364.58"/>
</g>
<!-- 1&#45;&gt;214 -->
<g id="edge53" class="edge">
<title>1&#45;&gt;214</title>
<path fill="none" stroke="black" d="M4649.97,-4579.83C4725.07,-4391.34 5384.97,-2735.11 5480.14,-2496.26"/>
<polygon fill="black" stroke="black" points="5483.44,-2497.43 5483.89,-2486.85 5476.94,-2494.84 5483.44,-2497.43"/>
</g>
<!-- 1&#45;&gt;224 -->
<g id="edge54" class="edge">
<title>1&#45;&gt;224</title>
<path fill="none" stroke="black" d="M4654.13,-4580.88C4770.41,-4409.39 5762.17,-2946.66 5910.9,-2727.29"/>
<polygon fill="black" stroke="black" points="5913.88,-2729.13 5916.6,-2718.89 5908.09,-2725.21 5913.88,-2729.13"/>
</g>
<!-- 1&#45;&gt;236 -->
<g id="edge55" class="edge">
<title>1&#45;&gt;236</title>
<path fill="none" stroke="black" d="M4658.69,-4582.44C4814.11,-4435.22 6077.17,-3238.78 6279.94,-3046.71"/>
<polygon fill="black" stroke="black" points="6282.38,-3049.22 6287.23,-3039.8 6277.56,-3044.14 6282.38,-3049.22"/>
</g>
<!-- 1&#45;&gt;246 -->
<g id="edge56" class="edge">
<title>1&#45;&gt;246</title>
<path fill="none" stroke="black" d="M4663.09,-4585.21C4851.27,-4471.98 6304.3,-3597.72 6566.79,-3439.79"/>
<polygon fill="black" stroke="black" points="6568.86,-3442.63 6575.62,-3434.48 6565.25,-3436.63 6568.86,-3442.63"/>
</g>
<!-- 1&#45;&gt;253 -->
<g id="edge57" class="edge">
<title>1&#45;&gt;253</title>
<path fill="none" stroke="black" d="M4667.41,-4589.07C4879.47,-4517.62 6410.33,-4001.81 6749.21,-3887.63"/>
<polygon fill="black" stroke="black" points="6750.53,-3890.88 6758.88,-3884.37 6748.29,-3884.24 6750.53,-3890.88"/>
</g>
<!-- 1&#45;&gt;263 -->
<g id="edge58" class="edge">
<title>1&#45;&gt;263</title>
<path fill="none" stroke="black" d="M4669.79,-4594.38C4877.48,-4571.79 6236.18,-4424.02 6737.06,-4369.55"/>
<polygon fill="black" stroke="black" points="6737.71,-4373 6747.28,-4368.44 6736.96,-4366.04 6737.71,-4373"/>
</g>
</g>
</svg>
