<?xml version="1.0" encoding="UTF-8" standalone="no"?>
<!DOCTYPE svg PUBLIC "-//W3C//DTD SVG 1.1//EN"
 "http://www.w3.org/Graphics/SVG/1.1/DTD/svg11.dtd">
<!-- Generated by graphviz version 2.46.0 (20210118.1747)
 -->
<!-- Title: graphname Pages: 1 -->
<svg width="750pt" height="1614pt"
 viewBox="0.00 0.00 750.00 1614.00" xmlns="http://www.w3.org/2000/svg" xmlns:xlink="http://www.w3.org/1999/xlink">
<g id="graph0" class="graph" transform="scale(1 1) rotate(0) translate(4 1610)">
<title>graphname</title>
<polygon fill="white" stroke="transparent" points="-4,4 -4,-1610 746,-1610 746,4 -4,4"/>
<!-- 9 -->
<g id="node1" class="node">
<title>9</title>
<path fill="yellowgreen" stroke="yellowgreen" d="M730,-1606C730,-1606 631,-1606 631,-1606 625,-1606 619,-1600 619,-1594 619,-1594 619,-1580 619,-1580 619,-1574 625,-1568 631,-1568 631,-1568 730,-1568 730,-1568 736,-1568 742,-1574 742,-1580 742,-1580 742,-1594 742,-1594 742,-1600 736,-1606 730,-1606"/>
<text text-anchor="middle" x="680.5" y="-1590.8" font-family="Times,serif" font-size="14.00">m_GameObject</text>
<text text-anchor="middle" x="680.5" y="-1575.8" font-family="Times,serif" font-size="14.00">fileID: 1040292123</text>
</g>
<!-- 2 -->
<g id="node2" class="node">
<title>2</title>
<path fill="lightpink" stroke="lightpink" d="M567,-1606C567,-1606 106,-1606 106,-1606 100,-1606 94,-1600 94,-1594 94,-1594 94,-1580 94,-1580 94,-1574 100,-1568 106,-1568 106,-1568 567,-1568 567,-1568 573,-1568 579,-1574 579,-1580 579,-1580 579,-1594 579,-1594 579,-1600 573,-1606 567,-1606"/>
<text text-anchor="middle" x="336.5" y="-1590.8" font-family="Times,serif" font-size="14.00">MonoBehaviour_114_ID1040292125</text>
<text text-anchor="middle" x="336.5" y="-1575.8" font-family="Times,serif" font-size="14.00">m_Script: {&#39;guid&#39;: &#39;5f7201a12d95ffc409449d95f23cf332&#39;, &#39;type&#39;: 3, &#39;fileID&#39;: 11500000}</text>
</g>
<!-- 2&#45;&gt;9 -->
<g id="edge1" class="edge">
<title>2&#45;&gt;9</title>
<path fill="none" stroke="black" d="M579.2,-1587C589.52,-1587 599.42,-1587 608.71,-1587"/>
<polygon fill="black" stroke="black" points="608.94,-1590.5 618.93,-1587 608.93,-1583.5 608.94,-1590.5"/>
</g>
<!-- 17 -->
<g id="node3" class="node">
<title>17</title>
<path fill="yellowgreen" stroke="yellowgreen" d="M730,-1550C730,-1550 631,-1550 631,-1550 625,-1550 619,-1544 619,-1538 619,-1538 619,-1524 619,-1524 619,-1518 625,-1512 631,-1512 631,-1512 730,-1512 730,-1512 736,-1512 742,-1518 742,-1524 742,-1524 742,-1538 742,-1538 742,-1544 736,-1550 730,-1550"/>
<text text-anchor="middle" x="680.5" y="-1534.8" font-family="Times,serif" font-size="14.00">m_GameObject</text>
<text text-anchor="middle" x="680.5" y="-1519.8" font-family="Times,serif" font-size="14.00">fileID: 1089201443</text>
</g>
<!-- 12 -->
<g id="node4" class="node">
<title>12</title>
<path fill="lightpink" stroke="lightpink" d="M568,-1550C568,-1550 105,-1550 105,-1550 99,-1550 93,-1544 93,-1538 93,-1538 93,-1524 93,-1524 93,-1518 99,-1512 105,-1512 105,-1512 568,-1512 568,-1512 574,-1512 580,-1518 580,-1524 580,-1524 580,-1538 580,-1538 580,-1544 574,-1550 568,-1550"/>
<text text-anchor="middle" x="336.5" y="-1534.8" font-family="Times,serif" font-size="14.00">MonoBehaviour_114_ID1089201445</text>
<text text-anchor="middle" x="336.5" y="-1519.8" font-family="Times,serif" font-size="14.00">m_Script: {&#39;guid&#39;: &#39;59f8146938fff824cb5fd77236b75775&#39;, &#39;type&#39;: 3, &#39;fileID&#39;: 11500000}</text>
</g>
<!-- 12&#45;&gt;17 -->
<g id="edge2" class="edge">
<title>12&#45;&gt;17</title>
<path fill="none" stroke="black" d="M580.12,-1531C590.2,-1531 599.87,-1531 608.96,-1531"/>
<polygon fill="black" stroke="black" points="608.96,-1534.5 618.96,-1531 608.96,-1527.5 608.96,-1534.5"/>
</g>
<!-- 26 -->
<g id="node5" class="node">
<title>26</title>
<path fill="yellowgreen" stroke="yellowgreen" d="M726.5,-1494C726.5,-1494 634.5,-1494 634.5,-1494 628.5,-1494 622.5,-1488 622.5,-1482 622.5,-1482 622.5,-1468 622.5,-1468 622.5,-1462 628.5,-1456 634.5,-1456 634.5,-1456 726.5,-1456 726.5,-1456 732.5,-1456 738.5,-1462 738.5,-1468 738.5,-1468 738.5,-1482 738.5,-1482 738.5,-1488 732.5,-1494 726.5,-1494"/>
<text text-anchor="middle" x="680.5" y="-1478.8" font-family="Times,serif" font-size="14.00">m_GameObject</text>
<text text-anchor="middle" x="680.5" y="-1463.8" font-family="Times,serif" font-size="14.00">fileID: 628076939</text>
</g>
<!-- 19 -->
<g id="node6" class="node">
<title>19</title>
<path fill="lightpink" stroke="lightpink" d="M567,-1494C567,-1494 106,-1494 106,-1494 100,-1494 94,-1488 94,-1482 94,-1482 94,-1468 94,-1468 94,-1462 100,-1456 106,-1456 106,-1456 567,-1456 567,-1456 573,-1456 579,-1462 579,-1468 579,-1468 579,-1482 579,-1482 579,-1488 573,-1494 567,-1494"/>
<text text-anchor="middle" x="336.5" y="-1478.8" font-family="Times,serif" font-size="14.00">MonoBehaviour_114_ID628076941</text>
<text text-anchor="middle" x="336.5" y="-1463.8" font-family="Times,serif" font-size="14.00">m_Script: {&#39;guid&#39;: &#39;5f7201a12d95ffc409449d95f23cf332&#39;, &#39;type&#39;: 3, &#39;fileID&#39;: 11500000}</text>
</g>
<!-- 19&#45;&gt;26 -->
<g id="edge3" class="edge">
<title>19&#45;&gt;26</title>
<path fill="none" stroke="black" d="M579.2,-1475C590.84,-1475 601.95,-1475 612.26,-1475"/>
<polygon fill="black" stroke="black" points="612.28,-1478.5 622.28,-1475 612.28,-1471.5 612.28,-1478.5"/>
</g>
<!-- 36 -->
<g id="node7" class="node">
<title>36</title>
<path fill="yellowgreen" stroke="yellowgreen" d="M730,-1438C730,-1438 631,-1438 631,-1438 625,-1438 619,-1432 619,-1426 619,-1426 619,-1412 619,-1412 619,-1406 625,-1400 631,-1400 631,-1400 730,-1400 730,-1400 736,-1400 742,-1406 742,-1412 742,-1412 742,-1426 742,-1426 742,-1432 736,-1438 730,-1438"/>
<text text-anchor="middle" x="680.5" y="-1422.8" font-family="Times,serif" font-size="14.00">m_GameObject</text>
<text text-anchor="middle" x="680.5" y="-1407.8" font-family="Times,serif" font-size="14.00">fileID: 1525520955</text>
</g>
<!-- 29 -->
<g id="node8" class="node">
<title>29</title>
<path fill="lightpink" stroke="lightpink" d="M567,-1438C567,-1438 106,-1438 106,-1438 100,-1438 94,-1432 94,-1426 94,-1426 94,-1412 94,-1412 94,-1406 100,-1400 106,-1400 106,-1400 567,-1400 567,-1400 573,-1400 579,-1406 579,-1412 579,-1412 579,-1426 579,-1426 579,-1432 573,-1438 567,-1438"/>
<text text-anchor="middle" x="336.5" y="-1422.8" font-family="Times,serif" font-size="14.00">MonoBehaviour_114_ID1525520957</text>
<text text-anchor="middle" x="336.5" y="-1407.8" font-family="Times,serif" font-size="14.00">m_Script: {&#39;guid&#39;: &#39;4e29b1a8efbd4b44bb3f3716e73f07ff&#39;, &#39;type&#39;: 3, &#39;fileID&#39;: 11500000}</text>
</g>
<!-- 29&#45;&gt;36 -->
<g id="edge4" class="edge">
<title>29&#45;&gt;36</title>
<path fill="none" stroke="black" d="M579.2,-1419C589.52,-1419 599.42,-1419 608.71,-1419"/>
<polygon fill="black" stroke="black" points="608.94,-1422.5 618.93,-1419 608.93,-1415.5 608.94,-1422.5"/>
</g>
<!-- 48 -->
<g id="node9" class="node">
<title>48</title>
<path fill="yellowgreen" stroke="yellowgreen" d="M730,-1382C730,-1382 631,-1382 631,-1382 625,-1382 619,-1376 619,-1370 619,-1370 619,-1356 619,-1356 619,-1350 625,-1344 631,-1344 631,-1344 730,-1344 730,-1344 736,-1344 742,-1350 742,-1356 742,-1356 742,-1370 742,-1370 742,-1376 736,-1382 730,-1382"/>
<text text-anchor="middle" x="680.5" y="-1366.8" font-family="Times,serif" font-size="14.00">m_GameObject</text>
<text text-anchor="middle" x="680.5" y="-1351.8" font-family="Times,serif" font-size="14.00">fileID: 1285890736</text>
</g>
<!-- 41 -->
<g id="node10" class="node">
<title>41</title>
<path fill="lightpink" stroke="lightpink" d="M567,-1382C567,-1382 106,-1382 106,-1382 100,-1382 94,-1376 94,-1370 94,-1370 94,-1356 94,-1356 94,-1350 100,-1344 106,-1344 106,-1344 567,-1344 567,-1344 573,-1344 579,-1350 579,-1356 579,-1356 579,-1370 579,-1370 579,-1376 573,-1382 567,-1382"/>
<text text-anchor="middle" x="336.5" y="-1366.8" font-family="Times,serif" font-size="14.00">MonoBehaviour_114_ID1285890738</text>
<text text-anchor="middle" x="336.5" y="-1351.8" font-family="Times,serif" font-size="14.00">m_Script: {&#39;guid&#39;: &#39;5f7201a12d95ffc409449d95f23cf332&#39;, &#39;type&#39;: 3, &#39;fileID&#39;: 11500000}</text>
</g>
<!-- 41&#45;&gt;48 -->
<g id="edge5" class="edge">
<title>41&#45;&gt;48</title>
<path fill="none" stroke="black" d="M579.2,-1363C589.52,-1363 599.42,-1363 608.71,-1363"/>
<polygon fill="black" stroke="black" points="608.94,-1366.5 618.93,-1363 608.93,-1359.5 608.94,-1366.5"/>
</g>
<!-- 58 -->
<g id="node11" class="node">
<title>58</title>
<path fill="yellowgreen" stroke="yellowgreen" d="M726.5,-1326C726.5,-1326 634.5,-1326 634.5,-1326 628.5,-1326 622.5,-1320 622.5,-1314 622.5,-1314 622.5,-1300 622.5,-1300 622.5,-1294 628.5,-1288 634.5,-1288 634.5,-1288 726.5,-1288 726.5,-1288 732.5,-1288 738.5,-1294 738.5,-1300 738.5,-1300 738.5,-1314 738.5,-1314 738.5,-1320 732.5,-1326 726.5,-1326"/>
<text text-anchor="middle" x="680.5" y="-1310.8" font-family="Times,serif" font-size="14.00">m_GameObject</text>
<text text-anchor="middle" x="680.5" y="-1295.8" font-family="Times,serif" font-size="14.00">fileID: 530533593</text>
</g>
<!-- 51 -->
<g id="node12" class="node">
<title>51</title>
<path fill="lightpink" stroke="lightpink" d="M567,-1326C567,-1326 106,-1326 106,-1326 100,-1326 94,-1320 94,-1314 94,-1314 94,-1300 94,-1300 94,-1294 100,-1288 106,-1288 106,-1288 567,-1288 567,-1288 573,-1288 579,-1294 579,-1300 579,-1300 579,-1314 579,-1314 579,-1320 573,-1326 567,-1326"/>
<text text-anchor="middle" x="336.5" y="-1310.8" font-family="Times,serif" font-size="14.00">MonoBehaviour_114_ID530533596</text>
<text text-anchor="middle" x="336.5" y="-1295.8" font-family="Times,serif" font-size="14.00">m_Script: {&#39;guid&#39;: &#39;fe87c0e1cc204ed48ad3b37840f39efc&#39;, &#39;type&#39;: 3, &#39;fileID&#39;: 11500000}</text>
</g>
<!-- 51&#45;&gt;58 -->
<g id="edge6" class="edge">
<title>51&#45;&gt;58</title>
<path fill="none" stroke="black" d="M579.2,-1307C590.84,-1307 601.95,-1307 612.26,-1307"/>
<polygon fill="black" stroke="black" points="612.28,-1310.5 622.28,-1307 612.28,-1303.5 612.28,-1310.5"/>
</g>
<!-- 68 -->
<g id="node13" class="node">
<title>68</title>
<path fill="yellowgreen" stroke="yellowgreen" d="M726.5,-1270C726.5,-1270 634.5,-1270 634.5,-1270 628.5,-1270 622.5,-1264 622.5,-1258 622.5,-1258 622.5,-1244 622.5,-1244 622.5,-1238 628.5,-1232 634.5,-1232 634.5,-1232 726.5,-1232 726.5,-1232 732.5,-1232 738.5,-1238 738.5,-1244 738.5,-1244 738.5,-1258 738.5,-1258 738.5,-1264 732.5,-1270 726.5,-1270"/>
<text text-anchor="middle" x="680.5" y="-1254.8" font-family="Times,serif" font-size="14.00">m_GameObject</text>
<text text-anchor="middle" x="680.5" y="-1239.8" font-family="Times,serif" font-size="14.00">fileID: 530533593</text>
</g>
<!-- 61 -->
<g id="node14" class="node">
<title>61</title>
<path fill="lightpink" stroke="lightpink" d="M567,-1270C567,-1270 106,-1270 106,-1270 100,-1270 94,-1264 94,-1258 94,-1258 94,-1244 94,-1244 94,-1238 100,-1232 106,-1232 106,-1232 567,-1232 567,-1232 573,-1232 579,-1238 579,-1244 579,-1244 579,-1258 579,-1258 579,-1264 573,-1270 567,-1270"/>
<text text-anchor="middle" x="336.5" y="-1254.8" font-family="Times,serif" font-size="14.00">MonoBehaviour_114_ID530533595</text>
<text text-anchor="middle" x="336.5" y="-1239.8" font-family="Times,serif" font-size="14.00">m_Script: {&#39;guid&#39;: &#39;4e29b1a8efbd4b44bb3f3716e73f07ff&#39;, &#39;type&#39;: 3, &#39;fileID&#39;: 11500000}</text>
</g>
<!-- 61&#45;&gt;68 -->
<g id="edge7" class="edge">
<title>61&#45;&gt;68</title>
<path fill="none" stroke="black" d="M579.2,-1251C590.84,-1251 601.95,-1251 612.26,-1251"/>
<polygon fill="black" stroke="black" points="612.28,-1254.5 622.28,-1251 612.28,-1247.5 612.28,-1254.5"/>
</g>
<!-- 76 -->
<g id="node15" class="node">
<title>76</title>
<path fill="yellowgreen" stroke="yellowgreen" d="M726.5,-1214C726.5,-1214 634.5,-1214 634.5,-1214 628.5,-1214 622.5,-1208 622.5,-1202 622.5,-1202 622.5,-1188 622.5,-1188 622.5,-1182 628.5,-1176 634.5,-1176 634.5,-1176 726.5,-1176 726.5,-1176 732.5,-1176 738.5,-1182 738.5,-1188 738.5,-1188 738.5,-1202 738.5,-1202 738.5,-1208 732.5,-1214 726.5,-1214"/>
<text text-anchor="middle" x="680.5" y="-1198.8" font-family="Times,serif" font-size="14.00">m_GameObject</text>
<text text-anchor="middle" x="680.5" y="-1183.8" font-family="Times,serif" font-size="14.00">fileID: 361157713</text>
</g>
<!-- 73 -->
<g id="node16" class="node">
<title>73</title>
<path fill="lightpink" stroke="lightpink" d="M569,-1214C569,-1214 104,-1214 104,-1214 98,-1214 92,-1208 92,-1202 92,-1202 92,-1188 92,-1188 92,-1182 98,-1176 104,-1176 104,-1176 569,-1176 569,-1176 575,-1176 581,-1182 581,-1188 581,-1188 581,-1202 581,-1202 581,-1208 575,-1214 569,-1214"/>
<text text-anchor="middle" x="336.5" y="-1198.8" font-family="Times,serif" font-size="14.00">MonoBehaviour_114_ID361157715</text>
<text text-anchor="middle" x="336.5" y="-1183.8" font-family="Times,serif" font-size="14.00">m_Script: {&#39;guid&#39;: &#39;76c392e42b5098c458856cdf6ecaaaa1&#39;, &#39;type&#39;: 3, &#39;fileID&#39;: 11500000}</text>
</g>
<!-- 73&#45;&gt;76 -->
<g id="edge8" class="edge">
<title>73&#45;&gt;76</title>
<path fill="none" stroke="black" d="M581.04,-1195C591.94,-1195 602.36,-1195 612.07,-1195"/>
<polygon fill="black" stroke="black" points="612.31,-1198.5 622.31,-1195 612.31,-1191.5 612.31,-1198.5"/>
</g>
<!-- 84 -->
<g id="node17" class="node">
<title>84</title>
<path fill="yellowgreen" stroke="yellowgreen" d="M726.5,-1158C726.5,-1158 634.5,-1158 634.5,-1158 628.5,-1158 622.5,-1152 622.5,-1146 622.5,-1146 622.5,-1132 622.5,-1132 622.5,-1126 628.5,-1120 634.5,-1120 634.5,-1120 726.5,-1120 726.5,-1120 732.5,-1120 738.5,-1126 738.5,-1132 738.5,-1132 738.5,-1146 738.5,-1146 738.5,-1152 732.5,-1158 726.5,-1158"/>
<text text-anchor="middle" x="680.5" y="-1142.8" font-family="Times,serif" font-size="14.00">m_GameObject</text>
<text text-anchor="middle" x="680.5" y="-1127.8" font-family="Times,serif" font-size="14.00">fileID: 361157713</text>
</g>
<!-- 80 -->
<g id="node18" class="node">
<title>80</title>
<path fill="lightpink" stroke="lightpink" d="M569.5,-1158C569.5,-1158 103.5,-1158 103.5,-1158 97.5,-1158 91.5,-1152 91.5,-1146 91.5,-1146 91.5,-1132 91.5,-1132 91.5,-1126 97.5,-1120 103.5,-1120 103.5,-1120 569.5,-1120 569.5,-1120 575.5,-1120 581.5,-1126 581.5,-1132 581.5,-1132 581.5,-1146 581.5,-1146 581.5,-1152 575.5,-1158 569.5,-1158"/>
<text text-anchor="middle" x="336.5" y="-1142.8" font-family="Times,serif" font-size="14.00">MonoBehaviour_114_ID361157714</text>
<text text-anchor="middle" x="336.5" y="-1127.8" font-family="Times,serif" font-size="14.00">m_Script: {&#39;guid&#39;: &#39;4f231c4fb786f3946a6b90b886c48677&#39;, &#39;type&#39;: 3, &#39;fileID&#39;: 11500000}</text>
</g>
<!-- 80&#45;&gt;84 -->
<g id="edge9" class="edge">
<title>80&#45;&gt;84</title>
<path fill="none" stroke="black" d="M581.95,-1139C592.61,-1139 602.8,-1139 612.3,-1139"/>
<polygon fill="black" stroke="black" points="612.33,-1142.5 622.33,-1139 612.33,-1135.5 612.33,-1142.5"/>
</g>
<!-- 93 -->
<g id="node19" class="node">
<title>93</title>
<path fill="yellowgreen" stroke="yellowgreen" d="M726.5,-1102C726.5,-1102 634.5,-1102 634.5,-1102 628.5,-1102 622.5,-1096 622.5,-1090 622.5,-1090 622.5,-1076 622.5,-1076 622.5,-1070 628.5,-1064 634.5,-1064 634.5,-1064 726.5,-1064 726.5,-1064 732.5,-1064 738.5,-1070 738.5,-1076 738.5,-1076 738.5,-1090 738.5,-1090 738.5,-1096 732.5,-1102 726.5,-1102"/>
<text text-anchor="middle" x="680.5" y="-1086.8" font-family="Times,serif" font-size="14.00">m_GameObject</text>
<text text-anchor="middle" x="680.5" y="-1071.8" font-family="Times,serif" font-size="14.00">fileID: 808250884</text>
</g>
<!-- 86 -->
<g id="node20" class="node">
<title>86</title>
<path fill="lightpink" stroke="lightpink" d="M567,-1102C567,-1102 106,-1102 106,-1102 100,-1102 94,-1096 94,-1090 94,-1090 94,-1076 94,-1076 94,-1070 100,-1064 106,-1064 106,-1064 567,-1064 567,-1064 573,-1064 579,-1070 579,-1076 579,-1076 579,-1090 579,-1090 579,-1096 573,-1102 567,-1102"/>
<text text-anchor="middle" x="336.5" y="-1086.8" font-family="Times,serif" font-size="14.00">MonoBehaviour_114_ID808250886</text>
<text text-anchor="middle" x="336.5" y="-1071.8" font-family="Times,serif" font-size="14.00">m_Script: {&#39;guid&#39;: &#39;5f7201a12d95ffc409449d95f23cf332&#39;, &#39;type&#39;: 3, &#39;fileID&#39;: 11500000}</text>
</g>
<!-- 86&#45;&gt;93 -->
<g id="edge10" class="edge">
<title>86&#45;&gt;93</title>
<path fill="none" stroke="black" d="M579.2,-1083C590.84,-1083 601.95,-1083 612.26,-1083"/>
<polygon fill="black" stroke="black" points="612.28,-1086.5 622.28,-1083 612.28,-1079.5 612.28,-1086.5"/>
</g>
<!-- 103 -->
<g id="node21" class="node">
<title>103</title>
<path fill="yellowgreen" stroke="yellowgreen" d="M730,-1046C730,-1046 631,-1046 631,-1046 625,-1046 619,-1040 619,-1034 619,-1034 619,-1020 619,-1020 619,-1014 625,-1008 631,-1008 631,-1008 730,-1008 730,-1008 736,-1008 742,-1014 742,-1020 742,-1020 742,-1034 742,-1034 742,-1040 736,-1046 730,-1046"/>
<text text-anchor="middle" x="680.5" y="-1030.8" font-family="Times,serif" font-size="14.00">m_GameObject</text>
<text text-anchor="middle" x="680.5" y="-1015.8" font-family="Times,serif" font-size="14.00">fileID: 1747895406</text>
</g>
<!-- 96 -->
<g id="node22" class="node">
<title>96</title>
<path fill="lightpink" stroke="lightpink" d="M567,-1046C567,-1046 106,-1046 106,-1046 100,-1046 94,-1040 94,-1034 94,-1034 94,-1020 94,-1020 94,-1014 100,-1008 106,-1008 106,-1008 567,-1008 567,-1008 573,-1008 579,-1014 579,-1020 579,-1020 579,-1034 579,-1034 579,-1040 573,-1046 567,-1046"/>
<text text-anchor="middle" x="336.5" y="-1030.8" font-family="Times,serif" font-size="14.00">MonoBehaviour_114_ID1747895408</text>
<text text-anchor="middle" x="336.5" y="-1015.8" font-family="Times,serif" font-size="14.00">m_Script: {&#39;guid&#39;: &#39;5f7201a12d95ffc409449d95f23cf332&#39;, &#39;type&#39;: 3, &#39;fileID&#39;: 11500000}</text>
</g>
<!-- 96&#45;&gt;103 -->
<g id="edge11" class="edge">
<title>96&#45;&gt;103</title>
<path fill="none" stroke="black" d="M579.2,-1027C589.52,-1027 599.42,-1027 608.71,-1027"/>
<polygon fill="black" stroke="black" points="608.94,-1030.5 618.93,-1027 608.93,-1023.5 608.94,-1030.5"/>
</g>
<!-- 109 -->
<g id="node23" class="node">
<title>109</title>
<path fill="yellowgreen" stroke="yellowgreen" d="M730,-990C730,-990 631,-990 631,-990 625,-990 619,-984 619,-978 619,-978 619,-964 619,-964 619,-958 625,-952 631,-952 631,-952 730,-952 730,-952 736,-952 742,-958 742,-964 742,-964 742,-978 742,-978 742,-984 736,-990 730,-990"/>
<text text-anchor="middle" x="680.5" y="-974.8" font-family="Times,serif" font-size="14.00">m_GameObject</text>
<text text-anchor="middle" x="680.5" y="-959.8" font-family="Times,serif" font-size="14.00">fileID: 2009980923</text>
</g>
<!-- 106 -->
<g id="node24" class="node">
<title>106</title>
<path fill="lightpink" stroke="lightpink" d="M569.5,-990C569.5,-990 103.5,-990 103.5,-990 97.5,-990 91.5,-984 91.5,-978 91.5,-978 91.5,-964 91.5,-964 91.5,-958 97.5,-952 103.5,-952 103.5,-952 569.5,-952 569.5,-952 575.5,-952 581.5,-958 581.5,-964 581.5,-964 581.5,-978 581.5,-978 581.5,-984 575.5,-990 569.5,-990"/>
<text text-anchor="middle" x="336.5" y="-974.8" font-family="Times,serif" font-size="14.00">MonoBehaviour_114_ID2009980924</text>
<text text-anchor="middle" x="336.5" y="-959.8" font-family="Times,serif" font-size="14.00">m_Script: {&#39;guid&#39;: &#39;dc42784cf147c0c48a680349fa168899&#39;, &#39;type&#39;: 3, &#39;fileID&#39;: 11500000}</text>
</g>
<!-- 106&#45;&gt;109 -->
<g id="edge12" class="edge">
<title>106&#45;&gt;109</title>
<path fill="none" stroke="black" d="M581.95,-971C591.28,-971 600.24,-971 608.7,-971"/>
<polygon fill="black" stroke="black" points="608.76,-974.5 618.76,-971 608.76,-967.5 608.76,-974.5"/>
</g>
<!-- 118 -->
<g id="node25" class="node">
<title>118</title>
<path fill="yellowgreen" stroke="yellowgreen" d="M720.5,-934C720.5,-934 640.5,-934 640.5,-934 634.5,-934 628.5,-928 628.5,-922 628.5,-922 628.5,-908 628.5,-908 628.5,-902 634.5,-896 640.5,-896 640.5,-896 720.5,-896 720.5,-896 726.5,-896 732.5,-902 732.5,-908 732.5,-908 732.5,-922 732.5,-922 732.5,-928 726.5,-934 720.5,-934"/>
<text text-anchor="middle" x="680.5" y="-918.8" font-family="Times,serif" font-size="14.00">m_GameObject</text>
<text text-anchor="middle" x="680.5" y="-903.8" font-family="Times,serif" font-size="14.00">fileID: 5973995</text>
</g>
<!-- 113 -->
<g id="node26" class="node">
<title>113</title>
<path fill="lightpink" stroke="lightpink" d="M568,-934C568,-934 105,-934 105,-934 99,-934 93,-928 93,-922 93,-922 93,-908 93,-908 93,-902 99,-896 105,-896 105,-896 568,-896 568,-896 574,-896 580,-902 580,-908 580,-908 580,-922 580,-922 580,-928 574,-934 568,-934"/>
<text text-anchor="middle" x="336.5" y="-918.8" font-family="Times,serif" font-size="14.00">MonoBehaviour_114_ID5973997</text>
<text text-anchor="middle" x="336.5" y="-903.8" font-family="Times,serif" font-size="14.00">m_Script: {&#39;guid&#39;: &#39;59f8146938fff824cb5fd77236b75775&#39;, &#39;type&#39;: 3, &#39;fileID&#39;: 11500000}</text>
</g>
<!-- 113&#45;&gt;118 -->
<g id="edge13" class="edge">
<title>113&#45;&gt;118</title>
<path fill="none" stroke="black" d="M580.12,-915C593.67,-915 606.48,-915 618.13,-915"/>
<polygon fill="black" stroke="black" points="618.48,-918.5 628.48,-915 618.48,-911.5 618.48,-918.5"/>
</g>
<!-- 127 -->
<g id="node27" class="node">
<title>127</title>
<path fill="yellowgreen" stroke="yellowgreen" d="M726.5,-878C726.5,-878 634.5,-878 634.5,-878 628.5,-878 622.5,-872 622.5,-866 622.5,-866 622.5,-852 622.5,-852 622.5,-846 628.5,-840 634.5,-840 634.5,-840 726.5,-840 726.5,-840 732.5,-840 738.5,-846 738.5,-852 738.5,-852 738.5,-866 738.5,-866 738.5,-872 732.5,-878 726.5,-878"/>
<text text-anchor="middle" x="680.5" y="-862.8" font-family="Times,serif" font-size="14.00">m_GameObject</text>
<text text-anchor="middle" x="680.5" y="-847.8" font-family="Times,serif" font-size="14.00">fileID: 132945516</text>
</g>
<!-- 120 -->
<g id="node28" class="node">
<title>120</title>
<path fill="lightpink" stroke="lightpink" d="M567,-878C567,-878 106,-878 106,-878 100,-878 94,-872 94,-866 94,-866 94,-852 94,-852 94,-846 100,-840 106,-840 106,-840 567,-840 567,-840 573,-840 579,-846 579,-852 579,-852 579,-866 579,-866 579,-872 573,-878 567,-878"/>
<text text-anchor="middle" x="336.5" y="-862.8" font-family="Times,serif" font-size="14.00">MonoBehaviour_114_ID132945518</text>
<text text-anchor="middle" x="336.5" y="-847.8" font-family="Times,serif" font-size="14.00">m_Script: {&#39;guid&#39;: &#39;5f7201a12d95ffc409449d95f23cf332&#39;, &#39;type&#39;: 3, &#39;fileID&#39;: 11500000}</text>
</g>
<!-- 120&#45;&gt;127 -->
<g id="edge14" class="edge">
<title>120&#45;&gt;127</title>
<path fill="none" stroke="black" d="M579.2,-859C590.84,-859 601.95,-859 612.26,-859"/>
<polygon fill="black" stroke="black" points="612.28,-862.5 622.28,-859 612.28,-855.5 612.28,-862.5"/>
</g>
<!-- 137 -->
<g id="node29" class="node">
<title>137</title>
<path fill="yellowgreen" stroke="yellowgreen" d="M726.5,-822C726.5,-822 634.5,-822 634.5,-822 628.5,-822 622.5,-816 622.5,-810 622.5,-810 622.5,-796 622.5,-796 622.5,-790 628.5,-784 634.5,-784 634.5,-784 726.5,-784 726.5,-784 732.5,-784 738.5,-790 738.5,-796 738.5,-796 738.5,-810 738.5,-810 738.5,-816 732.5,-822 726.5,-822"/>
<text text-anchor="middle" x="680.5" y="-806.8" font-family="Times,serif" font-size="14.00">m_GameObject</text>
<text text-anchor="middle" x="680.5" y="-791.8" font-family="Times,serif" font-size="14.00">fileID: 130449831</text>
</g>
<!-- 130 -->
<g id="node30" class="node">
<title>130</title>
<path fill="lightpink" stroke="lightpink" d="M567,-822C567,-822 106,-822 106,-822 100,-822 94,-816 94,-810 94,-810 94,-796 94,-796 94,-790 100,-784 106,-784 106,-784 567,-784 567,-784 573,-784 579,-790 579,-796 579,-796 579,-810 579,-810 579,-816 573,-822 567,-822"/>
<text text-anchor="middle" x="336.5" y="-806.8" font-family="Times,serif" font-size="14.00">MonoBehaviour_114_ID130449834</text>
<text text-anchor="middle" x="336.5" y="-791.8" font-family="Times,serif" font-size="14.00">m_Script: {&#39;guid&#39;: &#39;fe87c0e1cc204ed48ad3b37840f39efc&#39;, &#39;type&#39;: 3, &#39;fileID&#39;: 11500000}</text>
</g>
<!-- 130&#45;&gt;137 -->
<g id="edge15" class="edge">
<title>130&#45;&gt;137</title>
<path fill="none" stroke="black" d="M579.2,-803C590.84,-803 601.95,-803 612.26,-803"/>
<polygon fill="black" stroke="black" points="612.28,-806.5 622.28,-803 612.28,-799.5 612.28,-806.5"/>
</g>
<!-- 147 -->
<g id="node31" class="node">
<title>147</title>
<path fill="yellowgreen" stroke="yellowgreen" d="M730,-766C730,-766 631,-766 631,-766 625,-766 619,-760 619,-754 619,-754 619,-740 619,-740 619,-734 625,-728 631,-728 631,-728 730,-728 730,-728 736,-728 742,-734 742,-740 742,-740 742,-754 742,-754 742,-760 736,-766 730,-766"/>
<text text-anchor="middle" x="680.5" y="-750.8" font-family="Times,serif" font-size="14.00">m_GameObject</text>
<text text-anchor="middle" x="680.5" y="-735.8" font-family="Times,serif" font-size="14.00">fileID: 1651329295</text>
</g>
<!-- 140 -->
<g id="node32" class="node">
<title>140</title>
<path fill="lightpink" stroke="lightpink" d="M567,-766C567,-766 106,-766 106,-766 100,-766 94,-760 94,-754 94,-754 94,-740 94,-740 94,-734 100,-728 106,-728 106,-728 567,-728 567,-728 573,-728 579,-734 579,-740 579,-740 579,-754 579,-754 579,-760 573,-766 567,-766"/>
<text text-anchor="middle" x="336.5" y="-750.8" font-family="Times,serif" font-size="14.00">MonoBehaviour_114_ID1651329297</text>
<text text-anchor="middle" x="336.5" y="-735.8" font-family="Times,serif" font-size="14.00">m_Script: {&#39;guid&#39;: &#39;5f7201a12d95ffc409449d95f23cf332&#39;, &#39;type&#39;: 3, &#39;fileID&#39;: 11500000}</text>
</g>
<!-- 140&#45;&gt;147 -->
<g id="edge16" class="edge">
<title>140&#45;&gt;147</title>
<path fill="none" stroke="black" d="M579.2,-747C589.52,-747 599.42,-747 608.71,-747"/>
<polygon fill="black" stroke="black" points="608.94,-750.5 618.93,-747 608.93,-743.5 608.94,-750.5"/>
</g>
<!-- 157 -->
<g id="node33" class="node">
<title>157</title>
<path fill="yellowgreen" stroke="yellowgreen" d="M726.5,-710C726.5,-710 634.5,-710 634.5,-710 628.5,-710 622.5,-704 622.5,-698 622.5,-698 622.5,-684 622.5,-684 622.5,-678 628.5,-672 634.5,-672 634.5,-672 726.5,-672 726.5,-672 732.5,-672 738.5,-678 738.5,-684 738.5,-684 738.5,-698 738.5,-698 738.5,-704 732.5,-710 726.5,-710"/>
<text text-anchor="middle" x="680.5" y="-694.8" font-family="Times,serif" font-size="14.00">m_GameObject</text>
<text text-anchor="middle" x="680.5" y="-679.8" font-family="Times,serif" font-size="14.00">fileID: 960558223</text>
</g>
<!-- 150 -->
<g id="node34" class="node">
<title>150</title>
<path fill="lightpink" stroke="lightpink" d="M567,-710C567,-710 106,-710 106,-710 100,-710 94,-704 94,-698 94,-698 94,-684 94,-684 94,-678 100,-672 106,-672 106,-672 567,-672 567,-672 573,-672 579,-678 579,-684 579,-684 579,-698 579,-698 579,-704 573,-710 567,-710"/>
<text text-anchor="middle" x="336.5" y="-694.8" font-family="Times,serif" font-size="14.00">MonoBehaviour_114_ID960558225</text>
<text text-anchor="middle" x="336.5" y="-679.8" font-family="Times,serif" font-size="14.00">m_Script: {&#39;guid&#39;: &#39;5f7201a12d95ffc409449d95f23cf332&#39;, &#39;type&#39;: 3, &#39;fileID&#39;: 11500000}</text>
</g>
<!-- 150&#45;&gt;157 -->
<g id="edge17" class="edge">
<title>150&#45;&gt;157</title>
<path fill="none" stroke="black" d="M579.2,-691C590.84,-691 601.95,-691 612.26,-691"/>
<polygon fill="black" stroke="black" points="612.28,-694.5 622.28,-691 612.28,-687.5 612.28,-694.5"/>
</g>
<!-- 167 -->
<g id="node35" class="node">
<title>167</title>
<path fill="yellowgreen" stroke="yellowgreen" d="M730,-654C730,-654 631,-654 631,-654 625,-654 619,-648 619,-642 619,-642 619,-628 619,-628 619,-622 625,-616 631,-616 631,-616 730,-616 730,-616 736,-616 742,-622 742,-628 742,-628 742,-642 742,-642 742,-648 736,-654 730,-654"/>
<text text-anchor="middle" x="680.5" y="-638.8" font-family="Times,serif" font-size="14.00">m_GameObject</text>
<text text-anchor="middle" x="680.5" y="-623.8" font-family="Times,serif" font-size="14.00">fileID: 1908155155</text>
</g>
<!-- 160 -->
<g id="node36" class="node">
<title>160</title>
<path fill="lightpink" stroke="lightpink" d="M567,-654C567,-654 106,-654 106,-654 100,-654 94,-648 94,-642 94,-642 94,-628 94,-628 94,-622 100,-616 106,-616 106,-616 567,-616 567,-616 573,-616 579,-622 579,-628 579,-628 579,-642 579,-642 579,-648 573,-654 567,-654"/>
<text text-anchor="middle" x="336.5" y="-638.8" font-family="Times,serif" font-size="14.00">MonoBehaviour_114_ID1908155157</text>
<text text-anchor="middle" x="336.5" y="-623.8" font-family="Times,serif" font-size="14.00">m_Script: {&#39;guid&#39;: &#39;fe87c0e1cc204ed48ad3b37840f39efc&#39;, &#39;type&#39;: 3, &#39;fileID&#39;: 11500000}</text>
</g>
<!-- 160&#45;&gt;167 -->
<g id="edge18" class="edge">
<title>160&#45;&gt;167</title>
<path fill="none" stroke="black" d="M579.2,-635C589.52,-635 599.42,-635 608.71,-635"/>
<polygon fill="black" stroke="black" points="608.94,-638.5 618.93,-635 608.93,-631.5 608.94,-638.5"/>
</g>
<!-- 177 -->
<g id="node37" class="node">
<title>177</title>
<path fill="yellowgreen" stroke="yellowgreen" d="M730,-598C730,-598 631,-598 631,-598 625,-598 619,-592 619,-586 619,-586 619,-572 619,-572 619,-566 625,-560 631,-560 631,-560 730,-560 730,-560 736,-560 742,-566 742,-572 742,-572 742,-586 742,-586 742,-592 736,-598 730,-598"/>
<text text-anchor="middle" x="680.5" y="-582.8" font-family="Times,serif" font-size="14.00">m_GameObject</text>
<text text-anchor="middle" x="680.5" y="-567.8" font-family="Times,serif" font-size="14.00">fileID: 1525520955</text>
</g>
<!-- 170 -->
<g id="node38" class="node">
<title>170</title>
<path fill="lightpink" stroke="lightpink" d="M567,-598C567,-598 106,-598 106,-598 100,-598 94,-592 94,-586 94,-586 94,-572 94,-572 94,-566 100,-560 106,-560 106,-560 567,-560 567,-560 573,-560 579,-566 579,-572 579,-572 579,-586 579,-586 579,-592 573,-598 567,-598"/>
<text text-anchor="middle" x="336.5" y="-582.8" font-family="Times,serif" font-size="14.00">MonoBehaviour_114_ID1525520958</text>
<text text-anchor="middle" x="336.5" y="-567.8" font-family="Times,serif" font-size="14.00">m_Script: {&#39;guid&#39;: &#39;fe87c0e1cc204ed48ad3b37840f39efc&#39;, &#39;type&#39;: 3, &#39;fileID&#39;: 11500000}</text>
</g>
<!-- 170&#45;&gt;177 -->
<g id="edge19" class="edge">
<title>170&#45;&gt;177</title>
<path fill="none" stroke="black" d="M579.2,-579C589.52,-579 599.42,-579 608.71,-579"/>
<polygon fill="black" stroke="black" points="608.94,-582.5 618.93,-579 608.93,-575.5 608.94,-582.5"/>
</g>
<!-- 187 -->
<g id="node39" class="node">
<title>187</title>
<path fill="yellowgreen" stroke="yellowgreen" d="M726.5,-542C726.5,-542 634.5,-542 634.5,-542 628.5,-542 622.5,-536 622.5,-530 622.5,-530 622.5,-516 622.5,-516 622.5,-510 628.5,-504 634.5,-504 634.5,-504 726.5,-504 726.5,-504 732.5,-504 738.5,-510 738.5,-516 738.5,-516 738.5,-530 738.5,-530 738.5,-536 732.5,-542 726.5,-542"/>
<text text-anchor="middle" x="680.5" y="-526.8" font-family="Times,serif" font-size="14.00">m_GameObject</text>
<text text-anchor="middle" x="680.5" y="-511.8" font-family="Times,serif" font-size="14.00">fileID: 265550441</text>
</g>
<!-- 180 -->
<g id="node40" class="node">
<title>180</title>
<path fill="lightpink" stroke="lightpink" d="M567,-542C567,-542 106,-542 106,-542 100,-542 94,-536 94,-530 94,-530 94,-516 94,-516 94,-510 100,-504 106,-504 106,-504 567,-504 567,-504 573,-504 579,-510 579,-516 579,-516 579,-530 579,-530 579,-536 573,-542 567,-542"/>
<text text-anchor="middle" x="336.5" y="-526.8" font-family="Times,serif" font-size="14.00">MonoBehaviour_114_ID265550443</text>
<text text-anchor="middle" x="336.5" y="-511.8" font-family="Times,serif" font-size="14.00">m_Script: {&#39;guid&#39;: &#39;5f7201a12d95ffc409449d95f23cf332&#39;, &#39;type&#39;: 3, &#39;fileID&#39;: 11500000}</text>
</g>
<!-- 180&#45;&gt;187 -->
<g id="edge20" class="edge">
<title>180&#45;&gt;187</title>
<path fill="none" stroke="black" d="M579.2,-523C590.84,-523 601.95,-523 612.26,-523"/>
<polygon fill="black" stroke="black" points="612.28,-526.5 622.28,-523 612.28,-519.5 612.28,-526.5"/>
</g>
<!-- 194 -->
<g id="node41" class="node">
<title>194</title>
<path fill="yellowgreen" stroke="yellowgreen" d="M730,-486C730,-486 631,-486 631,-486 625,-486 619,-480 619,-474 619,-474 619,-460 619,-460 619,-454 625,-448 631,-448 631,-448 730,-448 730,-448 736,-448 742,-454 742,-460 742,-460 742,-474 742,-474 742,-480 736,-486 730,-486"/>
<text text-anchor="middle" x="680.5" y="-470.8" font-family="Times,serif" font-size="14.00">m_GameObject</text>
<text text-anchor="middle" x="680.5" y="-455.8" font-family="Times,serif" font-size="14.00">fileID: 2009980923</text>
</g>
<!-- 190 -->
<g id="node42" class="node">
<title>190</title>
<path fill="lightpink" stroke="lightpink" d="M571,-486C571,-486 102,-486 102,-486 96,-486 90,-480 90,-474 90,-474 90,-460 90,-460 90,-454 96,-448 102,-448 102,-448 571,-448 571,-448 577,-448 583,-454 583,-460 583,-460 583,-474 583,-474 583,-480 577,-486 571,-486"/>
<text text-anchor="middle" x="336.5" y="-470.8" font-family="Times,serif" font-size="14.00">MonoBehaviour_114_ID2009980925</text>
<text text-anchor="middle" x="336.5" y="-455.8" font-family="Times,serif" font-size="14.00">m_Script: {&#39;guid&#39;: &#39;0cd44c1031e13a943bb63640046fad76&#39;, &#39;type&#39;: 3, &#39;fileID&#39;: 11500000}</text>
</g>
<!-- 190&#45;&gt;194 -->
<g id="edge21" class="edge">
<title>190&#45;&gt;194</title>
<path fill="none" stroke="black" d="M583.32,-467C592.11,-467 600.57,-467 608.58,-467"/>
<polygon fill="black" stroke="black" points="608.83,-470.5 618.83,-467 608.83,-463.5 608.83,-470.5"/>
</g>
<!-- 204 -->
<g id="node43" class="node">
<title>204</title>
<path fill="yellowgreen" stroke="yellowgreen" d="M726.5,-430C726.5,-430 634.5,-430 634.5,-430 628.5,-430 622.5,-424 622.5,-418 622.5,-418 622.5,-404 622.5,-404 622.5,-398 628.5,-392 634.5,-392 634.5,-392 726.5,-392 726.5,-392 732.5,-392 738.5,-398 738.5,-404 738.5,-404 738.5,-418 738.5,-418 738.5,-424 732.5,-430 726.5,-430"/>
<text text-anchor="middle" x="680.5" y="-414.8" font-family="Times,serif" font-size="14.00">m_GameObject</text>
<text text-anchor="middle" x="680.5" y="-399.8" font-family="Times,serif" font-size="14.00">fileID: 301893718</text>
</g>
<!-- 197 -->
<g id="node44" class="node">
<title>197</title>
<path fill="lightpink" stroke="lightpink" d="M567,-430C567,-430 106,-430 106,-430 100,-430 94,-424 94,-418 94,-418 94,-404 94,-404 94,-398 100,-392 106,-392 106,-392 567,-392 567,-392 573,-392 579,-398 579,-404 579,-404 579,-418 579,-418 579,-424 573,-430 567,-430"/>
<text text-anchor="middle" x="336.5" y="-414.8" font-family="Times,serif" font-size="14.00">MonoBehaviour_114_ID301893720</text>
<text text-anchor="middle" x="336.5" y="-399.8" font-family="Times,serif" font-size="14.00">m_Script: {&#39;guid&#39;: &#39;fe87c0e1cc204ed48ad3b37840f39efc&#39;, &#39;type&#39;: 3, &#39;fileID&#39;: 11500000}</text>
</g>
<!-- 197&#45;&gt;204 -->
<g id="edge22" class="edge">
<title>197&#45;&gt;204</title>
<path fill="none" stroke="black" d="M579.2,-411C590.84,-411 601.95,-411 612.26,-411"/>
<polygon fill="black" stroke="black" points="612.28,-414.5 622.28,-411 612.28,-407.5 612.28,-414.5"/>
</g>
<!-- 210 -->
<g id="node45" class="node">
<title>210</title>
<path fill="yellowgreen" stroke="yellowgreen" d="M726.5,-374C726.5,-374 634.5,-374 634.5,-374 628.5,-374 622.5,-368 622.5,-362 622.5,-362 622.5,-348 622.5,-348 622.5,-342 628.5,-336 634.5,-336 634.5,-336 726.5,-336 726.5,-336 732.5,-336 738.5,-342 738.5,-348 738.5,-348 738.5,-362 738.5,-362 738.5,-368 732.5,-374 726.5,-374"/>
<text text-anchor="middle" x="680.5" y="-358.8" font-family="Times,serif" font-size="14.00">m_GameObject</text>
<text text-anchor="middle" x="680.5" y="-343.8" font-family="Times,serif" font-size="14.00">fileID: 130449831</text>
</g>
<!-- 207 -->
<g id="node46" class="node">
<title>207</title>
<path fill="lightpink" stroke="lightpink" d="M567.5,-374C567.5,-374 105.5,-374 105.5,-374 99.5,-374 93.5,-368 93.5,-362 93.5,-362 93.5,-348 93.5,-348 93.5,-342 99.5,-336 105.5,-336 105.5,-336 567.5,-336 567.5,-336 573.5,-336 579.5,-342 579.5,-348 579.5,-348 579.5,-362 579.5,-362 579.5,-368 573.5,-374 567.5,-374"/>
<text text-anchor="middle" x="336.5" y="-358.8" font-family="Times,serif" font-size="14.00">MonoBehaviour_114_ID130449833</text>
<text text-anchor="middle" x="336.5" y="-343.8" font-family="Times,serif" font-size="14.00">m_Script: {&#39;guid&#39;: &#39;cfbcc1c9cd748aa4eadf517d081ad03e&#39;, &#39;type&#39;: 3, &#39;fileID&#39;: 11500000}</text>
</g>
<!-- 207&#45;&gt;210 -->
<g id="edge23" class="edge">
<title>207&#45;&gt;210</title>
<path fill="none" stroke="black" d="M579.66,-355C591.06,-355 601.94,-355 612.04,-355"/>
<polygon fill="black" stroke="black" points="612.29,-358.5 622.29,-355 612.29,-351.5 612.29,-358.5"/>
</g>
<!-- 221 -->
<g id="node47" class="node">
<title>221</title>
<path fill="yellowgreen" stroke="yellowgreen" d="M730,-318C730,-318 631,-318 631,-318 625,-318 619,-312 619,-306 619,-306 619,-292 619,-292 619,-286 625,-280 631,-280 631,-280 730,-280 730,-280 736,-280 742,-286 742,-292 742,-292 742,-306 742,-306 742,-312 736,-318 730,-318"/>
<text text-anchor="middle" x="680.5" y="-302.8" font-family="Times,serif" font-size="14.00">m_GameObject</text>
<text text-anchor="middle" x="680.5" y="-287.8" font-family="Times,serif" font-size="14.00">fileID: 1351522636</text>
</g>
<!-- 214 -->
<g id="node48" class="node">
<title>214</title>
<path fill="lightpink" stroke="lightpink" d="M567,-318C567,-318 106,-318 106,-318 100,-318 94,-312 94,-306 94,-306 94,-292 94,-292 94,-286 100,-280 106,-280 106,-280 567,-280 567,-280 573,-280 579,-286 579,-292 579,-292 579,-306 579,-306 579,-312 573,-318 567,-318"/>
<text text-anchor="middle" x="336.5" y="-302.8" font-family="Times,serif" font-size="14.00">MonoBehaviour_114_ID1351522639</text>
<text text-anchor="middle" x="336.5" y="-287.8" font-family="Times,serif" font-size="14.00">m_Script: {&#39;guid&#39;: &#39;fe87c0e1cc204ed48ad3b37840f39efc&#39;, &#39;type&#39;: 3, &#39;fileID&#39;: 11500000}</text>
</g>
<!-- 214&#45;&gt;221 -->
<g id="edge24" class="edge">
<title>214&#45;&gt;221</title>
<path fill="none" stroke="black" d="M579.2,-299C589.52,-299 599.42,-299 608.71,-299"/>
<polygon fill="black" stroke="black" points="608.94,-302.5 618.93,-299 608.93,-295.5 608.94,-302.5"/>
</g>
<!-- 231 -->
<g id="node49" class="node">
<title>231</title>
<path fill="yellowgreen" stroke="yellowgreen" d="M730,-262C730,-262 631,-262 631,-262 625,-262 619,-256 619,-250 619,-250 619,-236 619,-236 619,-230 625,-224 631,-224 631,-224 730,-224 730,-224 736,-224 742,-230 742,-236 742,-236 742,-250 742,-250 742,-256 736,-262 730,-262"/>
<text text-anchor="middle" x="680.5" y="-246.8" font-family="Times,serif" font-size="14.00">m_GameObject</text>
<text text-anchor="middle" x="680.5" y="-231.8" font-family="Times,serif" font-size="14.00">fileID: 1351522636</text>
</g>
<!-- 224 -->
<g id="node50" class="node">
<title>224</title>
<path fill="lightpink" stroke="lightpink" d="M567,-262C567,-262 106,-262 106,-262 100,-262 94,-256 94,-250 94,-250 94,-236 94,-236 94,-230 100,-224 106,-224 106,-224 567,-224 567,-224 573,-224 579,-230 579,-236 579,-236 579,-250 579,-250 579,-256 573,-262 567,-262"/>
<text text-anchor="middle" x="336.5" y="-246.8" font-family="Times,serif" font-size="14.00">MonoBehaviour_114_ID1351522638</text>
<text text-anchor="middle" x="336.5" y="-231.8" font-family="Times,serif" font-size="14.00">m_Script: {&#39;guid&#39;: &#39;4e29b1a8efbd4b44bb3f3716e73f07ff&#39;, &#39;type&#39;: 3, &#39;fileID&#39;: 11500000}</text>
</g>
<!-- 224&#45;&gt;231 -->
<g id="edge25" class="edge">
<title>224&#45;&gt;231</title>
<path fill="none" stroke="black" d="M579.2,-243C589.52,-243 599.42,-243 608.71,-243"/>
<polygon fill="black" stroke="black" points="608.94,-246.5 618.93,-243 608.93,-239.5 608.94,-246.5"/>
</g>
<!-- 243 -->
<g id="node51" class="node">
<title>243</title>
<path fill="yellowgreen" stroke="yellowgreen" d="M730,-206C730,-206 631,-206 631,-206 625,-206 619,-200 619,-194 619,-194 619,-180 619,-180 619,-174 625,-168 631,-168 631,-168 730,-168 730,-168 736,-168 742,-174 742,-180 742,-180 742,-194 742,-194 742,-200 736,-206 730,-206"/>
<text text-anchor="middle" x="680.5" y="-190.8" font-family="Times,serif" font-size="14.00">m_GameObject</text>
<text text-anchor="middle" x="680.5" y="-175.8" font-family="Times,serif" font-size="14.00">fileID: 1093729419</text>
</g>
<!-- 236 -->
<g id="node52" class="node">
<title>236</title>
<path fill="lightpink" stroke="lightpink" d="M567,-206C567,-206 106,-206 106,-206 100,-206 94,-200 94,-194 94,-194 94,-180 94,-180 94,-174 100,-168 106,-168 106,-168 567,-168 567,-168 573,-168 579,-174 579,-180 579,-180 579,-194 579,-194 579,-200 573,-206 567,-206"/>
<text text-anchor="middle" x="336.5" y="-190.8" font-family="Times,serif" font-size="14.00">MonoBehaviour_114_ID1093729421</text>
<text text-anchor="middle" x="336.5" y="-175.8" font-family="Times,serif" font-size="14.00">m_Script: {&#39;guid&#39;: &#39;5f7201a12d95ffc409449d95f23cf332&#39;, &#39;type&#39;: 3, &#39;fileID&#39;: 11500000}</text>
</g>
<!-- 236&#45;&gt;243 -->
<g id="edge26" class="edge">
<title>236&#45;&gt;243</title>
<path fill="none" stroke="black" d="M579.2,-187C589.52,-187 599.42,-187 608.71,-187"/>
<polygon fill="black" stroke="black" points="608.94,-190.5 618.93,-187 608.93,-183.5 608.94,-190.5"/>
</g>
<!-- 251 -->
<g id="node53" class="node">
<title>251</title>
<path fill="yellowgreen" stroke="yellowgreen" d="M726.5,-150C726.5,-150 634.5,-150 634.5,-150 628.5,-150 622.5,-144 622.5,-138 622.5,-138 622.5,-124 622.5,-124 622.5,-118 628.5,-112 634.5,-112 634.5,-112 726.5,-112 726.5,-112 732.5,-112 738.5,-118 738.5,-124 738.5,-124 738.5,-138 738.5,-138 738.5,-144 732.5,-150 726.5,-150"/>
<text text-anchor="middle" x="680.5" y="-134.8" font-family="Times,serif" font-size="14.00">m_GameObject</text>
<text text-anchor="middle" x="680.5" y="-119.8" font-family="Times,serif" font-size="14.00">fileID: 138731492</text>
</g>
<!-- 246 -->
<g id="node54" class="node">
<title>246</title>
<path fill="lightpink" stroke="lightpink" d="M568,-150C568,-150 105,-150 105,-150 99,-150 93,-144 93,-138 93,-138 93,-124 93,-124 93,-118 99,-112 105,-112 105,-112 568,-112 568,-112 574,-112 580,-118 580,-124 580,-124 580,-138 580,-138 580,-144 574,-150 568,-150"/>
<text text-anchor="middle" x="336.5" y="-134.8" font-family="Times,serif" font-size="14.00">MonoBehaviour_114_ID138731494</text>
<text text-anchor="middle" x="336.5" y="-119.8" font-family="Times,serif" font-size="14.00">m_Script: {&#39;guid&#39;: &#39;59f8146938fff824cb5fd77236b75775&#39;, &#39;type&#39;: 3, &#39;fileID&#39;: 11500000}</text>
</g>
<!-- 246&#45;&gt;251 -->
<g id="edge27" class="edge">
<title>246&#45;&gt;251</title>
<path fill="none" stroke="black" d="M580.12,-131C591.39,-131 602.15,-131 612.15,-131"/>
<polygon fill="black" stroke="black" points="612.29,-134.5 622.29,-131 612.29,-127.5 612.29,-134.5"/>
</g>
<!-- 260 -->
<g id="node55" class="node">
<title>260</title>
<path fill="yellowgreen" stroke="yellowgreen" d="M726.5,-94C726.5,-94 634.5,-94 634.5,-94 628.5,-94 622.5,-88 622.5,-82 622.5,-82 622.5,-68 622.5,-68 622.5,-62 628.5,-56 634.5,-56 634.5,-56 726.5,-56 726.5,-56 732.5,-56 738.5,-62 738.5,-68 738.5,-68 738.5,-82 738.5,-82 738.5,-88 732.5,-94 726.5,-94"/>
<text text-anchor="middle" x="680.5" y="-78.8" font-family="Times,serif" font-size="14.00">m_GameObject</text>
<text text-anchor="middle" x="680.5" y="-63.8" font-family="Times,serif" font-size="14.00">fileID: 771856868</text>
</g>
<!-- 253 -->
<g id="node56" class="node">
<title>253</title>
<path fill="lightpink" stroke="lightpink" d="M567,-94C567,-94 106,-94 106,-94 100,-94 94,-88 94,-82 94,-82 94,-68 94,-68 94,-62 100,-56 106,-56 106,-56 567,-56 567,-56 573,-56 579,-62 579,-68 579,-68 579,-82 579,-82 579,-88 573,-94 567,-94"/>
<text text-anchor="middle" x="336.5" y="-78.8" font-family="Times,serif" font-size="14.00">MonoBehaviour_114_ID771856871</text>
<text text-anchor="middle" x="336.5" y="-63.8" font-family="Times,serif" font-size="14.00">m_Script: {&#39;guid&#39;: &#39;fe87c0e1cc204ed48ad3b37840f39efc&#39;, &#39;type&#39;: 3, &#39;fileID&#39;: 11500000}</text>
</g>
<!-- 253&#45;&gt;260 -->
<g id="edge28" class="edge">
<title>253&#45;&gt;260</title>
<path fill="none" stroke="black" d="M579.2,-75C590.84,-75 601.95,-75 612.26,-75"/>
<polygon fill="black" stroke="black" points="612.28,-78.5 622.28,-75 612.28,-71.5 612.28,-78.5"/>
</g>
<!-- 270 -->
<g id="node57" class="node">
<title>270</title>
<path fill="yellowgreen" stroke="yellowgreen" d="M726.5,-38C726.5,-38 634.5,-38 634.5,-38 628.5,-38 622.5,-32 622.5,-26 622.5,-26 622.5,-12 622.5,-12 622.5,-6 628.5,0 634.5,0 634.5,0 726.5,0 726.5,0 732.5,0 738.5,-6 738.5,-12 738.5,-12 738.5,-26 738.5,-26 738.5,-32 732.5,-38 726.5,-38"/>
<text text-anchor="middle" x="680.5" y="-22.8" font-family="Times,serif" font-size="14.00">m_GameObject</text>
<text text-anchor="middle" x="680.5" y="-7.8" font-family="Times,serif" font-size="14.00">fileID: 771856868</text>
</g>
<!-- 263 -->
<g id="node58" class="node">
<title>263</title>
<path fill="lightpink" stroke="lightpink" d="M567,-38C567,-38 106,-38 106,-38 100,-38 94,-32 94,-26 94,-26 94,-12 94,-12 94,-6 100,0 106,0 106,0 567,0 567,0 573,0 579,-6 579,-12 579,-12 579,-26 579,-26 579,-32 573,-38 567,-38"/>
<text text-anchor="middle" x="336.5" y="-22.8" font-family="Times,serif" font-size="14.00">MonoBehaviour_114_ID771856870</text>
<text text-anchor="middle" x="336.5" y="-7.8" font-family="Times,serif" font-size="14.00">m_Script: {&#39;guid&#39;: &#39;4e29b1a8efbd4b44bb3f3716e73f07ff&#39;, &#39;type&#39;: 3, &#39;fileID&#39;: 11500000}</text>
</g>
<!-- 263&#45;&gt;270 -->
<g id="edge29" class="edge">
<title>263&#45;&gt;270</title>
<path fill="none" stroke="black" d="M579.2,-19C590.84,-19 601.95,-19 612.26,-19"/>
<polygon fill="black" stroke="black" points="612.28,-22.5 622.28,-19 612.28,-15.5 612.28,-22.5"/>
</g>
<!-- 1 -->
<g id="node59" class="node">
<title>1</title>
<ellipse fill="red" stroke="red" cx="27" cy="-803" rx="27" ry="18"/>
</g>
<!-- 1&#45;&gt;2 -->
<g id="edge30" class="edge">
<title>1&#45;&gt;2</title>
<path fill="none" stroke="black" d="M28.14,-821.3C29.17,-931.54 37.03,-1504.32 90,-1559 90.56,-1559.58 91.12,-1560.15 91.69,-1560.71"/>
<polygon fill="black" stroke="black" points="89.6,-1563.54 99.36,-1567.66 94.3,-1558.35 89.6,-1563.54"/>
</g>
<!-- 1&#45;&gt;12 -->
<g id="edge31" class="edge">
<title>1&#45;&gt;12</title>
<path fill="none" stroke="black" d="M28.27,-821.3C29.98,-926.62 40.97,-1452.72 90,-1503 90.56,-1503.58 91.13,-1504.14 91.7,-1504.71"/>
<polygon fill="black" stroke="black" points="89.62,-1507.54 99.39,-1511.63 94.3,-1502.34 89.62,-1507.54"/>
</g>
<!-- 1&#45;&gt;19 -->
<g id="edge32" class="edge">
<title>1&#45;&gt;19</title>
<path fill="none" stroke="black" d="M28.41,-821.12C30.85,-920.96 44.88,-1401.08 90,-1447 90.56,-1447.57 91.13,-1448.14 91.71,-1448.7"/>
<polygon fill="black" stroke="black" points="89.64,-1451.54 99.42,-1455.6 94.3,-1446.33 89.64,-1451.54"/>
</g>
<!-- 1&#45;&gt;29 -->
<g id="edge33" class="edge">
<title>1&#45;&gt;29</title>
<path fill="none" stroke="black" d="M28.58,-821.07C31.81,-915.5 48.8,-1349.45 90,-1391 90.79,-1391.8 91.6,-1392.59 92.41,-1393.36"/>
<polygon fill="black" stroke="black" points="90.12,-1396.01 99.95,-1399.96 94.73,-1390.74 90.12,-1396.01"/>
</g>
<!-- 1&#45;&gt;41 -->
<g id="edge34" class="edge">
<title>1&#45;&gt;41</title>
<path fill="none" stroke="black" d="M28.8,-821.08C32.87,-909.97 52.72,-1297.81 90,-1335 90.8,-1335.8 91.6,-1336.58 92.42,-1337.35"/>
<polygon fill="black" stroke="black" points="90.15,-1340.01 100,-1343.91 94.74,-1334.72 90.15,-1340.01"/>
</g>
<!-- 1&#45;&gt;51 -->
<g id="edge35" class="edge">
<title>1&#45;&gt;51</title>
<path fill="none" stroke="black" d="M29.05,-821.08C34.07,-904.1 56.63,-1246.16 90,-1279 90.8,-1279.79 91.61,-1280.57 92.44,-1281.33"/>
<polygon fill="black" stroke="black" points="90.19,-1284.01 100.06,-1287.85 94.74,-1278.69 90.19,-1284.01"/>
</g>
<!-- 1&#45;&gt;61 -->
<g id="edge36" class="edge">
<title>1&#45;&gt;61</title>
<path fill="none" stroke="black" d="M27.88,-821.23C27.79,-894.51 31.47,-1166.37 90,-1223 90.83,-1223.8 91.67,-1224.59 92.51,-1225.36"/>
<polygon fill="black" stroke="black" points="90.48,-1228.22 100.39,-1231.97 94.98,-1222.86 90.48,-1228.22"/>
</g>
<!-- 1&#45;&gt;73 -->
<g id="edge37" class="edge">
<title>1&#45;&gt;73</title>
<path fill="none" stroke="black" d="M28.33,-821.04C29.93,-887.73 39.13,-1118.86 90,-1167 90.84,-1167.79 91.68,-1168.57 92.54,-1169.34"/>
<polygon fill="black" stroke="black" points="90.54,-1172.22 100.48,-1175.87 94.98,-1166.82 90.54,-1172.22"/>
</g>
<!-- 1&#45;&gt;80 -->
<g id="edge38" class="edge">
<title>1&#45;&gt;80</title>
<path fill="none" stroke="black" d="M28.94,-821.12C32.44,-881.05 46.81,-1071.34 90,-1111 90.98,-1111.9 91.97,-1112.78 92.97,-1113.64"/>
<polygon fill="black" stroke="black" points="90.86,-1116.44 100.87,-1119.92 95.22,-1110.96 90.86,-1116.44"/>
</g>
<!-- 1&#45;&gt;86 -->
<g id="edge39" class="edge">
<title>1&#45;&gt;86</title>
<path fill="none" stroke="black" d="M29.81,-821.08C35.43,-873.48 54.4,-1023.68 90,-1055 91.02,-1055.9 92.05,-1056.78 93.09,-1057.64"/>
<polygon fill="black" stroke="black" points="91.24,-1060.62 101.32,-1063.9 95.48,-1055.06 91.24,-1060.62"/>
</g>
<!-- 1&#45;&gt;96 -->
<g id="edge40" class="edge">
<title>1&#45;&gt;96</title>
<path fill="none" stroke="black" d="M27.7,-821.11C28.12,-860.46 35.18,-953.85 90,-999 91.22,-1000 92.45,-1000.98 93.69,-1001.94"/>
<polygon fill="black" stroke="black" points="91.95,-1004.99 102.13,-1007.92 96,-999.28 91.95,-1004.99"/>
</g>
<!-- 1&#45;&gt;106 -->
<g id="edge41" class="edge">
<title>1&#45;&gt;106</title>
<path fill="none" stroke="black" d="M30.28,-821.12C35.17,-851.78 49.73,-913.41 90,-943 91.65,-944.21 93.33,-945.39 95.03,-946.54"/>
<polygon fill="black" stroke="black" points="93.37,-949.63 103.7,-951.97 97.09,-943.7 93.37,-949.63"/>
</g>
<!-- 1&#45;&gt;113 -->
<g id="edge42" class="edge">
<title>1&#45;&gt;113</title>
<path fill="none" stroke="black" d="M35.43,-820.2C44.96,-839.97 63.48,-871.67 90,-887 92.74,-888.59 95.53,-890.1 98.36,-891.56"/>
<polygon fill="black" stroke="black" points="97.01,-894.79 107.54,-895.97 100.05,-888.48 97.01,-894.79"/>
</g>
<!-- 1&#45;&gt;120 -->
<g id="edge43" class="edge">
<title>1&#45;&gt;120</title>
<path fill="none" stroke="black" d="M48.35,-814.13C60.17,-820.09 75.54,-827.02 90,-831 99.13,-833.52 108.51,-835.81 118.04,-837.89"/>
<polygon fill="black" stroke="black" points="117.5,-841.36 128.01,-839.99 118.94,-834.51 117.5,-841.36"/>
</g>
<!-- 1&#45;&gt;130 -->
<g id="edge44" class="edge">
<title>1&#45;&gt;130</title>
<path fill="none" stroke="black" d="M54.22,-803C62.53,-803 72.5,-803 83.65,-803"/>
<polygon fill="black" stroke="black" points="83.74,-806.5 93.74,-803 83.74,-799.5 83.74,-806.5"/>
</g>
<!-- 1&#45;&gt;140 -->
<g id="edge45" class="edge">
<title>1&#45;&gt;140</title>
<path fill="none" stroke="black" d="M48.35,-791.87C60.17,-785.91 75.54,-778.98 90,-775 99.13,-772.48 108.51,-770.19 118.04,-768.11"/>
<polygon fill="black" stroke="black" points="118.94,-771.49 128.01,-766.01 117.5,-764.64 118.94,-771.49"/>
</g>
<!-- 1&#45;&gt;150 -->
<g id="edge46" class="edge">
<title>1&#45;&gt;150</title>
<path fill="none" stroke="black" d="M35.43,-785.8C44.96,-766.03 63.48,-734.33 90,-719 92.74,-717.41 95.53,-715.9 98.36,-714.44"/>
<polygon fill="black" stroke="black" points="100.05,-717.52 107.54,-710.03 97.01,-711.21 100.05,-717.52"/>
</g>
<!-- 1&#45;&gt;160 -->
<g id="edge47" class="edge">
<title>1&#45;&gt;160</title>
<path fill="none" stroke="black" d="M30.28,-784.88C35.17,-754.22 49.73,-692.59 90,-663 91.65,-661.79 93.33,-660.61 95.03,-659.46"/>
<polygon fill="black" stroke="black" points="97.09,-662.3 103.7,-654.03 93.37,-656.37 97.09,-662.3"/>
</g>
<!-- 1&#45;&gt;170 -->
<g id="edge48" class="edge">
<title>1&#45;&gt;170</title>
<path fill="none" stroke="black" d="M27.7,-784.89C28.12,-745.54 35.18,-652.15 90,-607 91.22,-606 92.45,-605.02 93.69,-604.06"/>
<polygon fill="black" stroke="black" points="96,-606.72 102.13,-598.08 91.95,-601.01 96,-606.72"/>
</g>
<!-- 1&#45;&gt;180 -->
<g id="edge49" class="edge">
<title>1&#45;&gt;180</title>
<path fill="none" stroke="black" d="M29.81,-784.92C35.43,-732.52 54.4,-582.32 90,-551 91.02,-550.1 92.05,-549.22 93.09,-548.36"/>
<polygon fill="black" stroke="black" points="95.48,-550.94 101.32,-542.1 91.24,-545.38 95.48,-550.94"/>
</g>
<!-- 1&#45;&gt;190 -->
<g id="edge50" class="edge">
<title>1&#45;&gt;190</title>
<path fill="none" stroke="black" d="M28.94,-784.88C32.44,-724.95 46.81,-534.66 90,-495 90.98,-494.1 91.97,-493.22 92.97,-492.36"/>
<polygon fill="black" stroke="black" points="95.22,-495.04 100.87,-486.08 90.86,-489.56 95.22,-495.04"/>
</g>
<!-- 1&#45;&gt;197 -->
<g id="edge51" class="edge">
<title>1&#45;&gt;197</title>
<path fill="none" stroke="black" d="M28.33,-784.96C29.93,-718.27 39.13,-487.14 90,-439 90.84,-438.21 91.68,-437.43 92.54,-436.66"/>
<polygon fill="black" stroke="black" points="94.98,-439.18 100.48,-430.13 90.54,-433.78 94.98,-439.18"/>
</g>
<!-- 1&#45;&gt;207 -->
<g id="edge52" class="edge">
<title>1&#45;&gt;207</title>
<path fill="none" stroke="black" d="M27.88,-784.77C27.79,-711.49 31.47,-439.63 90,-383 90.83,-382.2 91.67,-381.41 92.51,-380.64"/>
<polygon fill="black" stroke="black" points="94.98,-383.14 100.39,-374.03 90.48,-377.78 94.98,-383.14"/>
</g>
<!-- 1&#45;&gt;214 -->
<g id="edge53" class="edge">
<title>1&#45;&gt;214</title>
<path fill="none" stroke="black" d="M29.05,-784.92C34.07,-701.9 56.63,-359.84 90,-327 90.8,-326.21 91.61,-325.43 92.44,-324.67"/>
<polygon fill="black" stroke="black" points="94.74,-327.31 100.06,-318.15 90.19,-321.99 94.74,-327.31"/>
</g>
<!-- 1&#45;&gt;224 -->
<g id="edge54" class="edge">
<title>1&#45;&gt;224</title>
<path fill="none" stroke="black" d="M28.8,-784.92C32.87,-696.03 52.72,-308.19 90,-271 90.8,-270.2 91.6,-269.42 92.42,-268.65"/>
<polygon fill="black" stroke="black" points="94.74,-271.28 100,-262.09 90.15,-265.99 94.74,-271.28"/>
</g>
<!-- 1&#45;&gt;236 -->
<g id="edge55" class="edge">
<title>1&#45;&gt;236</title>
<path fill="none" stroke="black" d="M28.58,-784.93C31.81,-690.5 48.8,-256.55 90,-215 90.79,-214.2 91.6,-213.41 92.41,-212.64"/>
<polygon fill="black" stroke="black" points="94.73,-215.26 99.95,-206.04 90.12,-209.99 94.73,-215.26"/>
</g>
<!-- 1&#45;&gt;246 -->
<g id="edge56" class="edge">
<title>1&#45;&gt;246</title>
<path fill="none" stroke="black" d="M28.41,-784.88C30.85,-685.04 44.88,-204.92 90,-159 90.56,-158.43 91.13,-157.86 91.71,-157.3"/>
<polygon fill="black" stroke="black" points="94.3,-159.67 99.42,-150.4 89.64,-154.46 94.3,-159.67"/>
</g>
<!-- 1&#45;&gt;253 -->
<g id="edge57" class="edge">
<title>1&#45;&gt;253</title>
<path fill="none" stroke="black" d="M28.27,-784.7C29.98,-679.38 40.97,-153.28 90,-103 90.56,-102.42 91.13,-101.86 91.7,-101.29"/>
<polygon fill="black" stroke="black" points="94.3,-103.66 99.39,-94.37 89.62,-98.46 94.3,-103.66"/>
</g>
<!-- 1&#45;&gt;263 -->
<g id="edge58" class="edge">
<title>1&#45;&gt;263</title>
<path fill="none" stroke="black" d="M28.14,-784.7C29.17,-674.46 37.03,-101.68 90,-47 90.56,-46.42 91.12,-45.85 91.69,-45.29"/>
<polygon fill="black" stroke="black" points="94.3,-47.65 99.36,-38.34 89.6,-42.46 94.3,-47.65"/>
</g>
</g>
</svg>
