<?xml version="1.0" encoding="UTF-8" standalone="no"?>
<!DOCTYPE svg PUBLIC "-//W3C//DTD SVG 1.1//EN"
 "http://www.w3.org/Graphics/SVG/1.1/DTD/svg11.dtd">
<!-- Generated by graphviz version 2.46.0 (20210118.1747)
 -->
<!-- Title: graphname Pages: 1 -->
<svg width="4824pt" height="4529pt"
 viewBox="0.00 0.00 4824.00 4528.96" xmlns="http://www.w3.org/2000/svg" xmlns:xlink="http://www.w3.org/1999/xlink">
<g id="graph0" class="graph" transform="scale(0.87 0.87) rotate(0) translate(4 5180.68)">
<title>graphname</title>
<polygon fill="white" stroke="transparent" points="-4,4 -4,-5180.68 5518.44,-5180.68 5518.44,4 -4,4"/>
<!-- 9 -->
<g id="node1" class="node">
<title>9</title>
<path fill="yellowgreen" stroke="yellowgreen" d="M2823.86,-539.82C2823.86,-539.82 2724.86,-539.82 2724.86,-539.82 2718.86,-539.82 2712.86,-533.82 2712.86,-527.82 2712.86,-527.82 2712.86,-513.82 2712.86,-513.82 2712.86,-507.82 2718.86,-501.82 2724.86,-501.82 2724.86,-501.82 2823.86,-501.82 2823.86,-501.82 2829.86,-501.82 2835.86,-507.82 2835.86,-513.82 2835.86,-513.82 2835.86,-527.82 2835.86,-527.82 2835.86,-533.82 2829.86,-539.82 2823.86,-539.82"/>
<text text-anchor="middle" x="2774.36" y="-524.62" font-family="Times,serif" font-size="14.00">m_GameObject</text>
<text text-anchor="middle" x="2774.36" y="-509.62" font-family="Times,serif" font-size="14.00">fileID: 1040292123</text>
</g>
<!-- 2 -->
<g id="node2" class="node">
<title>2</title>
<path fill="lightpink" stroke="lightpink" d="M2877.9,-1558.04C2877.9,-1558.04 2416.9,-1558.04 2416.9,-1558.04 2410.9,-1558.04 2404.9,-1552.04 2404.9,-1546.04 2404.9,-1546.04 2404.9,-1532.04 2404.9,-1532.04 2404.9,-1526.04 2410.9,-1520.04 2416.9,-1520.04 2416.9,-1520.04 2877.9,-1520.04 2877.9,-1520.04 2883.9,-1520.04 2889.9,-1526.04 2889.9,-1532.04 2889.9,-1532.04 2889.9,-1546.04 2889.9,-1546.04 2889.9,-1552.04 2883.9,-1558.04 2877.9,-1558.04"/>
<text text-anchor="middle" x="2647.4" y="-1542.84" font-family="Times,serif" font-size="14.00">MonoBehaviour_114_ID1040292125</text>
<text text-anchor="middle" x="2647.4" y="-1527.84" font-family="Times,serif" font-size="14.00">m_Script: {&#39;guid&#39;: &#39;5f7201a12d95ffc409449d95f23cf332&#39;, &#39;type&#39;: 3, &#39;fileID&#39;: 11500000}</text>
</g>
<!-- 2&#45;&gt;9 -->
<g id="edge1" class="edge">
<title>2&#45;&gt;9</title>
<path fill="none" stroke="black" d="M2649.82,-1519.61C2665.44,-1394.36 2751.86,-701.25 2770.72,-549.98"/>
<polygon fill="black" stroke="black" points="2774.2,-550.4 2771.96,-540.04 2767.25,-549.53 2774.2,-550.4"/>
</g>
<!-- 17 -->
<g id="node3" class="node">
<title>17</title>
<path fill="yellowgreen" stroke="yellowgreen" d="M4537.86,-659.49C4537.86,-659.49 4438.86,-659.49 4438.86,-659.49 4432.86,-659.49 4426.86,-653.49 4426.86,-647.49 4426.86,-647.49 4426.86,-633.49 4426.86,-633.49 4426.86,-627.49 4432.86,-621.49 4438.86,-621.49 4438.86,-621.49 4537.86,-621.49 4537.86,-621.49 4543.86,-621.49 4549.86,-627.49 4549.86,-633.49 4549.86,-633.49 4549.86,-647.49 4549.86,-647.49 4549.86,-653.49 4543.86,-659.49 4537.86,-659.49"/>
<text text-anchor="middle" x="4488.36" y="-644.29" font-family="Times,serif" font-size="14.00">m_GameObject</text>
<text text-anchor="middle" x="4488.36" y="-629.29" font-family="Times,serif" font-size="14.00">fileID: 1089201443</text>
</g>
<!-- 12 -->
<g id="node4" class="node">
<title>12</title>
<path fill="lightpink" stroke="lightpink" d="M4026.35,-1534.39C4026.35,-1534.39 3563.35,-1534.39 3563.35,-1534.39 3557.35,-1534.39 3551.35,-1528.39 3551.35,-1522.39 3551.35,-1522.39 3551.35,-1508.39 3551.35,-1508.39 3551.35,-1502.39 3557.35,-1496.39 3563.35,-1496.39 3563.35,-1496.39 4026.35,-1496.39 4026.35,-1496.39 4032.35,-1496.39 4038.35,-1502.39 4038.35,-1508.39 4038.35,-1508.39 4038.35,-1522.39 4038.35,-1522.39 4038.35,-1528.39 4032.35,-1534.39 4026.35,-1534.39"/>
<text text-anchor="middle" x="3794.85" y="-1519.19" font-family="Times,serif" font-size="14.00">MonoBehaviour_114_ID1089201445</text>
<text text-anchor="middle" x="3794.85" y="-1504.19" font-family="Times,serif" font-size="14.00">m_Script: {&#39;guid&#39;: &#39;59f8146938fff824cb5fd77236b75775&#39;, &#39;type&#39;: 3, &#39;fileID&#39;: 11500000}</text>
</g>
<!-- 12&#45;&gt;17 -->
<g id="edge2" class="edge">
<title>12&#45;&gt;17</title>
<path fill="none" stroke="black" d="M3809.98,-1496.3C3899.62,-1383.21 4360.81,-801.4 4466.68,-667.84"/>
<polygon fill="black" stroke="black" points="4469.66,-669.71 4473.13,-659.7 4464.18,-665.37 4469.66,-669.71"/>
</g>
<!-- 26 -->
<g id="node5" class="node">
<title>26</title>
<path fill="yellowgreen" stroke="yellowgreen" d="M1142.61,-535.7C1142.61,-535.7 1050.61,-535.7 1050.61,-535.7 1044.61,-535.7 1038.61,-529.7 1038.61,-523.7 1038.61,-523.7 1038.61,-509.7 1038.61,-509.7 1038.61,-503.7 1044.61,-497.7 1050.61,-497.7 1050.61,-497.7 1142.61,-497.7 1142.61,-497.7 1148.61,-497.7 1154.61,-503.7 1154.61,-509.7 1154.61,-509.7 1154.61,-523.7 1154.61,-523.7 1154.61,-529.7 1148.61,-535.7 1142.61,-535.7"/>
<text text-anchor="middle" x="1096.61" y="-520.5" font-family="Times,serif" font-size="14.00">m_GameObject</text>
<text text-anchor="middle" x="1096.61" y="-505.5" font-family="Times,serif" font-size="14.00">fileID: 628076939</text>
</g>
<!-- 19 -->
<g id="node6" class="node">
<title>19</title>
<path fill="lightpink" stroke="lightpink" d="M1892.36,-1472.4C1892.36,-1472.4 1431.36,-1472.4 1431.36,-1472.4 1425.36,-1472.4 1419.36,-1466.4 1419.36,-1460.4 1419.36,-1460.4 1419.36,-1446.4 1419.36,-1446.4 1419.36,-1440.4 1425.36,-1434.4 1431.36,-1434.4 1431.36,-1434.4 1892.36,-1434.4 1892.36,-1434.4 1898.36,-1434.4 1904.36,-1440.4 1904.36,-1446.4 1904.36,-1446.4 1904.36,-1460.4 1904.36,-1460.4 1904.36,-1466.4 1898.36,-1472.4 1892.36,-1472.4"/>
<text text-anchor="middle" x="1661.86" y="-1457.2" font-family="Times,serif" font-size="14.00">MonoBehaviour_114_ID628076941</text>
<text text-anchor="middle" x="1661.86" y="-1442.2" font-family="Times,serif" font-size="14.00">m_Script: {&#39;guid&#39;: &#39;5f7201a12d95ffc409449d95f23cf332&#39;, &#39;type&#39;: 3, &#39;fileID&#39;: 11500000}</text>
</g>
<!-- 19&#45;&gt;26 -->
<g id="edge3" class="edge">
<title>19&#45;&gt;26</title>
<path fill="none" stroke="black" d="M1650.31,-1434.26C1578.99,-1316.07 1198.68,-685.85 1113.53,-544.74"/>
<polygon fill="black" stroke="black" points="1116.3,-542.56 1108.14,-535.8 1110.31,-546.17 1116.3,-542.56"/>
</g>
<!-- 36 -->
<g id="node7" class="node">
<title>36</title>
<path fill="yellowgreen" stroke="yellowgreen" d="M111,-2733.03C111,-2733.03 12,-2733.03 12,-2733.03 6,-2733.03 0,-2727.03 0,-2721.03 0,-2721.03 0,-2707.03 0,-2707.03 0,-2701.03 6,-2695.03 12,-2695.03 12,-2695.03 111,-2695.03 111,-2695.03 117,-2695.03 123,-2701.03 123,-2707.03 123,-2707.03 123,-2721.03 123,-2721.03 123,-2727.03 117,-2733.03 111,-2733.03"/>
<text text-anchor="middle" x="61.5" y="-2717.83" font-family="Times,serif" font-size="14.00">m_GameObject</text>
<text text-anchor="middle" x="61.5" y="-2702.83" font-family="Times,serif" font-size="14.00">fileID: 1525520955</text>
</g>
<!-- 29 -->
<g id="node8" class="node">
<title>29</title>
<path fill="lightpink" stroke="lightpink" d="M1393.46,-2665.13C1393.46,-2665.13 932.46,-2665.13 932.46,-2665.13 926.46,-2665.13 920.46,-2659.13 920.46,-2653.13 920.46,-2653.13 920.46,-2639.13 920.46,-2639.13 920.46,-2633.13 926.46,-2627.13 932.46,-2627.13 932.46,-2627.13 1393.46,-2627.13 1393.46,-2627.13 1399.46,-2627.13 1405.46,-2633.13 1405.46,-2639.13 1405.46,-2639.13 1405.46,-2653.13 1405.46,-2653.13 1405.46,-2659.13 1399.46,-2665.13 1393.46,-2665.13"/>
<text text-anchor="middle" x="1162.96" y="-2649.93" font-family="Times,serif" font-size="14.00">MonoBehaviour_114_ID1525520957</text>
<text text-anchor="middle" x="1162.96" y="-2634.93" font-family="Times,serif" font-size="14.00">m_Script: {&#39;guid&#39;: &#39;4e29b1a8efbd4b44bb3f3716e73f07ff&#39;, &#39;type&#39;: 3, &#39;fileID&#39;: 11500000}</text>
</g>
<!-- 29&#45;&gt;36 -->
<g id="edge4" class="edge">
<title>29&#45;&gt;36</title>
<path fill="none" stroke="black" d="M920.21,-2661.09C668.49,-2676.61 290.25,-2699.93 133.5,-2709.59"/>
<polygon fill="black" stroke="black" points="132.82,-2706.13 123.05,-2710.24 133.25,-2713.12 132.82,-2706.13"/>
</g>
<!-- 48 -->
<g id="node9" class="node">
<title>48</title>
<path fill="yellowgreen" stroke="yellowgreen" d="M1886.38,-55.39C1886.38,-55.39 1787.38,-55.39 1787.38,-55.39 1781.38,-55.39 1775.38,-49.39 1775.38,-43.39 1775.38,-43.39 1775.38,-29.39 1775.38,-29.39 1775.38,-23.39 1781.38,-17.39 1787.38,-17.39 1787.38,-17.39 1886.38,-17.39 1886.38,-17.39 1892.38,-17.39 1898.38,-23.39 1898.38,-29.39 1898.38,-29.39 1898.38,-43.39 1898.38,-43.39 1898.38,-49.39 1892.38,-55.39 1886.38,-55.39"/>
<text text-anchor="middle" x="1836.88" y="-40.19" font-family="Times,serif" font-size="14.00">m_GameObject</text>
<text text-anchor="middle" x="1836.88" y="-25.19" font-family="Times,serif" font-size="14.00">fileID: 1285890736</text>
</g>
<!-- 41 -->
<g id="node10" class="node">
<title>41</title>
<path fill="lightpink" stroke="lightpink" d="M2500.21,-1046.67C2500.21,-1046.67 2039.21,-1046.67 2039.21,-1046.67 2033.21,-1046.67 2027.21,-1040.67 2027.21,-1034.67 2027.21,-1034.67 2027.21,-1020.67 2027.21,-1020.67 2027.21,-1014.67 2033.21,-1008.67 2039.21,-1008.67 2039.21,-1008.67 2500.21,-1008.67 2500.21,-1008.67 2506.21,-1008.67 2512.21,-1014.67 2512.21,-1020.67 2512.21,-1020.67 2512.21,-1034.67 2512.21,-1034.67 2512.21,-1040.67 2506.21,-1046.67 2500.21,-1046.67"/>
<text text-anchor="middle" x="2269.71" y="-1031.47" font-family="Times,serif" font-size="14.00">MonoBehaviour_114_ID1285890738</text>
<text text-anchor="middle" x="2269.71" y="-1016.47" font-family="Times,serif" font-size="14.00">m_Script: {&#39;guid&#39;: &#39;5f7201a12d95ffc409449d95f23cf332&#39;, &#39;type&#39;: 3, &#39;fileID&#39;: 11500000}</text>
</g>
<!-- 41&#45;&gt;48 -->
<g id="edge5" class="edge">
<title>41&#45;&gt;48</title>
<path fill="none" stroke="black" d="M2261.26,-1008.31C2207.5,-885.19 1913.46,-211.79 1849.26,-64.76"/>
<polygon fill="black" stroke="black" points="1852.41,-63.23 1845.21,-55.47 1846,-66.03 1852.41,-63.23"/>
</g>
<!-- 58 -->
<g id="node11" class="node">
<title>58</title>
<path fill="yellowgreen" stroke="yellowgreen" d="M1942.37,-4450.73C1942.37,-4450.73 1850.37,-4450.73 1850.37,-4450.73 1844.37,-4450.73 1838.37,-4444.73 1838.37,-4438.73 1838.37,-4438.73 1838.37,-4424.73 1838.37,-4424.73 1838.37,-4418.73 1844.37,-4412.73 1850.37,-4412.73 1850.37,-4412.73 1942.37,-4412.73 1942.37,-4412.73 1948.37,-4412.73 1954.37,-4418.73 1954.37,-4424.73 1954.37,-4424.73 1954.37,-4438.73 1954.37,-4438.73 1954.37,-4444.73 1948.37,-4450.73 1942.37,-4450.73"/>
<text text-anchor="middle" x="1896.37" y="-4435.53" font-family="Times,serif" font-size="14.00">m_GameObject</text>
<text text-anchor="middle" x="1896.37" y="-4420.53" font-family="Times,serif" font-size="14.00">fileID: 530533593</text>
</g>
<!-- 51 -->
<g id="node12" class="node">
<title>51</title>
<path fill="lightpink" stroke="lightpink" d="M2548.98,-3542.8C2548.98,-3542.8 2087.98,-3542.8 2087.98,-3542.8 2081.98,-3542.8 2075.98,-3536.8 2075.98,-3530.8 2075.98,-3530.8 2075.98,-3516.8 2075.98,-3516.8 2075.98,-3510.8 2081.98,-3504.8 2087.98,-3504.8 2087.98,-3504.8 2548.98,-3504.8 2548.98,-3504.8 2554.98,-3504.8 2560.98,-3510.8 2560.98,-3516.8 2560.98,-3516.8 2560.98,-3530.8 2560.98,-3530.8 2560.98,-3536.8 2554.98,-3542.8 2548.98,-3542.8"/>
<text text-anchor="middle" x="2318.48" y="-3527.6" font-family="Times,serif" font-size="14.00">MonoBehaviour_114_ID530533596</text>
<text text-anchor="middle" x="2318.48" y="-3512.6" font-family="Times,serif" font-size="14.00">m_Script: {&#39;guid&#39;: &#39;fe87c0e1cc204ed48ad3b37840f39efc&#39;, &#39;type&#39;: 3, &#39;fileID&#39;: 11500000}</text>
</g>
<!-- 51&#45;&gt;58 -->
<g id="edge6" class="edge">
<title>51&#45;&gt;58</title>
<path fill="none" stroke="black" d="M2309.47,-3543.18C2255.39,-3659.51 1974.06,-4264.6 1909.56,-4403.36"/>
<polygon fill="black" stroke="black" points="1906.33,-4401.98 1905.29,-4412.53 1912.68,-4404.93 1906.33,-4401.98"/>
</g>
<!-- 68 -->
<g id="node13" class="node">
<title>68</title>
<path fill="yellowgreen" stroke="yellowgreen" d="M279.6,-1643.89C279.6,-1643.89 187.6,-1643.89 187.6,-1643.89 181.6,-1643.89 175.6,-1637.89 175.6,-1631.89 175.6,-1631.89 175.6,-1617.89 175.6,-1617.89 175.6,-1611.89 181.6,-1605.89 187.6,-1605.89 187.6,-1605.89 279.6,-1605.89 279.6,-1605.89 285.6,-1605.89 291.6,-1611.89 291.6,-1617.89 291.6,-1617.89 291.6,-1631.89 291.6,-1631.89 291.6,-1637.89 285.6,-1643.89 279.6,-1643.89"/>
<text text-anchor="middle" x="233.6" y="-1628.69" font-family="Times,serif" font-size="14.00">m_GameObject</text>
<text text-anchor="middle" x="233.6" y="-1613.69" font-family="Times,serif" font-size="14.00">fileID: 530533593</text>
</g>
<!-- 61 -->
<g id="node14" class="node">
<title>61</title>
<path fill="lightpink" stroke="lightpink" d="M1479.95,-2092.03C1479.95,-2092.03 1018.95,-2092.03 1018.95,-2092.03 1012.95,-2092.03 1006.95,-2086.03 1006.95,-2080.03 1006.95,-2080.03 1006.95,-2066.03 1006.95,-2066.03 1006.95,-2060.03 1012.95,-2054.03 1018.95,-2054.03 1018.95,-2054.03 1479.95,-2054.03 1479.95,-2054.03 1485.95,-2054.03 1491.95,-2060.03 1491.95,-2066.03 1491.95,-2066.03 1491.95,-2080.03 1491.95,-2080.03 1491.95,-2086.03 1485.95,-2092.03 1479.95,-2092.03"/>
<text text-anchor="middle" x="1249.45" y="-2076.83" font-family="Times,serif" font-size="14.00">MonoBehaviour_114_ID530533595</text>
<text text-anchor="middle" x="1249.45" y="-2061.83" font-family="Times,serif" font-size="14.00">m_Script: {&#39;guid&#39;: &#39;4e29b1a8efbd4b44bb3f3716e73f07ff&#39;, &#39;type&#39;: 3, &#39;fileID&#39;: 11500000}</text>
</g>
<!-- 61&#45;&gt;68 -->
<g id="edge7" class="edge">
<title>61&#45;&gt;68</title>
<path fill="none" stroke="black" d="M1206.12,-2053.92C1042.7,-1981.82 463.91,-1726.49 286.01,-1648.01"/>
<polygon fill="black" stroke="black" points="287.41,-1644.81 276.85,-1643.97 284.59,-1651.21 287.41,-1644.81"/>
</g>
<!-- 76 -->
<g id="node15" class="node">
<title>76</title>
<path fill="yellowgreen" stroke="yellowgreen" d="M2915.68,-4964.36C2915.68,-4964.36 2823.68,-4964.36 2823.68,-4964.36 2817.68,-4964.36 2811.68,-4958.36 2811.68,-4952.36 2811.68,-4952.36 2811.68,-4938.36 2811.68,-4938.36 2811.68,-4932.36 2817.68,-4926.36 2823.68,-4926.36 2823.68,-4926.36 2915.68,-4926.36 2915.68,-4926.36 2921.68,-4926.36 2927.68,-4932.36 2927.68,-4938.36 2927.68,-4938.36 2927.68,-4952.36 2927.68,-4952.36 2927.68,-4958.36 2921.68,-4964.36 2915.68,-4964.36"/>
<text text-anchor="middle" x="2869.68" y="-4949.16" font-family="Times,serif" font-size="14.00">m_GameObject</text>
<text text-anchor="middle" x="2869.68" y="-4934.16" font-family="Times,serif" font-size="14.00">fileID: 361157713</text>
</g>
<!-- 73 -->
<g id="node16" class="node">
<title>73</title>
<path fill="lightpink" stroke="lightpink" d="M3052.05,-3895.14C3052.05,-3895.14 2587.05,-3895.14 2587.05,-3895.14 2581.05,-3895.14 2575.05,-3889.14 2575.05,-3883.14 2575.05,-3883.14 2575.05,-3869.14 2575.05,-3869.14 2575.05,-3863.14 2581.05,-3857.14 2587.05,-3857.14 2587.05,-3857.14 3052.05,-3857.14 3052.05,-3857.14 3058.05,-3857.14 3064.05,-3863.14 3064.05,-3869.14 3064.05,-3869.14 3064.05,-3883.14 3064.05,-3883.14 3064.05,-3889.14 3058.05,-3895.14 3052.05,-3895.14"/>
<text text-anchor="middle" x="2819.55" y="-3879.94" font-family="Times,serif" font-size="14.00">MonoBehaviour_114_ID361157715</text>
<text text-anchor="middle" x="2819.55" y="-3864.94" font-family="Times,serif" font-size="14.00">m_Script: {&#39;guid&#39;: &#39;76c392e42b5098c458856cdf6ecaaaa1&#39;, &#39;type&#39;: 3, &#39;fileID&#39;: 11500000}</text>
</g>
<!-- 73&#45;&gt;76 -->
<g id="edge8" class="edge">
<title>73&#45;&gt;76</title>
<path fill="none" stroke="black" d="M2820.44,-3895.15C2826.45,-4023.2 2860.96,-4759.46 2868.3,-4916.07"/>
<polygon fill="black" stroke="black" points="2864.82,-4916.5 2868.79,-4926.33 2871.81,-4916.18 2864.82,-4916.5"/>
</g>
<!-- 84 -->
<g id="node17" class="node">
<title>84</title>
<path fill="yellowgreen" stroke="yellowgreen" d="M398.69,-3428.3C398.69,-3428.3 306.69,-3428.3 306.69,-3428.3 300.69,-3428.3 294.69,-3422.3 294.69,-3416.3 294.69,-3416.3 294.69,-3402.3 294.69,-3402.3 294.69,-3396.3 300.69,-3390.3 306.69,-3390.3 306.69,-3390.3 398.69,-3390.3 398.69,-3390.3 404.69,-3390.3 410.69,-3396.3 410.69,-3402.3 410.69,-3402.3 410.69,-3416.3 410.69,-3416.3 410.69,-3422.3 404.69,-3428.3 398.69,-3428.3"/>
<text text-anchor="middle" x="352.69" y="-3413.1" font-family="Times,serif" font-size="14.00">m_GameObject</text>
<text text-anchor="middle" x="352.69" y="-3398.1" font-family="Times,serif" font-size="14.00">fileID: 361157713</text>
</g>
<!-- 80 -->
<g id="node18" class="node">
<title>80</title>
<path fill="lightpink" stroke="lightpink" d="M1625.6,-3051.9C1625.6,-3051.9 1159.6,-3051.9 1159.6,-3051.9 1153.6,-3051.9 1147.6,-3045.9 1147.6,-3039.9 1147.6,-3039.9 1147.6,-3025.9 1147.6,-3025.9 1147.6,-3019.9 1153.6,-3013.9 1159.6,-3013.9 1159.6,-3013.9 1625.6,-3013.9 1625.6,-3013.9 1631.6,-3013.9 1637.6,-3019.9 1637.6,-3025.9 1637.6,-3025.9 1637.6,-3039.9 1637.6,-3039.9 1637.6,-3045.9 1631.6,-3051.9 1625.6,-3051.9"/>
<text text-anchor="middle" x="1392.6" y="-3036.7" font-family="Times,serif" font-size="14.00">MonoBehaviour_114_ID361157714</text>
<text text-anchor="middle" x="1392.6" y="-3021.7" font-family="Times,serif" font-size="14.00">m_Script: {&#39;guid&#39;: &#39;4f231c4fb786f3946a6b90b886c48677&#39;, &#39;type&#39;: 3, &#39;fileID&#39;: 11500000}</text>
</g>
<!-- 80&#45;&gt;84 -->
<g id="edge9" class="edge">
<title>80&#45;&gt;84</title>
<path fill="none" stroke="black" d="M1339.96,-3051.95C1164.95,-3115.3 603.04,-3318.69 414.8,-3386.82"/>
<polygon fill="black" stroke="black" points="413.54,-3383.55 405.33,-3390.25 415.92,-3390.14 413.54,-3383.55"/>
</g>
<!-- 93 -->
<g id="node19" class="node">
<title>93</title>
<path fill="yellowgreen" stroke="yellowgreen" d="M4592.34,-3941.23C4592.34,-3941.23 4500.34,-3941.23 4500.34,-3941.23 4494.34,-3941.23 4488.34,-3935.23 4488.34,-3929.23 4488.34,-3929.23 4488.34,-3915.23 4488.34,-3915.23 4488.34,-3909.23 4494.34,-3903.23 4500.34,-3903.23 4500.34,-3903.23 4592.34,-3903.23 4592.34,-3903.23 4598.34,-3903.23 4604.34,-3909.23 4604.34,-3915.23 4604.34,-3915.23 4604.34,-3929.23 4604.34,-3929.23 4604.34,-3935.23 4598.34,-3941.23 4592.34,-3941.23"/>
<text text-anchor="middle" x="4546.34" y="-3926.03" font-family="Times,serif" font-size="14.00">m_GameObject</text>
<text text-anchor="middle" x="4546.34" y="-3911.03" font-family="Times,serif" font-size="14.00">fileID: 808250884</text>
</g>
<!-- 86 -->
<g id="node20" class="node">
<title>86</title>
<path fill="lightpink" stroke="lightpink" d="M3912.77,-3324.52C3912.77,-3324.52 3451.77,-3324.52 3451.77,-3324.52 3445.77,-3324.52 3439.77,-3318.52 3439.77,-3312.52 3439.77,-3312.52 3439.77,-3298.52 3439.77,-3298.52 3439.77,-3292.52 3445.77,-3286.52 3451.77,-3286.52 3451.77,-3286.52 3912.77,-3286.52 3912.77,-3286.52 3918.77,-3286.52 3924.77,-3292.52 3924.77,-3298.52 3924.77,-3298.52 3924.77,-3312.52 3924.77,-3312.52 3924.77,-3318.52 3918.77,-3324.52 3912.77,-3324.52"/>
<text text-anchor="middle" x="3682.27" y="-3309.32" font-family="Times,serif" font-size="14.00">MonoBehaviour_114_ID808250886</text>
<text text-anchor="middle" x="3682.27" y="-3294.32" font-family="Times,serif" font-size="14.00">m_Script: {&#39;guid&#39;: &#39;5f7201a12d95ffc409449d95f23cf332&#39;, &#39;type&#39;: 3, &#39;fileID&#39;: 11500000}</text>
</g>
<!-- 86&#45;&gt;93 -->
<g id="edge10" class="edge">
<title>86&#45;&gt;93</title>
<path fill="none" stroke="black" d="M3709.07,-3324.65C3835.05,-3414.56 4368.05,-3794.99 4510.96,-3896.98"/>
<polygon fill="black" stroke="black" points="4509.24,-3900.06 4519.41,-3903.02 4513.31,-3894.36 4509.24,-3900.06"/>
</g>
<!-- 103 -->
<g id="node21" class="node">
<title>103</title>
<path fill="yellowgreen" stroke="yellowgreen" d="M5271.96,-1541.74C5271.96,-1541.74 5172.96,-1541.74 5172.96,-1541.74 5166.96,-1541.74 5160.96,-1535.74 5160.96,-1529.74 5160.96,-1529.74 5160.96,-1515.74 5160.96,-1515.74 5160.96,-1509.74 5166.96,-1503.74 5172.96,-1503.74 5172.96,-1503.74 5271.96,-1503.74 5271.96,-1503.74 5277.96,-1503.74 5283.96,-1509.74 5283.96,-1515.74 5283.96,-1515.74 5283.96,-1529.74 5283.96,-1529.74 5283.96,-1535.74 5277.96,-1541.74 5271.96,-1541.74"/>
<text text-anchor="middle" x="5222.46" y="-1526.54" font-family="Times,serif" font-size="14.00">m_GameObject</text>
<text text-anchor="middle" x="5222.46" y="-1511.54" font-family="Times,serif" font-size="14.00">fileID: 1747895406</text>
</g>
<!-- 96 -->
<g id="node22" class="node">
<title>96</title>
<path fill="lightpink" stroke="lightpink" d="M4430,-1996.83C4430,-1996.83 3969,-1996.83 3969,-1996.83 3963,-1996.83 3957,-1990.83 3957,-1984.83 3957,-1984.83 3957,-1970.83 3957,-1970.83 3957,-1964.83 3963,-1958.83 3969,-1958.83 3969,-1958.83 4430,-1958.83 4430,-1958.83 4436,-1958.83 4442,-1964.83 4442,-1970.83 4442,-1970.83 4442,-1984.83 4442,-1984.83 4442,-1990.83 4436,-1996.83 4430,-1996.83"/>
<text text-anchor="middle" x="4199.5" y="-1981.63" font-family="Times,serif" font-size="14.00">MonoBehaviour_114_ID1747895408</text>
<text text-anchor="middle" x="4199.5" y="-1966.63" font-family="Times,serif" font-size="14.00">m_Script: {&#39;guid&#39;: &#39;5f7201a12d95ffc409449d95f23cf332&#39;, &#39;type&#39;: 3, &#39;fileID&#39;: 11500000}</text>
</g>
<!-- 96&#45;&gt;103 -->
<g id="edge11" class="edge">
<title>96&#45;&gt;103</title>
<path fill="none" stroke="black" d="M4242.47,-1958.71C4406.39,-1885.79 4992.05,-1625.25 5170.49,-1545.86"/>
<polygon fill="black" stroke="black" points="5171.96,-1549.04 5179.67,-1541.78 5169.11,-1542.65 5171.96,-1549.04"/>
</g>
<!-- 109 -->
<g id="node23" class="node">
<title>109</title>
<path fill="yellowgreen" stroke="yellowgreen" d="M4138.71,-2856.81C4138.71,-2856.81 4039.71,-2856.81 4039.71,-2856.81 4033.71,-2856.81 4027.71,-2850.81 4027.71,-2844.81 4027.71,-2844.81 4027.71,-2830.81 4027.71,-2830.81 4027.71,-2824.81 4033.71,-2818.81 4039.71,-2818.81 4039.71,-2818.81 4138.71,-2818.81 4138.71,-2818.81 4144.71,-2818.81 4150.71,-2824.81 4150.71,-2830.81 4150.71,-2830.81 4150.71,-2844.81 4150.71,-2844.81 4150.71,-2850.81 4144.71,-2856.81 4138.71,-2856.81"/>
<text text-anchor="middle" x="4089.21" y="-2841.61" font-family="Times,serif" font-size="14.00">m_GameObject</text>
<text text-anchor="middle" x="4089.21" y="-2826.61" font-family="Times,serif" font-size="14.00">fileID: 2009980923</text>
</g>
<!-- 106 -->
<g id="node24" class="node">
<title>106</title>
<path fill="lightpink" stroke="lightpink" d="M3603.72,-2720.25C3603.72,-2720.25 3137.72,-2720.25 3137.72,-2720.25 3131.72,-2720.25 3125.72,-2714.25 3125.72,-2708.25 3125.72,-2708.25 3125.72,-2694.25 3125.72,-2694.25 3125.72,-2688.25 3131.72,-2682.25 3137.72,-2682.25 3137.72,-2682.25 3603.72,-2682.25 3603.72,-2682.25 3609.72,-2682.25 3615.72,-2688.25 3615.72,-2694.25 3615.72,-2694.25 3615.72,-2708.25 3615.72,-2708.25 3615.72,-2714.25 3609.72,-2720.25 3603.72,-2720.25"/>
<text text-anchor="middle" x="3370.72" y="-2705.05" font-family="Times,serif" font-size="14.00">MonoBehaviour_114_ID2009980924</text>
<text text-anchor="middle" x="3370.72" y="-2690.05" font-family="Times,serif" font-size="14.00">m_Script: {&#39;guid&#39;: &#39;dc42784cf147c0c48a680349fa168899&#39;, &#39;type&#39;: 3, &#39;fileID&#39;: 11500000}</text>
</g>
<!-- 106&#45;&gt;109 -->
<g id="edge12" class="edge">
<title>106&#45;&gt;109</title>
<path fill="none" stroke="black" d="M3471.01,-2720.31C3618.1,-2748.27 3888.82,-2799.73 4017.56,-2824.2"/>
<polygon fill="black" stroke="black" points="4017.23,-2827.7 4027.71,-2826.12 4018.54,-2820.82 4017.23,-2827.7"/>
</g>
<!-- 118 -->
<g id="node25" class="node">
<title>118</title>
<path fill="yellowgreen" stroke="yellowgreen" d="M1264.75,-4709.53C1264.75,-4709.53 1184.75,-4709.53 1184.75,-4709.53 1178.75,-4709.53 1172.75,-4703.53 1172.75,-4697.53 1172.75,-4697.53 1172.75,-4683.53 1172.75,-4683.53 1172.75,-4677.53 1178.75,-4671.53 1184.75,-4671.53 1184.75,-4671.53 1264.75,-4671.53 1264.75,-4671.53 1270.75,-4671.53 1276.75,-4677.53 1276.75,-4683.53 1276.75,-4683.53 1276.75,-4697.53 1276.75,-4697.53 1276.75,-4703.53 1270.75,-4709.53 1264.75,-4709.53"/>
<text text-anchor="middle" x="1224.75" y="-4694.33" font-family="Times,serif" font-size="14.00">m_GameObject</text>
<text text-anchor="middle" x="1224.75" y="-4679.33" font-family="Times,serif" font-size="14.00">fileID: 5973995</text>
</g>
<!-- 113 -->
<g id="node26" class="node">
<title>113</title>
<path fill="lightpink" stroke="lightpink" d="M2106.32,-3818.56C2106.32,-3818.56 1643.32,-3818.56 1643.32,-3818.56 1637.32,-3818.56 1631.32,-3812.56 1631.32,-3806.56 1631.32,-3806.56 1631.32,-3792.56 1631.32,-3792.56 1631.32,-3786.56 1637.32,-3780.56 1643.32,-3780.56 1643.32,-3780.56 2106.32,-3780.56 2106.32,-3780.56 2112.32,-3780.56 2118.32,-3786.56 2118.32,-3792.56 2118.32,-3792.56 2118.32,-3806.56 2118.32,-3806.56 2118.32,-3812.56 2112.32,-3818.56 2106.32,-3818.56"/>
<text text-anchor="middle" x="1874.82" y="-3803.36" font-family="Times,serif" font-size="14.00">MonoBehaviour_114_ID5973997</text>
<text text-anchor="middle" x="1874.82" y="-3788.36" font-family="Times,serif" font-size="14.00">m_Script: {&#39;guid&#39;: &#39;59f8146938fff824cb5fd77236b75775&#39;, &#39;type&#39;: 3, &#39;fileID&#39;: 11500000}</text>
</g>
<!-- 113&#45;&gt;118 -->
<g id="edge13" class="edge">
<title>113&#45;&gt;118</title>
<path fill="none" stroke="black" d="M1860.94,-3818.58C1777.57,-3932.84 1343.61,-4527.62 1244.79,-4663.06"/>
<polygon fill="black" stroke="black" points="1241.84,-4661.16 1238.78,-4671.3 1247.5,-4665.29 1241.84,-4661.16"/>
</g>
<!-- 127 -->
<g id="node27" class="node">
<title>127</title>
<path fill="yellowgreen" stroke="yellowgreen" d="M4464.47,-1287.12C4464.47,-1287.12 4372.47,-1287.12 4372.47,-1287.12 4366.47,-1287.12 4360.47,-1281.12 4360.47,-1275.12 4360.47,-1275.12 4360.47,-1261.12 4360.47,-1261.12 4360.47,-1255.12 4366.47,-1249.12 4372.47,-1249.12 4372.47,-1249.12 4464.47,-1249.12 4464.47,-1249.12 4470.47,-1249.12 4476.47,-1255.12 4476.47,-1261.12 4476.47,-1261.12 4476.47,-1275.12 4476.47,-1275.12 4476.47,-1281.12 4470.47,-1287.12 4464.47,-1287.12"/>
<text text-anchor="middle" x="4418.47" y="-1271.92" font-family="Times,serif" font-size="14.00">m_GameObject</text>
<text text-anchor="middle" x="4418.47" y="-1256.92" font-family="Times,serif" font-size="14.00">fileID: 132945516</text>
</g>
<!-- 120 -->
<g id="node28" class="node">
<title>120</title>
<path fill="lightpink" stroke="lightpink" d="M3884.75,-1943.79C3884.75,-1943.79 3423.75,-1943.79 3423.75,-1943.79 3417.75,-1943.79 3411.75,-1937.79 3411.75,-1931.79 3411.75,-1931.79 3411.75,-1917.79 3411.75,-1917.79 3411.75,-1911.79 3417.75,-1905.79 3423.75,-1905.79 3423.75,-1905.79 3884.75,-1905.79 3884.75,-1905.79 3890.75,-1905.79 3896.75,-1911.79 3896.75,-1917.79 3896.75,-1917.79 3896.75,-1931.79 3896.75,-1931.79 3896.75,-1937.79 3890.75,-1943.79 3884.75,-1943.79"/>
<text text-anchor="middle" x="3654.25" y="-1928.59" font-family="Times,serif" font-size="14.00">MonoBehaviour_114_ID132945518</text>
<text text-anchor="middle" x="3654.25" y="-1913.59" font-family="Times,serif" font-size="14.00">m_Script: {&#39;guid&#39;: &#39;5f7201a12d95ffc409449d95f23cf332&#39;, &#39;type&#39;: 3, &#39;fileID&#39;: 11500000}</text>
</g>
<!-- 120&#45;&gt;127 -->
<g id="edge14" class="edge">
<title>120&#45;&gt;127</title>
<path fill="none" stroke="black" d="M3676.71,-1905.49C3786.12,-1811.48 4263.08,-1401.64 4388.28,-1294.06"/>
<polygon fill="black" stroke="black" points="4390.71,-1296.59 4396.01,-1287.42 4386.15,-1291.28 4390.71,-1296.59"/>
</g>
<!-- 137 -->
<g id="node29" class="node">
<title>137</title>
<path fill="yellowgreen" stroke="yellowgreen" d="M3528.88,-4023.95C3528.88,-4023.95 3436.88,-4023.95 3436.88,-4023.95 3430.88,-4023.95 3424.88,-4017.95 3424.88,-4011.95 3424.88,-4011.95 3424.88,-3997.95 3424.88,-3997.95 3424.88,-3991.95 3430.88,-3985.95 3436.88,-3985.95 3436.88,-3985.95 3528.88,-3985.95 3528.88,-3985.95 3534.88,-3985.95 3540.88,-3991.95 3540.88,-3997.95 3540.88,-3997.95 3540.88,-4011.95 3540.88,-4011.95 3540.88,-4017.95 3534.88,-4023.95 3528.88,-4023.95"/>
<text text-anchor="middle" x="3482.88" y="-4008.75" font-family="Times,serif" font-size="14.00">m_GameObject</text>
<text text-anchor="middle" x="3482.88" y="-3993.75" font-family="Times,serif" font-size="14.00">fileID: 130449831</text>
</g>
<!-- 130 -->
<g id="node30" class="node">
<title>130</title>
<path fill="lightpink" stroke="lightpink" d="M3314.29,-3395.56C3314.29,-3395.56 2853.29,-3395.56 2853.29,-3395.56 2847.29,-3395.56 2841.29,-3389.56 2841.29,-3383.56 2841.29,-3383.56 2841.29,-3369.56 2841.29,-3369.56 2841.29,-3363.56 2847.29,-3357.56 2853.29,-3357.56 2853.29,-3357.56 3314.29,-3357.56 3314.29,-3357.56 3320.29,-3357.56 3326.29,-3363.56 3326.29,-3369.56 3326.29,-3369.56 3326.29,-3383.56 3326.29,-3383.56 3326.29,-3389.56 3320.29,-3395.56 3314.29,-3395.56"/>
<text text-anchor="middle" x="3083.79" y="-3380.36" font-family="Times,serif" font-size="14.00">MonoBehaviour_114_ID130449834</text>
<text text-anchor="middle" x="3083.79" y="-3365.36" font-family="Times,serif" font-size="14.00">m_Script: {&#39;guid&#39;: &#39;fe87c0e1cc204ed48ad3b37840f39efc&#39;, &#39;type&#39;: 3, &#39;fileID&#39;: 11500000}</text>
</g>
<!-- 130&#45;&gt;137 -->
<g id="edge15" class="edge">
<title>130&#45;&gt;137</title>
<path fill="none" stroke="black" d="M3095.95,-3395.71C3153.39,-3486.15 3397.52,-3870.55 3465.34,-3977.34"/>
<polygon fill="black" stroke="black" points="3462.5,-3979.39 3470.81,-3985.95 3468.4,-3975.63 3462.5,-3979.39"/>
</g>
<!-- 147 -->
<g id="node31" class="node">
<title>147</title>
<path fill="yellowgreen" stroke="yellowgreen" d="M4969.2,-2189.97C4969.2,-2189.97 4870.2,-2189.97 4870.2,-2189.97 4864.2,-2189.97 4858.2,-2183.97 4858.2,-2177.97 4858.2,-2177.97 4858.2,-2163.97 4858.2,-2163.97 4858.2,-2157.97 4864.2,-2151.97 4870.2,-2151.97 4870.2,-2151.97 4969.2,-2151.97 4969.2,-2151.97 4975.2,-2151.97 4981.2,-2157.97 4981.2,-2163.97 4981.2,-2163.97 4981.2,-2177.97 4981.2,-2177.97 4981.2,-2183.97 4975.2,-2189.97 4969.2,-2189.97"/>
<text text-anchor="middle" x="4919.7" y="-2174.77" font-family="Times,serif" font-size="14.00">m_GameObject</text>
<text text-anchor="middle" x="4919.7" y="-2159.77" font-family="Times,serif" font-size="14.00">fileID: 1651329295</text>
</g>
<!-- 140 -->
<g id="node32" class="node">
<title>140</title>
<path fill="lightpink" stroke="lightpink" d="M4093.34,-2393.47C4093.34,-2393.47 3632.34,-2393.47 3632.34,-2393.47 3626.34,-2393.47 3620.34,-2387.47 3620.34,-2381.47 3620.34,-2381.47 3620.34,-2367.47 3620.34,-2367.47 3620.34,-2361.47 3626.34,-2355.47 3632.34,-2355.47 3632.34,-2355.47 4093.34,-2355.47 4093.34,-2355.47 4099.34,-2355.47 4105.34,-2361.47 4105.34,-2367.47 4105.34,-2367.47 4105.34,-2381.47 4105.34,-2381.47 4105.34,-2387.47 4099.34,-2393.47 4093.34,-2393.47"/>
<text text-anchor="middle" x="3862.84" y="-2378.27" font-family="Times,serif" font-size="14.00">MonoBehaviour_114_ID1651329297</text>
<text text-anchor="middle" x="3862.84" y="-2363.27" font-family="Times,serif" font-size="14.00">m_Script: {&#39;guid&#39;: &#39;5f7201a12d95ffc409449d95f23cf332&#39;, &#39;type&#39;: 3, &#39;fileID&#39;: 11500000}</text>
</g>
<!-- 140&#45;&gt;147 -->
<g id="edge16" class="edge">
<title>140&#45;&gt;147</title>
<path fill="none" stroke="black" d="M3961.79,-2355.41C4173.04,-2314.74 4663.87,-2220.23 4848.11,-2184.75"/>
<polygon fill="black" stroke="black" points="4848.81,-2188.18 4857.96,-2182.86 4847.48,-2181.31 4848.81,-2188.18"/>
</g>
<!-- 157 -->
<g id="node33" class="node">
<title>157</title>
<path fill="yellowgreen" stroke="yellowgreen" d="M861.1,-1227.06C861.1,-1227.06 769.1,-1227.06 769.1,-1227.06 763.1,-1227.06 757.1,-1221.06 757.1,-1215.06 757.1,-1215.06 757.1,-1201.06 757.1,-1201.06 757.1,-1195.06 763.1,-1189.06 769.1,-1189.06 769.1,-1189.06 861.1,-1189.06 861.1,-1189.06 867.1,-1189.06 873.1,-1195.06 873.1,-1201.06 873.1,-1201.06 873.1,-1215.06 873.1,-1215.06 873.1,-1221.06 867.1,-1227.06 861.1,-1227.06"/>
<text text-anchor="middle" x="815.1" y="-1211.86" font-family="Times,serif" font-size="14.00">m_GameObject</text>
<text text-anchor="middle" x="815.1" y="-1196.86" font-family="Times,serif" font-size="14.00">fileID: 960558223</text>
</g>
<!-- 150 -->
<g id="node34" class="node">
<title>150</title>
<path fill="lightpink" stroke="lightpink" d="M1896.69,-1874.95C1896.69,-1874.95 1435.69,-1874.95 1435.69,-1874.95 1429.69,-1874.95 1423.69,-1868.95 1423.69,-1862.95 1423.69,-1862.95 1423.69,-1848.95 1423.69,-1848.95 1423.69,-1842.95 1429.69,-1836.95 1435.69,-1836.95 1435.69,-1836.95 1896.69,-1836.95 1896.69,-1836.95 1902.69,-1836.95 1908.69,-1842.95 1908.69,-1848.95 1908.69,-1848.95 1908.69,-1862.95 1908.69,-1862.95 1908.69,-1868.95 1902.69,-1874.95 1896.69,-1874.95"/>
<text text-anchor="middle" x="1666.19" y="-1859.75" font-family="Times,serif" font-size="14.00">MonoBehaviour_114_ID960558225</text>
<text text-anchor="middle" x="1666.19" y="-1844.75" font-family="Times,serif" font-size="14.00">m_Script: {&#39;guid&#39;: &#39;5f7201a12d95ffc409449d95f23cf332&#39;, &#39;type&#39;: 3, &#39;fileID&#39;: 11500000}</text>
</g>
<!-- 150&#45;&gt;157 -->
<g id="edge17" class="edge">
<title>150&#45;&gt;157</title>
<path fill="none" stroke="black" d="M1641.18,-1836.91C1519.21,-1744.07 987.1,-1338.99 848.31,-1233.34"/>
<polygon fill="black" stroke="black" points="850.19,-1230.37 840.11,-1227.1 845.95,-1235.94 850.19,-1230.37"/>
</g>
<!-- 167 -->
<g id="node35" class="node">
<title>167</title>
<path fill="yellowgreen" stroke="yellowgreen" d="M2611.19,-38C2611.19,-38 2512.19,-38 2512.19,-38 2506.19,-38 2500.19,-32 2500.19,-26 2500.19,-26 2500.19,-12 2500.19,-12 2500.19,-6 2506.19,0 2512.19,0 2512.19,0 2611.19,0 2611.19,0 2617.19,0 2623.19,-6 2623.19,-12 2623.19,-12 2623.19,-26 2623.19,-26 2623.19,-32 2617.19,-38 2611.19,-38"/>
<text text-anchor="middle" x="2561.69" y="-22.8" font-family="Times,serif" font-size="14.00">m_GameObject</text>
<text text-anchor="middle" x="2561.69" y="-7.8" font-family="Times,serif" font-size="14.00">fileID: 1908155155</text>
</g>
<!-- 160 -->
<g id="node36" class="node">
<title>160</title>
<path fill="lightpink" stroke="lightpink" d="M2923.71,-1144.81C2923.71,-1144.81 2462.71,-1144.81 2462.71,-1144.81 2456.71,-1144.81 2450.71,-1138.81 2450.71,-1132.81 2450.71,-1132.81 2450.71,-1118.81 2450.71,-1118.81 2450.71,-1112.81 2456.71,-1106.81 2462.71,-1106.81 2462.71,-1106.81 2923.71,-1106.81 2923.71,-1106.81 2929.71,-1106.81 2935.71,-1112.81 2935.71,-1118.81 2935.71,-1118.81 2935.71,-1132.81 2935.71,-1132.81 2935.71,-1138.81 2929.71,-1144.81 2923.71,-1144.81"/>
<text text-anchor="middle" x="2693.21" y="-1129.61" font-family="Times,serif" font-size="14.00">MonoBehaviour_114_ID1908155157</text>
<text text-anchor="middle" x="2693.21" y="-1114.61" font-family="Times,serif" font-size="14.00">m_Script: {&#39;guid&#39;: &#39;fe87c0e1cc204ed48ad3b37840f39efc&#39;, &#39;type&#39;: 3, &#39;fileID&#39;: 11500000}</text>
</g>
<!-- 160&#45;&gt;167 -->
<g id="edge18" class="edge">
<title>160&#45;&gt;167</title>
<path fill="none" stroke="black" d="M2690.93,-1106.59C2675.31,-975.13 2584.23,-208.66 2565.19,-48.38"/>
<polygon fill="black" stroke="black" points="2568.64,-47.82 2563.99,-38.31 2561.69,-48.65 2568.64,-47.82"/>
</g>
<!-- 177 -->
<g id="node37" class="node">
<title>177</title>
<path fill="yellowgreen" stroke="yellowgreen" d="M714.45,-4127.98C714.45,-4127.98 615.45,-4127.98 615.45,-4127.98 609.45,-4127.98 603.45,-4121.98 603.45,-4115.98 603.45,-4115.98 603.45,-4101.98 603.45,-4101.98 603.45,-4095.98 609.45,-4089.98 615.45,-4089.98 615.45,-4089.98 714.45,-4089.98 714.45,-4089.98 720.45,-4089.98 726.45,-4095.98 726.45,-4101.98 726.45,-4101.98 726.45,-4115.98 726.45,-4115.98 726.45,-4121.98 720.45,-4127.98 714.45,-4127.98"/>
<text text-anchor="middle" x="664.95" y="-4112.78" font-family="Times,serif" font-size="14.00">m_GameObject</text>
<text text-anchor="middle" x="664.95" y="-4097.78" font-family="Times,serif" font-size="14.00">fileID: 1525520955</text>
</g>
<!-- 170 -->
<g id="node38" class="node">
<title>170</title>
<path fill="lightpink" stroke="lightpink" d="M1814.89,-3510.72C1814.89,-3510.72 1353.89,-3510.72 1353.89,-3510.72 1347.89,-3510.72 1341.89,-3504.72 1341.89,-3498.72 1341.89,-3498.72 1341.89,-3484.72 1341.89,-3484.72 1341.89,-3478.72 1347.89,-3472.72 1353.89,-3472.72 1353.89,-3472.72 1814.89,-3472.72 1814.89,-3472.72 1820.89,-3472.72 1826.89,-3478.72 1826.89,-3484.72 1826.89,-3484.72 1826.89,-3498.72 1826.89,-3498.72 1826.89,-3504.72 1820.89,-3510.72 1814.89,-3510.72"/>
<text text-anchor="middle" x="1584.39" y="-3495.52" font-family="Times,serif" font-size="14.00">MonoBehaviour_114_ID1525520958</text>
<text text-anchor="middle" x="1584.39" y="-3480.52" font-family="Times,serif" font-size="14.00">m_Script: {&#39;guid&#39;: &#39;fe87c0e1cc204ed48ad3b37840f39efc&#39;, &#39;type&#39;: 3, &#39;fileID&#39;: 11500000}</text>
</g>
<!-- 170&#45;&gt;177 -->
<g id="edge19" class="edge">
<title>170&#45;&gt;177</title>
<path fill="none" stroke="black" d="M1555.86,-3510.87C1421.68,-3600.95 853.52,-3982.38 702.14,-4084.02"/>
<polygon fill="black" stroke="black" points="699.95,-4081.27 693.6,-4089.75 703.85,-4087.08 699.95,-4081.27"/>
</g>
<!-- 187 -->
<g id="node39" class="node">
<title>187</title>
<path fill="yellowgreen" stroke="yellowgreen" d="M673.12,-2265.62C673.12,-2265.62 581.12,-2265.62 581.12,-2265.62 575.12,-2265.62 569.12,-2259.62 569.12,-2253.62 569.12,-2253.62 569.12,-2239.62 569.12,-2239.62 569.12,-2233.62 575.12,-2227.62 581.12,-2227.62 581.12,-2227.62 673.12,-2227.62 673.12,-2227.62 679.12,-2227.62 685.12,-2233.62 685.12,-2239.62 685.12,-2239.62 685.12,-2253.62 685.12,-2253.62 685.12,-2259.62 679.12,-2265.62 673.12,-2265.62"/>
<text text-anchor="middle" x="627.12" y="-2250.42" font-family="Times,serif" font-size="14.00">m_GameObject</text>
<text text-anchor="middle" x="627.12" y="-2235.42" font-family="Times,serif" font-size="14.00">fileID: 265550441</text>
</g>
<!-- 180 -->
<g id="node40" class="node">
<title>180</title>
<path fill="lightpink" stroke="lightpink" d="M1898.54,-2433.76C1898.54,-2433.76 1437.54,-2433.76 1437.54,-2433.76 1431.54,-2433.76 1425.54,-2427.76 1425.54,-2421.76 1425.54,-2421.76 1425.54,-2407.76 1425.54,-2407.76 1425.54,-2401.76 1431.54,-2395.76 1437.54,-2395.76 1437.54,-2395.76 1898.54,-2395.76 1898.54,-2395.76 1904.54,-2395.76 1910.54,-2401.76 1910.54,-2407.76 1910.54,-2407.76 1910.54,-2421.76 1910.54,-2421.76 1910.54,-2427.76 1904.54,-2433.76 1898.54,-2433.76"/>
<text text-anchor="middle" x="1668.04" y="-2418.56" font-family="Times,serif" font-size="14.00">MonoBehaviour_114_ID265550443</text>
<text text-anchor="middle" x="1668.04" y="-2403.56" font-family="Times,serif" font-size="14.00">m_Script: {&#39;guid&#39;: &#39;5f7201a12d95ffc409449d95f23cf332&#39;, &#39;type&#39;: 3, &#39;fileID&#39;: 11500000}</text>
</g>
<!-- 180&#45;&gt;187 -->
<g id="edge20" class="edge">
<title>180&#45;&gt;187</title>
<path fill="none" stroke="black" d="M1550.4,-2395.76C1331.85,-2360.46 869.61,-2285.79 695.44,-2257.66"/>
<polygon fill="black" stroke="black" points="695.81,-2254.17 685.38,-2256.03 694.69,-2261.08 695.81,-2254.17"/>
</g>
<!-- 194 -->
<g id="node41" class="node">
<title>194</title>
<path fill="yellowgreen" stroke="yellowgreen" d="M3635.12,-202.78C3635.12,-202.78 3536.12,-202.78 3536.12,-202.78 3530.12,-202.78 3524.12,-196.78 3524.12,-190.78 3524.12,-190.78 3524.12,-176.78 3524.12,-176.78 3524.12,-170.78 3530.12,-164.78 3536.12,-164.78 3536.12,-164.78 3635.12,-164.78 3635.12,-164.78 3641.12,-164.78 3647.12,-170.78 3647.12,-176.78 3647.12,-176.78 3647.12,-190.78 3647.12,-190.78 3647.12,-196.78 3641.12,-202.78 3635.12,-202.78"/>
<text text-anchor="middle" x="3585.62" y="-187.58" font-family="Times,serif" font-size="14.00">m_GameObject</text>
<text text-anchor="middle" x="3585.62" y="-172.58" font-family="Times,serif" font-size="14.00">fileID: 2009980923</text>
</g>
<!-- 190 -->
<g id="node42" class="node">
<title>190</title>
<path fill="lightpink" stroke="lightpink" d="M3393.87,-1232.43C3393.87,-1232.43 2924.87,-1232.43 2924.87,-1232.43 2918.87,-1232.43 2912.87,-1226.43 2912.87,-1220.43 2912.87,-1220.43 2912.87,-1206.43 2912.87,-1206.43 2912.87,-1200.43 2918.87,-1194.43 2924.87,-1194.43 2924.87,-1194.43 3393.87,-1194.43 3393.87,-1194.43 3399.87,-1194.43 3405.87,-1200.43 3405.87,-1206.43 3405.87,-1206.43 3405.87,-1220.43 3405.87,-1220.43 3405.87,-1226.43 3399.87,-1232.43 3393.87,-1232.43"/>
<text text-anchor="middle" x="3159.37" y="-1217.23" font-family="Times,serif" font-size="14.00">MonoBehaviour_114_ID2009980925</text>
<text text-anchor="middle" x="3159.37" y="-1202.23" font-family="Times,serif" font-size="14.00">m_Script: {&#39;guid&#39;: &#39;0cd44c1031e13a943bb63640046fad76&#39;, &#39;type&#39;: 3, &#39;fileID&#39;: 11500000}</text>
</g>
<!-- 190&#45;&gt;194 -->
<g id="edge21" class="edge">
<title>190&#45;&gt;194</title>
<path fill="none" stroke="black" d="M3167.31,-1194.23C3219.34,-1068.55 3511.14,-363.69 3573.77,-212.38"/>
<polygon fill="black" stroke="black" points="3577.13,-213.42 3577.72,-202.84 3570.66,-210.74 3577.13,-213.42"/>
</g>
<!-- 204 -->
<g id="node43" class="node">
<title>204</title>
<path fill="yellowgreen" stroke="yellowgreen" d="M2195.49,-5176.09C2195.49,-5176.09 2103.49,-5176.09 2103.49,-5176.09 2097.49,-5176.09 2091.49,-5170.09 2091.49,-5164.09 2091.49,-5164.09 2091.49,-5150.09 2091.49,-5150.09 2091.49,-5144.09 2097.49,-5138.09 2103.49,-5138.09 2103.49,-5138.09 2195.49,-5138.09 2195.49,-5138.09 2201.49,-5138.09 2207.49,-5144.09 2207.49,-5150.09 2207.49,-5150.09 2207.49,-5164.09 2207.49,-5164.09 2207.49,-5170.09 2201.49,-5176.09 2195.49,-5176.09"/>
<text text-anchor="middle" x="2149.49" y="-5160.89" font-family="Times,serif" font-size="14.00">m_GameObject</text>
<text text-anchor="middle" x="2149.49" y="-5145.89" font-family="Times,serif" font-size="14.00">fileID: 301893718</text>
</g>
<!-- 197 -->
<g id="node44" class="node">
<title>197</title>
<path fill="lightpink" stroke="lightpink" d="M2669.12,-4142.46C2669.12,-4142.46 2208.12,-4142.46 2208.12,-4142.46 2202.12,-4142.46 2196.12,-4136.46 2196.12,-4130.46 2196.12,-4130.46 2196.12,-4116.46 2196.12,-4116.46 2196.12,-4110.46 2202.12,-4104.46 2208.12,-4104.46 2208.12,-4104.46 2669.12,-4104.46 2669.12,-4104.46 2675.12,-4104.46 2681.12,-4110.46 2681.12,-4116.46 2681.12,-4116.46 2681.12,-4130.46 2681.12,-4130.46 2681.12,-4136.46 2675.12,-4142.46 2669.12,-4142.46"/>
<text text-anchor="middle" x="2438.62" y="-4127.26" font-family="Times,serif" font-size="14.00">MonoBehaviour_114_ID301893720</text>
<text text-anchor="middle" x="2438.62" y="-4112.26" font-family="Times,serif" font-size="14.00">m_Script: {&#39;guid&#39;: &#39;fe87c0e1cc204ed48ad3b37840f39efc&#39;, &#39;type&#39;: 3, &#39;fileID&#39;: 11500000}</text>
</g>
<!-- 197&#45;&gt;204 -->
<g id="edge22" class="edge">
<title>197&#45;&gt;204</title>
<path fill="none" stroke="black" d="M2433.23,-4142.73C2397.97,-4268.77 2200.41,-4975.07 2157.65,-5127.92"/>
<polygon fill="black" stroke="black" points="2154.17,-5127.38 2154.85,-5137.95 2160.91,-5129.26 2154.17,-5127.38"/>
</g>
<!-- 210 -->
<g id="node45" class="node">
<title>210</title>
<path fill="yellowgreen" stroke="yellowgreen" d="M5502.44,-2560.2C5502.44,-2560.2 5410.44,-2560.2 5410.44,-2560.2 5404.44,-2560.2 5398.44,-2554.2 5398.44,-2548.2 5398.44,-2548.2 5398.44,-2534.2 5398.44,-2534.2 5398.44,-2528.2 5404.44,-2522.2 5410.44,-2522.2 5410.44,-2522.2 5502.44,-2522.2 5502.44,-2522.2 5508.44,-2522.2 5514.44,-2528.2 5514.44,-2534.2 5514.44,-2534.2 5514.44,-2548.2 5514.44,-2548.2 5514.44,-2554.2 5508.44,-2560.2 5502.44,-2560.2"/>
<text text-anchor="middle" x="5456.44" y="-2545" font-family="Times,serif" font-size="14.00">m_GameObject</text>
<text text-anchor="middle" x="5456.44" y="-2530" font-family="Times,serif" font-size="14.00">fileID: 130449831</text>
</g>
<!-- 207 -->
<g id="node46" class="node">
<title>207</title>
<path fill="lightpink" stroke="lightpink" d="M4592.47,-2564.11C4592.47,-2564.11 4130.47,-2564.11 4130.47,-2564.11 4124.47,-2564.11 4118.47,-2558.11 4118.47,-2552.11 4118.47,-2552.11 4118.47,-2538.11 4118.47,-2538.11 4118.47,-2532.11 4124.47,-2526.11 4130.47,-2526.11 4130.47,-2526.11 4592.47,-2526.11 4592.47,-2526.11 4598.47,-2526.11 4604.47,-2532.11 4604.47,-2538.11 4604.47,-2538.11 4604.47,-2552.11 4604.47,-2552.11 4604.47,-2558.11 4598.47,-2564.11 4592.47,-2564.11"/>
<text text-anchor="middle" x="4361.47" y="-2548.91" font-family="Times,serif" font-size="14.00">MonoBehaviour_114_ID130449833</text>
<text text-anchor="middle" x="4361.47" y="-2533.91" font-family="Times,serif" font-size="14.00">m_Script: {&#39;guid&#39;: &#39;cfbcc1c9cd748aa4eadf517d081ad03e&#39;, &#39;type&#39;: 3, &#39;fileID&#39;: 11500000}</text>
</g>
<!-- 207&#45;&gt;210 -->
<g id="edge23" class="edge">
<title>207&#45;&gt;210</title>
<path fill="none" stroke="black" d="M4604.48,-2544.24C4856.54,-2543.34 5234.84,-2541.99 5388.22,-2541.44"/>
<polygon fill="black" stroke="black" points="5388.44,-2544.94 5398.43,-2541.4 5388.42,-2537.94 5388.44,-2544.94"/>
</g>
<!-- 221 -->
<g id="node47" class="node">
<title>221</title>
<path fill="yellowgreen" stroke="yellowgreen" d="M3611.86,-5176.68C3611.86,-5176.68 3512.86,-5176.68 3512.86,-5176.68 3506.86,-5176.68 3500.86,-5170.68 3500.86,-5164.68 3500.86,-5164.68 3500.86,-5150.68 3500.86,-5150.68 3500.86,-5144.68 3506.86,-5138.68 3512.86,-5138.68 3512.86,-5138.68 3611.86,-5138.68 3611.86,-5138.68 3617.86,-5138.68 3623.86,-5144.68 3623.86,-5150.68 3623.86,-5150.68 3623.86,-5164.68 3623.86,-5164.68 3623.86,-5170.68 3617.86,-5176.68 3611.86,-5176.68"/>
<text text-anchor="middle" x="3562.36" y="-5161.48" font-family="Times,serif" font-size="14.00">m_GameObject</text>
<text text-anchor="middle" x="3562.36" y="-5146.48" font-family="Times,serif" font-size="14.00">fileID: 1351522636</text>
</g>
<!-- 214 -->
<g id="node48" class="node">
<title>214</title>
<path fill="lightpink" stroke="lightpink" d="M3363.23,-4190.41C3363.23,-4190.41 2902.23,-4190.41 2902.23,-4190.41 2896.23,-4190.41 2890.23,-4184.41 2890.23,-4178.41 2890.23,-4178.41 2890.23,-4164.41 2890.23,-4164.41 2890.23,-4158.41 2896.23,-4152.41 2902.23,-4152.41 2902.23,-4152.41 3363.23,-4152.41 3363.23,-4152.41 3369.23,-4152.41 3375.23,-4158.41 3375.23,-4164.41 3375.23,-4164.41 3375.23,-4178.41 3375.23,-4178.41 3375.23,-4184.41 3369.23,-4190.41 3363.23,-4190.41"/>
<text text-anchor="middle" x="3132.73" y="-4175.21" font-family="Times,serif" font-size="14.00">MonoBehaviour_114_ID1351522639</text>
<text text-anchor="middle" x="3132.73" y="-4160.21" font-family="Times,serif" font-size="14.00">m_Script: {&#39;guid&#39;: &#39;fe87c0e1cc204ed48ad3b37840f39efc&#39;, &#39;type&#39;: 3, &#39;fileID&#39;: 11500000}</text>
</g>
<!-- 214&#45;&gt;221 -->
<g id="edge24" class="edge">
<title>214&#45;&gt;221</title>
<path fill="none" stroke="black" d="M3141.12,-4190.67C3194.43,-4313.03 3485.72,-4981.73 3549.86,-5128.99"/>
<polygon fill="black" stroke="black" points="3546.72,-5130.53 3553.92,-5138.3 3553.13,-5127.73 3546.72,-5130.53"/>
</g>
<!-- 231 -->
<g id="node49" class="node">
<title>231</title>
<path fill="yellowgreen" stroke="yellowgreen" d="M4437.62,-4682.24C4437.62,-4682.24 4338.62,-4682.24 4338.62,-4682.24 4332.62,-4682.24 4326.62,-4676.24 4326.62,-4670.24 4326.62,-4670.24 4326.62,-4656.24 4326.62,-4656.24 4326.62,-4650.24 4332.62,-4644.24 4338.62,-4644.24 4338.62,-4644.24 4437.62,-4644.24 4437.62,-4644.24 4443.62,-4644.24 4449.62,-4650.24 4449.62,-4656.24 4449.62,-4656.24 4449.62,-4670.24 4449.62,-4670.24 4449.62,-4676.24 4443.62,-4682.24 4437.62,-4682.24"/>
<text text-anchor="middle" x="4388.12" y="-4667.04" font-family="Times,serif" font-size="14.00">m_GameObject</text>
<text text-anchor="middle" x="4388.12" y="-4652.04" font-family="Times,serif" font-size="14.00">fileID: 1351522636</text>
</g>
<!-- 224 -->
<g id="node50" class="node">
<title>224</title>
<path fill="lightpink" stroke="lightpink" d="M4013.05,-3766.53C4013.05,-3766.53 3552.05,-3766.53 3552.05,-3766.53 3546.05,-3766.53 3540.05,-3760.53 3540.05,-3754.53 3540.05,-3754.53 3540.05,-3740.53 3540.05,-3740.53 3540.05,-3734.53 3546.05,-3728.53 3552.05,-3728.53 3552.05,-3728.53 4013.05,-3728.53 4013.05,-3728.53 4019.05,-3728.53 4025.05,-3734.53 4025.05,-3740.53 4025.05,-3740.53 4025.05,-3754.53 4025.05,-3754.53 4025.05,-3760.53 4019.05,-3766.53 4013.05,-3766.53"/>
<text text-anchor="middle" x="3782.55" y="-3751.33" font-family="Times,serif" font-size="14.00">MonoBehaviour_114_ID1351522638</text>
<text text-anchor="middle" x="3782.55" y="-3736.33" font-family="Times,serif" font-size="14.00">m_Script: {&#39;guid&#39;: &#39;4e29b1a8efbd4b44bb3f3716e73f07ff&#39;, &#39;type&#39;: 3, &#39;fileID&#39;: 11500000}</text>
</g>
<!-- 224&#45;&gt;231 -->
<g id="edge25" class="edge">
<title>224&#45;&gt;231</title>
<path fill="none" stroke="black" d="M3795.2,-3766.66C3872.32,-3883.27 4278.92,-4498.12 4370,-4635.85"/>
<polygon fill="black" stroke="black" points="4367.1,-4637.81 4375.54,-4644.22 4372.94,-4633.95 4367.1,-4637.81"/>
</g>
<!-- 243 -->
<g id="node51" class="node">
<title>243</title>
<path fill="yellowgreen" stroke="yellowgreen" d="M1102.01,-3391.49C1102.01,-3391.49 1003.01,-3391.49 1003.01,-3391.49 997.01,-3391.49 991.01,-3385.49 991.01,-3379.49 991.01,-3379.49 991.01,-3365.49 991.01,-3365.49 991.01,-3359.49 997.01,-3353.49 1003.01,-3353.49 1003.01,-3353.49 1102.01,-3353.49 1102.01,-3353.49 1108.01,-3353.49 1114.01,-3359.49 1114.01,-3365.49 1114.01,-3365.49 1114.01,-3379.49 1114.01,-3379.49 1114.01,-3385.49 1108.01,-3391.49 1102.01,-3391.49"/>
<text text-anchor="middle" x="1052.51" y="-3376.29" font-family="Times,serif" font-size="14.00">m_GameObject</text>
<text text-anchor="middle" x="1052.51" y="-3361.29" font-family="Times,serif" font-size="14.00">fileID: 1093729419</text>
</g>
<!-- 236 -->
<g id="node52" class="node">
<title>236</title>
<path fill="lightpink" stroke="lightpink" d="M2118.6,-3029.01C2118.6,-3029.01 1657.6,-3029.01 1657.6,-3029.01 1651.6,-3029.01 1645.6,-3023.01 1645.6,-3017.01 1645.6,-3017.01 1645.6,-3003.01 1645.6,-3003.01 1645.6,-2997.01 1651.6,-2991.01 1657.6,-2991.01 1657.6,-2991.01 2118.6,-2991.01 2118.6,-2991.01 2124.6,-2991.01 2130.6,-2997.01 2130.6,-3003.01 2130.6,-3003.01 2130.6,-3017.01 2130.6,-3017.01 2130.6,-3023.01 2124.6,-3029.01 2118.6,-3029.01"/>
<text text-anchor="middle" x="1888.1" y="-3013.81" font-family="Times,serif" font-size="14.00">MonoBehaviour_114_ID1093729421</text>
<text text-anchor="middle" x="1888.1" y="-2998.81" font-family="Times,serif" font-size="14.00">m_Script: {&#39;guid&#39;: &#39;5f7201a12d95ffc409449d95f23cf332&#39;, &#39;type&#39;: 3, &#39;fileID&#39;: 11500000}</text>
</g>
<!-- 236&#45;&gt;243 -->
<g id="edge26" class="edge">
<title>236&#45;&gt;243</title>
<path fill="none" stroke="black" d="M1844.06,-3029.12C1702.54,-3090.51 1259.67,-3282.62 1105.81,-3349.37"/>
<polygon fill="black" stroke="black" points="1104.31,-3346.2 1096.53,-3353.39 1107.1,-3352.62 1104.31,-3346.2"/>
</g>
<!-- 251 -->
<g id="node53" class="node">
<title>251</title>
<path fill="yellowgreen" stroke="yellowgreen" d="M5262.61,-3647.53C5262.61,-3647.53 5170.61,-3647.53 5170.61,-3647.53 5164.61,-3647.53 5158.61,-3641.53 5158.61,-3635.53 5158.61,-3635.53 5158.61,-3621.53 5158.61,-3621.53 5158.61,-3615.53 5164.61,-3609.53 5170.61,-3609.53 5170.61,-3609.53 5262.61,-3609.53 5262.61,-3609.53 5268.61,-3609.53 5274.61,-3615.53 5274.61,-3621.53 5274.61,-3621.53 5274.61,-3635.53 5274.61,-3635.53 5274.61,-3641.53 5268.61,-3647.53 5262.61,-3647.53"/>
<text text-anchor="middle" x="5216.61" y="-3632.33" font-family="Times,serif" font-size="14.00">m_GameObject</text>
<text text-anchor="middle" x="5216.61" y="-3617.33" font-family="Times,serif" font-size="14.00">fileID: 138731492</text>
</g>
<!-- 246 -->
<g id="node54" class="node">
<title>246</title>
<path fill="lightpink" stroke="lightpink" d="M4418.52,-3291.39C4418.52,-3291.39 3955.52,-3291.39 3955.52,-3291.39 3949.52,-3291.39 3943.52,-3285.39 3943.52,-3279.39 3943.52,-3279.39 3943.52,-3265.39 3943.52,-3265.39 3943.52,-3259.39 3949.52,-3253.39 3955.52,-3253.39 3955.52,-3253.39 4418.52,-3253.39 4418.52,-3253.39 4424.52,-3253.39 4430.52,-3259.39 4430.52,-3265.39 4430.52,-3265.39 4430.52,-3279.39 4430.52,-3279.39 4430.52,-3285.39 4424.52,-3291.39 4418.52,-3291.39"/>
<text text-anchor="middle" x="4187.02" y="-3276.19" font-family="Times,serif" font-size="14.00">MonoBehaviour_114_ID138731494</text>
<text text-anchor="middle" x="4187.02" y="-3261.19" font-family="Times,serif" font-size="14.00">m_Script: {&#39;guid&#39;: &#39;59f8146938fff824cb5fd77236b75775&#39;, &#39;type&#39;: 3, &#39;fileID&#39;: 11500000}</text>
</g>
<!-- 246&#45;&gt;251 -->
<g id="edge27" class="edge">
<title>246&#45;&gt;251</title>
<path fill="none" stroke="black" d="M4242.01,-3291.41C4417.52,-3352.12 4963.78,-3541.08 5152.06,-3606.2"/>
<polygon fill="black" stroke="black" points="5150.96,-3609.53 5161.55,-3609.49 5153.25,-3602.91 5150.96,-3609.53"/>
</g>
<!-- 260 -->
<g id="node55" class="node">
<title>260</title>
<path fill="yellowgreen" stroke="yellowgreen" d="M3599.39,-1120.86C3599.39,-1120.86 3507.39,-1120.86 3507.39,-1120.86 3501.39,-1120.86 3495.39,-1114.86 3495.39,-1108.86 3495.39,-1108.86 3495.39,-1094.86 3495.39,-1094.86 3495.39,-1088.86 3501.39,-1082.86 3507.39,-1082.86 3507.39,-1082.86 3599.39,-1082.86 3599.39,-1082.86 3605.39,-1082.86 3611.39,-1088.86 3611.39,-1094.86 3611.39,-1094.86 3611.39,-1108.86 3611.39,-1108.86 3611.39,-1114.86 3605.39,-1120.86 3599.39,-1120.86"/>
<text text-anchor="middle" x="3553.39" y="-1105.66" font-family="Times,serif" font-size="14.00">m_GameObject</text>
<text text-anchor="middle" x="3553.39" y="-1090.66" font-family="Times,serif" font-size="14.00">fileID: 771856868</text>
</g>
<!-- 253 -->
<g id="node56" class="node">
<title>253</title>
<path fill="lightpink" stroke="lightpink" d="M3323.1,-1908.1C3323.1,-1908.1 2862.1,-1908.1 2862.1,-1908.1 2856.1,-1908.1 2850.1,-1902.1 2850.1,-1896.1 2850.1,-1896.1 2850.1,-1882.1 2850.1,-1882.1 2850.1,-1876.1 2856.1,-1870.1 2862.1,-1870.1 2862.1,-1870.1 3323.1,-1870.1 3323.1,-1870.1 3329.1,-1870.1 3335.1,-1876.1 3335.1,-1882.1 3335.1,-1882.1 3335.1,-1896.1 3335.1,-1896.1 3335.1,-1902.1 3329.1,-1908.1 3323.1,-1908.1"/>
<text text-anchor="middle" x="3092.6" y="-1892.9" font-family="Times,serif" font-size="14.00">MonoBehaviour_114_ID771856871</text>
<text text-anchor="middle" x="3092.6" y="-1877.9" font-family="Times,serif" font-size="14.00">m_Script: {&#39;guid&#39;: &#39;fe87c0e1cc204ed48ad3b37840f39efc&#39;, &#39;type&#39;: 3, &#39;fileID&#39;: 11500000}</text>
</g>
<!-- 253&#45;&gt;260 -->
<g id="edge28" class="edge">
<title>253&#45;&gt;260</title>
<path fill="none" stroke="black" d="M3103.76,-1870.03C3165.37,-1764.77 3463.78,-1254.96 3537.09,-1129.7"/>
<polygon fill="black" stroke="black" points="3540.14,-1131.43 3542.17,-1121.03 3534.1,-1127.9 3540.14,-1131.43"/>
</g>
<!-- 270 -->
<g id="node57" class="node">
<title>270</title>
<path fill="yellowgreen" stroke="yellowgreen" d="M1966.72,-1219.27C1966.72,-1219.27 1874.72,-1219.27 1874.72,-1219.27 1868.72,-1219.27 1862.72,-1213.27 1862.72,-1207.27 1862.72,-1207.27 1862.72,-1193.27 1862.72,-1193.27 1862.72,-1187.27 1868.72,-1181.27 1874.72,-1181.27 1874.72,-1181.27 1966.72,-1181.27 1966.72,-1181.27 1972.72,-1181.27 1978.72,-1187.27 1978.72,-1193.27 1978.72,-1193.27 1978.72,-1207.27 1978.72,-1207.27 1978.72,-1213.27 1972.72,-1219.27 1966.72,-1219.27"/>
<text text-anchor="middle" x="1920.72" y="-1204.07" font-family="Times,serif" font-size="14.00">m_GameObject</text>
<text text-anchor="middle" x="1920.72" y="-1189.07" font-family="Times,serif" font-size="14.00">fileID: 771856868</text>
</g>
<!-- 263 -->
<g id="node58" class="node">
<title>263</title>
<path fill="lightpink" stroke="lightpink" d="M2498.69,-1935.5C2498.69,-1935.5 2037.69,-1935.5 2037.69,-1935.5 2031.69,-1935.5 2025.69,-1929.5 2025.69,-1923.5 2025.69,-1923.5 2025.69,-1909.5 2025.69,-1909.5 2025.69,-1903.5 2031.69,-1897.5 2037.69,-1897.5 2037.69,-1897.5 2498.69,-1897.5 2498.69,-1897.5 2504.69,-1897.5 2510.69,-1903.5 2510.69,-1909.5 2510.69,-1909.5 2510.69,-1923.5 2510.69,-1923.5 2510.69,-1929.5 2504.69,-1935.5 2498.69,-1935.5"/>
<text text-anchor="middle" x="2268.19" y="-1920.3" font-family="Times,serif" font-size="14.00">MonoBehaviour_114_ID771856870</text>
<text text-anchor="middle" x="2268.19" y="-1905.3" font-family="Times,serif" font-size="14.00">m_Script: {&#39;guid&#39;: &#39;4e29b1a8efbd4b44bb3f3716e73f07ff&#39;, &#39;type&#39;: 3, &#39;fileID&#39;: 11500000}</text>
</g>
<!-- 263&#45;&gt;270 -->
<g id="edge29" class="edge">
<title>263&#45;&gt;270</title>
<path fill="none" stroke="black" d="M2258.89,-1897.34C2210.97,-1798.56 1991.83,-1346.86 1934.49,-1228.65"/>
<polygon fill="black" stroke="black" points="1937.55,-1226.96 1930.04,-1219.49 1931.26,-1230.01 1937.55,-1226.96"/>
</g>
<!-- 1 -->
<g id="node59" class="node">
<title>1</title>
<ellipse fill="red" stroke="red" cx="2722.45" cy="-2592.18" rx="27" ry="18"/>
</g>
<!-- 1&#45;&gt;2 -->
<g id="edge30" class="edge">
<title>1&#45;&gt;2</title>
<path fill="none" stroke="black" d="M2721.15,-2573.9C2712.26,-2449.2 2660.59,-1724.07 2649.49,-1568.45"/>
<polygon fill="black" stroke="black" points="2652.97,-1567.97 2648.77,-1558.24 2645.99,-1568.47 2652.97,-1567.97"/>
</g>
<!-- 1&#45;&gt;12 -->
<g id="edge31" class="edge">
<title>1&#45;&gt;12</title>
<path fill="none" stroke="black" d="M2737.61,-2576.96C2854.9,-2459.18 3617.18,-1693.78 3768.69,-1541.65"/>
<polygon fill="black" stroke="black" points="3771.26,-1544.03 3775.83,-1534.48 3766.3,-1539.09 3771.26,-1544.03"/>
</g>
<!-- 1&#45;&gt;19 -->
<g id="edge32" class="edge">
<title>1&#45;&gt;19</title>
<path fill="none" stroke="black" d="M2707.86,-2576.51C2592.99,-2453.17 1834.7,-1638.98 1686.83,-1480.21"/>
<polygon fill="black" stroke="black" points="1689.24,-1477.67 1679.87,-1472.74 1684.12,-1482.44 1689.24,-1477.67"/>
</g>
<!-- 1&#45;&gt;29 -->
<g id="edge33" class="edge">
<title>1&#45;&gt;29</title>
<path fill="none" stroke="black" d="M2695.38,-2593.11C2545.61,-2598.3 1810.87,-2623.71 1415.67,-2637.39"/>
<polygon fill="black" stroke="black" points="1415.4,-2633.89 1405.53,-2637.74 1415.65,-2640.89 1415.4,-2633.89"/>
</g>
<!-- 1&#45;&gt;41 -->
<g id="edge34" class="edge">
<title>1&#45;&gt;41</title>
<path fill="none" stroke="black" d="M2717.29,-2574.34C2671.53,-2416.2 2335.64,-1255.49 2278.09,-1056.62"/>
<polygon fill="black" stroke="black" points="2281.41,-1055.51 2275.27,-1046.88 2274.69,-1057.46 2281.41,-1055.51"/>
</g>
<!-- 1&#45;&gt;51 -->
<g id="edge35" class="edge">
<title>1&#45;&gt;51</title>
<path fill="none" stroke="black" d="M2714.92,-2609.55C2665.92,-2722.54 2392.57,-3352.94 2330.86,-3495.25"/>
<polygon fill="black" stroke="black" points="2327.55,-3494.07 2326.79,-3504.64 2333.98,-3496.86 2327.55,-3494.07"/>
</g>
<!-- 1&#45;&gt;61 -->
<g id="edge36" class="edge">
<title>1&#45;&gt;61</title>
<path fill="none" stroke="black" d="M2698.42,-2583.71C2533.76,-2525.67 1571.17,-2186.42 1313.09,-2095.46"/>
<polygon fill="black" stroke="black" points="1314.08,-2092.1 1303.49,-2092.07 1311.75,-2098.7 1314.08,-2092.1"/>
</g>
<!-- 1&#45;&gt;73 -->
<g id="edge37" class="edge">
<title>1&#45;&gt;73</title>
<path fill="none" stroke="black" d="M2723.82,-2610.33C2734.48,-2751.24 2803.94,-3669.76 2817.32,-3846.68"/>
<polygon fill="black" stroke="black" points="2813.85,-3847.1 2818.09,-3856.81 2820.83,-3846.57 2813.85,-3847.1"/>
</g>
<!-- 1&#45;&gt;80 -->
<g id="edge38" class="edge">
<title>1&#45;&gt;80</title>
<path fill="none" stroke="black" d="M2698.23,-2600.2C2544.68,-2651.09 1705.09,-2929.34 1459.88,-3010.61"/>
<polygon fill="black" stroke="black" points="1458.42,-3007.4 1450.02,-3013.87 1460.62,-3014.05 1458.42,-3007.4"/>
</g>
<!-- 1&#45;&gt;86 -->
<g id="edge39" class="edge">
<title>1&#45;&gt;86</title>
<path fill="none" stroke="black" d="M2740.77,-2605.79C2857.14,-2692.28 3493.49,-3165.22 3648.31,-3280.28"/>
<polygon fill="black" stroke="black" points="3646.45,-3283.26 3656.56,-3286.42 3650.63,-3277.64 3646.45,-3283.26"/>
</g>
<!-- 1&#45;&gt;96 -->
<g id="edge40" class="edge">
<title>1&#45;&gt;96</title>
<path fill="none" stroke="black" d="M2745.65,-2582.53C2909.99,-2514.17 3898.83,-2102.89 4144.35,-2000.77"/>
<polygon fill="black" stroke="black" points="4145.9,-2003.91 4153.79,-1996.84 4143.21,-1997.45 4145.9,-2003.91"/>
</g>
<!-- 1&#45;&gt;106 -->
<g id="edge41" class="edge">
<title>1&#45;&gt;106</title>
<path fill="none" stroke="black" d="M2748.67,-2596.59C2831.47,-2610.52 3091.19,-2654.22 3247.64,-2680.54"/>
<polygon fill="black" stroke="black" points="3247.35,-2684.04 3257.79,-2682.25 3248.51,-2677.14 3247.35,-2684.04"/>
</g>
<!-- 1&#45;&gt;113 -->
<g id="edge42" class="edge">
<title>1&#45;&gt;113</title>
<path fill="none" stroke="black" d="M2710.79,-2608.79C2618.78,-2739.85 2010.28,-3606.6 1894,-3772.24"/>
<polygon fill="black" stroke="black" points="1891.12,-3770.25 1888.24,-3780.44 1896.85,-3774.27 1891.12,-3770.25"/>
</g>
<!-- 1&#45;&gt;120 -->
<g id="edge43" class="edge">
<title>1&#45;&gt;120</title>
<path fill="none" stroke="black" d="M2741.06,-2578.85C2855.73,-2496.72 3466.35,-2059.37 3619.43,-1949.73"/>
<polygon fill="black" stroke="black" points="3621.52,-1952.53 3627.61,-1943.87 3617.45,-1946.84 3621.52,-1952.53"/>
</g>
<!-- 1&#45;&gt;130 -->
<g id="edge44" class="edge">
<title>1&#45;&gt;130</title>
<path fill="none" stroke="black" d="M2730.5,-2609.66C2777.14,-2710.89 3012.47,-3221.76 3070.73,-3348.22"/>
<polygon fill="black" stroke="black" points="3067.55,-3349.68 3074.91,-3357.3 3073.91,-3346.76 3067.55,-3349.68"/>
</g>
<!-- 1&#45;&gt;140 -->
<g id="edge45" class="edge">
<title>1&#45;&gt;140</title>
<path fill="none" stroke="black" d="M2748.41,-2587.22C2882.39,-2561.64 3499.09,-2443.91 3753.07,-2395.42"/>
<polygon fill="black" stroke="black" points="3753.89,-2398.83 3763.05,-2393.52 3752.57,-2391.95 3753.89,-2398.83"/>
</g>
<!-- 1&#45;&gt;150 -->
<g id="edge46" class="edge">
<title>1&#45;&gt;150</title>
<path fill="none" stroke="black" d="M2703.67,-2579.09C2578.93,-2492.14 1869.99,-1998 1701.92,-1880.86"/>
<polygon fill="black" stroke="black" points="1703.85,-1877.94 1693.65,-1875.09 1699.85,-1883.68 1703.85,-1877.94"/>
</g>
<!-- 1&#45;&gt;160 -->
<g id="edge47" class="edge">
<title>1&#45;&gt;160</title>
<path fill="none" stroke="black" d="M2722.09,-2574.17C2719.05,-2421.64 2697.63,-1347.17 2693.8,-1155.14"/>
<polygon fill="black" stroke="black" points="2697.29,-1154.9 2693.6,-1144.97 2690.3,-1155.04 2697.29,-1154.9"/>
</g>
<!-- 1&#45;&gt;170 -->
<g id="edge48" class="edge">
<title>1&#45;&gt;170</title>
<path fill="none" stroke="black" d="M2705.03,-2605.95C2577.43,-2706.81 1787.2,-3331.42 1616.76,-3466.13"/>
<polygon fill="black" stroke="black" points="1614.34,-3463.58 1608.67,-3472.53 1618.68,-3469.08 1614.34,-3463.58"/>
</g>
<!-- 1&#45;&gt;180 -->
<g id="edge49" class="edge">
<title>1&#45;&gt;180</title>
<path fill="none" stroke="black" d="M2696.12,-2587.75C2571.43,-2566.77 2036.13,-2476.7 1791.22,-2435.49"/>
<polygon fill="black" stroke="black" points="1791.64,-2432.01 1781.2,-2433.8 1790.48,-2438.91 1791.64,-2432.01"/>
</g>
<!-- 1&#45;&gt;190 -->
<g id="edge50" class="edge">
<title>1&#45;&gt;190</title>
<path fill="none" stroke="black" d="M2728.06,-2574.49C2774.25,-2428.72 3091.91,-1426.29 3150.19,-1242.38"/>
<polygon fill="black" stroke="black" points="3153.53,-1243.43 3153.22,-1232.84 3146.86,-1241.31 3153.53,-1243.43"/>
</g>
<!-- 1&#45;&gt;197 -->
<g id="edge51" class="edge">
<title>1&#45;&gt;197</title>
<path fill="none" stroke="black" d="M2719.12,-2610.17C2690.07,-2766.86 2480.3,-3898.6 2443.97,-4094.58"/>
<polygon fill="black" stroke="black" points="2440.52,-4093.96 2442.14,-4104.43 2447.41,-4095.24 2440.52,-4093.96"/>
</g>
<!-- 1&#45;&gt;207 -->
<g id="edge52" class="edge">
<title>1&#45;&gt;207</title>
<path fill="none" stroke="black" d="M2749.53,-2591.4C2905.34,-2586.93 3694.96,-2564.25 4108.33,-2552.38"/>
<polygon fill="black" stroke="black" points="4108.43,-2555.88 4118.32,-2552.09 4108.23,-2548.88 4108.43,-2555.88"/>
</g>
<!-- 1&#45;&gt;214 -->
<g id="edge53" class="edge">
<title>1&#45;&gt;214</title>
<path fill="none" stroke="black" d="M2727.13,-2610.18C2768.62,-2769.89 3073.31,-3942.67 3125.22,-4142.5"/>
<polygon fill="black" stroke="black" points="3121.86,-4143.48 3127.76,-4152.28 3128.64,-4141.72 3121.86,-4143.48"/>
</g>
<!-- 1&#45;&gt;224 -->
<g id="edge54" class="edge">
<title>1&#45;&gt;224</title>
<path fill="none" stroke="black" d="M2736.64,-2607.64C2850.2,-2731.4 3611.07,-3560.64 3758.01,-3720.79"/>
<polygon fill="black" stroke="black" points="3755.59,-3723.32 3764.93,-3728.32 3760.74,-3718.58 3755.59,-3723.32"/>
</g>
<!-- 1&#45;&gt;236 -->
<g id="edge55" class="edge">
<title>1&#45;&gt;236</title>
<path fill="none" stroke="black" d="M2700.56,-2603.14C2590,-2658.51 2092.1,-2907.85 1935.44,-2986.3"/>
<polygon fill="black" stroke="black" points="1933.43,-2983.4 1926.06,-2991 1936.57,-2989.66 1933.43,-2983.4"/>
</g>
<!-- 1&#45;&gt;246 -->
<g id="edge56" class="edge">
<title>1&#45;&gt;246</title>
<path fill="none" stroke="black" d="M2744.87,-2602.59C2907,-2677.89 3900.35,-3139.25 4136.62,-3248.98"/>
<polygon fill="black" stroke="black" points="4135.46,-3252.3 4146.01,-3253.34 4138.41,-3245.95 4135.46,-3252.3"/>
</g>
<!-- 1&#45;&gt;253 -->
<g id="edge57" class="edge">
<title>1&#45;&gt;253</title>
<path fill="none" stroke="black" d="M2731.42,-2575.15C2780.44,-2482.03 3016.07,-2034.46 3077.78,-1917.25"/>
<polygon fill="black" stroke="black" points="3081,-1918.64 3082.56,-1908.17 3074.8,-1915.38 3081,-1918.64"/>
</g>
<!-- 1&#45;&gt;263 -->
<g id="edge58" class="edge">
<title>1&#45;&gt;263</title>
<path fill="none" stroke="black" d="M2711.22,-2575.48C2650.7,-2485.45 2363.24,-2057.87 2286.86,-1944.27"/>
<polygon fill="black" stroke="black" points="2289.61,-1942.09 2281.13,-1935.74 2283.8,-1945.99 2289.61,-1942.09"/>
</g>
</g>
</svg>
