<?xml version="1.0" encoding="UTF-8" standalone="no"?>
<!DOCTYPE svg PUBLIC "-//W3C//DTD SVG 1.1//EN"
 "http://www.w3.org/Graphics/SVG/1.1/DTD/svg11.dtd">
<!-- Generated by graphviz version 2.46.0 (20210118.1747)
 -->
<!-- Title: graphname Pages: 1 -->
<svg width="4824pt" height="4692pt"
 viewBox="0.00 0.00 4824.00 4691.65" xmlns="http://www.w3.org/2000/svg" xmlns:xlink="http://www.w3.org/1999/xlink">
<g id="graph0" class="graph" transform="scale(1.3 1.3) rotate(0) translate(4 3594.19)">
<title>graphname</title>
<polygon fill="white" stroke="transparent" points="-4,4 -4,-3594.19 3695.69,-3594.19 3695.69,4 -4,4"/>
<!-- 6 -->
<g id="node1" class="node">
<title>6</title>
<path fill="lightpink" stroke="lightpink" d="M3676.19,-1890.68C3676.19,-1890.68 3566.19,-1890.68 3566.19,-1890.68 3560.19,-1890.68 3554.19,-1884.68 3554.19,-1878.68 3554.19,-1878.68 3554.19,-1866.68 3554.19,-1866.68 3554.19,-1860.68 3560.19,-1854.68 3566.19,-1854.68 3566.19,-1854.68 3676.19,-1854.68 3676.19,-1854.68 3682.19,-1854.68 3688.19,-1860.68 3688.19,-1866.68 3688.19,-1866.68 3688.19,-1878.68 3688.19,-1878.68 3688.19,-1884.68 3682.19,-1890.68 3676.19,-1890.68"/>
<text text-anchor="middle" x="3621.19" y="-1868.98" font-family="Times,serif" font-size="14.00">{&#39;fileID&#39;: 132945517}</text>
</g>
<!-- 8 -->
<g id="node2" class="node">
<title>8</title>
<path fill="lightpink" stroke="lightpink" d="M3662.66,-2045.27C3662.66,-2045.27 3552.66,-2045.27 3552.66,-2045.27 3546.66,-2045.27 3540.66,-2039.27 3540.66,-2033.27 3540.66,-2033.27 3540.66,-2021.27 3540.66,-2021.27 3540.66,-2015.27 3546.66,-2009.27 3552.66,-2009.27 3552.66,-2009.27 3662.66,-2009.27 3662.66,-2009.27 3668.66,-2009.27 3674.66,-2015.27 3674.66,-2021.27 3674.66,-2021.27 3674.66,-2033.27 3674.66,-2033.27 3674.66,-2039.27 3668.66,-2045.27 3662.66,-2045.27"/>
<text text-anchor="middle" x="3607.66" y="-2023.57" font-family="Times,serif" font-size="14.00">{&#39;fileID&#39;: 132945519}</text>
</g>
<!-- 10 -->
<g id="node3" class="node">
<title>10</title>
<path fill="lightpink" stroke="lightpink" d="M3635.72,-2198.09C3635.72,-2198.09 3525.72,-2198.09 3525.72,-2198.09 3519.72,-2198.09 3513.72,-2192.09 3513.72,-2186.09 3513.72,-2186.09 3513.72,-2174.09 3513.72,-2174.09 3513.72,-2168.09 3519.72,-2162.09 3525.72,-2162.09 3525.72,-2162.09 3635.72,-2162.09 3635.72,-2162.09 3641.72,-2162.09 3647.72,-2168.09 3647.72,-2174.09 3647.72,-2174.09 3647.72,-2186.09 3647.72,-2186.09 3647.72,-2192.09 3641.72,-2198.09 3635.72,-2198.09"/>
<text text-anchor="middle" x="3580.72" y="-2176.39" font-family="Times,serif" font-size="14.00">{&#39;fileID&#39;: 132945518}</text>
</g>
<!-- 2 -->
<g id="node4" class="node">
<title>2</title>
<path fill="#b0e2ff" stroke="#b0e2ff" d="M2804.38,-1930.18C2804.38,-1930.18 2647.38,-1930.18 2647.38,-1930.18 2641.38,-1930.18 2635.38,-1924.18 2635.38,-1918.18 2635.38,-1918.18 2635.38,-1904.18 2635.38,-1904.18 2635.38,-1898.18 2641.38,-1892.18 2647.38,-1892.18 2647.38,-1892.18 2804.38,-1892.18 2804.38,-1892.18 2810.38,-1892.18 2816.38,-1898.18 2816.38,-1904.18 2816.38,-1904.18 2816.38,-1918.18 2816.38,-1918.18 2816.38,-1924.18 2810.38,-1930.18 2804.38,-1930.18"/>
<text text-anchor="middle" x="2725.88" y="-1914.98" font-family="Times,serif" font-size="14.00">GameObject_1_ID132945516</text>
<text text-anchor="middle" x="2725.88" y="-1899.98" font-family="Times,serif" font-size="14.00">Text</text>
</g>
<!-- 2&#45;&gt;6 -->
<g id="edge1" class="edge">
<title>2&#45;&gt;6</title>
<path fill="none" stroke="black" d="M2816.65,-1907.28C2993.01,-1899.7 3379.05,-1883.1 3543.99,-1876"/>
<polygon fill="black" stroke="black" points="3544.21,-1879.5 3554.05,-1875.57 3543.91,-1872.5 3544.21,-1879.5"/>
</g>
<!-- 2&#45;&gt;8 -->
<g id="edge2" class="edge">
<title>2&#45;&gt;8</title>
<path fill="none" stroke="black" d="M2816.51,-1923.12C2990.42,-1946.01 3368.1,-1995.73 3530.68,-2017.14"/>
<polygon fill="black" stroke="black" points="3530.24,-2020.61 3540.61,-2018.44 3531.15,-2013.67 3530.24,-2020.61"/>
</g>
<!-- 2&#45;&gt;10 -->
<g id="edge3" class="edge">
<title>2&#45;&gt;10</title>
<path fill="none" stroke="black" d="M2786.33,-1930.2C2941.19,-1978.91 3351.33,-2107.93 3513.43,-2158.93"/>
<polygon fill="black" stroke="black" points="3512.69,-2162.36 3523.28,-2162.02 3514.79,-2155.69 3512.69,-2162.36"/>
</g>
<!-- 17 -->
<g id="node5" class="node">
<title>17</title>
<path fill="lightpink" stroke="lightpink" d="M3595.55,-2347.99C3595.55,-2347.99 3485.55,-2347.99 3485.55,-2347.99 3479.55,-2347.99 3473.55,-2341.99 3473.55,-2335.99 3473.55,-2335.99 3473.55,-2323.99 3473.55,-2323.99 3473.55,-2317.99 3479.55,-2311.99 3485.55,-2311.99 3485.55,-2311.99 3595.55,-2311.99 3595.55,-2311.99 3601.55,-2311.99 3607.55,-2317.99 3607.55,-2323.99 3607.55,-2323.99 3607.55,-2335.99 3607.55,-2335.99 3607.55,-2341.99 3601.55,-2347.99 3595.55,-2347.99"/>
<text text-anchor="middle" x="3540.55" y="-2326.29" font-family="Times,serif" font-size="14.00">{&#39;fileID&#39;: 130449832}</text>
</g>
<!-- 19 -->
<g id="node6" class="node">
<title>19</title>
<path fill="lightpink" stroke="lightpink" d="M3542.48,-2493.81C3542.48,-2493.81 3432.48,-2493.81 3432.48,-2493.81 3426.48,-2493.81 3420.48,-2487.81 3420.48,-2481.81 3420.48,-2481.81 3420.48,-2469.81 3420.48,-2469.81 3420.48,-2463.81 3426.48,-2457.81 3432.48,-2457.81 3432.48,-2457.81 3542.48,-2457.81 3542.48,-2457.81 3548.48,-2457.81 3554.48,-2463.81 3554.48,-2469.81 3554.48,-2469.81 3554.48,-2481.81 3554.48,-2481.81 3554.48,-2487.81 3548.48,-2493.81 3542.48,-2493.81"/>
<text text-anchor="middle" x="3487.48" y="-2472.11" font-family="Times,serif" font-size="14.00">{&#39;fileID&#39;: 130449835}</text>
</g>
<!-- 21 -->
<g id="node7" class="node">
<title>21</title>
<path fill="lightpink" stroke="lightpink" d="M3476.9,-2634.45C3476.9,-2634.45 3366.9,-2634.45 3366.9,-2634.45 3360.9,-2634.45 3354.9,-2628.45 3354.9,-2622.45 3354.9,-2622.45 3354.9,-2610.45 3354.9,-2610.45 3354.9,-2604.45 3360.9,-2598.45 3366.9,-2598.45 3366.9,-2598.45 3476.9,-2598.45 3476.9,-2598.45 3482.9,-2598.45 3488.9,-2604.45 3488.9,-2610.45 3488.9,-2610.45 3488.9,-2622.45 3488.9,-2622.45 3488.9,-2628.45 3482.9,-2634.45 3476.9,-2634.45"/>
<text text-anchor="middle" x="3421.9" y="-2612.75" font-family="Times,serif" font-size="14.00">{&#39;fileID&#39;: 130449834}</text>
</g>
<!-- 23 -->
<g id="node8" class="node">
<title>23</title>
<path fill="lightpink" stroke="lightpink" d="M3399.31,-2768.84C3399.31,-2768.84 3289.31,-2768.84 3289.31,-2768.84 3283.31,-2768.84 3277.31,-2762.84 3277.31,-2756.84 3277.31,-2756.84 3277.31,-2744.84 3277.31,-2744.84 3277.31,-2738.84 3283.31,-2732.84 3289.31,-2732.84 3289.31,-2732.84 3399.31,-2732.84 3399.31,-2732.84 3405.31,-2732.84 3411.31,-2738.84 3411.31,-2744.84 3411.31,-2744.84 3411.31,-2756.84 3411.31,-2756.84 3411.31,-2762.84 3405.31,-2768.84 3399.31,-2768.84"/>
<text text-anchor="middle" x="3344.31" y="-2747.14" font-family="Times,serif" font-size="14.00">{&#39;fileID&#39;: 130449833}</text>
</g>
<!-- 13 -->
<g id="node9" class="node">
<title>13</title>
<path fill="#b0e2ff" stroke="#b0e2ff" d="M2728.66,-2189.97C2728.66,-2189.97 2571.66,-2189.97 2571.66,-2189.97 2565.66,-2189.97 2559.66,-2183.97 2559.66,-2177.97 2559.66,-2177.97 2559.66,-2163.97 2559.66,-2163.97 2559.66,-2157.97 2565.66,-2151.97 2571.66,-2151.97 2571.66,-2151.97 2728.66,-2151.97 2728.66,-2151.97 2734.66,-2151.97 2740.66,-2157.97 2740.66,-2163.97 2740.66,-2163.97 2740.66,-2177.97 2740.66,-2177.97 2740.66,-2183.97 2734.66,-2189.97 2728.66,-2189.97"/>
<text text-anchor="middle" x="2650.16" y="-2174.77" font-family="Times,serif" font-size="14.00">GameObject_1_ID130449831</text>
<text text-anchor="middle" x="2650.16" y="-2159.77" font-family="Times,serif" font-size="14.00">Menu</text>
</g>
<!-- 13&#45;&gt;17 -->
<g id="edge4" class="edge">
<title>13&#45;&gt;17</title>
<path fill="none" stroke="black" d="M2740.85,-2187.16C2916.24,-2218.49 3299.06,-2286.86 3463.26,-2316.18"/>
<polygon fill="black" stroke="black" points="3462.82,-2319.66 3473.28,-2317.97 3464.05,-2312.77 3462.82,-2319.66"/>
</g>
<!-- 13&#45;&gt;19 -->
<g id="edge5" class="edge">
<title>13&#45;&gt;19</title>
<path fill="none" stroke="black" d="M2702.54,-2190.04C2850.7,-2243.98 3272.16,-2397.42 3428.32,-2454.27"/>
<polygon fill="black" stroke="black" points="3427.18,-2457.58 3437.78,-2457.71 3429.58,-2451 3427.18,-2457.58"/>
</g>
<!-- 13&#45;&gt;21 -->
<g id="edge6" class="edge">
<title>13&#45;&gt;21</title>
<path fill="none" stroke="black" d="M2683.32,-2190.11C2807.69,-2261.9 3246.23,-2515.04 3381.72,-2593.25"/>
<polygon fill="black" stroke="black" points="3380.16,-2596.39 3390.57,-2598.36 3383.66,-2590.33 3380.16,-2596.39"/>
</g>
<!-- 13&#45;&gt;23 -->
<g id="edge7" class="edge">
<title>13&#45;&gt;23</title>
<path fill="none" stroke="black" d="M2673.25,-2190.26C2776.86,-2276.81 3198.78,-2629.27 3314.71,-2726.11"/>
<polygon fill="black" stroke="black" points="3312.6,-2728.91 3322.52,-2732.63 3317.09,-2723.54 3312.6,-2728.91"/>
</g>
<!-- 30 -->
<g id="node10" class="node">
<title>30</title>
<path fill="lightpink" stroke="lightpink" d="M3313.8,-2895.95C3313.8,-2895.95 3196.8,-2895.95 3196.8,-2895.95 3190.8,-2895.95 3184.8,-2889.95 3184.8,-2883.95 3184.8,-2883.95 3184.8,-2871.95 3184.8,-2871.95 3184.8,-2865.95 3190.8,-2859.95 3196.8,-2859.95 3196.8,-2859.95 3313.8,-2859.95 3313.8,-2859.95 3319.8,-2859.95 3325.8,-2865.95 3325.8,-2871.95 3325.8,-2871.95 3325.8,-2883.95 3325.8,-2883.95 3325.8,-2889.95 3319.8,-2895.95 3313.8,-2895.95"/>
<text text-anchor="middle" x="3255.3" y="-2874.25" font-family="Times,serif" font-size="14.00">{&#39;fileID&#39;: 1747895407}</text>
</g>
<!-- 32 -->
<g id="node11" class="node">
<title>32</title>
<path fill="lightpink" stroke="lightpink" d="M3214.05,-3014.83C3214.05,-3014.83 3097.05,-3014.83 3097.05,-3014.83 3091.05,-3014.83 3085.05,-3008.83 3085.05,-3002.83 3085.05,-3002.83 3085.05,-2990.83 3085.05,-2990.83 3085.05,-2984.83 3091.05,-2978.83 3097.05,-2978.83 3097.05,-2978.83 3214.05,-2978.83 3214.05,-2978.83 3220.05,-2978.83 3226.05,-2984.83 3226.05,-2990.83 3226.05,-2990.83 3226.05,-3002.83 3226.05,-3002.83 3226.05,-3008.83 3220.05,-3014.83 3214.05,-3014.83"/>
<text text-anchor="middle" x="3155.55" y="-2993.13" font-family="Times,serif" font-size="14.00">{&#39;fileID&#39;: 1747895409}</text>
</g>
<!-- 34 -->
<g id="node12" class="node">
<title>34</title>
<path fill="lightpink" stroke="lightpink" d="M3104.33,-3124.55C3104.33,-3124.55 2987.33,-3124.55 2987.33,-3124.55 2981.33,-3124.55 2975.33,-3118.55 2975.33,-3112.55 2975.33,-3112.55 2975.33,-3100.55 2975.33,-3100.55 2975.33,-3094.55 2981.33,-3088.55 2987.33,-3088.55 2987.33,-3088.55 3104.33,-3088.55 3104.33,-3088.55 3110.33,-3088.55 3116.33,-3094.55 3116.33,-3100.55 3116.33,-3100.55 3116.33,-3112.55 3116.33,-3112.55 3116.33,-3118.55 3110.33,-3124.55 3104.33,-3124.55"/>
<text text-anchor="middle" x="3045.83" y="-3102.85" font-family="Times,serif" font-size="14.00">{&#39;fileID&#39;: 1747895408}</text>
</g>
<!-- 26 -->
<g id="node13" class="node">
<title>26</title>
<path fill="#b0e2ff" stroke="#b0e2ff" d="M2581.82,-2414.96C2581.82,-2414.96 2417.82,-2414.96 2417.82,-2414.96 2411.82,-2414.96 2405.82,-2408.96 2405.82,-2402.96 2405.82,-2402.96 2405.82,-2388.96 2405.82,-2388.96 2405.82,-2382.96 2411.82,-2376.96 2417.82,-2376.96 2417.82,-2376.96 2581.82,-2376.96 2581.82,-2376.96 2587.82,-2376.96 2593.82,-2382.96 2593.82,-2388.96 2593.82,-2388.96 2593.82,-2402.96 2593.82,-2402.96 2593.82,-2408.96 2587.82,-2414.96 2581.82,-2414.96"/>
<text text-anchor="middle" x="2499.82" y="-2399.76" font-family="Times,serif" font-size="14.00">GameObject_1_ID1747895406</text>
<text text-anchor="middle" x="2499.82" y="-2384.76" font-family="Times,serif" font-size="14.00">Text</text>
</g>
<!-- 26&#45;&gt;30 -->
<g id="edge8" class="edge">
<title>26&#45;&gt;30</title>
<path fill="none" stroke="black" d="M2529.91,-2415.15C2649.02,-2491.14 3087.46,-2770.87 3218.24,-2854.31"/>
<polygon fill="black" stroke="black" points="3216.45,-2857.32 3226.76,-2859.74 3220.21,-2851.41 3216.45,-2857.32"/>
</g>
<!-- 26&#45;&gt;32 -->
<g id="edge9" class="edge">
<title>26&#45;&gt;32</title>
<path fill="none" stroke="black" d="M2520.9,-2415.27C2617.67,-2503.95 3019.38,-2872.04 3128.24,-2971.8"/>
<polygon fill="black" stroke="black" points="3126.11,-2974.6 3135.85,-2978.77 3130.84,-2969.44 3126.11,-2974.6"/>
</g>
<!-- 26&#45;&gt;34 -->
<g id="edge10" class="edge">
<title>26&#45;&gt;34</title>
<path fill="none" stroke="black" d="M2514.43,-2414.97C2590.13,-2513.49 2937.73,-2965.88 3025.6,-3080.23"/>
<polygon fill="black" stroke="black" points="3023.06,-3082.67 3031.93,-3088.47 3028.61,-3078.41 3023.06,-3082.67"/>
</g>
<!-- 41 -->
<g id="node14" class="node">
<title>41</title>
<path fill="lightpink" stroke="lightpink" d="M2985.45,-3224.3C2985.45,-3224.3 2868.45,-3224.3 2868.45,-3224.3 2862.45,-3224.3 2856.45,-3218.3 2856.45,-3212.3 2856.45,-3212.3 2856.45,-3200.3 2856.45,-3200.3 2856.45,-3194.3 2862.45,-3188.3 2868.45,-3188.3 2868.45,-3188.3 2985.45,-3188.3 2985.45,-3188.3 2991.45,-3188.3 2997.45,-3194.3 2997.45,-3200.3 2997.45,-3200.3 2997.45,-3212.3 2997.45,-3212.3 2997.45,-3218.3 2991.45,-3224.3 2985.45,-3224.3"/>
<text text-anchor="middle" x="2926.95" y="-3202.6" font-family="Times,serif" font-size="14.00">{&#39;fileID&#39;: 1285890737}</text>
</g>
<!-- 43 -->
<g id="node15" class="node">
<title>43</title>
<path fill="lightpink" stroke="lightpink" d="M2858.34,-3313.31C2858.34,-3313.31 2741.34,-3313.31 2741.34,-3313.31 2735.34,-3313.31 2729.34,-3307.31 2729.34,-3301.31 2729.34,-3301.31 2729.34,-3289.31 2729.34,-3289.31 2729.34,-3283.31 2735.34,-3277.31 2741.34,-3277.31 2741.34,-3277.31 2858.34,-3277.31 2858.34,-3277.31 2864.34,-3277.31 2870.34,-3283.31 2870.34,-3289.31 2870.34,-3289.31 2870.34,-3301.31 2870.34,-3301.31 2870.34,-3307.31 2864.34,-3313.31 2858.34,-3313.31"/>
<text text-anchor="middle" x="2799.84" y="-3291.61" font-family="Times,serif" font-size="14.00">{&#39;fileID&#39;: 1285890739}</text>
</g>
<!-- 45 -->
<g id="node16" class="node">
<title>45</title>
<path fill="lightpink" stroke="lightpink" d="M2723.95,-3390.9C2723.95,-3390.9 2606.95,-3390.9 2606.95,-3390.9 2600.95,-3390.9 2594.95,-3384.9 2594.95,-3378.9 2594.95,-3378.9 2594.95,-3366.9 2594.95,-3366.9 2594.95,-3360.9 2600.95,-3354.9 2606.95,-3354.9 2606.95,-3354.9 2723.95,-3354.9 2723.95,-3354.9 2729.95,-3354.9 2735.95,-3360.9 2735.95,-3366.9 2735.95,-3366.9 2735.95,-3378.9 2735.95,-3378.9 2735.95,-3384.9 2729.95,-3390.9 2723.95,-3390.9"/>
<text text-anchor="middle" x="2665.45" y="-3369.2" font-family="Times,serif" font-size="14.00">{&#39;fileID&#39;: 1285890738}</text>
</g>
<!-- 37 -->
<g id="node17" class="node">
<title>37</title>
<path fill="#b0e2ff" stroke="#b0e2ff" d="M2403.96,-2564.2C2403.96,-2564.2 2239.96,-2564.2 2239.96,-2564.2 2233.96,-2564.2 2227.96,-2558.2 2227.96,-2552.2 2227.96,-2552.2 2227.96,-2538.2 2227.96,-2538.2 2227.96,-2532.2 2233.96,-2526.2 2239.96,-2526.2 2239.96,-2526.2 2403.96,-2526.2 2403.96,-2526.2 2409.96,-2526.2 2415.96,-2532.2 2415.96,-2538.2 2415.96,-2538.2 2415.96,-2552.2 2415.96,-2552.2 2415.96,-2558.2 2409.96,-2564.2 2403.96,-2564.2"/>
<text text-anchor="middle" x="2321.96" y="-2549" font-family="Times,serif" font-size="14.00">GameObject_1_ID1285890736</text>
<text text-anchor="middle" x="2321.96" y="-2534" font-family="Times,serif" font-size="14.00">Text</text>
</g>
<!-- 37&#45;&gt;41 -->
<g id="edge11" class="edge">
<title>37&#45;&gt;41</title>
<path fill="none" stroke="black" d="M2339.42,-2564.27C2425.51,-2658.35 2804.75,-3072.76 2903.42,-3180.59"/>
<polygon fill="black" stroke="black" points="2900.96,-3183.08 2910.29,-3188.09 2906.12,-3178.35 2900.96,-3183.08"/>
</g>
<!-- 37&#45;&gt;43 -->
<g id="edge12" class="edge">
<title>37&#45;&gt;43</title>
<path fill="none" stroke="black" d="M2334.26,-2564.5C2399.68,-2667.19 2706.85,-3149.35 2782.81,-3268.59"/>
<polygon fill="black" stroke="black" points="2779.95,-3270.6 2788.27,-3277.16 2785.85,-3266.84 2779.95,-3270.6"/>
</g>
<!-- 37&#45;&gt;45 -->
<g id="edge13" class="edge">
<title>37&#45;&gt;45</title>
<path fill="none" stroke="black" d="M2329.95,-2564.44C2375.31,-2673.74 2600.4,-3216.14 2653.98,-3345.27"/>
<polygon fill="black" stroke="black" points="2650.89,-3346.94 2657.95,-3354.84 2657.35,-3344.26 2650.89,-3346.94"/>
</g>
<!-- 52 -->
<g id="node18" class="node">
<title>52</title>
<path fill="lightpink" stroke="lightpink" d="M2579.81,-3456.48C2579.81,-3456.48 2469.81,-3456.48 2469.81,-3456.48 2463.81,-3456.48 2457.81,-3450.48 2457.81,-3444.48 2457.81,-3444.48 2457.81,-3432.48 2457.81,-3432.48 2457.81,-3426.48 2463.81,-3420.48 2469.81,-3420.48 2469.81,-3420.48 2579.81,-3420.48 2579.81,-3420.48 2585.81,-3420.48 2591.81,-3426.48 2591.81,-3432.48 2591.81,-3432.48 2591.81,-3444.48 2591.81,-3444.48 2591.81,-3450.48 2585.81,-3456.48 2579.81,-3456.48"/>
<text text-anchor="middle" x="2524.81" y="-3434.78" font-family="Times,serif" font-size="14.00">{&#39;fileID&#39;: 771856869}</text>
</g>
<!-- 54 -->
<g id="node19" class="node">
<title>54</title>
<path fill="lightpink" stroke="lightpink" d="M2433.99,-3509.55C2433.99,-3509.55 2323.99,-3509.55 2323.99,-3509.55 2317.99,-3509.55 2311.99,-3503.55 2311.99,-3497.55 2311.99,-3497.55 2311.99,-3485.55 2311.99,-3485.55 2311.99,-3479.55 2317.99,-3473.55 2323.99,-3473.55 2323.99,-3473.55 2433.99,-3473.55 2433.99,-3473.55 2439.99,-3473.55 2445.99,-3479.55 2445.99,-3485.55 2445.99,-3485.55 2445.99,-3497.55 2445.99,-3497.55 2445.99,-3503.55 2439.99,-3509.55 2433.99,-3509.55"/>
<text text-anchor="middle" x="2378.99" y="-3487.85" font-family="Times,serif" font-size="14.00">{&#39;fileID&#39;: 771856872}</text>
</g>
<!-- 56 -->
<g id="node20" class="node">
<title>56</title>
<path fill="lightpink" stroke="lightpink" d="M2284.09,-3549.72C2284.09,-3549.72 2174.09,-3549.72 2174.09,-3549.72 2168.09,-3549.72 2162.09,-3543.72 2162.09,-3537.72 2162.09,-3537.72 2162.09,-3525.72 2162.09,-3525.72 2162.09,-3519.72 2168.09,-3513.72 2174.09,-3513.72 2174.09,-3513.72 2284.09,-3513.72 2284.09,-3513.72 2290.09,-3513.72 2296.09,-3519.72 2296.09,-3525.72 2296.09,-3525.72 2296.09,-3537.72 2296.09,-3537.72 2296.09,-3543.72 2290.09,-3549.72 2284.09,-3549.72"/>
<text text-anchor="middle" x="2229.09" y="-3528.02" font-family="Times,serif" font-size="14.00">{&#39;fileID&#39;: 771856871}</text>
</g>
<!-- 58 -->
<g id="node21" class="node">
<title>58</title>
<path fill="lightpink" stroke="lightpink" d="M2131.27,-3576.66C2131.27,-3576.66 2021.27,-3576.66 2021.27,-3576.66 2015.27,-3576.66 2009.27,-3570.66 2009.27,-3564.66 2009.27,-3564.66 2009.27,-3552.66 2009.27,-3552.66 2009.27,-3546.66 2015.27,-3540.66 2021.27,-3540.66 2021.27,-3540.66 2131.27,-3540.66 2131.27,-3540.66 2137.27,-3540.66 2143.27,-3546.66 2143.27,-3552.66 2143.27,-3552.66 2143.27,-3564.66 2143.27,-3564.66 2143.27,-3570.66 2137.27,-3576.66 2131.27,-3576.66"/>
<text text-anchor="middle" x="2076.27" y="-3554.96" font-family="Times,serif" font-size="14.00">{&#39;fileID&#39;: 771856870}</text>
</g>
<!-- 48 -->
<g id="node22" class="node">
<title>48</title>
<path fill="#b0e2ff" stroke="#b0e2ff" d="M2152.79,-2673.18C2152.79,-2673.18 1995.79,-2673.18 1995.79,-2673.18 1989.79,-2673.18 1983.79,-2667.18 1983.79,-2661.18 1983.79,-2661.18 1983.79,-2647.18 1983.79,-2647.18 1983.79,-2641.18 1989.79,-2635.18 1995.79,-2635.18 1995.79,-2635.18 2152.79,-2635.18 2152.79,-2635.18 2158.79,-2635.18 2164.79,-2641.18 2164.79,-2647.18 2164.79,-2647.18 2164.79,-2661.18 2164.79,-2661.18 2164.79,-2667.18 2158.79,-2673.18 2152.79,-2673.18"/>
<text text-anchor="middle" x="2074.29" y="-2657.98" font-family="Times,serif" font-size="14.00">GameObject_1_ID771856868</text>
<text text-anchor="middle" x="2074.29" y="-2642.98" font-family="Times,serif" font-size="14.00">StartButton</text>
</g>
<!-- 48&#45;&gt;52 -->
<g id="edge14" class="edge">
<title>48&#45;&gt;52</title>
<path fill="none" stroke="black" d="M2085.42,-2673.57C2146.3,-2779.55 2438.69,-3288.55 2509.39,-3411.64"/>
<polygon fill="black" stroke="black" points="2506.44,-3413.53 2514.46,-3420.46 2512.51,-3410.05 2506.44,-3413.53"/>
</g>
<!-- 48&#45;&gt;54 -->
<g id="edge15" class="edge">
<title>48&#45;&gt;54</title>
<path fill="none" stroke="black" d="M2081.22,-2673.25C2121.11,-2782.87 2321.16,-3332.65 2368.79,-3463.55"/>
<polygon fill="black" stroke="black" points="2365.61,-3465.04 2372.32,-3473.24 2372.19,-3462.65 2365.61,-3465.04"/>
</g>
<!-- 48&#45;&gt;56 -->
<g id="edge16" class="edge">
<title>48&#45;&gt;56</title>
<path fill="none" stroke="black" d="M2077.66,-2673.33C2097.64,-2786.56 2200.26,-3368.27 2224.13,-3503.57"/>
<polygon fill="black" stroke="black" points="2220.71,-3504.32 2225.89,-3513.56 2227.6,-3503.11 2220.71,-3504.32"/>
</g>
<!-- 48&#45;&gt;58 -->
<g id="edge17" class="edge">
<title>48&#45;&gt;58</title>
<path fill="none" stroke="black" d="M2074.33,-2673.49C2074.58,-2789.28 2075.9,-3391.15 2076.21,-3530.05"/>
<polygon fill="black" stroke="black" points="2072.71,-3530.3 2076.23,-3540.29 2079.71,-3530.28 2072.71,-3530.3"/>
</g>
<!-- 65 -->
<g id="node23" class="node">
<title>65</title>
<path fill="lightpink" stroke="lightpink" d="M1980.18,-3590.19C1980.18,-3590.19 1863.18,-3590.19 1863.18,-3590.19 1857.18,-3590.19 1851.18,-3584.19 1851.18,-3578.19 1851.18,-3578.19 1851.18,-3566.19 1851.18,-3566.19 1851.18,-3560.19 1857.18,-3554.19 1863.18,-3554.19 1863.18,-3554.19 1980.18,-3554.19 1980.18,-3554.19 1986.18,-3554.19 1992.18,-3560.19 1992.18,-3566.19 1992.18,-3566.19 1992.18,-3578.19 1992.18,-3578.19 1992.18,-3584.19 1986.18,-3590.19 1980.18,-3590.19"/>
<text text-anchor="middle" x="1921.68" y="-3568.49" font-family="Times,serif" font-size="14.00">{&#39;fileID&#39;: 1351522637}</text>
</g>
<!-- 67 -->
<g id="node24" class="node">
<title>67</title>
<path fill="lightpink" stroke="lightpink" d="M1825,-3590.19C1825,-3590.19 1708,-3590.19 1708,-3590.19 1702,-3590.19 1696,-3584.19 1696,-3578.19 1696,-3578.19 1696,-3566.19 1696,-3566.19 1696,-3560.19 1702,-3554.19 1708,-3554.19 1708,-3554.19 1825,-3554.19 1825,-3554.19 1831,-3554.19 1837,-3560.19 1837,-3566.19 1837,-3566.19 1837,-3578.19 1837,-3578.19 1837,-3584.19 1831,-3590.19 1825,-3590.19"/>
<text text-anchor="middle" x="1766.5" y="-3568.49" font-family="Times,serif" font-size="14.00">{&#39;fileID&#39;: 1351522640}</text>
</g>
<!-- 69 -->
<g id="node25" class="node">
<title>69</title>
<path fill="lightpink" stroke="lightpink" d="M1670.42,-3576.66C1670.42,-3576.66 1553.42,-3576.66 1553.42,-3576.66 1547.42,-3576.66 1541.42,-3570.66 1541.42,-3564.66 1541.42,-3564.66 1541.42,-3552.66 1541.42,-3552.66 1541.42,-3546.66 1547.42,-3540.66 1553.42,-3540.66 1553.42,-3540.66 1670.42,-3540.66 1670.42,-3540.66 1676.42,-3540.66 1682.42,-3546.66 1682.42,-3552.66 1682.42,-3552.66 1682.42,-3564.66 1682.42,-3564.66 1682.42,-3570.66 1676.42,-3576.66 1670.42,-3576.66"/>
<text text-anchor="middle" x="1611.92" y="-3554.96" font-family="Times,serif" font-size="14.00">{&#39;fileID&#39;: 1351522639}</text>
</g>
<!-- 71 -->
<g id="node26" class="node">
<title>71</title>
<path fill="lightpink" stroke="lightpink" d="M1517.59,-3549.72C1517.59,-3549.72 1400.59,-3549.72 1400.59,-3549.72 1394.59,-3549.72 1388.59,-3543.72 1388.59,-3537.72 1388.59,-3537.72 1388.59,-3525.72 1388.59,-3525.72 1388.59,-3519.72 1394.59,-3513.72 1400.59,-3513.72 1400.59,-3513.72 1517.59,-3513.72 1517.59,-3513.72 1523.59,-3513.72 1529.59,-3519.72 1529.59,-3525.72 1529.59,-3525.72 1529.59,-3537.72 1529.59,-3537.72 1529.59,-3543.72 1523.59,-3549.72 1517.59,-3549.72"/>
<text text-anchor="middle" x="1459.09" y="-3528.02" font-family="Times,serif" font-size="14.00">{&#39;fileID&#39;: 1351522638}</text>
</g>
<!-- 61 -->
<g id="node27" class="node">
<title>61</title>
<path fill="#b0e2ff" stroke="#b0e2ff" d="M1848.58,-2700.1C1848.58,-2700.1 1684.58,-2700.1 1684.58,-2700.1 1678.58,-2700.1 1672.58,-2694.1 1672.58,-2688.1 1672.58,-2688.1 1672.58,-2674.1 1672.58,-2674.1 1672.58,-2668.1 1678.58,-2662.1 1684.58,-2662.1 1684.58,-2662.1 1848.58,-2662.1 1848.58,-2662.1 1854.58,-2662.1 1860.58,-2668.1 1860.58,-2674.1 1860.58,-2674.1 1860.58,-2688.1 1860.58,-2688.1 1860.58,-2694.1 1854.58,-2700.1 1848.58,-2700.1"/>
<text text-anchor="middle" x="1766.58" y="-2684.9" font-family="Times,serif" font-size="14.00">GameObject_1_ID1351522636</text>
<text text-anchor="middle" x="1766.58" y="-2669.9" font-family="Times,serif" font-size="14.00">ExitButton</text>
</g>
<!-- 61&#45;&gt;65 -->
<g id="edge18" class="edge">
<title>61&#45;&gt;65</title>
<path fill="none" stroke="black" d="M1769.89,-2700.13C1789.75,-2814.2 1892.96,-3407.16 1916.78,-3543.99"/>
<polygon fill="black" stroke="black" points="1913.37,-3544.84 1918.53,-3554.09 1920.27,-3543.64 1913.37,-3544.84"/>
</g>
<!-- 61&#45;&gt;67 -->
<g id="edge19" class="edge">
<title>61&#45;&gt;67</title>
<path fill="none" stroke="black" d="M1766.58,-2700.13C1766.57,-2814.2 1766.52,-3407.16 1766.51,-3543.99"/>
<polygon fill="black" stroke="black" points="1763.01,-3544.09 1766.51,-3554.09 1770.01,-3544.09 1763.01,-3544.09"/>
</g>
<!-- 61&#45;&gt;69 -->
<g id="edge20" class="edge">
<title>61&#45;&gt;69</title>
<path fill="none" stroke="black" d="M1763.2,-2700.25C1743.25,-2813.49 1640.72,-3395.21 1616.88,-3530.52"/>
<polygon fill="black" stroke="black" points="1613.4,-3530.05 1615.12,-3540.51 1620.3,-3531.27 1613.4,-3530.05"/>
</g>
<!-- 61&#45;&gt;71 -->
<g id="edge21" class="edge">
<title>61&#45;&gt;71</title>
<path fill="none" stroke="black" d="M1759.58,-2700.47C1719.28,-2811.95 1517.01,-3371.5 1469.22,-3503.7"/>
<polygon fill="black" stroke="black" points="1465.79,-3502.89 1465.69,-3513.48 1472.38,-3505.27 1465.79,-3502.89"/>
</g>
<!-- 78 -->
<g id="node28" class="node">
<title>78</title>
<path fill="lightpink" stroke="lightpink" d="M1364.2,-3509.55C1364.2,-3509.55 1254.2,-3509.55 1254.2,-3509.55 1248.2,-3509.55 1242.2,-3503.55 1242.2,-3497.55 1242.2,-3497.55 1242.2,-3485.55 1242.2,-3485.55 1242.2,-3479.55 1248.2,-3473.55 1254.2,-3473.55 1254.2,-3473.55 1364.2,-3473.55 1364.2,-3473.55 1370.2,-3473.55 1376.2,-3479.55 1376.2,-3485.55 1376.2,-3485.55 1376.2,-3497.55 1376.2,-3497.55 1376.2,-3503.55 1370.2,-3509.55 1364.2,-3509.55"/>
<text text-anchor="middle" x="1309.2" y="-3487.85" font-family="Times,serif" font-size="14.00">{&#39;fileID&#39;: 960558224}</text>
</g>
<!-- 80 -->
<g id="node29" class="node">
<title>80</title>
<path fill="lightpink" stroke="lightpink" d="M1218.38,-3456.48C1218.38,-3456.48 1108.38,-3456.48 1108.38,-3456.48 1102.38,-3456.48 1096.38,-3450.48 1096.38,-3444.48 1096.38,-3444.48 1096.38,-3432.48 1096.38,-3432.48 1096.38,-3426.48 1102.38,-3420.48 1108.38,-3420.48 1108.38,-3420.48 1218.38,-3420.48 1218.38,-3420.48 1224.38,-3420.48 1230.38,-3426.48 1230.38,-3432.48 1230.38,-3432.48 1230.38,-3444.48 1230.38,-3444.48 1230.38,-3450.48 1224.38,-3456.48 1218.38,-3456.48"/>
<text text-anchor="middle" x="1163.38" y="-3434.78" font-family="Times,serif" font-size="14.00">{&#39;fileID&#39;: 960558226}</text>
</g>
<!-- 82 -->
<g id="node30" class="node">
<title>82</title>
<path fill="lightpink" stroke="lightpink" d="M1077.74,-3390.9C1077.74,-3390.9 967.74,-3390.9 967.74,-3390.9 961.74,-3390.9 955.74,-3384.9 955.74,-3378.9 955.74,-3378.9 955.74,-3366.9 955.74,-3366.9 955.74,-3360.9 961.74,-3354.9 967.74,-3354.9 967.74,-3354.9 1077.74,-3354.9 1077.74,-3354.9 1083.74,-3354.9 1089.74,-3360.9 1089.74,-3366.9 1089.74,-3366.9 1089.74,-3378.9 1089.74,-3378.9 1089.74,-3384.9 1083.74,-3390.9 1077.74,-3390.9"/>
<text text-anchor="middle" x="1022.74" y="-3369.2" font-family="Times,serif" font-size="14.00">{&#39;fileID&#39;: 960558225}</text>
</g>
<!-- 74 -->
<g id="node31" class="node">
<title>74</title>
<path fill="#b0e2ff" stroke="#b0e2ff" d="M1582.24,-2635.79C1582.24,-2635.79 1425.24,-2635.79 1425.24,-2635.79 1419.24,-2635.79 1413.24,-2629.79 1413.24,-2623.79 1413.24,-2623.79 1413.24,-2609.79 1413.24,-2609.79 1413.24,-2603.79 1419.24,-2597.79 1425.24,-2597.79 1425.24,-2597.79 1582.24,-2597.79 1582.24,-2597.79 1588.24,-2597.79 1594.24,-2603.79 1594.24,-2609.79 1594.24,-2609.79 1594.24,-2623.79 1594.24,-2623.79 1594.24,-2629.79 1588.24,-2635.79 1582.24,-2635.79"/>
<text text-anchor="middle" x="1503.74" y="-2620.59" font-family="Times,serif" font-size="14.00">GameObject_1_ID960558223</text>
<text text-anchor="middle" x="1503.74" y="-2605.59" font-family="Times,serif" font-size="14.00">Text</text>
</g>
<!-- 74&#45;&gt;78 -->
<g id="edge22" class="edge">
<title>74&#45;&gt;78</title>
<path fill="none" stroke="black" d="M1499.49,-2635.87C1474.39,-2748.75 1345.44,-3328.62 1315.44,-3463.5"/>
<polygon fill="black" stroke="black" points="1311.98,-3462.94 1313.23,-3473.46 1318.81,-3464.46 1311.98,-3462.94"/>
</g>
<!-- 74&#45;&gt;80 -->
<g id="edge23" class="edge">
<title>74&#45;&gt;80</title>
<path fill="none" stroke="black" d="M1495.83,-2635.89C1450.93,-2744.28 1228.32,-3281.7 1174.91,-3410.64"/>
<polygon fill="black" stroke="black" points="1171.55,-3409.62 1170.95,-3420.2 1178.02,-3412.3 1171.55,-3409.62"/>
</g>
<!-- 74&#45;&gt;82 -->
<g id="edge24" class="edge">
<title>74&#45;&gt;82</title>
<path fill="none" stroke="black" d="M1491.61,-2635.86C1426.29,-2738.54 1116.53,-3225.47 1039.91,-3345.91"/>
<polygon fill="black" stroke="black" points="1036.82,-3344.25 1034.41,-3354.56 1042.73,-3348 1036.82,-3344.25"/>
</g>
<!-- 89 -->
<g id="node32" class="node">
<title>89</title>
<path fill="lightpink" stroke="lightpink" d="M946.85,-3313.31C946.85,-3313.31 829.85,-3313.31 829.85,-3313.31 823.85,-3313.31 817.85,-3307.31 817.85,-3301.31 817.85,-3301.31 817.85,-3289.31 817.85,-3289.31 817.85,-3283.31 823.85,-3277.31 829.85,-3277.31 829.85,-3277.31 946.85,-3277.31 946.85,-3277.31 952.85,-3277.31 958.85,-3283.31 958.85,-3289.31 958.85,-3289.31 958.85,-3301.31 958.85,-3301.31 958.85,-3307.31 952.85,-3313.31 946.85,-3313.31"/>
<text text-anchor="middle" x="888.35" y="-3291.61" font-family="Times,serif" font-size="14.00">{&#39;fileID&#39;: 1089201444}</text>
</g>
<!-- 91 -->
<g id="node33" class="node">
<title>91</title>
<path fill="lightpink" stroke="lightpink" d="M819.74,-3224.3C819.74,-3224.3 702.74,-3224.3 702.74,-3224.3 696.74,-3224.3 690.74,-3218.3 690.74,-3212.3 690.74,-3212.3 690.74,-3200.3 690.74,-3200.3 690.74,-3194.3 696.74,-3188.3 702.74,-3188.3 702.74,-3188.3 819.74,-3188.3 819.74,-3188.3 825.74,-3188.3 831.74,-3194.3 831.74,-3200.3 831.74,-3200.3 831.74,-3212.3 831.74,-3212.3 831.74,-3218.3 825.74,-3224.3 819.74,-3224.3"/>
<text text-anchor="middle" x="761.24" y="-3202.6" font-family="Times,serif" font-size="14.00">{&#39;fileID&#39;: 1089201445}</text>
</g>
<!-- 85 -->
<g id="node34" class="node">
<title>85</title>
<path fill="#b0e2ff" stroke="#b0e2ff" d="M1415.96,-2542.64C1415.96,-2542.64 1251.96,-2542.64 1251.96,-2542.64 1245.96,-2542.64 1239.96,-2536.64 1239.96,-2530.64 1239.96,-2530.64 1239.96,-2516.64 1239.96,-2516.64 1239.96,-2510.64 1245.96,-2504.64 1251.96,-2504.64 1251.96,-2504.64 1415.96,-2504.64 1415.96,-2504.64 1421.96,-2504.64 1427.96,-2510.64 1427.96,-2516.64 1427.96,-2516.64 1427.96,-2530.64 1427.96,-2530.64 1427.96,-2536.64 1421.96,-2542.64 1415.96,-2542.64"/>
<text text-anchor="middle" x="1333.96" y="-2527.44" font-family="Times,serif" font-size="14.00">GameObject_1_ID1089201443</text>
<text text-anchor="middle" x="1333.96" y="-2512.44" font-family="Times,serif" font-size="14.00">Buttons</text>
</g>
<!-- 85&#45;&gt;89 -->
<g id="edge25" class="edge">
<title>85&#45;&gt;89</title>
<path fill="none" stroke="black" d="M1322.94,-2542.72C1262.79,-2646.88 974.16,-3146.71 903.83,-3268.51"/>
<polygon fill="black" stroke="black" points="900.76,-3266.83 898.79,-3277.24 906.82,-3270.33 900.76,-3266.83"/>
</g>
<!-- 85&#45;&gt;91 -->
<g id="edge26" class="edge">
<title>85&#45;&gt;91</title>
<path fill="none" stroke="black" d="M1317.74,-2542.97C1236.67,-2639.61 875.58,-3070.01 782.95,-3180.42"/>
<polygon fill="black" stroke="black" points="780.25,-3178.19 776.51,-3188.1 785.62,-3182.69 780.25,-3178.19"/>
</g>
<!-- 98 -->
<g id="node35" class="node">
<title>98</title>
<path fill="lightpink" stroke="lightpink" d="M700.86,-3124.55C700.86,-3124.55 583.86,-3124.55 583.86,-3124.55 577.86,-3124.55 571.86,-3118.55 571.86,-3112.55 571.86,-3112.55 571.86,-3100.55 571.86,-3100.55 571.86,-3094.55 577.86,-3088.55 583.86,-3088.55 583.86,-3088.55 700.86,-3088.55 700.86,-3088.55 706.86,-3088.55 712.86,-3094.55 712.86,-3100.55 712.86,-3100.55 712.86,-3112.55 712.86,-3112.55 712.86,-3118.55 706.86,-3124.55 700.86,-3124.55"/>
<text text-anchor="middle" x="642.36" y="-3102.85" font-family="Times,serif" font-size="14.00">{&#39;fileID&#39;: 1651329296}</text>
</g>
<!-- 100 -->
<g id="node36" class="node">
<title>100</title>
<path fill="lightpink" stroke="lightpink" d="M591.13,-3014.83C591.13,-3014.83 474.13,-3014.83 474.13,-3014.83 468.13,-3014.83 462.13,-3008.83 462.13,-3002.83 462.13,-3002.83 462.13,-2990.83 462.13,-2990.83 462.13,-2984.83 468.13,-2978.83 474.13,-2978.83 474.13,-2978.83 591.13,-2978.83 591.13,-2978.83 597.13,-2978.83 603.13,-2984.83 603.13,-2990.83 603.13,-2990.83 603.13,-3002.83 603.13,-3002.83 603.13,-3008.83 597.13,-3014.83 591.13,-3014.83"/>
<text text-anchor="middle" x="532.63" y="-2993.13" font-family="Times,serif" font-size="14.00">{&#39;fileID&#39;: 1651329298}</text>
</g>
<!-- 102 -->
<g id="node37" class="node">
<title>102</title>
<path fill="lightpink" stroke="lightpink" d="M491.39,-2895.95C491.39,-2895.95 374.39,-2895.95 374.39,-2895.95 368.39,-2895.95 362.39,-2889.95 362.39,-2883.95 362.39,-2883.95 362.39,-2871.95 362.39,-2871.95 362.39,-2865.95 368.39,-2859.95 374.39,-2859.95 374.39,-2859.95 491.39,-2859.95 491.39,-2859.95 497.39,-2859.95 503.39,-2865.95 503.39,-2871.95 503.39,-2871.95 503.39,-2883.95 503.39,-2883.95 503.39,-2889.95 497.39,-2895.95 491.39,-2895.95"/>
<text text-anchor="middle" x="432.89" y="-2874.25" font-family="Times,serif" font-size="14.00">{&#39;fileID&#39;: 1651329297}</text>
</g>
<!-- 94 -->
<g id="node38" class="node">
<title>94</title>
<path fill="#b0e2ff" stroke="#b0e2ff" d="M1270.36,-2414.96C1270.36,-2414.96 1106.36,-2414.96 1106.36,-2414.96 1100.36,-2414.96 1094.36,-2408.96 1094.36,-2402.96 1094.36,-2402.96 1094.36,-2388.96 1094.36,-2388.96 1094.36,-2382.96 1100.36,-2376.96 1106.36,-2376.96 1106.36,-2376.96 1270.36,-2376.96 1270.36,-2376.96 1276.36,-2376.96 1282.36,-2382.96 1282.36,-2388.96 1282.36,-2388.96 1282.36,-2402.96 1282.36,-2402.96 1282.36,-2408.96 1276.36,-2414.96 1270.36,-2414.96"/>
<text text-anchor="middle" x="1188.36" y="-2399.76" font-family="Times,serif" font-size="14.00">GameObject_1_ID1651329295</text>
<text text-anchor="middle" x="1188.36" y="-2384.76" font-family="Times,serif" font-size="14.00">Text</text>
</g>
<!-- 94&#45;&gt;98 -->
<g id="edge27" class="edge">
<title>94&#45;&gt;98</title>
<path fill="none" stroke="black" d="M1173.76,-2414.97C1098.06,-2513.49 750.46,-2965.88 662.59,-3080.23"/>
<polygon fill="black" stroke="black" points="659.57,-3078.41 656.26,-3088.47 665.13,-3082.67 659.57,-3078.41"/>
</g>
<!-- 94&#45;&gt;100 -->
<g id="edge28" class="edge">
<title>94&#45;&gt;100</title>
<path fill="none" stroke="black" d="M1167.29,-2415.27C1070.52,-2503.95 668.81,-2872.04 559.95,-2971.8"/>
<polygon fill="black" stroke="black" points="557.34,-2969.44 552.34,-2978.77 562.07,-2974.6 557.34,-2969.44"/>
</g>
<!-- 94&#45;&gt;102 -->
<g id="edge29" class="edge">
<title>94&#45;&gt;102</title>
<path fill="none" stroke="black" d="M1158.28,-2415.15C1039.17,-2491.14 600.73,-2770.87 469.95,-2854.31"/>
<polygon fill="black" stroke="black" points="467.97,-2851.41 461.43,-2859.74 471.74,-2857.32 467.97,-2851.41"/>
</g>
<!-- 109 -->
<g id="node39" class="node">
<title>109</title>
<path fill="lightpink" stroke="lightpink" d="M402.38,-2768.84C402.38,-2768.84 285.38,-2768.84 285.38,-2768.84 279.38,-2768.84 273.38,-2762.84 273.38,-2756.84 273.38,-2756.84 273.38,-2744.84 273.38,-2744.84 273.38,-2738.84 279.38,-2732.84 285.38,-2732.84 285.38,-2732.84 402.38,-2732.84 402.38,-2732.84 408.38,-2732.84 414.38,-2738.84 414.38,-2744.84 414.38,-2744.84 414.38,-2756.84 414.38,-2756.84 414.38,-2762.84 408.38,-2768.84 402.38,-2768.84"/>
<text text-anchor="middle" x="343.88" y="-2747.14" font-family="Times,serif" font-size="14.00">{&#39;fileID&#39;: 1040292124}</text>
</g>
<!-- 111 -->
<g id="node40" class="node">
<title>111</title>
<path fill="lightpink" stroke="lightpink" d="M324.79,-2634.45C324.79,-2634.45 207.79,-2634.45 207.79,-2634.45 201.79,-2634.45 195.79,-2628.45 195.79,-2622.45 195.79,-2622.45 195.79,-2610.45 195.79,-2610.45 195.79,-2604.45 201.79,-2598.45 207.79,-2598.45 207.79,-2598.45 324.79,-2598.45 324.79,-2598.45 330.79,-2598.45 336.79,-2604.45 336.79,-2610.45 336.79,-2610.45 336.79,-2622.45 336.79,-2622.45 336.79,-2628.45 330.79,-2634.45 324.79,-2634.45"/>
<text text-anchor="middle" x="266.29" y="-2612.75" font-family="Times,serif" font-size="14.00">{&#39;fileID&#39;: 1040292126}</text>
</g>
<!-- 113 -->
<g id="node41" class="node">
<title>113</title>
<path fill="lightpink" stroke="lightpink" d="M259.21,-2493.81C259.21,-2493.81 142.21,-2493.81 142.21,-2493.81 136.21,-2493.81 130.21,-2487.81 130.21,-2481.81 130.21,-2481.81 130.21,-2469.81 130.21,-2469.81 130.21,-2463.81 136.21,-2457.81 142.21,-2457.81 142.21,-2457.81 259.21,-2457.81 259.21,-2457.81 265.21,-2457.81 271.21,-2463.81 271.21,-2469.81 271.21,-2469.81 271.21,-2481.81 271.21,-2481.81 271.21,-2487.81 265.21,-2493.81 259.21,-2493.81"/>
<text text-anchor="middle" x="200.71" y="-2472.11" font-family="Times,serif" font-size="14.00">{&#39;fileID&#39;: 1040292125}</text>
</g>
<!-- 105 -->
<g id="node42" class="node">
<title>105</title>
<path fill="#b0e2ff" stroke="#b0e2ff" d="M1137.19,-2224.77C1137.19,-2224.77 973.19,-2224.77 973.19,-2224.77 967.19,-2224.77 961.19,-2218.77 961.19,-2212.77 961.19,-2212.77 961.19,-2198.77 961.19,-2198.77 961.19,-2192.77 967.19,-2186.77 973.19,-2186.77 973.19,-2186.77 1137.19,-2186.77 1137.19,-2186.77 1143.19,-2186.77 1149.19,-2192.77 1149.19,-2198.77 1149.19,-2198.77 1149.19,-2212.77 1149.19,-2212.77 1149.19,-2218.77 1143.19,-2224.77 1137.19,-2224.77"/>
<text text-anchor="middle" x="1055.19" y="-2209.57" font-family="Times,serif" font-size="14.00">GameObject_1_ID1040292123</text>
<text text-anchor="middle" x="1055.19" y="-2194.57" font-family="Times,serif" font-size="14.00">Text</text>
</g>
<!-- 105&#45;&gt;109 -->
<g id="edge30" class="edge">
<title>105&#45;&gt;109</title>
<path fill="none" stroke="black" d="M1030.29,-2224.85C922.48,-2307.47 495.9,-2634.35 375.61,-2726.52"/>
<polygon fill="black" stroke="black" points="373.29,-2723.89 367.49,-2732.75 377.55,-2729.44 373.29,-2723.89"/>
</g>
<!-- 105&#45;&gt;111 -->
<g id="edge31" class="edge">
<title>105&#45;&gt;111</title>
<path fill="none" stroke="black" d="M1018.46,-2224.89C888.52,-2292.53 450.85,-2520.37 310.21,-2593.59"/>
<polygon fill="black" stroke="black" points="308.24,-2590.66 300.99,-2598.38 311.48,-2596.87 308.24,-2590.66"/>
</g>
<!-- 105&#45;&gt;113 -->
<g id="edge32" class="edge">
<title>105&#45;&gt;113</title>
<path fill="none" stroke="black" d="M994.77,-2224.87C839.88,-2273.81 429.51,-2403.5 267.68,-2454.64"/>
<polygon fill="black" stroke="black" points="266.33,-2451.4 257.85,-2457.75 268.44,-2458.07 266.33,-2451.4"/>
</g>
<!-- 120 -->
<g id="node43" class="node">
<title>120</title>
<path fill="lightpink" stroke="lightpink" d="M202.63,-2347.99C202.63,-2347.99 92.63,-2347.99 92.63,-2347.99 86.63,-2347.99 80.63,-2341.99 80.63,-2335.99 80.63,-2335.99 80.63,-2323.99 80.63,-2323.99 80.63,-2317.99 86.63,-2311.99 92.63,-2311.99 92.63,-2311.99 202.63,-2311.99 202.63,-2311.99 208.63,-2311.99 214.63,-2317.99 214.63,-2323.99 214.63,-2323.99 214.63,-2335.99 214.63,-2335.99 214.63,-2341.99 208.63,-2347.99 202.63,-2347.99"/>
<text text-anchor="middle" x="147.63" y="-2326.29" font-family="Times,serif" font-size="14.00">{&#39;fileID&#39;: 808250885}</text>
</g>
<!-- 122 -->
<g id="node44" class="node">
<title>122</title>
<path fill="lightpink" stroke="lightpink" d="M162.47,-2198.09C162.47,-2198.09 52.47,-2198.09 52.47,-2198.09 46.47,-2198.09 40.47,-2192.09 40.47,-2186.09 40.47,-2186.09 40.47,-2174.09 40.47,-2174.09 40.47,-2168.09 46.47,-2162.09 52.47,-2162.09 52.47,-2162.09 162.47,-2162.09 162.47,-2162.09 168.47,-2162.09 174.47,-2168.09 174.47,-2174.09 174.47,-2174.09 174.47,-2186.09 174.47,-2186.09 174.47,-2192.09 168.47,-2198.09 162.47,-2198.09"/>
<text text-anchor="middle" x="107.47" y="-2176.39" font-family="Times,serif" font-size="14.00">{&#39;fileID&#39;: 808250887}</text>
</g>
<!-- 124 -->
<g id="node45" class="node">
<title>124</title>
<path fill="lightpink" stroke="lightpink" d="M135.52,-2045.27C135.52,-2045.27 25.52,-2045.27 25.52,-2045.27 19.52,-2045.27 13.52,-2039.27 13.52,-2033.27 13.52,-2033.27 13.52,-2021.27 13.52,-2021.27 13.52,-2015.27 19.52,-2009.27 25.52,-2009.27 25.52,-2009.27 135.52,-2009.27 135.52,-2009.27 141.52,-2009.27 147.52,-2015.27 147.52,-2021.27 147.52,-2021.27 147.52,-2033.27 147.52,-2033.27 147.52,-2039.27 141.52,-2045.27 135.52,-2045.27"/>
<text text-anchor="middle" x="80.52" y="-2023.57" font-family="Times,serif" font-size="14.00">{&#39;fileID&#39;: 808250886}</text>
</g>
<!-- 116 -->
<g id="node46" class="node">
<title>116</title>
<path fill="#b0e2ff" stroke="#b0e2ff" d="M1054.28,-2006.59C1054.28,-2006.59 897.28,-2006.59 897.28,-2006.59 891.28,-2006.59 885.28,-2000.59 885.28,-1994.59 885.28,-1994.59 885.28,-1980.59 885.28,-1980.59 885.28,-1974.59 891.28,-1968.59 897.28,-1968.59 897.28,-1968.59 1054.28,-1968.59 1054.28,-1968.59 1060.28,-1968.59 1066.28,-1974.59 1066.28,-1980.59 1066.28,-1980.59 1066.28,-1994.59 1066.28,-1994.59 1066.28,-2000.59 1060.28,-2006.59 1054.28,-2006.59"/>
<text text-anchor="middle" x="975.78" y="-1991.39" font-family="Times,serif" font-size="14.00">GameObject_1_ID808250884</text>
<text text-anchor="middle" x="975.78" y="-1976.39" font-family="Times,serif" font-size="14.00">Application</text>
</g>
<!-- 116&#45;&gt;120 -->
<g id="edge33" class="edge">
<title>116&#45;&gt;120</title>
<path fill="none" stroke="black" d="M929.78,-2006.61C787.28,-2065.53 353.63,-2244.82 201.26,-2307.81"/>
<polygon fill="black" stroke="black" points="199.54,-2304.74 191.64,-2311.79 202.22,-2311.21 199.54,-2304.74"/>
</g>
<!-- 116&#45;&gt;122 -->
<g id="edge34" class="edge">
<title>116&#45;&gt;122</title>
<path fill="none" stroke="black" d="M889.75,-2006.67C720.43,-2044.2 346.38,-2127.13 184.57,-2163"/>
<polygon fill="black" stroke="black" points="183.69,-2159.61 174.68,-2165.19 185.2,-2166.45 183.69,-2159.61"/>
</g>
<!-- 116&#45;&gt;124 -->
<g id="edge35" class="edge">
<title>116&#45;&gt;124</title>
<path fill="none" stroke="black" d="M885.01,-1991.62C708.67,-1999.43 322.65,-2016.54 157.72,-2023.85"/>
<polygon fill="black" stroke="black" points="157.49,-2020.36 147.66,-2024.3 157.8,-2027.35 157.49,-2020.36"/>
</g>
<!-- 131 -->
<g id="node47" class="node">
<title>131</title>
<path fill="lightpink" stroke="lightpink" d="M122,-1890.68C122,-1890.68 12,-1890.68 12,-1890.68 6,-1890.68 0,-1884.68 0,-1878.68 0,-1878.68 0,-1866.68 0,-1866.68 0,-1860.68 6,-1854.68 12,-1854.68 12,-1854.68 122,-1854.68 122,-1854.68 128,-1854.68 134,-1860.68 134,-1866.68 134,-1866.68 134,-1878.68 134,-1878.68 134,-1884.68 128,-1890.68 122,-1890.68"/>
<text text-anchor="middle" x="67" y="-1868.98" font-family="Times,serif" font-size="14.00">{&#39;fileID&#39;: 265550442}</text>
</g>
<!-- 133 -->
<g id="node48" class="node">
<title>133</title>
<path fill="lightpink" stroke="lightpink" d="M122,-1735.5C122,-1735.5 12,-1735.5 12,-1735.5 6,-1735.5 0,-1729.5 0,-1723.5 0,-1723.5 0,-1711.5 0,-1711.5 0,-1705.5 6,-1699.5 12,-1699.5 12,-1699.5 122,-1699.5 122,-1699.5 128,-1699.5 134,-1705.5 134,-1711.5 134,-1711.5 134,-1723.5 134,-1723.5 134,-1729.5 128,-1735.5 122,-1735.5"/>
<text text-anchor="middle" x="67" y="-1713.8" font-family="Times,serif" font-size="14.00">{&#39;fileID&#39;: 265550444}</text>
</g>
<!-- 135 -->
<g id="node49" class="node">
<title>135</title>
<path fill="lightpink" stroke="lightpink" d="M135.52,-1580.92C135.52,-1580.92 25.52,-1580.92 25.52,-1580.92 19.52,-1580.92 13.52,-1574.92 13.52,-1568.92 13.52,-1568.92 13.52,-1556.92 13.52,-1556.92 13.52,-1550.92 19.52,-1544.92 25.52,-1544.92 25.52,-1544.92 135.52,-1544.92 135.52,-1544.92 141.52,-1544.92 147.52,-1550.92 147.52,-1556.92 147.52,-1556.92 147.52,-1568.92 147.52,-1568.92 147.52,-1574.92 141.52,-1580.92 135.52,-1580.92"/>
<text text-anchor="middle" x="80.52" y="-1559.22" font-family="Times,serif" font-size="14.00">{&#39;fileID&#39;: 265550443}</text>
</g>
<!-- 127 -->
<g id="node50" class="node">
<title>127</title>
<path fill="#b0e2ff" stroke="#b0e2ff" d="M1034.05,-1775.3C1034.05,-1775.3 877.05,-1775.3 877.05,-1775.3 871.05,-1775.3 865.05,-1769.3 865.05,-1763.3 865.05,-1763.3 865.05,-1749.3 865.05,-1749.3 865.05,-1743.3 871.05,-1737.3 877.05,-1737.3 877.05,-1737.3 1034.05,-1737.3 1034.05,-1737.3 1040.05,-1737.3 1046.05,-1743.3 1046.05,-1749.3 1046.05,-1749.3 1046.05,-1763.3 1046.05,-1763.3 1046.05,-1769.3 1040.05,-1775.3 1034.05,-1775.3"/>
<text text-anchor="middle" x="955.55" y="-1760.1" font-family="Times,serif" font-size="14.00">GameObject_1_ID265550441</text>
<text text-anchor="middle" x="955.55" y="-1745.1" font-family="Times,serif" font-size="14.00">Text</text>
</g>
<!-- 127&#45;&gt;131 -->
<g id="edge36" class="edge">
<title>127&#45;&gt;131</title>
<path fill="none" stroke="black" d="M865.05,-1768.15C690.02,-1791.08 307.99,-1841.12 144.14,-1862.58"/>
<polygon fill="black" stroke="black" points="143.6,-1859.12 134.14,-1863.89 144.51,-1866.06 143.6,-1859.12"/>
</g>
<!-- 127&#45;&gt;133 -->
<g id="edge37" class="edge">
<title>127&#45;&gt;133</title>
<path fill="none" stroke="black" d="M865.05,-1752.35C690.02,-1744.71 307.99,-1728.03 144.14,-1720.87"/>
<polygon fill="black" stroke="black" points="144.28,-1717.38 134.14,-1720.44 143.97,-1724.37 144.28,-1717.38"/>
</g>
<!-- 127&#45;&gt;135 -->
<g id="edge38" class="edge">
<title>127&#45;&gt;135</title>
<path fill="none" stroke="black" d="M869.25,-1737.23C698.63,-1699.52 320.61,-1615.98 157.7,-1579.97"/>
<polygon fill="black" stroke="black" points="158.27,-1576.51 147.75,-1577.77 156.76,-1583.35 158.27,-1576.51"/>
</g>
<!-- 142 -->
<g id="node51" class="node">
<title>142</title>
<path fill="lightpink" stroke="lightpink" d="M165.97,-1428.09C165.97,-1428.09 48.97,-1428.09 48.97,-1428.09 42.97,-1428.09 36.97,-1422.09 36.97,-1416.09 36.97,-1416.09 36.97,-1404.09 36.97,-1404.09 36.97,-1398.09 42.97,-1392.09 48.97,-1392.09 48.97,-1392.09 165.97,-1392.09 165.97,-1392.09 171.97,-1392.09 177.97,-1398.09 177.97,-1404.09 177.97,-1404.09 177.97,-1416.09 177.97,-1416.09 177.97,-1422.09 171.97,-1428.09 165.97,-1428.09"/>
<text text-anchor="middle" x="107.47" y="-1406.39" font-family="Times,serif" font-size="14.00">{&#39;fileID&#39;: 1525520956}</text>
</g>
<!-- 144 -->
<g id="node52" class="node">
<title>144</title>
<path fill="lightpink" stroke="lightpink" d="M206.13,-1278.2C206.13,-1278.2 89.13,-1278.2 89.13,-1278.2 83.13,-1278.2 77.13,-1272.2 77.13,-1266.2 77.13,-1266.2 77.13,-1254.2 77.13,-1254.2 77.13,-1248.2 83.13,-1242.2 89.13,-1242.2 89.13,-1242.2 206.13,-1242.2 206.13,-1242.2 212.13,-1242.2 218.13,-1248.2 218.13,-1254.2 218.13,-1254.2 218.13,-1266.2 218.13,-1266.2 218.13,-1272.2 212.13,-1278.2 206.13,-1278.2"/>
<text text-anchor="middle" x="147.63" y="-1256.5" font-family="Times,serif" font-size="14.00">{&#39;fileID&#39;: 1525520959}</text>
</g>
<!-- 146 -->
<g id="node53" class="node">
<title>146</title>
<path fill="lightpink" stroke="lightpink" d="M259.21,-1132.38C259.21,-1132.38 142.21,-1132.38 142.21,-1132.38 136.21,-1132.38 130.21,-1126.38 130.21,-1120.38 130.21,-1120.38 130.21,-1108.38 130.21,-1108.38 130.21,-1102.38 136.21,-1096.38 142.21,-1096.38 142.21,-1096.38 259.21,-1096.38 259.21,-1096.38 265.21,-1096.38 271.21,-1102.38 271.21,-1108.38 271.21,-1108.38 271.21,-1120.38 271.21,-1120.38 271.21,-1126.38 265.21,-1132.38 259.21,-1132.38"/>
<text text-anchor="middle" x="200.71" y="-1110.68" font-family="Times,serif" font-size="14.00">{&#39;fileID&#39;: 1525520958}</text>
</g>
<!-- 148 -->
<g id="node54" class="node">
<title>148</title>
<path fill="lightpink" stroke="lightpink" d="M324.79,-991.74C324.79,-991.74 207.79,-991.74 207.79,-991.74 201.79,-991.74 195.79,-985.74 195.79,-979.74 195.79,-979.74 195.79,-967.74 195.79,-967.74 195.79,-961.74 201.79,-955.74 207.79,-955.74 207.79,-955.74 324.79,-955.74 324.79,-955.74 330.79,-955.74 336.79,-961.74 336.79,-967.74 336.79,-967.74 336.79,-979.74 336.79,-979.74 336.79,-985.74 330.79,-991.74 324.79,-991.74"/>
<text text-anchor="middle" x="266.29" y="-970.04" font-family="Times,serif" font-size="14.00">{&#39;fileID&#39;: 1525520957}</text>
</g>
<!-- 138 -->
<g id="node55" class="node">
<title>138</title>
<path fill="#b0e2ff" stroke="#b0e2ff" d="M1090.34,-1509.9C1090.34,-1509.9 926.34,-1509.9 926.34,-1509.9 920.34,-1509.9 914.34,-1503.9 914.34,-1497.9 914.34,-1497.9 914.34,-1483.9 914.34,-1483.9 914.34,-1477.9 920.34,-1471.9 926.34,-1471.9 926.34,-1471.9 1090.34,-1471.9 1090.34,-1471.9 1096.34,-1471.9 1102.34,-1477.9 1102.34,-1483.9 1102.34,-1483.9 1102.34,-1497.9 1102.34,-1497.9 1102.34,-1503.9 1096.34,-1509.9 1090.34,-1509.9"/>
<text text-anchor="middle" x="1008.34" y="-1494.7" font-family="Times,serif" font-size="14.00">GameObject_1_ID1525520955</text>
<text text-anchor="middle" x="1008.34" y="-1479.7" font-family="Times,serif" font-size="14.00">AboutButton</text>
</g>
<!-- 138&#45;&gt;142 -->
<g id="edge39" class="edge">
<title>138&#45;&gt;142</title>
<path fill="none" stroke="black" d="M914.06,-1482.45C736.39,-1466.51 354.94,-1432.29 188.23,-1417.34"/>
<polygon fill="black" stroke="black" points="188.32,-1413.83 178.05,-1416.42 187.7,-1420.8 188.32,-1413.83"/>
</g>
<!-- 138&#45;&gt;144 -->
<g id="edge40" class="edge">
<title>138&#45;&gt;144</title>
<path fill="none" stroke="black" d="M937.17,-1471.83C777.3,-1428.98 390.77,-1325.37 225.11,-1280.97"/>
<polygon fill="black" stroke="black" points="225.57,-1277.47 215,-1278.26 223.75,-1284.23 225.57,-1277.47"/>
</g>
<!-- 138&#45;&gt;146 -->
<g id="edge41" class="edge">
<title>138&#45;&gt;146</title>
<path fill="none" stroke="black" d="M967.46,-1471.84C831.44,-1408.43 394.51,-1204.73 248.63,-1136.72"/>
<polygon fill="black" stroke="black" points="249.99,-1133.5 239.45,-1132.44 247.04,-1139.84 249.99,-1133.5"/>
</g>
<!-- 138&#45;&gt;148 -->
<g id="edge42" class="edge">
<title>138&#45;&gt;148</title>
<path fill="none" stroke="black" d="M981.05,-1471.88C866.79,-1392.26 426.96,-1085.72 300.49,-997.57"/>
<polygon fill="black" stroke="black" points="302.48,-994.7 292.27,-991.85 298.48,-1000.44 302.48,-994.7"/>
</g>
<!-- 155 -->
<g id="node56" class="node">
<title>155</title>
<path fill="lightpink" stroke="lightpink" d="M392.38,-857.35C392.38,-857.35 295.38,-857.35 295.38,-857.35 289.38,-857.35 283.38,-851.35 283.38,-845.35 283.38,-845.35 283.38,-833.35 283.38,-833.35 283.38,-827.35 289.38,-821.35 295.38,-821.35 295.38,-821.35 392.38,-821.35 392.38,-821.35 398.38,-821.35 404.38,-827.35 404.38,-833.35 404.38,-833.35 404.38,-845.35 404.38,-845.35 404.38,-851.35 398.38,-857.35 392.38,-857.35"/>
<text text-anchor="middle" x="343.88" y="-835.65" font-family="Times,serif" font-size="14.00">{&#39;fileID&#39;: 5973996}</text>
</g>
<!-- 157 -->
<g id="node57" class="node">
<title>157</title>
<path fill="lightpink" stroke="lightpink" d="M481.39,-730.24C481.39,-730.24 384.39,-730.24 384.39,-730.24 378.39,-730.24 372.39,-724.24 372.39,-718.24 372.39,-718.24 372.39,-706.24 372.39,-706.24 372.39,-700.24 378.39,-694.24 384.39,-694.24 384.39,-694.24 481.39,-694.24 481.39,-694.24 487.39,-694.24 493.39,-700.24 493.39,-706.24 493.39,-706.24 493.39,-718.24 493.39,-718.24 493.39,-724.24 487.39,-730.24 481.39,-730.24"/>
<text text-anchor="middle" x="432.89" y="-708.54" font-family="Times,serif" font-size="14.00">{&#39;fileID&#39;: 5973997}</text>
</g>
<!-- 151 -->
<g id="node58" class="node">
<title>151</title>
<path fill="#b0e2ff" stroke="#b0e2ff" d="M1187.05,-1303.96C1187.05,-1303.96 1044.05,-1303.96 1044.05,-1303.96 1038.05,-1303.96 1032.05,-1297.96 1032.05,-1291.96 1032.05,-1291.96 1032.05,-1277.96 1032.05,-1277.96 1032.05,-1271.96 1038.05,-1265.96 1044.05,-1265.96 1044.05,-1265.96 1187.05,-1265.96 1187.05,-1265.96 1193.05,-1265.96 1199.05,-1271.96 1199.05,-1277.96 1199.05,-1277.96 1199.05,-1291.96 1199.05,-1291.96 1199.05,-1297.96 1193.05,-1303.96 1187.05,-1303.96"/>
<text text-anchor="middle" x="1115.55" y="-1288.76" font-family="Times,serif" font-size="14.00">GameObject_1_ID5973995</text>
<text text-anchor="middle" x="1115.55" y="-1273.76" font-family="Times,serif" font-size="14.00">GameObject</text>
</g>
<!-- 151&#45;&gt;155 -->
<g id="edge43" class="edge">
<title>151&#45;&gt;155</title>
<path fill="none" stroke="black" d="M1082.39,-1265.81C958.03,-1194 519.53,-940.78 384.06,-862.55"/>
<polygon fill="black" stroke="black" points="385.62,-859.41 375.21,-857.44 382.12,-865.47 385.62,-859.41"/>
</g>
<!-- 151&#45;&gt;157 -->
<g id="edge44" class="edge">
<title>151&#45;&gt;157</title>
<path fill="none" stroke="black" d="M1092.83,-1265.9C991.05,-1180.51 576.93,-833.08 462.38,-736.98"/>
<polygon fill="black" stroke="black" points="464.56,-734.24 454.65,-730.5 460.07,-739.61 464.56,-734.24"/>
</g>
<!-- 164 -->
<g id="node59" class="node">
<title>164</title>
<path fill="lightpink" stroke="lightpink" d="M591.13,-611.36C591.13,-611.36 474.13,-611.36 474.13,-611.36 468.13,-611.36 462.13,-605.36 462.13,-599.36 462.13,-599.36 462.13,-587.36 462.13,-587.36 462.13,-581.36 468.13,-575.36 474.13,-575.36 474.13,-575.36 591.13,-575.36 591.13,-575.36 597.13,-575.36 603.13,-581.36 603.13,-587.36 603.13,-587.36 603.13,-599.36 603.13,-599.36 603.13,-605.36 597.13,-611.36 591.13,-611.36"/>
<text text-anchor="middle" x="532.63" y="-589.66" font-family="Times,serif" font-size="14.00">{&#39;fileID&#39;: 1047482109}</text>
</g>
<!-- 166 -->
<g id="node60" class="node">
<title>166</title>
<path fill="lightpink" stroke="lightpink" d="M700.86,-501.63C700.86,-501.63 583.86,-501.63 583.86,-501.63 577.86,-501.63 571.86,-495.63 571.86,-489.63 571.86,-489.63 571.86,-477.63 571.86,-477.63 571.86,-471.63 577.86,-465.63 583.86,-465.63 583.86,-465.63 700.86,-465.63 700.86,-465.63 706.86,-465.63 712.86,-471.63 712.86,-477.63 712.86,-477.63 712.86,-489.63 712.86,-489.63 712.86,-495.63 706.86,-501.63 700.86,-501.63"/>
<text text-anchor="middle" x="642.36" y="-479.93" font-family="Times,serif" font-size="14.00">{&#39;fileID&#39;: 1047482108}</text>
</g>
<!-- 168 -->
<g id="node61" class="node">
<title>168</title>
<path fill="lightpink" stroke="lightpink" d="M819.74,-401.89C819.74,-401.89 702.74,-401.89 702.74,-401.89 696.74,-401.89 690.74,-395.89 690.74,-389.89 690.74,-389.89 690.74,-377.89 690.74,-377.89 690.74,-371.89 696.74,-365.89 702.74,-365.89 702.74,-365.89 819.74,-365.89 819.74,-365.89 825.74,-365.89 831.74,-371.89 831.74,-377.89 831.74,-377.89 831.74,-389.89 831.74,-389.89 831.74,-395.89 825.74,-401.89 819.74,-401.89"/>
<text text-anchor="middle" x="761.24" y="-380.19" font-family="Times,serif" font-size="14.00">{&#39;fileID&#39;: 1047482107}</text>
</g>
<!-- 160 -->
<g id="node62" class="node">
<title>160</title>
<path fill="#b0e2ff" stroke="#b0e2ff" d="M1325.23,-1158.36C1325.23,-1158.36 1161.23,-1158.36 1161.23,-1158.36 1155.23,-1158.36 1149.23,-1152.36 1149.23,-1146.36 1149.23,-1146.36 1149.23,-1132.36 1149.23,-1132.36 1149.23,-1126.36 1155.23,-1120.36 1161.23,-1120.36 1161.23,-1120.36 1325.23,-1120.36 1325.23,-1120.36 1331.23,-1120.36 1337.23,-1126.36 1337.23,-1132.36 1337.23,-1132.36 1337.23,-1146.36 1337.23,-1146.36 1337.23,-1152.36 1331.23,-1158.36 1325.23,-1158.36"/>
<text text-anchor="middle" x="1243.23" y="-1143.16" font-family="Times,serif" font-size="14.00">GameObject_1_ID1047482106</text>
<text text-anchor="middle" x="1243.23" y="-1128.16" font-family="Times,serif" font-size="14.00">Main Camera</text>
</g>
<!-- 160&#45;&gt;164 -->
<g id="edge45" class="edge">
<title>160&#45;&gt;164</title>
<path fill="none" stroke="black" d="M1218.35,-1120.25C1110.65,-1037.49 684.5,-710.05 564.33,-617.72"/>
<polygon fill="black" stroke="black" points="566.28,-614.8 556.22,-611.48 562.01,-620.35 566.28,-614.8"/>
</g>
<!-- 160&#45;&gt;166 -->
<g id="edge46" class="edge">
<title>160&#45;&gt;166</title>
<path fill="none" stroke="black" d="M1225.57,-1120.09C1139.43,-1026.09 763.49,-615.82 665.69,-509.09"/>
<polygon fill="black" stroke="black" points="668.21,-506.66 658.88,-501.66 663.05,-511.39 668.21,-506.66"/>
</g>
<!-- 160&#45;&gt;168 -->
<g id="edge47" class="edge">
<title>160&#45;&gt;168</title>
<path fill="none" stroke="black" d="M1231.07,-1120.31C1165.62,-1017.72 855.22,-531.19 778.44,-410.85"/>
<polygon fill="black" stroke="black" points="781.25,-408.76 772.93,-402.21 775.35,-412.52 781.25,-408.76"/>
</g>
<!-- 175 -->
<g id="node63" class="node">
<title>175</title>
<path fill="lightpink" stroke="lightpink" d="M946.85,-312.88C946.85,-312.88 829.85,-312.88 829.85,-312.88 823.85,-312.88 817.85,-306.88 817.85,-300.88 817.85,-300.88 817.85,-288.88 817.85,-288.88 817.85,-282.88 823.85,-276.88 829.85,-276.88 829.85,-276.88 946.85,-276.88 946.85,-276.88 952.85,-276.88 958.85,-282.88 958.85,-288.88 958.85,-288.88 958.85,-300.88 958.85,-300.88 958.85,-306.88 952.85,-312.88 946.85,-312.88"/>
<text text-anchor="middle" x="888.35" y="-291.18" font-family="Times,serif" font-size="14.00">{&#39;fileID&#39;: 1908155156}</text>
</g>
<!-- 177 -->
<g id="node64" class="node">
<title>177</title>
<path fill="lightpink" stroke="lightpink" d="M1081.24,-235.29C1081.24,-235.29 964.24,-235.29 964.24,-235.29 958.24,-235.29 952.24,-229.29 952.24,-223.29 952.24,-223.29 952.24,-211.29 952.24,-211.29 952.24,-205.29 958.24,-199.29 964.24,-199.29 964.24,-199.29 1081.24,-199.29 1081.24,-199.29 1087.24,-199.29 1093.24,-205.29 1093.24,-211.29 1093.24,-211.29 1093.24,-223.29 1093.24,-223.29 1093.24,-229.29 1087.24,-235.29 1081.24,-235.29"/>
<text text-anchor="middle" x="1022.74" y="-213.59" font-family="Times,serif" font-size="14.00">{&#39;fileID&#39;: 1908155158}</text>
</g>
<!-- 179 -->
<g id="node65" class="node">
<title>179</title>
<path fill="lightpink" stroke="lightpink" d="M1221.88,-169.71C1221.88,-169.71 1104.88,-169.71 1104.88,-169.71 1098.88,-169.71 1092.88,-163.71 1092.88,-157.71 1092.88,-157.71 1092.88,-145.71 1092.88,-145.71 1092.88,-139.71 1098.88,-133.71 1104.88,-133.71 1104.88,-133.71 1221.88,-133.71 1221.88,-133.71 1227.88,-133.71 1233.88,-139.71 1233.88,-145.71 1233.88,-145.71 1233.88,-157.71 1233.88,-157.71 1233.88,-163.71 1227.88,-169.71 1221.88,-169.71"/>
<text text-anchor="middle" x="1163.38" y="-148.01" font-family="Times,serif" font-size="14.00">{&#39;fileID&#39;: 1908155157}</text>
</g>
<!-- 171 -->
<g id="node66" class="node">
<title>171</title>
<path fill="#b0e2ff" stroke="#b0e2ff" d="M1515.42,-1025.19C1515.42,-1025.19 1351.42,-1025.19 1351.42,-1025.19 1345.42,-1025.19 1339.42,-1019.19 1339.42,-1013.19 1339.42,-1013.19 1339.42,-999.19 1339.42,-999.19 1339.42,-993.19 1345.42,-987.19 1351.42,-987.19 1351.42,-987.19 1515.42,-987.19 1515.42,-987.19 1521.42,-987.19 1527.42,-993.19 1527.42,-999.19 1527.42,-999.19 1527.42,-1013.19 1527.42,-1013.19 1527.42,-1019.19 1521.42,-1025.19 1515.42,-1025.19"/>
<text text-anchor="middle" x="1433.42" y="-1009.99" font-family="Times,serif" font-size="14.00">GameObject_1_ID1908155155</text>
<text text-anchor="middle" x="1433.42" y="-994.99" font-family="Times,serif" font-size="14.00">Header</text>
</g>
<!-- 171&#45;&gt;175 -->
<g id="edge48" class="edge">
<title>171&#45;&gt;175</title>
<path fill="none" stroke="black" d="M1418.84,-987.17C1343.27,-888.55 996.26,-435.7 908.54,-321.23"/>
<polygon fill="black" stroke="black" points="911.08,-318.79 902.22,-312.98 905.53,-323.05 911.08,-318.79"/>
</g>
<!-- 171&#45;&gt;177 -->
<g id="edge49" class="edge">
<title>171&#45;&gt;177</title>
<path fill="none" stroke="black" d="M1423.47,-987.08C1368.43,-881.36 1101.41,-368.4 1036.82,-244.34"/>
<polygon fill="black" stroke="black" points="1039.92,-242.71 1032.2,-235.45 1033.71,-245.94 1039.92,-242.71"/>
</g>
<!-- 171&#45;&gt;179 -->
<g id="edge50" class="edge">
<title>171&#45;&gt;179</title>
<path fill="none" stroke="black" d="M1427.4,-987.15C1392.32,-876.14 1214.35,-312.98 1172.3,-179.91"/>
<polygon fill="black" stroke="black" points="1175.53,-178.55 1169.18,-170.07 1168.86,-180.66 1175.53,-178.55"/>
</g>
<!-- 186 -->
<g id="node67" class="node">
<title>186</title>
<path fill="lightpink" stroke="lightpink" d="M1364.2,-116.63C1364.2,-116.63 1254.2,-116.63 1254.2,-116.63 1248.2,-116.63 1242.2,-110.63 1242.2,-104.63 1242.2,-104.63 1242.2,-92.63 1242.2,-92.63 1242.2,-86.63 1248.2,-80.63 1254.2,-80.63 1254.2,-80.63 1364.2,-80.63 1364.2,-80.63 1370.2,-80.63 1376.2,-86.63 1376.2,-92.63 1376.2,-92.63 1376.2,-104.63 1376.2,-104.63 1376.2,-110.63 1370.2,-116.63 1364.2,-116.63"/>
<text text-anchor="middle" x="1309.2" y="-94.93" font-family="Times,serif" font-size="14.00">{&#39;fileID&#39;: 628076940}</text>
</g>
<!-- 188 -->
<g id="node68" class="node">
<title>188</title>
<path fill="lightpink" stroke="lightpink" d="M1514.09,-76.47C1514.09,-76.47 1404.09,-76.47 1404.09,-76.47 1398.09,-76.47 1392.09,-70.47 1392.09,-64.47 1392.09,-64.47 1392.09,-52.47 1392.09,-52.47 1392.09,-46.47 1398.09,-40.47 1404.09,-40.47 1404.09,-40.47 1514.09,-40.47 1514.09,-40.47 1520.09,-40.47 1526.09,-46.47 1526.09,-52.47 1526.09,-52.47 1526.09,-64.47 1526.09,-64.47 1526.09,-70.47 1520.09,-76.47 1514.09,-76.47"/>
<text text-anchor="middle" x="1459.09" y="-54.77" font-family="Times,serif" font-size="14.00">{&#39;fileID&#39;: 628076942}</text>
</g>
<!-- 190 -->
<g id="node69" class="node">
<title>190</title>
<path fill="lightpink" stroke="lightpink" d="M1666.92,-49.52C1666.92,-49.52 1556.92,-49.52 1556.92,-49.52 1550.92,-49.52 1544.92,-43.52 1544.92,-37.52 1544.92,-37.52 1544.92,-25.52 1544.92,-25.52 1544.92,-19.52 1550.92,-13.52 1556.92,-13.52 1556.92,-13.52 1666.92,-13.52 1666.92,-13.52 1672.92,-13.52 1678.92,-19.52 1678.92,-25.52 1678.92,-25.52 1678.92,-37.52 1678.92,-37.52 1678.92,-43.52 1672.92,-49.52 1666.92,-49.52"/>
<text text-anchor="middle" x="1611.92" y="-27.82" font-family="Times,serif" font-size="14.00">{&#39;fileID&#39;: 628076941}</text>
</g>
<!-- 182 -->
<g id="node70" class="node">
<title>182</title>
<path fill="#b0e2ff" stroke="#b0e2ff" d="M1730.09,-945.78C1730.09,-945.78 1573.09,-945.78 1573.09,-945.78 1567.09,-945.78 1561.09,-939.78 1561.09,-933.78 1561.09,-933.78 1561.09,-919.78 1561.09,-919.78 1561.09,-913.78 1567.09,-907.78 1573.09,-907.78 1573.09,-907.78 1730.09,-907.78 1730.09,-907.78 1736.09,-907.78 1742.09,-913.78 1742.09,-919.78 1742.09,-919.78 1742.09,-933.78 1742.09,-933.78 1742.09,-939.78 1736.09,-945.78 1730.09,-945.78"/>
<text text-anchor="middle" x="1651.59" y="-930.58" font-family="Times,serif" font-size="14.00">GameObject_1_ID628076939</text>
<text text-anchor="middle" x="1651.59" y="-915.58" font-family="Times,serif" font-size="14.00">Copyright</text>
</g>
<!-- 182&#45;&gt;186 -->
<g id="edge51" class="edge">
<title>182&#45;&gt;186</title>
<path fill="none" stroke="black" d="M1643.63,-907.53C1598.42,-798.17 1374.05,-255.47 1320.63,-126.28"/>
<polygon fill="black" stroke="black" points="1323.73,-124.61 1316.67,-116.71 1317.26,-127.28 1323.73,-124.61"/>
</g>
<!-- 182&#45;&gt;188 -->
<g id="edge52" class="edge">
<title>182&#45;&gt;188</title>
<path fill="none" stroke="black" d="M1647.3,-907.43C1622.27,-794.51 1495.15,-221.11 1465.35,-86.7"/>
<polygon fill="black" stroke="black" points="1468.73,-85.76 1463.15,-76.76 1461.9,-87.28 1468.73,-85.76"/>
</g>
<!-- 182&#45;&gt;190 -->
<g id="edge53" class="edge">
<title>182&#45;&gt;190</title>
<path fill="none" stroke="black" d="M1650.75,-907.67C1645.67,-793.07 1619.26,-197.33 1613.17,-59.85"/>
<polygon fill="black" stroke="black" points="1616.66,-59.54 1612.72,-49.71 1609.67,-59.85 1616.66,-59.54"/>
</g>
<!-- 197 -->
<g id="node71" class="node">
<title>197</title>
<path fill="lightpink" stroke="lightpink" d="M1821.5,-36C1821.5,-36 1711.5,-36 1711.5,-36 1705.5,-36 1699.5,-30 1699.5,-24 1699.5,-24 1699.5,-12 1699.5,-12 1699.5,-6 1705.5,0 1711.5,0 1711.5,0 1821.5,0 1821.5,0 1827.5,0 1833.5,-6 1833.5,-12 1833.5,-12 1833.5,-24 1833.5,-24 1833.5,-30 1827.5,-36 1821.5,-36"/>
<text text-anchor="middle" x="1766.5" y="-14.3" font-family="Times,serif" font-size="14.00">{&#39;fileID&#39;: 138731493}</text>
</g>
<!-- 199 -->
<g id="node72" class="node">
<title>199</title>
<path fill="lightpink" stroke="lightpink" d="M1976.68,-36C1976.68,-36 1866.68,-36 1866.68,-36 1860.68,-36 1854.68,-30 1854.68,-24 1854.68,-24 1854.68,-12 1854.68,-12 1854.68,-6 1860.68,0 1866.68,0 1866.68,0 1976.68,0 1976.68,0 1982.68,0 1988.68,-6 1988.68,-12 1988.68,-12 1988.68,-24 1988.68,-24 1988.68,-30 1982.68,-36 1976.68,-36"/>
<text text-anchor="middle" x="1921.68" y="-14.3" font-family="Times,serif" font-size="14.00">{&#39;fileID&#39;: 138731494}</text>
</g>
<!-- 193 -->
<g id="node73" class="node">
<title>193</title>
<path fill="#b0e2ff" stroke="#b0e2ff" d="M1922.59,-924.7C1922.59,-924.7 1765.59,-924.7 1765.59,-924.7 1759.59,-924.7 1753.59,-918.7 1753.59,-912.7 1753.59,-912.7 1753.59,-898.7 1753.59,-898.7 1753.59,-892.7 1759.59,-886.7 1765.59,-886.7 1765.59,-886.7 1922.59,-886.7 1922.59,-886.7 1928.59,-886.7 1934.59,-892.7 1934.59,-898.7 1934.59,-898.7 1934.59,-912.7 1934.59,-912.7 1934.59,-918.7 1928.59,-924.7 1922.59,-924.7"/>
<text text-anchor="middle" x="1844.09" y="-909.5" font-family="Times,serif" font-size="14.00">GameObject_1_ID138731492</text>
<text text-anchor="middle" x="1844.09" y="-894.5" font-family="Times,serif" font-size="14.00">Text</text>
</g>
<!-- 193&#45;&gt;197 -->
<g id="edge54" class="edge">
<title>193&#45;&gt;197</title>
<path fill="none" stroke="black" d="M1842.4,-886.33C1832.39,-771.79 1780.96,-183.34 1768.99,-46.47"/>
<polygon fill="black" stroke="black" points="1772.47,-46.02 1768.11,-36.36 1765.49,-46.63 1772.47,-46.02"/>
</g>
<!-- 193&#45;&gt;199 -->
<g id="edge55" class="edge">
<title>193&#45;&gt;199</title>
<path fill="none" stroke="black" d="M1845.79,-886.33C1855.8,-771.79 1907.23,-183.34 1919.2,-46.47"/>
<polygon fill="black" stroke="black" points="1922.69,-46.63 1920.08,-36.36 1915.72,-46.02 1922.69,-46.63"/>
</g>
<!-- 206 -->
<g id="node74" class="node">
<title>206</title>
<path fill="lightpink" stroke="lightpink" d="M2134.77,-49.52C2134.77,-49.52 2017.77,-49.52 2017.77,-49.52 2011.77,-49.52 2005.77,-43.52 2005.77,-37.52 2005.77,-37.52 2005.77,-25.52 2005.77,-25.52 2005.77,-19.52 2011.77,-13.52 2017.77,-13.52 2017.77,-13.52 2134.77,-13.52 2134.77,-13.52 2140.77,-13.52 2146.77,-19.52 2146.77,-25.52 2146.77,-25.52 2146.77,-37.52 2146.77,-37.52 2146.77,-43.52 2140.77,-49.52 2134.77,-49.52"/>
<text text-anchor="middle" x="2076.27" y="-27.82" font-family="Times,serif" font-size="14.00">{&#39;fileID&#39;: 1093729420}</text>
</g>
<!-- 208 -->
<g id="node75" class="node">
<title>208</title>
<path fill="lightpink" stroke="lightpink" d="M2287.59,-76.47C2287.59,-76.47 2170.59,-76.47 2170.59,-76.47 2164.59,-76.47 2158.59,-70.47 2158.59,-64.47 2158.59,-64.47 2158.59,-52.47 2158.59,-52.47 2158.59,-46.47 2164.59,-40.47 2170.59,-40.47 2170.59,-40.47 2287.59,-40.47 2287.59,-40.47 2293.59,-40.47 2299.59,-46.47 2299.59,-52.47 2299.59,-52.47 2299.59,-64.47 2299.59,-64.47 2299.59,-70.47 2293.59,-76.47 2287.59,-76.47"/>
<text text-anchor="middle" x="2229.09" y="-54.77" font-family="Times,serif" font-size="14.00">{&#39;fileID&#39;: 1093729422}</text>
</g>
<!-- 210 -->
<g id="node76" class="node">
<title>210</title>
<path fill="lightpink" stroke="lightpink" d="M2437.49,-116.63C2437.49,-116.63 2320.49,-116.63 2320.49,-116.63 2314.49,-116.63 2308.49,-110.63 2308.49,-104.63 2308.49,-104.63 2308.49,-92.63 2308.49,-92.63 2308.49,-86.63 2314.49,-80.63 2320.49,-80.63 2320.49,-80.63 2437.49,-80.63 2437.49,-80.63 2443.49,-80.63 2449.49,-86.63 2449.49,-92.63 2449.49,-92.63 2449.49,-104.63 2449.49,-104.63 2449.49,-110.63 2443.49,-116.63 2437.49,-116.63"/>
<text text-anchor="middle" x="2378.99" y="-94.93" font-family="Times,serif" font-size="14.00">{&#39;fileID&#39;: 1093729421}</text>
</g>
<!-- 202 -->
<g id="node77" class="node">
<title>202</title>
<path fill="#b0e2ff" stroke="#b0e2ff" d="M2118.59,-945.78C2118.59,-945.78 1954.59,-945.78 1954.59,-945.78 1948.59,-945.78 1942.59,-939.78 1942.59,-933.78 1942.59,-933.78 1942.59,-919.78 1942.59,-919.78 1942.59,-913.78 1948.59,-907.78 1954.59,-907.78 1954.59,-907.78 2118.59,-907.78 2118.59,-907.78 2124.59,-907.78 2130.59,-913.78 2130.59,-919.78 2130.59,-919.78 2130.59,-933.78 2130.59,-933.78 2130.59,-939.78 2124.59,-945.78 2118.59,-945.78"/>
<text text-anchor="middle" x="2036.59" y="-930.58" font-family="Times,serif" font-size="14.00">GameObject_1_ID1093729419</text>
<text text-anchor="middle" x="2036.59" y="-915.58" font-family="Times,serif" font-size="14.00">Text</text>
</g>
<!-- 202&#45;&gt;206 -->
<g id="edge56" class="edge">
<title>202&#45;&gt;206</title>
<path fill="none" stroke="black" d="M2037.44,-907.67C2042.52,-793.07 2068.92,-197.33 2075.02,-59.85"/>
<polygon fill="black" stroke="black" points="2078.52,-59.85 2075.47,-49.71 2071.53,-59.54 2078.52,-59.85"/>
</g>
<!-- 202&#45;&gt;208 -->
<g id="edge57" class="edge">
<title>202&#45;&gt;208</title>
<path fill="none" stroke="black" d="M2040.88,-907.43C2065.92,-794.51 2193.04,-221.11 2222.84,-86.7"/>
<polygon fill="black" stroke="black" points="2226.29,-87.28 2225.04,-76.76 2219.46,-85.76 2226.29,-87.28"/>
</g>
<!-- 202&#45;&gt;210 -->
<g id="edge58" class="edge">
<title>202&#45;&gt;210</title>
<path fill="none" stroke="black" d="M2044.55,-907.53C2089.77,-798.17 2314.14,-255.47 2367.56,-126.28"/>
<polygon fill="black" stroke="black" points="2370.93,-127.28 2371.51,-116.71 2364.46,-124.61 2370.93,-127.28"/>
</g>
<!-- 217 -->
<g id="node78" class="node">
<title>217</title>
<path fill="lightpink" stroke="lightpink" d="M2579.81,-169.71C2579.81,-169.71 2469.81,-169.71 2469.81,-169.71 2463.81,-169.71 2457.81,-163.71 2457.81,-157.71 2457.81,-157.71 2457.81,-145.71 2457.81,-145.71 2457.81,-139.71 2463.81,-133.71 2469.81,-133.71 2469.81,-133.71 2579.81,-133.71 2579.81,-133.71 2585.81,-133.71 2591.81,-139.71 2591.81,-145.71 2591.81,-145.71 2591.81,-157.71 2591.81,-157.71 2591.81,-163.71 2585.81,-169.71 2579.81,-169.71"/>
<text text-anchor="middle" x="2524.81" y="-148.01" font-family="Times,serif" font-size="14.00">{&#39;fileID&#39;: 361157716}</text>
</g>
<!-- 219 -->
<g id="node79" class="node">
<title>219</title>
<path fill="lightpink" stroke="lightpink" d="M2720.45,-235.29C2720.45,-235.29 2610.45,-235.29 2610.45,-235.29 2604.45,-235.29 2598.45,-229.29 2598.45,-223.29 2598.45,-223.29 2598.45,-211.29 2598.45,-211.29 2598.45,-205.29 2604.45,-199.29 2610.45,-199.29 2610.45,-199.29 2720.45,-199.29 2720.45,-199.29 2726.45,-199.29 2732.45,-205.29 2732.45,-211.29 2732.45,-211.29 2732.45,-223.29 2732.45,-223.29 2732.45,-229.29 2726.45,-235.29 2720.45,-235.29"/>
<text text-anchor="middle" x="2665.45" y="-213.59" font-family="Times,serif" font-size="14.00">{&#39;fileID&#39;: 361157715}</text>
</g>
<!-- 221 -->
<g id="node80" class="node">
<title>221</title>
<path fill="lightpink" stroke="lightpink" d="M2854.84,-312.88C2854.84,-312.88 2744.84,-312.88 2744.84,-312.88 2738.84,-312.88 2732.84,-306.88 2732.84,-300.88 2732.84,-300.88 2732.84,-288.88 2732.84,-288.88 2732.84,-282.88 2738.84,-276.88 2744.84,-276.88 2744.84,-276.88 2854.84,-276.88 2854.84,-276.88 2860.84,-276.88 2866.84,-282.88 2866.84,-288.88 2866.84,-288.88 2866.84,-300.88 2866.84,-300.88 2866.84,-306.88 2860.84,-312.88 2854.84,-312.88"/>
<text text-anchor="middle" x="2799.84" y="-291.18" font-family="Times,serif" font-size="14.00">{&#39;fileID&#39;: 361157714}</text>
</g>
<!-- 213 -->
<g id="node81" class="node">
<title>213</title>
<path fill="#b0e2ff" stroke="#b0e2ff" d="M2333.27,-1025.19C2333.27,-1025.19 2176.27,-1025.19 2176.27,-1025.19 2170.27,-1025.19 2164.27,-1019.19 2164.27,-1013.19 2164.27,-1013.19 2164.27,-999.19 2164.27,-999.19 2164.27,-993.19 2170.27,-987.19 2176.27,-987.19 2176.27,-987.19 2333.27,-987.19 2333.27,-987.19 2339.27,-987.19 2345.27,-993.19 2345.27,-999.19 2345.27,-999.19 2345.27,-1013.19 2345.27,-1013.19 2345.27,-1019.19 2339.27,-1025.19 2333.27,-1025.19"/>
<text text-anchor="middle" x="2254.77" y="-1009.99" font-family="Times,serif" font-size="14.00">GameObject_1_ID361157713</text>
<text text-anchor="middle" x="2254.77" y="-994.99" font-family="Times,serif" font-size="14.00">EventSystem</text>
</g>
<!-- 213&#45;&gt;217 -->
<g id="edge59" class="edge">
<title>213&#45;&gt;217</title>
<path fill="none" stroke="black" d="M2260.79,-987.15C2295.87,-876.14 2473.84,-312.98 2515.89,-179.91"/>
<polygon fill="black" stroke="black" points="2519.33,-180.66 2519,-170.07 2512.65,-178.55 2519.33,-180.66"/>
</g>
<!-- 213&#45;&gt;219 -->
<g id="edge60" class="edge">
<title>213&#45;&gt;219</title>
<path fill="none" stroke="black" d="M2264.72,-987.08C2319.75,-881.36 2586.78,-368.4 2651.36,-244.34"/>
<polygon fill="black" stroke="black" points="2654.48,-245.94 2655.99,-235.45 2648.27,-242.71 2654.48,-245.94"/>
</g>
<!-- 213&#45;&gt;221 -->
<g id="edge61" class="edge">
<title>213&#45;&gt;221</title>
<path fill="none" stroke="black" d="M2269.35,-987.17C2344.92,-888.55 2691.93,-435.7 2779.65,-321.23"/>
<polygon fill="black" stroke="black" points="2782.66,-323.05 2785.97,-312.98 2777.1,-318.79 2782.66,-323.05"/>
</g>
<!-- 228 -->
<g id="node82" class="node">
<title>228</title>
<path fill="lightpink" stroke="lightpink" d="M2981.95,-401.89C2981.95,-401.89 2871.95,-401.89 2871.95,-401.89 2865.95,-401.89 2859.95,-395.89 2859.95,-389.89 2859.95,-389.89 2859.95,-377.89 2859.95,-377.89 2859.95,-371.89 2865.95,-365.89 2871.95,-365.89 2871.95,-365.89 2981.95,-365.89 2981.95,-365.89 2987.95,-365.89 2993.95,-371.89 2993.95,-377.89 2993.95,-377.89 2993.95,-389.89 2993.95,-389.89 2993.95,-395.89 2987.95,-401.89 2981.95,-401.89"/>
<text text-anchor="middle" x="2926.95" y="-380.19" font-family="Times,serif" font-size="14.00">{&#39;fileID&#39;: 301893719}</text>
</g>
<!-- 230 -->
<g id="node83" class="node">
<title>230</title>
<path fill="lightpink" stroke="lightpink" d="M3100.83,-501.63C3100.83,-501.63 2990.83,-501.63 2990.83,-501.63 2984.83,-501.63 2978.83,-495.63 2978.83,-489.63 2978.83,-489.63 2978.83,-477.63 2978.83,-477.63 2978.83,-471.63 2984.83,-465.63 2990.83,-465.63 2990.83,-465.63 3100.83,-465.63 3100.83,-465.63 3106.83,-465.63 3112.83,-471.63 3112.83,-477.63 3112.83,-477.63 3112.83,-489.63 3112.83,-489.63 3112.83,-495.63 3106.83,-501.63 3100.83,-501.63"/>
<text text-anchor="middle" x="3045.83" y="-479.93" font-family="Times,serif" font-size="14.00">{&#39;fileID&#39;: 301893721}</text>
</g>
<!-- 232 -->
<g id="node84" class="node">
<title>232</title>
<path fill="lightpink" stroke="lightpink" d="M3210.55,-611.36C3210.55,-611.36 3100.55,-611.36 3100.55,-611.36 3094.55,-611.36 3088.55,-605.36 3088.55,-599.36 3088.55,-599.36 3088.55,-587.36 3088.55,-587.36 3088.55,-581.36 3094.55,-575.36 3100.55,-575.36 3100.55,-575.36 3210.55,-575.36 3210.55,-575.36 3216.55,-575.36 3222.55,-581.36 3222.55,-587.36 3222.55,-587.36 3222.55,-599.36 3222.55,-599.36 3222.55,-605.36 3216.55,-611.36 3210.55,-611.36"/>
<text text-anchor="middle" x="3155.55" y="-589.66" font-family="Times,serif" font-size="14.00">{&#39;fileID&#39;: 301893720}</text>
</g>
<!-- 224 -->
<g id="node85" class="node">
<title>224</title>
<path fill="#b0e2ff" stroke="#b0e2ff" d="M2523.46,-1158.36C2523.46,-1158.36 2366.46,-1158.36 2366.46,-1158.36 2360.46,-1158.36 2354.46,-1152.36 2354.46,-1146.36 2354.46,-1146.36 2354.46,-1132.36 2354.46,-1132.36 2354.46,-1126.36 2360.46,-1120.36 2366.46,-1120.36 2366.46,-1120.36 2523.46,-1120.36 2523.46,-1120.36 2529.46,-1120.36 2535.46,-1126.36 2535.46,-1132.36 2535.46,-1132.36 2535.46,-1146.36 2535.46,-1146.36 2535.46,-1152.36 2529.46,-1158.36 2523.46,-1158.36"/>
<text text-anchor="middle" x="2444.96" y="-1143.16" font-family="Times,serif" font-size="14.00">GameObject_1_ID301893718</text>
<text text-anchor="middle" x="2444.96" y="-1128.16" font-family="Times,serif" font-size="14.00">About</text>
</g>
<!-- 224&#45;&gt;228 -->
<g id="edge62" class="edge">
<title>224&#45;&gt;228</title>
<path fill="none" stroke="black" d="M2457.12,-1120.31C2522.57,-1017.72 2832.97,-531.19 2909.75,-410.85"/>
<polygon fill="black" stroke="black" points="2912.83,-412.52 2915.26,-402.21 2906.93,-408.76 2912.83,-412.52"/>
</g>
<!-- 224&#45;&gt;230 -->
<g id="edge63" class="edge">
<title>224&#45;&gt;230</title>
<path fill="none" stroke="black" d="M2462.62,-1120.09C2548.76,-1026.09 2924.7,-615.82 3022.5,-509.09"/>
<polygon fill="black" stroke="black" points="3025.14,-511.39 3029.31,-501.66 3019.98,-506.66 3025.14,-511.39"/>
</g>
<!-- 224&#45;&gt;232 -->
<g id="edge64" class="edge">
<title>224&#45;&gt;232</title>
<path fill="none" stroke="black" d="M2469.83,-1120.25C2577.54,-1037.49 3003.69,-710.05 3123.86,-617.72"/>
<polygon fill="black" stroke="black" points="3126.17,-620.35 3131.97,-611.48 3121.91,-614.8 3126.17,-620.35"/>
</g>
<!-- 239 -->
<g id="node86" class="node">
<title>239</title>
<path fill="lightpink" stroke="lightpink" d="M3310.3,-730.24C3310.3,-730.24 3200.3,-730.24 3200.3,-730.24 3194.3,-730.24 3188.3,-724.24 3188.3,-718.24 3188.3,-718.24 3188.3,-706.24 3188.3,-706.24 3188.3,-700.24 3194.3,-694.24 3200.3,-694.24 3200.3,-694.24 3310.3,-694.24 3310.3,-694.24 3316.3,-694.24 3322.3,-700.24 3322.3,-706.24 3322.3,-706.24 3322.3,-718.24 3322.3,-718.24 3322.3,-724.24 3316.3,-730.24 3310.3,-730.24"/>
<text text-anchor="middle" x="3255.3" y="-708.54" font-family="Times,serif" font-size="14.00">{&#39;fileID&#39;: 530533594}</text>
</g>
<!-- 241 -->
<g id="node87" class="node">
<title>241</title>
<path fill="lightpink" stroke="lightpink" d="M3399.31,-857.35C3399.31,-857.35 3289.31,-857.35 3289.31,-857.35 3283.31,-857.35 3277.31,-851.35 3277.31,-845.35 3277.31,-845.35 3277.31,-833.35 3277.31,-833.35 3277.31,-827.35 3283.31,-821.35 3289.31,-821.35 3289.31,-821.35 3399.31,-821.35 3399.31,-821.35 3405.31,-821.35 3411.31,-827.35 3411.31,-833.35 3411.31,-833.35 3411.31,-845.35 3411.31,-845.35 3411.31,-851.35 3405.31,-857.35 3399.31,-857.35"/>
<text text-anchor="middle" x="3344.31" y="-835.65" font-family="Times,serif" font-size="14.00">{&#39;fileID&#39;: 530533597}</text>
</g>
<!-- 243 -->
<g id="node88" class="node">
<title>243</title>
<path fill="lightpink" stroke="lightpink" d="M3476.9,-991.74C3476.9,-991.74 3366.9,-991.74 3366.9,-991.74 3360.9,-991.74 3354.9,-985.74 3354.9,-979.74 3354.9,-979.74 3354.9,-967.74 3354.9,-967.74 3354.9,-961.74 3360.9,-955.74 3366.9,-955.74 3366.9,-955.74 3476.9,-955.74 3476.9,-955.74 3482.9,-955.74 3488.9,-961.74 3488.9,-967.74 3488.9,-967.74 3488.9,-979.74 3488.9,-979.74 3488.9,-985.74 3482.9,-991.74 3476.9,-991.74"/>
<text text-anchor="middle" x="3421.9" y="-970.04" font-family="Times,serif" font-size="14.00">{&#39;fileID&#39;: 530533596}</text>
</g>
<!-- 245 -->
<g id="node89" class="node">
<title>245</title>
<path fill="lightpink" stroke="lightpink" d="M3542.48,-1132.38C3542.48,-1132.38 3432.48,-1132.38 3432.48,-1132.38 3426.48,-1132.38 3420.48,-1126.38 3420.48,-1120.38 3420.48,-1120.38 3420.48,-1108.38 3420.48,-1108.38 3420.48,-1102.38 3426.48,-1096.38 3432.48,-1096.38 3432.48,-1096.38 3542.48,-1096.38 3542.48,-1096.38 3548.48,-1096.38 3554.48,-1102.38 3554.48,-1108.38 3554.48,-1108.38 3554.48,-1120.38 3554.48,-1120.38 3554.48,-1126.38 3548.48,-1132.38 3542.48,-1132.38"/>
<text text-anchor="middle" x="3487.48" y="-1110.68" font-family="Times,serif" font-size="14.00">{&#39;fileID&#39;: 530533595}</text>
</g>
<!-- 235 -->
<g id="node90" class="node">
<title>235</title>
<path fill="#b0e2ff" stroke="#b0e2ff" d="M2692.83,-1369.4C2692.83,-1369.4 2535.83,-1369.4 2535.83,-1369.4 2529.83,-1369.4 2523.83,-1363.4 2523.83,-1357.4 2523.83,-1357.4 2523.83,-1343.4 2523.83,-1343.4 2523.83,-1337.4 2529.83,-1331.4 2535.83,-1331.4 2535.83,-1331.4 2692.83,-1331.4 2692.83,-1331.4 2698.83,-1331.4 2704.83,-1337.4 2704.83,-1343.4 2704.83,-1343.4 2704.83,-1357.4 2704.83,-1357.4 2704.83,-1363.4 2698.83,-1369.4 2692.83,-1369.4"/>
<text text-anchor="middle" x="2614.33" y="-1354.2" font-family="Times,serif" font-size="14.00">GameObject_1_ID530533593</text>
<text text-anchor="middle" x="2614.33" y="-1339.2" font-family="Times,serif" font-size="14.00">CloseButton</text>
</g>
<!-- 235&#45;&gt;239 -->
<g id="edge65" class="edge">
<title>235&#45;&gt;239</title>
<path fill="none" stroke="black" d="M2633.51,-1331.3C2725.88,-1239.34 3124.6,-842.36 3229.78,-737.64"/>
<polygon fill="black" stroke="black" points="3232.5,-739.88 3237.12,-730.34 3227.56,-734.92 3232.5,-739.88"/>
</g>
<!-- 235&#45;&gt;241 -->
<g id="edge66" class="edge">
<title>235&#45;&gt;241</title>
<path fill="none" stroke="black" d="M2641.62,-1331.3C2754.47,-1252.29 3184.75,-951.06 3309.95,-863.41"/>
<polygon fill="black" stroke="black" points="3312.24,-866.08 3318.42,-857.47 3308.22,-860.34 3312.24,-866.08"/>
</g>
<!-- 235&#45;&gt;243 -->
<g id="edge67" class="edge">
<title>235&#45;&gt;243</title>
<path fill="none" stroke="black" d="M2655.21,-1331.33C2791.22,-1267.9 3228.11,-1064.12 3373.98,-996.09"/>
<polygon fill="black" stroke="black" points="3375.57,-999.21 3383.16,-991.81 3372.62,-992.86 3375.57,-999.21"/>
</g>
<!-- 235&#45;&gt;245 -->
<g id="edge68" class="edge">
<title>235&#45;&gt;245</title>
<path fill="none" stroke="black" d="M2684.68,-1331.38C2846.43,-1287.66 3243.71,-1180.27 3411.12,-1135.02"/>
<polygon fill="black" stroke="black" points="3412.11,-1138.38 3420.85,-1132.39 3410.28,-1131.62 3412.11,-1138.38"/>
</g>
<!-- 252 -->
<g id="node91" class="node">
<title>252</title>
<path fill="lightpink" stroke="lightpink" d="M3599.05,-1278.2C3599.05,-1278.2 3482.05,-1278.2 3482.05,-1278.2 3476.05,-1278.2 3470.05,-1272.2 3470.05,-1266.2 3470.05,-1266.2 3470.05,-1254.2 3470.05,-1254.2 3470.05,-1248.2 3476.05,-1242.2 3482.05,-1242.2 3482.05,-1242.2 3599.05,-1242.2 3599.05,-1242.2 3605.05,-1242.2 3611.05,-1248.2 3611.05,-1254.2 3611.05,-1254.2 3611.05,-1266.2 3611.05,-1266.2 3611.05,-1272.2 3605.05,-1278.2 3599.05,-1278.2"/>
<text text-anchor="middle" x="3540.55" y="-1256.5" font-family="Times,serif" font-size="14.00">{&#39;fileID&#39;: 2009980927}</text>
</g>
<!-- 254 -->
<g id="node92" class="node">
<title>254</title>
<path fill="lightpink" stroke="lightpink" d="M3639.22,-1428.09C3639.22,-1428.09 3522.22,-1428.09 3522.22,-1428.09 3516.22,-1428.09 3510.22,-1422.09 3510.22,-1416.09 3510.22,-1416.09 3510.22,-1404.09 3510.22,-1404.09 3510.22,-1398.09 3516.22,-1392.09 3522.22,-1392.09 3522.22,-1392.09 3639.22,-1392.09 3639.22,-1392.09 3645.22,-1392.09 3651.22,-1398.09 3651.22,-1404.09 3651.22,-1404.09 3651.22,-1416.09 3651.22,-1416.09 3651.22,-1422.09 3645.22,-1428.09 3639.22,-1428.09"/>
<text text-anchor="middle" x="3580.72" y="-1406.39" font-family="Times,serif" font-size="14.00">{&#39;fileID&#39;: 2009980926}</text>
</g>
<!-- 256 -->
<g id="node93" class="node">
<title>256</title>
<path fill="lightpink" stroke="lightpink" d="M3666.16,-1580.92C3666.16,-1580.92 3549.16,-1580.92 3549.16,-1580.92 3543.16,-1580.92 3537.16,-1574.92 3537.16,-1568.92 3537.16,-1568.92 3537.16,-1556.92 3537.16,-1556.92 3537.16,-1550.92 3543.16,-1544.92 3549.16,-1544.92 3549.16,-1544.92 3666.16,-1544.92 3666.16,-1544.92 3672.16,-1544.92 3678.16,-1550.92 3678.16,-1556.92 3678.16,-1556.92 3678.16,-1568.92 3678.16,-1568.92 3678.16,-1574.92 3672.16,-1580.92 3666.16,-1580.92"/>
<text text-anchor="middle" x="3607.66" y="-1559.22" font-family="Times,serif" font-size="14.00">{&#39;fileID&#39;: 2009980925}</text>
</g>
<!-- 258 -->
<g id="node94" class="node">
<title>258</title>
<path fill="lightpink" stroke="lightpink" d="M3679.69,-1735.5C3679.69,-1735.5 3562.69,-1735.5 3562.69,-1735.5 3556.69,-1735.5 3550.69,-1729.5 3550.69,-1723.5 3550.69,-1723.5 3550.69,-1711.5 3550.69,-1711.5 3550.69,-1705.5 3556.69,-1699.5 3562.69,-1699.5 3562.69,-1699.5 3679.69,-1699.5 3679.69,-1699.5 3685.69,-1699.5 3691.69,-1705.5 3691.69,-1711.5 3691.69,-1711.5 3691.69,-1723.5 3691.69,-1723.5 3691.69,-1729.5 3685.69,-1735.5 3679.69,-1735.5"/>
<text text-anchor="middle" x="3621.19" y="-1713.8" font-family="Times,serif" font-size="14.00">{&#39;fileID&#39;: 2009980924}</text>
</g>
<!-- 248 -->
<g id="node95" class="node">
<title>248</title>
<path fill="#b0e2ff" stroke="#b0e2ff" d="M2801.98,-1659.65C2801.98,-1659.65 2637.98,-1659.65 2637.98,-1659.65 2631.98,-1659.65 2625.98,-1653.65 2625.98,-1647.65 2625.98,-1647.65 2625.98,-1633.65 2625.98,-1633.65 2625.98,-1627.65 2631.98,-1621.65 2637.98,-1621.65 2637.98,-1621.65 2801.98,-1621.65 2801.98,-1621.65 2807.98,-1621.65 2813.98,-1627.65 2813.98,-1633.65 2813.98,-1633.65 2813.98,-1647.65 2813.98,-1647.65 2813.98,-1653.65 2807.98,-1659.65 2801.98,-1659.65"/>
<text text-anchor="middle" x="2719.98" y="-1644.45" font-family="Times,serif" font-size="14.00">GameObject_1_ID2009980923</text>
<text text-anchor="middle" x="2719.98" y="-1629.45" font-family="Times,serif" font-size="14.00">Canvas</text>
</g>
<!-- 248&#45;&gt;252 -->
<g id="edge69" class="edge">
<title>248&#45;&gt;252</title>
<path fill="none" stroke="black" d="M2761.23,-1621.53C2899.25,-1557.53 3344.47,-1351.11 3492.32,-1282.56"/>
<polygon fill="black" stroke="black" points="3494.02,-1285.63 3501.62,-1278.25 3491.08,-1279.28 3494.02,-1285.63"/>
</g>
<!-- 248&#45;&gt;254 -->
<g id="edge70" class="edge">
<title>248&#45;&gt;254</title>
<path fill="none" stroke="black" d="M2791.15,-1621.59C2951.02,-1578.76 3337.57,-1475.22 3503.24,-1430.85"/>
<polygon fill="black" stroke="black" points="3504.59,-1434.11 3513.35,-1428.14 3502.78,-1427.35 3504.59,-1434.11"/>
</g>
<!-- 248&#45;&gt;256 -->
<g id="edge71" class="edge">
<title>248&#45;&gt;256</title>
<path fill="none" stroke="black" d="M2814.13,-1632.41C2989.28,-1617.07 3362.29,-1584.4 3526.82,-1570"/>
<polygon fill="black" stroke="black" points="3527.22,-1573.47 3536.88,-1569.11 3526.61,-1566.5 3527.22,-1573.47"/>
</g>
<!-- 248&#45;&gt;258 -->
<g id="edge72" class="edge">
<title>248&#45;&gt;258</title>
<path fill="none" stroke="black" d="M2814.29,-1648.7C2992.03,-1663.85 3373.62,-1696.39 3540.4,-1710.61"/>
<polygon fill="black" stroke="black" points="3540.32,-1714.12 3550.58,-1711.48 3540.92,-1707.15 3540.32,-1714.12"/>
</g>
<!-- 1 -->
<g id="node96" class="node">
<title>1</title>
<ellipse fill="red" stroke="red" cx="1844.09" cy="-1795.09" rx="27" ry="18"/>
</g>
<!-- 1&#45;&gt;2 -->
<g id="edge73" class="edge">
<title>1&#45;&gt;2</title>
<path fill="none" stroke="black" d="M1870.97,-1798.63C1984.01,-1813.51 2424.32,-1871.48 2625.1,-1897.92"/>
<polygon fill="black" stroke="black" points="2624.69,-1901.39 2635.06,-1899.23 2625.6,-1894.45 2624.69,-1901.39"/>
</g>
<!-- 1&#45;&gt;13 -->
<g id="edge74" class="edge">
<title>1&#45;&gt;13</title>
<path fill="none" stroke="black" d="M1866.49,-1805.54C1974.71,-1856 2444.49,-2075.06 2599.98,-2147.57"/>
<polygon fill="black" stroke="black" points="2598.78,-2150.87 2609.32,-2151.93 2601.74,-2144.53 2598.78,-2150.87"/>
</g>
<!-- 1&#45;&gt;26 -->
<g id="edge75" class="edge">
<title>1&#45;&gt;26</title>
<path fill="none" stroke="black" d="M1860.3,-1809.95C1947.26,-1889.63 2358.72,-2266.66 2471.3,-2369.82"/>
<polygon fill="black" stroke="black" points="2469.14,-2372.59 2478.88,-2376.76 2473.87,-2367.43 2469.14,-2372.59"/>
</g>
<!-- 1&#45;&gt;37 -->
<g id="edge76" class="edge">
<title>1&#45;&gt;37</title>
<path fill="none" stroke="black" d="M1854.75,-1811.81C1916.35,-1908.51 2226.92,-2396.01 2304.42,-2517.66"/>
<polygon fill="black" stroke="black" points="2301.47,-2519.54 2309.8,-2526.1 2307.37,-2515.78 2301.47,-2519.54"/>
</g>
<!-- 1&#45;&gt;48 -->
<g id="edge77" class="edge">
<title>1&#45;&gt;48</title>
<path fill="none" stroke="black" d="M1848.9,-1813.04C1877.97,-1921.53 2030.22,-2489.74 2066.52,-2625.18"/>
<polygon fill="black" stroke="black" points="2063.14,-2626.12 2069.11,-2634.87 2069.9,-2624.3 2063.14,-2626.12"/>
</g>
<!-- 1&#45;&gt;61 -->
<g id="edge78" class="edge">
<title>1&#45;&gt;61</title>
<path fill="none" stroke="black" d="M1842.51,-1813.19C1832.8,-1924.18 1781.33,-2512.53 1769.16,-2651.62"/>
<polygon fill="black" stroke="black" points="1765.64,-2651.64 1768.26,-2661.91 1772.62,-2652.25 1765.64,-2651.64"/>
</g>
<!-- 1&#45;&gt;74 -->
<g id="edge79" class="edge">
<title>1&#45;&gt;74</title>
<path fill="none" stroke="black" d="M1836.83,-1812.64C1793.54,-1917.14 1569.73,-2457.47 1515.55,-2588.26"/>
<polygon fill="black" stroke="black" points="1512.27,-2587.05 1511.67,-2597.63 1518.73,-2589.73 1512.27,-2587.05"/>
</g>
<!-- 1&#45;&gt;85 -->
<g id="edge80" class="edge">
<title>1&#45;&gt;85</title>
<path fill="none" stroke="black" d="M1832.48,-1811.68C1766.29,-1906.22 1436.66,-2376.97 1353.19,-2496.18"/>
<polygon fill="black" stroke="black" points="1350.26,-2494.25 1347.4,-2504.45 1356,-2498.27 1350.26,-2494.25"/>
</g>
<!-- 1&#45;&gt;94 -->
<g id="edge81" class="edge">
<title>1&#45;&gt;94</title>
<path fill="none" stroke="black" d="M1827.88,-1809.95C1740.93,-1889.63 1329.46,-2266.66 1216.89,-2369.82"/>
<polygon fill="black" stroke="black" points="1214.32,-2367.43 1209.31,-2376.76 1219.05,-2372.59 1214.32,-2367.43"/>
</g>
<!-- 1&#45;&gt;105 -->
<g id="edge82" class="edge">
<title>1&#45;&gt;105</title>
<path fill="none" stroke="black" d="M1822.58,-1806.29C1716.64,-1861.44 1249.44,-2104.65 1100.78,-2182.04"/>
<polygon fill="black" stroke="black" points="1099.12,-2178.95 1091.87,-2186.68 1102.36,-2185.16 1099.12,-2178.95"/>
</g>
<!-- 1&#45;&gt;116 -->
<g id="edge83" class="edge">
<title>1&#45;&gt;116</title>
<path fill="none" stroke="black" d="M1818.11,-1800.86C1706.96,-1825.5 1268.27,-1922.75 1071.81,-1966.3"/>
<polygon fill="black" stroke="black" points="1070.79,-1962.95 1061.79,-1968.53 1072.31,-1969.78 1070.79,-1962.95"/>
</g>
<!-- 1&#45;&gt;127 -->
<g id="edge84" class="edge">
<title>1&#45;&gt;127</title>
<path fill="none" stroke="black" d="M1817.02,-1793.91C1702.97,-1788.93 1258.3,-1769.52 1056.34,-1760.7"/>
<polygon fill="black" stroke="black" points="1056.47,-1757.2 1046.32,-1760.26 1056.16,-1764.2 1056.47,-1757.2"/>
</g>
<!-- 1&#45;&gt;138 -->
<g id="edge85" class="edge">
<title>1&#45;&gt;138</title>
<path fill="none" stroke="black" d="M1819.98,-1786.32C1708.34,-1745.68 1239.83,-1575.16 1070.08,-1513.38"/>
<polygon fill="black" stroke="black" points="1071.14,-1510.04 1060.54,-1509.9 1068.74,-1516.61 1071.14,-1510.04"/>
</g>
<!-- 1&#45;&gt;151 -->
<g id="edge86" class="edge">
<title>1&#45;&gt;151</title>
<path fill="none" stroke="black" d="M1825.35,-1781.97C1728.25,-1713.98 1281.84,-1401.4 1151.42,-1310.08"/>
<polygon fill="black" stroke="black" points="1153.14,-1307.01 1142.94,-1304.14 1149.12,-1312.74 1153.14,-1307.01"/>
</g>
<!-- 1&#45;&gt;160 -->
<g id="edge87" class="edge">
<title>1&#45;&gt;160</title>
<path fill="none" stroke="black" d="M1829.83,-1779.53C1751.03,-1693.54 1368.77,-1276.37 1267.75,-1166.13"/>
<polygon fill="black" stroke="black" points="1270.04,-1163.45 1260.71,-1158.44 1264.88,-1168.18 1270.04,-1163.45"/>
</g>
<!-- 1&#45;&gt;171 -->
<g id="edge88" class="edge">
<title>1&#45;&gt;171</title>
<path fill="none" stroke="black" d="M1835.13,-1777.88C1782.55,-1676.86 1514.05,-1161.08 1448.07,-1034.35"/>
<polygon fill="black" stroke="black" points="1451.06,-1032.5 1443.34,-1025.25 1444.85,-1035.73 1451.06,-1032.5"/>
</g>
<!-- 1&#45;&gt;182 -->
<g id="edge89" class="edge">
<title>1&#45;&gt;182</title>
<path fill="none" stroke="black" d="M1840.07,-1776.96C1815.76,-1667.29 1688.42,-1092.9 1658.09,-956.06"/>
<polygon fill="black" stroke="black" points="1661.42,-954.93 1655.84,-945.93 1654.59,-956.45 1661.42,-954.93"/>
</g>
<!-- 1&#45;&gt;193 -->
<g id="edge90" class="edge">
<title>1&#45;&gt;193</title>
<path fill="none" stroke="black" d="M1844.09,-1776.93C1844.09,-1665.51 1844.09,-1074.92 1844.09,-935.3"/>
<polygon fill="black" stroke="black" points="1847.59,-934.97 1844.09,-924.97 1840.59,-934.97 1847.59,-934.97"/>
</g>
<!-- 1&#45;&gt;202 -->
<g id="edge91" class="edge">
<title>1&#45;&gt;202</title>
<path fill="none" stroke="black" d="M1848.11,-1776.96C1872.43,-1667.29 1999.77,-1092.9 2030.1,-956.06"/>
<polygon fill="black" stroke="black" points="2033.6,-956.45 2032.35,-945.93 2026.77,-954.93 2033.6,-956.45"/>
</g>
<!-- 1&#45;&gt;213 -->
<g id="edge92" class="edge">
<title>1&#45;&gt;213</title>
<path fill="none" stroke="black" d="M1853.05,-1777.88C1905.64,-1676.86 2174.14,-1161.08 2240.11,-1034.35"/>
<polygon fill="black" stroke="black" points="2243.34,-1035.73 2244.85,-1025.25 2237.13,-1032.5 2243.34,-1035.73"/>
</g>
<!-- 1&#45;&gt;224 -->
<g id="edge93" class="edge">
<title>1&#45;&gt;224</title>
<path fill="none" stroke="black" d="M1858.35,-1779.53C1937.16,-1693.54 2319.42,-1276.37 2420.44,-1166.13"/>
<polygon fill="black" stroke="black" points="2423.31,-1168.18 2427.48,-1158.44 2418.15,-1163.45 2423.31,-1168.18"/>
</g>
<!-- 1&#45;&gt;235 -->
<g id="edge94" class="edge">
<title>1&#45;&gt;235</title>
<path fill="none" stroke="black" d="M1864.7,-1783.2C1967.93,-1723.6 2429.65,-1457.02 2572.25,-1374.7"/>
<polygon fill="black" stroke="black" points="2574.26,-1377.57 2581.17,-1369.54 2570.76,-1371.51 2574.26,-1377.57"/>
</g>
<!-- 1&#45;&gt;248 -->
<g id="edge95" class="edge">
<title>1&#45;&gt;248</title>
<path fill="none" stroke="black" d="M1870.31,-1790.47C1981.08,-1770.94 2414.37,-1694.54 2615.88,-1659.01"/>
<polygon fill="black" stroke="black" points="2616.64,-1662.43 2625.88,-1657.24 2615.43,-1655.53 2616.64,-1662.43"/>
</g>
</g>
</svg>
