<?xml version="1.0" encoding="UTF-8" standalone="no"?>
<!DOCTYPE svg PUBLIC "-//W3C//DTD SVG 1.1//EN"
 "http://www.w3.org/Graphics/SVG/1.1/DTD/svg11.dtd">
<!-- Generated by graphviz version 2.46.0 (20210118.1747)
 -->
<!-- Title: graphname Pages: 1 -->
<svg width="463pt" height="3878pt"
 viewBox="0.00 0.00 463.00 3878.00" xmlns="http://www.w3.org/2000/svg" xmlns:xlink="http://www.w3.org/1999/xlink">
<g id="graph0" class="graph" transform="scale(1 1) rotate(0) translate(4 3874)">
<title>graphname</title>
<polygon fill="white" stroke="transparent" points="-4,4 -4,-3874 459,-3874 459,4 -4,4"/>
<!-- 6 -->
<g id="node1" class="node">
<title>6</title>
<path fill="lightpink" stroke="lightpink" d="M439.5,-3870C439.5,-3870 329.5,-3870 329.5,-3870 323.5,-3870 317.5,-3864 317.5,-3858 317.5,-3858 317.5,-3846 317.5,-3846 317.5,-3840 323.5,-3834 329.5,-3834 329.5,-3834 439.5,-3834 439.5,-3834 445.5,-3834 451.5,-3840 451.5,-3846 451.5,-3846 451.5,-3858 451.5,-3858 451.5,-3864 445.5,-3870 439.5,-3870"/>
<text text-anchor="middle" x="384.5" y="-3848.3" font-family="Times,serif" font-size="14.00">{&#39;fileID&#39;: 132945517}</text>
</g>
<!-- 8 -->
<g id="node2" class="node">
<title>8</title>
<path fill="lightpink" stroke="lightpink" d="M439.5,-3816C439.5,-3816 329.5,-3816 329.5,-3816 323.5,-3816 317.5,-3810 317.5,-3804 317.5,-3804 317.5,-3792 317.5,-3792 317.5,-3786 323.5,-3780 329.5,-3780 329.5,-3780 439.5,-3780 439.5,-3780 445.5,-3780 451.5,-3786 451.5,-3792 451.5,-3792 451.5,-3804 451.5,-3804 451.5,-3810 445.5,-3816 439.5,-3816"/>
<text text-anchor="middle" x="384.5" y="-3794.3" font-family="Times,serif" font-size="14.00">{&#39;fileID&#39;: 132945519}</text>
</g>
<!-- 10 -->
<g id="node3" class="node">
<title>10</title>
<path fill="lightpink" stroke="lightpink" d="M439.5,-3762C439.5,-3762 329.5,-3762 329.5,-3762 323.5,-3762 317.5,-3756 317.5,-3750 317.5,-3750 317.5,-3738 317.5,-3738 317.5,-3732 323.5,-3726 329.5,-3726 329.5,-3726 439.5,-3726 439.5,-3726 445.5,-3726 451.5,-3732 451.5,-3738 451.5,-3738 451.5,-3750 451.5,-3750 451.5,-3756 445.5,-3762 439.5,-3762"/>
<text text-anchor="middle" x="384.5" y="-3740.3" font-family="Times,serif" font-size="14.00">{&#39;fileID&#39;: 132945518}</text>
</g>
<!-- 2 -->
<g id="node4" class="node">
<title>2</title>
<path fill="#b0e2ff" stroke="#b0e2ff" d="M262.5,-3790C262.5,-3790 105.5,-3790 105.5,-3790 99.5,-3790 93.5,-3784 93.5,-3778 93.5,-3778 93.5,-3764 93.5,-3764 93.5,-3758 99.5,-3752 105.5,-3752 105.5,-3752 262.5,-3752 262.5,-3752 268.5,-3752 274.5,-3758 274.5,-3764 274.5,-3764 274.5,-3778 274.5,-3778 274.5,-3784 268.5,-3790 262.5,-3790"/>
<text text-anchor="middle" x="184" y="-3774.8" font-family="Times,serif" font-size="14.00">GameObject_1_ID132945516</text>
<text text-anchor="middle" x="184" y="-3759.8" font-family="Times,serif" font-size="14.00">Text</text>
</g>
<!-- 2&#45;&gt;6 -->
<g id="edge1" class="edge">
<title>2&#45;&gt;6</title>
<path fill="none" stroke="black" d="M229.66,-3790.03C254.44,-3800.5 285.86,-3813.64 314,-3825 318.16,-3826.68 322.48,-3828.4 326.82,-3830.12"/>
<polygon fill="black" stroke="black" points="325.74,-3833.46 336.33,-3833.86 328.31,-3826.94 325.74,-3833.46"/>
</g>
<!-- 2&#45;&gt;8 -->
<g id="edge2" class="edge">
<title>2&#45;&gt;8</title>
<path fill="none" stroke="black" d="M274.67,-3783.2C285.57,-3784.68 296.62,-3786.18 307.3,-3787.64"/>
<polygon fill="black" stroke="black" points="307.03,-3791.13 317.41,-3789.01 307.97,-3784.19 307.03,-3791.13"/>
</g>
<!-- 2&#45;&gt;10 -->
<g id="edge3" class="edge">
<title>2&#45;&gt;10</title>
<path fill="none" stroke="black" d="M274.67,-3758.8C285.57,-3757.32 296.62,-3755.82 307.3,-3754.36"/>
<polygon fill="black" stroke="black" points="307.97,-3757.81 317.41,-3752.99 307.03,-3750.87 307.97,-3757.81"/>
</g>
<!-- 17 -->
<g id="node5" class="node">
<title>17</title>
<path fill="lightpink" stroke="lightpink" d="M439.5,-3708C439.5,-3708 329.5,-3708 329.5,-3708 323.5,-3708 317.5,-3702 317.5,-3696 317.5,-3696 317.5,-3684 317.5,-3684 317.5,-3678 323.5,-3672 329.5,-3672 329.5,-3672 439.5,-3672 439.5,-3672 445.5,-3672 451.5,-3678 451.5,-3684 451.5,-3684 451.5,-3696 451.5,-3696 451.5,-3702 445.5,-3708 439.5,-3708"/>
<text text-anchor="middle" x="384.5" y="-3686.3" font-family="Times,serif" font-size="14.00">{&#39;fileID&#39;: 130449832}</text>
</g>
<!-- 19 -->
<g id="node6" class="node">
<title>19</title>
<path fill="lightpink" stroke="lightpink" d="M439.5,-3654C439.5,-3654 329.5,-3654 329.5,-3654 323.5,-3654 317.5,-3648 317.5,-3642 317.5,-3642 317.5,-3630 317.5,-3630 317.5,-3624 323.5,-3618 329.5,-3618 329.5,-3618 439.5,-3618 439.5,-3618 445.5,-3618 451.5,-3624 451.5,-3630 451.5,-3630 451.5,-3642 451.5,-3642 451.5,-3648 445.5,-3654 439.5,-3654"/>
<text text-anchor="middle" x="384.5" y="-3632.3" font-family="Times,serif" font-size="14.00">{&#39;fileID&#39;: 130449835}</text>
</g>
<!-- 21 -->
<g id="node7" class="node">
<title>21</title>
<path fill="lightpink" stroke="lightpink" d="M439.5,-3600C439.5,-3600 329.5,-3600 329.5,-3600 323.5,-3600 317.5,-3594 317.5,-3588 317.5,-3588 317.5,-3576 317.5,-3576 317.5,-3570 323.5,-3564 329.5,-3564 329.5,-3564 439.5,-3564 439.5,-3564 445.5,-3564 451.5,-3570 451.5,-3576 451.5,-3576 451.5,-3588 451.5,-3588 451.5,-3594 445.5,-3600 439.5,-3600"/>
<text text-anchor="middle" x="384.5" y="-3578.3" font-family="Times,serif" font-size="14.00">{&#39;fileID&#39;: 130449834}</text>
</g>
<!-- 23 -->
<g id="node8" class="node">
<title>23</title>
<path fill="lightpink" stroke="lightpink" d="M439.5,-3546C439.5,-3546 329.5,-3546 329.5,-3546 323.5,-3546 317.5,-3540 317.5,-3534 317.5,-3534 317.5,-3522 317.5,-3522 317.5,-3516 323.5,-3510 329.5,-3510 329.5,-3510 439.5,-3510 439.5,-3510 445.5,-3510 451.5,-3516 451.5,-3522 451.5,-3522 451.5,-3534 451.5,-3534 451.5,-3540 445.5,-3546 439.5,-3546"/>
<text text-anchor="middle" x="384.5" y="-3524.3" font-family="Times,serif" font-size="14.00">{&#39;fileID&#39;: 130449833}</text>
</g>
<!-- 13 -->
<g id="node9" class="node">
<title>13</title>
<path fill="#b0e2ff" stroke="#b0e2ff" d="M262.5,-3601C262.5,-3601 105.5,-3601 105.5,-3601 99.5,-3601 93.5,-3595 93.5,-3589 93.5,-3589 93.5,-3575 93.5,-3575 93.5,-3569 99.5,-3563 105.5,-3563 105.5,-3563 262.5,-3563 262.5,-3563 268.5,-3563 274.5,-3569 274.5,-3575 274.5,-3575 274.5,-3589 274.5,-3589 274.5,-3595 268.5,-3601 262.5,-3601"/>
<text text-anchor="middle" x="184" y="-3585.8" font-family="Times,serif" font-size="14.00">GameObject_1_ID130449831</text>
<text text-anchor="middle" x="184" y="-3570.8" font-family="Times,serif" font-size="14.00">Menu</text>
</g>
<!-- 13&#45;&gt;17 -->
<g id="edge4" class="edge">
<title>13&#45;&gt;17</title>
<path fill="none" stroke="black" d="M212.29,-3601.28C237.81,-3618.78 277.37,-3644.6 314,-3663 317.32,-3664.67 320.77,-3666.3 324.27,-3667.88"/>
<polygon fill="black" stroke="black" points="323.07,-3671.18 333.64,-3671.96 325.86,-3664.76 323.07,-3671.18"/>
</g>
<!-- 13&#45;&gt;19 -->
<g id="edge5" class="edge">
<title>13&#45;&gt;19</title>
<path fill="none" stroke="black" d="M254.98,-3601.04C271.97,-3605.66 290.2,-3610.62 307.45,-3615.31"/>
<polygon fill="black" stroke="black" points="306.91,-3618.79 317.47,-3618.04 308.74,-3612.04 306.91,-3618.79"/>
</g>
<!-- 13&#45;&gt;21 -->
<g id="edge6" class="edge">
<title>13&#45;&gt;21</title>
<path fill="none" stroke="black" d="M274.67,-3582C285.57,-3582 296.62,-3582 307.3,-3582"/>
<polygon fill="black" stroke="black" points="307.41,-3585.5 317.41,-3582 307.41,-3578.5 307.41,-3585.5"/>
</g>
<!-- 13&#45;&gt;23 -->
<g id="edge7" class="edge">
<title>13&#45;&gt;23</title>
<path fill="none" stroke="black" d="M254.98,-3562.96C271.97,-3558.34 290.2,-3553.38 307.45,-3548.69"/>
<polygon fill="black" stroke="black" points="308.74,-3551.96 317.47,-3545.96 306.91,-3545.21 308.74,-3551.96"/>
</g>
<!-- 30 -->
<g id="node10" class="node">
<title>30</title>
<path fill="lightpink" stroke="lightpink" d="M443,-3492C443,-3492 326,-3492 326,-3492 320,-3492 314,-3486 314,-3480 314,-3480 314,-3468 314,-3468 314,-3462 320,-3456 326,-3456 326,-3456 443,-3456 443,-3456 449,-3456 455,-3462 455,-3468 455,-3468 455,-3480 455,-3480 455,-3486 449,-3492 443,-3492"/>
<text text-anchor="middle" x="384.5" y="-3470.3" font-family="Times,serif" font-size="14.00">{&#39;fileID&#39;: 1747895407}</text>
</g>
<!-- 32 -->
<g id="node11" class="node">
<title>32</title>
<path fill="lightpink" stroke="lightpink" d="M443,-3438C443,-3438 326,-3438 326,-3438 320,-3438 314,-3432 314,-3426 314,-3426 314,-3414 314,-3414 314,-3408 320,-3402 326,-3402 326,-3402 443,-3402 443,-3402 449,-3402 455,-3408 455,-3414 455,-3414 455,-3426 455,-3426 455,-3432 449,-3438 443,-3438"/>
<text text-anchor="middle" x="384.5" y="-3416.3" font-family="Times,serif" font-size="14.00">{&#39;fileID&#39;: 1747895409}</text>
</g>
<!-- 34 -->
<g id="node12" class="node">
<title>34</title>
<path fill="lightpink" stroke="lightpink" d="M443,-3384C443,-3384 326,-3384 326,-3384 320,-3384 314,-3378 314,-3372 314,-3372 314,-3360 314,-3360 314,-3354 320,-3348 326,-3348 326,-3348 443,-3348 443,-3348 449,-3348 455,-3354 455,-3360 455,-3360 455,-3372 455,-3372 455,-3378 449,-3384 443,-3384"/>
<text text-anchor="middle" x="384.5" y="-3362.3" font-family="Times,serif" font-size="14.00">{&#39;fileID&#39;: 1747895408}</text>
</g>
<!-- 26 -->
<g id="node13" class="node">
<title>26</title>
<path fill="#b0e2ff" stroke="#b0e2ff" d="M266,-3412C266,-3412 102,-3412 102,-3412 96,-3412 90,-3406 90,-3400 90,-3400 90,-3386 90,-3386 90,-3380 96,-3374 102,-3374 102,-3374 266,-3374 266,-3374 272,-3374 278,-3380 278,-3386 278,-3386 278,-3400 278,-3400 278,-3406 272,-3412 266,-3412"/>
<text text-anchor="middle" x="184" y="-3396.8" font-family="Times,serif" font-size="14.00">GameObject_1_ID1747895406</text>
<text text-anchor="middle" x="184" y="-3381.8" font-family="Times,serif" font-size="14.00">Text</text>
</g>
<!-- 26&#45;&gt;30 -->
<g id="edge8" class="edge">
<title>26&#45;&gt;30</title>
<path fill="none" stroke="black" d="M229.66,-3412.03C254.44,-3422.5 285.86,-3435.64 314,-3447 318.16,-3448.68 322.48,-3450.4 326.82,-3452.12"/>
<polygon fill="black" stroke="black" points="325.74,-3455.46 336.33,-3455.86 328.31,-3448.94 325.74,-3455.46"/>
</g>
<!-- 26&#45;&gt;32 -->
<g id="edge9" class="edge">
<title>26&#45;&gt;32</title>
<path fill="none" stroke="black" d="M278.15,-3405.67C286.67,-3406.83 295.25,-3408 303.64,-3409.14"/>
<polygon fill="black" stroke="black" points="303.38,-3412.63 313.76,-3410.51 304.33,-3405.7 303.38,-3412.63"/>
</g>
<!-- 26&#45;&gt;34 -->
<g id="edge10" class="edge">
<title>26&#45;&gt;34</title>
<path fill="none" stroke="black" d="M278.15,-3380.33C286.67,-3379.17 295.25,-3378 303.64,-3376.86"/>
<polygon fill="black" stroke="black" points="304.33,-3380.3 313.76,-3375.49 303.38,-3373.37 304.33,-3380.3"/>
</g>
<!-- 41 -->
<g id="node14" class="node">
<title>41</title>
<path fill="lightpink" stroke="lightpink" d="M443,-3330C443,-3330 326,-3330 326,-3330 320,-3330 314,-3324 314,-3318 314,-3318 314,-3306 314,-3306 314,-3300 320,-3294 326,-3294 326,-3294 443,-3294 443,-3294 449,-3294 455,-3300 455,-3306 455,-3306 455,-3318 455,-3318 455,-3324 449,-3330 443,-3330"/>
<text text-anchor="middle" x="384.5" y="-3308.3" font-family="Times,serif" font-size="14.00">{&#39;fileID&#39;: 1285890737}</text>
</g>
<!-- 43 -->
<g id="node15" class="node">
<title>43</title>
<path fill="lightpink" stroke="lightpink" d="M443,-3276C443,-3276 326,-3276 326,-3276 320,-3276 314,-3270 314,-3264 314,-3264 314,-3252 314,-3252 314,-3246 320,-3240 326,-3240 326,-3240 443,-3240 443,-3240 449,-3240 455,-3246 455,-3252 455,-3252 455,-3264 455,-3264 455,-3270 449,-3276 443,-3276"/>
<text text-anchor="middle" x="384.5" y="-3254.3" font-family="Times,serif" font-size="14.00">{&#39;fileID&#39;: 1285890739}</text>
</g>
<!-- 45 -->
<g id="node16" class="node">
<title>45</title>
<path fill="lightpink" stroke="lightpink" d="M443,-3222C443,-3222 326,-3222 326,-3222 320,-3222 314,-3216 314,-3210 314,-3210 314,-3198 314,-3198 314,-3192 320,-3186 326,-3186 326,-3186 443,-3186 443,-3186 449,-3186 455,-3192 455,-3198 455,-3198 455,-3210 455,-3210 455,-3216 449,-3222 443,-3222"/>
<text text-anchor="middle" x="384.5" y="-3200.3" font-family="Times,serif" font-size="14.00">{&#39;fileID&#39;: 1285890738}</text>
</g>
<!-- 37 -->
<g id="node17" class="node">
<title>37</title>
<path fill="#b0e2ff" stroke="#b0e2ff" d="M266,-3250C266,-3250 102,-3250 102,-3250 96,-3250 90,-3244 90,-3238 90,-3238 90,-3224 90,-3224 90,-3218 96,-3212 102,-3212 102,-3212 266,-3212 266,-3212 272,-3212 278,-3218 278,-3224 278,-3224 278,-3238 278,-3238 278,-3244 272,-3250 266,-3250"/>
<text text-anchor="middle" x="184" y="-3234.8" font-family="Times,serif" font-size="14.00">GameObject_1_ID1285890736</text>
<text text-anchor="middle" x="184" y="-3219.8" font-family="Times,serif" font-size="14.00">Text</text>
</g>
<!-- 37&#45;&gt;41 -->
<g id="edge11" class="edge">
<title>37&#45;&gt;41</title>
<path fill="none" stroke="black" d="M229.66,-3250.03C254.44,-3260.5 285.86,-3273.64 314,-3285 318.16,-3286.68 322.48,-3288.4 326.82,-3290.12"/>
<polygon fill="black" stroke="black" points="325.74,-3293.46 336.33,-3293.86 328.31,-3286.94 325.74,-3293.46"/>
</g>
<!-- 37&#45;&gt;43 -->
<g id="edge12" class="edge">
<title>37&#45;&gt;43</title>
<path fill="none" stroke="black" d="M278.15,-3243.67C286.67,-3244.83 295.25,-3246 303.64,-3247.14"/>
<polygon fill="black" stroke="black" points="303.38,-3250.63 313.76,-3248.51 304.33,-3243.7 303.38,-3250.63"/>
</g>
<!-- 37&#45;&gt;45 -->
<g id="edge13" class="edge">
<title>37&#45;&gt;45</title>
<path fill="none" stroke="black" d="M278.15,-3218.33C286.67,-3217.17 295.25,-3216 303.64,-3214.86"/>
<polygon fill="black" stroke="black" points="304.33,-3218.3 313.76,-3213.49 303.38,-3211.37 304.33,-3218.3"/>
</g>
<!-- 52 -->
<g id="node18" class="node">
<title>52</title>
<path fill="lightpink" stroke="lightpink" d="M439.5,-3168C439.5,-3168 329.5,-3168 329.5,-3168 323.5,-3168 317.5,-3162 317.5,-3156 317.5,-3156 317.5,-3144 317.5,-3144 317.5,-3138 323.5,-3132 329.5,-3132 329.5,-3132 439.5,-3132 439.5,-3132 445.5,-3132 451.5,-3138 451.5,-3144 451.5,-3144 451.5,-3156 451.5,-3156 451.5,-3162 445.5,-3168 439.5,-3168"/>
<text text-anchor="middle" x="384.5" y="-3146.3" font-family="Times,serif" font-size="14.00">{&#39;fileID&#39;: 771856869}</text>
</g>
<!-- 54 -->
<g id="node19" class="node">
<title>54</title>
<path fill="lightpink" stroke="lightpink" d="M439.5,-3114C439.5,-3114 329.5,-3114 329.5,-3114 323.5,-3114 317.5,-3108 317.5,-3102 317.5,-3102 317.5,-3090 317.5,-3090 317.5,-3084 323.5,-3078 329.5,-3078 329.5,-3078 439.5,-3078 439.5,-3078 445.5,-3078 451.5,-3084 451.5,-3090 451.5,-3090 451.5,-3102 451.5,-3102 451.5,-3108 445.5,-3114 439.5,-3114"/>
<text text-anchor="middle" x="384.5" y="-3092.3" font-family="Times,serif" font-size="14.00">{&#39;fileID&#39;: 771856872}</text>
</g>
<!-- 56 -->
<g id="node20" class="node">
<title>56</title>
<path fill="lightpink" stroke="lightpink" d="M439.5,-3060C439.5,-3060 329.5,-3060 329.5,-3060 323.5,-3060 317.5,-3054 317.5,-3048 317.5,-3048 317.5,-3036 317.5,-3036 317.5,-3030 323.5,-3024 329.5,-3024 329.5,-3024 439.5,-3024 439.5,-3024 445.5,-3024 451.5,-3030 451.5,-3036 451.5,-3036 451.5,-3048 451.5,-3048 451.5,-3054 445.5,-3060 439.5,-3060"/>
<text text-anchor="middle" x="384.5" y="-3038.3" font-family="Times,serif" font-size="14.00">{&#39;fileID&#39;: 771856871}</text>
</g>
<!-- 58 -->
<g id="node21" class="node">
<title>58</title>
<path fill="lightpink" stroke="lightpink" d="M439.5,-3006C439.5,-3006 329.5,-3006 329.5,-3006 323.5,-3006 317.5,-3000 317.5,-2994 317.5,-2994 317.5,-2982 317.5,-2982 317.5,-2976 323.5,-2970 329.5,-2970 329.5,-2970 439.5,-2970 439.5,-2970 445.5,-2970 451.5,-2976 451.5,-2982 451.5,-2982 451.5,-2994 451.5,-2994 451.5,-3000 445.5,-3006 439.5,-3006"/>
<text text-anchor="middle" x="384.5" y="-2984.3" font-family="Times,serif" font-size="14.00">{&#39;fileID&#39;: 771856870}</text>
</g>
<!-- 48 -->
<g id="node22" class="node">
<title>48</title>
<path fill="#b0e2ff" stroke="#b0e2ff" d="M262.5,-3061C262.5,-3061 105.5,-3061 105.5,-3061 99.5,-3061 93.5,-3055 93.5,-3049 93.5,-3049 93.5,-3035 93.5,-3035 93.5,-3029 99.5,-3023 105.5,-3023 105.5,-3023 262.5,-3023 262.5,-3023 268.5,-3023 274.5,-3029 274.5,-3035 274.5,-3035 274.5,-3049 274.5,-3049 274.5,-3055 268.5,-3061 262.5,-3061"/>
<text text-anchor="middle" x="184" y="-3045.8" font-family="Times,serif" font-size="14.00">GameObject_1_ID771856868</text>
<text text-anchor="middle" x="184" y="-3030.8" font-family="Times,serif" font-size="14.00">StartButton</text>
</g>
<!-- 48&#45;&gt;52 -->
<g id="edge14" class="edge">
<title>48&#45;&gt;52</title>
<path fill="none" stroke="black" d="M212.29,-3061.28C237.81,-3078.78 277.37,-3104.6 314,-3123 317.32,-3124.67 320.77,-3126.3 324.27,-3127.88"/>
<polygon fill="black" stroke="black" points="323.07,-3131.18 333.64,-3131.96 325.86,-3124.76 323.07,-3131.18"/>
</g>
<!-- 48&#45;&gt;54 -->
<g id="edge15" class="edge">
<title>48&#45;&gt;54</title>
<path fill="none" stroke="black" d="M254.98,-3061.04C271.97,-3065.66 290.2,-3070.62 307.45,-3075.31"/>
<polygon fill="black" stroke="black" points="306.91,-3078.79 317.47,-3078.04 308.74,-3072.04 306.91,-3078.79"/>
</g>
<!-- 48&#45;&gt;56 -->
<g id="edge16" class="edge">
<title>48&#45;&gt;56</title>
<path fill="none" stroke="black" d="M274.67,-3042C285.57,-3042 296.62,-3042 307.3,-3042"/>
<polygon fill="black" stroke="black" points="307.41,-3045.5 317.41,-3042 307.41,-3038.5 307.41,-3045.5"/>
</g>
<!-- 48&#45;&gt;58 -->
<g id="edge17" class="edge">
<title>48&#45;&gt;58</title>
<path fill="none" stroke="black" d="M254.98,-3022.96C271.97,-3018.34 290.2,-3013.38 307.45,-3008.69"/>
<polygon fill="black" stroke="black" points="308.74,-3011.96 317.47,-3005.96 306.91,-3005.21 308.74,-3011.96"/>
</g>
<!-- 65 -->
<g id="node23" class="node">
<title>65</title>
<path fill="lightpink" stroke="lightpink" d="M443,-2952C443,-2952 326,-2952 326,-2952 320,-2952 314,-2946 314,-2940 314,-2940 314,-2928 314,-2928 314,-2922 320,-2916 326,-2916 326,-2916 443,-2916 443,-2916 449,-2916 455,-2922 455,-2928 455,-2928 455,-2940 455,-2940 455,-2946 449,-2952 443,-2952"/>
<text text-anchor="middle" x="384.5" y="-2930.3" font-family="Times,serif" font-size="14.00">{&#39;fileID&#39;: 1351522637}</text>
</g>
<!-- 67 -->
<g id="node24" class="node">
<title>67</title>
<path fill="lightpink" stroke="lightpink" d="M443,-2898C443,-2898 326,-2898 326,-2898 320,-2898 314,-2892 314,-2886 314,-2886 314,-2874 314,-2874 314,-2868 320,-2862 326,-2862 326,-2862 443,-2862 443,-2862 449,-2862 455,-2868 455,-2874 455,-2874 455,-2886 455,-2886 455,-2892 449,-2898 443,-2898"/>
<text text-anchor="middle" x="384.5" y="-2876.3" font-family="Times,serif" font-size="14.00">{&#39;fileID&#39;: 1351522640}</text>
</g>
<!-- 69 -->
<g id="node25" class="node">
<title>69</title>
<path fill="lightpink" stroke="lightpink" d="M443,-2844C443,-2844 326,-2844 326,-2844 320,-2844 314,-2838 314,-2832 314,-2832 314,-2820 314,-2820 314,-2814 320,-2808 326,-2808 326,-2808 443,-2808 443,-2808 449,-2808 455,-2814 455,-2820 455,-2820 455,-2832 455,-2832 455,-2838 449,-2844 443,-2844"/>
<text text-anchor="middle" x="384.5" y="-2822.3" font-family="Times,serif" font-size="14.00">{&#39;fileID&#39;: 1351522639}</text>
</g>
<!-- 71 -->
<g id="node26" class="node">
<title>71</title>
<path fill="lightpink" stroke="lightpink" d="M443,-2790C443,-2790 326,-2790 326,-2790 320,-2790 314,-2784 314,-2778 314,-2778 314,-2766 314,-2766 314,-2760 320,-2754 326,-2754 326,-2754 443,-2754 443,-2754 449,-2754 455,-2760 455,-2766 455,-2766 455,-2778 455,-2778 455,-2784 449,-2790 443,-2790"/>
<text text-anchor="middle" x="384.5" y="-2768.3" font-family="Times,serif" font-size="14.00">{&#39;fileID&#39;: 1351522638}</text>
</g>
<!-- 61 -->
<g id="node27" class="node">
<title>61</title>
<path fill="#b0e2ff" stroke="#b0e2ff" d="M266,-2845C266,-2845 102,-2845 102,-2845 96,-2845 90,-2839 90,-2833 90,-2833 90,-2819 90,-2819 90,-2813 96,-2807 102,-2807 102,-2807 266,-2807 266,-2807 272,-2807 278,-2813 278,-2819 278,-2819 278,-2833 278,-2833 278,-2839 272,-2845 266,-2845"/>
<text text-anchor="middle" x="184" y="-2829.8" font-family="Times,serif" font-size="14.00">GameObject_1_ID1351522636</text>
<text text-anchor="middle" x="184" y="-2814.8" font-family="Times,serif" font-size="14.00">ExitButton</text>
</g>
<!-- 61&#45;&gt;65 -->
<g id="edge18" class="edge">
<title>61&#45;&gt;65</title>
<path fill="none" stroke="black" d="M212.29,-2845.28C237.81,-2862.78 277.37,-2888.6 314,-2907 317.32,-2908.67 320.77,-2910.3 324.27,-2911.88"/>
<polygon fill="black" stroke="black" points="323.07,-2915.18 333.64,-2915.96 325.86,-2908.76 323.07,-2915.18"/>
</g>
<!-- 61&#45;&gt;67 -->
<g id="edge19" class="edge">
<title>61&#45;&gt;67</title>
<path fill="none" stroke="black" d="M254.98,-2845.04C271.87,-2849.63 290,-2854.56 307.17,-2859.23"/>
<polygon fill="black" stroke="black" points="306.57,-2862.7 317.14,-2861.95 308.41,-2855.95 306.57,-2862.7"/>
</g>
<!-- 61&#45;&gt;69 -->
<g id="edge20" class="edge">
<title>61&#45;&gt;69</title>
<path fill="none" stroke="black" d="M278.15,-2826C286.67,-2826 295.25,-2826 303.64,-2826"/>
<polygon fill="black" stroke="black" points="303.76,-2829.5 313.76,-2826 303.76,-2822.5 303.76,-2829.5"/>
</g>
<!-- 61&#45;&gt;71 -->
<g id="edge21" class="edge">
<title>61&#45;&gt;71</title>
<path fill="none" stroke="black" d="M254.98,-2806.96C271.87,-2802.37 290,-2797.44 307.17,-2792.77"/>
<polygon fill="black" stroke="black" points="308.41,-2796.05 317.14,-2790.05 306.57,-2789.3 308.41,-2796.05"/>
</g>
<!-- 78 -->
<g id="node28" class="node">
<title>78</title>
<path fill="lightpink" stroke="lightpink" d="M439.5,-2736C439.5,-2736 329.5,-2736 329.5,-2736 323.5,-2736 317.5,-2730 317.5,-2724 317.5,-2724 317.5,-2712 317.5,-2712 317.5,-2706 323.5,-2700 329.5,-2700 329.5,-2700 439.5,-2700 439.5,-2700 445.5,-2700 451.5,-2706 451.5,-2712 451.5,-2712 451.5,-2724 451.5,-2724 451.5,-2730 445.5,-2736 439.5,-2736"/>
<text text-anchor="middle" x="384.5" y="-2714.3" font-family="Times,serif" font-size="14.00">{&#39;fileID&#39;: 960558224}</text>
</g>
<!-- 80 -->
<g id="node29" class="node">
<title>80</title>
<path fill="lightpink" stroke="lightpink" d="M439.5,-2682C439.5,-2682 329.5,-2682 329.5,-2682 323.5,-2682 317.5,-2676 317.5,-2670 317.5,-2670 317.5,-2658 317.5,-2658 317.5,-2652 323.5,-2646 329.5,-2646 329.5,-2646 439.5,-2646 439.5,-2646 445.5,-2646 451.5,-2652 451.5,-2658 451.5,-2658 451.5,-2670 451.5,-2670 451.5,-2676 445.5,-2682 439.5,-2682"/>
<text text-anchor="middle" x="384.5" y="-2660.3" font-family="Times,serif" font-size="14.00">{&#39;fileID&#39;: 960558226}</text>
</g>
<!-- 82 -->
<g id="node30" class="node">
<title>82</title>
<path fill="lightpink" stroke="lightpink" d="M439.5,-2628C439.5,-2628 329.5,-2628 329.5,-2628 323.5,-2628 317.5,-2622 317.5,-2616 317.5,-2616 317.5,-2604 317.5,-2604 317.5,-2598 323.5,-2592 329.5,-2592 329.5,-2592 439.5,-2592 439.5,-2592 445.5,-2592 451.5,-2598 451.5,-2604 451.5,-2604 451.5,-2616 451.5,-2616 451.5,-2622 445.5,-2628 439.5,-2628"/>
<text text-anchor="middle" x="384.5" y="-2606.3" font-family="Times,serif" font-size="14.00">{&#39;fileID&#39;: 960558225}</text>
</g>
<!-- 74 -->
<g id="node31" class="node">
<title>74</title>
<path fill="#b0e2ff" stroke="#b0e2ff" d="M262.5,-2656C262.5,-2656 105.5,-2656 105.5,-2656 99.5,-2656 93.5,-2650 93.5,-2644 93.5,-2644 93.5,-2630 93.5,-2630 93.5,-2624 99.5,-2618 105.5,-2618 105.5,-2618 262.5,-2618 262.5,-2618 268.5,-2618 274.5,-2624 274.5,-2630 274.5,-2630 274.5,-2644 274.5,-2644 274.5,-2650 268.5,-2656 262.5,-2656"/>
<text text-anchor="middle" x="184" y="-2640.8" font-family="Times,serif" font-size="14.00">GameObject_1_ID960558223</text>
<text text-anchor="middle" x="184" y="-2625.8" font-family="Times,serif" font-size="14.00">Text</text>
</g>
<!-- 74&#45;&gt;78 -->
<g id="edge22" class="edge">
<title>74&#45;&gt;78</title>
<path fill="none" stroke="black" d="M229.66,-2656.03C254.44,-2666.5 285.86,-2679.64 314,-2691 318.16,-2692.68 322.48,-2694.4 326.82,-2696.12"/>
<polygon fill="black" stroke="black" points="325.74,-2699.46 336.33,-2699.86 328.31,-2692.94 325.74,-2699.46"/>
</g>
<!-- 74&#45;&gt;80 -->
<g id="edge23" class="edge">
<title>74&#45;&gt;80</title>
<path fill="none" stroke="black" d="M274.67,-2649.2C285.57,-2650.68 296.62,-2652.18 307.3,-2653.64"/>
<polygon fill="black" stroke="black" points="307.03,-2657.13 317.41,-2655.01 307.97,-2650.19 307.03,-2657.13"/>
</g>
<!-- 74&#45;&gt;82 -->
<g id="edge24" class="edge">
<title>74&#45;&gt;82</title>
<path fill="none" stroke="black" d="M274.67,-2624.8C285.57,-2623.32 296.62,-2621.82 307.3,-2620.36"/>
<polygon fill="black" stroke="black" points="307.97,-2623.81 317.41,-2618.99 307.03,-2616.87 307.97,-2623.81"/>
</g>
<!-- 89 -->
<g id="node32" class="node">
<title>89</title>
<path fill="lightpink" stroke="lightpink" d="M443,-2574C443,-2574 326,-2574 326,-2574 320,-2574 314,-2568 314,-2562 314,-2562 314,-2550 314,-2550 314,-2544 320,-2538 326,-2538 326,-2538 443,-2538 443,-2538 449,-2538 455,-2544 455,-2550 455,-2550 455,-2562 455,-2562 455,-2568 449,-2574 443,-2574"/>
<text text-anchor="middle" x="384.5" y="-2552.3" font-family="Times,serif" font-size="14.00">{&#39;fileID&#39;: 1089201444}</text>
</g>
<!-- 91 -->
<g id="node33" class="node">
<title>91</title>
<path fill="lightpink" stroke="lightpink" d="M443,-2520C443,-2520 326,-2520 326,-2520 320,-2520 314,-2514 314,-2508 314,-2508 314,-2496 314,-2496 314,-2490 320,-2484 326,-2484 326,-2484 443,-2484 443,-2484 449,-2484 455,-2490 455,-2496 455,-2496 455,-2508 455,-2508 455,-2514 449,-2520 443,-2520"/>
<text text-anchor="middle" x="384.5" y="-2498.3" font-family="Times,serif" font-size="14.00">{&#39;fileID&#39;: 1089201445}</text>
</g>
<!-- 85 -->
<g id="node34" class="node">
<title>85</title>
<path fill="#b0e2ff" stroke="#b0e2ff" d="M266,-2521C266,-2521 102,-2521 102,-2521 96,-2521 90,-2515 90,-2509 90,-2509 90,-2495 90,-2495 90,-2489 96,-2483 102,-2483 102,-2483 266,-2483 266,-2483 272,-2483 278,-2489 278,-2495 278,-2495 278,-2509 278,-2509 278,-2515 272,-2521 266,-2521"/>
<text text-anchor="middle" x="184" y="-2505.8" font-family="Times,serif" font-size="14.00">GameObject_1_ID1089201443</text>
<text text-anchor="middle" x="184" y="-2490.8" font-family="Times,serif" font-size="14.00">Buttons</text>
</g>
<!-- 85&#45;&gt;89 -->
<g id="edge25" class="edge">
<title>85&#45;&gt;89</title>
<path fill="none" stroke="black" d="M254.98,-2521.04C271.87,-2525.63 290,-2530.56 307.17,-2535.23"/>
<polygon fill="black" stroke="black" points="306.57,-2538.7 317.14,-2537.95 308.41,-2531.95 306.57,-2538.7"/>
</g>
<!-- 85&#45;&gt;91 -->
<g id="edge26" class="edge">
<title>85&#45;&gt;91</title>
<path fill="none" stroke="black" d="M278.15,-2502C286.67,-2502 295.25,-2502 303.64,-2502"/>
<polygon fill="black" stroke="black" points="303.76,-2505.5 313.76,-2502 303.76,-2498.5 303.76,-2505.5"/>
</g>
<!-- 98 -->
<g id="node35" class="node">
<title>98</title>
<path fill="lightpink" stroke="lightpink" d="M443,-2466C443,-2466 326,-2466 326,-2466 320,-2466 314,-2460 314,-2454 314,-2454 314,-2442 314,-2442 314,-2436 320,-2430 326,-2430 326,-2430 443,-2430 443,-2430 449,-2430 455,-2436 455,-2442 455,-2442 455,-2454 455,-2454 455,-2460 449,-2466 443,-2466"/>
<text text-anchor="middle" x="384.5" y="-2444.3" font-family="Times,serif" font-size="14.00">{&#39;fileID&#39;: 1651329296}</text>
</g>
<!-- 100 -->
<g id="node36" class="node">
<title>100</title>
<path fill="lightpink" stroke="lightpink" d="M443,-2412C443,-2412 326,-2412 326,-2412 320,-2412 314,-2406 314,-2400 314,-2400 314,-2388 314,-2388 314,-2382 320,-2376 326,-2376 326,-2376 443,-2376 443,-2376 449,-2376 455,-2382 455,-2388 455,-2388 455,-2400 455,-2400 455,-2406 449,-2412 443,-2412"/>
<text text-anchor="middle" x="384.5" y="-2390.3" font-family="Times,serif" font-size="14.00">{&#39;fileID&#39;: 1651329298}</text>
</g>
<!-- 102 -->
<g id="node37" class="node">
<title>102</title>
<path fill="lightpink" stroke="lightpink" d="M443,-2358C443,-2358 326,-2358 326,-2358 320,-2358 314,-2352 314,-2346 314,-2346 314,-2334 314,-2334 314,-2328 320,-2322 326,-2322 326,-2322 443,-2322 443,-2322 449,-2322 455,-2328 455,-2334 455,-2334 455,-2346 455,-2346 455,-2352 449,-2358 443,-2358"/>
<text text-anchor="middle" x="384.5" y="-2336.3" font-family="Times,serif" font-size="14.00">{&#39;fileID&#39;: 1651329297}</text>
</g>
<!-- 94 -->
<g id="node38" class="node">
<title>94</title>
<path fill="#b0e2ff" stroke="#b0e2ff" d="M266,-2386C266,-2386 102,-2386 102,-2386 96,-2386 90,-2380 90,-2374 90,-2374 90,-2360 90,-2360 90,-2354 96,-2348 102,-2348 102,-2348 266,-2348 266,-2348 272,-2348 278,-2354 278,-2360 278,-2360 278,-2374 278,-2374 278,-2380 272,-2386 266,-2386"/>
<text text-anchor="middle" x="184" y="-2370.8" font-family="Times,serif" font-size="14.00">GameObject_1_ID1651329295</text>
<text text-anchor="middle" x="184" y="-2355.8" font-family="Times,serif" font-size="14.00">Text</text>
</g>
<!-- 94&#45;&gt;98 -->
<g id="edge27" class="edge">
<title>94&#45;&gt;98</title>
<path fill="none" stroke="black" d="M229.66,-2386.03C254.44,-2396.5 285.86,-2409.64 314,-2421 318.16,-2422.68 322.48,-2424.4 326.82,-2426.12"/>
<polygon fill="black" stroke="black" points="325.74,-2429.46 336.33,-2429.86 328.31,-2422.94 325.74,-2429.46"/>
</g>
<!-- 94&#45;&gt;100 -->
<g id="edge28" class="edge">
<title>94&#45;&gt;100</title>
<path fill="none" stroke="black" d="M278.15,-2379.67C286.67,-2380.83 295.25,-2382 303.64,-2383.14"/>
<polygon fill="black" stroke="black" points="303.38,-2386.63 313.76,-2384.51 304.33,-2379.7 303.38,-2386.63"/>
</g>
<!-- 94&#45;&gt;102 -->
<g id="edge29" class="edge">
<title>94&#45;&gt;102</title>
<path fill="none" stroke="black" d="M278.15,-2354.33C286.67,-2353.17 295.25,-2352 303.64,-2350.86"/>
<polygon fill="black" stroke="black" points="304.33,-2354.3 313.76,-2349.49 303.38,-2347.37 304.33,-2354.3"/>
</g>
<!-- 109 -->
<g id="node39" class="node">
<title>109</title>
<path fill="lightpink" stroke="lightpink" d="M443,-2304C443,-2304 326,-2304 326,-2304 320,-2304 314,-2298 314,-2292 314,-2292 314,-2280 314,-2280 314,-2274 320,-2268 326,-2268 326,-2268 443,-2268 443,-2268 449,-2268 455,-2274 455,-2280 455,-2280 455,-2292 455,-2292 455,-2298 449,-2304 443,-2304"/>
<text text-anchor="middle" x="384.5" y="-2282.3" font-family="Times,serif" font-size="14.00">{&#39;fileID&#39;: 1040292124}</text>
</g>
<!-- 111 -->
<g id="node40" class="node">
<title>111</title>
<path fill="lightpink" stroke="lightpink" d="M443,-2250C443,-2250 326,-2250 326,-2250 320,-2250 314,-2244 314,-2238 314,-2238 314,-2226 314,-2226 314,-2220 320,-2214 326,-2214 326,-2214 443,-2214 443,-2214 449,-2214 455,-2220 455,-2226 455,-2226 455,-2238 455,-2238 455,-2244 449,-2250 443,-2250"/>
<text text-anchor="middle" x="384.5" y="-2228.3" font-family="Times,serif" font-size="14.00">{&#39;fileID&#39;: 1040292126}</text>
</g>
<!-- 113 -->
<g id="node41" class="node">
<title>113</title>
<path fill="lightpink" stroke="lightpink" d="M443,-2196C443,-2196 326,-2196 326,-2196 320,-2196 314,-2190 314,-2184 314,-2184 314,-2172 314,-2172 314,-2166 320,-2160 326,-2160 326,-2160 443,-2160 443,-2160 449,-2160 455,-2166 455,-2172 455,-2172 455,-2184 455,-2184 455,-2190 449,-2196 443,-2196"/>
<text text-anchor="middle" x="384.5" y="-2174.3" font-family="Times,serif" font-size="14.00">{&#39;fileID&#39;: 1040292125}</text>
</g>
<!-- 105 -->
<g id="node42" class="node">
<title>105</title>
<path fill="#b0e2ff" stroke="#b0e2ff" d="M266,-2224C266,-2224 102,-2224 102,-2224 96,-2224 90,-2218 90,-2212 90,-2212 90,-2198 90,-2198 90,-2192 96,-2186 102,-2186 102,-2186 266,-2186 266,-2186 272,-2186 278,-2192 278,-2198 278,-2198 278,-2212 278,-2212 278,-2218 272,-2224 266,-2224"/>
<text text-anchor="middle" x="184" y="-2208.8" font-family="Times,serif" font-size="14.00">GameObject_1_ID1040292123</text>
<text text-anchor="middle" x="184" y="-2193.8" font-family="Times,serif" font-size="14.00">Text</text>
</g>
<!-- 105&#45;&gt;109 -->
<g id="edge30" class="edge">
<title>105&#45;&gt;109</title>
<path fill="none" stroke="black" d="M229.66,-2224.03C254.44,-2234.5 285.86,-2247.64 314,-2259 318.16,-2260.68 322.48,-2262.4 326.82,-2264.12"/>
<polygon fill="black" stroke="black" points="325.74,-2267.46 336.33,-2267.86 328.31,-2260.94 325.74,-2267.46"/>
</g>
<!-- 105&#45;&gt;111 -->
<g id="edge31" class="edge">
<title>105&#45;&gt;111</title>
<path fill="none" stroke="black" d="M278.15,-2217.67C286.67,-2218.83 295.25,-2220 303.64,-2221.14"/>
<polygon fill="black" stroke="black" points="303.38,-2224.63 313.76,-2222.51 304.33,-2217.7 303.38,-2224.63"/>
</g>
<!-- 105&#45;&gt;113 -->
<g id="edge32" class="edge">
<title>105&#45;&gt;113</title>
<path fill="none" stroke="black" d="M278.15,-2192.33C286.67,-2191.17 295.25,-2190 303.64,-2188.86"/>
<polygon fill="black" stroke="black" points="304.33,-2192.3 313.76,-2187.49 303.38,-2185.37 304.33,-2192.3"/>
</g>
<!-- 120 -->
<g id="node43" class="node">
<title>120</title>
<path fill="lightpink" stroke="lightpink" d="M439.5,-2142C439.5,-2142 329.5,-2142 329.5,-2142 323.5,-2142 317.5,-2136 317.5,-2130 317.5,-2130 317.5,-2118 317.5,-2118 317.5,-2112 323.5,-2106 329.5,-2106 329.5,-2106 439.5,-2106 439.5,-2106 445.5,-2106 451.5,-2112 451.5,-2118 451.5,-2118 451.5,-2130 451.5,-2130 451.5,-2136 445.5,-2142 439.5,-2142"/>
<text text-anchor="middle" x="384.5" y="-2120.3" font-family="Times,serif" font-size="14.00">{&#39;fileID&#39;: 808250885}</text>
</g>
<!-- 122 -->
<g id="node44" class="node">
<title>122</title>
<path fill="lightpink" stroke="lightpink" d="M439.5,-2088C439.5,-2088 329.5,-2088 329.5,-2088 323.5,-2088 317.5,-2082 317.5,-2076 317.5,-2076 317.5,-2064 317.5,-2064 317.5,-2058 323.5,-2052 329.5,-2052 329.5,-2052 439.5,-2052 439.5,-2052 445.5,-2052 451.5,-2058 451.5,-2064 451.5,-2064 451.5,-2076 451.5,-2076 451.5,-2082 445.5,-2088 439.5,-2088"/>
<text text-anchor="middle" x="384.5" y="-2066.3" font-family="Times,serif" font-size="14.00">{&#39;fileID&#39;: 808250887}</text>
</g>
<!-- 124 -->
<g id="node45" class="node">
<title>124</title>
<path fill="lightpink" stroke="lightpink" d="M439.5,-2034C439.5,-2034 329.5,-2034 329.5,-2034 323.5,-2034 317.5,-2028 317.5,-2022 317.5,-2022 317.5,-2010 317.5,-2010 317.5,-2004 323.5,-1998 329.5,-1998 329.5,-1998 439.5,-1998 439.5,-1998 445.5,-1998 451.5,-2004 451.5,-2010 451.5,-2010 451.5,-2022 451.5,-2022 451.5,-2028 445.5,-2034 439.5,-2034"/>
<text text-anchor="middle" x="384.5" y="-2012.3" font-family="Times,serif" font-size="14.00">{&#39;fileID&#39;: 808250886}</text>
</g>
<!-- 116 -->
<g id="node46" class="node">
<title>116</title>
<path fill="#b0e2ff" stroke="#b0e2ff" d="M262.5,-2062C262.5,-2062 105.5,-2062 105.5,-2062 99.5,-2062 93.5,-2056 93.5,-2050 93.5,-2050 93.5,-2036 93.5,-2036 93.5,-2030 99.5,-2024 105.5,-2024 105.5,-2024 262.5,-2024 262.5,-2024 268.5,-2024 274.5,-2030 274.5,-2036 274.5,-2036 274.5,-2050 274.5,-2050 274.5,-2056 268.5,-2062 262.5,-2062"/>
<text text-anchor="middle" x="184" y="-2046.8" font-family="Times,serif" font-size="14.00">GameObject_1_ID808250884</text>
<text text-anchor="middle" x="184" y="-2031.8" font-family="Times,serif" font-size="14.00">Application</text>
</g>
<!-- 116&#45;&gt;120 -->
<g id="edge33" class="edge">
<title>116&#45;&gt;120</title>
<path fill="none" stroke="black" d="M229.66,-2062.03C254.44,-2072.5 285.86,-2085.64 314,-2097 318.16,-2098.68 322.48,-2100.4 326.82,-2102.12"/>
<polygon fill="black" stroke="black" points="325.74,-2105.46 336.33,-2105.86 328.31,-2098.94 325.74,-2105.46"/>
</g>
<!-- 116&#45;&gt;122 -->
<g id="edge34" class="edge">
<title>116&#45;&gt;122</title>
<path fill="none" stroke="black" d="M274.67,-2055.2C285.57,-2056.68 296.62,-2058.18 307.3,-2059.64"/>
<polygon fill="black" stroke="black" points="307.03,-2063.13 317.41,-2061.01 307.97,-2056.19 307.03,-2063.13"/>
</g>
<!-- 116&#45;&gt;124 -->
<g id="edge35" class="edge">
<title>116&#45;&gt;124</title>
<path fill="none" stroke="black" d="M274.67,-2030.8C285.57,-2029.32 296.62,-2027.82 307.3,-2026.36"/>
<polygon fill="black" stroke="black" points="307.97,-2029.81 317.41,-2024.99 307.03,-2022.87 307.97,-2029.81"/>
</g>
<!-- 131 -->
<g id="node47" class="node">
<title>131</title>
<path fill="lightpink" stroke="lightpink" d="M439.5,-1980C439.5,-1980 329.5,-1980 329.5,-1980 323.5,-1980 317.5,-1974 317.5,-1968 317.5,-1968 317.5,-1956 317.5,-1956 317.5,-1950 323.5,-1944 329.5,-1944 329.5,-1944 439.5,-1944 439.5,-1944 445.5,-1944 451.5,-1950 451.5,-1956 451.5,-1956 451.5,-1968 451.5,-1968 451.5,-1974 445.5,-1980 439.5,-1980"/>
<text text-anchor="middle" x="384.5" y="-1958.3" font-family="Times,serif" font-size="14.00">{&#39;fileID&#39;: 265550442}</text>
</g>
<!-- 133 -->
<g id="node48" class="node">
<title>133</title>
<path fill="lightpink" stroke="lightpink" d="M439.5,-1926C439.5,-1926 329.5,-1926 329.5,-1926 323.5,-1926 317.5,-1920 317.5,-1914 317.5,-1914 317.5,-1902 317.5,-1902 317.5,-1896 323.5,-1890 329.5,-1890 329.5,-1890 439.5,-1890 439.5,-1890 445.5,-1890 451.5,-1896 451.5,-1902 451.5,-1902 451.5,-1914 451.5,-1914 451.5,-1920 445.5,-1926 439.5,-1926"/>
<text text-anchor="middle" x="384.5" y="-1904.3" font-family="Times,serif" font-size="14.00">{&#39;fileID&#39;: 265550444}</text>
</g>
<!-- 135 -->
<g id="node49" class="node">
<title>135</title>
<path fill="lightpink" stroke="lightpink" d="M439.5,-1872C439.5,-1872 329.5,-1872 329.5,-1872 323.5,-1872 317.5,-1866 317.5,-1860 317.5,-1860 317.5,-1848 317.5,-1848 317.5,-1842 323.5,-1836 329.5,-1836 329.5,-1836 439.5,-1836 439.5,-1836 445.5,-1836 451.5,-1842 451.5,-1848 451.5,-1848 451.5,-1860 451.5,-1860 451.5,-1866 445.5,-1872 439.5,-1872"/>
<text text-anchor="middle" x="384.5" y="-1850.3" font-family="Times,serif" font-size="14.00">{&#39;fileID&#39;: 265550443}</text>
</g>
<!-- 127 -->
<g id="node50" class="node">
<title>127</title>
<path fill="#b0e2ff" stroke="#b0e2ff" d="M262.5,-1927C262.5,-1927 105.5,-1927 105.5,-1927 99.5,-1927 93.5,-1921 93.5,-1915 93.5,-1915 93.5,-1901 93.5,-1901 93.5,-1895 99.5,-1889 105.5,-1889 105.5,-1889 262.5,-1889 262.5,-1889 268.5,-1889 274.5,-1895 274.5,-1901 274.5,-1901 274.5,-1915 274.5,-1915 274.5,-1921 268.5,-1927 262.5,-1927"/>
<text text-anchor="middle" x="184" y="-1911.8" font-family="Times,serif" font-size="14.00">GameObject_1_ID265550441</text>
<text text-anchor="middle" x="184" y="-1896.8" font-family="Times,serif" font-size="14.00">Text</text>
</g>
<!-- 127&#45;&gt;131 -->
<g id="edge36" class="edge">
<title>127&#45;&gt;131</title>
<path fill="none" stroke="black" d="M254.98,-1927.04C271.97,-1931.66 290.2,-1936.62 307.45,-1941.31"/>
<polygon fill="black" stroke="black" points="306.91,-1944.79 317.47,-1944.04 308.74,-1938.04 306.91,-1944.79"/>
</g>
<!-- 127&#45;&gt;133 -->
<g id="edge37" class="edge">
<title>127&#45;&gt;133</title>
<path fill="none" stroke="black" d="M274.67,-1908C285.57,-1908 296.62,-1908 307.3,-1908"/>
<polygon fill="black" stroke="black" points="307.41,-1911.5 317.41,-1908 307.41,-1904.5 307.41,-1911.5"/>
</g>
<!-- 127&#45;&gt;135 -->
<g id="edge38" class="edge">
<title>127&#45;&gt;135</title>
<path fill="none" stroke="black" d="M254.98,-1888.96C271.97,-1884.34 290.2,-1879.38 307.45,-1874.69"/>
<polygon fill="black" stroke="black" points="308.74,-1877.96 317.47,-1871.96 306.91,-1871.21 308.74,-1877.96"/>
</g>
<!-- 142 -->
<g id="node51" class="node">
<title>142</title>
<path fill="lightpink" stroke="lightpink" d="M443,-1818C443,-1818 326,-1818 326,-1818 320,-1818 314,-1812 314,-1806 314,-1806 314,-1794 314,-1794 314,-1788 320,-1782 326,-1782 326,-1782 443,-1782 443,-1782 449,-1782 455,-1788 455,-1794 455,-1794 455,-1806 455,-1806 455,-1812 449,-1818 443,-1818"/>
<text text-anchor="middle" x="384.5" y="-1796.3" font-family="Times,serif" font-size="14.00">{&#39;fileID&#39;: 1525520956}</text>
</g>
<!-- 144 -->
<g id="node52" class="node">
<title>144</title>
<path fill="lightpink" stroke="lightpink" d="M443,-1764C443,-1764 326,-1764 326,-1764 320,-1764 314,-1758 314,-1752 314,-1752 314,-1740 314,-1740 314,-1734 320,-1728 326,-1728 326,-1728 443,-1728 443,-1728 449,-1728 455,-1734 455,-1740 455,-1740 455,-1752 455,-1752 455,-1758 449,-1764 443,-1764"/>
<text text-anchor="middle" x="384.5" y="-1742.3" font-family="Times,serif" font-size="14.00">{&#39;fileID&#39;: 1525520959}</text>
</g>
<!-- 146 -->
<g id="node53" class="node">
<title>146</title>
<path fill="lightpink" stroke="lightpink" d="M443,-1710C443,-1710 326,-1710 326,-1710 320,-1710 314,-1704 314,-1698 314,-1698 314,-1686 314,-1686 314,-1680 320,-1674 326,-1674 326,-1674 443,-1674 443,-1674 449,-1674 455,-1680 455,-1686 455,-1686 455,-1698 455,-1698 455,-1704 449,-1710 443,-1710"/>
<text text-anchor="middle" x="384.5" y="-1688.3" font-family="Times,serif" font-size="14.00">{&#39;fileID&#39;: 1525520958}</text>
</g>
<!-- 148 -->
<g id="node54" class="node">
<title>148</title>
<path fill="lightpink" stroke="lightpink" d="M443,-1656C443,-1656 326,-1656 326,-1656 320,-1656 314,-1650 314,-1644 314,-1644 314,-1632 314,-1632 314,-1626 320,-1620 326,-1620 326,-1620 443,-1620 443,-1620 449,-1620 455,-1626 455,-1632 455,-1632 455,-1644 455,-1644 455,-1650 449,-1656 443,-1656"/>
<text text-anchor="middle" x="384.5" y="-1634.3" font-family="Times,serif" font-size="14.00">{&#39;fileID&#39;: 1525520957}</text>
</g>
<!-- 138 -->
<g id="node55" class="node">
<title>138</title>
<path fill="#b0e2ff" stroke="#b0e2ff" d="M266,-1765C266,-1765 102,-1765 102,-1765 96,-1765 90,-1759 90,-1753 90,-1753 90,-1739 90,-1739 90,-1733 96,-1727 102,-1727 102,-1727 266,-1727 266,-1727 272,-1727 278,-1733 278,-1739 278,-1739 278,-1753 278,-1753 278,-1759 272,-1765 266,-1765"/>
<text text-anchor="middle" x="184" y="-1749.8" font-family="Times,serif" font-size="14.00">GameObject_1_ID1525520955</text>
<text text-anchor="middle" x="184" y="-1734.8" font-family="Times,serif" font-size="14.00">AboutButton</text>
</g>
<!-- 138&#45;&gt;142 -->
<g id="edge39" class="edge">
<title>138&#45;&gt;142</title>
<path fill="none" stroke="black" d="M254.98,-1765.04C271.87,-1769.63 290,-1774.56 307.17,-1779.23"/>
<polygon fill="black" stroke="black" points="306.57,-1782.7 317.14,-1781.95 308.41,-1775.95 306.57,-1782.7"/>
</g>
<!-- 138&#45;&gt;144 -->
<g id="edge40" class="edge">
<title>138&#45;&gt;144</title>
<path fill="none" stroke="black" d="M278.15,-1746C286.67,-1746 295.25,-1746 303.64,-1746"/>
<polygon fill="black" stroke="black" points="303.76,-1749.5 313.76,-1746 303.76,-1742.5 303.76,-1749.5"/>
</g>
<!-- 138&#45;&gt;146 -->
<g id="edge41" class="edge">
<title>138&#45;&gt;146</title>
<path fill="none" stroke="black" d="M254.98,-1726.96C271.87,-1722.37 290,-1717.44 307.17,-1712.77"/>
<polygon fill="black" stroke="black" points="308.41,-1716.05 317.14,-1710.05 306.57,-1709.3 308.41,-1716.05"/>
</g>
<!-- 138&#45;&gt;148 -->
<g id="edge42" class="edge">
<title>138&#45;&gt;148</title>
<path fill="none" stroke="black" d="M212.29,-1726.72C237.81,-1709.22 277.37,-1683.4 314,-1665 317.32,-1663.33 320.77,-1661.7 324.27,-1660.12"/>
<polygon fill="black" stroke="black" points="325.86,-1663.24 333.64,-1656.04 323.07,-1656.82 325.86,-1663.24"/>
</g>
<!-- 155 -->
<g id="node56" class="node">
<title>155</title>
<path fill="lightpink" stroke="lightpink" d="M433,-1602C433,-1602 336,-1602 336,-1602 330,-1602 324,-1596 324,-1590 324,-1590 324,-1578 324,-1578 324,-1572 330,-1566 336,-1566 336,-1566 433,-1566 433,-1566 439,-1566 445,-1572 445,-1578 445,-1578 445,-1590 445,-1590 445,-1596 439,-1602 433,-1602"/>
<text text-anchor="middle" x="384.5" y="-1580.3" font-family="Times,serif" font-size="14.00">{&#39;fileID&#39;: 5973996}</text>
</g>
<!-- 157 -->
<g id="node57" class="node">
<title>157</title>
<path fill="lightpink" stroke="lightpink" d="M433,-1548C433,-1548 336,-1548 336,-1548 330,-1548 324,-1542 324,-1536 324,-1536 324,-1524 324,-1524 324,-1518 330,-1512 336,-1512 336,-1512 433,-1512 433,-1512 439,-1512 445,-1518 445,-1524 445,-1524 445,-1536 445,-1536 445,-1542 439,-1548 433,-1548"/>
<text text-anchor="middle" x="384.5" y="-1526.3" font-family="Times,serif" font-size="14.00">{&#39;fileID&#39;: 5973997}</text>
</g>
<!-- 151 -->
<g id="node58" class="node">
<title>151</title>
<path fill="#b0e2ff" stroke="#b0e2ff" d="M255.5,-1603C255.5,-1603 112.5,-1603 112.5,-1603 106.5,-1603 100.5,-1597 100.5,-1591 100.5,-1591 100.5,-1577 100.5,-1577 100.5,-1571 106.5,-1565 112.5,-1565 112.5,-1565 255.5,-1565 255.5,-1565 261.5,-1565 267.5,-1571 267.5,-1577 267.5,-1577 267.5,-1591 267.5,-1591 267.5,-1597 261.5,-1603 255.5,-1603"/>
<text text-anchor="middle" x="184" y="-1587.8" font-family="Times,serif" font-size="14.00">GameObject_1_ID5973995</text>
<text text-anchor="middle" x="184" y="-1572.8" font-family="Times,serif" font-size="14.00">GameObject</text>
</g>
<!-- 151&#45;&gt;155 -->
<g id="edge43" class="edge">
<title>151&#45;&gt;155</title>
<path fill="none" stroke="black" d="M267.74,-1584C283.04,-1584 298.88,-1584 313.75,-1584"/>
<polygon fill="black" stroke="black" points="313.86,-1587.5 323.86,-1584 313.86,-1580.5 313.86,-1587.5"/>
</g>
<!-- 151&#45;&gt;157 -->
<g id="edge44" class="edge">
<title>151&#45;&gt;157</title>
<path fill="none" stroke="black" d="M254.98,-1564.96C274.09,-1559.76 294.78,-1554.13 313.87,-1548.94"/>
<polygon fill="black" stroke="black" points="314.96,-1552.27 323.69,-1546.27 313.12,-1545.52 314.96,-1552.27"/>
</g>
<!-- 164 -->
<g id="node59" class="node">
<title>164</title>
<path fill="lightpink" stroke="lightpink" d="M443,-1494C443,-1494 326,-1494 326,-1494 320,-1494 314,-1488 314,-1482 314,-1482 314,-1470 314,-1470 314,-1464 320,-1458 326,-1458 326,-1458 443,-1458 443,-1458 449,-1458 455,-1464 455,-1470 455,-1470 455,-1482 455,-1482 455,-1488 449,-1494 443,-1494"/>
<text text-anchor="middle" x="384.5" y="-1472.3" font-family="Times,serif" font-size="14.00">{&#39;fileID&#39;: 1047482109}</text>
</g>
<!-- 166 -->
<g id="node60" class="node">
<title>166</title>
<path fill="lightpink" stroke="lightpink" d="M443,-1440C443,-1440 326,-1440 326,-1440 320,-1440 314,-1434 314,-1428 314,-1428 314,-1416 314,-1416 314,-1410 320,-1404 326,-1404 326,-1404 443,-1404 443,-1404 449,-1404 455,-1410 455,-1416 455,-1416 455,-1428 455,-1428 455,-1434 449,-1440 443,-1440"/>
<text text-anchor="middle" x="384.5" y="-1418.3" font-family="Times,serif" font-size="14.00">{&#39;fileID&#39;: 1047482108}</text>
</g>
<!-- 168 -->
<g id="node61" class="node">
<title>168</title>
<path fill="lightpink" stroke="lightpink" d="M443,-1386C443,-1386 326,-1386 326,-1386 320,-1386 314,-1380 314,-1374 314,-1374 314,-1362 314,-1362 314,-1356 320,-1350 326,-1350 326,-1350 443,-1350 443,-1350 449,-1350 455,-1356 455,-1362 455,-1362 455,-1374 455,-1374 455,-1380 449,-1386 443,-1386"/>
<text text-anchor="middle" x="384.5" y="-1364.3" font-family="Times,serif" font-size="14.00">{&#39;fileID&#39;: 1047482107}</text>
</g>
<!-- 160 -->
<g id="node62" class="node">
<title>160</title>
<path fill="#b0e2ff" stroke="#b0e2ff" d="M266,-1468C266,-1468 102,-1468 102,-1468 96,-1468 90,-1462 90,-1456 90,-1456 90,-1442 90,-1442 90,-1436 96,-1430 102,-1430 102,-1430 266,-1430 266,-1430 272,-1430 278,-1436 278,-1442 278,-1442 278,-1456 278,-1456 278,-1462 272,-1468 266,-1468"/>
<text text-anchor="middle" x="184" y="-1452.8" font-family="Times,serif" font-size="14.00">GameObject_1_ID1047482106</text>
<text text-anchor="middle" x="184" y="-1437.8" font-family="Times,serif" font-size="14.00">Main Camera</text>
</g>
<!-- 160&#45;&gt;164 -->
<g id="edge45" class="edge">
<title>160&#45;&gt;164</title>
<path fill="none" stroke="black" d="M278.15,-1461.67C286.67,-1462.83 295.25,-1464 303.64,-1465.14"/>
<polygon fill="black" stroke="black" points="303.38,-1468.63 313.76,-1466.51 304.33,-1461.7 303.38,-1468.63"/>
</g>
<!-- 160&#45;&gt;166 -->
<g id="edge46" class="edge">
<title>160&#45;&gt;166</title>
<path fill="none" stroke="black" d="M278.15,-1436.33C286.67,-1435.17 295.25,-1434 303.64,-1432.86"/>
<polygon fill="black" stroke="black" points="304.33,-1436.3 313.76,-1431.49 303.38,-1429.37 304.33,-1436.3"/>
</g>
<!-- 160&#45;&gt;168 -->
<g id="edge47" class="edge">
<title>160&#45;&gt;168</title>
<path fill="none" stroke="black" d="M229.66,-1429.97C254.44,-1419.5 285.86,-1406.36 314,-1395 318.16,-1393.32 322.48,-1391.6 326.82,-1389.88"/>
<polygon fill="black" stroke="black" points="328.31,-1393.06 336.33,-1386.14 325.74,-1386.54 328.31,-1393.06"/>
</g>
<!-- 175 -->
<g id="node63" class="node">
<title>175</title>
<path fill="lightpink" stroke="lightpink" d="M443,-1332C443,-1332 326,-1332 326,-1332 320,-1332 314,-1326 314,-1320 314,-1320 314,-1308 314,-1308 314,-1302 320,-1296 326,-1296 326,-1296 443,-1296 443,-1296 449,-1296 455,-1302 455,-1308 455,-1308 455,-1320 455,-1320 455,-1326 449,-1332 443,-1332"/>
<text text-anchor="middle" x="384.5" y="-1310.3" font-family="Times,serif" font-size="14.00">{&#39;fileID&#39;: 1908155156}</text>
</g>
<!-- 177 -->
<g id="node64" class="node">
<title>177</title>
<path fill="lightpink" stroke="lightpink" d="M443,-1278C443,-1278 326,-1278 326,-1278 320,-1278 314,-1272 314,-1266 314,-1266 314,-1254 314,-1254 314,-1248 320,-1242 326,-1242 326,-1242 443,-1242 443,-1242 449,-1242 455,-1248 455,-1254 455,-1254 455,-1266 455,-1266 455,-1272 449,-1278 443,-1278"/>
<text text-anchor="middle" x="384.5" y="-1256.3" font-family="Times,serif" font-size="14.00">{&#39;fileID&#39;: 1908155158}</text>
</g>
<!-- 179 -->
<g id="node65" class="node">
<title>179</title>
<path fill="lightpink" stroke="lightpink" d="M443,-1224C443,-1224 326,-1224 326,-1224 320,-1224 314,-1218 314,-1212 314,-1212 314,-1200 314,-1200 314,-1194 320,-1188 326,-1188 326,-1188 443,-1188 443,-1188 449,-1188 455,-1194 455,-1200 455,-1200 455,-1212 455,-1212 455,-1218 449,-1224 443,-1224"/>
<text text-anchor="middle" x="384.5" y="-1202.3" font-family="Times,serif" font-size="14.00">{&#39;fileID&#39;: 1908155157}</text>
</g>
<!-- 171 -->
<g id="node66" class="node">
<title>171</title>
<path fill="#b0e2ff" stroke="#b0e2ff" d="M266,-1306C266,-1306 102,-1306 102,-1306 96,-1306 90,-1300 90,-1294 90,-1294 90,-1280 90,-1280 90,-1274 96,-1268 102,-1268 102,-1268 266,-1268 266,-1268 272,-1268 278,-1274 278,-1280 278,-1280 278,-1294 278,-1294 278,-1300 272,-1306 266,-1306"/>
<text text-anchor="middle" x="184" y="-1290.8" font-family="Times,serif" font-size="14.00">GameObject_1_ID1908155155</text>
<text text-anchor="middle" x="184" y="-1275.8" font-family="Times,serif" font-size="14.00">Header</text>
</g>
<!-- 171&#45;&gt;175 -->
<g id="edge48" class="edge">
<title>171&#45;&gt;175</title>
<path fill="none" stroke="black" d="M278.15,-1299.67C286.67,-1300.83 295.25,-1302 303.64,-1303.14"/>
<polygon fill="black" stroke="black" points="303.38,-1306.63 313.76,-1304.51 304.33,-1299.7 303.38,-1306.63"/>
</g>
<!-- 171&#45;&gt;177 -->
<g id="edge49" class="edge">
<title>171&#45;&gt;177</title>
<path fill="none" stroke="black" d="M278.15,-1274.33C286.67,-1273.17 295.25,-1272 303.64,-1270.86"/>
<polygon fill="black" stroke="black" points="304.33,-1274.3 313.76,-1269.49 303.38,-1267.37 304.33,-1274.3"/>
</g>
<!-- 171&#45;&gt;179 -->
<g id="edge50" class="edge">
<title>171&#45;&gt;179</title>
<path fill="none" stroke="black" d="M229.66,-1267.97C254.44,-1257.5 285.86,-1244.36 314,-1233 318.16,-1231.32 322.48,-1229.6 326.82,-1227.88"/>
<polygon fill="black" stroke="black" points="328.31,-1231.06 336.33,-1224.14 325.74,-1224.54 328.31,-1231.06"/>
</g>
<!-- 186 -->
<g id="node67" class="node">
<title>186</title>
<path fill="lightpink" stroke="lightpink" d="M439.5,-1170C439.5,-1170 329.5,-1170 329.5,-1170 323.5,-1170 317.5,-1164 317.5,-1158 317.5,-1158 317.5,-1146 317.5,-1146 317.5,-1140 323.5,-1134 329.5,-1134 329.5,-1134 439.5,-1134 439.5,-1134 445.5,-1134 451.5,-1140 451.5,-1146 451.5,-1146 451.5,-1158 451.5,-1158 451.5,-1164 445.5,-1170 439.5,-1170"/>
<text text-anchor="middle" x="384.5" y="-1148.3" font-family="Times,serif" font-size="14.00">{&#39;fileID&#39;: 628076940}</text>
</g>
<!-- 188 -->
<g id="node68" class="node">
<title>188</title>
<path fill="lightpink" stroke="lightpink" d="M439.5,-1116C439.5,-1116 329.5,-1116 329.5,-1116 323.5,-1116 317.5,-1110 317.5,-1104 317.5,-1104 317.5,-1092 317.5,-1092 317.5,-1086 323.5,-1080 329.5,-1080 329.5,-1080 439.5,-1080 439.5,-1080 445.5,-1080 451.5,-1086 451.5,-1092 451.5,-1092 451.5,-1104 451.5,-1104 451.5,-1110 445.5,-1116 439.5,-1116"/>
<text text-anchor="middle" x="384.5" y="-1094.3" font-family="Times,serif" font-size="14.00">{&#39;fileID&#39;: 628076942}</text>
</g>
<!-- 190 -->
<g id="node69" class="node">
<title>190</title>
<path fill="lightpink" stroke="lightpink" d="M439.5,-1062C439.5,-1062 329.5,-1062 329.5,-1062 323.5,-1062 317.5,-1056 317.5,-1050 317.5,-1050 317.5,-1038 317.5,-1038 317.5,-1032 323.5,-1026 329.5,-1026 329.5,-1026 439.5,-1026 439.5,-1026 445.5,-1026 451.5,-1032 451.5,-1038 451.5,-1038 451.5,-1050 451.5,-1050 451.5,-1056 445.5,-1062 439.5,-1062"/>
<text text-anchor="middle" x="384.5" y="-1040.3" font-family="Times,serif" font-size="14.00">{&#39;fileID&#39;: 628076941}</text>
</g>
<!-- 182 -->
<g id="node70" class="node">
<title>182</title>
<path fill="#b0e2ff" stroke="#b0e2ff" d="M262.5,-1144C262.5,-1144 105.5,-1144 105.5,-1144 99.5,-1144 93.5,-1138 93.5,-1132 93.5,-1132 93.5,-1118 93.5,-1118 93.5,-1112 99.5,-1106 105.5,-1106 105.5,-1106 262.5,-1106 262.5,-1106 268.5,-1106 274.5,-1112 274.5,-1118 274.5,-1118 274.5,-1132 274.5,-1132 274.5,-1138 268.5,-1144 262.5,-1144"/>
<text text-anchor="middle" x="184" y="-1128.8" font-family="Times,serif" font-size="14.00">GameObject_1_ID628076939</text>
<text text-anchor="middle" x="184" y="-1113.8" font-family="Times,serif" font-size="14.00">Copyright</text>
</g>
<!-- 182&#45;&gt;186 -->
<g id="edge51" class="edge">
<title>182&#45;&gt;186</title>
<path fill="none" stroke="black" d="M274.67,-1137.2C285.57,-1138.68 296.62,-1140.18 307.3,-1141.64"/>
<polygon fill="black" stroke="black" points="307.03,-1145.13 317.41,-1143.01 307.97,-1138.19 307.03,-1145.13"/>
</g>
<!-- 182&#45;&gt;188 -->
<g id="edge52" class="edge">
<title>182&#45;&gt;188</title>
<path fill="none" stroke="black" d="M274.67,-1112.8C285.57,-1111.32 296.62,-1109.82 307.3,-1108.36"/>
<polygon fill="black" stroke="black" points="307.97,-1111.81 317.41,-1106.99 307.03,-1104.87 307.97,-1111.81"/>
</g>
<!-- 182&#45;&gt;190 -->
<g id="edge53" class="edge">
<title>182&#45;&gt;190</title>
<path fill="none" stroke="black" d="M229.66,-1105.97C254.44,-1095.5 285.86,-1082.36 314,-1071 318.16,-1069.32 322.48,-1067.6 326.82,-1065.88"/>
<polygon fill="black" stroke="black" points="328.31,-1069.06 336.33,-1062.14 325.74,-1062.54 328.31,-1069.06"/>
</g>
<!-- 197 -->
<g id="node71" class="node">
<title>197</title>
<path fill="lightpink" stroke="lightpink" d="M439.5,-1008C439.5,-1008 329.5,-1008 329.5,-1008 323.5,-1008 317.5,-1002 317.5,-996 317.5,-996 317.5,-984 317.5,-984 317.5,-978 323.5,-972 329.5,-972 329.5,-972 439.5,-972 439.5,-972 445.5,-972 451.5,-978 451.5,-984 451.5,-984 451.5,-996 451.5,-996 451.5,-1002 445.5,-1008 439.5,-1008"/>
<text text-anchor="middle" x="384.5" y="-986.3" font-family="Times,serif" font-size="14.00">{&#39;fileID&#39;: 138731493}</text>
</g>
<!-- 199 -->
<g id="node72" class="node">
<title>199</title>
<path fill="lightpink" stroke="lightpink" d="M439.5,-954C439.5,-954 329.5,-954 329.5,-954 323.5,-954 317.5,-948 317.5,-942 317.5,-942 317.5,-930 317.5,-930 317.5,-924 323.5,-918 329.5,-918 329.5,-918 439.5,-918 439.5,-918 445.5,-918 451.5,-924 451.5,-930 451.5,-930 451.5,-942 451.5,-942 451.5,-948 445.5,-954 439.5,-954"/>
<text text-anchor="middle" x="384.5" y="-932.3" font-family="Times,serif" font-size="14.00">{&#39;fileID&#39;: 138731494}</text>
</g>
<!-- 193 -->
<g id="node73" class="node">
<title>193</title>
<path fill="#b0e2ff" stroke="#b0e2ff" d="M262.5,-1009C262.5,-1009 105.5,-1009 105.5,-1009 99.5,-1009 93.5,-1003 93.5,-997 93.5,-997 93.5,-983 93.5,-983 93.5,-977 99.5,-971 105.5,-971 105.5,-971 262.5,-971 262.5,-971 268.5,-971 274.5,-977 274.5,-983 274.5,-983 274.5,-997 274.5,-997 274.5,-1003 268.5,-1009 262.5,-1009"/>
<text text-anchor="middle" x="184" y="-993.8" font-family="Times,serif" font-size="14.00">GameObject_1_ID138731492</text>
<text text-anchor="middle" x="184" y="-978.8" font-family="Times,serif" font-size="14.00">Text</text>
</g>
<!-- 193&#45;&gt;197 -->
<g id="edge54" class="edge">
<title>193&#45;&gt;197</title>
<path fill="none" stroke="black" d="M274.67,-990C285.57,-990 296.62,-990 307.3,-990"/>
<polygon fill="black" stroke="black" points="307.41,-993.5 317.41,-990 307.41,-986.5 307.41,-993.5"/>
</g>
<!-- 193&#45;&gt;199 -->
<g id="edge55" class="edge">
<title>193&#45;&gt;199</title>
<path fill="none" stroke="black" d="M254.98,-970.96C271.97,-966.34 290.2,-961.38 307.45,-956.69"/>
<polygon fill="black" stroke="black" points="308.74,-959.96 317.47,-953.96 306.91,-953.21 308.74,-959.96"/>
</g>
<!-- 206 -->
<g id="node74" class="node">
<title>206</title>
<path fill="lightpink" stroke="lightpink" d="M443,-900C443,-900 326,-900 326,-900 320,-900 314,-894 314,-888 314,-888 314,-876 314,-876 314,-870 320,-864 326,-864 326,-864 443,-864 443,-864 449,-864 455,-870 455,-876 455,-876 455,-888 455,-888 455,-894 449,-900 443,-900"/>
<text text-anchor="middle" x="384.5" y="-878.3" font-family="Times,serif" font-size="14.00">{&#39;fileID&#39;: 1093729420}</text>
</g>
<!-- 208 -->
<g id="node75" class="node">
<title>208</title>
<path fill="lightpink" stroke="lightpink" d="M443,-846C443,-846 326,-846 326,-846 320,-846 314,-840 314,-834 314,-834 314,-822 314,-822 314,-816 320,-810 326,-810 326,-810 443,-810 443,-810 449,-810 455,-816 455,-822 455,-822 455,-834 455,-834 455,-840 449,-846 443,-846"/>
<text text-anchor="middle" x="384.5" y="-824.3" font-family="Times,serif" font-size="14.00">{&#39;fileID&#39;: 1093729422}</text>
</g>
<!-- 210 -->
<g id="node76" class="node">
<title>210</title>
<path fill="lightpink" stroke="lightpink" d="M443,-792C443,-792 326,-792 326,-792 320,-792 314,-786 314,-780 314,-780 314,-768 314,-768 314,-762 320,-756 326,-756 326,-756 443,-756 443,-756 449,-756 455,-762 455,-768 455,-768 455,-780 455,-780 455,-786 449,-792 443,-792"/>
<text text-anchor="middle" x="384.5" y="-770.3" font-family="Times,serif" font-size="14.00">{&#39;fileID&#39;: 1093729421}</text>
</g>
<!-- 202 -->
<g id="node77" class="node">
<title>202</title>
<path fill="#b0e2ff" stroke="#b0e2ff" d="M266,-874C266,-874 102,-874 102,-874 96,-874 90,-868 90,-862 90,-862 90,-848 90,-848 90,-842 96,-836 102,-836 102,-836 266,-836 266,-836 272,-836 278,-842 278,-848 278,-848 278,-862 278,-862 278,-868 272,-874 266,-874"/>
<text text-anchor="middle" x="184" y="-858.8" font-family="Times,serif" font-size="14.00">GameObject_1_ID1093729419</text>
<text text-anchor="middle" x="184" y="-843.8" font-family="Times,serif" font-size="14.00">Text</text>
</g>
<!-- 202&#45;&gt;206 -->
<g id="edge56" class="edge">
<title>202&#45;&gt;206</title>
<path fill="none" stroke="black" d="M278.15,-867.67C286.67,-868.83 295.25,-870 303.64,-871.14"/>
<polygon fill="black" stroke="black" points="303.38,-874.63 313.76,-872.51 304.33,-867.7 303.38,-874.63"/>
</g>
<!-- 202&#45;&gt;208 -->
<g id="edge57" class="edge">
<title>202&#45;&gt;208</title>
<path fill="none" stroke="black" d="M278.15,-842.33C286.67,-841.17 295.25,-840 303.64,-838.86"/>
<polygon fill="black" stroke="black" points="304.33,-842.3 313.76,-837.49 303.38,-835.37 304.33,-842.3"/>
</g>
<!-- 202&#45;&gt;210 -->
<g id="edge58" class="edge">
<title>202&#45;&gt;210</title>
<path fill="none" stroke="black" d="M229.66,-835.97C254.44,-825.5 285.86,-812.36 314,-801 318.16,-799.32 322.48,-797.6 326.82,-795.88"/>
<polygon fill="black" stroke="black" points="328.31,-799.06 336.33,-792.14 325.74,-792.54 328.31,-799.06"/>
</g>
<!-- 217 -->
<g id="node78" class="node">
<title>217</title>
<path fill="lightpink" stroke="lightpink" d="M439.5,-738C439.5,-738 329.5,-738 329.5,-738 323.5,-738 317.5,-732 317.5,-726 317.5,-726 317.5,-714 317.5,-714 317.5,-708 323.5,-702 329.5,-702 329.5,-702 439.5,-702 439.5,-702 445.5,-702 451.5,-708 451.5,-714 451.5,-714 451.5,-726 451.5,-726 451.5,-732 445.5,-738 439.5,-738"/>
<text text-anchor="middle" x="384.5" y="-716.3" font-family="Times,serif" font-size="14.00">{&#39;fileID&#39;: 361157716}</text>
</g>
<!-- 219 -->
<g id="node79" class="node">
<title>219</title>
<path fill="lightpink" stroke="lightpink" d="M439.5,-684C439.5,-684 329.5,-684 329.5,-684 323.5,-684 317.5,-678 317.5,-672 317.5,-672 317.5,-660 317.5,-660 317.5,-654 323.5,-648 329.5,-648 329.5,-648 439.5,-648 439.5,-648 445.5,-648 451.5,-654 451.5,-660 451.5,-660 451.5,-672 451.5,-672 451.5,-678 445.5,-684 439.5,-684"/>
<text text-anchor="middle" x="384.5" y="-662.3" font-family="Times,serif" font-size="14.00">{&#39;fileID&#39;: 361157715}</text>
</g>
<!-- 221 -->
<g id="node80" class="node">
<title>221</title>
<path fill="lightpink" stroke="lightpink" d="M439.5,-630C439.5,-630 329.5,-630 329.5,-630 323.5,-630 317.5,-624 317.5,-618 317.5,-618 317.5,-606 317.5,-606 317.5,-600 323.5,-594 329.5,-594 329.5,-594 439.5,-594 439.5,-594 445.5,-594 451.5,-600 451.5,-606 451.5,-606 451.5,-618 451.5,-618 451.5,-624 445.5,-630 439.5,-630"/>
<text text-anchor="middle" x="384.5" y="-608.3" font-family="Times,serif" font-size="14.00">{&#39;fileID&#39;: 361157714}</text>
</g>
<!-- 213 -->
<g id="node81" class="node">
<title>213</title>
<path fill="#b0e2ff" stroke="#b0e2ff" d="M262.5,-712C262.5,-712 105.5,-712 105.5,-712 99.5,-712 93.5,-706 93.5,-700 93.5,-700 93.5,-686 93.5,-686 93.5,-680 99.5,-674 105.5,-674 105.5,-674 262.5,-674 262.5,-674 268.5,-674 274.5,-680 274.5,-686 274.5,-686 274.5,-700 274.5,-700 274.5,-706 268.5,-712 262.5,-712"/>
<text text-anchor="middle" x="184" y="-696.8" font-family="Times,serif" font-size="14.00">GameObject_1_ID361157713</text>
<text text-anchor="middle" x="184" y="-681.8" font-family="Times,serif" font-size="14.00">EventSystem</text>
</g>
<!-- 213&#45;&gt;217 -->
<g id="edge59" class="edge">
<title>213&#45;&gt;217</title>
<path fill="none" stroke="black" d="M274.67,-705.2C285.57,-706.68 296.62,-708.18 307.3,-709.64"/>
<polygon fill="black" stroke="black" points="307.03,-713.13 317.41,-711.01 307.97,-706.19 307.03,-713.13"/>
</g>
<!-- 213&#45;&gt;219 -->
<g id="edge60" class="edge">
<title>213&#45;&gt;219</title>
<path fill="none" stroke="black" d="M274.67,-680.8C285.57,-679.32 296.62,-677.82 307.3,-676.36"/>
<polygon fill="black" stroke="black" points="307.97,-679.81 317.41,-674.99 307.03,-672.87 307.97,-679.81"/>
</g>
<!-- 213&#45;&gt;221 -->
<g id="edge61" class="edge">
<title>213&#45;&gt;221</title>
<path fill="none" stroke="black" d="M229.66,-673.97C254.44,-663.5 285.86,-650.36 314,-639 318.16,-637.32 322.48,-635.6 326.82,-633.88"/>
<polygon fill="black" stroke="black" points="328.31,-637.06 336.33,-630.14 325.74,-630.54 328.31,-637.06"/>
</g>
<!-- 228 -->
<g id="node82" class="node">
<title>228</title>
<path fill="lightpink" stroke="lightpink" d="M439.5,-576C439.5,-576 329.5,-576 329.5,-576 323.5,-576 317.5,-570 317.5,-564 317.5,-564 317.5,-552 317.5,-552 317.5,-546 323.5,-540 329.5,-540 329.5,-540 439.5,-540 439.5,-540 445.5,-540 451.5,-546 451.5,-552 451.5,-552 451.5,-564 451.5,-564 451.5,-570 445.5,-576 439.5,-576"/>
<text text-anchor="middle" x="384.5" y="-554.3" font-family="Times,serif" font-size="14.00">{&#39;fileID&#39;: 301893719}</text>
</g>
<!-- 230 -->
<g id="node83" class="node">
<title>230</title>
<path fill="lightpink" stroke="lightpink" d="M439.5,-522C439.5,-522 329.5,-522 329.5,-522 323.5,-522 317.5,-516 317.5,-510 317.5,-510 317.5,-498 317.5,-498 317.5,-492 323.5,-486 329.5,-486 329.5,-486 439.5,-486 439.5,-486 445.5,-486 451.5,-492 451.5,-498 451.5,-498 451.5,-510 451.5,-510 451.5,-516 445.5,-522 439.5,-522"/>
<text text-anchor="middle" x="384.5" y="-500.3" font-family="Times,serif" font-size="14.00">{&#39;fileID&#39;: 301893721}</text>
</g>
<!-- 232 -->
<g id="node84" class="node">
<title>232</title>
<path fill="lightpink" stroke="lightpink" d="M439.5,-468C439.5,-468 329.5,-468 329.5,-468 323.5,-468 317.5,-462 317.5,-456 317.5,-456 317.5,-444 317.5,-444 317.5,-438 323.5,-432 329.5,-432 329.5,-432 439.5,-432 439.5,-432 445.5,-432 451.5,-438 451.5,-444 451.5,-444 451.5,-456 451.5,-456 451.5,-462 445.5,-468 439.5,-468"/>
<text text-anchor="middle" x="384.5" y="-446.3" font-family="Times,serif" font-size="14.00">{&#39;fileID&#39;: 301893720}</text>
</g>
<!-- 224 -->
<g id="node85" class="node">
<title>224</title>
<path fill="#b0e2ff" stroke="#b0e2ff" d="M262.5,-550C262.5,-550 105.5,-550 105.5,-550 99.5,-550 93.5,-544 93.5,-538 93.5,-538 93.5,-524 93.5,-524 93.5,-518 99.5,-512 105.5,-512 105.5,-512 262.5,-512 262.5,-512 268.5,-512 274.5,-518 274.5,-524 274.5,-524 274.5,-538 274.5,-538 274.5,-544 268.5,-550 262.5,-550"/>
<text text-anchor="middle" x="184" y="-534.8" font-family="Times,serif" font-size="14.00">GameObject_1_ID301893718</text>
<text text-anchor="middle" x="184" y="-519.8" font-family="Times,serif" font-size="14.00">About</text>
</g>
<!-- 224&#45;&gt;228 -->
<g id="edge62" class="edge">
<title>224&#45;&gt;228</title>
<path fill="none" stroke="black" d="M274.67,-543.2C285.57,-544.68 296.62,-546.18 307.3,-547.64"/>
<polygon fill="black" stroke="black" points="307.03,-551.13 317.41,-549.01 307.97,-544.19 307.03,-551.13"/>
</g>
<!-- 224&#45;&gt;230 -->
<g id="edge63" class="edge">
<title>224&#45;&gt;230</title>
<path fill="none" stroke="black" d="M274.67,-518.8C285.57,-517.32 296.62,-515.82 307.3,-514.36"/>
<polygon fill="black" stroke="black" points="307.97,-517.81 317.41,-512.99 307.03,-510.87 307.97,-517.81"/>
</g>
<!-- 224&#45;&gt;232 -->
<g id="edge64" class="edge">
<title>224&#45;&gt;232</title>
<path fill="none" stroke="black" d="M229.66,-511.97C254.44,-501.5 285.86,-488.36 314,-477 318.16,-475.32 322.48,-473.6 326.82,-471.88"/>
<polygon fill="black" stroke="black" points="328.31,-475.06 336.33,-468.14 325.74,-468.54 328.31,-475.06"/>
</g>
<!-- 239 -->
<g id="node86" class="node">
<title>239</title>
<path fill="lightpink" stroke="lightpink" d="M439.5,-414C439.5,-414 329.5,-414 329.5,-414 323.5,-414 317.5,-408 317.5,-402 317.5,-402 317.5,-390 317.5,-390 317.5,-384 323.5,-378 329.5,-378 329.5,-378 439.5,-378 439.5,-378 445.5,-378 451.5,-384 451.5,-390 451.5,-390 451.5,-402 451.5,-402 451.5,-408 445.5,-414 439.5,-414"/>
<text text-anchor="middle" x="384.5" y="-392.3" font-family="Times,serif" font-size="14.00">{&#39;fileID&#39;: 530533594}</text>
</g>
<!-- 241 -->
<g id="node87" class="node">
<title>241</title>
<path fill="lightpink" stroke="lightpink" d="M439.5,-360C439.5,-360 329.5,-360 329.5,-360 323.5,-360 317.5,-354 317.5,-348 317.5,-348 317.5,-336 317.5,-336 317.5,-330 323.5,-324 329.5,-324 329.5,-324 439.5,-324 439.5,-324 445.5,-324 451.5,-330 451.5,-336 451.5,-336 451.5,-348 451.5,-348 451.5,-354 445.5,-360 439.5,-360"/>
<text text-anchor="middle" x="384.5" y="-338.3" font-family="Times,serif" font-size="14.00">{&#39;fileID&#39;: 530533597}</text>
</g>
<!-- 243 -->
<g id="node88" class="node">
<title>243</title>
<path fill="lightpink" stroke="lightpink" d="M439.5,-306C439.5,-306 329.5,-306 329.5,-306 323.5,-306 317.5,-300 317.5,-294 317.5,-294 317.5,-282 317.5,-282 317.5,-276 323.5,-270 329.5,-270 329.5,-270 439.5,-270 439.5,-270 445.5,-270 451.5,-276 451.5,-282 451.5,-282 451.5,-294 451.5,-294 451.5,-300 445.5,-306 439.5,-306"/>
<text text-anchor="middle" x="384.5" y="-284.3" font-family="Times,serif" font-size="14.00">{&#39;fileID&#39;: 530533596}</text>
</g>
<!-- 245 -->
<g id="node89" class="node">
<title>245</title>
<path fill="lightpink" stroke="lightpink" d="M439.5,-252C439.5,-252 329.5,-252 329.5,-252 323.5,-252 317.5,-246 317.5,-240 317.5,-240 317.5,-228 317.5,-228 317.5,-222 323.5,-216 329.5,-216 329.5,-216 439.5,-216 439.5,-216 445.5,-216 451.5,-222 451.5,-228 451.5,-228 451.5,-240 451.5,-240 451.5,-246 445.5,-252 439.5,-252"/>
<text text-anchor="middle" x="384.5" y="-230.3" font-family="Times,serif" font-size="14.00">{&#39;fileID&#39;: 530533595}</text>
</g>
<!-- 235 -->
<g id="node90" class="node">
<title>235</title>
<path fill="#b0e2ff" stroke="#b0e2ff" d="M262.5,-361C262.5,-361 105.5,-361 105.5,-361 99.5,-361 93.5,-355 93.5,-349 93.5,-349 93.5,-335 93.5,-335 93.5,-329 99.5,-323 105.5,-323 105.5,-323 262.5,-323 262.5,-323 268.5,-323 274.5,-329 274.5,-335 274.5,-335 274.5,-349 274.5,-349 274.5,-355 268.5,-361 262.5,-361"/>
<text text-anchor="middle" x="184" y="-345.8" font-family="Times,serif" font-size="14.00">GameObject_1_ID530533593</text>
<text text-anchor="middle" x="184" y="-330.8" font-family="Times,serif" font-size="14.00">CloseButton</text>
</g>
<!-- 235&#45;&gt;239 -->
<g id="edge65" class="edge">
<title>235&#45;&gt;239</title>
<path fill="none" stroke="black" d="M254.98,-361.04C271.97,-365.66 290.2,-370.62 307.45,-375.31"/>
<polygon fill="black" stroke="black" points="306.91,-378.79 317.47,-378.04 308.74,-372.04 306.91,-378.79"/>
</g>
<!-- 235&#45;&gt;241 -->
<g id="edge66" class="edge">
<title>235&#45;&gt;241</title>
<path fill="none" stroke="black" d="M274.67,-342C285.57,-342 296.62,-342 307.3,-342"/>
<polygon fill="black" stroke="black" points="307.41,-345.5 317.41,-342 307.41,-338.5 307.41,-345.5"/>
</g>
<!-- 235&#45;&gt;243 -->
<g id="edge67" class="edge">
<title>235&#45;&gt;243</title>
<path fill="none" stroke="black" d="M254.98,-322.96C271.97,-318.34 290.2,-313.38 307.45,-308.69"/>
<polygon fill="black" stroke="black" points="308.74,-311.96 317.47,-305.96 306.91,-305.21 308.74,-311.96"/>
</g>
<!-- 235&#45;&gt;245 -->
<g id="edge68" class="edge">
<title>235&#45;&gt;245</title>
<path fill="none" stroke="black" d="M212.29,-322.72C237.81,-305.22 277.37,-279.4 314,-261 317.32,-259.33 320.77,-257.7 324.27,-256.12"/>
<polygon fill="black" stroke="black" points="325.86,-259.24 333.64,-252.04 323.07,-252.82 325.86,-259.24"/>
</g>
<!-- 252 -->
<g id="node91" class="node">
<title>252</title>
<path fill="lightpink" stroke="lightpink" d="M443,-198C443,-198 326,-198 326,-198 320,-198 314,-192 314,-186 314,-186 314,-174 314,-174 314,-168 320,-162 326,-162 326,-162 443,-162 443,-162 449,-162 455,-168 455,-174 455,-174 455,-186 455,-186 455,-192 449,-198 443,-198"/>
<text text-anchor="middle" x="384.5" y="-176.3" font-family="Times,serif" font-size="14.00">{&#39;fileID&#39;: 2009980927}</text>
</g>
<!-- 254 -->
<g id="node92" class="node">
<title>254</title>
<path fill="lightpink" stroke="lightpink" d="M443,-144C443,-144 326,-144 326,-144 320,-144 314,-138 314,-132 314,-132 314,-120 314,-120 314,-114 320,-108 326,-108 326,-108 443,-108 443,-108 449,-108 455,-114 455,-120 455,-120 455,-132 455,-132 455,-138 449,-144 443,-144"/>
<text text-anchor="middle" x="384.5" y="-122.3" font-family="Times,serif" font-size="14.00">{&#39;fileID&#39;: 2009980926}</text>
</g>
<!-- 256 -->
<g id="node93" class="node">
<title>256</title>
<path fill="lightpink" stroke="lightpink" d="M443,-90C443,-90 326,-90 326,-90 320,-90 314,-84 314,-78 314,-78 314,-66 314,-66 314,-60 320,-54 326,-54 326,-54 443,-54 443,-54 449,-54 455,-60 455,-66 455,-66 455,-78 455,-78 455,-84 449,-90 443,-90"/>
<text text-anchor="middle" x="384.5" y="-68.3" font-family="Times,serif" font-size="14.00">{&#39;fileID&#39;: 2009980925}</text>
</g>
<!-- 258 -->
<g id="node94" class="node">
<title>258</title>
<path fill="lightpink" stroke="lightpink" d="M443,-36C443,-36 326,-36 326,-36 320,-36 314,-30 314,-24 314,-24 314,-12 314,-12 314,-6 320,0 326,0 326,0 443,0 443,0 449,0 455,-6 455,-12 455,-12 455,-24 455,-24 455,-30 449,-36 443,-36"/>
<text text-anchor="middle" x="384.5" y="-14.3" font-family="Times,serif" font-size="14.00">{&#39;fileID&#39;: 2009980924}</text>
</g>
<!-- 248 -->
<g id="node95" class="node">
<title>248</title>
<path fill="#b0e2ff" stroke="#b0e2ff" d="M266,-145C266,-145 102,-145 102,-145 96,-145 90,-139 90,-133 90,-133 90,-119 90,-119 90,-113 96,-107 102,-107 102,-107 266,-107 266,-107 272,-107 278,-113 278,-119 278,-119 278,-133 278,-133 278,-139 272,-145 266,-145"/>
<text text-anchor="middle" x="184" y="-129.8" font-family="Times,serif" font-size="14.00">GameObject_1_ID2009980923</text>
<text text-anchor="middle" x="184" y="-114.8" font-family="Times,serif" font-size="14.00">Canvas</text>
</g>
<!-- 248&#45;&gt;252 -->
<g id="edge69" class="edge">
<title>248&#45;&gt;252</title>
<path fill="none" stroke="black" d="M254.98,-145.04C271.87,-149.63 290,-154.56 307.17,-159.23"/>
<polygon fill="black" stroke="black" points="306.57,-162.7 317.14,-161.95 308.41,-155.95 306.57,-162.7"/>
</g>
<!-- 248&#45;&gt;254 -->
<g id="edge70" class="edge">
<title>248&#45;&gt;254</title>
<path fill="none" stroke="black" d="M278.15,-126C286.67,-126 295.25,-126 303.64,-126"/>
<polygon fill="black" stroke="black" points="303.76,-129.5 313.76,-126 303.76,-122.5 303.76,-129.5"/>
</g>
<!-- 248&#45;&gt;256 -->
<g id="edge71" class="edge">
<title>248&#45;&gt;256</title>
<path fill="none" stroke="black" d="M254.98,-106.96C271.87,-102.37 290,-97.44 307.17,-92.77"/>
<polygon fill="black" stroke="black" points="308.41,-96.05 317.14,-90.05 306.57,-89.3 308.41,-96.05"/>
</g>
<!-- 248&#45;&gt;258 -->
<g id="edge72" class="edge">
<title>248&#45;&gt;258</title>
<path fill="none" stroke="black" d="M212.29,-106.72C237.81,-89.22 277.37,-63.4 314,-45 317.32,-43.33 320.77,-41.7 324.27,-40.12"/>
<polygon fill="black" stroke="black" points="325.86,-43.24 333.64,-36.04 323.07,-36.82 325.86,-43.24"/>
</g>
<!-- 1 -->
<g id="node96" class="node">
<title>1</title>
<ellipse fill="red" stroke="red" cx="27" cy="-1908" rx="27" ry="18"/>
</g>
<!-- 1&#45;&gt;2 -->
<g id="edge73" class="edge">
<title>1&#45;&gt;2</title>
<path fill="none" stroke="black" d="M28.13,-1926.18C29.43,-2098.4 41.05,-3439.86 90,-3610 104.68,-3661.04 138.91,-3712.98 161.49,-3743.57"/>
<polygon fill="black" stroke="black" points="158.72,-3745.72 167.52,-3751.62 164.32,-3741.52 158.72,-3745.72"/>
</g>
<!-- 1&#45;&gt;13 -->
<g id="edge74" class="edge">
<title>1&#45;&gt;13</title>
<path fill="none" stroke="black" d="M28.22,-1926.13C30.22,-2087.2 46.32,-3270.46 90,-3421 104.8,-3472.01 138.99,-3523.95 161.53,-3554.56"/>
<polygon fill="black" stroke="black" points="158.76,-3556.7 167.56,-3562.61 164.37,-3552.51 158.76,-3556.7"/>
</g>
<!-- 1&#45;&gt;26 -->
<g id="edge75" class="edge">
<title>1&#45;&gt;26</title>
<path fill="none" stroke="black" d="M28.22,-1926.08C30.18,-2077.12 45.32,-3126.95 90,-3259 104.01,-3300.39 134.91,-3340.57 157.26,-3365.96"/>
<polygon fill="black" stroke="black" points="154.9,-3368.56 164.18,-3373.66 160.1,-3363.88 154.9,-3368.56"/>
</g>
<!-- 1&#45;&gt;37 -->
<g id="edge76" class="edge">
<title>1&#45;&gt;37</title>
<path fill="none" stroke="black" d="M27.81,-1926.41C26.65,-2056.84 22.59,-2842.92 90,-3070 105.11,-3120.91 139.22,-3172.89 161.65,-3203.53"/>
<polygon fill="black" stroke="black" points="158.87,-3205.65 167.65,-3211.58 164.49,-3201.47 158.87,-3205.65"/>
</g>
<!-- 1&#45;&gt;48 -->
<g id="edge77" class="edge">
<title>1&#45;&gt;48</title>
<path fill="none" stroke="black" d="M28.22,-1926.15C29.77,-2041.14 40.42,-2669.41 90,-2854 106.26,-2914.53 142.69,-2978.65 164.83,-3014.17"/>
<polygon fill="black" stroke="black" points="162.09,-3016.4 170.39,-3022.99 168.01,-3012.66 162.09,-3016.4"/>
</g>
<!-- 1&#45;&gt;61 -->
<g id="edge78" class="edge">
<title>1&#45;&gt;61</title>
<path fill="none" stroke="black" d="M28.41,-1926.01C30.83,-2026.71 44.88,-2520.57 90,-2665 105.84,-2715.69 139.73,-2767.73 161.93,-2798.44"/>
<polygon fill="black" stroke="black" points="159.12,-2800.53 167.86,-2806.52 164.76,-2796.39 159.12,-2800.53"/>
</g>
<!-- 1&#45;&gt;74 -->
<g id="edge79" class="edge">
<title>1&#45;&gt;74</title>
<path fill="none" stroke="black" d="M28.33,-1926.08C30.22,-2016.2 41.25,-2417.04 90,-2530 103.72,-2561.8 130.46,-2590.97 151.76,-2610.79"/>
<polygon fill="black" stroke="black" points="149.57,-2613.53 159.32,-2617.66 154.27,-2608.35 149.57,-2613.53"/>
</g>
<!-- 1&#45;&gt;85 -->
<g id="edge80" class="edge">
<title>1&#45;&gt;85</title>
<path fill="none" stroke="black" d="M28.9,-1926.13C32.98,-2003.79 51.2,-2308.37 90,-2395 104.25,-2426.81 131.19,-2456.17 152.42,-2476.05"/>
<polygon fill="black" stroke="black" points="150.21,-2478.77 159.95,-2482.94 154.93,-2473.61 150.21,-2478.77"/>
</g>
<!-- 1&#45;&gt;94 -->
<g id="edge81" class="edge">
<title>1&#45;&gt;94</title>
<path fill="none" stroke="black" d="M28.82,-1926.01C31.66,-1976.44 43.63,-2122.58 90,-2233 107.02,-2273.52 137.58,-2314.16 159.02,-2339.88"/>
<polygon fill="black" stroke="black" points="156.49,-2342.32 165.62,-2347.69 161.83,-2337.8 156.49,-2342.32"/>
</g>
<!-- 1&#45;&gt;105 -->
<g id="edge82" class="edge">
<title>1&#45;&gt;105</title>
<path fill="none" stroke="black" d="M33.18,-1925.73C42.46,-1956.34 63.46,-2020.65 90,-2071 110.73,-2110.33 141.02,-2151.82 161.34,-2178.03"/>
<polygon fill="black" stroke="black" points="158.64,-2180.26 167.56,-2185.98 164.15,-2175.95 158.64,-2180.26"/>
</g>
<!-- 1&#45;&gt;116 -->
<g id="edge83" class="edge">
<title>1&#45;&gt;116</title>
<path fill="none" stroke="black" d="M44.29,-1922.19C70.09,-1944.66 120.72,-1988.76 153.16,-2017.01"/>
<polygon fill="black" stroke="black" points="151.14,-2019.89 160.98,-2023.82 155.74,-2014.62 151.14,-2019.89"/>
</g>
<!-- 1&#45;&gt;127 -->
<g id="edge84" class="edge">
<title>1&#45;&gt;127</title>
<path fill="none" stroke="black" d="M54.29,-1908C62.74,-1908 72.65,-1908 83.16,-1908"/>
<polygon fill="black" stroke="black" points="83.39,-1911.5 93.39,-1908 83.39,-1904.5 83.39,-1911.5"/>
</g>
<!-- 1&#45;&gt;138 -->
<g id="edge85" class="edge">
<title>1&#45;&gt;138</title>
<path fill="none" stroke="black" d="M42.3,-1893.05C68.57,-1865.6 124.81,-1806.82 157.67,-1772.47"/>
<polygon fill="black" stroke="black" points="160.32,-1774.76 164.71,-1765.12 155.26,-1769.93 160.32,-1774.76"/>
</g>
<!-- 1&#45;&gt;151 -->
<g id="edge86" class="edge">
<title>1&#45;&gt;151</title>
<path fill="none" stroke="black" d="M32,-1890.04C40.1,-1855.51 60.21,-1777.97 90,-1718 109.67,-1678.41 139.93,-1637.28 160.55,-1611.2"/>
<polygon fill="black" stroke="black" points="163.37,-1613.28 166.88,-1603.29 157.9,-1608.91 163.37,-1613.28"/>
</g>
<!-- 1&#45;&gt;160 -->
<g id="edge87" class="edge">
<title>1&#45;&gt;160</title>
<path fill="none" stroke="black" d="M27.85,-1889.77C28.1,-1835.91 33.78,-1673.9 90,-1556 105,-1524.54 131.86,-1495.14 152.87,-1475.16"/>
<polygon fill="black" stroke="black" points="155.38,-1477.6 160.32,-1468.23 150.61,-1472.48 155.38,-1477.6"/>
</g>
<!-- 1&#45;&gt;171 -->
<g id="edge88" class="edge">
<title>1&#45;&gt;171</title>
<path fill="none" stroke="black" d="M29.14,-1889.97C34.22,-1812.73 55.97,-1509.62 90,-1421 105.76,-1379.97 136.59,-1339.44 158.43,-1313.88"/>
<polygon fill="black" stroke="black" points="161.25,-1315.97 165.17,-1306.13 155.97,-1311.38 161.25,-1315.97"/>
</g>
<!-- 1&#45;&gt;182 -->
<g id="edge89" class="edge">
<title>1&#45;&gt;182</title>
<path fill="none" stroke="black" d="M28.5,-1889.85C31.21,-1797.54 45.78,-1379.77 90,-1259 105.11,-1217.73 136.08,-1177.25 158.13,-1151.77"/>
<polygon fill="black" stroke="black" points="160.95,-1153.86 164.94,-1144.04 155.7,-1149.23 160.95,-1153.86"/>
</g>
<!-- 1&#45;&gt;193 -->
<g id="edge90" class="edge">
<title>1&#45;&gt;193</title>
<path fill="none" stroke="black" d="M27.85,-1889.93C27.23,-1784.39 27.24,-1247.16 90,-1097 103.36,-1065.04 130.13,-1035.89 151.53,-1016.11"/>
<polygon fill="black" stroke="black" points="154.05,-1018.55 159.14,-1009.26 149.37,-1013.35 154.05,-1018.55"/>
</g>
<!-- 1&#45;&gt;202 -->
<g id="edge91" class="edge">
<title>1&#45;&gt;202</title>
<path fill="none" stroke="black" d="M28.49,-1889.82C31.95,-1766.17 53.39,-1050.94 90,-962 103.18,-929.97 129.97,-900.83 151.43,-881.07"/>
<polygon fill="black" stroke="black" points="153.95,-883.51 159.06,-874.23 149.27,-878.3 153.95,-883.51"/>
</g>
<!-- 1&#45;&gt;213 -->
<g id="edge92" class="edge">
<title>1&#45;&gt;213</title>
<path fill="none" stroke="black" d="M28.45,-1889.91C31.8,-1756.81 53.97,-931.52 90,-827 104.24,-785.69 135.1,-745.5 157.37,-720.08"/>
<polygon fill="black" stroke="black" points="160.21,-722.16 164.27,-712.37 155,-717.49 160.21,-722.16"/>
</g>
<!-- 1&#45;&gt;224 -->
<g id="edge93" class="edge">
<title>1&#45;&gt;224</title>
<path fill="none" stroke="black" d="M28.31,-1889.57C30.81,-1744.27 48.81,-785.93 90,-665 104.09,-623.64 134.98,-583.46 157.3,-558.06"/>
<polygon fill="black" stroke="black" points="160.14,-560.13 164.21,-550.35 154.93,-555.46 160.14,-560.13"/>
</g>
<!-- 1&#45;&gt;235 -->
<g id="edge94" class="edge">
<title>1&#45;&gt;235</title>
<path fill="none" stroke="black" d="M28.28,-1889.72C30.73,-1734.68 49.34,-642.31 90,-503 104.88,-452.02 139.05,-400.06 161.56,-369.45"/>
<polygon fill="black" stroke="black" points="164.4,-371.5 167.58,-361.4 158.79,-367.31 164.4,-371.5"/>
</g>
<!-- 1&#45;&gt;248 -->
<g id="edge95" class="edge">
<title>1&#45;&gt;248</title>
<path fill="none" stroke="black" d="M28.24,-1889.97C30.54,-1724.62 49.2,-474.37 90,-314 105.41,-253.42 141.97,-189.55 164.39,-154.05"/>
<polygon fill="black" stroke="black" points="167.59,-155.54 170.03,-145.23 161.69,-151.76 167.59,-155.54"/>
</g>
</g>
</svg>
