<?xml version="1.0" encoding="UTF-8" standalone="no"?>
<!DOCTYPE svg PUBLIC "-//W3C//DTD SVG 1.1//EN"
 "http://www.w3.org/Graphics/SVG/1.1/DTD/svg11.dtd">
<!-- Generated by graphviz version 2.46.0 (20210118.1747)
 -->
<!-- Title: graphname Pages: 1 -->
<svg width="4664pt" height="4824pt"
 viewBox="0.00 0.00 4664.28 4824.00" xmlns="http://www.w3.org/2000/svg" xmlns:xlink="http://www.w3.org/1999/xlink">
<g id="graph0" class="graph" transform="scale(0.7 0.7) rotate(0) translate(4 6852)">
<title>graphname</title>
<polygon fill="white" stroke="transparent" points="-4,4 -4,-6852 6625,-6852 6625,4 -4,4"/>
<!-- 6 -->
<g id="node1" class="node">
<title>6</title>
<path fill="lightpink" stroke="lightpink" d="M2710.92,-2458.25C2710.92,-2458.25 2600.92,-2458.25 2600.92,-2458.25 2594.92,-2458.25 2588.92,-2452.25 2588.92,-2446.25 2588.92,-2446.25 2588.92,-2434.25 2588.92,-2434.25 2588.92,-2428.25 2594.92,-2422.25 2600.92,-2422.25 2600.92,-2422.25 2710.92,-2422.25 2710.92,-2422.25 2716.92,-2422.25 2722.92,-2428.25 2722.92,-2434.25 2722.92,-2434.25 2722.92,-2446.25 2722.92,-2446.25 2722.92,-2452.25 2716.92,-2458.25 2710.92,-2458.25"/>
<text text-anchor="middle" x="2655.92" y="-2436.55" font-family="Times,serif" font-size="14.00">{&#39;fileID&#39;: 132945517}</text>
</g>
<!-- 8 -->
<g id="node2" class="node">
<title>8</title>
<path fill="lightpink" stroke="lightpink" d="M1883.66,-1538.44C1883.66,-1538.44 1773.66,-1538.44 1773.66,-1538.44 1767.66,-1538.44 1761.66,-1532.44 1761.66,-1526.44 1761.66,-1526.44 1761.66,-1514.44 1761.66,-1514.44 1761.66,-1508.44 1767.66,-1502.44 1773.66,-1502.44 1773.66,-1502.44 1883.66,-1502.44 1883.66,-1502.44 1889.66,-1502.44 1895.66,-1508.44 1895.66,-1514.44 1895.66,-1514.44 1895.66,-1526.44 1895.66,-1526.44 1895.66,-1532.44 1889.66,-1538.44 1883.66,-1538.44"/>
<text text-anchor="middle" x="1828.66" y="-1516.74" font-family="Times,serif" font-size="14.00">{&#39;fileID&#39;: 132945519}</text>
</g>
<!-- 10 -->
<g id="node3" class="node">
<title>10</title>
<path fill="lightpink" stroke="lightpink" d="M1692.23,-1191.94C1692.23,-1191.94 1582.23,-1191.94 1582.23,-1191.94 1576.23,-1191.94 1570.23,-1185.94 1570.23,-1179.94 1570.23,-1179.94 1570.23,-1167.94 1570.23,-1167.94 1570.23,-1161.94 1576.23,-1155.94 1582.23,-1155.94 1582.23,-1155.94 1692.23,-1155.94 1692.23,-1155.94 1698.23,-1155.94 1704.23,-1161.94 1704.23,-1167.94 1704.23,-1167.94 1704.23,-1179.94 1704.23,-1179.94 1704.23,-1185.94 1698.23,-1191.94 1692.23,-1191.94"/>
<text text-anchor="middle" x="1637.23" y="-1170.24" font-family="Times,serif" font-size="14.00">{&#39;fileID&#39;: 132945518}</text>
</g>
<!-- 2 -->
<g id="node4" class="node">
<title>2</title>
<path fill="#b0e2ff" stroke="#b0e2ff" d="M2541.46,-2115C2541.46,-2115 2384.46,-2115 2384.46,-2115 2378.46,-2115 2372.46,-2109 2372.46,-2103 2372.46,-2103 2372.46,-2089 2372.46,-2089 2372.46,-2083 2378.46,-2077 2384.46,-2077 2384.46,-2077 2541.46,-2077 2541.46,-2077 2547.46,-2077 2553.46,-2083 2553.46,-2089 2553.46,-2089 2553.46,-2103 2553.46,-2103 2553.46,-2109 2547.46,-2115 2541.46,-2115"/>
<text text-anchor="middle" x="2462.96" y="-2099.8" font-family="Times,serif" font-size="14.00">GameObject_1_ID132945516</text>
<text text-anchor="middle" x="2462.96" y="-2084.8" font-family="Times,serif" font-size="14.00">Text</text>
</g>
<!-- 2&#45;&gt;6 -->
<g id="edge1" class="edge">
<title>2&#45;&gt;6</title>
<path fill="none" stroke="black" d="M2473.88,-2115.49C2506.48,-2173.65 2603.11,-2346.04 2640.71,-2413.12"/>
<polygon fill="black" stroke="black" points="2637.87,-2415.22 2645.82,-2422.23 2643.98,-2411.79 2637.87,-2415.22"/>
</g>
<!-- 2&#45;&gt;8 -->
<g id="edge2" class="edge">
<title>2&#45;&gt;8</title>
<path fill="none" stroke="black" d="M2441.85,-2076.85C2347.27,-1991.03 1962.41,-1641.81 1856.03,-1545.27"/>
<polygon fill="black" stroke="black" points="1858.33,-1542.64 1848.57,-1538.51 1853.62,-1547.82 1858.33,-1542.64"/>
</g>
<!-- 2&#45;&gt;10 -->
<g id="edge3" class="edge">
<title>2&#45;&gt;10</title>
<path fill="none" stroke="black" d="M2445.71,-2076.74C2340.11,-1958.82 1781.43,-1334.96 1660.38,-1199.79"/>
<polygon fill="black" stroke="black" points="1662.64,-1197.07 1653.36,-1191.95 1657.42,-1201.74 1662.64,-1197.07"/>
</g>
<!-- 17 -->
<g id="node5" class="node">
<title>17</title>
<path fill="lightpink" stroke="lightpink" d="M4685.43,-447.18C4685.43,-447.18 4575.43,-447.18 4575.43,-447.18 4569.43,-447.18 4563.43,-441.18 4563.43,-435.18 4563.43,-435.18 4563.43,-423.18 4563.43,-423.18 4563.43,-417.18 4569.43,-411.18 4575.43,-411.18 4575.43,-411.18 4685.43,-411.18 4685.43,-411.18 4691.43,-411.18 4697.43,-417.18 4697.43,-423.18 4697.43,-423.18 4697.43,-435.18 4697.43,-435.18 4697.43,-441.18 4691.43,-447.18 4685.43,-447.18"/>
<text text-anchor="middle" x="4630.43" y="-425.48" font-family="Times,serif" font-size="14.00">{&#39;fileID&#39;: 130449832}</text>
</g>
<!-- 19 -->
<g id="node6" class="node">
<title>19</title>
<path fill="lightpink" stroke="lightpink" d="M4325.02,-1182.24C4325.02,-1182.24 4215.02,-1182.24 4215.02,-1182.24 4209.02,-1182.24 4203.02,-1176.24 4203.02,-1170.24 4203.02,-1170.24 4203.02,-1158.24 4203.02,-1158.24 4203.02,-1152.24 4209.02,-1146.24 4215.02,-1146.24 4215.02,-1146.24 4325.02,-1146.24 4325.02,-1146.24 4331.02,-1146.24 4337.02,-1152.24 4337.02,-1158.24 4337.02,-1158.24 4337.02,-1170.24 4337.02,-1170.24 4337.02,-1176.24 4331.02,-1182.24 4325.02,-1182.24"/>
<text text-anchor="middle" x="4270.02" y="-1160.54" font-family="Times,serif" font-size="14.00">{&#39;fileID&#39;: 130449835}</text>
</g>
<!-- 21 -->
<g id="node7" class="node">
<title>21</title>
<path fill="lightpink" stroke="lightpink" d="M5413.37,-1462.81C5413.37,-1462.81 5303.37,-1462.81 5303.37,-1462.81 5297.37,-1462.81 5291.37,-1456.81 5291.37,-1450.81 5291.37,-1450.81 5291.37,-1438.81 5291.37,-1438.81 5291.37,-1432.81 5297.37,-1426.81 5303.37,-1426.81 5303.37,-1426.81 5413.37,-1426.81 5413.37,-1426.81 5419.37,-1426.81 5425.37,-1432.81 5425.37,-1438.81 5425.37,-1438.81 5425.37,-1450.81 5425.37,-1450.81 5425.37,-1456.81 5419.37,-1462.81 5413.37,-1462.81"/>
<text text-anchor="middle" x="5358.37" y="-1441.11" font-family="Times,serif" font-size="14.00">{&#39;fileID&#39;: 130449834}</text>
</g>
<!-- 23 -->
<g id="node8" class="node">
<title>23</title>
<path fill="lightpink" stroke="lightpink" d="M5067.01,-573.32C5067.01,-573.32 4957.01,-573.32 4957.01,-573.32 4951.01,-573.32 4945.01,-567.32 4945.01,-561.32 4945.01,-561.32 4945.01,-549.32 4945.01,-549.32 4945.01,-543.32 4951.01,-537.32 4957.01,-537.32 4957.01,-537.32 5067.01,-537.32 5067.01,-537.32 5073.01,-537.32 5079.01,-543.32 5079.01,-549.32 5079.01,-549.32 5079.01,-561.32 5079.01,-561.32 5079.01,-567.32 5073.01,-573.32 5067.01,-573.32"/>
<text text-anchor="middle" x="5012.01" y="-551.62" font-family="Times,serif" font-size="14.00">{&#39;fileID&#39;: 130449833}</text>
</g>
<!-- 13 -->
<g id="node9" class="node">
<title>13</title>
<path fill="#b0e2ff" stroke="#b0e2ff" d="M4510.67,-1589.79C4510.67,-1589.79 4353.67,-1589.79 4353.67,-1589.79 4347.67,-1589.79 4341.67,-1583.79 4341.67,-1577.79 4341.67,-1577.79 4341.67,-1563.79 4341.67,-1563.79 4341.67,-1557.79 4347.67,-1551.79 4353.67,-1551.79 4353.67,-1551.79 4510.67,-1551.79 4510.67,-1551.79 4516.67,-1551.79 4522.67,-1557.79 4522.67,-1563.79 4522.67,-1563.79 4522.67,-1577.79 4522.67,-1577.79 4522.67,-1583.79 4516.67,-1589.79 4510.67,-1589.79"/>
<text text-anchor="middle" x="4432.17" y="-1574.59" font-family="Times,serif" font-size="14.00">GameObject_1_ID130449831</text>
<text text-anchor="middle" x="4432.17" y="-1559.59" font-family="Times,serif" font-size="14.00">Menu</text>
</g>
<!-- 13&#45;&gt;17 -->
<g id="edge4" class="edge">
<title>13&#45;&gt;17</title>
<path fill="none" stroke="black" d="M4435.53,-1551.45C4458.93,-1416.69 4597.56,-618.42 4625.52,-457.45"/>
<polygon fill="black" stroke="black" points="4629,-457.83 4627.27,-447.38 4622.11,-456.64 4629,-457.83"/>
</g>
<!-- 13&#45;&gt;19 -->
<g id="edge5" class="edge">
<title>13&#45;&gt;19</title>
<path fill="none" stroke="black" d="M4424.57,-1551.72C4398.38,-1486.07 4311.86,-1269.13 4281.04,-1191.87"/>
<polygon fill="black" stroke="black" points="4284.19,-1190.32 4277.24,-1182.33 4277.69,-1192.91 4284.19,-1190.32"/>
</g>
<!-- 13&#45;&gt;21 -->
<g id="edge6" class="edge">
<title>13&#45;&gt;21</title>
<path fill="none" stroke="black" d="M4523.09,-1558.42C4704.99,-1533.68 5110.83,-1478.48 5280.97,-1455.34"/>
<polygon fill="black" stroke="black" points="5281.66,-1458.77 5291.1,-1453.96 5280.72,-1451.84 5281.66,-1458.77"/>
</g>
<!-- 13&#45;&gt;23 -->
<g id="edge7" class="edge">
<title>13&#45;&gt;23</title>
<path fill="none" stroke="black" d="M4443.24,-1551.41C4514.86,-1425.98 4912.54,-729.52 4996.46,-582.55"/>
<polygon fill="black" stroke="black" points="4999.61,-584.1 5001.53,-573.68 4993.53,-580.63 4999.61,-584.1"/>
</g>
<!-- 30 -->
<g id="node10" class="node">
<title>30</title>
<path fill="lightpink" stroke="lightpink" d="M2658.05,-1645.27C2658.05,-1645.27 2541.05,-1645.27 2541.05,-1645.27 2535.05,-1645.27 2529.05,-1639.27 2529.05,-1633.27 2529.05,-1633.27 2529.05,-1621.27 2529.05,-1621.27 2529.05,-1615.27 2535.05,-1609.27 2541.05,-1609.27 2541.05,-1609.27 2658.05,-1609.27 2658.05,-1609.27 2664.05,-1609.27 2670.05,-1615.27 2670.05,-1621.27 2670.05,-1621.27 2670.05,-1633.27 2670.05,-1633.27 2670.05,-1639.27 2664.05,-1645.27 2658.05,-1645.27"/>
<text text-anchor="middle" x="2599.55" y="-1623.57" font-family="Times,serif" font-size="14.00">{&#39;fileID&#39;: 1747895407}</text>
</g>
<!-- 32 -->
<g id="node11" class="node">
<title>32</title>
<path fill="lightpink" stroke="lightpink" d="M3351.73,-1436.8C3351.73,-1436.8 3234.73,-1436.8 3234.73,-1436.8 3228.73,-1436.8 3222.73,-1430.8 3222.73,-1424.8 3222.73,-1424.8 3222.73,-1412.8 3222.73,-1412.8 3222.73,-1406.8 3228.73,-1400.8 3234.73,-1400.8 3234.73,-1400.8 3351.73,-1400.8 3351.73,-1400.8 3357.73,-1400.8 3363.73,-1406.8 3363.73,-1412.8 3363.73,-1412.8 3363.73,-1424.8 3363.73,-1424.8 3363.73,-1430.8 3357.73,-1436.8 3351.73,-1436.8"/>
<text text-anchor="middle" x="3293.23" y="-1415.1" font-family="Times,serif" font-size="14.00">{&#39;fileID&#39;: 1747895409}</text>
</g>
<!-- 34 -->
<g id="node12" class="node">
<title>34</title>
<path fill="lightpink" stroke="lightpink" d="M4339.5,-1514.92C4339.5,-1514.92 4222.5,-1514.92 4222.5,-1514.92 4216.5,-1514.92 4210.5,-1508.92 4210.5,-1502.92 4210.5,-1502.92 4210.5,-1490.92 4210.5,-1490.92 4210.5,-1484.92 4216.5,-1478.92 4222.5,-1478.92 4222.5,-1478.92 4339.5,-1478.92 4339.5,-1478.92 4345.5,-1478.92 4351.5,-1484.92 4351.5,-1490.92 4351.5,-1490.92 4351.5,-1502.92 4351.5,-1502.92 4351.5,-1508.92 4345.5,-1514.92 4339.5,-1514.92"/>
<text text-anchor="middle" x="4281" y="-1493.22" font-family="Times,serif" font-size="14.00">{&#39;fileID&#39;: 1747895408}</text>
</g>
<!-- 26 -->
<g id="node13" class="node">
<title>26</title>
<path fill="#b0e2ff" stroke="#b0e2ff" d="M3409.39,-2386.43C3409.39,-2386.43 3245.39,-2386.43 3245.39,-2386.43 3239.39,-2386.43 3233.39,-2380.43 3233.39,-2374.43 3233.39,-2374.43 3233.39,-2360.43 3233.39,-2360.43 3233.39,-2354.43 3239.39,-2348.43 3245.39,-2348.43 3245.39,-2348.43 3409.39,-2348.43 3409.39,-2348.43 3415.39,-2348.43 3421.39,-2354.43 3421.39,-2360.43 3421.39,-2360.43 3421.39,-2374.43 3421.39,-2374.43 3421.39,-2380.43 3415.39,-2386.43 3409.39,-2386.43"/>
<text text-anchor="middle" x="3327.39" y="-2371.23" font-family="Times,serif" font-size="14.00">GameObject_1_ID1747895406</text>
<text text-anchor="middle" x="3327.39" y="-2356.23" font-family="Times,serif" font-size="14.00">Text</text>
</g>
<!-- 26&#45;&gt;30 -->
<g id="edge8" class="edge">
<title>26&#45;&gt;30</title>
<path fill="none" stroke="black" d="M3308.67,-2348.39C3208.83,-2246.87 2739.39,-1769.47 2624.82,-1652.96"/>
<polygon fill="black" stroke="black" points="2627,-1650.19 2617.49,-1645.51 2622.01,-1655.1 2627,-1650.19"/>
</g>
<!-- 26&#45;&gt;32 -->
<g id="edge9" class="edge">
<title>26&#45;&gt;32</title>
<path fill="none" stroke="black" d="M3326.69,-2348.05C3322.38,-2228.33 3299.39,-1589.83 3294.25,-1447.11"/>
<polygon fill="black" stroke="black" points="3297.74,-1446.85 3293.88,-1436.98 3290.75,-1447.1 3297.74,-1446.85"/>
</g>
<!-- 26&#45;&gt;34 -->
<g id="edge10" class="edge">
<title>26&#45;&gt;34</title>
<path fill="none" stroke="black" d="M3348.65,-2348.03C3473.66,-2233.91 4112.52,-1650.72 4253.46,-1522.06"/>
<polygon fill="black" stroke="black" points="4255.89,-1524.58 4260.92,-1515.25 4251.17,-1519.41 4255.89,-1524.58"/>
</g>
<!-- 41 -->
<g id="node14" class="node">
<title>41</title>
<path fill="lightpink" stroke="lightpink" d="M6586.6,-2826.91C6586.6,-2826.91 6469.6,-2826.91 6469.6,-2826.91 6463.6,-2826.91 6457.6,-2820.91 6457.6,-2814.91 6457.6,-2814.91 6457.6,-2802.91 6457.6,-2802.91 6457.6,-2796.91 6463.6,-2790.91 6469.6,-2790.91 6469.6,-2790.91 6586.6,-2790.91 6586.6,-2790.91 6592.6,-2790.91 6598.6,-2796.91 6598.6,-2802.91 6598.6,-2802.91 6598.6,-2814.91 6598.6,-2814.91 6598.6,-2820.91 6592.6,-2826.91 6586.6,-2826.91"/>
<text text-anchor="middle" x="6528.1" y="-2805.21" font-family="Times,serif" font-size="14.00">{&#39;fileID&#39;: 1285890737}</text>
</g>
<!-- 43 -->
<g id="node15" class="node">
<title>43</title>
<path fill="lightpink" stroke="lightpink" d="M6155.85,-3146.22C6155.85,-3146.22 6038.85,-3146.22 6038.85,-3146.22 6032.85,-3146.22 6026.85,-3140.22 6026.85,-3134.22 6026.85,-3134.22 6026.85,-3122.22 6026.85,-3122.22 6026.85,-3116.22 6032.85,-3110.22 6038.85,-3110.22 6038.85,-3110.22 6155.85,-3110.22 6155.85,-3110.22 6161.85,-3110.22 6167.85,-3116.22 6167.85,-3122.22 6167.85,-3122.22 6167.85,-3134.22 6167.85,-3134.22 6167.85,-3140.22 6161.85,-3146.22 6155.85,-3146.22"/>
<text text-anchor="middle" x="6097.35" y="-3124.52" font-family="Times,serif" font-size="14.00">{&#39;fileID&#39;: 1285890739}</text>
</g>
<!-- 45 -->
<g id="node16" class="node">
<title>45</title>
<path fill="lightpink" stroke="lightpink" d="M6229.43,-2443.41C6229.43,-2443.41 6112.43,-2443.41 6112.43,-2443.41 6106.43,-2443.41 6100.43,-2437.41 6100.43,-2431.41 6100.43,-2431.41 6100.43,-2419.41 6100.43,-2419.41 6100.43,-2413.41 6106.43,-2407.41 6112.43,-2407.41 6112.43,-2407.41 6229.43,-2407.41 6229.43,-2407.41 6235.43,-2407.41 6241.43,-2413.41 6241.43,-2419.41 6241.43,-2419.41 6241.43,-2431.41 6241.43,-2431.41 6241.43,-2437.41 6235.43,-2443.41 6229.43,-2443.41"/>
<text text-anchor="middle" x="6170.93" y="-2421.71" font-family="Times,serif" font-size="14.00">{&#39;fileID&#39;: 1285890738}</text>
</g>
<!-- 37 -->
<g id="node17" class="node">
<title>37</title>
<path fill="#b0e2ff" stroke="#b0e2ff" d="M5813.52,-2924.7C5813.52,-2924.7 5649.52,-2924.7 5649.52,-2924.7 5643.52,-2924.7 5637.52,-2918.7 5637.52,-2912.7 5637.52,-2912.7 5637.52,-2898.7 5637.52,-2898.7 5637.52,-2892.7 5643.52,-2886.7 5649.52,-2886.7 5649.52,-2886.7 5813.52,-2886.7 5813.52,-2886.7 5819.52,-2886.7 5825.52,-2892.7 5825.52,-2898.7 5825.52,-2898.7 5825.52,-2912.7 5825.52,-2912.7 5825.52,-2918.7 5819.52,-2924.7 5813.52,-2924.7"/>
<text text-anchor="middle" x="5731.52" y="-2909.5" font-family="Times,serif" font-size="14.00">GameObject_1_ID1285890736</text>
<text text-anchor="middle" x="5731.52" y="-2894.5" font-family="Times,serif" font-size="14.00">Text</text>
</g>
<!-- 37&#45;&gt;41 -->
<g id="edge11" class="edge">
<title>37&#45;&gt;41</title>
<path fill="none" stroke="black" d="M5825.63,-2894.26C5983.59,-2875.07 6299.29,-2836.71 6447.61,-2818.69"/>
<polygon fill="black" stroke="black" points="6448.06,-2822.16 6457.57,-2817.48 6447.22,-2815.21 6448.06,-2822.16"/>
</g>
<!-- 37&#45;&gt;43 -->
<g id="edge12" class="edge">
<title>37&#45;&gt;43</title>
<path fill="none" stroke="black" d="M5763.03,-2924.86C5829.93,-2965.56 5985.97,-3060.47 6058.72,-3104.73"/>
<polygon fill="black" stroke="black" points="6057.23,-3107.91 6067.59,-3110.12 6060.86,-3101.93 6057.23,-3107.91"/>
</g>
<!-- 37&#45;&gt;45 -->
<g id="edge13" class="edge">
<title>37&#45;&gt;45</title>
<path fill="none" stroke="black" d="M5749.02,-2886.57C5817.74,-2811.45 6069.24,-2536.55 6147.51,-2451"/>
<polygon fill="black" stroke="black" points="6150.16,-2453.29 6154.33,-2443.55 6144.99,-2448.57 6150.16,-2453.29"/>
</g>
<!-- 52 -->
<g id="node18" class="node">
<title>52</title>
<path fill="lightpink" stroke="lightpink" d="M3021.88,-35.6C3021.88,-35.6 2911.88,-35.6 2911.88,-35.6 2905.88,-35.6 2899.88,-29.6 2899.88,-23.6 2899.88,-23.6 2899.88,-11.6 2899.88,-11.6 2899.88,-5.6 2905.88,0.4 2911.88,0.4 2911.88,0.4 3021.88,0.4 3021.88,0.4 3027.88,0.4 3033.88,-5.6 3033.88,-11.6 3033.88,-11.6 3033.88,-23.6 3033.88,-23.6 3033.88,-29.6 3027.88,-35.6 3021.88,-35.6"/>
<text text-anchor="middle" x="2966.88" y="-13.9" font-family="Times,serif" font-size="14.00">{&#39;fileID&#39;: 771856869}</text>
</g>
<!-- 54 -->
<g id="node19" class="node">
<title>54</title>
<path fill="lightpink" stroke="lightpink" d="M3664.11,-695.49C3664.11,-695.49 3554.11,-695.49 3554.11,-695.49 3548.11,-695.49 3542.11,-689.49 3542.11,-683.49 3542.11,-683.49 3542.11,-671.49 3542.11,-671.49 3542.11,-665.49 3548.11,-659.49 3554.11,-659.49 3554.11,-659.49 3664.11,-659.49 3664.11,-659.49 3670.11,-659.49 3676.11,-665.49 3676.11,-671.49 3676.11,-671.49 3676.11,-683.49 3676.11,-683.49 3676.11,-689.49 3670.11,-695.49 3664.11,-695.49"/>
<text text-anchor="middle" x="3609.11" y="-673.79" font-family="Times,serif" font-size="14.00">{&#39;fileID&#39;: 771856872}</text>
</g>
<!-- 56 -->
<g id="node20" class="node">
<title>56</title>
<path fill="lightpink" stroke="lightpink" d="M2495.42,-234.53C2495.42,-234.53 2385.42,-234.53 2385.42,-234.53 2379.42,-234.53 2373.42,-228.53 2373.42,-222.53 2373.42,-222.53 2373.42,-210.53 2373.42,-210.53 2373.42,-204.53 2379.42,-198.53 2385.42,-198.53 2385.42,-198.53 2495.42,-198.53 2495.42,-198.53 2501.42,-198.53 2507.42,-204.53 2507.42,-210.53 2507.42,-210.53 2507.42,-222.53 2507.42,-222.53 2507.42,-228.53 2501.42,-234.53 2495.42,-234.53"/>
<text text-anchor="middle" x="2440.42" y="-212.83" font-family="Times,serif" font-size="14.00">{&#39;fileID&#39;: 771856871}</text>
</g>
<!-- 58 -->
<g id="node21" class="node">
<title>58</title>
<path fill="lightpink" stroke="lightpink" d="M2354.39,-1205.84C2354.39,-1205.84 2244.39,-1205.84 2244.39,-1205.84 2238.39,-1205.84 2232.39,-1199.84 2232.39,-1193.84 2232.39,-1193.84 2232.39,-1181.84 2232.39,-1181.84 2232.39,-1175.84 2238.39,-1169.84 2244.39,-1169.84 2244.39,-1169.84 2354.39,-1169.84 2354.39,-1169.84 2360.39,-1169.84 2366.39,-1175.84 2366.39,-1181.84 2366.39,-1181.84 2366.39,-1193.84 2366.39,-1193.84 2366.39,-1199.84 2360.39,-1205.84 2354.39,-1205.84"/>
<text text-anchor="middle" x="2299.39" y="-1184.14" font-family="Times,serif" font-size="14.00">{&#39;fileID&#39;: 771856870}</text>
</g>
<!-- 48 -->
<g id="node22" class="node">
<title>48</title>
<path fill="#b0e2ff" stroke="#b0e2ff" d="M3166.44,-1248.55C3166.44,-1248.55 3009.44,-1248.55 3009.44,-1248.55 3003.44,-1248.55 2997.44,-1242.55 2997.44,-1236.55 2997.44,-1236.55 2997.44,-1222.55 2997.44,-1222.55 2997.44,-1216.55 3003.44,-1210.55 3009.44,-1210.55 3009.44,-1210.55 3166.44,-1210.55 3166.44,-1210.55 3172.44,-1210.55 3178.44,-1216.55 3178.44,-1222.55 3178.44,-1222.55 3178.44,-1236.55 3178.44,-1236.55 3178.44,-1242.55 3172.44,-1248.55 3166.44,-1248.55"/>
<text text-anchor="middle" x="3087.94" y="-1233.35" font-family="Times,serif" font-size="14.00">GameObject_1_ID771856868</text>
<text text-anchor="middle" x="3087.94" y="-1218.35" font-family="Times,serif" font-size="14.00">StartButton</text>
</g>
<!-- 48&#45;&gt;52 -->
<g id="edge14" class="edge">
<title>48&#45;&gt;52</title>
<path fill="none" stroke="black" d="M3086.04,-1210.51C3072.14,-1071.42 2986.35,-212.56 2969.68,-45.68"/>
<polygon fill="black" stroke="black" points="2973.16,-45.3 2968.69,-35.7 2966.2,-46 2973.16,-45.3"/>
</g>
<!-- 48&#45;&gt;54 -->
<g id="edge15" class="edge">
<title>48&#45;&gt;54</title>
<path fill="none" stroke="black" d="M3105.88,-1210.54C3184.13,-1127.65 3495.69,-797.63 3585.04,-702.98"/>
<polygon fill="black" stroke="black" points="3587.72,-705.24 3592.04,-695.57 3582.63,-700.44 3587.72,-705.24"/>
</g>
<!-- 48&#45;&gt;56 -->
<g id="edge16" class="edge">
<title>48&#45;&gt;56</title>
<path fill="none" stroke="black" d="M3075.58,-1210.21C2995.6,-1085.09 2551.5,-390.31 2457.79,-243.7"/>
<polygon fill="black" stroke="black" points="2460.46,-241.39 2452.13,-234.85 2454.56,-245.16 2460.46,-241.39"/>
</g>
<!-- 48&#45;&gt;58 -->
<g id="edge17" class="edge">
<title>48&#45;&gt;58</title>
<path fill="none" stroke="black" d="M2997.1,-1224.74C2840.68,-1216.47 2523.22,-1199.67 2376.69,-1191.92"/>
<polygon fill="black" stroke="black" points="2376.62,-1188.42 2366.44,-1191.38 2376.25,-1195.41 2376.62,-1188.42"/>
</g>
<!-- 65 -->
<g id="node23" class="node">
<title>65</title>
<path fill="lightpink" stroke="lightpink" d="M5234.91,-5184.09C5234.91,-5184.09 5117.91,-5184.09 5117.91,-5184.09 5111.91,-5184.09 5105.91,-5178.09 5105.91,-5172.09 5105.91,-5172.09 5105.91,-5160.09 5105.91,-5160.09 5105.91,-5154.09 5111.91,-5148.09 5117.91,-5148.09 5117.91,-5148.09 5234.91,-5148.09 5234.91,-5148.09 5240.91,-5148.09 5246.91,-5154.09 5246.91,-5160.09 5246.91,-5160.09 5246.91,-5172.09 5246.91,-5172.09 5246.91,-5178.09 5240.91,-5184.09 5234.91,-5184.09"/>
<text text-anchor="middle" x="5176.41" y="-5162.39" font-family="Times,serif" font-size="14.00">{&#39;fileID&#39;: 1351522637}</text>
</g>
<!-- 67 -->
<g id="node24" class="node">
<title>67</title>
<path fill="lightpink" stroke="lightpink" d="M4415.96,-4209.14C4415.96,-4209.14 4298.96,-4209.14 4298.96,-4209.14 4292.96,-4209.14 4286.96,-4203.14 4286.96,-4197.14 4286.96,-4197.14 4286.96,-4185.14 4286.96,-4185.14 4286.96,-4179.14 4292.96,-4173.14 4298.96,-4173.14 4298.96,-4173.14 4415.96,-4173.14 4415.96,-4173.14 4421.96,-4173.14 4427.96,-4179.14 4427.96,-4185.14 4427.96,-4185.14 4427.96,-4197.14 4427.96,-4197.14 4427.96,-4203.14 4421.96,-4209.14 4415.96,-4209.14"/>
<text text-anchor="middle" x="4357.46" y="-4187.44" font-family="Times,serif" font-size="14.00">{&#39;fileID&#39;: 1351522640}</text>
</g>
<!-- 69 -->
<g id="node25" class="node">
<title>69</title>
<path fill="lightpink" stroke="lightpink" d="M5439.91,-4852.96C5439.91,-4852.96 5322.91,-4852.96 5322.91,-4852.96 5316.91,-4852.96 5310.91,-4846.96 5310.91,-4840.96 5310.91,-4840.96 5310.91,-4828.96 5310.91,-4828.96 5310.91,-4822.96 5316.91,-4816.96 5322.91,-4816.96 5322.91,-4816.96 5439.91,-4816.96 5439.91,-4816.96 5445.91,-4816.96 5451.91,-4822.96 5451.91,-4828.96 5451.91,-4828.96 5451.91,-4840.96 5451.91,-4840.96 5451.91,-4846.96 5445.91,-4852.96 5439.91,-4852.96"/>
<text text-anchor="middle" x="5381.41" y="-4831.26" font-family="Times,serif" font-size="14.00">{&#39;fileID&#39;: 1351522639}</text>
</g>
<!-- 71 -->
<g id="node26" class="node">
<title>71</title>
<path fill="lightpink" stroke="lightpink" d="M5687.5,-5450.95C5687.5,-5450.95 5570.5,-5450.95 5570.5,-5450.95 5564.5,-5450.95 5558.5,-5444.95 5558.5,-5438.95 5558.5,-5438.95 5558.5,-5426.95 5558.5,-5426.95 5558.5,-5420.95 5564.5,-5414.95 5570.5,-5414.95 5570.5,-5414.95 5687.5,-5414.95 5687.5,-5414.95 5693.5,-5414.95 5699.5,-5420.95 5699.5,-5426.95 5699.5,-5426.95 5699.5,-5438.95 5699.5,-5438.95 5699.5,-5444.95 5693.5,-5450.95 5687.5,-5450.95"/>
<text text-anchor="middle" x="5629" y="-5429.25" font-family="Times,serif" font-size="14.00">{&#39;fileID&#39;: 1351522638}</text>
</g>
<!-- 61 -->
<g id="node27" class="node">
<title>61</title>
<path fill="#b0e2ff" stroke="#b0e2ff" d="M5013.64,-4776.75C5013.64,-4776.75 4849.64,-4776.75 4849.64,-4776.75 4843.64,-4776.75 4837.64,-4770.75 4837.64,-4764.75 4837.64,-4764.75 4837.64,-4750.75 4837.64,-4750.75 4837.64,-4744.75 4843.64,-4738.75 4849.64,-4738.75 4849.64,-4738.75 5013.64,-4738.75 5013.64,-4738.75 5019.64,-4738.75 5025.64,-4744.75 5025.64,-4750.75 5025.64,-4750.75 5025.64,-4764.75 5025.64,-4764.75 5025.64,-4770.75 5019.64,-4776.75 5013.64,-4776.75"/>
<text text-anchor="middle" x="4931.64" y="-4761.55" font-family="Times,serif" font-size="14.00">GameObject_1_ID1351522636</text>
<text text-anchor="middle" x="4931.64" y="-4746.55" font-family="Times,serif" font-size="14.00">ExitButton</text>
</g>
<!-- 61&#45;&gt;65 -->
<g id="edge18" class="edge">
<title>61&#45;&gt;65</title>
<path fill="none" stroke="black" d="M4943.12,-4776.9C4982.81,-4843.11 5114.33,-5062.52 5160.34,-5139.29"/>
<polygon fill="black" stroke="black" points="5157.38,-5141.15 5165.52,-5147.92 5163.38,-5137.55 5157.38,-5141.15"/>
</g>
<!-- 61&#45;&gt;67 -->
<g id="edge19" class="edge">
<title>61&#45;&gt;67</title>
<path fill="none" stroke="black" d="M4912.21,-4738.57C4826.28,-4653.78 4480.45,-4312.51 4383.08,-4216.43"/>
<polygon fill="black" stroke="black" points="4385.31,-4213.7 4375.73,-4209.17 4380.39,-4218.69 4385.31,-4213.7"/>
</g>
<!-- 61&#45;&gt;69 -->
<g id="edge20" class="edge">
<title>61&#45;&gt;69</title>
<path fill="none" stroke="black" d="M5025.65,-4773.89C5106.98,-4787.85 5223.34,-4807.83 5300.56,-4821.09"/>
<polygon fill="black" stroke="black" points="5300.27,-4824.59 5310.72,-4822.83 5301.46,-4817.69 5300.27,-4824.59"/>
</g>
<!-- 61&#45;&gt;71 -->
<g id="edge21" class="edge">
<title>61&#45;&gt;71</title>
<path fill="none" stroke="black" d="M4951.39,-4776.87C5050.2,-4872.54 5490.66,-5299 5602.9,-5407.68"/>
<polygon fill="black" stroke="black" points="5600.79,-5410.5 5610.41,-5414.95 5605.66,-5405.47 5600.79,-5410.5"/>
</g>
<!-- 78 -->
<g id="node28" class="node">
<title>78</title>
<path fill="lightpink" stroke="lightpink" d="M4157.46,-1895.13C4157.46,-1895.13 4047.46,-1895.13 4047.46,-1895.13 4041.46,-1895.13 4035.46,-1889.13 4035.46,-1883.13 4035.46,-1883.13 4035.46,-1871.13 4035.46,-1871.13 4035.46,-1865.13 4041.46,-1859.13 4047.46,-1859.13 4047.46,-1859.13 4157.46,-1859.13 4157.46,-1859.13 4163.46,-1859.13 4169.46,-1865.13 4169.46,-1871.13 4169.46,-1871.13 4169.46,-1883.13 4169.46,-1883.13 4169.46,-1889.13 4163.46,-1895.13 4157.46,-1895.13"/>
<text text-anchor="middle" x="4102.46" y="-1873.43" font-family="Times,serif" font-size="14.00">{&#39;fileID&#39;: 960558224}</text>
</g>
<!-- 80 -->
<g id="node29" class="node">
<title>80</title>
<path fill="lightpink" stroke="lightpink" d="M3550.39,-1868.37C3550.39,-1868.37 3440.39,-1868.37 3440.39,-1868.37 3434.39,-1868.37 3428.39,-1862.37 3428.39,-1856.37 3428.39,-1856.37 3428.39,-1844.37 3428.39,-1844.37 3428.39,-1838.37 3434.39,-1832.37 3440.39,-1832.37 3440.39,-1832.37 3550.39,-1832.37 3550.39,-1832.37 3556.39,-1832.37 3562.39,-1838.37 3562.39,-1844.37 3562.39,-1844.37 3562.39,-1856.37 3562.39,-1856.37 3562.39,-1862.37 3556.39,-1868.37 3550.39,-1868.37"/>
<text text-anchor="middle" x="3495.39" y="-1846.67" font-family="Times,serif" font-size="14.00">{&#39;fileID&#39;: 960558226}</text>
</g>
<!-- 82 -->
<g id="node30" class="node">
<title>82</title>
<path fill="lightpink" stroke="lightpink" d="M3620.13,-2791.82C3620.13,-2791.82 3510.13,-2791.82 3510.13,-2791.82 3504.13,-2791.82 3498.13,-2785.82 3498.13,-2779.82 3498.13,-2779.82 3498.13,-2767.82 3498.13,-2767.82 3498.13,-2761.82 3504.13,-2755.82 3510.13,-2755.82 3510.13,-2755.82 3620.13,-2755.82 3620.13,-2755.82 3626.13,-2755.82 3632.13,-2761.82 3632.13,-2767.82 3632.13,-2767.82 3632.13,-2779.82 3632.13,-2779.82 3632.13,-2785.82 3626.13,-2791.82 3620.13,-2791.82"/>
<text text-anchor="middle" x="3565.13" y="-2770.12" font-family="Times,serif" font-size="14.00">{&#39;fileID&#39;: 960558225}</text>
</g>
<!-- 74 -->
<g id="node31" class="node">
<title>74</title>
<path fill="#b0e2ff" stroke="#b0e2ff" d="M3813.72,-2364.04C3813.72,-2364.04 3656.72,-2364.04 3656.72,-2364.04 3650.72,-2364.04 3644.72,-2358.04 3644.72,-2352.04 3644.72,-2352.04 3644.72,-2338.04 3644.72,-2338.04 3644.72,-2332.04 3650.72,-2326.04 3656.72,-2326.04 3656.72,-2326.04 3813.72,-2326.04 3813.72,-2326.04 3819.72,-2326.04 3825.72,-2332.04 3825.72,-2338.04 3825.72,-2338.04 3825.72,-2352.04 3825.72,-2352.04 3825.72,-2358.04 3819.72,-2364.04 3813.72,-2364.04"/>
<text text-anchor="middle" x="3735.22" y="-2348.84" font-family="Times,serif" font-size="14.00">GameObject_1_ID960558223</text>
<text text-anchor="middle" x="3735.22" y="-2333.84" font-family="Times,serif" font-size="14.00">Text</text>
</g>
<!-- 74&#45;&gt;78 -->
<g id="edge22" class="edge">
<title>74&#45;&gt;78</title>
<path fill="none" stroke="black" d="M3750.3,-2325.83C3808.11,-2252.17 4015.62,-1987.77 4081.93,-1903.28"/>
<polygon fill="black" stroke="black" points="4084.83,-1905.25 4088.25,-1895.23 4079.32,-1900.93 4084.83,-1905.25"/>
</g>
<!-- 74&#45;&gt;80 -->
<g id="edge23" class="edge">
<title>74&#45;&gt;80</title>
<path fill="none" stroke="black" d="M3725.97,-2325.95C3689.04,-2249.79 3552.16,-1967.47 3508.72,-1877.85"/>
<polygon fill="black" stroke="black" points="3511.74,-1876.08 3504.23,-1868.61 3505.45,-1879.13 3511.74,-1876.08"/>
</g>
<!-- 74&#45;&gt;82 -->
<g id="edge24" class="edge">
<title>74&#45;&gt;82</title>
<path fill="none" stroke="black" d="M3727.58,-2364.3C3700.37,-2432.9 3608.07,-2665.56 3576.12,-2746.11"/>
<polygon fill="black" stroke="black" points="3572.79,-2745 3572.36,-2755.58 3579.3,-2747.58 3572.79,-2745"/>
</g>
<!-- 89 -->
<g id="node32" class="node">
<title>89</title>
<path fill="lightpink" stroke="lightpink" d="M1907.04,-3541.96C1907.04,-3541.96 1790.04,-3541.96 1790.04,-3541.96 1784.04,-3541.96 1778.04,-3535.96 1778.04,-3529.96 1778.04,-3529.96 1778.04,-3517.96 1778.04,-3517.96 1778.04,-3511.96 1784.04,-3505.96 1790.04,-3505.96 1790.04,-3505.96 1907.04,-3505.96 1907.04,-3505.96 1913.04,-3505.96 1919.04,-3511.96 1919.04,-3517.96 1919.04,-3517.96 1919.04,-3529.96 1919.04,-3529.96 1919.04,-3535.96 1913.04,-3541.96 1907.04,-3541.96"/>
<text text-anchor="middle" x="1848.54" y="-3520.26" font-family="Times,serif" font-size="14.00">{&#39;fileID&#39;: 1089201444}</text>
</g>
<!-- 91 -->
<g id="node33" class="node">
<title>91</title>
<path fill="lightpink" stroke="lightpink" d="M2166.74,-3264.84C2166.74,-3264.84 2049.74,-3264.84 2049.74,-3264.84 2043.74,-3264.84 2037.74,-3258.84 2037.74,-3252.84 2037.74,-3252.84 2037.74,-3240.84 2037.74,-3240.84 2037.74,-3234.84 2043.74,-3228.84 2049.74,-3228.84 2049.74,-3228.84 2166.74,-3228.84 2166.74,-3228.84 2172.74,-3228.84 2178.74,-3234.84 2178.74,-3240.84 2178.74,-3240.84 2178.74,-3252.84 2178.74,-3252.84 2178.74,-3258.84 2172.74,-3264.84 2166.74,-3264.84"/>
<text text-anchor="middle" x="2108.24" y="-3243.14" font-family="Times,serif" font-size="14.00">{&#39;fileID&#39;: 1089201445}</text>
</g>
<!-- 85 -->
<g id="node34" class="node">
<title>85</title>
<path fill="#b0e2ff" stroke="#b0e2ff" d="M2434.82,-3477.83C2434.82,-3477.83 2270.82,-3477.83 2270.82,-3477.83 2264.82,-3477.83 2258.82,-3471.83 2258.82,-3465.83 2258.82,-3465.83 2258.82,-3451.83 2258.82,-3451.83 2258.82,-3445.83 2264.82,-3439.83 2270.82,-3439.83 2270.82,-3439.83 2434.82,-3439.83 2434.82,-3439.83 2440.82,-3439.83 2446.82,-3445.83 2446.82,-3451.83 2446.82,-3451.83 2446.82,-3465.83 2446.82,-3465.83 2446.82,-3471.83 2440.82,-3477.83 2434.82,-3477.83"/>
<text text-anchor="middle" x="2352.82" y="-3462.63" font-family="Times,serif" font-size="14.00">GameObject_1_ID1089201443</text>
<text text-anchor="middle" x="2352.82" y="-3447.63" font-family="Times,serif" font-size="14.00">Buttons</text>
</g>
<!-- 85&#45;&gt;89 -->
<g id="edge25" class="edge">
<title>85&#45;&gt;89</title>
<path fill="none" stroke="black" d="M2258.56,-3471C2163.72,-3483.25 2019.02,-3501.94 1929.29,-3513.53"/>
<polygon fill="black" stroke="black" points="1928.64,-3510.08 1919.17,-3514.83 1929.54,-3517.02 1928.64,-3510.08"/>
</g>
<!-- 85&#45;&gt;91 -->
<g id="edge26" class="edge">
<title>85&#45;&gt;91</title>
<path fill="none" stroke="black" d="M2330.68,-3439.64C2286.24,-3401.12 2186.19,-3314.41 2136.86,-3271.65"/>
<polygon fill="black" stroke="black" points="2138.96,-3268.83 2129.11,-3264.93 2134.37,-3274.12 2138.96,-3268.83"/>
</g>
<!-- 98 -->
<g id="node35" class="node">
<title>98</title>
<path fill="lightpink" stroke="lightpink" d="M2521.66,-2531.25C2521.66,-2531.25 2404.66,-2531.25 2404.66,-2531.25 2398.66,-2531.25 2392.66,-2525.25 2392.66,-2519.25 2392.66,-2519.25 2392.66,-2507.25 2392.66,-2507.25 2392.66,-2501.25 2398.66,-2495.25 2404.66,-2495.25 2404.66,-2495.25 2521.66,-2495.25 2521.66,-2495.25 2527.66,-2495.25 2533.66,-2501.25 2533.66,-2507.25 2533.66,-2507.25 2533.66,-2519.25 2533.66,-2519.25 2533.66,-2525.25 2527.66,-2531.25 2521.66,-2531.25"/>
<text text-anchor="middle" x="2463.16" y="-2509.55" font-family="Times,serif" font-size="14.00">{&#39;fileID&#39;: 1651329296}</text>
</g>
<!-- 100 -->
<g id="node36" class="node">
<title>100</title>
<path fill="lightpink" stroke="lightpink" d="M2583.82,-3509.1C2583.82,-3509.1 2466.82,-3509.1 2466.82,-3509.1 2460.82,-3509.1 2454.82,-3503.1 2454.82,-3497.1 2454.82,-3497.1 2454.82,-3485.1 2454.82,-3485.1 2454.82,-3479.1 2460.82,-3473.1 2466.82,-3473.1 2466.82,-3473.1 2583.82,-3473.1 2583.82,-3473.1 2589.82,-3473.1 2595.82,-3479.1 2595.82,-3485.1 2595.82,-3485.1 2595.82,-3497.1 2595.82,-3497.1 2595.82,-3503.1 2589.82,-3509.1 2583.82,-3509.1"/>
<text text-anchor="middle" x="2525.32" y="-3487.4" font-family="Times,serif" font-size="14.00">{&#39;fileID&#39;: 1651329298}</text>
</g>
<!-- 102 -->
<g id="node37" class="node">
<title>102</title>
<path fill="lightpink" stroke="lightpink" d="M3091.76,-2823.24C3091.76,-2823.24 2974.76,-2823.24 2974.76,-2823.24 2968.76,-2823.24 2962.76,-2817.24 2962.76,-2811.24 2962.76,-2811.24 2962.76,-2799.24 2962.76,-2799.24 2962.76,-2793.24 2968.76,-2787.24 2974.76,-2787.24 2974.76,-2787.24 3091.76,-2787.24 3091.76,-2787.24 3097.76,-2787.24 3103.76,-2793.24 3103.76,-2799.24 3103.76,-2799.24 3103.76,-2811.24 3103.76,-2811.24 3103.76,-2817.24 3097.76,-2823.24 3091.76,-2823.24"/>
<text text-anchor="middle" x="3033.26" y="-2801.54" font-family="Times,serif" font-size="14.00">{&#39;fileID&#39;: 1651329297}</text>
</g>
<!-- 94 -->
<g id="node38" class="node">
<title>94</title>
<path fill="#b0e2ff" stroke="#b0e2ff" d="M3002.88,-3136.94C3002.88,-3136.94 2838.88,-3136.94 2838.88,-3136.94 2832.88,-3136.94 2826.88,-3130.94 2826.88,-3124.94 2826.88,-3124.94 2826.88,-3110.94 2826.88,-3110.94 2826.88,-3104.94 2832.88,-3098.94 2838.88,-3098.94 2838.88,-3098.94 3002.88,-3098.94 3002.88,-3098.94 3008.88,-3098.94 3014.88,-3104.94 3014.88,-3110.94 3014.88,-3110.94 3014.88,-3124.94 3014.88,-3124.94 3014.88,-3130.94 3008.88,-3136.94 3002.88,-3136.94"/>
<text text-anchor="middle" x="2920.88" y="-3121.74" font-family="Times,serif" font-size="14.00">GameObject_1_ID1651329295</text>
<text text-anchor="middle" x="2920.88" y="-3106.74" font-family="Times,serif" font-size="14.00">Text</text>
</g>
<!-- 94&#45;&gt;98 -->
<g id="edge27" class="edge">
<title>94&#45;&gt;98</title>
<path fill="none" stroke="black" d="M2906.42,-3098.84C2839.61,-3010.57 2560.66,-2642.05 2483.19,-2539.71"/>
<polygon fill="black" stroke="black" points="2485.77,-2537.32 2476.94,-2531.46 2480.18,-2541.54 2485.77,-2537.32"/>
</g>
<!-- 94&#45;&gt;100 -->
<g id="edge28" class="edge">
<title>94&#45;&gt;100</title>
<path fill="none" stroke="black" d="M2900.72,-3136.96C2834.94,-3199 2626.56,-3395.58 2552.1,-3465.83"/>
<polygon fill="black" stroke="black" points="2549.37,-3463.59 2544.5,-3473 2554.18,-3468.68 2549.37,-3463.59"/>
</g>
<!-- 94&#45;&gt;102 -->
<g id="edge29" class="edge">
<title>94&#45;&gt;102</title>
<path fill="none" stroke="black" d="M2927.74,-3098.85C2946.88,-3045.59 3000.92,-2895.21 3023.33,-2832.86"/>
<polygon fill="black" stroke="black" points="3026.68,-2833.89 3026.77,-2823.3 3020.09,-2831.52 3026.68,-2833.89"/>
</g>
<!-- 109 -->
<g id="node39" class="node">
<title>109</title>
<path fill="lightpink" stroke="lightpink" d="M1741.81,-6232.49C1741.81,-6232.49 1624.81,-6232.49 1624.81,-6232.49 1618.81,-6232.49 1612.81,-6226.49 1612.81,-6220.49 1612.81,-6220.49 1612.81,-6208.49 1612.81,-6208.49 1612.81,-6202.49 1618.81,-6196.49 1624.81,-6196.49 1624.81,-6196.49 1741.81,-6196.49 1741.81,-6196.49 1747.81,-6196.49 1753.81,-6202.49 1753.81,-6208.49 1753.81,-6208.49 1753.81,-6220.49 1753.81,-6220.49 1753.81,-6226.49 1747.81,-6232.49 1741.81,-6232.49"/>
<text text-anchor="middle" x="1683.31" y="-6210.79" font-family="Times,serif" font-size="14.00">{&#39;fileID&#39;: 1040292124}</text>
</g>
<!-- 111 -->
<g id="node40" class="node">
<title>111</title>
<path fill="lightpink" stroke="lightpink" d="M2039.66,-5838.47C2039.66,-5838.47 1922.66,-5838.47 1922.66,-5838.47 1916.66,-5838.47 1910.66,-5832.47 1910.66,-5826.47 1910.66,-5826.47 1910.66,-5814.47 1910.66,-5814.47 1910.66,-5808.47 1916.66,-5802.47 1922.66,-5802.47 1922.66,-5802.47 2039.66,-5802.47 2039.66,-5802.47 2045.66,-5802.47 2051.66,-5808.47 2051.66,-5814.47 2051.66,-5814.47 2051.66,-5826.47 2051.66,-5826.47 2051.66,-5832.47 2045.66,-5838.47 2039.66,-5838.47"/>
<text text-anchor="middle" x="1981.16" y="-5816.77" font-family="Times,serif" font-size="14.00">{&#39;fileID&#39;: 1040292126}</text>
</g>
<!-- 113 -->
<g id="node41" class="node">
<title>113</title>
<path fill="lightpink" stroke="lightpink" d="M1141.81,-5805.53C1141.81,-5805.53 1024.81,-5805.53 1024.81,-5805.53 1018.81,-5805.53 1012.81,-5799.53 1012.81,-5793.53 1012.81,-5793.53 1012.81,-5781.53 1012.81,-5781.53 1012.81,-5775.53 1018.81,-5769.53 1024.81,-5769.53 1024.81,-5769.53 1141.81,-5769.53 1141.81,-5769.53 1147.81,-5769.53 1153.81,-5775.53 1153.81,-5781.53 1153.81,-5781.53 1153.81,-5793.53 1153.81,-5793.53 1153.81,-5799.53 1147.81,-5805.53 1141.81,-5805.53"/>
<text text-anchor="middle" x="1083.31" y="-5783.83" font-family="Times,serif" font-size="14.00">{&#39;fileID&#39;: 1040292125}</text>
</g>
<!-- 105 -->
<g id="node42" class="node">
<title>105</title>
<path fill="#b0e2ff" stroke="#b0e2ff" d="M2110.5,-4914.99C2110.5,-4914.99 1946.5,-4914.99 1946.5,-4914.99 1940.5,-4914.99 1934.5,-4908.99 1934.5,-4902.99 1934.5,-4902.99 1934.5,-4888.99 1934.5,-4888.99 1934.5,-4882.99 1940.5,-4876.99 1946.5,-4876.99 1946.5,-4876.99 2110.5,-4876.99 2110.5,-4876.99 2116.5,-4876.99 2122.5,-4882.99 2122.5,-4888.99 2122.5,-4888.99 2122.5,-4902.99 2122.5,-4902.99 2122.5,-4908.99 2116.5,-4914.99 2110.5,-4914.99"/>
<text text-anchor="middle" x="2028.5" y="-4899.79" font-family="Times,serif" font-size="14.00">GameObject_1_ID1040292123</text>
<text text-anchor="middle" x="2028.5" y="-4884.79" font-family="Times,serif" font-size="14.00">Text</text>
</g>
<!-- 105&#45;&gt;109 -->
<g id="edge30" class="edge">
<title>105&#45;&gt;109</title>
<path fill="none" stroke="black" d="M2023.48,-4915.13C1985.01,-5062.08 1736.87,-6009.92 1690.7,-6186.27"/>
<polygon fill="black" stroke="black" points="1687.27,-6185.54 1688.12,-6196.1 1694.04,-6187.31 1687.27,-6185.54"/>
</g>
<!-- 105&#45;&gt;111 -->
<g id="edge31" class="edge">
<title>105&#45;&gt;111</title>
<path fill="none" stroke="black" d="M2027.51,-4915.3C2021.49,-5032.82 1989.81,-5651.56 1982.62,-5792.07"/>
<polygon fill="black" stroke="black" points="1979.1,-5792.25 1982.09,-5802.41 1986.09,-5792.6 1979.1,-5792.25"/>
</g>
<!-- 105&#45;&gt;113 -->
<g id="edge32" class="edge">
<title>105&#45;&gt;113</title>
<path fill="none" stroke="black" d="M2008.32,-4915.02C1886.35,-5030.07 1248.23,-5631.97 1109.82,-5762.53"/>
<polygon fill="black" stroke="black" points="1107.38,-5760.02 1102.51,-5769.42 1112.18,-5765.11 1107.38,-5760.02"/>
</g>
<!-- 120 -->
<g id="node43" class="node">
<title>120</title>
<path fill="lightpink" stroke="lightpink" d="M3026.53,-6847.5C3026.53,-6847.5 2916.53,-6847.5 2916.53,-6847.5 2910.53,-6847.5 2904.53,-6841.5 2904.53,-6835.5 2904.53,-6835.5 2904.53,-6823.5 2904.53,-6823.5 2904.53,-6817.5 2910.53,-6811.5 2916.53,-6811.5 2916.53,-6811.5 3026.53,-6811.5 3026.53,-6811.5 3032.53,-6811.5 3038.53,-6817.5 3038.53,-6823.5 3038.53,-6823.5 3038.53,-6835.5 3038.53,-6835.5 3038.53,-6841.5 3032.53,-6847.5 3026.53,-6847.5"/>
<text text-anchor="middle" x="2971.53" y="-6825.8" font-family="Times,serif" font-size="14.00">{&#39;fileID&#39;: 808250885}</text>
</g>
<!-- 122 -->
<g id="node44" class="node">
<title>122</title>
<path fill="lightpink" stroke="lightpink" d="M3532.1,-6792.52C3532.1,-6792.52 3422.1,-6792.52 3422.1,-6792.52 3416.1,-6792.52 3410.1,-6786.52 3410.1,-6780.52 3410.1,-6780.52 3410.1,-6768.52 3410.1,-6768.52 3410.1,-6762.52 3416.1,-6756.52 3422.1,-6756.52 3422.1,-6756.52 3532.1,-6756.52 3532.1,-6756.52 3538.1,-6756.52 3544.1,-6762.52 3544.1,-6768.52 3544.1,-6768.52 3544.1,-6780.52 3544.1,-6780.52 3544.1,-6786.52 3538.1,-6792.52 3532.1,-6792.52"/>
<text text-anchor="middle" x="3477.1" y="-6770.82" font-family="Times,serif" font-size="14.00">{&#39;fileID&#39;: 808250887}</text>
</g>
<!-- 124 -->
<g id="node45" class="node">
<title>124</title>
<path fill="lightpink" stroke="lightpink" d="M2506.23,-6057.18C2506.23,-6057.18 2396.23,-6057.18 2396.23,-6057.18 2390.23,-6057.18 2384.23,-6051.18 2384.23,-6045.18 2384.23,-6045.18 2384.23,-6033.18 2384.23,-6033.18 2384.23,-6027.18 2390.23,-6021.18 2396.23,-6021.18 2396.23,-6021.18 2506.23,-6021.18 2506.23,-6021.18 2512.23,-6021.18 2518.23,-6027.18 2518.23,-6033.18 2518.23,-6033.18 2518.23,-6045.18 2518.23,-6045.18 2518.23,-6051.18 2512.23,-6057.18 2506.23,-6057.18"/>
<text text-anchor="middle" x="2451.23" y="-6035.48" font-family="Times,serif" font-size="14.00">{&#39;fileID&#39;: 808250886}</text>
</g>
<!-- 116 -->
<g id="node46" class="node">
<title>116</title>
<path fill="#b0e2ff" stroke="#b0e2ff" d="M3230.31,-5811.72C3230.31,-5811.72 3073.31,-5811.72 3073.31,-5811.72 3067.31,-5811.72 3061.31,-5805.72 3061.31,-5799.72 3061.31,-5799.72 3061.31,-5785.72 3061.31,-5785.72 3061.31,-5779.72 3067.31,-5773.72 3073.31,-5773.72 3073.31,-5773.72 3230.31,-5773.72 3230.31,-5773.72 3236.31,-5773.72 3242.31,-5779.72 3242.31,-5785.72 3242.31,-5785.72 3242.31,-5799.72 3242.31,-5799.72 3242.31,-5805.72 3236.31,-5811.72 3230.31,-5811.72"/>
<text text-anchor="middle" x="3151.81" y="-5796.52" font-family="Times,serif" font-size="14.00">GameObject_1_ID808250884</text>
<text text-anchor="middle" x="3151.81" y="-5781.52" font-family="Times,serif" font-size="14.00">Application</text>
</g>
<!-- 116&#45;&gt;120 -->
<g id="edge33" class="edge">
<title>116&#45;&gt;120</title>
<path fill="none" stroke="black" d="M3148.45,-5812.05C3126.42,-5938.74 3002.75,-6649.96 2976.45,-6801.22"/>
<polygon fill="black" stroke="black" points="2972.99,-6800.67 2974.73,-6811.12 2979.89,-6801.87 2972.99,-6800.67"/>
</g>
<!-- 116&#45;&gt;122 -->
<g id="edge34" class="edge">
<title>116&#45;&gt;122</title>
<path fill="none" stroke="black" d="M3158.16,-5811.89C3198.57,-5933.85 3419.6,-6600.98 3467.81,-6746.49"/>
<polygon fill="black" stroke="black" points="3464.63,-6748.02 3471.1,-6756.41 3471.28,-6745.82 3464.63,-6748.02"/>
</g>
<!-- 116&#45;&gt;124 -->
<g id="edge35" class="edge">
<title>116&#45;&gt;124</title>
<path fill="none" stroke="black" d="M3097.71,-5811.75C2969.49,-5856.86 2647.76,-5970.04 2512.57,-6017.6"/>
<polygon fill="black" stroke="black" points="2511.05,-6014.43 2502.78,-6021.05 2513.37,-6021.03 2511.05,-6014.43"/>
</g>
<!-- 131 -->
<g id="node47" class="node">
<title>131</title>
<path fill="lightpink" stroke="lightpink" d="M5304.77,-3278.88C5304.77,-3278.88 5194.77,-3278.88 5194.77,-3278.88 5188.77,-3278.88 5182.77,-3272.88 5182.77,-3266.88 5182.77,-3266.88 5182.77,-3254.88 5182.77,-3254.88 5182.77,-3248.88 5188.77,-3242.88 5194.77,-3242.88 5194.77,-3242.88 5304.77,-3242.88 5304.77,-3242.88 5310.77,-3242.88 5316.77,-3248.88 5316.77,-3254.88 5316.77,-3254.88 5316.77,-3266.88 5316.77,-3266.88 5316.77,-3272.88 5310.77,-3278.88 5304.77,-3278.88"/>
<text text-anchor="middle" x="5249.77" y="-3257.18" font-family="Times,serif" font-size="14.00">{&#39;fileID&#39;: 265550442}</text>
</g>
<!-- 133 -->
<g id="node48" class="node">
<title>133</title>
<path fill="lightpink" stroke="lightpink" d="M5515.66,-3525.96C5515.66,-3525.96 5405.66,-3525.96 5405.66,-3525.96 5399.66,-3525.96 5393.66,-3519.96 5393.66,-3513.96 5393.66,-3513.96 5393.66,-3501.96 5393.66,-3501.96 5393.66,-3495.96 5399.66,-3489.96 5405.66,-3489.96 5405.66,-3489.96 5515.66,-3489.96 5515.66,-3489.96 5521.66,-3489.96 5527.66,-3495.96 5527.66,-3501.96 5527.66,-3501.96 5527.66,-3513.96 5527.66,-3513.96 5527.66,-3519.96 5521.66,-3525.96 5515.66,-3525.96"/>
<text text-anchor="middle" x="5460.66" y="-3504.26" font-family="Times,serif" font-size="14.00">{&#39;fileID&#39;: 265550444}</text>
</g>
<!-- 135 -->
<g id="node49" class="node">
<title>135</title>
<path fill="lightpink" stroke="lightpink" d="M4416.01,-2705.29C4416.01,-2705.29 4306.01,-2705.29 4306.01,-2705.29 4300.01,-2705.29 4294.01,-2699.29 4294.01,-2693.29 4294.01,-2693.29 4294.01,-2681.29 4294.01,-2681.29 4294.01,-2675.29 4300.01,-2669.29 4306.01,-2669.29 4306.01,-2669.29 4416.01,-2669.29 4416.01,-2669.29 4422.01,-2669.29 4428.01,-2675.29 4428.01,-2681.29 4428.01,-2681.29 4428.01,-2693.29 4428.01,-2693.29 4428.01,-2699.29 4422.01,-2705.29 4416.01,-2705.29"/>
<text text-anchor="middle" x="4361.01" y="-2683.59" font-family="Times,serif" font-size="14.00">{&#39;fileID&#39;: 265550443}</text>
</g>
<!-- 127 -->
<g id="node50" class="node">
<title>127</title>
<path fill="#b0e2ff" stroke="#b0e2ff" d="M4482.67,-3260.49C4482.67,-3260.49 4325.67,-3260.49 4325.67,-3260.49 4319.67,-3260.49 4313.67,-3254.49 4313.67,-3248.49 4313.67,-3248.49 4313.67,-3234.49 4313.67,-3234.49 4313.67,-3228.49 4319.67,-3222.49 4325.67,-3222.49 4325.67,-3222.49 4482.67,-3222.49 4482.67,-3222.49 4488.67,-3222.49 4494.67,-3228.49 4494.67,-3234.49 4494.67,-3234.49 4494.67,-3248.49 4494.67,-3248.49 4494.67,-3254.49 4488.67,-3260.49 4482.67,-3260.49"/>
<text text-anchor="middle" x="4404.17" y="-3245.29" font-family="Times,serif" font-size="14.00">GameObject_1_ID265550441</text>
<text text-anchor="middle" x="4404.17" y="-3230.29" font-family="Times,serif" font-size="14.00">Text</text>
</g>
<!-- 127&#45;&gt;131 -->
<g id="edge36" class="edge">
<title>127&#45;&gt;131</title>
<path fill="none" stroke="black" d="M4495.07,-3243.58C4662.34,-3247.41 5016.09,-3255.52 5172.55,-3259.11"/>
<polygon fill="black" stroke="black" points="5172.49,-3262.61 5182.57,-3259.34 5172.65,-3255.61 5172.49,-3262.61"/>
</g>
<!-- 127&#45;&gt;133 -->
<g id="edge37" class="edge">
<title>127&#45;&gt;133</title>
<path fill="none" stroke="black" d="M4479.73,-3260.55C4673.77,-3309.49 5188.04,-3439.2 5383.66,-3488.54"/>
<polygon fill="black" stroke="black" points="5383.02,-3491.98 5393.57,-3491.04 5384.73,-3485.2 5383.02,-3491.98"/>
</g>
<!-- 127&#45;&gt;135 -->
<g id="edge38" class="edge">
<title>127&#45;&gt;135</title>
<path fill="none" stroke="black" d="M4402.69,-3222.42C4396.27,-3139.95 4370.87,-2813.86 4363.21,-2715.51"/>
<polygon fill="black" stroke="black" points="4366.69,-2715.14 4362.42,-2705.44 4359.71,-2715.68 4366.69,-2715.14"/>
</g>
<!-- 142 -->
<g id="node51" class="node">
<title>142</title>
<path fill="lightpink" stroke="lightpink" d="M4467.36,-6452.91C4467.36,-6452.91 4350.36,-6452.91 4350.36,-6452.91 4344.36,-6452.91 4338.36,-6446.91 4338.36,-6440.91 4338.36,-6440.91 4338.36,-6428.91 4338.36,-6428.91 4338.36,-6422.91 4344.36,-6416.91 4350.36,-6416.91 4350.36,-6416.91 4467.36,-6416.91 4467.36,-6416.91 4473.36,-6416.91 4479.36,-6422.91 4479.36,-6428.91 4479.36,-6428.91 4479.36,-6440.91 4479.36,-6440.91 4479.36,-6446.91 4473.36,-6452.91 4467.36,-6452.91"/>
<text text-anchor="middle" x="4408.86" y="-6431.21" font-family="Times,serif" font-size="14.00">{&#39;fileID&#39;: 1525520956}</text>
</g>
<!-- 144 -->
<g id="node52" class="node">
<title>144</title>
<path fill="lightpink" stroke="lightpink" d="M4553.99,-5847.78C4553.99,-5847.78 4436.99,-5847.78 4436.99,-5847.78 4430.99,-5847.78 4424.99,-5841.78 4424.99,-5835.78 4424.99,-5835.78 4424.99,-5823.78 4424.99,-5823.78 4424.99,-5817.78 4430.99,-5811.78 4436.99,-5811.78 4436.99,-5811.78 4553.99,-5811.78 4553.99,-5811.78 4559.99,-5811.78 4565.99,-5817.78 4565.99,-5823.78 4565.99,-5823.78 4565.99,-5835.78 4565.99,-5835.78 4565.99,-5841.78 4559.99,-5847.78 4553.99,-5847.78"/>
<text text-anchor="middle" x="4495.49" y="-5826.08" font-family="Times,serif" font-size="14.00">{&#39;fileID&#39;: 1525520959}</text>
</g>
<!-- 146 -->
<g id="node53" class="node">
<title>146</title>
<path fill="lightpink" stroke="lightpink" d="M4123.72,-5880.74C4123.72,-5880.74 4006.72,-5880.74 4006.72,-5880.74 4000.72,-5880.74 3994.72,-5874.74 3994.72,-5868.74 3994.72,-5868.74 3994.72,-5856.74 3994.72,-5856.74 3994.72,-5850.74 4000.72,-5844.74 4006.72,-5844.74 4006.72,-5844.74 4123.72,-5844.74 4123.72,-5844.74 4129.72,-5844.74 4135.72,-5850.74 4135.72,-5856.74 4135.72,-5856.74 4135.72,-5868.74 4135.72,-5868.74 4135.72,-5874.74 4129.72,-5880.74 4123.72,-5880.74"/>
<text text-anchor="middle" x="4065.22" y="-5859.04" font-family="Times,serif" font-size="14.00">{&#39;fileID&#39;: 1525520958}</text>
</g>
<!-- 148 -->
<g id="node54" class="node">
<title>148</title>
<path fill="lightpink" stroke="lightpink" d="M4848.01,-6051.51C4848.01,-6051.51 4731.01,-6051.51 4731.01,-6051.51 4725.01,-6051.51 4719.01,-6045.51 4719.01,-6039.51 4719.01,-6039.51 4719.01,-6027.51 4719.01,-6027.51 4719.01,-6021.51 4725.01,-6015.51 4731.01,-6015.51 4731.01,-6015.51 4848.01,-6015.51 4848.01,-6015.51 4854.01,-6015.51 4860.01,-6021.51 4860.01,-6027.51 4860.01,-6027.51 4860.01,-6039.51 4860.01,-6039.51 4860.01,-6045.51 4854.01,-6051.51 4848.01,-6051.51"/>
<text text-anchor="middle" x="4789.51" y="-6029.81" font-family="Times,serif" font-size="14.00">{&#39;fileID&#39;: 1525520957}</text>
</g>
<!-- 138 -->
<g id="node55" class="node">
<title>138</title>
<path fill="#b0e2ff" stroke="#b0e2ff" d="M4128.28,-5461.1C4128.28,-5461.1 3964.28,-5461.1 3964.28,-5461.1 3958.28,-5461.1 3952.28,-5455.1 3952.28,-5449.1 3952.28,-5449.1 3952.28,-5435.1 3952.28,-5435.1 3952.28,-5429.1 3958.28,-5423.1 3964.28,-5423.1 3964.28,-5423.1 4128.28,-5423.1 4128.28,-5423.1 4134.28,-5423.1 4140.28,-5429.1 4140.28,-5435.1 4140.28,-5435.1 4140.28,-5449.1 4140.28,-5449.1 4140.28,-5455.1 4134.28,-5461.1 4128.28,-5461.1"/>
<text text-anchor="middle" x="4046.28" y="-5445.9" font-family="Times,serif" font-size="14.00">GameObject_1_ID1525520955</text>
<text text-anchor="middle" x="4046.28" y="-5430.9" font-family="Times,serif" font-size="14.00">AboutButton</text>
</g>
<!-- 138&#45;&gt;142 -->
<g id="edge39" class="edge">
<title>138&#45;&gt;142</title>
<path fill="none" stroke="black" d="M4053.36,-5461.49C4098.44,-5584.94 4345.27,-6260.78 4398.67,-6407"/>
<polygon fill="black" stroke="black" points="4395.46,-6408.41 4402.18,-6416.6 4402.03,-6406.01 4395.46,-6408.41"/>
</g>
<!-- 138&#45;&gt;144 -->
<g id="edge40" class="edge">
<title>138&#45;&gt;144</title>
<path fill="none" stroke="black" d="M4068.55,-5461.33C4143,-5525.57 4383.14,-5732.81 4466.59,-5804.83"/>
<polygon fill="black" stroke="black" points="4464.54,-5807.69 4474.4,-5811.57 4469.11,-5802.39 4464.54,-5807.69"/>
</g>
<!-- 138&#45;&gt;146 -->
<g id="edge41" class="edge">
<title>138&#45;&gt;146</title>
<path fill="none" stroke="black" d="M4047.14,-5461.27C4050.17,-5528.5 4060.32,-5753.87 4063.93,-5834.09"/>
<polygon fill="black" stroke="black" points="4060.45,-5834.58 4064.39,-5844.41 4067.44,-5834.27 4060.45,-5834.58"/>
</g>
<!-- 138&#45;&gt;148 -->
<g id="edge42" class="edge">
<title>138&#45;&gt;148</title>
<path fill="none" stroke="black" d="M4070.16,-5461.11C4179.95,-5548.47 4635.97,-5911.34 4758.88,-6009.14"/>
<polygon fill="black" stroke="black" points="4756.81,-6011.96 4766.81,-6015.45 4761.17,-6006.49 4756.81,-6011.96"/>
</g>
<!-- 155 -->
<g id="node56" class="node">
<title>155</title>
<path fill="lightpink" stroke="lightpink" d="M4690.71,-4783.72C4690.71,-4783.72 4593.71,-4783.72 4593.71,-4783.72 4587.71,-4783.72 4581.71,-4777.72 4581.71,-4771.72 4581.71,-4771.72 4581.71,-4759.72 4581.71,-4759.72 4581.71,-4753.72 4587.71,-4747.72 4593.71,-4747.72 4593.71,-4747.72 4690.71,-4747.72 4690.71,-4747.72 4696.71,-4747.72 4702.71,-4753.72 4702.71,-4759.72 4702.71,-4759.72 4702.71,-4771.72 4702.71,-4771.72 4702.71,-4777.72 4696.71,-4783.72 4690.71,-4783.72"/>
<text text-anchor="middle" x="4642.21" y="-4762.02" font-family="Times,serif" font-size="14.00">{&#39;fileID&#39;: 5973996}</text>
</g>
<!-- 157 -->
<g id="node57" class="node">
<title>157</title>
<path fill="lightpink" stroke="lightpink" d="M3574.76,-5417.29C3574.76,-5417.29 3477.76,-5417.29 3477.76,-5417.29 3471.76,-5417.29 3465.76,-5411.29 3465.76,-5405.29 3465.76,-5405.29 3465.76,-5393.29 3465.76,-5393.29 3465.76,-5387.29 3471.76,-5381.29 3477.76,-5381.29 3477.76,-5381.29 3574.76,-5381.29 3574.76,-5381.29 3580.76,-5381.29 3586.76,-5387.29 3586.76,-5393.29 3586.76,-5393.29 3586.76,-5405.29 3586.76,-5405.29 3586.76,-5411.29 3580.76,-5417.29 3574.76,-5417.29"/>
<text text-anchor="middle" x="3526.26" y="-5395.59" font-family="Times,serif" font-size="14.00">{&#39;fileID&#39;: 5973997}</text>
</g>
<!-- 151 -->
<g id="node58" class="node">
<title>151</title>
<path fill="#b0e2ff" stroke="#b0e2ff" d="M3863.55,-4600.31C3863.55,-4600.31 3720.55,-4600.31 3720.55,-4600.31 3714.55,-4600.31 3708.55,-4594.31 3708.55,-4588.31 3708.55,-4588.31 3708.55,-4574.31 3708.55,-4574.31 3708.55,-4568.31 3714.55,-4562.31 3720.55,-4562.31 3720.55,-4562.31 3863.55,-4562.31 3863.55,-4562.31 3869.55,-4562.31 3875.55,-4568.31 3875.55,-4574.31 3875.55,-4574.31 3875.55,-4588.31 3875.55,-4588.31 3875.55,-4594.31 3869.55,-4600.31 3863.55,-4600.31"/>
<text text-anchor="middle" x="3792.05" y="-4585.11" font-family="Times,serif" font-size="14.00">GameObject_1_ID5973995</text>
<text text-anchor="middle" x="3792.05" y="-4570.11" font-family="Times,serif" font-size="14.00">GameObject</text>
</g>
<!-- 151&#45;&gt;155 -->
<g id="edge43" class="edge">
<title>151&#45;&gt;155</title>
<path fill="none" stroke="black" d="M3875.89,-4599.49C4043.24,-4635.79 4415.96,-4716.64 4571.7,-4750.42"/>
<polygon fill="black" stroke="black" points="4571.12,-4753.88 4581.64,-4752.58 4572.6,-4747.04 4571.12,-4753.88"/>
</g>
<!-- 151&#45;&gt;157 -->
<g id="edge44" class="edge">
<title>151&#45;&gt;157</title>
<path fill="none" stroke="black" d="M3785.87,-4600.32C3750.81,-4708.22 3576.98,-5243.22 3535.27,-5371.58"/>
<polygon fill="black" stroke="black" points="3531.94,-5370.5 3532.18,-5381.09 3538.6,-5372.66 3531.94,-5370.5"/>
</g>
<!-- 164 -->
<g id="node59" class="node">
<title>164</title>
<path fill="lightpink" stroke="lightpink" d="M6608.82,-4200.19C6608.82,-4200.19 6491.82,-4200.19 6491.82,-4200.19 6485.82,-4200.19 6479.82,-4194.19 6479.82,-4188.19 6479.82,-4188.19 6479.82,-4176.19 6479.82,-4176.19 6479.82,-4170.19 6485.82,-4164.19 6491.82,-4164.19 6491.82,-4164.19 6608.82,-4164.19 6608.82,-4164.19 6614.82,-4164.19 6620.82,-4170.19 6620.82,-4176.19 6620.82,-4176.19 6620.82,-4188.19 6620.82,-4188.19 6620.82,-4194.19 6614.82,-4200.19 6608.82,-4200.19"/>
<text text-anchor="middle" x="6550.32" y="-4178.49" font-family="Times,serif" font-size="14.00">{&#39;fileID&#39;: 1047482109}</text>
</g>
<!-- 166 -->
<g id="node60" class="node">
<title>166</title>
<path fill="lightpink" stroke="lightpink" d="M5766.79,-3734.82C5766.79,-3734.82 5649.79,-3734.82 5649.79,-3734.82 5643.79,-3734.82 5637.79,-3728.82 5637.79,-3722.82 5637.79,-3722.82 5637.79,-3710.82 5637.79,-3710.82 5637.79,-3704.82 5643.79,-3698.82 5649.79,-3698.82 5649.79,-3698.82 5766.79,-3698.82 5766.79,-3698.82 5772.79,-3698.82 5778.79,-3704.82 5778.79,-3710.82 5778.79,-3710.82 5778.79,-3722.82 5778.79,-3722.82 5778.79,-3728.82 5772.79,-3734.82 5766.79,-3734.82"/>
<text text-anchor="middle" x="5708.29" y="-3713.12" font-family="Times,serif" font-size="14.00">{&#39;fileID&#39;: 1047482108}</text>
</g>
<!-- 168 -->
<g id="node61" class="node">
<title>168</title>
<path fill="lightpink" stroke="lightpink" d="M6415.3,-4799.49C6415.3,-4799.49 6298.3,-4799.49 6298.3,-4799.49 6292.3,-4799.49 6286.3,-4793.49 6286.3,-4787.49 6286.3,-4787.49 6286.3,-4775.49 6286.3,-4775.49 6286.3,-4769.49 6292.3,-4763.49 6298.3,-4763.49 6298.3,-4763.49 6415.3,-4763.49 6415.3,-4763.49 6421.3,-4763.49 6427.3,-4769.49 6427.3,-4775.49 6427.3,-4775.49 6427.3,-4787.49 6427.3,-4787.49 6427.3,-4793.49 6421.3,-4799.49 6415.3,-4799.49"/>
<text text-anchor="middle" x="6356.8" y="-4777.79" font-family="Times,serif" font-size="14.00">{&#39;fileID&#39;: 1047482107}</text>
</g>
<!-- 160 -->
<g id="node62" class="node">
<title>160</title>
<path fill="#b0e2ff" stroke="#b0e2ff" d="M5331.67,-4119.67C5331.67,-4119.67 5167.67,-4119.67 5167.67,-4119.67 5161.67,-4119.67 5155.67,-4113.67 5155.67,-4107.67 5155.67,-4107.67 5155.67,-4093.67 5155.67,-4093.67 5155.67,-4087.67 5161.67,-4081.67 5167.67,-4081.67 5167.67,-4081.67 5331.67,-4081.67 5331.67,-4081.67 5337.67,-4081.67 5343.67,-4087.67 5343.67,-4093.67 5343.67,-4093.67 5343.67,-4107.67 5343.67,-4107.67 5343.67,-4113.67 5337.67,-4119.67 5331.67,-4119.67"/>
<text text-anchor="middle" x="5249.67" y="-4104.47" font-family="Times,serif" font-size="14.00">GameObject_1_ID1047482106</text>
<text text-anchor="middle" x="5249.67" y="-4089.47" font-family="Times,serif" font-size="14.00">Main Camera</text>
</g>
<!-- 160&#45;&gt;164 -->
<g id="edge45" class="edge">
<title>160&#45;&gt;164</title>
<path fill="none" stroke="black" d="M5343.73,-4106.57C5588.12,-4121.88 6240.04,-4162.74 6469.25,-4177.11"/>
<polygon fill="black" stroke="black" points="6469.32,-4180.62 6479.52,-4177.75 6469.75,-4173.63 6469.32,-4180.62"/>
</g>
<!-- 160&#45;&gt;166 -->
<g id="edge46" class="edge">
<title>160&#45;&gt;166</title>
<path fill="none" stroke="black" d="M5272.41,-4081.64C5348.49,-4017.96 5594.08,-3812.42 5679.04,-3741.3"/>
<polygon fill="black" stroke="black" points="5681.33,-3743.95 5686.75,-3734.85 5676.84,-3738.59 5681.33,-3743.95"/>
</g>
<!-- 160&#45;&gt;168 -->
<g id="edge47" class="edge">
<title>160&#45;&gt;168</title>
<path fill="none" stroke="black" d="M5280.73,-4119.77C5438.04,-4216.51 6146.14,-4651.95 6318.77,-4758.1"/>
<polygon fill="black" stroke="black" points="6317.16,-4761.22 6327.51,-4763.48 6320.83,-4755.26 6317.16,-4761.22"/>
</g>
<!-- 175 -->
<g id="node63" class="node">
<title>175</title>
<path fill="lightpink" stroke="lightpink" d="M5645.52,-2464.57C5645.52,-2464.57 5528.52,-2464.57 5528.52,-2464.57 5522.52,-2464.57 5516.52,-2458.57 5516.52,-2452.57 5516.52,-2452.57 5516.52,-2440.57 5516.52,-2440.57 5516.52,-2434.57 5522.52,-2428.57 5528.52,-2428.57 5528.52,-2428.57 5645.52,-2428.57 5645.52,-2428.57 5651.52,-2428.57 5657.52,-2434.57 5657.52,-2440.57 5657.52,-2440.57 5657.52,-2452.57 5657.52,-2452.57 5657.52,-2458.57 5651.52,-2464.57 5645.52,-2464.57"/>
<text text-anchor="middle" x="5587.02" y="-2442.87" font-family="Times,serif" font-size="14.00">{&#39;fileID&#39;: 1908155156}</text>
</g>
<!-- 177 -->
<g id="node64" class="node">
<title>177</title>
<path fill="lightpink" stroke="lightpink" d="M5877.08,-2030.37C5877.08,-2030.37 5760.08,-2030.37 5760.08,-2030.37 5754.08,-2030.37 5748.08,-2024.37 5748.08,-2018.37 5748.08,-2018.37 5748.08,-2006.37 5748.08,-2006.37 5748.08,-2000.37 5754.08,-1994.37 5760.08,-1994.37 5760.08,-1994.37 5877.08,-1994.37 5877.08,-1994.37 5883.08,-1994.37 5889.08,-2000.37 5889.08,-2006.37 5889.08,-2006.37 5889.08,-2018.37 5889.08,-2018.37 5889.08,-2024.37 5883.08,-2030.37 5877.08,-2030.37"/>
<text text-anchor="middle" x="5818.58" y="-2008.67" font-family="Times,serif" font-size="14.00">{&#39;fileID&#39;: 1908155158}</text>
</g>
<!-- 179 -->
<g id="node65" class="node">
<title>179</title>
<path fill="lightpink" stroke="lightpink" d="M4826.13,-1933.61C4826.13,-1933.61 4709.13,-1933.61 4709.13,-1933.61 4703.13,-1933.61 4697.13,-1927.61 4697.13,-1921.61 4697.13,-1921.61 4697.13,-1909.61 4697.13,-1909.61 4697.13,-1903.61 4703.13,-1897.61 4709.13,-1897.61 4709.13,-1897.61 4826.13,-1897.61 4826.13,-1897.61 4832.13,-1897.61 4838.13,-1903.61 4838.13,-1909.61 4838.13,-1909.61 4838.13,-1921.61 4838.13,-1921.61 4838.13,-1927.61 4832.13,-1933.61 4826.13,-1933.61"/>
<text text-anchor="middle" x="4767.63" y="-1911.91" font-family="Times,serif" font-size="14.00">{&#39;fileID&#39;: 1908155157}</text>
</g>
<!-- 171 -->
<g id="node66" class="node">
<title>171</title>
<path fill="#b0e2ff" stroke="#b0e2ff" d="M4911.56,-2678.9C4911.56,-2678.9 4747.56,-2678.9 4747.56,-2678.9 4741.56,-2678.9 4735.56,-2672.9 4735.56,-2666.9 4735.56,-2666.9 4735.56,-2652.9 4735.56,-2652.9 4735.56,-2646.9 4741.56,-2640.9 4747.56,-2640.9 4747.56,-2640.9 4911.56,-2640.9 4911.56,-2640.9 4917.56,-2640.9 4923.56,-2646.9 4923.56,-2652.9 4923.56,-2652.9 4923.56,-2666.9 4923.56,-2666.9 4923.56,-2672.9 4917.56,-2678.9 4911.56,-2678.9"/>
<text text-anchor="middle" x="4829.56" y="-2663.7" font-family="Times,serif" font-size="14.00">GameObject_1_ID1908155155</text>
<text text-anchor="middle" x="4829.56" y="-2648.7" font-family="Times,serif" font-size="14.00">Header</text>
</g>
<!-- 171&#45;&gt;175 -->
<g id="edge48" class="edge">
<title>171&#45;&gt;175</title>
<path fill="none" stroke="black" d="M4897.12,-2640.88C5038.81,-2600.97 5366.09,-2508.79 5513.13,-2467.38"/>
<polygon fill="black" stroke="black" points="5514.3,-2470.69 5522.98,-2464.61 5512.4,-2463.95 5514.3,-2470.69"/>
</g>
<!-- 171&#45;&gt;177 -->
<g id="edge49" class="edge">
<title>171&#45;&gt;177</title>
<path fill="none" stroke="black" d="M4858.63,-2640.87C5001.11,-2547.59 5625.29,-2138.93 5782.52,-2035.98"/>
<polygon fill="black" stroke="black" points="5784.48,-2038.88 5790.93,-2030.47 5780.65,-2033.02 5784.48,-2038.88"/>
</g>
<!-- 171&#45;&gt;179 -->
<g id="edge50" class="edge">
<title>171&#45;&gt;179</title>
<path fill="none" stroke="black" d="M4827.97,-2640.75C4819.53,-2539.37 4780.08,-2065.22 4769.98,-1943.92"/>
<polygon fill="black" stroke="black" points="4773.44,-1943.29 4769.12,-1933.62 4766.47,-1943.87 4773.44,-1943.29"/>
</g>
<!-- 186 -->
<g id="node67" class="node">
<title>186</title>
<path fill="lightpink" stroke="lightpink" d="M4818.93,-3663.36C4818.93,-3663.36 4708.93,-3663.36 4708.93,-3663.36 4702.93,-3663.36 4696.93,-3657.36 4696.93,-3651.36 4696.93,-3651.36 4696.93,-3639.36 4696.93,-3639.36 4696.93,-3633.36 4702.93,-3627.36 4708.93,-3627.36 4708.93,-3627.36 4818.93,-3627.36 4818.93,-3627.36 4824.93,-3627.36 4830.93,-3633.36 4830.93,-3639.36 4830.93,-3639.36 4830.93,-3651.36 4830.93,-3651.36 4830.93,-3657.36 4824.93,-3663.36 4818.93,-3663.36"/>
<text text-anchor="middle" x="4763.93" y="-3641.66" font-family="Times,serif" font-size="14.00">{&#39;fileID&#39;: 628076940}</text>
</g>
<!-- 188 -->
<g id="node68" class="node">
<title>188</title>
<path fill="lightpink" stroke="lightpink" d="M3788.21,-4197.98C3788.21,-4197.98 3678.21,-4197.98 3678.21,-4197.98 3672.21,-4197.98 3666.21,-4191.98 3666.21,-4185.98 3666.21,-4185.98 3666.21,-4173.98 3666.21,-4173.98 3666.21,-4167.98 3672.21,-4161.98 3678.21,-4161.98 3678.21,-4161.98 3788.21,-4161.98 3788.21,-4161.98 3794.21,-4161.98 3800.21,-4167.98 3800.21,-4173.98 3800.21,-4173.98 3800.21,-4185.98 3800.21,-4185.98 3800.21,-4191.98 3794.21,-4197.98 3788.21,-4197.98"/>
<text text-anchor="middle" x="3733.21" y="-4176.28" font-family="Times,serif" font-size="14.00">{&#39;fileID&#39;: 628076942}</text>
</g>
<!-- 190 -->
<g id="node69" class="node">
<title>190</title>
<path fill="lightpink" stroke="lightpink" d="M4043.58,-3349.69C4043.58,-3349.69 3933.58,-3349.69 3933.58,-3349.69 3927.58,-3349.69 3921.58,-3343.69 3921.58,-3337.69 3921.58,-3337.69 3921.58,-3325.69 3921.58,-3325.69 3921.58,-3319.69 3927.58,-3313.69 3933.58,-3313.69 3933.58,-3313.69 4043.58,-3313.69 4043.58,-3313.69 4049.58,-3313.69 4055.58,-3319.69 4055.58,-3325.69 4055.58,-3325.69 4055.58,-3337.69 4055.58,-3337.69 4055.58,-3343.69 4049.58,-3349.69 4043.58,-3349.69"/>
<text text-anchor="middle" x="3988.58" y="-3327.99" font-family="Times,serif" font-size="14.00">{&#39;fileID&#39;: 628076941}</text>
</g>
<!-- 182 -->
<g id="node70" class="node">
<title>182</title>
<path fill="#b0e2ff" stroke="#b0e2ff" d="M4335.02,-3561.59C4335.02,-3561.59 4178.02,-3561.59 4178.02,-3561.59 4172.02,-3561.59 4166.02,-3555.59 4166.02,-3549.59 4166.02,-3549.59 4166.02,-3535.59 4166.02,-3535.59 4166.02,-3529.59 4172.02,-3523.59 4178.02,-3523.59 4178.02,-3523.59 4335.02,-3523.59 4335.02,-3523.59 4341.02,-3523.59 4347.02,-3529.59 4347.02,-3535.59 4347.02,-3535.59 4347.02,-3549.59 4347.02,-3549.59 4347.02,-3555.59 4341.02,-3561.59 4335.02,-3561.59"/>
<text text-anchor="middle" x="4256.52" y="-3546.39" font-family="Times,serif" font-size="14.00">GameObject_1_ID628076939</text>
<text text-anchor="middle" x="4256.52" y="-3531.39" font-family="Times,serif" font-size="14.00">Copyright</text>
</g>
<!-- 182&#45;&gt;186 -->
<g id="edge51" class="edge">
<title>182&#45;&gt;186</title>
<path fill="none" stroke="black" d="M4347.23,-3560.96C4443.95,-3580.55 4595.46,-3611.24 4686.68,-3629.71"/>
<polygon fill="black" stroke="black" points="4686.18,-3633.18 4696.68,-3631.74 4687.57,-3626.32 4686.18,-3633.18"/>
</g>
<!-- 182&#45;&gt;188 -->
<g id="edge52" class="edge">
<title>182&#45;&gt;188</title>
<path fill="none" stroke="black" d="M4240.85,-3561.66C4165.6,-3653.32 3841.22,-4048.42 3754.56,-4153.97"/>
<polygon fill="black" stroke="black" points="3751.69,-4151.95 3748.05,-4161.9 3757.1,-4156.39 3751.69,-4151.95"/>
</g>
<!-- 182&#45;&gt;190 -->
<g id="edge53" class="edge">
<title>182&#45;&gt;190</title>
<path fill="none" stroke="black" d="M4232.27,-3523.5C4183.6,-3485.19 4074.08,-3398.99 4020,-3356.42"/>
<polygon fill="black" stroke="black" points="4021.84,-3353.42 4011.82,-3349.98 4017.51,-3358.92 4021.84,-3353.42"/>
</g>
<!-- 197 -->
<g id="node71" class="node">
<title>197</title>
<path fill="lightpink" stroke="lightpink" d="M2182.07,-4123.35C2182.07,-4123.35 2072.07,-4123.35 2072.07,-4123.35 2066.07,-4123.35 2060.07,-4117.35 2060.07,-4111.35 2060.07,-4111.35 2060.07,-4099.35 2060.07,-4099.35 2060.07,-4093.35 2066.07,-4087.35 2072.07,-4087.35 2072.07,-4087.35 2182.07,-4087.35 2182.07,-4087.35 2188.07,-4087.35 2194.07,-4093.35 2194.07,-4099.35 2194.07,-4099.35 2194.07,-4111.35 2194.07,-4111.35 2194.07,-4117.35 2188.07,-4123.35 2182.07,-4123.35"/>
<text text-anchor="middle" x="2127.07" y="-4101.65" font-family="Times,serif" font-size="14.00">{&#39;fileID&#39;: 138731493}</text>
</g>
<!-- 199 -->
<g id="node72" class="node">
<title>199</title>
<path fill="lightpink" stroke="lightpink" d="M1103.3,-3956.94C1103.3,-3956.94 993.3,-3956.94 993.3,-3956.94 987.3,-3956.94 981.3,-3950.94 981.3,-3944.94 981.3,-3944.94 981.3,-3932.94 981.3,-3932.94 981.3,-3926.94 987.3,-3920.94 993.3,-3920.94 993.3,-3920.94 1103.3,-3920.94 1103.3,-3920.94 1109.3,-3920.94 1115.3,-3926.94 1115.3,-3932.94 1115.3,-3932.94 1115.3,-3944.94 1115.3,-3944.94 1115.3,-3950.94 1109.3,-3956.94 1103.3,-3956.94"/>
<text text-anchor="middle" x="1048.3" y="-3935.24" font-family="Times,serif" font-size="14.00">{&#39;fileID&#39;: 138731494}</text>
</g>
<!-- 193 -->
<g id="node73" class="node">
<title>193</title>
<path fill="#b0e2ff" stroke="#b0e2ff" d="M2240.59,-3982.54C2240.59,-3982.54 2083.59,-3982.54 2083.59,-3982.54 2077.59,-3982.54 2071.59,-3976.54 2071.59,-3970.54 2071.59,-3970.54 2071.59,-3956.54 2071.59,-3956.54 2071.59,-3950.54 2077.59,-3944.54 2083.59,-3944.54 2083.59,-3944.54 2240.59,-3944.54 2240.59,-3944.54 2246.59,-3944.54 2252.59,-3950.54 2252.59,-3956.54 2252.59,-3956.54 2252.59,-3970.54 2252.59,-3970.54 2252.59,-3976.54 2246.59,-3982.54 2240.59,-3982.54"/>
<text text-anchor="middle" x="2162.09" y="-3967.34" font-family="Times,serif" font-size="14.00">GameObject_1_ID138731492</text>
<text text-anchor="middle" x="2162.09" y="-3952.34" font-family="Times,serif" font-size="14.00">Text</text>
</g>
<!-- 193&#45;&gt;197 -->
<g id="edge54" class="edge">
<title>193&#45;&gt;197</title>
<path fill="none" stroke="black" d="M2157.37,-3982.66C2151.38,-4006.93 2140.99,-4048.99 2134.07,-4077"/>
<polygon fill="black" stroke="black" points="2130.6,-4076.43 2131.6,-4086.97 2137.4,-4078.11 2130.6,-4076.43"/>
</g>
<!-- 193&#45;&gt;199 -->
<g id="edge55" class="edge">
<title>193&#45;&gt;199</title>
<path fill="none" stroke="black" d="M2071.42,-3961.54C1857.66,-3956.82 1325.23,-3945.06 1125.56,-3940.65"/>
<polygon fill="black" stroke="black" points="1125.53,-3937.14 1115.45,-3940.42 1125.37,-3944.14 1125.53,-3937.14"/>
</g>
<!-- 206 -->
<g id="node74" class="node">
<title>206</title>
<path fill="lightpink" stroke="lightpink" d="M749.06,-2523.43C749.06,-2523.43 632.06,-2523.43 632.06,-2523.43 626.06,-2523.43 620.06,-2517.43 620.06,-2511.43 620.06,-2511.43 620.06,-2499.43 620.06,-2499.43 620.06,-2493.43 626.06,-2487.43 632.06,-2487.43 632.06,-2487.43 749.06,-2487.43 749.06,-2487.43 755.06,-2487.43 761.06,-2493.43 761.06,-2499.43 761.06,-2499.43 761.06,-2511.43 761.06,-2511.43 761.06,-2517.43 755.06,-2523.43 749.06,-2523.43"/>
<text text-anchor="middle" x="690.56" y="-2501.73" font-family="Times,serif" font-size="14.00">{&#39;fileID&#39;: 1093729420}</text>
</g>
<!-- 208 -->
<g id="node75" class="node">
<title>208</title>
<path fill="lightpink" stroke="lightpink" d="M128.84,-3125.19C128.84,-3125.19 11.84,-3125.19 11.84,-3125.19 5.84,-3125.19 -0.16,-3119.19 -0.16,-3113.19 -0.16,-3113.19 -0.16,-3101.19 -0.16,-3101.19 -0.16,-3095.19 5.84,-3089.19 11.84,-3089.19 11.84,-3089.19 128.84,-3089.19 128.84,-3089.19 134.84,-3089.19 140.84,-3095.19 140.84,-3101.19 140.84,-3101.19 140.84,-3113.19 140.84,-3113.19 140.84,-3119.19 134.84,-3125.19 128.84,-3125.19"/>
<text text-anchor="middle" x="70.34" y="-3103.49" font-family="Times,serif" font-size="14.00">{&#39;fileID&#39;: 1093729422}</text>
</g>
<!-- 210 -->
<g id="node76" class="node">
<title>210</title>
<path fill="lightpink" stroke="lightpink" d="M288.38,-3884.01C288.38,-3884.01 171.38,-3884.01 171.38,-3884.01 165.38,-3884.01 159.38,-3878.01 159.38,-3872.01 159.38,-3872.01 159.38,-3860.01 159.38,-3860.01 159.38,-3854.01 165.38,-3848.01 171.38,-3848.01 171.38,-3848.01 288.38,-3848.01 288.38,-3848.01 294.38,-3848.01 300.38,-3854.01 300.38,-3860.01 300.38,-3860.01 300.38,-3872.01 300.38,-3872.01 300.38,-3878.01 294.38,-3884.01 288.38,-3884.01"/>
<text text-anchor="middle" x="229.88" y="-3862.31" font-family="Times,serif" font-size="14.00">{&#39;fileID&#39;: 1093729421}</text>
</g>
<!-- 202 -->
<g id="node77" class="node">
<title>202</title>
<path fill="#b0e2ff" stroke="#b0e2ff" d="M1225.73,-3511.53C1225.73,-3511.53 1061.73,-3511.53 1061.73,-3511.53 1055.73,-3511.53 1049.73,-3505.53 1049.73,-3499.53 1049.73,-3499.53 1049.73,-3485.53 1049.73,-3485.53 1049.73,-3479.53 1055.73,-3473.53 1061.73,-3473.53 1061.73,-3473.53 1225.73,-3473.53 1225.73,-3473.53 1231.73,-3473.53 1237.73,-3479.53 1237.73,-3485.53 1237.73,-3485.53 1237.73,-3499.53 1237.73,-3499.53 1237.73,-3505.53 1231.73,-3511.53 1225.73,-3511.53"/>
<text text-anchor="middle" x="1143.73" y="-3496.33" font-family="Times,serif" font-size="14.00">GameObject_1_ID1093729419</text>
<text text-anchor="middle" x="1143.73" y="-3481.33" font-family="Times,serif" font-size="14.00">Text</text>
</g>
<!-- 202&#45;&gt;206 -->
<g id="edge56" class="edge">
<title>202&#45;&gt;206</title>
<path fill="none" stroke="black" d="M1134.88,-3473.26C1078.47,-3350.39 769.42,-2677.22 703.1,-2532.74"/>
<polygon fill="black" stroke="black" points="706.27,-2531.26 698.92,-2523.64 699.91,-2534.18 706.27,-2531.26"/>
</g>
<!-- 202&#45;&gt;208 -->
<g id="edge57" class="edge">
<title>202&#45;&gt;208</title>
<path fill="none" stroke="black" d="M1090.5,-3473.42C909.83,-3408.57 320.77,-3197.09 130.32,-3128.72"/>
<polygon fill="black" stroke="black" points="131.35,-3125.37 120.75,-3125.29 128.98,-3131.96 131.35,-3125.37"/>
</g>
<!-- 202&#45;&gt;210 -->
<g id="edge58" class="edge">
<title>202&#45;&gt;210</title>
<path fill="none" stroke="black" d="M1097.15,-3511.57C942.65,-3574.71 447.54,-3777.05 283.35,-3844.15"/>
<polygon fill="black" stroke="black" points="281.87,-3840.98 273.93,-3848 284.52,-3847.46 281.87,-3840.98"/>
</g>
<!-- 217 -->
<g id="node78" class="node">
<title>217</title>
<path fill="lightpink" stroke="lightpink" d="M3160.25,-4344.28C3160.25,-4344.28 3050.25,-4344.28 3050.25,-4344.28 3044.25,-4344.28 3038.25,-4338.28 3038.25,-4332.28 3038.25,-4332.28 3038.25,-4320.28 3038.25,-4320.28 3038.25,-4314.28 3044.25,-4308.28 3050.25,-4308.28 3050.25,-4308.28 3160.25,-4308.28 3160.25,-4308.28 3166.25,-4308.28 3172.25,-4314.28 3172.25,-4320.28 3172.25,-4320.28 3172.25,-4332.28 3172.25,-4332.28 3172.25,-4338.28 3166.25,-4344.28 3160.25,-4344.28"/>
<text text-anchor="middle" x="3105.25" y="-4322.58" font-family="Times,serif" font-size="14.00">{&#39;fileID&#39;: 361157716}</text>
</g>
<!-- 219 -->
<g id="node79" class="node">
<title>219</title>
<path fill="lightpink" stroke="lightpink" d="M3204.93,-3600.46C3204.93,-3600.46 3094.93,-3600.46 3094.93,-3600.46 3088.93,-3600.46 3082.93,-3594.46 3082.93,-3588.46 3082.93,-3588.46 3082.93,-3576.46 3082.93,-3576.46 3082.93,-3570.46 3088.93,-3564.46 3094.93,-3564.46 3094.93,-3564.46 3204.93,-3564.46 3204.93,-3564.46 3210.93,-3564.46 3216.93,-3570.46 3216.93,-3576.46 3216.93,-3576.46 3216.93,-3588.46 3216.93,-3588.46 3216.93,-3594.46 3210.93,-3600.46 3204.93,-3600.46"/>
<text text-anchor="middle" x="3149.93" y="-3578.76" font-family="Times,serif" font-size="14.00">{&#39;fileID&#39;: 361157715}</text>
</g>
<!-- 221 -->
<g id="node80" class="node">
<title>221</title>
<path fill="lightpink" stroke="lightpink" d="M2380.63,-4926.37C2380.63,-4926.37 2270.63,-4926.37 2270.63,-4926.37 2264.63,-4926.37 2258.63,-4920.37 2258.63,-4914.37 2258.63,-4914.37 2258.63,-4902.37 2258.63,-4902.37 2258.63,-4896.37 2264.63,-4890.37 2270.63,-4890.37 2270.63,-4890.37 2380.63,-4890.37 2380.63,-4890.37 2386.63,-4890.37 2392.63,-4896.37 2392.63,-4902.37 2392.63,-4902.37 2392.63,-4914.37 2392.63,-4914.37 2392.63,-4920.37 2386.63,-4926.37 2380.63,-4926.37"/>
<text text-anchor="middle" x="2325.63" y="-4904.67" font-family="Times,serif" font-size="14.00">{&#39;fileID&#39;: 361157714}</text>
</g>
<!-- 213 -->
<g id="node81" class="node">
<title>213</title>
<path fill="#b0e2ff" stroke="#b0e2ff" d="M2906.97,-4166.95C2906.97,-4166.95 2749.97,-4166.95 2749.97,-4166.95 2743.97,-4166.95 2737.97,-4160.95 2737.97,-4154.95 2737.97,-4154.95 2737.97,-4140.95 2737.97,-4140.95 2737.97,-4134.95 2743.97,-4128.95 2749.97,-4128.95 2749.97,-4128.95 2906.97,-4128.95 2906.97,-4128.95 2912.97,-4128.95 2918.97,-4134.95 2918.97,-4140.95 2918.97,-4140.95 2918.97,-4154.95 2918.97,-4154.95 2918.97,-4160.95 2912.97,-4166.95 2906.97,-4166.95"/>
<text text-anchor="middle" x="2828.47" y="-4151.75" font-family="Times,serif" font-size="14.00">GameObject_1_ID361157713</text>
<text text-anchor="middle" x="2828.47" y="-4136.75" font-family="Times,serif" font-size="14.00">EventSystem</text>
</g>
<!-- 213&#45;&gt;217 -->
<g id="edge59" class="edge">
<title>213&#45;&gt;217</title>
<path fill="none" stroke="black" d="M2858.09,-4167.04C2909.05,-4199.87 3013.19,-4266.96 3068.62,-4302.68"/>
<polygon fill="black" stroke="black" points="3066.79,-4305.66 3077.09,-4308.13 3070.58,-4299.77 3066.79,-4305.66"/>
</g>
<!-- 213&#45;&gt;219 -->
<g id="edge60" class="edge">
<title>213&#45;&gt;219</title>
<path fill="none" stroke="black" d="M2839.35,-4128.81C2887.16,-4044.71 3078.71,-3707.74 3134.57,-3609.48"/>
<polygon fill="black" stroke="black" points="3137.64,-3611.16 3139.54,-3600.73 3131.56,-3607.7 3137.64,-3611.16"/>
</g>
<!-- 213&#45;&gt;221 -->
<g id="edge61" class="edge">
<title>213&#45;&gt;221</title>
<path fill="none" stroke="black" d="M2815.79,-4167.13C2747.43,-4270.51 2422.97,-4761.17 2343.32,-4881.62"/>
<polygon fill="black" stroke="black" points="2340.2,-4880 2337.6,-4890.27 2346.04,-4883.86 2340.2,-4880"/>
</g>
<!-- 228 -->
<g id="node82" class="node">
<title>228</title>
<path fill="lightpink" stroke="lightpink" d="M3071.24,-5692.43C3071.24,-5692.43 2961.24,-5692.43 2961.24,-5692.43 2955.24,-5692.43 2949.24,-5686.43 2949.24,-5680.43 2949.24,-5680.43 2949.24,-5668.43 2949.24,-5668.43 2949.24,-5662.43 2955.24,-5656.43 2961.24,-5656.43 2961.24,-5656.43 3071.24,-5656.43 3071.24,-5656.43 3077.24,-5656.43 3083.24,-5662.43 3083.24,-5668.43 3083.24,-5668.43 3083.24,-5680.43 3083.24,-5680.43 3083.24,-5686.43 3077.24,-5692.43 3071.24,-5692.43"/>
<text text-anchor="middle" x="3016.24" y="-5670.73" font-family="Times,serif" font-size="14.00">{&#39;fileID&#39;: 301893719}</text>
</g>
<!-- 230 -->
<g id="node83" class="node">
<title>230</title>
<path fill="lightpink" stroke="lightpink" d="M2651.13,-5473.69C2651.13,-5473.69 2541.13,-5473.69 2541.13,-5473.69 2535.13,-5473.69 2529.13,-5467.69 2529.13,-5461.69 2529.13,-5461.69 2529.13,-5449.69 2529.13,-5449.69 2529.13,-5443.69 2535.13,-5437.69 2541.13,-5437.69 2541.13,-5437.69 2651.13,-5437.69 2651.13,-5437.69 2657.13,-5437.69 2663.13,-5443.69 2663.13,-5449.69 2663.13,-5449.69 2663.13,-5461.69 2663.13,-5461.69 2663.13,-5467.69 2657.13,-5473.69 2651.13,-5473.69"/>
<text text-anchor="middle" x="2596.13" y="-5451.99" font-family="Times,serif" font-size="14.00">{&#39;fileID&#39;: 301893721}</text>
</g>
<!-- 232 -->
<g id="node84" class="node">
<title>232</title>
<path fill="lightpink" stroke="lightpink" d="M3670.32,-4949.01C3670.32,-4949.01 3560.32,-4949.01 3560.32,-4949.01 3554.32,-4949.01 3548.32,-4943.01 3548.32,-4937.01 3548.32,-4937.01 3548.32,-4925.01 3548.32,-4925.01 3548.32,-4919.01 3554.32,-4913.01 3560.32,-4913.01 3560.32,-4913.01 3670.32,-4913.01 3670.32,-4913.01 3676.32,-4913.01 3682.32,-4919.01 3682.32,-4925.01 3682.32,-4925.01 3682.32,-4937.01 3682.32,-4937.01 3682.32,-4943.01 3676.32,-4949.01 3670.32,-4949.01"/>
<text text-anchor="middle" x="3615.32" y="-4927.31" font-family="Times,serif" font-size="14.00">{&#39;fileID&#39;: 301893720}</text>
</g>
<!-- 224 -->
<g id="node85" class="node">
<title>224</title>
<path fill="#b0e2ff" stroke="#b0e2ff" d="M3135.42,-4929.13C3135.42,-4929.13 2978.42,-4929.13 2978.42,-4929.13 2972.42,-4929.13 2966.42,-4923.13 2966.42,-4917.13 2966.42,-4917.13 2966.42,-4903.13 2966.42,-4903.13 2966.42,-4897.13 2972.42,-4891.13 2978.42,-4891.13 2978.42,-4891.13 3135.42,-4891.13 3135.42,-4891.13 3141.42,-4891.13 3147.42,-4897.13 3147.42,-4903.13 3147.42,-4903.13 3147.42,-4917.13 3147.42,-4917.13 3147.42,-4923.13 3141.42,-4929.13 3135.42,-4929.13"/>
<text text-anchor="middle" x="3056.92" y="-4913.93" font-family="Times,serif" font-size="14.00">GameObject_1_ID301893718</text>
<text text-anchor="middle" x="3056.92" y="-4898.93" font-family="Times,serif" font-size="14.00">About</text>
</g>
<!-- 224&#45;&gt;228 -->
<g id="edge62" class="edge">
<title>224&#45;&gt;228</title>
<path fill="none" stroke="black" d="M3055.89,-4929.41C3050.38,-5032.9 3024.33,-5522.53 3017.75,-5646.07"/>
<polygon fill="black" stroke="black" points="3014.25,-5646.06 3017.21,-5656.23 3021.24,-5646.43 3014.25,-5646.06"/>
</g>
<!-- 224&#45;&gt;230 -->
<g id="edge63" class="edge">
<title>224&#45;&gt;230</title>
<path fill="none" stroke="black" d="M3040.79,-4929.23C2971.36,-5011.43 2697.92,-5335.18 2618.11,-5429.67"/>
<polygon fill="black" stroke="black" points="2615.2,-5427.69 2611.42,-5437.59 2620.55,-5432.21 2615.2,-5427.69"/>
</g>
<!-- 224&#45;&gt;232 -->
<g id="edge64" class="edge">
<title>224&#45;&gt;232</title>
<path fill="none" stroke="black" d="M3147.57,-4913.52C3255.96,-4917.57 3435.52,-4924.29 3537.76,-4928.11"/>
<polygon fill="black" stroke="black" points="3537.89,-4931.62 3548.02,-4928.5 3538.16,-4924.63 3537.89,-4931.62"/>
</g>
<!-- 239 -->
<g id="node86" class="node">
<title>239</title>
<path fill="lightpink" stroke="lightpink" d="M1445.84,-4945.42C1445.84,-4945.42 1335.84,-4945.42 1335.84,-4945.42 1329.84,-4945.42 1323.84,-4939.42 1323.84,-4933.42 1323.84,-4933.42 1323.84,-4921.42 1323.84,-4921.42 1323.84,-4915.42 1329.84,-4909.42 1335.84,-4909.42 1335.84,-4909.42 1445.84,-4909.42 1445.84,-4909.42 1451.84,-4909.42 1457.84,-4915.42 1457.84,-4921.42 1457.84,-4921.42 1457.84,-4933.42 1457.84,-4933.42 1457.84,-4939.42 1451.84,-4945.42 1445.84,-4945.42"/>
<text text-anchor="middle" x="1390.84" y="-4923.72" font-family="Times,serif" font-size="14.00">{&#39;fileID&#39;: 530533594}</text>
</g>
<!-- 241 -->
<g id="node87" class="node">
<title>241</title>
<path fill="lightpink" stroke="lightpink" d="M1093.2,-4332.9C1093.2,-4332.9 983.2,-4332.9 983.2,-4332.9 977.2,-4332.9 971.2,-4326.9 971.2,-4320.9 971.2,-4320.9 971.2,-4308.9 971.2,-4308.9 971.2,-4302.9 977.2,-4296.9 983.2,-4296.9 983.2,-4296.9 1093.2,-4296.9 1093.2,-4296.9 1099.2,-4296.9 1105.2,-4302.9 1105.2,-4308.9 1105.2,-4308.9 1105.2,-4320.9 1105.2,-4320.9 1105.2,-4326.9 1099.2,-4332.9 1093.2,-4332.9"/>
<text text-anchor="middle" x="1038.2" y="-4311.2" font-family="Times,serif" font-size="14.00">{&#39;fileID&#39;: 530533597}</text>
</g>
<!-- 243 -->
<g id="node88" class="node">
<title>243</title>
<path fill="lightpink" stroke="lightpink" d="M672.27,-4978.17C672.27,-4978.17 562.27,-4978.17 562.27,-4978.17 556.27,-4978.17 550.27,-4972.17 550.27,-4966.17 550.27,-4966.17 550.27,-4954.17 550.27,-4954.17 550.27,-4948.17 556.27,-4942.17 562.27,-4942.17 562.27,-4942.17 672.27,-4942.17 672.27,-4942.17 678.27,-4942.17 684.27,-4948.17 684.27,-4954.17 684.27,-4954.17 684.27,-4966.17 684.27,-4966.17 684.27,-4972.17 678.27,-4978.17 672.27,-4978.17"/>
<text text-anchor="middle" x="617.27" y="-4956.47" font-family="Times,serif" font-size="14.00">{&#39;fileID&#39;: 530533596}</text>
</g>
<!-- 245 -->
<g id="node89" class="node">
<title>245</title>
<path fill="lightpink" stroke="lightpink" d="M179.43,-4457.99C179.43,-4457.99 69.43,-4457.99 69.43,-4457.99 63.43,-4457.99 57.43,-4451.99 57.43,-4445.99 57.43,-4445.99 57.43,-4433.99 57.43,-4433.99 57.43,-4427.99 63.43,-4421.99 69.43,-4421.99 69.43,-4421.99 179.43,-4421.99 179.43,-4421.99 185.43,-4421.99 191.43,-4427.99 191.43,-4433.99 191.43,-4433.99 191.43,-4445.99 191.43,-4445.99 191.43,-4451.99 185.43,-4457.99 179.43,-4457.99"/>
<text text-anchor="middle" x="124.43" y="-4436.29" font-family="Times,serif" font-size="14.00">{&#39;fileID&#39;: 530533595}</text>
</g>
<!-- 235 -->
<g id="node90" class="node">
<title>235</title>
<path fill="#b0e2ff" stroke="#b0e2ff" d="M1478.61,-4538.09C1478.61,-4538.09 1321.61,-4538.09 1321.61,-4538.09 1315.61,-4538.09 1309.61,-4532.09 1309.61,-4526.09 1309.61,-4526.09 1309.61,-4512.09 1309.61,-4512.09 1309.61,-4506.09 1315.61,-4500.09 1321.61,-4500.09 1321.61,-4500.09 1478.61,-4500.09 1478.61,-4500.09 1484.61,-4500.09 1490.61,-4506.09 1490.61,-4512.09 1490.61,-4512.09 1490.61,-4526.09 1490.61,-4526.09 1490.61,-4532.09 1484.61,-4538.09 1478.61,-4538.09"/>
<text text-anchor="middle" x="1400.11" y="-4522.89" font-family="Times,serif" font-size="14.00">GameObject_1_ID530533593</text>
<text text-anchor="middle" x="1400.11" y="-4507.89" font-family="Times,serif" font-size="14.00">CloseButton</text>
</g>
<!-- 235&#45;&gt;239 -->
<g id="edge65" class="edge">
<title>235&#45;&gt;239</title>
<path fill="none" stroke="black" d="M1399.68,-4538.24C1398.18,-4604.05 1393.25,-4821.18 1391.48,-4899.19"/>
<polygon fill="black" stroke="black" points="1387.98,-4899.17 1391.25,-4909.25 1394.98,-4899.33 1387.98,-4899.17"/>
</g>
<!-- 235&#45;&gt;241 -->
<g id="edge66" class="edge">
<title>235&#45;&gt;241</title>
<path fill="none" stroke="black" d="M1366.39,-4500.07C1299.67,-4462.42 1151.04,-4378.57 1078.96,-4337.9"/>
<polygon fill="black" stroke="black" points="1080.58,-4334.79 1070.15,-4332.93 1077.14,-4340.89 1080.58,-4334.79"/>
</g>
<!-- 235&#45;&gt;243 -->
<g id="edge67" class="edge">
<title>235&#45;&gt;243</title>
<path fill="none" stroke="black" d="M1366.22,-4538.19C1239.85,-4609.39 796.29,-4859.3 658.46,-4936.96"/>
<polygon fill="black" stroke="black" points="656.44,-4934.08 649.45,-4942.04 659.88,-4940.18 656.44,-4934.08"/>
</g>
<!-- 235&#45;&gt;245 -->
<g id="edge68" class="edge">
<title>235&#45;&gt;245</title>
<path fill="none" stroke="black" d="M1309.39,-4513.47C1070.13,-4498.63 425.09,-4458.63 201.78,-4444.79"/>
<polygon fill="black" stroke="black" points="201.67,-4441.27 191.47,-4444.15 201.23,-4448.26 201.67,-4441.27"/>
</g>
<!-- 252 -->
<g id="node91" class="node">
<title>252</title>
<path fill="lightpink" stroke="lightpink" d="M1480.93,-1635.84C1480.93,-1635.84 1363.93,-1635.84 1363.93,-1635.84 1357.93,-1635.84 1351.93,-1629.84 1351.93,-1623.84 1351.93,-1623.84 1351.93,-1611.84 1351.93,-1611.84 1351.93,-1605.84 1357.93,-1599.84 1363.93,-1599.84 1363.93,-1599.84 1480.93,-1599.84 1480.93,-1599.84 1486.93,-1599.84 1492.93,-1605.84 1492.93,-1611.84 1492.93,-1611.84 1492.93,-1623.84 1492.93,-1623.84 1492.93,-1629.84 1486.93,-1635.84 1480.93,-1635.84"/>
<text text-anchor="middle" x="1422.43" y="-1614.14" font-family="Times,serif" font-size="14.00">{&#39;fileID&#39;: 2009980927}</text>
</g>
<!-- 254 -->
<g id="node92" class="node">
<title>254</title>
<path fill="lightpink" stroke="lightpink" d="M1419.29,-2764.02C1419.29,-2764.02 1302.29,-2764.02 1302.29,-2764.02 1296.29,-2764.02 1290.29,-2758.02 1290.29,-2752.02 1290.29,-2752.02 1290.29,-2740.02 1290.29,-2740.02 1290.29,-2734.02 1296.29,-2728.02 1302.29,-2728.02 1302.29,-2728.02 1419.29,-2728.02 1419.29,-2728.02 1425.29,-2728.02 1431.29,-2734.02 1431.29,-2740.02 1431.29,-2740.02 1431.29,-2752.02 1431.29,-2752.02 1431.29,-2758.02 1425.29,-2764.02 1419.29,-2764.02"/>
<text text-anchor="middle" x="1360.79" y="-2742.32" font-family="Times,serif" font-size="14.00">{&#39;fileID&#39;: 2009980926}</text>
</g>
<!-- 256 -->
<g id="node93" class="node">
<title>256</title>
<path fill="lightpink" stroke="lightpink" d="M685.54,-2026.1C685.54,-2026.1 568.54,-2026.1 568.54,-2026.1 562.54,-2026.1 556.54,-2020.1 556.54,-2014.1 556.54,-2014.1 556.54,-2002.1 556.54,-2002.1 556.54,-1996.1 562.54,-1990.1 568.54,-1990.1 568.54,-1990.1 685.54,-1990.1 685.54,-1990.1 691.54,-1990.1 697.54,-1996.1 697.54,-2002.1 697.54,-2002.1 697.54,-2014.1 697.54,-2014.1 697.54,-2020.1 691.54,-2026.1 685.54,-2026.1"/>
<text text-anchor="middle" x="627.04" y="-2004.4" font-family="Times,serif" font-size="14.00">{&#39;fileID&#39;: 2009980925}</text>
</g>
<!-- 258 -->
<g id="node94" class="node">
<title>258</title>
<path fill="lightpink" stroke="lightpink" d="M1527.49,-2420.6C1527.49,-2420.6 1410.49,-2420.6 1410.49,-2420.6 1404.49,-2420.6 1398.49,-2414.6 1398.49,-2408.6 1398.49,-2408.6 1398.49,-2396.6 1398.49,-2396.6 1398.49,-2390.6 1404.49,-2384.6 1410.49,-2384.6 1410.49,-2384.6 1527.49,-2384.6 1527.49,-2384.6 1533.49,-2384.6 1539.49,-2390.6 1539.49,-2396.6 1539.49,-2396.6 1539.49,-2408.6 1539.49,-2408.6 1539.49,-2414.6 1533.49,-2420.6 1527.49,-2420.6"/>
<text text-anchor="middle" x="1468.99" y="-2398.9" font-family="Times,serif" font-size="14.00">{&#39;fileID&#39;: 2009980924}</text>
</g>
<!-- 248 -->
<g id="node95" class="node">
<title>248</title>
<path fill="#b0e2ff" stroke="#b0e2ff" d="M1708.49,-2595.07C1708.49,-2595.07 1544.49,-2595.07 1544.49,-2595.07 1538.49,-2595.07 1532.49,-2589.07 1532.49,-2583.07 1532.49,-2583.07 1532.49,-2569.07 1532.49,-2569.07 1532.49,-2563.07 1538.49,-2557.07 1544.49,-2557.07 1544.49,-2557.07 1708.49,-2557.07 1708.49,-2557.07 1714.49,-2557.07 1720.49,-2563.07 1720.49,-2569.07 1720.49,-2569.07 1720.49,-2583.07 1720.49,-2583.07 1720.49,-2589.07 1714.49,-2595.07 1708.49,-2595.07"/>
<text text-anchor="middle" x="1626.49" y="-2579.87" font-family="Times,serif" font-size="14.00">GameObject_1_ID2009980923</text>
<text text-anchor="middle" x="1626.49" y="-2564.87" font-family="Times,serif" font-size="14.00">Canvas</text>
</g>
<!-- 248&#45;&gt;252 -->
<g id="edge69" class="edge">
<title>248&#45;&gt;252</title>
<path fill="none" stroke="black" d="M1622.41,-2556.93C1596.87,-2437.01 1458.99,-1789.55 1428.43,-1646.03"/>
<polygon fill="black" stroke="black" points="1431.77,-1644.9 1426.26,-1635.85 1424.92,-1646.36 1431.77,-1644.9"/>
</g>
<!-- 248&#45;&gt;254 -->
<g id="edge70" class="edge">
<title>248&#45;&gt;254</title>
<path fill="none" stroke="black" d="M1596.78,-2595.07C1547.91,-2626.33 1450.68,-2688.53 1397.54,-2722.51"/>
<polygon fill="black" stroke="black" points="1395.63,-2719.58 1389.1,-2727.91 1399.41,-2725.47 1395.63,-2719.58"/>
</g>
<!-- 248&#45;&gt;256 -->
<g id="edge71" class="edge">
<title>248&#45;&gt;256</title>
<path fill="none" stroke="black" d="M1592.95,-2557.01C1442.69,-2471.62 831.64,-2124.37 667.69,-2031.2"/>
<polygon fill="black" stroke="black" points="669.3,-2028.09 658.87,-2026.19 665.84,-2034.17 669.3,-2028.09"/>
</g>
<!-- 248&#45;&gt;258 -->
<g id="edge72" class="edge">
<title>248&#45;&gt;258</title>
<path fill="none" stroke="black" d="M1609.03,-2556.85C1580.51,-2525.44 1523.93,-2463.11 1492.11,-2428.07"/>
<polygon fill="black" stroke="black" points="1494.65,-2425.66 1485.34,-2420.61 1489.47,-2430.36 1494.65,-2425.66"/>
</g>
<!-- 1 -->
<g id="node96" class="node">
<title>1</title>
<ellipse fill="red" stroke="red" cx="3282.7" cy="-3399.32" rx="27" ry="18"/>
</g>
<!-- 1&#45;&gt;2 -->
<g id="edge73" class="edge">
<title>1&#45;&gt;2</title>
<path fill="none" stroke="black" d="M3272.04,-3382.37C3184.92,-3243.86 2590.72,-2299.14 2480.52,-2123.92"/>
<polygon fill="black" stroke="black" points="2483.36,-2121.87 2475.08,-2115.27 2477.44,-2125.6 2483.36,-2121.87"/>
</g>
<!-- 1&#45;&gt;13 -->
<g id="edge74" class="edge">
<title>1&#45;&gt;13</title>
<path fill="none" stroke="black" d="M3293.17,-3382.68C3399.29,-3213.86 4279.45,-1813.74 4414.74,-1598.51"/>
<polygon fill="black" stroke="black" points="4417.75,-1600.31 4420.11,-1589.98 4411.82,-1596.58 4417.75,-1600.31"/>
</g>
<!-- 1&#45;&gt;26 -->
<g id="edge75" class="edge">
<title>1&#45;&gt;26</title>
<path fill="none" stroke="black" d="M3283.49,-3380.98C3288.84,-3257.66 3319.49,-2549.88 3326.12,-2396.67"/>
<polygon fill="black" stroke="black" points="3329.62,-2396.76 3326.56,-2386.62 3322.63,-2396.46 3329.62,-2396.76"/>
</g>
<!-- 1&#45;&gt;37 -->
<g id="edge76" class="edge">
<title>1&#45;&gt;37</title>
<path fill="none" stroke="black" d="M3308.54,-3394.11C3535.63,-3348.34 5192.82,-3014.29 5627.41,-2926.69"/>
<polygon fill="black" stroke="black" points="5628.33,-2930.07 5637.44,-2924.66 5626.95,-2923.21 5628.33,-2930.07"/>
</g>
<!-- 1&#45;&gt;48 -->
<g id="edge77" class="edge">
<title>1&#45;&gt;48</title>
<path fill="none" stroke="black" d="M3281.07,-3381.22C3263.7,-3187.71 3112.52,-1503.41 3090.59,-1259.05"/>
<polygon fill="black" stroke="black" points="3094.05,-1258.47 3089.67,-1248.82 3087.08,-1259.09 3094.05,-1258.47"/>
</g>
<!-- 1&#45;&gt;61 -->
<g id="edge78" class="edge">
<title>1&#45;&gt;61</title>
<path fill="none" stroke="black" d="M3299.83,-3413.44C3459.61,-3545.07 4688.11,-4557.13 4900.43,-4732.04"/>
<polygon fill="black" stroke="black" points="4898.45,-4734.94 4908.39,-4738.6 4902.9,-4729.54 4898.45,-4734.94"/>
</g>
<!-- 1&#45;&gt;74 -->
<g id="edge79" class="edge">
<title>1&#45;&gt;74</title>
<path fill="none" stroke="black" d="M3290.18,-3381.9C3342.75,-3259.43 3656.65,-2528.1 3722.94,-2373.67"/>
<polygon fill="black" stroke="black" points="3726.21,-2374.91 3726.94,-2364.34 3719.78,-2372.15 3726.21,-2374.91"/>
</g>
<!-- 1&#45;&gt;85 -->
<g id="edge80" class="edge">
<title>1&#45;&gt;85</title>
<path fill="none" stroke="black" d="M3255.62,-3401.06C3138.14,-3408.57 2668.96,-3438.6 2457.32,-3452.14"/>
<polygon fill="black" stroke="black" points="2456.89,-3448.66 2447.13,-3452.79 2457.33,-3455.65 2456.89,-3448.66"/>
</g>
<!-- 1&#45;&gt;94 -->
<g id="edge81" class="edge">
<title>1&#45;&gt;94</title>
<path fill="none" stroke="black" d="M3264.76,-3385.37C3207.36,-3340.74 3027.7,-3201.01 2953.47,-3143.28"/>
<polygon fill="black" stroke="black" points="2955.41,-3140.36 2945.37,-3136.98 2951.11,-3145.89 2955.41,-3140.36"/>
</g>
<!-- 1&#45;&gt;105 -->
<g id="edge82" class="edge">
<title>1&#45;&gt;105</title>
<path fill="none" stroke="black" d="M3269.46,-3415.12C3146.8,-3561.5 2209.43,-4680.08 2051.16,-4868.95"/>
<polygon fill="black" stroke="black" points="2048.36,-4866.83 2044.62,-4876.75 2053.72,-4871.33 2048.36,-4866.83"/>
</g>
<!-- 1&#45;&gt;116 -->
<g id="edge83" class="edge">
<title>1&#45;&gt;116</title>
<path fill="none" stroke="black" d="M3281.7,-3417.55C3270.46,-3623.2 3167.58,-5504.49 3153.42,-5763.26"/>
<polygon fill="black" stroke="black" points="3149.92,-5763.22 3152.87,-5773.4 3156.91,-5763.6 3149.92,-5763.22"/>
</g>
<!-- 1&#45;&gt;127 -->
<g id="edge84" class="edge">
<title>1&#45;&gt;127</title>
<path fill="none" stroke="black" d="M3309.32,-3395.58C3444.6,-3376.54 4059.08,-3290.06 4303.48,-3255.66"/>
<polygon fill="black" stroke="black" points="4304.01,-3259.12 4313.43,-3254.26 4303.04,-3252.19 4304.01,-3259.12"/>
</g>
<!-- 1&#45;&gt;138 -->
<g id="edge85" class="edge">
<title>1&#45;&gt;138</title>
<path fill="none" stroke="black" d="M3289.3,-3416.98C3358.42,-3601.9 3948.84,-5181.43 4035.64,-5413.64"/>
<polygon fill="black" stroke="black" points="4032.39,-5414.96 4039.17,-5423.1 4038.95,-5412.5 4032.39,-5414.96"/>
</g>
<!-- 1&#45;&gt;151 -->
<g id="edge86" class="edge">
<title>1&#45;&gt;151</title>
<path fill="none" stroke="black" d="M3290.3,-3416.95C3347.33,-3549.3 3708.2,-4386.73 3779.74,-4552.73"/>
<polygon fill="black" stroke="black" points="3776.67,-4554.46 3783.84,-4562.26 3783.1,-4551.69 3776.67,-4554.46"/>
</g>
<!-- 1&#45;&gt;160 -->
<g id="edge87" class="edge">
<title>1&#45;&gt;160</title>
<path fill="none" stroke="black" d="M3306.51,-3407.81C3504.17,-3478.29 4873.67,-3966.6 5186.25,-4078.06"/>
<polygon fill="black" stroke="black" points="5185.46,-4081.49 5196.05,-4081.55 5187.81,-4074.9 5185.46,-4081.49"/>
</g>
<!-- 1&#45;&gt;171 -->
<g id="edge88" class="edge">
<title>1&#45;&gt;171</title>
<path fill="none" stroke="black" d="M3304.86,-3388.73C3472.26,-3308.71 4537.9,-2799.32 4780.47,-2683.37"/>
<polygon fill="black" stroke="black" points="4782.24,-2686.4 4789.75,-2678.93 4779.22,-2680.09 4782.24,-2686.4"/>
</g>
<!-- 1&#45;&gt;182 -->
<g id="edge89" class="edge">
<title>1&#45;&gt;182</title>
<path fill="none" stroke="black" d="M3309.25,-3403.23C3430.78,-3421.11 3937.38,-3495.64 4155.69,-3527.75"/>
<polygon fill="black" stroke="black" points="4155.47,-3531.26 4165.87,-3529.25 4156.49,-3524.33 4155.47,-3531.26"/>
</g>
<!-- 1&#45;&gt;193 -->
<g id="edge90" class="edge">
<title>1&#45;&gt;193</title>
<path fill="none" stroke="black" d="M3261.07,-3410.22C3126.29,-3478.07 2401.25,-3843.13 2208.94,-3939.95"/>
<polygon fill="black" stroke="black" points="2207.28,-3936.87 2199.92,-3944.49 2210.43,-3943.12 2207.28,-3936.87"/>
</g>
<!-- 1&#45;&gt;202 -->
<g id="edge91" class="edge">
<title>1&#45;&gt;202</title>
<path fill="none" stroke="black" d="M3255.66,-3400.5C3043.43,-3409.75 1643.49,-3470.76 1247.76,-3488"/>
<polygon fill="black" stroke="black" points="1247.59,-3484.5 1237.75,-3488.44 1247.89,-3491.5 1247.59,-3484.5"/>
</g>
<!-- 1&#45;&gt;213 -->
<g id="edge92" class="edge">
<title>1&#45;&gt;213</title>
<path fill="none" stroke="black" d="M3272.36,-3416.37C3213.35,-3513.62 2919.22,-3998.38 2845.33,-4120.16"/>
<polygon fill="black" stroke="black" points="2842.21,-4118.56 2840.01,-4128.93 2848.19,-4122.19 2842.21,-4118.56"/>
</g>
<!-- 1&#45;&gt;224 -->
<g id="edge93" class="edge">
<title>1&#45;&gt;224</title>
<path fill="none" stroke="black" d="M3280.01,-3417.34C3256.78,-3572.79 3090.38,-4686.22 3061.26,-4881.07"/>
<polygon fill="black" stroke="black" points="3057.78,-4880.72 3059.76,-4891.12 3064.7,-4881.75 3057.78,-4880.72"/>
</g>
<!-- 1&#45;&gt;235 -->
<g id="edge94" class="edge">
<title>1&#45;&gt;235</title>
<path fill="none" stroke="black" d="M3262.52,-3411.33C3078.8,-3520.6 1697.06,-4342.47 1440.9,-4494.83"/>
<polygon fill="black" stroke="black" points="1439.07,-4491.85 1432.27,-4499.97 1442.65,-4497.86 1439.07,-4491.85"/>
</g>
<!-- 1&#45;&gt;248 -->
<g id="edge95" class="edge">
<title>1&#45;&gt;248</title>
<path fill="none" stroke="black" d="M3260.85,-3388.46C3086.73,-3301.91 1924.45,-2724.18 1673.99,-2599.69"/>
<polygon fill="black" stroke="black" points="1675.3,-2596.43 1664.79,-2595.11 1672.18,-2602.7 1675.3,-2596.43"/>
</g>
</g>
</svg>
