<?xml version="1.0" encoding="UTF-8" standalone="no"?>
<!DOCTYPE svg PUBLIC "-//W3C//DTD SVG 1.1//EN"
 "http://www.w3.org/Graphics/SVG/1.1/DTD/svg11.dtd">
<!-- Generated by graphviz version 2.46.0 (20210118.1747)
 -->
<!-- Title: graphname Pages: 1 -->
<svg width="4824pt" height="4413pt"
 viewBox="0.00 0.00 4824.00 4412.69" xmlns="http://www.w3.org/2000/svg" xmlns:xlink="http://www.w3.org/1999/xlink">
<g id="graph0" class="graph" transform="scale(1.9 1.9) rotate(0) translate(4 2323.68)">
<title>graphname</title>
<polygon fill="white" stroke="transparent" points="-4,4 -4,-2323.68 2540.65,-2323.68 2540.65,4 -4,4"/>
<!-- 6 -->
<g id="node1" class="node">
<title>6</title>
<path fill="lightpink" stroke="lightpink" d="M1881.25,-241.46C1881.25,-241.46 1771.25,-241.46 1771.25,-241.46 1765.25,-241.46 1759.25,-235.46 1759.25,-229.46 1759.25,-229.46 1759.25,-217.46 1759.25,-217.46 1759.25,-211.46 1765.25,-205.46 1771.25,-205.46 1771.25,-205.46 1881.25,-205.46 1881.25,-205.46 1887.25,-205.46 1893.25,-211.46 1893.25,-217.46 1893.25,-217.46 1893.25,-229.46 1893.25,-229.46 1893.25,-235.46 1887.25,-241.46 1881.25,-241.46"/>
<text text-anchor="middle" x="1826.25" y="-219.76" font-family="Times,serif" font-size="14.00">{&#39;fileID&#39;: 132945517}</text>
</g>
<!-- 8 -->
<g id="node2" class="node">
<title>8</title>
<path fill="lightpink" stroke="lightpink" d="M2044.14,-433.59C2044.14,-433.59 1934.14,-433.59 1934.14,-433.59 1928.14,-433.59 1922.14,-427.59 1922.14,-421.59 1922.14,-421.59 1922.14,-409.59 1922.14,-409.59 1922.14,-403.59 1928.14,-397.59 1934.14,-397.59 1934.14,-397.59 2044.14,-397.59 2044.14,-397.59 2050.14,-397.59 2056.14,-403.59 2056.14,-409.59 2056.14,-409.59 2056.14,-421.59 2056.14,-421.59 2056.14,-427.59 2050.14,-433.59 2044.14,-433.59"/>
<text text-anchor="middle" x="1989.14" y="-411.89" font-family="Times,serif" font-size="14.00">{&#39;fileID&#39;: 132945519}</text>
</g>
<!-- 10 -->
<g id="node3" class="node">
<title>10</title>
<path fill="lightpink" stroke="lightpink" d="M2035.19,-298.85C2035.19,-298.85 1925.19,-298.85 1925.19,-298.85 1919.19,-298.85 1913.19,-292.85 1913.19,-286.85 1913.19,-286.85 1913.19,-274.85 1913.19,-274.85 1913.19,-268.85 1919.19,-262.85 1925.19,-262.85 1925.19,-262.85 2035.19,-262.85 2035.19,-262.85 2041.19,-262.85 2047.19,-268.85 2047.19,-274.85 2047.19,-274.85 2047.19,-286.85 2047.19,-286.85 2047.19,-292.85 2041.19,-298.85 2035.19,-298.85"/>
<text text-anchor="middle" x="1980.19" y="-277.15" font-family="Times,serif" font-size="14.00">{&#39;fileID&#39;: 132945518}</text>
</g>
<!-- 2 -->
<g id="node4" class="node">
<title>2</title>
<path fill="#b0e2ff" stroke="#b0e2ff" d="M1797.76,-638.39C1797.76,-638.39 1640.76,-638.39 1640.76,-638.39 1634.76,-638.39 1628.76,-632.39 1628.76,-626.39 1628.76,-626.39 1628.76,-612.39 1628.76,-612.39 1628.76,-606.39 1634.76,-600.39 1640.76,-600.39 1640.76,-600.39 1797.76,-600.39 1797.76,-600.39 1803.76,-600.39 1809.76,-606.39 1809.76,-612.39 1809.76,-612.39 1809.76,-626.39 1809.76,-626.39 1809.76,-632.39 1803.76,-638.39 1797.76,-638.39"/>
<text text-anchor="middle" x="1719.26" y="-623.19" font-family="Times,serif" font-size="14.00">GameObject_1_ID132945516</text>
<text text-anchor="middle" x="1719.26" y="-608.19" font-family="Times,serif" font-size="14.00">Text</text>
</g>
<!-- 2&#45;&gt;6 -->
<g id="edge1" class="edge">
<title>2&#45;&gt;6</title>
<path fill="none" stroke="black" d="M1724.42,-600.29C1741.76,-536.11 1798.01,-327.97 1818.6,-251.75"/>
<polygon fill="black" stroke="black" points="1822.03,-252.47 1821.26,-241.9 1815.28,-250.64 1822.03,-252.47"/>
</g>
<!-- 2&#45;&gt;8 -->
<g id="edge2" class="edge">
<title>2&#45;&gt;8</title>
<path fill="none" stroke="black" d="M1744.65,-600.21C1793.97,-562.97 1902.65,-480.9 1956.95,-439.9"/>
<polygon fill="black" stroke="black" points="1959.3,-442.5 1965.18,-433.68 1955.09,-436.91 1959.3,-442.5"/>
</g>
<!-- 2&#45;&gt;10 -->
<g id="edge3" class="edge">
<title>2&#45;&gt;10</title>
<path fill="none" stroke="black" d="M1734.04,-600.21C1778.2,-542.92 1909.25,-372.9 1959.9,-307.19"/>
<polygon fill="black" stroke="black" points="1962.88,-309.04 1966.22,-298.99 1957.34,-304.77 1962.88,-309.04"/>
</g>
<!-- 17 -->
<g id="node5" class="node">
<title>17</title>
<path fill="lightpink" stroke="lightpink" d="M2524.65,-1537.17C2524.65,-1537.17 2414.65,-1537.17 2414.65,-1537.17 2408.65,-1537.17 2402.65,-1531.17 2402.65,-1525.17 2402.65,-1525.17 2402.65,-1513.17 2402.65,-1513.17 2402.65,-1507.17 2408.65,-1501.17 2414.65,-1501.17 2414.65,-1501.17 2524.65,-1501.17 2524.65,-1501.17 2530.65,-1501.17 2536.65,-1507.17 2536.65,-1513.17 2536.65,-1513.17 2536.65,-1525.17 2536.65,-1525.17 2536.65,-1531.17 2530.65,-1537.17 2524.65,-1537.17"/>
<text text-anchor="middle" x="2469.65" y="-1515.47" font-family="Times,serif" font-size="14.00">{&#39;fileID&#39;: 130449832}</text>
</g>
<!-- 19 -->
<g id="node6" class="node">
<title>19</title>
<path fill="lightpink" stroke="lightpink" d="M2514.57,-1334.7C2514.57,-1334.7 2404.57,-1334.7 2404.57,-1334.7 2398.57,-1334.7 2392.57,-1328.7 2392.57,-1322.7 2392.57,-1322.7 2392.57,-1310.7 2392.57,-1310.7 2392.57,-1304.7 2398.57,-1298.7 2404.57,-1298.7 2404.57,-1298.7 2514.57,-1298.7 2514.57,-1298.7 2520.57,-1298.7 2526.57,-1304.7 2526.57,-1310.7 2526.57,-1310.7 2526.57,-1322.7 2526.57,-1322.7 2526.57,-1328.7 2520.57,-1334.7 2514.57,-1334.7"/>
<text text-anchor="middle" x="2459.57" y="-1313" font-family="Times,serif" font-size="14.00">{&#39;fileID&#39;: 130449835}</text>
</g>
<!-- 21 -->
<g id="node7" class="node">
<title>21</title>
<path fill="lightpink" stroke="lightpink" d="M2379.07,-1447.34C2379.07,-1447.34 2269.07,-1447.34 2269.07,-1447.34 2263.07,-1447.34 2257.07,-1441.34 2257.07,-1435.34 2257.07,-1435.34 2257.07,-1423.34 2257.07,-1423.34 2257.07,-1417.34 2263.07,-1411.34 2269.07,-1411.34 2269.07,-1411.34 2379.07,-1411.34 2379.07,-1411.34 2385.07,-1411.34 2391.07,-1417.34 2391.07,-1423.34 2391.07,-1423.34 2391.07,-1435.34 2391.07,-1435.34 2391.07,-1441.34 2385.07,-1447.34 2379.07,-1447.34"/>
<text text-anchor="middle" x="2324.07" y="-1425.64" font-family="Times,serif" font-size="14.00">{&#39;fileID&#39;: 130449834}</text>
</g>
<!-- 23 -->
<g id="node8" class="node">
<title>23</title>
<path fill="lightpink" stroke="lightpink" d="M2383.7,-1645.42C2383.7,-1645.42 2273.7,-1645.42 2273.7,-1645.42 2267.7,-1645.42 2261.7,-1639.42 2261.7,-1633.42 2261.7,-1633.42 2261.7,-1621.42 2261.7,-1621.42 2261.7,-1615.42 2267.7,-1609.42 2273.7,-1609.42 2273.7,-1609.42 2383.7,-1609.42 2383.7,-1609.42 2389.7,-1609.42 2395.7,-1615.42 2395.7,-1621.42 2395.7,-1621.42 2395.7,-1633.42 2395.7,-1633.42 2395.7,-1639.42 2389.7,-1645.42 2383.7,-1645.42"/>
<text text-anchor="middle" x="2328.7" y="-1623.72" font-family="Times,serif" font-size="14.00">{&#39;fileID&#39;: 130449833}</text>
</g>
<!-- 13 -->
<g id="node9" class="node">
<title>13</title>
<path fill="#b0e2ff" stroke="#b0e2ff" d="M2135.99,-1404.55C2135.99,-1404.55 1978.99,-1404.55 1978.99,-1404.55 1972.99,-1404.55 1966.99,-1398.55 1966.99,-1392.55 1966.99,-1392.55 1966.99,-1378.55 1966.99,-1378.55 1966.99,-1372.55 1972.99,-1366.55 1978.99,-1366.55 1978.99,-1366.55 2135.99,-1366.55 2135.99,-1366.55 2141.99,-1366.55 2147.99,-1372.55 2147.99,-1378.55 2147.99,-1378.55 2147.99,-1392.55 2147.99,-1392.55 2147.99,-1398.55 2141.99,-1404.55 2135.99,-1404.55"/>
<text text-anchor="middle" x="2057.49" y="-1389.35" font-family="Times,serif" font-size="14.00">GameObject_1_ID130449831</text>
<text text-anchor="middle" x="2057.49" y="-1374.35" font-family="Times,serif" font-size="14.00">Menu</text>
</g>
<!-- 13&#45;&gt;17 -->
<g id="edge4" class="edge">
<title>13&#45;&gt;17</title>
<path fill="none" stroke="black" d="M2116.1,-1404.55C2192.19,-1429.22 2324.6,-1472.15 2403.99,-1497.89"/>
<polygon fill="black" stroke="black" points="2403.28,-1501.34 2413.87,-1501.09 2405.44,-1494.68 2403.28,-1501.34"/>
</g>
<!-- 13&#45;&gt;19 -->
<g id="edge5" class="edge">
<title>13&#45;&gt;19</title>
<path fill="none" stroke="black" d="M2148.23,-1370.01C2218.73,-1357.94 2315.44,-1341.38 2382.28,-1329.93"/>
<polygon fill="black" stroke="black" points="2383.06,-1333.35 2392.33,-1328.21 2381.88,-1326.45 2383.06,-1333.35"/>
</g>
<!-- 13&#45;&gt;21 -->
<g id="edge6" class="edge">
<title>13&#45;&gt;21</title>
<path fill="none" stroke="black" d="M2148.11,-1400.44C2180.12,-1405.69 2215.79,-1411.55 2246.61,-1416.62"/>
<polygon fill="black" stroke="black" points="2246.42,-1420.13 2256.86,-1418.3 2247.56,-1413.22 2246.42,-1420.13"/>
</g>
<!-- 13&#45;&gt;23 -->
<g id="edge7" class="edge">
<title>13&#45;&gt;23</title>
<path fill="none" stroke="black" d="M2079.22,-1404.93C2128.11,-1448.52 2246.65,-1554.24 2300.84,-1602.57"/>
<polygon fill="black" stroke="black" points="2298.56,-1605.23 2308.35,-1609.27 2303.22,-1600 2298.56,-1605.23"/>
</g>
<!-- 30 -->
<g id="node10" class="node">
<title>30</title>
<path fill="lightpink" stroke="lightpink" d="M2420.19,-851.47C2420.19,-851.47 2303.19,-851.47 2303.19,-851.47 2297.19,-851.47 2291.19,-845.47 2291.19,-839.47 2291.19,-839.47 2291.19,-827.47 2291.19,-827.47 2291.19,-821.47 2297.19,-815.47 2303.19,-815.47 2303.19,-815.47 2420.19,-815.47 2420.19,-815.47 2426.19,-815.47 2432.19,-821.47 2432.19,-827.47 2432.19,-827.47 2432.19,-839.47 2432.19,-839.47 2432.19,-845.47 2426.19,-851.47 2420.19,-851.47"/>
<text text-anchor="middle" x="2361.69" y="-829.77" font-family="Times,serif" font-size="14.00">{&#39;fileID&#39;: 1747895407}</text>
</g>
<!-- 32 -->
<g id="node11" class="node">
<title>32</title>
<path fill="lightpink" stroke="lightpink" d="M2268.86,-888.76C2268.86,-888.76 2151.86,-888.76 2151.86,-888.76 2145.86,-888.76 2139.86,-882.76 2139.86,-876.76 2139.86,-876.76 2139.86,-864.76 2139.86,-864.76 2139.86,-858.76 2145.86,-852.76 2151.86,-852.76 2151.86,-852.76 2268.86,-852.76 2268.86,-852.76 2274.86,-852.76 2280.86,-858.76 2280.86,-864.76 2280.86,-864.76 2280.86,-876.76 2280.86,-876.76 2280.86,-882.76 2274.86,-888.76 2268.86,-888.76"/>
<text text-anchor="middle" x="2210.36" y="-867.06" font-family="Times,serif" font-size="14.00">{&#39;fileID&#39;: 1747895409}</text>
</g>
<!-- 34 -->
<g id="node12" class="node">
<title>34</title>
<path fill="lightpink" stroke="lightpink" d="M2405.64,-1045.67C2405.64,-1045.67 2288.64,-1045.67 2288.64,-1045.67 2282.64,-1045.67 2276.64,-1039.67 2276.64,-1033.67 2276.64,-1033.67 2276.64,-1021.67 2276.64,-1021.67 2276.64,-1015.67 2282.64,-1009.67 2288.64,-1009.67 2288.64,-1009.67 2405.64,-1009.67 2405.64,-1009.67 2411.64,-1009.67 2417.64,-1015.67 2417.64,-1021.67 2417.64,-1021.67 2417.64,-1033.67 2417.64,-1033.67 2417.64,-1039.67 2411.64,-1045.67 2405.64,-1045.67"/>
<text text-anchor="middle" x="2347.14" y="-1023.97" font-family="Times,serif" font-size="14.00">{&#39;fileID&#39;: 1747895408}</text>
</g>
<!-- 26 -->
<g id="node13" class="node">
<title>26</title>
<path fill="#b0e2ff" stroke="#b0e2ff" d="M2021.92,-996.53C2021.92,-996.53 1857.92,-996.53 1857.92,-996.53 1851.92,-996.53 1845.92,-990.53 1845.92,-984.53 1845.92,-984.53 1845.92,-970.53 1845.92,-970.53 1845.92,-964.53 1851.92,-958.53 1857.92,-958.53 1857.92,-958.53 2021.92,-958.53 2021.92,-958.53 2027.92,-958.53 2033.92,-964.53 2033.92,-970.53 2033.92,-970.53 2033.92,-984.53 2033.92,-984.53 2033.92,-990.53 2027.92,-996.53 2021.92,-996.53"/>
<text text-anchor="middle" x="1939.92" y="-981.33" font-family="Times,serif" font-size="14.00">GameObject_1_ID1747895406</text>
<text text-anchor="middle" x="1939.92" y="-966.33" font-family="Times,serif" font-size="14.00">Text</text>
</g>
<!-- 26&#45;&gt;30 -->
<g id="edge8" class="edge">
<title>26&#45;&gt;30</title>
<path fill="none" stroke="black" d="M1995.92,-958.4C2074.52,-931.56 2217.08,-882.86 2299.09,-854.85"/>
<polygon fill="black" stroke="black" points="2300.45,-858.09 2308.78,-851.54 2298.18,-851.46 2300.45,-858.09"/>
</g>
<!-- 26&#45;&gt;32 -->
<g id="edge9" class="edge">
<title>26&#45;&gt;32</title>
<path fill="none" stroke="black" d="M1988.27,-958.44C2035.13,-939.94 2106.13,-911.91 2155.18,-892.54"/>
<polygon fill="black" stroke="black" points="2156.67,-895.72 2164.68,-888.79 2154.09,-889.21 2156.67,-895.72"/>
</g>
<!-- 26&#45;&gt;34 -->
<g id="edge10" class="edge">
<title>26&#45;&gt;34</title>
<path fill="none" stroke="black" d="M2034.11,-989.13C2104.38,-997.78 2199.4,-1009.48 2266.25,-1017.71"/>
<polygon fill="black" stroke="black" points="2265.96,-1021.2 2276.32,-1018.95 2266.82,-1014.26 2265.96,-1021.2"/>
</g>
<!-- 41 -->
<g id="node14" class="node">
<title>41</title>
<path fill="lightpink" stroke="lightpink" d="M1276.78,-2319.68C1276.78,-2319.68 1159.78,-2319.68 1159.78,-2319.68 1153.78,-2319.68 1147.78,-2313.68 1147.78,-2307.68 1147.78,-2307.68 1147.78,-2295.68 1147.78,-2295.68 1147.78,-2289.68 1153.78,-2283.68 1159.78,-2283.68 1159.78,-2283.68 1276.78,-2283.68 1276.78,-2283.68 1282.78,-2283.68 1288.78,-2289.68 1288.78,-2295.68 1288.78,-2295.68 1288.78,-2307.68 1288.78,-2307.68 1288.78,-2313.68 1282.78,-2319.68 1276.78,-2319.68"/>
<text text-anchor="middle" x="1218.28" y="-2297.98" font-family="Times,serif" font-size="14.00">{&#39;fileID&#39;: 1285890737}</text>
</g>
<!-- 43 -->
<g id="node15" class="node">
<title>43</title>
<path fill="lightpink" stroke="lightpink" d="M1459.23,-2252.17C1459.23,-2252.17 1342.23,-2252.17 1342.23,-2252.17 1336.23,-2252.17 1330.23,-2246.17 1330.23,-2240.17 1330.23,-2240.17 1330.23,-2228.17 1330.23,-2228.17 1330.23,-2222.17 1336.23,-2216.17 1342.23,-2216.17 1342.23,-2216.17 1459.23,-2216.17 1459.23,-2216.17 1465.23,-2216.17 1471.23,-2222.17 1471.23,-2228.17 1471.23,-2228.17 1471.23,-2240.17 1471.23,-2240.17 1471.23,-2246.17 1465.23,-2252.17 1459.23,-2252.17"/>
<text text-anchor="middle" x="1400.73" y="-2230.47" font-family="Times,serif" font-size="14.00">{&#39;fileID&#39;: 1285890739}</text>
</g>
<!-- 45 -->
<g id="node16" class="node">
<title>45</title>
<path fill="lightpink" stroke="lightpink" d="M1246.77,-2167.27C1246.77,-2167.27 1129.77,-2167.27 1129.77,-2167.27 1123.77,-2167.27 1117.77,-2161.27 1117.77,-2155.27 1117.77,-2155.27 1117.77,-2143.27 1117.77,-2143.27 1117.77,-2137.27 1123.77,-2131.27 1129.77,-2131.27 1129.77,-2131.27 1246.77,-2131.27 1246.77,-2131.27 1252.77,-2131.27 1258.77,-2137.27 1258.77,-2143.27 1258.77,-2143.27 1258.77,-2155.27 1258.77,-2155.27 1258.77,-2161.27 1252.77,-2167.27 1246.77,-2167.27"/>
<text text-anchor="middle" x="1188.27" y="-2145.57" font-family="Times,serif" font-size="14.00">{&#39;fileID&#39;: 1285890738}</text>
</g>
<!-- 37 -->
<g id="node17" class="node">
<title>37</title>
<path fill="#b0e2ff" stroke="#b0e2ff" d="M1338.06,-1878.95C1338.06,-1878.95 1174.06,-1878.95 1174.06,-1878.95 1168.06,-1878.95 1162.06,-1872.95 1162.06,-1866.95 1162.06,-1866.95 1162.06,-1852.95 1162.06,-1852.95 1162.06,-1846.95 1168.06,-1840.95 1174.06,-1840.95 1174.06,-1840.95 1338.06,-1840.95 1338.06,-1840.95 1344.06,-1840.95 1350.06,-1846.95 1350.06,-1852.95 1350.06,-1852.95 1350.06,-1866.95 1350.06,-1866.95 1350.06,-1872.95 1344.06,-1878.95 1338.06,-1878.95"/>
<text text-anchor="middle" x="1256.06" y="-1863.75" font-family="Times,serif" font-size="14.00">GameObject_1_ID1285890736</text>
<text text-anchor="middle" x="1256.06" y="-1848.75" font-family="Times,serif" font-size="14.00">Text</text>
</g>
<!-- 37&#45;&gt;41 -->
<g id="edge11" class="edge">
<title>37&#45;&gt;41</title>
<path fill="none" stroke="black" d="M1254.41,-1879.21C1248.43,-1949.21 1227.81,-2190.3 1220.71,-2273.32"/>
<polygon fill="black" stroke="black" points="1217.22,-2273.04 1219.85,-2283.3 1224.19,-2273.64 1217.22,-2273.04"/>
</g>
<!-- 37&#45;&gt;43 -->
<g id="edge12" class="edge">
<title>37&#45;&gt;43</title>
<path fill="none" stroke="black" d="M1263.43,-1879.02C1287.24,-1940.62 1362.16,-2134.41 1390.09,-2206.66"/>
<polygon fill="black" stroke="black" points="1386.84,-2207.95 1393.71,-2216.02 1393.37,-2205.43 1386.84,-2207.95"/>
</g>
<!-- 37&#45;&gt;45 -->
<g id="edge13" class="edge">
<title>37&#45;&gt;45</title>
<path fill="none" stroke="black" d="M1251.51,-1879.38C1239.8,-1929.36 1208.6,-2062.52 1194.89,-2121.03"/>
<polygon fill="black" stroke="black" points="1191.42,-2120.51 1192.54,-2131.05 1198.23,-2122.11 1191.42,-2120.51"/>
</g>
<!-- 52 -->
<g id="node18" class="node">
<title>52</title>
<path fill="lightpink" stroke="lightpink" d="M176.26,-1127.14C176.26,-1127.14 66.26,-1127.14 66.26,-1127.14 60.26,-1127.14 54.26,-1121.14 54.26,-1115.14 54.26,-1115.14 54.26,-1103.14 54.26,-1103.14 54.26,-1097.14 60.26,-1091.14 66.26,-1091.14 66.26,-1091.14 176.26,-1091.14 176.26,-1091.14 182.26,-1091.14 188.26,-1097.14 188.26,-1103.14 188.26,-1103.14 188.26,-1115.14 188.26,-1115.14 188.26,-1121.14 182.26,-1127.14 176.26,-1127.14"/>
<text text-anchor="middle" x="121.26" y="-1105.44" font-family="Times,serif" font-size="14.00">{&#39;fileID&#39;: 771856869}</text>
</g>
<!-- 54 -->
<g id="node19" class="node">
<title>54</title>
<path fill="lightpink" stroke="lightpink" d="M224.53,-1466.76C224.53,-1466.76 114.53,-1466.76 114.53,-1466.76 108.53,-1466.76 102.53,-1460.76 102.53,-1454.76 102.53,-1454.76 102.53,-1442.76 102.53,-1442.76 102.53,-1436.76 108.53,-1430.76 114.53,-1430.76 114.53,-1430.76 224.53,-1430.76 224.53,-1430.76 230.53,-1430.76 236.53,-1436.76 236.53,-1442.76 236.53,-1442.76 236.53,-1454.76 236.53,-1454.76 236.53,-1460.76 230.53,-1466.76 224.53,-1466.76"/>
<text text-anchor="middle" x="169.53" y="-1445.06" font-family="Times,serif" font-size="14.00">{&#39;fileID&#39;: 771856872}</text>
</g>
<!-- 56 -->
<g id="node20" class="node">
<title>56</title>
<path fill="lightpink" stroke="lightpink" d="M122,-1292.93C122,-1292.93 12,-1292.93 12,-1292.93 6,-1292.93 0,-1286.93 0,-1280.93 0,-1280.93 0,-1268.93 0,-1268.93 0,-1262.93 6,-1256.93 12,-1256.93 12,-1256.93 122,-1256.93 122,-1256.93 128,-1256.93 134,-1262.93 134,-1268.93 134,-1268.93 134,-1280.93 134,-1280.93 134,-1286.93 128,-1292.93 122,-1292.93"/>
<text text-anchor="middle" x="67" y="-1271.23" font-family="Times,serif" font-size="14.00">{&#39;fileID&#39;: 771856871}</text>
</g>
<!-- 58 -->
<g id="node21" class="node">
<title>58</title>
<path fill="lightpink" stroke="lightpink" d="M288.33,-1287.8C288.33,-1287.8 178.33,-1287.8 178.33,-1287.8 172.33,-1287.8 166.33,-1281.8 166.33,-1275.8 166.33,-1275.8 166.33,-1263.8 166.33,-1263.8 166.33,-1257.8 172.33,-1251.8 178.33,-1251.8 178.33,-1251.8 288.33,-1251.8 288.33,-1251.8 294.33,-1251.8 300.33,-1257.8 300.33,-1263.8 300.33,-1263.8 300.33,-1275.8 300.33,-1275.8 300.33,-1281.8 294.33,-1287.8 288.33,-1287.8"/>
<text text-anchor="middle" x="233.33" y="-1266.1" font-family="Times,serif" font-size="14.00">{&#39;fileID&#39;: 771856870}</text>
</g>
<!-- 48 -->
<g id="node22" class="node">
<title>48</title>
<path fill="#b0e2ff" stroke="#b0e2ff" d="M582.99,-1279.1C582.99,-1279.1 425.99,-1279.1 425.99,-1279.1 419.99,-1279.1 413.99,-1273.1 413.99,-1267.1 413.99,-1267.1 413.99,-1253.1 413.99,-1253.1 413.99,-1247.1 419.99,-1241.1 425.99,-1241.1 425.99,-1241.1 582.99,-1241.1 582.99,-1241.1 588.99,-1241.1 594.99,-1247.1 594.99,-1253.1 594.99,-1253.1 594.99,-1267.1 594.99,-1267.1 594.99,-1273.1 588.99,-1279.1 582.99,-1279.1"/>
<text text-anchor="middle" x="504.49" y="-1263.9" font-family="Times,serif" font-size="14.00">GameObject_1_ID771856868</text>
<text text-anchor="middle" x="504.49" y="-1248.9" font-family="Times,serif" font-size="14.00">StartButton</text>
</g>
<!-- 48&#45;&gt;52 -->
<g id="edge14" class="edge">
<title>48&#45;&gt;52</title>
<path fill="none" stroke="black" d="M455.96,-1240.98C384.64,-1212.89 251.88,-1160.59 176.78,-1131.01"/>
<polygon fill="black" stroke="black" points="177.61,-1127.57 167.02,-1127.16 175.04,-1134.09 177.61,-1127.57"/>
</g>
<!-- 48&#45;&gt;54 -->
<g id="edge15" class="edge">
<title>48&#45;&gt;54</title>
<path fill="none" stroke="black" d="M470.53,-1279.23C408.58,-1314.12 277.46,-1387.97 210.6,-1425.63"/>
<polygon fill="black" stroke="black" points="208.6,-1422.74 201.61,-1430.7 212.04,-1428.84 208.6,-1422.74"/>
</g>
<!-- 48&#45;&gt;56 -->
<g id="edge16" class="edge">
<title>48&#45;&gt;56</title>
<path fill="none" stroke="black" d="M413.85,-1263.17C334.36,-1265.87 220.05,-1269.74 144.68,-1272.3"/>
<polygon fill="black" stroke="black" points="144.19,-1268.81 134.32,-1272.65 144.43,-1275.81 144.19,-1268.81"/>
</g>
<!-- 48&#45;&gt;58 -->
<g id="edge17" class="edge">
<title>48&#45;&gt;58</title>
<path fill="none" stroke="black" d="M413.82,-1263.35C380.48,-1264.54 343.05,-1265.88 310.96,-1267.02"/>
<polygon fill="black" stroke="black" points="310.61,-1263.54 300.74,-1267.39 310.86,-1270.53 310.61,-1263.54"/>
</g>
<!-- 65 -->
<g id="node23" class="node">
<title>65</title>
<path fill="lightpink" stroke="lightpink" d="M1543.62,-486.34C1543.62,-486.34 1426.62,-486.34 1426.62,-486.34 1420.62,-486.34 1414.62,-480.34 1414.62,-474.34 1414.62,-474.34 1414.62,-462.34 1414.62,-462.34 1414.62,-456.34 1420.62,-450.34 1426.62,-450.34 1426.62,-450.34 1543.62,-450.34 1543.62,-450.34 1549.62,-450.34 1555.62,-456.34 1555.62,-462.34 1555.62,-462.34 1555.62,-474.34 1555.62,-474.34 1555.62,-480.34 1549.62,-486.34 1543.62,-486.34"/>
<text text-anchor="middle" x="1485.12" y="-464.64" font-family="Times,serif" font-size="14.00">{&#39;fileID&#39;: 1351522637}</text>
</g>
<!-- 67 -->
<g id="node24" class="node">
<title>67</title>
<path fill="lightpink" stroke="lightpink" d="M1550.92,-305.83C1550.92,-305.83 1433.92,-305.83 1433.92,-305.83 1427.92,-305.83 1421.92,-299.83 1421.92,-293.83 1421.92,-293.83 1421.92,-281.83 1421.92,-281.83 1421.92,-275.83 1427.92,-269.83 1433.92,-269.83 1433.92,-269.83 1550.92,-269.83 1550.92,-269.83 1556.92,-269.83 1562.92,-275.83 1562.92,-281.83 1562.92,-281.83 1562.92,-293.83 1562.92,-293.83 1562.92,-299.83 1556.92,-305.83 1550.92,-305.83"/>
<text text-anchor="middle" x="1492.42" y="-284.13" font-family="Times,serif" font-size="14.00">{&#39;fileID&#39;: 1351522640}</text>
</g>
<!-- 69 -->
<g id="node25" class="node">
<title>69</title>
<path fill="lightpink" stroke="lightpink" d="M1720.55,-493.49C1720.55,-493.49 1603.55,-493.49 1603.55,-493.49 1597.55,-493.49 1591.55,-487.49 1591.55,-481.49 1591.55,-481.49 1591.55,-469.49 1591.55,-469.49 1591.55,-463.49 1597.55,-457.49 1603.55,-457.49 1603.55,-457.49 1720.55,-457.49 1720.55,-457.49 1726.55,-457.49 1732.55,-463.49 1732.55,-469.49 1732.55,-469.49 1732.55,-481.49 1732.55,-481.49 1732.55,-487.49 1726.55,-493.49 1720.55,-493.49"/>
<text text-anchor="middle" x="1662.05" y="-471.79" font-family="Times,serif" font-size="14.00">{&#39;fileID&#39;: 1351522639}</text>
</g>
<!-- 71 -->
<g id="node26" class="node">
<title>71</title>
<path fill="lightpink" stroke="lightpink" d="M1705,-318.26C1705,-318.26 1588,-318.26 1588,-318.26 1582,-318.26 1576,-312.26 1576,-306.26 1576,-306.26 1576,-294.26 1576,-294.26 1576,-288.26 1582,-282.26 1588,-282.26 1588,-282.26 1705,-282.26 1705,-282.26 1711,-282.26 1717,-288.26 1717,-294.26 1717,-294.26 1717,-306.26 1717,-306.26 1717,-312.26 1711,-318.26 1705,-318.26"/>
<text text-anchor="middle" x="1646.5" y="-296.56" font-family="Times,serif" font-size="14.00">{&#39;fileID&#39;: 1351522638}</text>
</g>
<!-- 61 -->
<g id="node27" class="node">
<title>61</title>
<path fill="#b0e2ff" stroke="#b0e2ff" d="M1560.4,-657.76C1560.4,-657.76 1396.4,-657.76 1396.4,-657.76 1390.4,-657.76 1384.4,-651.76 1384.4,-645.76 1384.4,-645.76 1384.4,-631.76 1384.4,-631.76 1384.4,-625.76 1390.4,-619.76 1396.4,-619.76 1396.4,-619.76 1560.4,-619.76 1560.4,-619.76 1566.4,-619.76 1572.4,-625.76 1572.4,-631.76 1572.4,-631.76 1572.4,-645.76 1572.4,-645.76 1572.4,-651.76 1566.4,-657.76 1560.4,-657.76"/>
<text text-anchor="middle" x="1478.4" y="-642.56" font-family="Times,serif" font-size="14.00">GameObject_1_ID1351522636</text>
<text text-anchor="middle" x="1478.4" y="-627.56" font-family="Times,serif" font-size="14.00">ExitButton</text>
</g>
<!-- 61&#45;&gt;65 -->
<g id="edge18" class="edge">
<title>61&#45;&gt;65</title>
<path fill="none" stroke="black" d="M1479.16,-619.54C1480.34,-589.61 1482.62,-531.7 1484,-496.88"/>
<polygon fill="black" stroke="black" points="1487.51,-496.58 1484.41,-486.45 1480.52,-496.31 1487.51,-496.58"/>
</g>
<!-- 61&#45;&gt;67 -->
<g id="edge19" class="edge">
<title>61&#45;&gt;67</title>
<path fill="none" stroke="black" d="M1479.16,-619.64C1481.49,-561.26 1488.53,-385.09 1491.29,-316.04"/>
<polygon fill="black" stroke="black" points="1494.79,-316.04 1491.7,-305.91 1487.8,-315.76 1494.79,-316.04"/>
</g>
<!-- 61&#45;&gt;69 -->
<g id="edge20" class="edge">
<title>61&#45;&gt;69</title>
<path fill="none" stroke="black" d="M1499.82,-619.71C1532.99,-590.23 1596.77,-533.53 1633.7,-500.69"/>
<polygon fill="black" stroke="black" points="1636.45,-502.93 1641.6,-493.67 1631.8,-497.7 1636.45,-502.93"/>
</g>
<!-- 61&#45;&gt;71 -->
<g id="edge21" class="edge">
<title>61&#45;&gt;71</title>
<path fill="none" stroke="black" d="M1487.92,-619.59C1516.25,-562.54 1600.1,-393.68 1633.02,-327.4"/>
<polygon fill="black" stroke="black" points="1636.18,-328.9 1637.49,-318.39 1629.91,-325.79 1636.18,-328.9"/>
</g>
<!-- 78 -->
<g id="node28" class="node">
<title>78</title>
<path fill="lightpink" stroke="lightpink" d="M1077.54,-163.5C1077.54,-163.5 967.54,-163.5 967.54,-163.5 961.54,-163.5 955.54,-157.5 955.54,-151.5 955.54,-151.5 955.54,-139.5 955.54,-139.5 955.54,-133.5 961.54,-127.5 967.54,-127.5 967.54,-127.5 1077.54,-127.5 1077.54,-127.5 1083.54,-127.5 1089.54,-133.5 1089.54,-139.5 1089.54,-139.5 1089.54,-151.5 1089.54,-151.5 1089.54,-157.5 1083.54,-163.5 1077.54,-163.5"/>
<text text-anchor="middle" x="1022.54" y="-141.8" font-family="Times,serif" font-size="14.00">{&#39;fileID&#39;: 960558224}</text>
</g>
<!-- 80 -->
<g id="node29" class="node">
<title>80</title>
<path fill="lightpink" stroke="lightpink" d="M1013.27,-325.49C1013.27,-325.49 903.27,-325.49 903.27,-325.49 897.27,-325.49 891.27,-319.49 891.27,-313.49 891.27,-313.49 891.27,-301.49 891.27,-301.49 891.27,-295.49 897.27,-289.49 903.27,-289.49 903.27,-289.49 1013.27,-289.49 1013.27,-289.49 1019.27,-289.49 1025.27,-295.49 1025.27,-301.49 1025.27,-301.49 1025.27,-313.49 1025.27,-313.49 1025.27,-319.49 1019.27,-325.49 1013.27,-325.49"/>
<text text-anchor="middle" x="958.27" y="-303.79" font-family="Times,serif" font-size="14.00">{&#39;fileID&#39;: 960558226}</text>
</g>
<!-- 82 -->
<g id="node30" class="node">
<title>82</title>
<path fill="lightpink" stroke="lightpink" d="M1185.89,-306.81C1185.89,-306.81 1075.89,-306.81 1075.89,-306.81 1069.89,-306.81 1063.89,-300.81 1063.89,-294.81 1063.89,-294.81 1063.89,-282.81 1063.89,-282.81 1063.89,-276.81 1069.89,-270.81 1075.89,-270.81 1075.89,-270.81 1185.89,-270.81 1185.89,-270.81 1191.89,-270.81 1197.89,-276.81 1197.89,-282.81 1197.89,-282.81 1197.89,-294.81 1197.89,-294.81 1197.89,-300.81 1191.89,-306.81 1185.89,-306.81"/>
<text text-anchor="middle" x="1130.89" y="-285.11" font-family="Times,serif" font-size="14.00">{&#39;fileID&#39;: 960558225}</text>
</g>
<!-- 74 -->
<g id="node31" class="node">
<title>74</title>
<path fill="#b0e2ff" stroke="#b0e2ff" d="M1212.49,-580.4C1212.49,-580.4 1055.49,-580.4 1055.49,-580.4 1049.49,-580.4 1043.49,-574.4 1043.49,-568.4 1043.49,-568.4 1043.49,-554.4 1043.49,-554.4 1043.49,-548.4 1049.49,-542.4 1055.49,-542.4 1055.49,-542.4 1212.49,-542.4 1212.49,-542.4 1218.49,-542.4 1224.49,-548.4 1224.49,-554.4 1224.49,-554.4 1224.49,-568.4 1224.49,-568.4 1224.49,-574.4 1218.49,-580.4 1212.49,-580.4"/>
<text text-anchor="middle" x="1133.99" y="-565.2" font-family="Times,serif" font-size="14.00">GameObject_1_ID960558223</text>
<text text-anchor="middle" x="1133.99" y="-550.2" font-family="Times,serif" font-size="14.00">Text</text>
</g>
<!-- 74&#45;&gt;78 -->
<g id="edge22" class="edge">
<title>74&#45;&gt;78</title>
<path fill="none" stroke="black" d="M1128.84,-542.17C1110.9,-475.21 1051.08,-252.01 1029.99,-173.28"/>
<polygon fill="black" stroke="black" points="1033.36,-172.33 1027.39,-163.58 1026.59,-174.14 1033.36,-172.33"/>
</g>
<!-- 74&#45;&gt;80 -->
<g id="edge23" class="edge">
<title>74&#45;&gt;80</title>
<path fill="none" stroke="black" d="M1120.78,-542.32C1089.77,-497.51 1012.25,-385.49 976.66,-334.06"/>
<polygon fill="black" stroke="black" points="979.49,-332 970.92,-325.77 973.73,-335.98 979.49,-332"/>
</g>
<!-- 74&#45;&gt;82 -->
<g id="edge24" class="edge">
<title>74&#45;&gt;82</title>
<path fill="none" stroke="black" d="M1133.77,-542.23C1133.24,-494.97 1131.84,-372.67 1131.21,-317.07"/>
<polygon fill="black" stroke="black" points="1134.71,-316.84 1131.09,-306.88 1127.71,-316.92 1134.71,-316.84"/>
</g>
<!-- 89 -->
<g id="node32" class="node">
<title>89</title>
<path fill="lightpink" stroke="lightpink" d="M2055.94,-1639.56C2055.94,-1639.56 1938.94,-1639.56 1938.94,-1639.56 1932.94,-1639.56 1926.94,-1633.56 1926.94,-1627.56 1926.94,-1627.56 1926.94,-1615.56 1926.94,-1615.56 1926.94,-1609.56 1932.94,-1603.56 1938.94,-1603.56 1938.94,-1603.56 2055.94,-1603.56 2055.94,-1603.56 2061.94,-1603.56 2067.94,-1609.56 2067.94,-1615.56 2067.94,-1615.56 2067.94,-1627.56 2067.94,-1627.56 2067.94,-1633.56 2061.94,-1639.56 2055.94,-1639.56"/>
<text text-anchor="middle" x="1997.44" y="-1617.86" font-family="Times,serif" font-size="14.00">{&#39;fileID&#39;: 1089201444}</text>
</g>
<!-- 91 -->
<g id="node33" class="node">
<title>91</title>
<path fill="lightpink" stroke="lightpink" d="M1937.23,-1535.73C1937.23,-1535.73 1820.23,-1535.73 1820.23,-1535.73 1814.23,-1535.73 1808.23,-1529.73 1808.23,-1523.73 1808.23,-1523.73 1808.23,-1511.73 1808.23,-1511.73 1808.23,-1505.73 1814.23,-1499.73 1820.23,-1499.73 1820.23,-1499.73 1937.23,-1499.73 1937.23,-1499.73 1943.23,-1499.73 1949.23,-1505.73 1949.23,-1511.73 1949.23,-1511.73 1949.23,-1523.73 1949.23,-1523.73 1949.23,-1529.73 1943.23,-1535.73 1937.23,-1535.73"/>
<text text-anchor="middle" x="1878.73" y="-1514.03" font-family="Times,serif" font-size="14.00">{&#39;fileID&#39;: 1089201445}</text>
</g>
<!-- 85 -->
<g id="node34" class="node">
<title>85</title>
<path fill="#b0e2ff" stroke="#b0e2ff" d="M1769.4,-1432.46C1769.4,-1432.46 1605.4,-1432.46 1605.4,-1432.46 1599.4,-1432.46 1593.4,-1426.46 1593.4,-1420.46 1593.4,-1420.46 1593.4,-1406.46 1593.4,-1406.46 1593.4,-1400.46 1599.4,-1394.46 1605.4,-1394.46 1605.4,-1394.46 1769.4,-1394.46 1769.4,-1394.46 1775.4,-1394.46 1781.4,-1400.46 1781.4,-1406.46 1781.4,-1406.46 1781.4,-1420.46 1781.4,-1420.46 1781.4,-1426.46 1775.4,-1432.46 1769.4,-1432.46"/>
<text text-anchor="middle" x="1687.4" y="-1417.26" font-family="Times,serif" font-size="14.00">GameObject_1_ID1089201443</text>
<text text-anchor="middle" x="1687.4" y="-1402.26" font-family="Times,serif" font-size="14.00">Buttons</text>
</g>
<!-- 85&#45;&gt;89 -->
<g id="edge25" class="edge">
<title>85&#45;&gt;89</title>
<path fill="none" stroke="black" d="M1715.74,-1432.48C1772.44,-1470.54 1899.76,-1555.99 1961.92,-1597.72"/>
<polygon fill="black" stroke="black" points="1960.35,-1600.88 1970.61,-1603.55 1964.25,-1595.07 1960.35,-1600.88"/>
</g>
<!-- 85&#45;&gt;91 -->
<g id="edge26" class="edge">
<title>85&#45;&gt;91</title>
<path fill="none" stroke="black" d="M1722.5,-1432.58C1754.68,-1450.12 1802.4,-1476.13 1836.63,-1494.78"/>
<polygon fill="black" stroke="black" points="1835,-1497.88 1845.46,-1499.6 1838.35,-1491.74 1835,-1497.88"/>
</g>
<!-- 98 -->
<g id="node35" class="node">
<title>98</title>
<path fill="lightpink" stroke="lightpink" d="M2067.37,-634.5C2067.37,-634.5 1950.37,-634.5 1950.37,-634.5 1944.37,-634.5 1938.37,-628.5 1938.37,-622.5 1938.37,-622.5 1938.37,-610.5 1938.37,-610.5 1938.37,-604.5 1944.37,-598.5 1950.37,-598.5 1950.37,-598.5 2067.37,-598.5 2067.37,-598.5 2073.37,-598.5 2079.37,-604.5 2079.37,-610.5 2079.37,-610.5 2079.37,-622.5 2079.37,-622.5 2079.37,-628.5 2073.37,-634.5 2067.37,-634.5"/>
<text text-anchor="middle" x="2008.87" y="-612.8" font-family="Times,serif" font-size="14.00">{&#39;fileID&#39;: 1651329296}</text>
</g>
<!-- 100 -->
<g id="node36" class="node">
<title>100</title>
<path fill="lightpink" stroke="lightpink" d="M2241.54,-545.54C2241.54,-545.54 2124.54,-545.54 2124.54,-545.54 2118.54,-545.54 2112.54,-539.54 2112.54,-533.54 2112.54,-533.54 2112.54,-521.54 2112.54,-521.54 2112.54,-515.54 2118.54,-509.54 2124.54,-509.54 2124.54,-509.54 2241.54,-509.54 2241.54,-509.54 2247.54,-509.54 2253.54,-515.54 2253.54,-521.54 2253.54,-521.54 2253.54,-533.54 2253.54,-533.54 2253.54,-539.54 2247.54,-545.54 2241.54,-545.54"/>
<text text-anchor="middle" x="2183.04" y="-523.84" font-family="Times,serif" font-size="14.00">{&#39;fileID&#39;: 1651329298}</text>
</g>
<!-- 102 -->
<g id="node37" class="node">
<title>102</title>
<path fill="lightpink" stroke="lightpink" d="M2222.86,-699.46C2222.86,-699.46 2105.86,-699.46 2105.86,-699.46 2099.86,-699.46 2093.86,-693.46 2093.86,-687.46 2093.86,-687.46 2093.86,-675.46 2093.86,-675.46 2093.86,-669.46 2099.86,-663.46 2105.86,-663.46 2105.86,-663.46 2222.86,-663.46 2222.86,-663.46 2228.86,-663.46 2234.86,-669.46 2234.86,-675.46 2234.86,-675.46 2234.86,-687.46 2234.86,-687.46 2234.86,-693.46 2228.86,-699.46 2222.86,-699.46"/>
<text text-anchor="middle" x="2164.36" y="-677.76" font-family="Times,serif" font-size="14.00">{&#39;fileID&#39;: 1651329297}</text>
</g>
<!-- 94 -->
<g id="node38" class="node">
<title>94</title>
<path fill="#b0e2ff" stroke="#b0e2ff" d="M1911.6,-816.52C1911.6,-816.52 1747.6,-816.52 1747.6,-816.52 1741.6,-816.52 1735.6,-810.52 1735.6,-804.52 1735.6,-804.52 1735.6,-790.52 1735.6,-790.52 1735.6,-784.52 1741.6,-778.52 1747.6,-778.52 1747.6,-778.52 1911.6,-778.52 1911.6,-778.52 1917.6,-778.52 1923.6,-784.52 1923.6,-790.52 1923.6,-790.52 1923.6,-804.52 1923.6,-804.52 1923.6,-810.52 1917.6,-816.52 1911.6,-816.52"/>
<text text-anchor="middle" x="1829.6" y="-801.32" font-family="Times,serif" font-size="14.00">GameObject_1_ID1651329295</text>
<text text-anchor="middle" x="1829.6" y="-786.32" font-family="Times,serif" font-size="14.00">Text</text>
</g>
<!-- 94&#45;&gt;98 -->
<g id="edge27" class="edge">
<title>94&#45;&gt;98</title>
<path fill="none" stroke="black" d="M1848.45,-778.49C1880.84,-745.78 1947.11,-678.87 1983.51,-642.1"/>
<polygon fill="black" stroke="black" points="1986.26,-644.3 1990.81,-634.74 1981.28,-639.38 1986.26,-644.3"/>
</g>
<!-- 94&#45;&gt;100 -->
<g id="edge28" class="edge">
<title>94&#45;&gt;100</title>
<path fill="none" stroke="black" d="M1854.74,-778.32C1917.63,-730.28 2081.72,-604.93 2151.21,-551.85"/>
<polygon fill="black" stroke="black" points="2153.38,-554.6 2159.2,-545.75 2149.13,-549.04 2153.38,-554.6"/>
</g>
<!-- 94&#45;&gt;102 -->
<g id="edge29" class="edge">
<title>94&#45;&gt;102</title>
<path fill="none" stroke="black" d="M1884.51,-778.49C1944.37,-757.73 2039.96,-724.59 2102.45,-702.92"/>
<polygon fill="black" stroke="black" points="2103.88,-706.13 2112.18,-699.55 2101.59,-699.52 2103.88,-706.13"/>
</g>
<!-- 109 -->
<g id="node39" class="node">
<title>109</title>
<path fill="lightpink" stroke="lightpink" d="M1086.47,-752.98C1086.47,-752.98 969.47,-752.98 969.47,-752.98 963.47,-752.98 957.47,-746.98 957.47,-740.98 957.47,-740.98 957.47,-728.98 957.47,-728.98 957.47,-722.98 963.47,-716.98 969.47,-716.98 969.47,-716.98 1086.47,-716.98 1086.47,-716.98 1092.47,-716.98 1098.47,-722.98 1098.47,-728.98 1098.47,-728.98 1098.47,-740.98 1098.47,-740.98 1098.47,-746.98 1092.47,-752.98 1086.47,-752.98"/>
<text text-anchor="middle" x="1027.97" y="-731.28" font-family="Times,serif" font-size="14.00">{&#39;fileID&#39;: 1040292124}</text>
</g>
<!-- 111 -->
<g id="node40" class="node">
<title>111</title>
<path fill="lightpink" stroke="lightpink" d="M897.48,-929.86C897.48,-929.86 780.48,-929.86 780.48,-929.86 774.48,-929.86 768.48,-923.86 768.48,-917.86 768.48,-917.86 768.48,-905.86 768.48,-905.86 768.48,-899.86 774.48,-893.86 780.48,-893.86 780.48,-893.86 897.48,-893.86 897.48,-893.86 903.48,-893.86 909.48,-899.86 909.48,-905.86 909.48,-905.86 909.48,-917.86 909.48,-917.86 909.48,-923.86 903.48,-929.86 897.48,-929.86"/>
<text text-anchor="middle" x="838.98" y="-908.16" font-family="Times,serif" font-size="14.00">{&#39;fileID&#39;: 1040292126}</text>
</g>
<!-- 113 -->
<g id="node41" class="node">
<title>113</title>
<path fill="lightpink" stroke="lightpink" d="M856.57,-719.57C856.57,-719.57 739.57,-719.57 739.57,-719.57 733.57,-719.57 727.57,-713.57 727.57,-707.57 727.57,-707.57 727.57,-695.57 727.57,-695.57 727.57,-689.57 733.57,-683.57 739.57,-683.57 739.57,-683.57 856.57,-683.57 856.57,-683.57 862.57,-683.57 868.57,-689.57 868.57,-695.57 868.57,-695.57 868.57,-707.57 868.57,-707.57 868.57,-713.57 862.57,-719.57 856.57,-719.57"/>
<text text-anchor="middle" x="798.07" y="-697.87" font-family="Times,serif" font-size="14.00">{&#39;fileID&#39;: 1040292125}</text>
</g>
<!-- 105 -->
<g id="node42" class="node">
<title>105</title>
<path fill="#b0e2ff" stroke="#b0e2ff" d="M1106.83,-933.56C1106.83,-933.56 942.83,-933.56 942.83,-933.56 936.83,-933.56 930.83,-927.56 930.83,-921.56 930.83,-921.56 930.83,-907.56 930.83,-907.56 930.83,-901.56 936.83,-895.56 942.83,-895.56 942.83,-895.56 1106.83,-895.56 1106.83,-895.56 1112.83,-895.56 1118.83,-901.56 1118.83,-907.56 1118.83,-907.56 1118.83,-921.56 1118.83,-921.56 1118.83,-927.56 1112.83,-933.56 1106.83,-933.56"/>
<text text-anchor="middle" x="1024.83" y="-918.36" font-family="Times,serif" font-size="14.00">GameObject_1_ID1040292123</text>
<text text-anchor="middle" x="1024.83" y="-903.36" font-family="Times,serif" font-size="14.00">Text</text>
</g>
<!-- 105&#45;&gt;109 -->
<g id="edge30" class="edge">
<title>105&#45;&gt;109</title>
<path fill="none" stroke="black" d="M1025.16,-895.34C1025.72,-863.55 1026.83,-799.88 1027.48,-763.05"/>
<polygon fill="black" stroke="black" points="1030.98,-763.05 1027.65,-752.99 1023.98,-762.93 1030.98,-763.05"/>
</g>
<!-- 105&#45;&gt;111 -->
<g id="edge31" class="edge">
<title>105&#45;&gt;111</title>
<path fill="none" stroke="black" d="M930.82,-913.19C927.15,-913.14 923.48,-913.09 919.84,-913.03"/>
<polygon fill="black" stroke="black" points="919.72,-909.53 909.67,-912.89 919.62,-916.53 919.72,-909.53"/>
</g>
<!-- 105&#45;&gt;113 -->
<g id="edge32" class="edge">
<title>105&#45;&gt;113</title>
<path fill="none" stroke="black" d="M1004.31,-895.28C963.18,-856.66 870.72,-769.81 824.88,-726.76"/>
<polygon fill="black" stroke="black" points="827.1,-724.04 817.41,-719.74 822.31,-729.14 827.1,-724.04"/>
</g>
<!-- 120 -->
<g id="node43" class="node">
<title>120</title>
<path fill="lightpink" stroke="lightpink" d="M514.14,-525.17C514.14,-525.17 404.14,-525.17 404.14,-525.17 398.14,-525.17 392.14,-519.17 392.14,-513.17 392.14,-513.17 392.14,-501.17 392.14,-501.17 392.14,-495.17 398.14,-489.17 404.14,-489.17 404.14,-489.17 514.14,-489.17 514.14,-489.17 520.14,-489.17 526.14,-495.17 526.14,-501.17 526.14,-501.17 526.14,-513.17 526.14,-513.17 526.14,-519.17 520.14,-525.17 514.14,-525.17"/>
<text text-anchor="middle" x="459.14" y="-503.47" font-family="Times,serif" font-size="14.00">{&#39;fileID&#39;: 808250885}</text>
</g>
<!-- 122 -->
<g id="node44" class="node">
<title>122</title>
<path fill="lightpink" stroke="lightpink" d="M457.19,-675.02C457.19,-675.02 347.19,-675.02 347.19,-675.02 341.19,-675.02 335.19,-669.02 335.19,-663.02 335.19,-663.02 335.19,-651.02 335.19,-651.02 335.19,-645.02 341.19,-639.02 347.19,-639.02 347.19,-639.02 457.19,-639.02 457.19,-639.02 463.19,-639.02 469.19,-645.02 469.19,-651.02 469.19,-651.02 469.19,-663.02 469.19,-663.02 469.19,-669.02 463.19,-675.02 457.19,-675.02"/>
<text text-anchor="middle" x="402.19" y="-653.32" font-family="Times,serif" font-size="14.00">{&#39;fileID&#39;: 808250887}</text>
</g>
<!-- 124 -->
<g id="node45" class="node">
<title>124</title>
<path fill="lightpink" stroke="lightpink" d="M312.08,-672.31C312.08,-672.31 202.08,-672.31 202.08,-672.31 196.08,-672.31 190.08,-666.31 190.08,-660.31 190.08,-660.31 190.08,-648.31 190.08,-648.31 190.08,-642.31 196.08,-636.31 202.08,-636.31 202.08,-636.31 312.08,-636.31 312.08,-636.31 318.08,-636.31 324.08,-642.31 324.08,-648.31 324.08,-648.31 324.08,-660.31 324.08,-660.31 324.08,-666.31 318.08,-672.31 312.08,-672.31"/>
<text text-anchor="middle" x="257.08" y="-650.61" font-family="Times,serif" font-size="14.00">{&#39;fileID&#39;: 808250886}</text>
</g>
<!-- 116 -->
<g id="node46" class="node">
<title>116</title>
<path fill="#b0e2ff" stroke="#b0e2ff" d="M750.64,-829.2C750.64,-829.2 593.64,-829.2 593.64,-829.2 587.64,-829.2 581.64,-823.2 581.64,-817.2 581.64,-817.2 581.64,-803.2 581.64,-803.2 581.64,-797.2 587.64,-791.2 593.64,-791.2 593.64,-791.2 750.64,-791.2 750.64,-791.2 756.64,-791.2 762.64,-797.2 762.64,-803.2 762.64,-803.2 762.64,-817.2 762.64,-817.2 762.64,-823.2 756.64,-829.2 750.64,-829.2"/>
<text text-anchor="middle" x="672.14" y="-814" font-family="Times,serif" font-size="14.00">GameObject_1_ID808250884</text>
<text text-anchor="middle" x="672.14" y="-799" font-family="Times,serif" font-size="14.00">Application</text>
</g>
<!-- 116&#45;&gt;120 -->
<g id="edge33" class="edge">
<title>116&#45;&gt;120</title>
<path fill="none" stroke="black" d="M658.49,-790.78C621.63,-738.35 520.04,-593.82 477.87,-533.82"/>
<polygon fill="black" stroke="black" points="480.47,-531.44 471.86,-525.27 474.75,-535.46 480.47,-531.44"/>
</g>
<!-- 116&#45;&gt;122 -->
<g id="edge34" class="edge">
<title>116&#45;&gt;122</title>
<path fill="none" stroke="black" d="M638.5,-791.11C588.93,-762.98 496.39,-710.47 443.01,-680.18"/>
<polygon fill="black" stroke="black" points="444.58,-677.05 434.16,-675.15 441.13,-683.13 444.58,-677.05"/>
</g>
<!-- 116&#45;&gt;124 -->
<g id="edge35" class="edge">
<title>116&#45;&gt;124</title>
<path fill="none" stroke="black" d="M621.24,-791.09C543.65,-761.94 396.23,-706.57 314.77,-675.98"/>
<polygon fill="black" stroke="black" points="315.76,-672.61 305.17,-672.37 313.3,-679.16 315.76,-672.61"/>
</g>
<!-- 131 -->
<g id="node47" class="node">
<title>131</title>
<path fill="lightpink" stroke="lightpink" d="M360.52,-1676.11C360.52,-1676.11 250.52,-1676.11 250.52,-1676.11 244.52,-1676.11 238.52,-1670.11 238.52,-1664.11 238.52,-1664.11 238.52,-1652.11 238.52,-1652.11 238.52,-1646.11 244.52,-1640.11 250.52,-1640.11 250.52,-1640.11 360.52,-1640.11 360.52,-1640.11 366.52,-1640.11 372.52,-1646.11 372.52,-1652.11 372.52,-1652.11 372.52,-1664.11 372.52,-1664.11 372.52,-1670.11 366.52,-1676.11 360.52,-1676.11"/>
<text text-anchor="middle" x="305.52" y="-1654.41" font-family="Times,serif" font-size="14.00">{&#39;fileID&#39;: 265550442}</text>
</g>
<!-- 133 -->
<g id="node48" class="node">
<title>133</title>
<path fill="lightpink" stroke="lightpink" d="M485.33,-1570.37C485.33,-1570.37 375.33,-1570.37 375.33,-1570.37 369.33,-1570.37 363.33,-1564.37 363.33,-1558.37 363.33,-1558.37 363.33,-1546.37 363.33,-1546.37 363.33,-1540.37 369.33,-1534.37 375.33,-1534.37 375.33,-1534.37 485.33,-1534.37 485.33,-1534.37 491.33,-1534.37 497.33,-1540.37 497.33,-1546.37 497.33,-1546.37 497.33,-1558.37 497.33,-1558.37 497.33,-1564.37 491.33,-1570.37 485.33,-1570.37"/>
<text text-anchor="middle" x="430.33" y="-1548.67" font-family="Times,serif" font-size="14.00">{&#39;fileID&#39;: 265550444}</text>
</g>
<!-- 135 -->
<g id="node49" class="node">
<title>135</title>
<path fill="lightpink" stroke="lightpink" d="M483.91,-1789.08C483.91,-1789.08 373.91,-1789.08 373.91,-1789.08 367.91,-1789.08 361.91,-1783.08 361.91,-1777.08 361.91,-1777.08 361.91,-1765.08 361.91,-1765.08 361.91,-1759.08 367.91,-1753.08 373.91,-1753.08 373.91,-1753.08 483.91,-1753.08 483.91,-1753.08 489.91,-1753.08 495.91,-1759.08 495.91,-1765.08 495.91,-1765.08 495.91,-1777.08 495.91,-1777.08 495.91,-1783.08 489.91,-1789.08 483.91,-1789.08"/>
<text text-anchor="middle" x="428.91" y="-1767.38" font-family="Times,serif" font-size="14.00">{&#39;fileID&#39;: 265550443}</text>
</g>
<!-- 127 -->
<g id="node50" class="node">
<title>127</title>
<path fill="#b0e2ff" stroke="#b0e2ff" d="M766.39,-1492.99C766.39,-1492.99 609.39,-1492.99 609.39,-1492.99 603.39,-1492.99 597.39,-1486.99 597.39,-1480.99 597.39,-1480.99 597.39,-1466.99 597.39,-1466.99 597.39,-1460.99 603.39,-1454.99 609.39,-1454.99 609.39,-1454.99 766.39,-1454.99 766.39,-1454.99 772.39,-1454.99 778.39,-1460.99 778.39,-1466.99 778.39,-1466.99 778.39,-1480.99 778.39,-1480.99 778.39,-1486.99 772.39,-1492.99 766.39,-1492.99"/>
<text text-anchor="middle" x="687.89" y="-1477.79" font-family="Times,serif" font-size="14.00">GameObject_1_ID265550441</text>
<text text-anchor="middle" x="687.89" y="-1462.79" font-family="Times,serif" font-size="14.00">Text</text>
</g>
<!-- 127&#45;&gt;131 -->
<g id="edge36" class="edge">
<title>127&#45;&gt;131</title>
<path fill="none" stroke="black" d="M648.41,-1493C577.41,-1527.19 428.51,-1598.89 352.43,-1635.52"/>
<polygon fill="black" stroke="black" points="350.57,-1632.53 343.08,-1640.02 353.61,-1638.84 350.57,-1632.53"/>
</g>
<!-- 127&#45;&gt;133 -->
<g id="edge37" class="edge">
<title>127&#45;&gt;133</title>
<path fill="none" stroke="black" d="M625.21,-1493.06C587.19,-1504.63 538.62,-1519.42 499.48,-1531.33"/>
<polygon fill="black" stroke="black" points="498.29,-1528.03 489.74,-1534.29 500.33,-1534.73 498.29,-1528.03"/>
</g>
<!-- 127&#45;&gt;135 -->
<g id="edge38" class="edge">
<title>127&#45;&gt;135</title>
<path fill="none" stroke="black" d="M671.3,-1493.02C626.41,-1544.52 502.54,-1686.62 451.42,-1745.26"/>
<polygon fill="black" stroke="black" points="448.64,-1743.12 444.71,-1752.96 453.92,-1747.72 448.64,-1743.12"/>
</g>
<!-- 142 -->
<g id="node51" class="node">
<title>142</title>
<path fill="lightpink" stroke="lightpink" d="M388.45,-972.96C388.45,-972.96 271.45,-972.96 271.45,-972.96 265.45,-972.96 259.45,-966.96 259.45,-960.96 259.45,-960.96 259.45,-948.96 259.45,-948.96 259.45,-942.96 265.45,-936.96 271.45,-936.96 271.45,-936.96 388.45,-936.96 388.45,-936.96 394.45,-936.96 400.45,-942.96 400.45,-948.96 400.45,-948.96 400.45,-960.96 400.45,-960.96 400.45,-966.96 394.45,-972.96 388.45,-972.96"/>
<text text-anchor="middle" x="329.95" y="-951.26" font-family="Times,serif" font-size="14.00">{&#39;fileID&#39;: 1525520956}</text>
</g>
<!-- 144 -->
<g id="node52" class="node">
<title>144</title>
<path fill="lightpink" stroke="lightpink" d="M498.46,-1118.21C498.46,-1118.21 381.46,-1118.21 381.46,-1118.21 375.46,-1118.21 369.46,-1112.21 369.46,-1106.21 369.46,-1106.21 369.46,-1094.21 369.46,-1094.21 369.46,-1088.21 375.46,-1082.21 381.46,-1082.21 381.46,-1082.21 498.46,-1082.21 498.46,-1082.21 504.46,-1082.21 510.46,-1088.21 510.46,-1094.21 510.46,-1094.21 510.46,-1106.21 510.46,-1106.21 510.46,-1112.21 504.46,-1118.21 498.46,-1118.21"/>
<text text-anchor="middle" x="439.96" y="-1096.51" font-family="Times,serif" font-size="14.00">{&#39;fileID&#39;: 1525520959}</text>
</g>
<!-- 146 -->
<g id="node53" class="node">
<title>146</title>
<path fill="lightpink" stroke="lightpink" d="M500.65,-900.61C500.65,-900.61 383.65,-900.61 383.65,-900.61 377.65,-900.61 371.65,-894.61 371.65,-888.61 371.65,-888.61 371.65,-876.61 371.65,-876.61 371.65,-870.61 377.65,-864.61 383.65,-864.61 383.65,-864.61 500.65,-864.61 500.65,-864.61 506.65,-864.61 512.65,-870.61 512.65,-876.61 512.65,-876.61 512.65,-888.61 512.65,-888.61 512.65,-894.61 506.65,-900.61 500.65,-900.61"/>
<text text-anchor="middle" x="442.15" y="-878.91" font-family="Times,serif" font-size="14.00">{&#39;fileID&#39;: 1525520958}</text>
</g>
<!-- 148 -->
<g id="node54" class="node">
<title>148</title>
<path fill="lightpink" stroke="lightpink" d="M652.07,-1024.81C652.07,-1024.81 535.07,-1024.81 535.07,-1024.81 529.07,-1024.81 523.07,-1018.81 523.07,-1012.81 523.07,-1012.81 523.07,-1000.81 523.07,-1000.81 523.07,-994.81 529.07,-988.81 535.07,-988.81 535.07,-988.81 652.07,-988.81 652.07,-988.81 658.07,-988.81 664.07,-994.81 664.07,-1000.81 664.07,-1000.81 664.07,-1012.81 664.07,-1012.81 664.07,-1018.81 658.07,-1024.81 652.07,-1024.81"/>
<text text-anchor="middle" x="593.57" y="-1003.11" font-family="Times,serif" font-size="14.00">{&#39;fileID&#39;: 1525520957}</text>
</g>
<!-- 138 -->
<g id="node55" class="node">
<title>138</title>
<path fill="#b0e2ff" stroke="#b0e2ff" d="M798.8,-1087.13C798.8,-1087.13 634.8,-1087.13 634.8,-1087.13 628.8,-1087.13 622.8,-1081.13 622.8,-1075.13 622.8,-1075.13 622.8,-1061.13 622.8,-1061.13 622.8,-1055.13 628.8,-1049.13 634.8,-1049.13 634.8,-1049.13 798.8,-1049.13 798.8,-1049.13 804.8,-1049.13 810.8,-1055.13 810.8,-1061.13 810.8,-1061.13 810.8,-1075.13 810.8,-1075.13 810.8,-1081.13 804.8,-1087.13 798.8,-1087.13"/>
<text text-anchor="middle" x="716.8" y="-1071.93" font-family="Times,serif" font-size="14.00">GameObject_1_ID1525520955</text>
<text text-anchor="middle" x="716.8" y="-1056.93" font-family="Times,serif" font-size="14.00">AboutButton</text>
</g>
<!-- 138&#45;&gt;142 -->
<g id="edge39" class="edge">
<title>138&#45;&gt;142</title>
<path fill="none" stroke="black" d="M651.61,-1049.06C582.31,-1028.78 473.02,-996.81 401.41,-975.86"/>
<polygon fill="black" stroke="black" points="402.14,-972.43 391.56,-972.98 400.18,-979.15 402.14,-972.43"/>
</g>
<!-- 138&#45;&gt;144 -->
<g id="edge40" class="edge">
<title>138&#45;&gt;144</title>
<path fill="none" stroke="black" d="M622.69,-1079.04C589.59,-1082.87 552.71,-1087.15 520.8,-1090.84"/>
<polygon fill="black" stroke="black" points="520.16,-1087.4 510.63,-1092.02 520.97,-1094.35 520.16,-1087.4"/>
</g>
<!-- 138&#45;&gt;146 -->
<g id="edge41" class="edge">
<title>138&#45;&gt;146</title>
<path fill="none" stroke="black" d="M688.44,-1048.98C637.97,-1014.88 532.67,-943.75 477.54,-906.51"/>
<polygon fill="black" stroke="black" points="479.38,-903.53 469.14,-900.83 475.46,-909.33 479.38,-903.53"/>
</g>
<!-- 138&#45;&gt;148 -->
<g id="edge42" class="edge">
<title>138&#45;&gt;148</title>
<path fill="none" stroke="black" d="M678.49,-1049.06C665.98,-1042.84 651.97,-1035.87 638.99,-1029.41"/>
<polygon fill="black" stroke="black" points="640.27,-1026.14 629.76,-1024.82 637.15,-1032.41 640.27,-1026.14"/>
</g>
<!-- 155 -->
<g id="node56" class="node">
<title>155</title>
<path fill="lightpink" stroke="lightpink" d="M1814.63,-1951.65C1814.63,-1951.65 1717.63,-1951.65 1717.63,-1951.65 1711.63,-1951.65 1705.63,-1945.65 1705.63,-1939.65 1705.63,-1939.65 1705.63,-1927.65 1705.63,-1927.65 1705.63,-1921.65 1711.63,-1915.65 1717.63,-1915.65 1717.63,-1915.65 1814.63,-1915.65 1814.63,-1915.65 1820.63,-1915.65 1826.63,-1921.65 1826.63,-1927.65 1826.63,-1927.65 1826.63,-1939.65 1826.63,-1939.65 1826.63,-1945.65 1820.63,-1951.65 1814.63,-1951.65"/>
<text text-anchor="middle" x="1766.13" y="-1929.95" font-family="Times,serif" font-size="14.00">{&#39;fileID&#39;: 5973996}</text>
</g>
<!-- 157 -->
<g id="node57" class="node">
<title>157</title>
<path fill="lightpink" stroke="lightpink" d="M1724.68,-2090.82C1724.68,-2090.82 1627.68,-2090.82 1627.68,-2090.82 1621.68,-2090.82 1615.68,-2084.82 1615.68,-2078.82 1615.68,-2078.82 1615.68,-2066.82 1615.68,-2066.82 1615.68,-2060.82 1621.68,-2054.82 1627.68,-2054.82 1627.68,-2054.82 1724.68,-2054.82 1724.68,-2054.82 1730.68,-2054.82 1736.68,-2060.82 1736.68,-2066.82 1736.68,-2066.82 1736.68,-2078.82 1736.68,-2078.82 1736.68,-2084.82 1730.68,-2090.82 1724.68,-2090.82"/>
<text text-anchor="middle" x="1676.18" y="-2069.12" font-family="Times,serif" font-size="14.00">{&#39;fileID&#39;: 5973997}</text>
</g>
<!-- 151 -->
<g id="node58" class="node">
<title>151</title>
<path fill="#b0e2ff" stroke="#b0e2ff" d="M1638.43,-1677.71C1638.43,-1677.71 1495.43,-1677.71 1495.43,-1677.71 1489.43,-1677.71 1483.43,-1671.71 1483.43,-1665.71 1483.43,-1665.71 1483.43,-1651.71 1483.43,-1651.71 1483.43,-1645.71 1489.43,-1639.71 1495.43,-1639.71 1495.43,-1639.71 1638.43,-1639.71 1638.43,-1639.71 1644.43,-1639.71 1650.43,-1645.71 1650.43,-1651.71 1650.43,-1651.71 1650.43,-1665.71 1650.43,-1665.71 1650.43,-1671.71 1644.43,-1677.71 1638.43,-1677.71"/>
<text text-anchor="middle" x="1566.93" y="-1662.51" font-family="Times,serif" font-size="14.00">GameObject_1_ID5973995</text>
<text text-anchor="middle" x="1566.93" y="-1647.51" font-family="Times,serif" font-size="14.00">GameObject</text>
</g>
<!-- 151&#45;&gt;155 -->
<g id="edge43" class="edge">
<title>151&#45;&gt;155</title>
<path fill="none" stroke="black" d="M1580.94,-1678.04C1615.91,-1726.31 1707.09,-1852.17 1746.98,-1907.22"/>
<polygon fill="black" stroke="black" points="1744.22,-1909.38 1752.93,-1915.43 1749.89,-1905.28 1744.22,-1909.38"/>
</g>
<!-- 151&#45;&gt;157 -->
<g id="edge44" class="edge">
<title>151&#45;&gt;157</title>
<path fill="none" stroke="black" d="M1571.98,-1677.85C1589.54,-1744.39 1647.97,-1965.86 1668.76,-2044.67"/>
<polygon fill="black" stroke="black" points="1665.5,-2046.04 1671.43,-2054.81 1672.27,-2044.25 1665.5,-2046.04"/>
</g>
<!-- 164 -->
<g id="node59" class="node">
<title>164</title>
<path fill="lightpink" stroke="lightpink" d="M1995.19,-2056.18C1995.19,-2056.18 1878.19,-2056.18 1878.19,-2056.18 1872.19,-2056.18 1866.19,-2050.18 1866.19,-2044.18 1866.19,-2044.18 1866.19,-2032.18 1866.19,-2032.18 1866.19,-2026.18 1872.19,-2020.18 1878.19,-2020.18 1878.19,-2020.18 1995.19,-2020.18 1995.19,-2020.18 2001.19,-2020.18 2007.19,-2026.18 2007.19,-2032.18 2007.19,-2032.18 2007.19,-2044.18 2007.19,-2044.18 2007.19,-2050.18 2001.19,-2056.18 1995.19,-2056.18"/>
<text text-anchor="middle" x="1936.69" y="-2034.48" font-family="Times,serif" font-size="14.00">{&#39;fileID&#39;: 1047482109}</text>
</g>
<!-- 166 -->
<g id="node60" class="node">
<title>166</title>
<path fill="lightpink" stroke="lightpink" d="M2069.46,-1854.29C2069.46,-1854.29 1952.46,-1854.29 1952.46,-1854.29 1946.46,-1854.29 1940.46,-1848.29 1940.46,-1842.29 1940.46,-1842.29 1940.46,-1830.29 1940.46,-1830.29 1940.46,-1824.29 1946.46,-1818.29 1952.46,-1818.29 1952.46,-1818.29 2069.46,-1818.29 2069.46,-1818.29 2075.46,-1818.29 2081.46,-1824.29 2081.46,-1830.29 2081.46,-1830.29 2081.46,-1842.29 2081.46,-1842.29 2081.46,-1848.29 2075.46,-1854.29 2069.46,-1854.29"/>
<text text-anchor="middle" x="2010.96" y="-1832.59" font-family="Times,serif" font-size="14.00">{&#39;fileID&#39;: 1047482108}</text>
</g>
<!-- 168 -->
<g id="node61" class="node">
<title>168</title>
<path fill="lightpink" stroke="lightpink" d="M2175.19,-1959.72C2175.19,-1959.72 2058.19,-1959.72 2058.19,-1959.72 2052.19,-1959.72 2046.19,-1953.72 2046.19,-1947.72 2046.19,-1947.72 2046.19,-1935.72 2046.19,-1935.72 2046.19,-1929.72 2052.19,-1923.72 2058.19,-1923.72 2058.19,-1923.72 2175.19,-1923.72 2175.19,-1923.72 2181.19,-1923.72 2187.19,-1929.72 2187.19,-1935.72 2187.19,-1935.72 2187.19,-1947.72 2187.19,-1947.72 2187.19,-1953.72 2181.19,-1959.72 2175.19,-1959.72"/>
<text text-anchor="middle" x="2116.69" y="-1938.02" font-family="Times,serif" font-size="14.00">{&#39;fileID&#39;: 1047482107}</text>
</g>
<!-- 160 -->
<g id="node62" class="node">
<title>160</title>
<path fill="#b0e2ff" stroke="#b0e2ff" d="M1850.38,-1704.32C1850.38,-1704.32 1686.38,-1704.32 1686.38,-1704.32 1680.38,-1704.32 1674.38,-1698.32 1674.38,-1692.32 1674.38,-1692.32 1674.38,-1678.32 1674.38,-1678.32 1674.38,-1672.32 1680.38,-1666.32 1686.38,-1666.32 1686.38,-1666.32 1850.38,-1666.32 1850.38,-1666.32 1856.38,-1666.32 1862.38,-1672.32 1862.38,-1678.32 1862.38,-1678.32 1862.38,-1692.32 1862.38,-1692.32 1862.38,-1698.32 1856.38,-1704.32 1850.38,-1704.32"/>
<text text-anchor="middle" x="1768.38" y="-1689.12" font-family="Times,serif" font-size="14.00">GameObject_1_ID1047482106</text>
<text text-anchor="middle" x="1768.38" y="-1674.12" font-family="Times,serif" font-size="14.00">Main Camera</text>
</g>
<!-- 160&#45;&gt;164 -->
<g id="edge45" class="edge">
<title>160&#45;&gt;164</title>
<path fill="none" stroke="black" d="M1777.55,-1704.54C1805.67,-1763.48 1890.74,-1941.84 1923.57,-2010.67"/>
<polygon fill="black" stroke="black" points="1920.56,-2012.49 1928.02,-2020 1926.88,-2009.47 1920.56,-2012.49"/>
</g>
<!-- 160&#45;&gt;166 -->
<g id="edge46" class="edge">
<title>160&#45;&gt;166</title>
<path fill="none" stroke="black" d="M1799.11,-1704.44C1843.51,-1732.08 1925.55,-1783.14 1973.47,-1812.96"/>
<polygon fill="black" stroke="black" points="1971.66,-1815.96 1982,-1818.27 1975.36,-1810.01 1971.66,-1815.96"/>
</g>
<!-- 160&#45;&gt;168 -->
<g id="edge47" class="edge">
<title>160&#45;&gt;168</title>
<path fill="none" stroke="black" d="M1794.28,-1704.38C1856.57,-1750.23 2014.72,-1866.65 2083.69,-1917.42"/>
<polygon fill="black" stroke="black" points="2081.91,-1920.46 2092.03,-1923.57 2086.06,-1914.82 2081.91,-1920.46"/>
</g>
<!-- 175 -->
<g id="node63" class="node">
<title>175</title>
<path fill="lightpink" stroke="lightpink" d="M1345.08,-189.26C1345.08,-189.26 1228.08,-189.26 1228.08,-189.26 1222.08,-189.26 1216.08,-183.26 1216.08,-177.26 1216.08,-177.26 1216.08,-165.26 1216.08,-165.26 1216.08,-159.26 1222.08,-153.26 1228.08,-153.26 1228.08,-153.26 1345.08,-153.26 1345.08,-153.26 1351.08,-153.26 1357.08,-159.26 1357.08,-165.26 1357.08,-165.26 1357.08,-177.26 1357.08,-177.26 1357.08,-183.26 1351.08,-189.26 1345.08,-189.26"/>
<text text-anchor="middle" x="1286.58" y="-167.56" font-family="Times,serif" font-size="14.00">{&#39;fileID&#39;: 1908155156}</text>
</g>
<!-- 177 -->
<g id="node64" class="node">
<title>177</title>
<path fill="lightpink" stroke="lightpink" d="M1327.97,-36C1327.97,-36 1210.97,-36 1210.97,-36 1204.97,-36 1198.97,-30 1198.97,-24 1198.97,-24 1198.97,-12 1198.97,-12 1198.97,-6 1204.97,0 1210.97,0 1210.97,0 1327.97,0 1327.97,0 1333.97,0 1339.97,-6 1339.97,-12 1339.97,-12 1339.97,-24 1339.97,-24 1339.97,-30 1333.97,-36 1327.97,-36"/>
<text text-anchor="middle" x="1269.47" y="-14.3" font-family="Times,serif" font-size="14.00">{&#39;fileID&#39;: 1908155158}</text>
</g>
<!-- 179 -->
<g id="node65" class="node">
<title>179</title>
<path fill="lightpink" stroke="lightpink" d="M1511.42,-84.2C1511.42,-84.2 1394.42,-84.2 1394.42,-84.2 1388.42,-84.2 1382.42,-78.2 1382.42,-72.2 1382.42,-72.2 1382.42,-60.2 1382.42,-60.2 1382.42,-54.2 1388.42,-48.2 1394.42,-48.2 1394.42,-48.2 1511.42,-48.2 1511.42,-48.2 1517.42,-48.2 1523.42,-54.2 1523.42,-60.2 1523.42,-60.2 1523.42,-72.2 1523.42,-72.2 1523.42,-78.2 1517.42,-84.2 1511.42,-84.2"/>
<text text-anchor="middle" x="1452.92" y="-62.5" font-family="Times,serif" font-size="14.00">{&#39;fileID&#39;: 1908155157}</text>
</g>
<!-- 171 -->
<g id="node66" class="node">
<title>171</title>
<path fill="#b0e2ff" stroke="#b0e2ff" d="M1390.41,-482.52C1390.41,-482.52 1226.41,-482.52 1226.41,-482.52 1220.41,-482.52 1214.41,-476.52 1214.41,-470.52 1214.41,-470.52 1214.41,-456.52 1214.41,-456.52 1214.41,-450.52 1220.41,-444.52 1226.41,-444.52 1226.41,-444.52 1390.41,-444.52 1390.41,-444.52 1396.41,-444.52 1402.41,-450.52 1402.41,-456.52 1402.41,-456.52 1402.41,-470.52 1402.41,-470.52 1402.41,-476.52 1396.41,-482.52 1390.41,-482.52"/>
<text text-anchor="middle" x="1308.41" y="-467.32" font-family="Times,serif" font-size="14.00">GameObject_1_ID1908155155</text>
<text text-anchor="middle" x="1308.41" y="-452.32" font-family="Times,serif" font-size="14.00">Header</text>
</g>
<!-- 171&#45;&gt;175 -->
<g id="edge48" class="edge">
<title>171&#45;&gt;175</title>
<path fill="none" stroke="black" d="M1306.98,-444.35C1303.23,-394.14 1293.1,-258.62 1288.69,-199.49"/>
<polygon fill="black" stroke="black" points="1292.17,-199.09 1287.93,-189.38 1285.19,-199.61 1292.17,-199.09"/>
</g>
<!-- 171&#45;&gt;177 -->
<g id="edge49" class="edge">
<title>171&#45;&gt;177</title>
<path fill="none" stroke="black" d="M1306.73,-444.38C1300.58,-374.01 1279.21,-129.46 1271.92,-46.09"/>
<polygon fill="black" stroke="black" points="1275.41,-45.74 1271.05,-36.09 1268.43,-46.35 1275.41,-45.74"/>
</g>
<!-- 171&#45;&gt;179 -->
<g id="edge50" class="edge">
<title>171&#45;&gt;179</title>
<path fill="none" stroke="black" d="M1315.38,-444.36C1338.86,-379.81 1415.13,-170.12 1442.79,-94.07"/>
<polygon fill="black" stroke="black" points="1446.23,-94.85 1446.36,-84.26 1439.65,-92.46 1446.23,-94.85"/>
</g>
<!-- 186 -->
<g id="node67" class="node">
<title>186</title>
<path fill="lightpink" stroke="lightpink" d="M2126.76,-1042.12C2126.76,-1042.12 2016.76,-1042.12 2016.76,-1042.12 2010.76,-1042.12 2004.76,-1036.12 2004.76,-1030.12 2004.76,-1030.12 2004.76,-1018.12 2004.76,-1018.12 2004.76,-1012.12 2010.76,-1006.12 2016.76,-1006.12 2016.76,-1006.12 2126.76,-1006.12 2126.76,-1006.12 2132.76,-1006.12 2138.76,-1012.12 2138.76,-1018.12 2138.76,-1018.12 2138.76,-1030.12 2138.76,-1030.12 2138.76,-1036.12 2132.76,-1042.12 2126.76,-1042.12"/>
<text text-anchor="middle" x="2071.76" y="-1020.42" font-family="Times,serif" font-size="14.00">{&#39;fileID&#39;: 628076940}</text>
</g>
<!-- 188 -->
<g id="node68" class="node">
<title>188</title>
<path fill="lightpink" stroke="lightpink" d="M2164.74,-1191.44C2164.74,-1191.44 2054.74,-1191.44 2054.74,-1191.44 2048.74,-1191.44 2042.74,-1185.44 2042.74,-1179.44 2042.74,-1179.44 2042.74,-1167.44 2042.74,-1167.44 2042.74,-1161.44 2048.74,-1155.44 2054.74,-1155.44 2054.74,-1155.44 2164.74,-1155.44 2164.74,-1155.44 2170.74,-1155.44 2176.74,-1161.44 2176.74,-1167.44 2176.74,-1167.44 2176.74,-1179.44 2176.74,-1179.44 2176.74,-1185.44 2170.74,-1191.44 2164.74,-1191.44"/>
<text text-anchor="middle" x="2109.74" y="-1169.74" font-family="Times,serif" font-size="14.00">{&#39;fileID&#39;: 628076942}</text>
</g>
<!-- 190 -->
<g id="node69" class="node">
<title>190</title>
<path fill="lightpink" stroke="lightpink" d="M2024.47,-1256.85C2024.47,-1256.85 1914.47,-1256.85 1914.47,-1256.85 1908.47,-1256.85 1902.47,-1250.85 1902.47,-1244.85 1902.47,-1244.85 1902.47,-1232.85 1902.47,-1232.85 1902.47,-1226.85 1908.47,-1220.85 1914.47,-1220.85 1914.47,-1220.85 2024.47,-1220.85 2024.47,-1220.85 2030.47,-1220.85 2036.47,-1226.85 2036.47,-1232.85 2036.47,-1232.85 2036.47,-1244.85 2036.47,-1244.85 2036.47,-1250.85 2030.47,-1256.85 2024.47,-1256.85"/>
<text text-anchor="middle" x="1969.47" y="-1235.15" font-family="Times,serif" font-size="14.00">{&#39;fileID&#39;: 628076941}</text>
</g>
<!-- 182 -->
<g id="node70" class="node">
<title>182</title>
<path fill="#b0e2ff" stroke="#b0e2ff" d="M1870.78,-1174.62C1870.78,-1174.62 1713.78,-1174.62 1713.78,-1174.62 1707.78,-1174.62 1701.78,-1168.62 1701.78,-1162.62 1701.78,-1162.62 1701.78,-1148.62 1701.78,-1148.62 1701.78,-1142.62 1707.78,-1136.62 1713.78,-1136.62 1713.78,-1136.62 1870.78,-1136.62 1870.78,-1136.62 1876.78,-1136.62 1882.78,-1142.62 1882.78,-1148.62 1882.78,-1148.62 1882.78,-1162.62 1882.78,-1162.62 1882.78,-1168.62 1876.78,-1174.62 1870.78,-1174.62"/>
<text text-anchor="middle" x="1792.28" y="-1159.42" font-family="Times,serif" font-size="14.00">GameObject_1_ID628076939</text>
<text text-anchor="middle" x="1792.28" y="-1144.42" font-family="Times,serif" font-size="14.00">Copyright</text>
</g>
<!-- 182&#45;&gt;186 -->
<g id="edge51" class="edge">
<title>182&#45;&gt;186</title>
<path fill="none" stroke="black" d="M1832.92,-1136.5C1883.62,-1112.64 1970.18,-1071.91 2023.99,-1046.59"/>
<polygon fill="black" stroke="black" points="2025.76,-1049.63 2033.32,-1042.2 2022.78,-1043.29 2025.76,-1049.63"/>
</g>
<!-- 182&#45;&gt;188 -->
<g id="edge52" class="edge">
<title>182&#45;&gt;188</title>
<path fill="none" stroke="black" d="M1882.82,-1160.7C1930.11,-1163.36 1987.35,-1166.57 2032.52,-1169.1"/>
<polygon fill="black" stroke="black" points="2032.37,-1172.6 2042.55,-1169.67 2032.76,-1165.61 2032.37,-1172.6"/>
</g>
<!-- 182&#45;&gt;190 -->
<g id="edge53" class="edge">
<title>182&#45;&gt;190</title>
<path fill="none" stroke="black" d="M1832.93,-1174.72C1859.46,-1187.18 1894.19,-1203.49 1921.99,-1216.55"/>
<polygon fill="black" stroke="black" points="1920.59,-1219.76 1931.13,-1220.85 1923.57,-1213.43 1920.59,-1219.76"/>
</g>
<!-- 197 -->
<g id="node71" class="node">
<title>197</title>
<path fill="lightpink" stroke="lightpink" d="M679.8,-1848.48C679.8,-1848.48 569.8,-1848.48 569.8,-1848.48 563.8,-1848.48 557.8,-1842.48 557.8,-1836.48 557.8,-1836.48 557.8,-1824.48 557.8,-1824.48 557.8,-1818.48 563.8,-1812.48 569.8,-1812.48 569.8,-1812.48 679.8,-1812.48 679.8,-1812.48 685.8,-1812.48 691.8,-1818.48 691.8,-1824.48 691.8,-1824.48 691.8,-1836.48 691.8,-1836.48 691.8,-1842.48 685.8,-1848.48 679.8,-1848.48"/>
<text text-anchor="middle" x="624.8" y="-1826.78" font-family="Times,serif" font-size="14.00">{&#39;fileID&#39;: 138731493}</text>
</g>
<!-- 199 -->
<g id="node72" class="node">
<title>199</title>
<path fill="lightpink" stroke="lightpink" d="M793.85,-1957.06C793.85,-1957.06 683.85,-1957.06 683.85,-1957.06 677.85,-1957.06 671.85,-1951.06 671.85,-1945.06 671.85,-1945.06 671.85,-1933.06 671.85,-1933.06 671.85,-1927.06 677.85,-1921.06 683.85,-1921.06 683.85,-1921.06 793.85,-1921.06 793.85,-1921.06 799.85,-1921.06 805.85,-1927.06 805.85,-1933.06 805.85,-1933.06 805.85,-1945.06 805.85,-1945.06 805.85,-1951.06 799.85,-1957.06 793.85,-1957.06"/>
<text text-anchor="middle" x="738.85" y="-1935.36" font-family="Times,serif" font-size="14.00">{&#39;fileID&#39;: 138731494}</text>
</g>
<!-- 193 -->
<g id="node73" class="node">
<title>193</title>
<path fill="#b0e2ff" stroke="#b0e2ff" d="M1006.94,-1628.3C1006.94,-1628.3 849.94,-1628.3 849.94,-1628.3 843.94,-1628.3 837.94,-1622.3 837.94,-1616.3 837.94,-1616.3 837.94,-1602.3 837.94,-1602.3 837.94,-1596.3 843.94,-1590.3 849.94,-1590.3 849.94,-1590.3 1006.94,-1590.3 1006.94,-1590.3 1012.94,-1590.3 1018.94,-1596.3 1018.94,-1602.3 1018.94,-1602.3 1018.94,-1616.3 1018.94,-1616.3 1018.94,-1622.3 1012.94,-1628.3 1006.94,-1628.3"/>
<text text-anchor="middle" x="928.44" y="-1613.1" font-family="Times,serif" font-size="14.00">GameObject_1_ID138731492</text>
<text text-anchor="middle" x="928.44" y="-1598.1" font-family="Times,serif" font-size="14.00">Text</text>
</g>
<!-- 193&#45;&gt;197 -->
<g id="edge54" class="edge">
<title>193&#45;&gt;197</title>
<path fill="none" stroke="black" d="M902.29,-1628.35C847.06,-1668.58 718.62,-1762.14 657.83,-1806.42"/>
<polygon fill="black" stroke="black" points="655.73,-1803.62 649.71,-1812.33 659.85,-1809.27 655.73,-1803.62"/>
</g>
<!-- 193&#45;&gt;199 -->
<g id="edge55" class="edge">
<title>193&#45;&gt;199</title>
<path fill="none" stroke="black" d="M917.43,-1628.45C885.34,-1684.27 791.84,-1846.9 754.51,-1911.83"/>
<polygon fill="black" stroke="black" points="751.38,-1910.26 749.43,-1920.67 757.45,-1913.75 751.38,-1910.26"/>
</g>
<!-- 206 -->
<g id="node74" class="node">
<title>206</title>
<path fill="lightpink" stroke="lightpink" d="M1431.49,-2021.66C1431.49,-2021.66 1314.49,-2021.66 1314.49,-2021.66 1308.49,-2021.66 1302.49,-2015.66 1302.49,-2009.66 1302.49,-2009.66 1302.49,-1997.66 1302.49,-1997.66 1302.49,-1991.66 1308.49,-1985.66 1314.49,-1985.66 1314.49,-1985.66 1431.49,-1985.66 1431.49,-1985.66 1437.49,-1985.66 1443.49,-1991.66 1443.49,-1997.66 1443.49,-1997.66 1443.49,-2009.66 1443.49,-2009.66 1443.49,-2015.66 1437.49,-2021.66 1431.49,-2021.66"/>
<text text-anchor="middle" x="1372.99" y="-1999.96" font-family="Times,serif" font-size="14.00">{&#39;fileID&#39;: 1093729420}</text>
</g>
<!-- 208 -->
<g id="node75" class="node">
<title>208</title>
<path fill="lightpink" stroke="lightpink" d="M1593.76,-1965.59C1593.76,-1965.59 1476.76,-1965.59 1476.76,-1965.59 1470.76,-1965.59 1464.76,-1959.59 1464.76,-1953.59 1464.76,-1953.59 1464.76,-1941.59 1464.76,-1941.59 1464.76,-1935.59 1470.76,-1929.59 1476.76,-1929.59 1476.76,-1929.59 1593.76,-1929.59 1593.76,-1929.59 1599.76,-1929.59 1605.76,-1935.59 1605.76,-1941.59 1605.76,-1941.59 1605.76,-1953.59 1605.76,-1953.59 1605.76,-1959.59 1599.76,-1965.59 1593.76,-1965.59"/>
<text text-anchor="middle" x="1535.26" y="-1943.89" font-family="Times,serif" font-size="14.00">{&#39;fileID&#39;: 1093729422}</text>
</g>
<!-- 210 -->
<g id="node76" class="node">
<title>210</title>
<path fill="lightpink" stroke="lightpink" d="M1509.95,-1847.44C1509.95,-1847.44 1392.95,-1847.44 1392.95,-1847.44 1386.95,-1847.44 1380.95,-1841.44 1380.95,-1835.44 1380.95,-1835.44 1380.95,-1823.44 1380.95,-1823.44 1380.95,-1817.44 1386.95,-1811.44 1392.95,-1811.44 1392.95,-1811.44 1509.95,-1811.44 1509.95,-1811.44 1515.95,-1811.44 1521.95,-1817.44 1521.95,-1823.44 1521.95,-1823.44 1521.95,-1835.44 1521.95,-1835.44 1521.95,-1841.44 1515.95,-1847.44 1509.95,-1847.44"/>
<text text-anchor="middle" x="1451.45" y="-1825.74" font-family="Times,serif" font-size="14.00">{&#39;fileID&#39;: 1093729421}</text>
</g>
<!-- 202 -->
<g id="node77" class="node">
<title>202</title>
<path fill="#b0e2ff" stroke="#b0e2ff" d="M1463.43,-1671.57C1463.43,-1671.57 1299.43,-1671.57 1299.43,-1671.57 1293.43,-1671.57 1287.43,-1665.57 1287.43,-1659.57 1287.43,-1659.57 1287.43,-1645.57 1287.43,-1645.57 1287.43,-1639.57 1293.43,-1633.57 1299.43,-1633.57 1299.43,-1633.57 1463.43,-1633.57 1463.43,-1633.57 1469.43,-1633.57 1475.43,-1639.57 1475.43,-1645.57 1475.43,-1645.57 1475.43,-1659.57 1475.43,-1659.57 1475.43,-1665.57 1469.43,-1671.57 1463.43,-1671.57"/>
<text text-anchor="middle" x="1381.43" y="-1656.37" font-family="Times,serif" font-size="14.00">GameObject_1_ID1093729419</text>
<text text-anchor="middle" x="1381.43" y="-1641.37" font-family="Times,serif" font-size="14.00">Text</text>
</g>
<!-- 202&#45;&gt;206 -->
<g id="edge56" class="edge">
<title>202&#45;&gt;206</title>
<path fill="none" stroke="black" d="M1380.97,-1671.7C1379.57,-1730.11 1375.33,-1906.36 1373.67,-1975.44"/>
<polygon fill="black" stroke="black" points="1370.17,-1975.5 1373.43,-1985.58 1377.16,-1975.66 1370.17,-1975.5"/>
</g>
<!-- 202&#45;&gt;208 -->
<g id="edge57" class="edge">
<title>202&#45;&gt;208</title>
<path fill="none" stroke="black" d="M1391.53,-1671.93C1418.12,-1722.93 1490.17,-1861.12 1520.98,-1920.2"/>
<polygon fill="black" stroke="black" points="1518,-1922.05 1525.73,-1929.3 1524.21,-1918.81 1518,-1922.05"/>
</g>
<!-- 202&#45;&gt;210 -->
<g id="edge58" class="edge">
<title>202&#45;&gt;210</title>
<path fill="none" stroke="black" d="M1389.06,-1671.84C1401.5,-1703.26 1426.21,-1765.67 1440.51,-1801.81"/>
<polygon fill="black" stroke="black" points="1437.32,-1803.25 1444.25,-1811.26 1443.83,-1800.67 1437.32,-1803.25"/>
</g>
<!-- 217 -->
<g id="node78" class="node">
<title>217</title>
<path fill="lightpink" stroke="lightpink" d="M851.86,-2117.5C851.86,-2117.5 741.86,-2117.5 741.86,-2117.5 735.86,-2117.5 729.86,-2111.5 729.86,-2105.5 729.86,-2105.5 729.86,-2093.5 729.86,-2093.5 729.86,-2087.5 735.86,-2081.5 741.86,-2081.5 741.86,-2081.5 851.86,-2081.5 851.86,-2081.5 857.86,-2081.5 863.86,-2087.5 863.86,-2093.5 863.86,-2093.5 863.86,-2105.5 863.86,-2105.5 863.86,-2111.5 857.86,-2117.5 851.86,-2117.5"/>
<text text-anchor="middle" x="796.86" y="-2095.8" font-family="Times,serif" font-size="14.00">{&#39;fileID&#39;: 361157716}</text>
</g>
<!-- 219 -->
<g id="node79" class="node">
<title>219</title>
<path fill="lightpink" stroke="lightpink" d="M1046.3,-2106.8C1046.3,-2106.8 936.3,-2106.8 936.3,-2106.8 930.3,-2106.8 924.3,-2100.8 924.3,-2094.8 924.3,-2094.8 924.3,-2082.8 924.3,-2082.8 924.3,-2076.8 930.3,-2070.8 936.3,-2070.8 936.3,-2070.8 1046.3,-2070.8 1046.3,-2070.8 1052.3,-2070.8 1058.3,-2076.8 1058.3,-2082.8 1058.3,-2082.8 1058.3,-2094.8 1058.3,-2094.8 1058.3,-2100.8 1052.3,-2106.8 1046.3,-2106.8"/>
<text text-anchor="middle" x="991.3" y="-2085.1" font-family="Times,serif" font-size="14.00">{&#39;fileID&#39;: 361157715}</text>
</g>
<!-- 221 -->
<g id="node80" class="node">
<title>221</title>
<path fill="lightpink" stroke="lightpink" d="M959.33,-2252.23C959.33,-2252.23 849.33,-2252.23 849.33,-2252.23 843.33,-2252.23 837.33,-2246.23 837.33,-2240.23 837.33,-2240.23 837.33,-2228.23 837.33,-2228.23 837.33,-2222.23 843.33,-2216.23 849.33,-2216.23 849.33,-2216.23 959.33,-2216.23 959.33,-2216.23 965.33,-2216.23 971.33,-2222.23 971.33,-2228.23 971.33,-2228.23 971.33,-2240.23 971.33,-2240.23 971.33,-2246.23 965.33,-2252.23 959.33,-2252.23"/>
<text text-anchor="middle" x="904.33" y="-2230.53" font-family="Times,serif" font-size="14.00">{&#39;fileID&#39;: 361157714}</text>
</g>
<!-- 213 -->
<g id="node81" class="node">
<title>213</title>
<path fill="#b0e2ff" stroke="#b0e2ff" d="M1118.62,-1830.74C1118.62,-1830.74 961.62,-1830.74 961.62,-1830.74 955.62,-1830.74 949.62,-1824.74 949.62,-1818.74 949.62,-1818.74 949.62,-1804.74 949.62,-1804.74 949.62,-1798.74 955.62,-1792.74 961.62,-1792.74 961.62,-1792.74 1118.62,-1792.74 1118.62,-1792.74 1124.62,-1792.74 1130.62,-1798.74 1130.62,-1804.74 1130.62,-1804.74 1130.62,-1818.74 1130.62,-1818.74 1130.62,-1824.74 1124.62,-1830.74 1118.62,-1830.74"/>
<text text-anchor="middle" x="1040.12" y="-1815.54" font-family="Times,serif" font-size="14.00">GameObject_1_ID361157713</text>
<text text-anchor="middle" x="1040.12" y="-1800.54" font-family="Times,serif" font-size="14.00">EventSystem</text>
</g>
<!-- 213&#45;&gt;217 -->
<g id="edge59" class="edge">
<title>213&#45;&gt;217</title>
<path fill="none" stroke="black" d="M1023.78,-1831.07C981.24,-1881.39 867,-2016.53 818.8,-2073.55"/>
<polygon fill="black" stroke="black" points="815.96,-2071.48 812.18,-2081.38 821.31,-2076 815.96,-2071.48"/>
</g>
<!-- 213&#45;&gt;219 -->
<g id="edge60" class="edge">
<title>213&#45;&gt;219</title>
<path fill="none" stroke="black" d="M1036.76,-1830.78C1028.32,-1878.68 1006.18,-2004.34 996.25,-2060.72"/>
<polygon fill="black" stroke="black" points="992.77,-2060.26 994.49,-2070.72 999.67,-2061.48 992.77,-2060.26"/>
</g>
<!-- 213&#45;&gt;221 -->
<g id="edge61" class="edge">
<title>213&#45;&gt;221</title>
<path fill="none" stroke="black" d="M1033.93,-1830.99C1012.18,-1898.66 939.17,-2125.81 913.42,-2205.95"/>
<polygon fill="black" stroke="black" points="909.97,-2205.24 910.24,-2215.83 916.63,-2207.38 909.97,-2205.24"/>
</g>
<!-- 228 -->
<g id="node82" class="node">
<title>228</title>
<path fill="lightpink" stroke="lightpink" d="M808.36,-386.18C808.36,-386.18 698.36,-386.18 698.36,-386.18 692.36,-386.18 686.36,-380.18 686.36,-374.18 686.36,-374.18 686.36,-362.18 686.36,-362.18 686.36,-356.18 692.36,-350.18 698.36,-350.18 698.36,-350.18 808.36,-350.18 808.36,-350.18 814.36,-350.18 820.36,-356.18 820.36,-362.18 820.36,-362.18 820.36,-374.18 820.36,-374.18 820.36,-380.18 814.36,-386.18 808.36,-386.18"/>
<text text-anchor="middle" x="753.36" y="-364.48" font-family="Times,serif" font-size="14.00">{&#39;fileID&#39;: 301893719}</text>
</g>
<!-- 230 -->
<g id="node83" class="node">
<title>230</title>
<path fill="lightpink" stroke="lightpink" d="M653.24,-321.8C653.24,-321.8 543.24,-321.8 543.24,-321.8 537.24,-321.8 531.24,-315.8 531.24,-309.8 531.24,-309.8 531.24,-297.8 531.24,-297.8 531.24,-291.8 537.24,-285.8 543.24,-285.8 543.24,-285.8 653.24,-285.8 653.24,-285.8 659.24,-285.8 665.24,-291.8 665.24,-297.8 665.24,-297.8 665.24,-309.8 665.24,-309.8 665.24,-315.8 659.24,-321.8 653.24,-321.8"/>
<text text-anchor="middle" x="598.24" y="-300.1" font-family="Times,serif" font-size="14.00">{&#39;fileID&#39;: 301893721}</text>
</g>
<!-- 232 -->
<g id="node84" class="node">
<title>232</title>
<path fill="lightpink" stroke="lightpink" d="M815.42,-203.91C815.42,-203.91 705.42,-203.91 705.42,-203.91 699.42,-203.91 693.42,-197.91 693.42,-191.91 693.42,-191.91 693.42,-179.91 693.42,-179.91 693.42,-173.91 699.42,-167.91 705.42,-167.91 705.42,-167.91 815.42,-167.91 815.42,-167.91 821.42,-167.91 827.42,-173.91 827.42,-179.91 827.42,-179.91 827.42,-191.91 827.42,-191.91 827.42,-197.91 821.42,-203.91 815.42,-203.91"/>
<text text-anchor="middle" x="760.42" y="-182.21" font-family="Times,serif" font-size="14.00">{&#39;fileID&#39;: 301893720}</text>
</g>
<!-- 224 -->
<g id="node85" class="node">
<title>224</title>
<path fill="#b0e2ff" stroke="#b0e2ff" d="M982.95,-593.26C982.95,-593.26 825.95,-593.26 825.95,-593.26 819.95,-593.26 813.95,-587.26 813.95,-581.26 813.95,-581.26 813.95,-567.26 813.95,-567.26 813.95,-561.26 819.95,-555.26 825.95,-555.26 825.95,-555.26 982.95,-555.26 982.95,-555.26 988.95,-555.26 994.95,-561.26 994.95,-567.26 994.95,-567.26 994.95,-581.26 994.95,-581.26 994.95,-587.26 988.95,-593.26 982.95,-593.26"/>
<text text-anchor="middle" x="904.45" y="-578.06" font-family="Times,serif" font-size="14.00">GameObject_1_ID301893718</text>
<text text-anchor="middle" x="904.45" y="-563.06" font-family="Times,serif" font-size="14.00">About</text>
</g>
<!-- 224&#45;&gt;228 -->
<g id="edge62" class="edge">
<title>224&#45;&gt;228</title>
<path fill="none" stroke="black" d="M890.5,-555.24C863.37,-518.23 803.43,-436.48 772.56,-394.38"/>
<polygon fill="black" stroke="black" points="775.35,-392.26 766.62,-386.27 769.71,-396.4 775.35,-392.26"/>
</g>
<!-- 224&#45;&gt;230 -->
<g id="edge63" class="edge">
<title>224&#45;&gt;230</title>
<path fill="none" stroke="black" d="M882.92,-555.24C828.85,-507.48 687.36,-382.51 626.62,-328.86"/>
<polygon fill="black" stroke="black" points="628.75,-326.07 618.94,-322.08 624.12,-331.32 628.75,-326.07"/>
</g>
<!-- 224&#45;&gt;232 -->
<g id="edge64" class="edge">
<title>224&#45;&gt;232</title>
<path fill="none" stroke="black" d="M897.3,-555C873.72,-491.41 798.28,-287.99 770.67,-213.54"/>
<polygon fill="black" stroke="black" points="773.86,-212.08 767.1,-203.92 767.3,-214.52 773.86,-212.08"/>
</g>
<!-- 239 -->
<g id="node86" class="node">
<title>239</title>
<path fill="lightpink" stroke="lightpink" d="M1551.69,-948.67C1551.69,-948.67 1441.69,-948.67 1441.69,-948.67 1435.69,-948.67 1429.69,-942.67 1429.69,-936.67 1429.69,-936.67 1429.69,-924.67 1429.69,-924.67 1429.69,-918.67 1435.69,-912.67 1441.69,-912.67 1441.69,-912.67 1551.69,-912.67 1551.69,-912.67 1557.69,-912.67 1563.69,-918.67 1563.69,-924.67 1563.69,-924.67 1563.69,-936.67 1563.69,-936.67 1563.69,-942.67 1557.69,-948.67 1551.69,-948.67"/>
<text text-anchor="middle" x="1496.69" y="-926.97" font-family="Times,serif" font-size="14.00">{&#39;fileID&#39;: 530533594}</text>
</g>
<!-- 241 -->
<g id="node87" class="node">
<title>241</title>
<path fill="lightpink" stroke="lightpink" d="M1444.36,-1357.63C1444.36,-1357.63 1334.36,-1357.63 1334.36,-1357.63 1328.36,-1357.63 1322.36,-1351.63 1322.36,-1345.63 1322.36,-1345.63 1322.36,-1333.63 1322.36,-1333.63 1322.36,-1327.63 1328.36,-1321.63 1334.36,-1321.63 1334.36,-1321.63 1444.36,-1321.63 1444.36,-1321.63 1450.36,-1321.63 1456.36,-1327.63 1456.36,-1333.63 1456.36,-1333.63 1456.36,-1345.63 1456.36,-1345.63 1456.36,-1351.63 1450.36,-1357.63 1444.36,-1357.63"/>
<text text-anchor="middle" x="1389.36" y="-1335.93" font-family="Times,serif" font-size="14.00">{&#39;fileID&#39;: 530533597}</text>
</g>
<!-- 243 -->
<g id="node88" class="node">
<title>243</title>
<path fill="lightpink" stroke="lightpink" d="M1657.83,-1214.03C1657.83,-1214.03 1547.83,-1214.03 1547.83,-1214.03 1541.83,-1214.03 1535.83,-1208.03 1535.83,-1202.03 1535.83,-1202.03 1535.83,-1190.03 1535.83,-1190.03 1535.83,-1184.03 1541.83,-1178.03 1547.83,-1178.03 1547.83,-1178.03 1657.83,-1178.03 1657.83,-1178.03 1663.83,-1178.03 1669.83,-1184.03 1669.83,-1190.03 1669.83,-1190.03 1669.83,-1202.03 1669.83,-1202.03 1669.83,-1208.03 1663.83,-1214.03 1657.83,-1214.03"/>
<text text-anchor="middle" x="1602.83" y="-1192.33" font-family="Times,serif" font-size="14.00">{&#39;fileID&#39;: 530533596}</text>
</g>
<!-- 245 -->
<g id="node89" class="node">
<title>245</title>
<path fill="lightpink" stroke="lightpink" d="M1343.28,-977.75C1343.28,-977.75 1233.28,-977.75 1233.28,-977.75 1227.28,-977.75 1221.28,-971.75 1221.28,-965.75 1221.28,-965.75 1221.28,-953.75 1221.28,-953.75 1221.28,-947.75 1227.28,-941.75 1233.28,-941.75 1233.28,-941.75 1343.28,-941.75 1343.28,-941.75 1349.28,-941.75 1355.28,-947.75 1355.28,-953.75 1355.28,-953.75 1355.28,-965.75 1355.28,-965.75 1355.28,-971.75 1349.28,-977.75 1343.28,-977.75"/>
<text text-anchor="middle" x="1288.28" y="-956.05" font-family="Times,serif" font-size="14.00">{&#39;fileID&#39;: 530533595}</text>
</g>
<!-- 235 -->
<g id="node90" class="node">
<title>235</title>
<path fill="#b0e2ff" stroke="#b0e2ff" d="M1521.69,-1149.4C1521.69,-1149.4 1364.69,-1149.4 1364.69,-1149.4 1358.69,-1149.4 1352.69,-1143.4 1352.69,-1137.4 1352.69,-1137.4 1352.69,-1123.4 1352.69,-1123.4 1352.69,-1117.4 1358.69,-1111.4 1364.69,-1111.4 1364.69,-1111.4 1521.69,-1111.4 1521.69,-1111.4 1527.69,-1111.4 1533.69,-1117.4 1533.69,-1123.4 1533.69,-1123.4 1533.69,-1137.4 1533.69,-1137.4 1533.69,-1143.4 1527.69,-1149.4 1521.69,-1149.4"/>
<text text-anchor="middle" x="1443.19" y="-1134.2" font-family="Times,serif" font-size="14.00">GameObject_1_ID530533593</text>
<text text-anchor="middle" x="1443.19" y="-1119.2" font-family="Times,serif" font-size="14.00">CloseButton</text>
</g>
<!-- 235&#45;&gt;239 -->
<g id="edge65" class="edge">
<title>235&#45;&gt;239</title>
<path fill="none" stroke="black" d="M1448.32,-1111.25C1457.82,-1075.78 1478.19,-999.76 1489.22,-958.57"/>
<polygon fill="black" stroke="black" points="1492.61,-959.46 1491.81,-948.89 1485.84,-957.65 1492.61,-959.46"/>
</g>
<!-- 235&#45;&gt;241 -->
<g id="edge66" class="edge">
<title>235&#45;&gt;241</title>
<path fill="none" stroke="black" d="M1438.23,-1149.71C1428.66,-1186.9 1407.63,-1268.62 1396.54,-1311.73"/>
<polygon fill="black" stroke="black" points="1393.11,-1311 1394.01,-1321.56 1399.89,-1312.75 1393.11,-1311"/>
</g>
<!-- 235&#45;&gt;243 -->
<g id="edge67" class="edge">
<title>235&#45;&gt;243</title>
<path fill="none" stroke="black" d="M1489.8,-1149.56C1508.54,-1157.26 1530.26,-1166.19 1549.62,-1174.15"/>
<polygon fill="black" stroke="black" points="1548.33,-1177.41 1558.91,-1177.97 1550.99,-1170.93 1548.33,-1177.41"/>
</g>
<!-- 235&#45;&gt;245 -->
<g id="edge68" class="edge">
<title>235&#45;&gt;245</title>
<path fill="none" stroke="black" d="M1425.73,-1111.16C1397.81,-1080.41 1343.13,-1020.17 1311.8,-985.67"/>
<polygon fill="black" stroke="black" points="1314.06,-982.95 1304.75,-977.89 1308.88,-987.65 1314.06,-982.95"/>
</g>
<!-- 252 -->
<g id="node91" class="node">
<title>252</title>
<path fill="lightpink" stroke="lightpink" d="M921.89,-1333.56C921.89,-1333.56 804.89,-1333.56 804.89,-1333.56 798.89,-1333.56 792.89,-1327.56 792.89,-1321.56 792.89,-1321.56 792.89,-1309.56 792.89,-1309.56 792.89,-1303.56 798.89,-1297.56 804.89,-1297.56 804.89,-1297.56 921.89,-1297.56 921.89,-1297.56 927.89,-1297.56 933.89,-1303.56 933.89,-1309.56 933.89,-1309.56 933.89,-1321.56 933.89,-1321.56 933.89,-1327.56 927.89,-1333.56 921.89,-1333.56"/>
<text text-anchor="middle" x="863.39" y="-1311.86" font-family="Times,serif" font-size="14.00">{&#39;fileID&#39;: 2009980927}</text>
</g>
<!-- 254 -->
<g id="node92" class="node">
<title>254</title>
<path fill="lightpink" stroke="lightpink" d="M1189.23,-1576.85C1189.23,-1576.85 1072.23,-1576.85 1072.23,-1576.85 1066.23,-1576.85 1060.23,-1570.85 1060.23,-1564.85 1060.23,-1564.85 1060.23,-1552.85 1060.23,-1552.85 1060.23,-1546.85 1066.23,-1540.85 1072.23,-1540.85 1072.23,-1540.85 1189.23,-1540.85 1189.23,-1540.85 1195.23,-1540.85 1201.23,-1546.85 1201.23,-1552.85 1201.23,-1552.85 1201.23,-1564.85 1201.23,-1564.85 1201.23,-1570.85 1195.23,-1576.85 1189.23,-1576.85"/>
<text text-anchor="middle" x="1130.73" y="-1555.15" font-family="Times,serif" font-size="14.00">{&#39;fileID&#39;: 2009980926}</text>
</g>
<!-- 256 -->
<g id="node93" class="node">
<title>256</title>
<path fill="lightpink" stroke="lightpink" d="M891.41,-1748.68C891.41,-1748.68 774.41,-1748.68 774.41,-1748.68 768.41,-1748.68 762.41,-1742.68 762.41,-1736.68 762.41,-1736.68 762.41,-1724.68 762.41,-1724.68 762.41,-1718.68 768.41,-1712.68 774.41,-1712.68 774.41,-1712.68 891.41,-1712.68 891.41,-1712.68 897.41,-1712.68 903.41,-1718.68 903.41,-1724.68 903.41,-1724.68 903.41,-1736.68 903.41,-1736.68 903.41,-1742.68 897.41,-1748.68 891.41,-1748.68"/>
<text text-anchor="middle" x="832.91" y="-1726.98" font-family="Times,serif" font-size="14.00">{&#39;fileID&#39;: 2009980925}</text>
</g>
<!-- 258 -->
<g id="node94" class="node">
<title>258</title>
<path fill="lightpink" stroke="lightpink" d="M770.82,-1639.79C770.82,-1639.79 653.82,-1639.79 653.82,-1639.79 647.82,-1639.79 641.82,-1633.79 641.82,-1627.79 641.82,-1627.79 641.82,-1615.79 641.82,-1615.79 641.82,-1609.79 647.82,-1603.79 653.82,-1603.79 653.82,-1603.79 770.82,-1603.79 770.82,-1603.79 776.82,-1603.79 782.82,-1609.79 782.82,-1615.79 782.82,-1615.79 782.82,-1627.79 782.82,-1627.79 782.82,-1633.79 776.82,-1639.79 770.82,-1639.79"/>
<text text-anchor="middle" x="712.32" y="-1618.09" font-family="Times,serif" font-size="14.00">{&#39;fileID&#39;: 2009980924}</text>
</g>
<!-- 248 -->
<g id="node95" class="node">
<title>248</title>
<path fill="#b0e2ff" stroke="#b0e2ff" d="M1061.79,-1463.05C1061.79,-1463.05 897.79,-1463.05 897.79,-1463.05 891.79,-1463.05 885.79,-1457.05 885.79,-1451.05 885.79,-1451.05 885.79,-1437.05 885.79,-1437.05 885.79,-1431.05 891.79,-1425.05 897.79,-1425.05 897.79,-1425.05 1061.79,-1425.05 1061.79,-1425.05 1067.79,-1425.05 1073.79,-1431.05 1073.79,-1437.05 1073.79,-1437.05 1073.79,-1451.05 1073.79,-1451.05 1073.79,-1457.05 1067.79,-1463.05 1061.79,-1463.05"/>
<text text-anchor="middle" x="979.79" y="-1447.85" font-family="Times,serif" font-size="14.00">GameObject_1_ID2009980923</text>
<text text-anchor="middle" x="979.79" y="-1432.85" font-family="Times,serif" font-size="14.00">Canvas</text>
</g>
<!-- 248&#45;&gt;252 -->
<g id="edge69" class="edge">
<title>248&#45;&gt;252</title>
<path fill="none" stroke="black" d="M962.36,-1424.81C942.22,-1402.57 908.98,-1365.88 886.64,-1341.23"/>
<polygon fill="black" stroke="black" points="889.11,-1338.74 879.8,-1333.68 883.92,-1343.44 889.11,-1338.74"/>
</g>
<!-- 248&#45;&gt;254 -->
<g id="edge70" class="edge">
<title>248&#45;&gt;254</title>
<path fill="none" stroke="black" d="M1005.05,-1463.26C1030.76,-1482.81 1070.69,-1513.19 1098.62,-1534.43"/>
<polygon fill="black" stroke="black" points="1096.8,-1537.44 1106.88,-1540.71 1101.04,-1531.87 1096.8,-1537.44"/>
</g>
<!-- 248&#45;&gt;256 -->
<g id="edge71" class="edge">
<title>248&#45;&gt;256</title>
<path fill="none" stroke="black" d="M969.92,-1463.3C944.45,-1513.02 876.39,-1645.83 846.88,-1703.42"/>
<polygon fill="black" stroke="black" points="843.61,-1702.13 842.16,-1712.63 849.83,-1705.32 843.61,-1702.13"/>
</g>
<!-- 248&#45;&gt;258 -->
<g id="edge72" class="edge">
<title>248&#45;&gt;258</title>
<path fill="none" stroke="black" d="M951.16,-1463.07C902.01,-1495.73 801.7,-1562.39 748.05,-1598.05"/>
<polygon fill="black" stroke="black" points="745.93,-1595.25 739.54,-1603.7 749.8,-1601.08 745.93,-1595.25"/>
</g>
<!-- 1 -->
<g id="node96" class="node">
<title>1</title>
<ellipse fill="red" stroke="red" cx="1288.08" cy="-1167.56" rx="27" ry="18"/>
</g>
<!-- 1&#45;&gt;2 -->
<g id="edge73" class="edge">
<title>1&#45;&gt;2</title>
<path fill="none" stroke="black" d="M1300.75,-1151.45C1361.3,-1074.46 1621.42,-743.77 1697.98,-646.44"/>
<polygon fill="black" stroke="black" points="1700.77,-648.56 1704.2,-638.53 1695.26,-644.23 1700.77,-648.56"/>
</g>
<!-- 1&#45;&gt;13 -->
<g id="edge74" class="edge">
<title>1&#45;&gt;13</title>
<path fill="none" stroke="black" d="M1313.24,-1174.69C1416.72,-1204 1811.91,-1315.97 1980.52,-1363.74"/>
<polygon fill="black" stroke="black" points="1979.75,-1367.16 1990.32,-1366.52 1981.66,-1360.42 1979.75,-1367.16"/>
</g>
<!-- 1&#45;&gt;26 -->
<g id="edge75" class="edge">
<title>1&#45;&gt;26</title>
<path fill="none" stroke="black" d="M1312.84,-1160.34C1403.37,-1133.95 1718.77,-1042 1864.74,-999.45"/>
<polygon fill="black" stroke="black" points="1865.91,-1002.75 1874.53,-996.6 1863.95,-996.03 1865.91,-1002.75"/>
</g>
<!-- 1&#45;&gt;37 -->
<g id="edge76" class="edge">
<title>1&#45;&gt;37</title>
<path fill="none" stroke="black" d="M1287.24,-1185.72C1282.88,-1279.97 1262.84,-1713.41 1257.41,-1830.65"/>
<polygon fill="black" stroke="black" points="1253.92,-1830.53 1256.95,-1840.68 1260.91,-1830.85 1253.92,-1830.53"/>
</g>
<!-- 1&#45;&gt;48 -->
<g id="edge77" class="edge">
<title>1&#45;&gt;48</title>
<path fill="none" stroke="black" d="M1261.11,-1170.74C1158.1,-1182.91 786.25,-1226.83 605.09,-1248.22"/>
<polygon fill="black" stroke="black" points="604.54,-1244.76 595.02,-1249.41 605.36,-1251.71 604.54,-1244.76"/>
</g>
<!-- 1&#45;&gt;61 -->
<g id="edge78" class="edge">
<title>1&#45;&gt;61</title>
<path fill="none" stroke="black" d="M1294.41,-1149.96C1322.2,-1072.76 1433.48,-763.56 1468.08,-667.43"/>
<polygon fill="black" stroke="black" points="1471.45,-668.38 1471.55,-657.79 1464.87,-666.01 1471.45,-668.38"/>
</g>
<!-- 1&#45;&gt;74 -->
<g id="edge79" class="edge">
<title>1&#45;&gt;74</title>
<path fill="none" stroke="black" d="M1283.55,-1149.74C1261.83,-1064.3 1168.26,-696.19 1141.29,-590.11"/>
<polygon fill="black" stroke="black" points="1144.68,-589.23 1138.82,-580.41 1137.9,-590.96 1144.68,-589.23"/>
</g>
<!-- 1&#45;&gt;85 -->
<g id="edge80" class="edge">
<title>1&#45;&gt;85</title>
<path fill="none" stroke="black" d="M1308.16,-1179.92C1370.87,-1218.54 1563.94,-1337.43 1647.82,-1389.08"/>
<polygon fill="black" stroke="black" points="1646.19,-1392.19 1656.54,-1394.45 1649.86,-1386.23 1646.19,-1392.19"/>
</g>
<!-- 1&#45;&gt;94 -->
<g id="edge81" class="edge">
<title>1&#45;&gt;94</title>
<path fill="none" stroke="black" d="M1307.04,-1154.6C1385.79,-1100.79 1687.9,-894.35 1793.17,-822.42"/>
<polygon fill="black" stroke="black" points="1795.29,-825.21 1801.57,-816.67 1791.34,-819.43 1795.29,-825.21"/>
</g>
<!-- 1&#45;&gt;105 -->
<g id="edge82" class="edge">
<title>1&#45;&gt;105</title>
<path fill="none" stroke="black" d="M1272.4,-1152.49C1228.95,-1110.73 1106.61,-993.15 1051.88,-940.55"/>
<polygon fill="black" stroke="black" points="1054.25,-937.98 1044.62,-933.57 1049.4,-943.03 1054.25,-937.98"/>
</g>
<!-- 1&#45;&gt;116 -->
<g id="edge83" class="edge">
<title>1&#45;&gt;116</title>
<path fill="none" stroke="black" d="M1267.59,-1155.67C1179.8,-1104.74 834.5,-904.4 713.95,-834.46"/>
<polygon fill="black" stroke="black" points="715.4,-831.25 704.99,-829.26 711.88,-837.31 715.4,-831.25"/>
</g>
<!-- 1&#45;&gt;127 -->
<g id="edge84" class="edge">
<title>1&#45;&gt;127</title>
<path fill="none" stroke="black" d="M1266.37,-1178.64C1179.52,-1222.98 856.04,-1388.14 734.47,-1450.21"/>
<polygon fill="black" stroke="black" points="732.7,-1447.18 725.39,-1454.84 735.88,-1453.41 732.7,-1447.18"/>
</g>
<!-- 1&#45;&gt;138 -->
<g id="edge85" class="edge">
<title>1&#45;&gt;138</title>
<path fill="none" stroke="black" d="M1261.67,-1162.96C1184.5,-1149.53 956.25,-1109.8 820.89,-1086.25"/>
<polygon fill="black" stroke="black" points="821.36,-1082.78 810.91,-1084.51 820.16,-1089.67 821.36,-1082.78"/>
</g>
<!-- 1&#45;&gt;151 -->
<g id="edge86" class="edge">
<title>1&#45;&gt;151</title>
<path fill="none" stroke="black" d="M1297.68,-1184.46C1338.7,-1256.72 1499.54,-1540 1551,-1630.65"/>
<polygon fill="black" stroke="black" points="1548.06,-1632.56 1556.05,-1639.53 1554.15,-1629.11 1548.06,-1632.56"/>
</g>
<!-- 1&#45;&gt;160 -->
<g id="edge87" class="edge">
<title>1&#45;&gt;160</title>
<path fill="none" stroke="black" d="M1302.46,-1183.05C1370.1,-1255.97 1657.04,-1565.29 1743.58,-1658.58"/>
<polygon fill="black" stroke="black" points="1741.26,-1661.22 1750.62,-1666.17 1746.39,-1656.46 1741.26,-1661.22"/>
</g>
<!-- 1&#45;&gt;171 -->
<g id="edge88" class="edge">
<title>1&#45;&gt;171</title>
<path fill="none" stroke="black" d="M1288.6,-1149.45C1291.35,-1054.27 1304.12,-611.86 1307.56,-492.99"/>
<polygon fill="black" stroke="black" points="1311.06,-492.92 1307.85,-482.82 1304.06,-492.72 1311.06,-492.92"/>
</g>
<!-- 1&#45;&gt;182 -->
<g id="edge89" class="edge">
<title>1&#45;&gt;182</title>
<path fill="none" stroke="black" d="M1315.19,-1166.91C1384.95,-1165.26 1573.47,-1160.8 1691.58,-1158"/>
<polygon fill="black" stroke="black" points="1691.8,-1161.5 1701.72,-1157.76 1691.64,-1154.5 1691.8,-1161.5"/>
</g>
<!-- 1&#45;&gt;193 -->
<g id="edge90" class="edge">
<title>1&#45;&gt;193</title>
<path fill="none" stroke="black" d="M1275.07,-1183.54C1221.56,-1249.26 1018.13,-1499.13 950.47,-1582.24"/>
<polygon fill="black" stroke="black" points="947.59,-1580.23 943.99,-1590.19 953.02,-1584.65 947.59,-1580.23"/>
</g>
<!-- 1&#45;&gt;202 -->
<g id="edge91" class="edge">
<title>1&#45;&gt;202</title>
<path fill="none" stroke="black" d="M1291.57,-1185.68C1305.66,-1258.89 1358.44,-1533.12 1375.84,-1623.49"/>
<polygon fill="black" stroke="black" points="1372.45,-1624.41 1377.78,-1633.57 1379.32,-1623.09 1372.45,-1624.41"/>
</g>
<!-- 1&#45;&gt;213 -->
<g id="edge92" class="edge">
<title>1&#45;&gt;213</title>
<path fill="none" stroke="black" d="M1281.32,-1185.12C1247.18,-1273.8 1093.74,-1672.43 1051.13,-1783.14"/>
<polygon fill="black" stroke="black" points="1047.79,-1782.06 1047.47,-1792.65 1054.32,-1784.58 1047.79,-1782.06"/>
</g>
<!-- 1&#45;&gt;224 -->
<g id="edge93" class="edge">
<title>1&#45;&gt;224</title>
<path fill="none" stroke="black" d="M1277.22,-1150.76C1223.89,-1068.29 989.72,-706.14 922.53,-602.22"/>
<polygon fill="black" stroke="black" points="925.28,-600.03 916.91,-593.53 919.4,-603.83 925.28,-600.03"/>
</g>
<!-- 1&#45;&gt;235 -->
<g id="edge94" class="edge">
<title>1&#45;&gt;235</title>
<path fill="none" stroke="black" d="M1313.69,-1161.42C1324.95,-1158.72 1338.91,-1155.38 1353.45,-1151.9"/>
<polygon fill="black" stroke="black" points="1354.68,-1155.2 1363.59,-1149.47 1353.05,-1148.39 1354.68,-1155.2"/>
</g>
<!-- 1&#45;&gt;248 -->
<g id="edge95" class="edge">
<title>1&#45;&gt;248</title>
<path fill="none" stroke="black" d="M1271.94,-1182.03C1222.51,-1226.36 1072.74,-1360.68 1009,-1417.84"/>
<polygon fill="black" stroke="black" points="1006.42,-1415.46 1001.31,-1424.74 1011.09,-1420.67 1006.42,-1415.46"/>
</g>
</g>
</svg>
