<?xml version="1.0" encoding="UTF-8" ?>
<!DOCTYPE svg PUBLIC "-//W3C//DTD SVG 1.1//EN" "http://www.w3.org/Graphics/SVG/1.1/DTD/svg11.dtd">
<svg width="596pt" height="192pt" viewBox="0 0 596 192" version="1.1" xmlns="http://www.w3.org/2000/svg">
<g id="#111416ff">
<path fill="#111416" stroke="#111416" stroke-width="0.09375" opacity="1.00" d=" M 18.00 13.00 C 73.67 13.00 129.33 13.00 185.00 13.00 C 185.00 68.67 185.00 124.33 185.00 180.00 C 158.56 180.00 132.12 180.01 105.69 180.00 C 105.68 172.01 105.57 164.02 105.63 156.04 C 105.54 152.53 106.70 148.92 109.33 146.51 C 117.17 138.94 125.15 131.51 133.07 124.02 C 137.70 119.95 141.09 114.25 141.53 108.01 C 141.94 101.61 141.30 95.20 141.50 88.79 C 144.16 88.80 146.83 88.80 149.50 88.79 C 149.34 80.64 149.46 72.49 149.39 64.34 C 141.31 64.30 133.23 64.38 125.15 64.28 C 125.01 72.43 125.09 80.58 125.12 88.73 C 127.81 88.72 130.50 88.72 133.19 88.72 C 133.10 94.85 133.18 100.99 133.05 107.12 C 133.07 110.23 131.82 113.30 129.61 115.48 C 121.74 123.18 113.64 130.64 105.67 138.22 C 105.64 107.76 105.86 77.30 105.67 46.84 C 109.00 46.89 112.34 46.90 115.67 46.89 C 110.91 38.85 106.59 30.54 101.56 22.67 C 96.42 30.45 92.17 38.79 87.37 46.79 C 90.69 46.83 94.01 46.86 97.33 46.86 C 97.28 87.27 97.24 127.69 97.34 168.10 C 89.43 160.52 81.46 153.00 73.42 145.55 C 71.04 143.43 69.67 140.30 69.70 137.11 C 69.52 130.79 69.71 124.48 69.62 118.16 C 73.73 115.79 78.02 112.22 77.83 106.99 C 78.71 98.72 69.34 91.99 61.69 94.76 C 55.10 96.63 51.37 104.68 54.19 110.93 C 55.40 114.22 58.37 116.27 61.23 118.03 C 61.30 124.65 61.09 131.28 61.32 137.91 C 61.64 144.53 65.58 150.36 70.46 154.58 C 78.06 161.31 85.32 168.41 92.69 175.38 C 94.12 176.72 95.23 178.34 96.25 180.00 C 70.17 180.00 44.08 180.00 18.00 180.00 C 18.00 124.33 18.00 68.67 18.00 13.00 Z" />
<path fill="#111416" stroke="#111416" stroke-width="0.09375" opacity="1.00" d=" M 210.29 31.50 C 211.93 31.52 213.57 31.54 215.21 31.56 C 217.90 36.05 220.55 40.58 223.26 45.07 C 226.06 40.59 228.79 36.07 231.50 31.54 C 232.65 31.53 234.95 31.53 236.10 31.52 C 232.65 37.09 229.15 42.62 225.65 48.16 C 229.32 54.08 232.90 60.06 236.54 66.00 C 234.89 65.98 233.25 65.97 231.60 65.97 C 228.79 61.17 225.94 56.40 223.06 51.64 C 220.21 56.41 217.39 61.20 214.58 65.99 C 213.03 65.98 211.49 65.97 209.95 65.96 C 213.53 60.13 217.09 54.30 220.72 48.50 C 217.23 42.84 213.77 37.16 210.29 31.50 Z" />
<path fill="#111416" stroke="#111416" stroke-width="0.09375" opacity="1.00" d=" M 240.27 65.99 C 240.28 54.50 240.29 43.01 240.26 31.53 C 245.16 31.66 250.08 31.27 254.96 31.73 C 259.15 32.12 262.89 35.69 262.74 40.04 C 263.12 43.65 260.73 46.60 257.90 48.48 C 264.00 52.22 261.79 60.08 262.54 66.02 C 261.11 65.98 259.67 65.95 258.24 65.92 C 257.83 61.58 258.48 57.02 257.05 52.84 C 254.15 49.01 248.60 50.62 244.46 50.23 C 244.46 55.48 244.46 60.73 244.46 65.98 C 243.06 65.98 241.67 65.98 240.27 65.99 M 244.46 34.96 C 244.46 38.90 244.46 42.83 244.46 46.76 C 247.83 46.69 251.27 47.04 254.59 46.29 C 259.28 45.23 259.80 37.53 255.43 35.70 C 251.90 34.53 248.11 35.08 244.46 34.96 Z" />
<path fill="#111416" stroke="#111416" stroke-width="0.09375" opacity="1.00" d=" M 282.26 31.52 C 287.16 31.65 292.07 31.27 296.95 31.73 C 301.14 32.11 304.88 35.67 304.73 40.01 C 305.13 43.63 302.74 46.58 299.91 48.48 C 306.00 52.23 303.79 60.08 304.54 66.02 C 303.10 65.98 301.67 65.95 300.24 65.92 C 299.71 61.44 300.74 56.52 298.73 52.35 C 295.52 49.20 290.51 50.57 286.46 50.23 C 286.46 55.48 286.46 60.73 286.46 65.98 C 285.06 65.98 283.66 65.98 282.27 65.99 C 282.28 54.50 282.29 43.01 282.26 31.52 M 286.46 34.96 C 286.46 38.89 286.46 42.83 286.46 46.76 C 289.82 46.69 293.25 47.03 296.57 46.30 C 301.31 45.25 301.81 37.46 297.37 35.68 C 293.86 34.55 290.09 35.08 286.46 34.96 Z" />
<path fill="#111416" stroke="#111416" stroke-width="0.09375" opacity="1.00" d=" M 461.27 65.97 C 461.28 54.49 461.29 43.01 461.26 31.53 C 466.96 31.84 472.88 30.72 478.41 32.50 C 484.33 34.53 487.78 40.83 487.74 46.88 C 488.09 53.30 486.12 60.85 480.03 64.08 C 474.26 67.09 467.50 65.71 461.27 65.97 M 465.46 34.94 C 465.46 44.15 465.45 53.36 465.47 62.57 C 469.44 62.46 473.68 63.02 477.38 61.22 C 481.14 59.26 482.90 54.95 483.21 50.92 C 483.69 46.28 483.12 40.91 479.38 37.67 C 475.59 34.24 470.14 35.11 465.46 34.94 Z" />
<path fill="#111416" stroke="#111416" stroke-width="0.09375" opacity="1.00" d=" M 312.81 43.92 C 316.64 38.71 326.05 38.84 329.29 44.60 C 330.93 47.44 330.91 50.81 331.17 53.97 C 325.40 54.02 319.64 53.88 313.88 54.13 C 314.46 57.48 315.17 61.99 319.14 62.85 C 322.60 64.03 325.32 61.32 327.14 58.76 C 328.12 58.77 330.07 58.78 331.04 58.78 C 329.78 60.89 328.76 63.31 326.70 64.78 C 321.94 67.87 314.25 66.88 311.66 61.40 C 309.17 55.95 309.17 48.86 312.81 43.92 M 317.44 44.43 C 315.17 45.77 314.80 48.65 313.86 50.88 C 318.33 51.06 322.81 51.03 327.29 51.01 C 326.63 49.01 326.37 46.74 324.97 45.08 C 322.95 43.27 319.72 42.83 317.44 44.43 Z" />
<path fill="#111416" stroke="#111416" stroke-width="0.09375" opacity="1.00" d=" M 365.43 40.64 C 369.02 39.77 373.38 40.05 376.04 42.92 C 378.86 45.85 378.91 50.17 379.16 53.97 C 373.40 54.02 367.63 53.88 361.87 54.13 C 362.47 57.46 363.15 61.96 367.10 62.83 C 370.57 64.05 373.31 61.33 375.14 58.76 C 376.11 58.77 378.06 58.78 379.04 58.78 C 377.59 61.28 376.29 64.26 373.47 65.49 C 369.35 67.24 363.77 66.87 360.83 63.16 C 358.09 59.75 357.70 55.07 358.12 50.87 C 358.50 46.52 361.08 42.01 365.43 40.64 M 365.38 44.47 C 363.15 45.83 362.80 48.67 361.86 50.88 C 366.33 51.07 370.81 51.02 375.29 51.01 C 374.64 49.03 374.37 46.80 373.02 45.13 C 370.99 43.25 367.68 42.82 365.38 44.47 Z" />
<path fill="#111416" stroke="#111416" stroke-width="0.09375" opacity="1.00" d=" M 388.49 45.67 C 390.26 42.52 393.31 40.61 396.77 39.78 C 396.85 41.21 396.95 42.64 397.05 44.08 C 394.06 44.85 390.51 45.93 389.48 49.24 C 388.02 54.69 388.96 60.42 388.73 65.99 C 387.40 65.98 386.06 65.98 384.73 65.98 C 384.68 57.57 384.91 49.14 384.50 40.73 C 385.59 40.74 387.75 40.75 388.83 40.75 C 388.73 42.39 388.61 44.03 388.49 45.67 Z" />
<path fill="#111416" stroke="#111416" stroke-width="0.09375" opacity="1.00" d=" M 402.55 41.46 C 405.44 39.82 409.10 39.92 412.18 40.92 C 415.09 41.80 415.95 44.99 417.12 47.43 C 416.14 47.42 414.18 47.42 413.20 47.42 C 411.82 45.72 410.63 43.06 408.00 43.41 C 405.24 42.84 402.81 45.25 403.41 48.01 C 406.63 51.58 412.35 50.84 415.66 54.33 C 418.41 57.43 417.47 62.82 413.90 64.89 C 410.37 66.99 405.67 66.98 402.10 64.98 C 399.82 63.69 399.00 61.07 398.01 58.83 C 398.98 58.81 400.92 58.77 401.89 58.75 C 403.49 61.13 405.67 63.90 408.94 63.26 C 412.15 63.40 414.56 59.13 412.08 56.79 C 408.85 54.34 404.35 54.40 401.21 51.79 C 398.19 49.03 398.99 43.41 402.55 41.46 Z" />
<path fill="#111416" stroke="#111416" stroke-width="0.09375" opacity="1.00" d=" M 428.44 40.64 C 432.02 39.77 436.37 40.05 439.03 42.91 C 441.86 45.84 441.90 50.16 442.17 53.97 C 436.40 54.02 430.63 53.87 424.87 54.13 C 425.46 57.45 426.14 61.92 430.06 62.82 C 433.54 64.06 436.31 61.35 438.14 58.76 C 439.12 58.77 441.07 58.78 442.04 58.78 C 440.59 61.29 439.28 64.28 436.44 65.50 C 432.32 67.24 426.75 66.85 423.82 63.15 C 421.08 59.74 420.70 55.06 421.12 50.86 C 421.51 46.51 424.09 42.00 428.44 40.64 M 428.41 44.45 C 426.16 45.80 425.80 48.66 424.86 50.88 C 429.33 51.06 433.81 51.02 438.29 51.01 C 437.64 49.02 437.37 46.79 436.01 45.12 C 433.99 43.26 430.70 42.82 428.41 44.45 Z" />
<path fill="#111416" stroke="#111416" stroke-width="0.09375" opacity="1.00" d=" M 499.38 40.76 C 503.70 39.45 509.08 40.30 511.75 44.27 C 515.12 49.26 515.00 56.15 512.27 61.40 C 508.61 68.11 497.25 68.24 493.80 61.27 C 490.31 54.53 491.36 43.67 499.38 40.76 M 500.24 44.22 C 496.14 46.43 495.88 51.83 496.41 55.91 C 496.77 59.65 499.83 63.70 503.98 62.94 C 506.83 62.76 508.81 60.31 509.41 57.69 C 510.31 53.82 510.39 49.31 508.02 45.94 C 506.35 43.48 502.80 43.00 500.24 44.22 Z" />
<path fill="#111416" stroke="#111416" stroke-width="0.09375" opacity="1.00" d=" M 518.24 49.92 C 518.86 45.68 521.72 41.43 526.10 40.48 C 529.30 39.96 533.06 40.07 535.58 42.41 C 537.49 44.06 538.23 46.56 539.19 48.80 C 537.81 48.88 536.43 48.95 535.06 49.02 C 533.84 46.84 532.78 43.91 529.91 43.59 C 526.56 42.78 523.36 45.50 522.75 48.71 C 521.89 52.74 521.76 57.36 524.15 60.92 C 525.73 63.28 529.16 63.54 531.60 62.51 C 533.22 61.43 533.97 59.53 535.01 57.96 C 536.39 58.05 537.77 58.14 539.16 58.23 C 537.83 60.77 536.71 63.72 534.05 65.17 C 529.67 67.53 523.30 66.86 520.31 62.59 C 517.80 58.93 517.66 54.17 518.24 49.92 Z" />
<path fill="#111416" stroke="#111416" stroke-width="0.09375" opacity="1.00" d=" M 546.61 41.43 C 549.51 39.82 553.18 39.92 556.26 40.95 C 559.13 41.86 559.95 45.02 561.12 47.43 C 560.14 47.42 558.18 47.42 557.20 47.42 C 555.78 45.29 554.02 42.71 551.04 43.42 C 548.05 42.97 545.84 47.68 548.67 49.21 C 551.95 51.22 556.15 51.35 559.17 53.85 C 562.29 56.61 561.79 62.13 558.45 64.51 C 554.87 67.04 549.75 67.08 545.99 64.91 C 543.78 63.60 542.99 61.03 542.01 58.83 C 542.98 58.81 544.92 58.77 545.89 58.75 C 547.50 61.14 549.69 63.93 552.99 63.26 C 556.17 63.38 558.54 59.12 556.09 56.80 C 552.86 54.34 548.34 54.40 545.20 51.78 C 542.17 49.00 543.01 43.35 546.61 41.43 Z" />
<path fill="#111416" stroke="#111416" stroke-width="0.09375" opacity="1.00" d=" M 333.55 40.73 C 335.01 40.74 336.48 40.74 337.95 40.74 C 340.16 47.82 342.57 54.85 344.39 62.05 C 346.40 54.87 348.78 47.80 351.13 40.72 C 352.49 40.73 353.84 40.74 355.21 40.75 C 352.29 49.14 349.41 57.55 346.53 65.96 C 345.01 65.97 343.48 65.98 341.97 65.99 C 339.17 57.57 336.36 49.15 333.55 40.73 Z" />
<path fill="#111416" stroke="#111416" stroke-width="0.09375" opacity="1.00" d=" M 420.48 90.69 C 421.42 90.69 422.37 90.68 423.32 90.68 C 423.31 91.89 423.31 93.11 423.32 94.32 C 422.37 94.32 421.42 94.31 420.48 94.31 C 420.48 93.10 420.48 91.90 420.48 90.69 Z" />
<path fill="#111416" stroke="#111416" stroke-width="0.09375" opacity="1.00" d=" M 490.48 90.70 C 491.42 90.69 492.37 90.68 493.32 90.68 C 493.31 91.89 493.31 93.10 493.32 94.32 C 492.37 94.31 491.42 94.31 490.48 94.31 C 490.48 93.10 490.48 91.90 490.48 90.70 Z" />
<path fill="#111416" stroke="#111416" stroke-width="0.09375" opacity="1.00" d=" M 253.03 91.63 C 257.18 91.89 262.01 90.93 265.57 93.60 C 268.13 96.44 266.95 100.69 264.31 103.03 C 267.54 106.58 267.04 111.58 266.58 115.97 C 263.85 112.96 265.84 108.45 263.85 105.13 C 261.19 103.42 257.84 104.01 254.84 103.74 C 254.85 107.49 254.85 111.25 254.85 115.00 C 254.39 115.00 253.48 115.00 253.02 115.00 C 253.02 107.21 253.01 99.42 253.03 91.63 M 254.83 93.47 C 254.85 96.38 254.85 99.28 254.85 102.19 C 257.49 102.12 260.18 102.40 262.79 101.84 C 265.89 100.54 266.04 95.19 262.81 93.90 C 260.20 93.27 257.48 93.56 254.83 93.47 Z" />
<path fill="#111416" stroke="#111416" stroke-width="0.09375" opacity="1.00" d=" M 366.67 92.02 C 371.28 92.02 375.90 92.02 380.51 92.01 C 380.53 92.64 380.56 93.91 380.57 94.54 C 376.89 94.52 373.21 94.52 369.53 94.53 C 369.53 96.91 369.51 99.29 369.51 101.68 C 373.00 101.67 376.49 101.67 379.98 101.67 C 379.98 102.33 379.98 103.67 379.98 104.33 C 376.49 104.33 373.00 104.33 369.51 104.32 C 369.52 107.04 369.52 109.76 369.53 112.47 C 373.35 112.48 377.17 112.48 380.99 112.46 C 380.91 113.09 380.76 114.35 380.68 114.98 C 376.01 114.98 371.34 114.98 366.67 114.98 C 366.67 107.33 366.67 99.67 366.67 92.02 Z" />
<path fill="#111416" stroke="#111416" stroke-width="0.09375" opacity="1.00" d=" M 273.76 99.83 C 276.09 97.25 280.65 97.42 282.92 99.98 C 284.42 101.96 284.42 104.55 284.81 106.90 C 280.78 107.01 276.74 106.98 272.71 106.99 C 273.62 109.26 273.74 112.62 276.46 113.54 C 279.78 114.61 282.12 111.40 284.71 109.99 C 283.64 111.71 282.89 113.99 280.84 114.79 C 277.49 116.46 273.01 114.67 272.01 111.01 C 270.98 107.33 271.00 102.77 273.76 99.83 M 272.70 105.38 C 276.22 105.49 279.74 105.49 283.26 105.43 C 282.28 103.22 282.00 99.76 278.94 99.56 C 275.26 98.68 273.72 102.69 272.70 105.38 Z" />
<path fill="#111416" stroke="#111416" stroke-width="0.09375" opacity="1.00" d=" M 286.47 97.08 C 290.45 101.58 291.03 107.92 293.05 113.40 C 295.19 108.02 295.60 101.54 299.70 97.19 C 298.47 103.31 296.16 109.19 293.83 114.97 C 293.40 114.97 292.53 114.97 292.10 114.97 C 289.83 109.16 287.69 103.21 286.47 97.08 Z" />
<path fill="#111416" stroke="#111416" stroke-width="0.09375" opacity="1.00" d=" M 303.78 99.81 C 306.12 97.25 310.65 97.43 312.92 99.98 C 314.42 101.95 314.42 104.55 314.81 106.89 C 310.77 107.01 306.74 106.98 302.71 106.99 C 303.63 109.25 303.73 112.60 306.44 113.53 C 309.76 114.62 312.12 111.40 314.71 110.00 C 313.58 111.99 312.52 114.56 310.01 115.11 C 306.76 116.22 302.92 114.32 302.00 110.98 C 300.98 107.30 301.01 102.74 303.78 99.81 M 302.70 105.38 C 306.22 105.49 309.74 105.49 313.26 105.43 C 312.27 103.23 312.00 99.76 308.95 99.57 C 305.26 98.66 303.72 102.69 302.70 105.38 Z" />
<path fill="#111416" stroke="#111416" stroke-width="0.09375" opacity="1.00" d=" M 318.48 98.09 C 318.98 98.13 319.98 98.19 320.47 98.22 C 320.34 98.98 320.09 100.49 319.96 101.24 C 321.86 99.40 324.15 98.01 326.83 97.70 C 324.96 99.68 322.26 100.85 320.82 103.23 C 319.90 107.05 320.43 111.04 320.34 114.94 C 319.88 114.96 318.94 115.00 318.48 115.02 C 318.47 109.38 318.47 103.74 318.48 98.09 Z" />
<path fill="#111416" stroke="#111416" stroke-width="0.09375" opacity="1.00" d=" M 327.65 102.84 C 327.06 98.13 333.79 96.51 336.70 99.33 C 337.54 100.44 337.83 101.84 338.36 103.11 C 336.16 101.60 334.16 98.52 331.08 99.66 C 329.03 100.22 329.38 102.31 329.69 103.90 C 332.64 105.86 337.89 105.62 338.54 109.96 C 339.02 115.01 332.22 116.88 328.84 114.08 C 327.42 113.11 327.46 111.25 327.11 109.74 C 328.99 111.49 330.77 114.48 333.82 113.66 C 336.80 114.03 337.87 108.84 335.02 108.02 C 332.51 106.53 328.02 106.45 327.65 102.84 Z" />
<path fill="#111416" stroke="#111416" stroke-width="0.09375" opacity="1.00" d=" M 343.74 99.86 C 346.07 97.23 350.71 97.41 352.97 100.04 C 354.42 102.01 354.42 104.58 354.81 106.90 C 350.77 107.01 346.74 106.98 342.71 106.99 C 343.62 109.25 343.73 112.59 346.43 113.52 C 349.75 114.62 352.12 111.40 354.71 109.99 C 353.64 111.72 352.87 114.03 350.79 114.81 C 347.47 116.43 343.03 114.67 342.02 111.05 C 340.98 107.37 340.99 102.81 343.74 99.86 M 342.70 105.38 C 346.22 105.49 349.74 105.49 353.26 105.43 C 352.27 103.27 352.03 99.82 349.03 99.58 C 345.31 98.60 343.71 102.66 342.70 105.38 Z" />
<path fill="#111416" stroke="#111416" stroke-width="0.09375" opacity="1.00" d=" M 384.56 97.37 C 385.57 98.05 386.64 98.65 387.74 99.20 C 390.66 97.22 395.67 96.94 397.05 100.89 C 398.06 105.50 397.33 110.30 397.52 114.99 C 396.80 114.99 395.38 114.98 394.66 114.98 C 394.57 110.79 394.99 106.56 394.42 102.40 C 393.81 99.21 388.49 99.74 387.75 102.65 C 386.88 106.69 387.46 110.88 387.34 114.98 C 386.62 114.98 385.18 114.98 384.47 114.98 C 384.52 109.11 384.39 103.24 384.56 97.37 Z" />
<path fill="#111416" stroke="#111416" stroke-width="0.09375" opacity="1.00" d=" M 405.42 114.55 C 398.82 111.11 400.05 98.58 407.92 97.61 C 409.76 97.77 411.40 98.71 413.05 99.46 C 412.93 99.10 412.69 98.37 412.57 98.01 C 413.31 98.01 414.79 98.02 415.53 98.02 C 415.35 104.18 415.89 110.38 415.27 116.52 C 414.78 120.98 409.73 122.87 405.83 121.74 C 403.13 121.45 402.13 118.56 400.98 116.54 C 403.07 116.91 404.90 117.93 406.35 119.47 C 408.08 119.43 410.16 119.91 411.56 118.56 C 412.50 116.92 412.70 114.99 413.19 113.18 C 410.85 114.43 408.07 115.77 405.42 114.55 M 406.14 100.89 C 403.73 103.26 404.00 107.16 404.86 110.16 C 406.00 113.56 411.98 113.36 412.49 109.65 C 412.77 106.67 413.34 103.02 411.10 100.62 C 409.47 100.17 407.68 100.16 406.14 100.89 Z" />
<path fill="#111416" stroke="#111416" stroke-width="0.09375" opacity="1.00" d=" M 420.47 98.01 C 421.18 98.02 422.61 98.02 423.33 98.02 C 423.33 103.67 423.32 109.33 423.33 114.98 C 422.61 114.98 421.18 114.98 420.47 114.99 C 420.48 109.33 420.48 103.67 420.47 98.01 Z" />
<path fill="#111416" stroke="#111416" stroke-width="0.09375" opacity="1.00" d=" M 428.55 97.39 C 429.58 98.03 430.65 98.63 431.74 99.19 C 434.66 97.24 439.63 96.94 441.03 100.84 C 442.07 105.46 441.32 110.28 441.52 114.99 C 440.81 114.99 439.38 114.98 438.66 114.98 C 438.57 110.78 439.00 106.53 438.41 102.36 C 437.77 99.21 432.50 99.76 431.75 102.64 C 430.88 106.68 431.46 110.88 431.34 114.98 C 430.62 114.98 429.19 114.98 428.47 114.98 C 428.51 109.12 428.40 103.25 428.55 97.39 Z" />
<path fill="#111416" stroke="#111416" stroke-width="0.09375" opacity="1.00" d=" M 446.09 102.19 C 447.50 97.92 453.32 96.19 456.76 99.14 C 459.21 100.93 459.19 104.19 459.61 106.91 C 455.63 107.00 451.65 106.96 447.68 107.10 C 448.63 109.30 449.05 112.82 452.09 113.00 C 454.20 113.44 455.51 111.30 456.96 110.19 C 457.60 110.21 458.88 110.26 459.52 110.29 C 457.95 112.99 455.59 115.84 452.08 115.37 C 445.60 115.34 443.87 107.05 446.09 102.19 M 447.68 104.80 C 450.80 105.00 453.94 105.03 457.07 105.04 C 456.09 103.16 455.67 100.17 453.03 100.01 C 449.98 99.40 448.88 102.73 447.68 104.80 Z" />
<path fill="#111416" stroke="#111416" stroke-width="0.09375" opacity="1.00" d=" M 461.75 110.32 C 459.84 105.16 462.59 97.17 469.05 97.68 C 473.83 97.84 475.63 102.85 475.61 106.91 C 471.63 107.00 467.65 106.96 463.68 107.10 C 464.62 109.31 465.06 112.85 468.13 113.01 C 470.21 113.43 471.51 111.29 472.95 110.20 C 473.59 110.22 474.88 110.26 475.52 110.29 C 474.21 112.03 473.17 114.33 470.90 114.97 C 467.23 116.36 462.54 114.34 461.75 110.32 M 463.67 104.80 C 466.80 105.00 469.93 105.03 473.07 105.04 C 472.09 103.15 471.65 100.16 469.01 100.00 C 465.96 99.43 464.88 102.73 463.67 104.80 Z" />
<path fill="#111416" stroke="#111416" stroke-width="0.09375" opacity="1.00" d=" M 479.61 97.23 C 480.69 98.08 481.76 98.95 482.83 99.83 C 484.48 98.89 486.18 98.04 487.93 97.25 C 488.02 100.46 484.86 101.20 483.00 103.04 C 481.67 106.84 482.54 111.03 482.33 114.99 C 481.62 114.98 480.18 114.98 479.47 114.98 C 479.53 109.06 479.34 103.14 479.61 97.23 Z" />
<path fill="#111416" stroke="#111416" stroke-width="0.09375" opacity="1.00" d=" M 490.47 98.01 C 491.18 98.02 492.61 98.02 493.33 98.02 C 493.32 103.67 493.33 109.33 493.33 114.99 C 492.61 114.99 491.18 114.98 490.47 114.98 C 490.48 109.32 490.48 103.67 490.47 98.01 Z" />
<path fill="#111416" stroke="#111416" stroke-width="0.09375" opacity="1.00" d=" M 498.53 97.43 C 499.59 98.01 500.67 98.56 501.72 99.18 C 504.66 97.25 509.68 96.94 511.05 100.88 C 512.06 105.50 511.33 110.30 511.52 114.99 C 510.81 114.98 509.38 114.98 508.66 114.98 C 508.57 110.78 509.00 106.55 508.42 102.38 C 507.79 99.22 502.54 99.74 501.76 102.61 C 500.87 106.66 501.46 110.86 501.34 114.98 C 500.62 114.98 499.19 114.99 498.47 114.99 C 498.50 109.14 498.42 103.28 498.53 97.43 Z" />
<path fill="#111416" stroke="#111416" stroke-width="0.09375" opacity="1.00" d=" M 518.81 114.23 C 513.53 110.60 513.98 100.67 520.09 98.11 C 522.46 96.86 524.89 98.52 527.05 99.46 C 526.93 99.10 526.69 98.37 526.57 98.01 C 527.31 98.01 528.79 98.02 529.53 98.02 C 529.49 103.04 529.57 108.05 529.54 113.07 C 529.52 115.59 529.30 118.48 527.31 120.30 C 525.10 122.30 521.76 122.26 519.04 121.54 C 516.81 120.85 516.07 118.31 514.99 116.53 C 517.07 116.91 518.88 117.98 520.36 119.47 C 522.07 119.43 524.10 119.90 525.50 118.61 C 526.53 116.96 526.69 114.96 527.26 113.13 C 524.74 114.54 521.54 115.95 518.81 114.23 M 519.11 102.20 C 517.45 105.63 518.26 109.82 520.58 112.76 C 522.73 112.34 526.19 112.60 526.49 109.64 C 526.78 106.66 527.34 103.02 525.10 100.62 C 523.08 100.11 520.13 99.96 519.11 102.20 Z" />
<path fill="#111416" stroke="#111416" stroke-width="0.09375" opacity="1.00" d=" M 225.85 128.75 C 227.03 126.98 229.33 127.70 231.09 127.67 C 229.65 128.43 228.24 129.25 226.88 130.13 C 226.52 131.80 226.46 133.50 226.31 135.19 C 227.15 135.17 228.84 135.14 229.69 135.13 C 229.69 135.56 229.69 136.44 229.69 136.87 C 228.90 136.85 227.31 136.82 226.52 136.80 C 226.53 141.87 226.52 146.95 226.52 152.02 C 226.06 152.00 225.13 151.97 224.66 151.95 C 224.68 146.87 224.67 141.79 224.68 136.71 C 224.02 136.77 222.70 136.89 222.04 136.96 C 222.06 136.47 222.10 135.48 222.12 134.99 C 222.70 135.07 223.85 135.24 224.42 135.32 C 224.80 133.13 224.59 130.66 225.85 128.75 Z" />
<path fill="#111416" stroke="#111416" stroke-width="0.09375" opacity="1.00" d=" M 432.49 127.71 C 432.94 127.70 433.84 127.68 434.30 127.67 C 434.31 128.76 434.33 129.86 434.35 130.96 C 433.88 130.97 432.94 131.00 432.47 131.01 C 432.47 129.91 432.48 128.81 432.49 127.71 Z" />
<path fill="#111416" stroke="#111416" stroke-width="0.09375" opacity="1.00" d=" M 518.71 127.23 C 519.13 127.48 519.96 127.97 520.37 128.22 C 520.36 128.91 520.33 130.30 520.31 130.99 C 519.82 130.98 518.85 130.95 518.36 130.94 C 518.47 129.70 518.60 128.47 518.71 127.23 Z" />
<path fill="#111416" stroke="#111416" stroke-width="0.09375" opacity="1.00" d=" M 241.01 128.67 C 245.27 128.67 249.52 128.67 253.78 128.67 C 253.82 129.13 253.90 130.05 253.94 130.51 C 250.23 130.53 246.53 130.53 242.83 130.52 C 242.85 133.34 242.85 136.17 242.86 139.00 C 246.70 138.98 250.57 138.85 254.38 139.52 C 250.73 141.09 246.68 140.44 242.83 140.52 C 242.85 143.84 242.85 147.16 242.83 150.48 C 247.02 150.47 251.25 150.26 255.41 150.97 C 250.83 152.79 245.79 151.77 241.01 151.97 C 241.03 144.20 241.02 136.44 241.01 128.67 Z" />
<path fill="#111416" stroke="#111416" stroke-width="0.09375" opacity="1.00" d=" M 326.01 127.65 C 326.47 127.67 327.39 127.69 327.85 127.70 C 327.85 135.80 327.85 143.90 327.86 152.00 C 327.39 152.00 326.46 152.00 326.00 152.00 L 326.11 150.46 C 323.28 152.37 319.05 153.45 316.51 150.49 C 313.31 146.37 313.48 139.14 317.87 135.89 C 320.38 134.10 323.54 135.30 326.05 136.45 C 326.02 133.51 326.01 130.58 326.01 127.65 M 319.23 136.99 C 315.72 138.94 315.94 143.67 316.66 147.07 C 317.36 150.78 322.99 152.19 324.97 148.79 C 326.44 145.64 326.44 141.81 325.23 138.58 C 324.26 136.28 321.23 136.14 319.23 136.99 Z" />
<path fill="#111416" stroke="#111416" stroke-width="0.09375" opacity="1.00" d=" M 359.00 136.43 C 359.00 133.02 358.68 129.49 360.01 126.25 C 361.81 134.68 360.41 143.43 360.86 152.00 C 360.39 152.00 359.46 152.00 359.00 152.00 L 359.11 150.46 C 356.29 152.36 352.07 153.45 349.52 150.51 C 346.32 146.40 346.47 139.20 350.83 135.92 C 353.32 134.10 356.50 135.27 359.00 136.43 M 352.21 136.99 C 348.58 139.11 348.83 144.22 349.90 147.71 C 350.96 151.06 356.25 151.91 357.99 148.74 C 359.43 145.62 359.43 141.83 358.24 138.62 C 357.30 136.28 354.23 136.13 352.21 136.99 Z" />
<path fill="#111416" stroke="#111416" stroke-width="0.09375" opacity="1.00" d=" M 425.48 152.00 C 425.73 143.51 424.91 134.96 425.98 126.51 C 426.83 128.20 427.44 130.05 427.35 131.97 C 427.36 138.64 427.29 145.31 427.33 151.98 C 426.87 151.98 425.94 151.99 425.48 152.00 Z" />
<path fill="#111416" stroke="#111416" stroke-width="0.09375" opacity="1.00" d=" M 474.02 128.63 C 477.78 128.73 481.73 128.35 485.30 129.77 C 489.38 131.64 489.34 138.37 485.42 140.41 C 482.44 141.85 479.03 141.45 475.83 141.60 C 475.85 145.06 475.85 148.53 475.85 152.00 C 475.39 152.00 474.48 152.00 474.02 152.00 C 474.02 144.21 474.01 136.42 474.02 128.63 M 475.84 130.47 C 475.85 133.55 475.85 136.64 475.81 139.72 C 479.01 139.43 482.71 140.47 485.52 138.50 C 487.14 136.06 486.87 132.08 483.84 130.92 C 481.23 130.25 478.49 130.56 475.84 130.47 Z" />
<path fill="#111416" stroke="#111416" stroke-width="0.09375" opacity="1.00" d=" M 375.03 128.63 C 379.18 128.89 384.01 127.93 387.57 130.60 C 390.13 133.44 388.94 137.68 386.31 140.03 C 389.53 143.58 389.05 148.58 388.58 152.97 C 385.84 149.96 387.85 145.45 385.84 142.14 C 383.19 140.41 379.83 141.01 376.85 140.74 C 376.85 144.49 376.85 148.25 376.85 152.00 C 376.39 152.00 375.48 152.00 375.02 152.00 C 375.02 144.21 375.01 136.42 375.03 128.63 M 376.83 130.47 C 376.85 133.37 376.85 136.28 376.85 139.19 C 379.49 139.12 382.19 139.41 384.80 138.84 C 387.88 137.53 388.03 132.23 384.85 130.91 C 382.23 130.26 379.49 130.56 376.83 130.47 Z" />
<path fill="#111416" stroke="#111416" stroke-width="0.09375" opacity="1.00" d=" M 273.68 130.18 C 274.14 130.16 275.06 130.12 275.52 130.10 C 275.52 131.80 275.52 133.50 275.52 135.20 C 276.39 135.18 278.13 135.14 279.00 135.13 C 279.00 135.56 278.99 136.44 278.99 136.87 C 278.12 136.86 276.39 136.82 275.52 136.80 C 275.52 141.24 275.50 145.67 275.57 150.11 C 277.00 150.60 278.43 151.11 279.85 151.65 C 278.00 151.83 276.14 151.92 274.28 151.99 C 273.38 146.93 273.69 141.79 273.69 136.69 C 273.04 136.76 271.74 136.92 271.09 136.99 C 271.09 136.50 271.09 135.51 271.08 135.01 C 271.73 135.09 273.03 135.24 273.68 135.31 C 273.67 133.60 273.67 131.89 273.68 130.18 Z" />
<path fill="#111416" stroke="#111416" stroke-width="0.09375" opacity="1.00" d=" M 439.67 130.19 C 440.13 130.17 441.06 130.12 441.52 130.10 C 441.52 131.80 441.51 133.50 441.52 135.20 C 442.39 135.18 444.12 135.14 444.99 135.13 C 444.99 135.56 445.00 136.44 445.00 136.87 C 444.13 136.86 442.39 136.82 441.52 136.80 C 441.52 141.24 441.50 145.68 441.57 150.12 C 443.00 150.60 444.43 151.11 445.86 151.64 C 444.00 151.84 442.14 151.92 440.28 151.99 C 439.38 146.94 439.69 141.79 439.69 136.69 C 439.04 136.76 437.74 136.91 437.10 136.99 C 437.09 136.50 437.07 135.52 437.07 135.03 C 437.72 135.10 439.03 135.24 439.68 135.31 C 439.67 133.60 439.67 131.89 439.67 130.19 Z" />
<path fill="#111416" stroke="#111416" stroke-width="0.09375" opacity="1.00" d=" M 557.67 130.20 C 558.13 130.17 559.06 130.12 559.52 130.09 C 559.51 131.79 559.51 133.49 559.52 135.20 C 560.39 135.18 562.13 135.14 563.00 135.13 C 563.00 135.56 563.00 136.44 563.00 136.87 C 562.13 136.85 560.39 136.82 559.52 136.80 C 559.52 141.24 559.50 145.68 559.57 150.11 C 561.00 150.60 562.43 151.11 563.85 151.64 C 562.00 151.84 560.14 151.92 558.29 152.00 C 557.37 146.95 557.69 141.80 557.69 136.69 C 557.04 136.76 555.74 136.90 555.09 136.97 C 555.08 136.49 555.06 135.52 555.05 135.04 C 555.71 135.10 557.02 135.23 557.68 135.30 C 557.67 133.60 557.67 131.90 557.67 130.20 Z" />
<path fill="#111416" stroke="#111416" stroke-width="0.09375" opacity="1.00" d=" M 210.41 135.57 C 214.07 133.73 218.95 135.96 219.87 139.97 C 221.67 144.99 219.22 152.76 212.87 152.36 C 205.12 151.47 204.16 139.11 210.41 135.57 M 211.12 137.03 C 206.33 139.97 207.24 151.07 213.94 150.66 C 218.75 150.03 219.15 143.81 217.99 140.14 C 217.33 137.18 213.78 135.54 211.12 137.03 Z" />
<path fill="#111416" stroke="#111416" stroke-width="0.09375" opacity="1.00" d=" M 256.75 134.29 C 259.91 135.95 261.36 139.34 263.22 142.19 C 265.13 139.30 266.84 136.12 269.89 134.26 C 268.32 137.52 266.22 140.47 264.21 143.47 C 266.22 146.48 268.30 149.46 269.89 152.72 C 266.57 151.20 265.09 147.74 263.20 144.87 C 261.31 147.76 259.84 151.23 256.54 152.80 C 258.12 149.57 260.21 146.63 262.20 143.64 C 260.21 140.62 258.21 137.60 256.75 134.29 Z" />
<path fill="#111416" stroke="#111416" stroke-width="0.09375" opacity="1.00" d=" M 283.76 136.84 C 286.07 134.25 290.62 134.42 292.90 136.96 C 294.43 138.93 294.42 141.54 294.81 143.89 C 290.78 144.01 286.74 143.98 282.71 143.99 C 283.62 146.25 283.73 149.59 286.43 150.52 C 289.75 151.63 292.12 148.40 294.71 146.99 C 293.64 148.73 292.86 151.04 290.77 151.82 C 287.43 153.44 282.99 151.64 282.01 147.99 C 280.98 144.32 281.00 139.77 283.76 136.84 M 282.70 142.38 C 286.22 142.49 289.74 142.49 293.26 142.43 C 292.27 140.24 292.01 136.78 288.97 136.57 C 285.27 135.65 283.72 139.68 282.70 142.38 Z" />
<path fill="#111416" stroke="#111416" stroke-width="0.09375" opacity="1.00" d=" M 297.80 134.09 C 298.26 135.12 298.80 136.11 299.43 137.04 C 302.14 134.50 307.37 133.93 309.09 137.87 C 310.48 142.43 309.65 147.31 309.84 152.00 C 309.38 152.00 308.47 152.00 308.01 152.00 C 307.51 146.70 309.77 140.17 305.27 136.10 C 303.21 136.95 300.17 137.33 299.72 140.02 C 298.99 143.96 299.40 148.01 299.33 152.00 C 298.87 151.99 297.94 151.98 297.47 151.98 C 297.57 146.02 297.19 140.03 297.80 134.09 Z" />
<path fill="#111416" stroke="#111416" stroke-width="0.09375" opacity="1.00" d=" M 333.79 136.80 C 336.13 134.23 340.69 134.43 342.95 137.01 C 344.42 138.98 344.42 141.56 344.81 143.89 C 340.78 144.01 336.74 143.98 332.71 143.99 C 333.62 146.25 333.74 149.62 336.46 150.53 C 339.77 151.61 342.13 148.40 344.71 147.00 C 343.59 148.99 342.53 151.55 340.02 152.10 C 336.78 153.22 332.94 151.34 332.01 148.01 C 330.97 144.32 331.00 139.74 333.79 136.80 M 332.70 142.38 C 336.22 142.49 339.74 142.49 343.26 142.43 C 342.27 140.25 342.02 136.80 339.00 136.58 C 335.29 135.63 333.71 139.67 332.70 142.38 Z" />
<path fill="#111416" stroke="#111416" stroke-width="0.09375" opacity="1.00" d=" M 394.81 136.78 C 397.15 134.24 401.67 134.44 403.93 136.99 C 405.42 138.96 405.42 141.55 405.81 143.89 C 401.77 144.01 397.74 143.98 393.71 143.99 C 394.62 146.25 394.73 149.59 397.43 150.53 C 400.75 151.63 403.11 148.40 405.71 146.99 C 404.59 149.00 403.51 151.57 400.99 152.11 C 397.76 153.21 393.94 151.33 393.01 148.01 C 391.97 144.31 392.00 139.72 394.81 136.78 M 393.70 142.38 C 397.22 142.49 400.74 142.49 404.26 142.43 C 403.28 140.23 403.00 136.78 399.96 136.57 C 396.26 135.66 394.72 139.68 393.70 142.38 Z" />
<path fill="#111416" stroke="#111416" stroke-width="0.09375" opacity="1.00" d=" M 412.25 135.34 C 415.02 134.52 419.14 134.83 420.09 138.12 C 420.61 142.95 420.28 147.84 420.39 152.70 C 419.93 152.15 419.02 151.07 418.56 150.53 C 416.28 151.62 413.62 153.24 411.10 151.84 C 407.77 150.52 407.30 145.18 410.41 143.36 C 413.00 141.74 416.25 142.16 419.16 141.68 C 418.49 139.82 418.61 136.75 415.99 136.58 C 412.67 135.65 410.86 139.12 408.51 140.68 C 409.35 138.74 409.87 135.98 412.25 135.34 M 412.12 144.13 C 409.92 144.80 409.73 147.69 410.70 149.43 C 412.33 151.32 415.66 151.05 417.33 149.35 C 418.46 147.59 418.53 145.41 419.02 143.43 C 416.71 143.56 414.35 143.43 412.12 144.13 Z" />
<path fill="#111416" stroke="#111416" stroke-width="0.09375" opacity="1.00" d=" M 432.48 135.09 C 432.94 135.12 433.86 135.17 434.33 135.20 C 434.33 140.79 434.32 146.38 434.33 151.97 C 433.87 151.98 432.94 151.99 432.48 152.00 C 432.48 146.36 432.47 140.73 432.48 135.09 Z" />
<path fill="#111416" stroke="#111416" stroke-width="0.09375" opacity="1.00" d=" M 447.49 134.14 C 451.71 138.44 452.16 144.87 454.32 150.26 C 456.58 144.97 456.72 138.51 460.81 134.18 C 460.13 139.13 458.01 143.70 456.52 148.44 C 455.47 151.38 454.75 154.50 453.07 157.16 C 452.09 158.90 449.85 158.81 448.20 159.39 C 448.15 159.03 448.04 158.30 447.99 157.94 C 450.83 157.44 453.44 155.25 453.25 152.18 C 451.68 146.06 448.61 140.40 447.49 134.14 Z" />
<path fill="#111416" stroke="#111416" stroke-width="0.09375" opacity="1.00" d=" M 491.48 135.09 C 491.98 135.13 492.98 135.19 493.47 135.23 C 493.35 135.98 493.09 137.49 492.96 138.24 C 494.86 136.41 497.14 135.02 499.82 134.69 C 497.95 136.68 495.24 137.86 493.81 140.25 C 492.91 144.08 493.42 148.06 493.34 151.96 C 492.87 151.97 491.94 152.00 491.48 152.01 C 491.47 146.37 491.47 140.73 491.48 135.09 Z" />
<path fill="#111416" stroke="#111416" stroke-width="0.09375" opacity="1.00" d=" M 504.46 135.55 C 508.10 133.76 512.93 135.97 513.86 139.94 C 515.66 144.94 513.28 152.66 506.98 152.37 C 499.12 151.59 498.12 139.05 504.46 135.55 M 505.18 136.99 C 500.31 139.90 501.22 151.09 507.96 150.66 C 512.74 150.02 513.14 143.82 512.00 140.15 C 511.33 137.22 507.85 135.56 505.18 136.99 Z" />
<path fill="#111416" stroke="#111416" stroke-width="0.09375" opacity="1.00" d=" M 518.49 135.08 C 518.95 135.11 519.87 135.17 520.33 135.21 C 520.32 140.47 520.33 145.73 520.36 150.99 C 520.31 153.18 520.45 155.51 519.43 157.52 C 518.68 159.62 515.93 158.37 514.35 158.69 C 515.35 158.17 517.34 157.14 518.33 156.63 C 518.63 149.45 518.41 142.26 518.49 135.08 Z" />
<path fill="#111416" stroke="#111416" stroke-width="0.09375" opacity="1.00" d=" M 525.77 136.82 C 528.12 134.22 532.75 134.42 534.99 137.07 C 536.42 139.04 536.42 141.59 536.80 143.90 C 532.77 144.01 528.74 143.98 524.71 143.99 C 525.62 146.26 525.74 149.62 528.47 150.54 C 531.78 151.60 534.13 148.40 536.71 146.99 C 535.63 148.73 534.85 151.07 532.74 151.84 C 529.38 153.44 524.94 151.59 523.99 147.94 C 522.98 144.27 523.01 139.74 525.77 136.82 M 524.70 142.38 C 528.22 142.49 531.74 142.49 535.26 142.43 C 534.27 140.24 534.01 136.78 530.97 136.57 C 527.27 135.65 525.72 139.68 524.70 142.38 Z" />
<path fill="#111416" stroke="#111416" stroke-width="0.09375" opacity="1.00" d=" M 542.34 136.30 C 544.26 134.59 547.18 134.68 549.43 135.65 C 551.43 136.76 551.98 139.18 552.95 141.07 C 550.41 139.46 548.42 135.77 544.94 136.57 C 541.89 137.66 541.02 141.14 541.25 144.04 C 541.18 146.66 542.11 150.29 545.20 150.65 C 548.51 151.32 550.39 147.82 552.87 146.36 C 551.96 148.16 551.29 150.29 549.54 151.50 C 546.16 153.53 541.06 151.95 539.98 148.00 C 538.95 144.11 538.97 139.08 542.34 136.30 Z" />
<path fill="#111416" stroke="#111416" stroke-width="0.09375" opacity="1.00" d=" M 567.47 142.66 C 563.75 140.71 566.10 134.79 570.02 135.04 C 573.41 134.25 575.90 136.99 576.36 140.11 C 574.16 138.64 572.15 135.45 569.09 136.73 C 567.06 136.84 567.91 139.64 567.26 140.95 C 570.49 142.58 575.87 142.58 576.55 147.03 C 576.95 152.30 569.51 154.02 566.36 150.64 C 565.52 149.47 565.19 148.02 564.68 146.71 C 566.25 147.98 567.64 149.50 569.38 150.56 C 571.53 151.10 574.65 150.63 574.68 147.83 C 574.80 144.05 569.81 144.39 567.47 142.66 Z" />
</g>
<g id="#ffffffff">
<path fill="#ffffff" stroke="#ffffff" stroke-width="0.09375" opacity="1.00" d=" M 87.37 46.79 C 92.17 38.79 96.42 30.45 101.56 22.67 C 106.59 30.54 110.91 38.85 115.67 46.89 C 112.34 46.90 109.00 46.89 105.67 46.84 C 105.86 77.30 105.64 107.76 105.67 138.22 C 113.64 130.64 121.74 123.18 129.61 115.48 C 131.82 113.30 133.07 110.23 133.05 107.12 C 133.18 100.99 133.10 94.85 133.19 88.72 C 130.50 88.72 127.81 88.72 125.12 88.73 C 125.09 80.58 125.01 72.43 125.15 64.28 C 133.23 64.38 141.31 64.30 149.39 64.34 C 149.46 72.49 149.34 80.64 149.50 88.79 C 146.83 88.80 144.16 88.80 141.50 88.79 C 141.30 95.20 141.94 101.61 141.53 108.01 C 141.09 114.25 137.70 119.95 133.07 124.02 C 125.15 131.51 117.17 138.94 109.33 146.51 C 106.70 148.92 105.54 152.53 105.63 156.04 C 105.57 164.02 105.68 172.01 105.69 180.00 C 102.54 180.00 99.40 180.00 96.25 180.00 C 95.23 178.34 94.12 176.72 92.69 175.38 C 85.32 168.41 78.06 161.31 70.46 154.58 C 65.58 150.36 61.64 144.53 61.32 137.91 C 61.09 131.28 61.30 124.65 61.23 118.03 C 58.37 116.27 55.40 114.22 54.19 110.93 C 51.37 104.68 55.10 96.63 61.69 94.76 C 69.34 91.99 78.71 98.72 77.83 106.99 C 78.02 112.22 73.73 115.79 69.62 118.16 C 69.71 124.48 69.52 130.79 69.70 137.11 C 69.67 140.30 71.04 143.43 73.42 145.55 C 81.46 153.00 89.43 160.52 97.34 168.10 C 97.24 127.69 97.28 87.27 97.33 46.86 C 94.01 46.86 90.69 46.83 87.37 46.79 Z" />
</g>
</svg>
