<?xml version="1.0" encoding="UTF-8" ?>
<!DOCTYPE svg PUBLIC "-//W3C//DTD SVG 1.1//EN" "http://www.w3.org/Graphics/SVG/1.1/DTD/svg11.dtd">
<svg width="1088pt" height="1088pt" viewBox="0 0 1088 1088" version="1.1" xmlns="http://www.w3.org/2000/svg">
<g id="#121517ff">
<path fill="#121517" stroke="#121517" stroke-width="0.09375" opacity="1.00" d=" M 0.00 0.00 L 1088.00 0.00 L 1088.00 1088.00 L 569.69 1088.00 C 569.75 1042.66 569.50 997.31 569.58 951.97 C 569.87 941.63 568.80 931.19 570.61 920.95 C 573.11 904.16 580.69 887.88 593.15 876.17 C 602.58 867.58 611.33 858.28 620.91 849.85 C 629.87 841.07 639.32 832.82 648.18 823.93 C 657.35 815.85 665.74 806.96 674.85 798.83 C 690.78 783.37 707.16 768.39 723.15 752.99 C 734.70 742.60 745.49 731.42 756.97 720.95 C 779.22 700.31 794.29 672.53 801.10 643.08 C 801.26 641.01 801.66 638.98 802.01 636.96 C 804.52 615.39 803.31 593.67 803.63 572.02 C 803.72 547.52 800.74 522.94 803.32 498.50 C 820.44 498.63 837.57 498.69 854.70 498.68 C 854.81 446.57 854.80 394.45 854.56 342.34 C 824.37 342.35 794.18 342.39 763.99 342.37 C 742.51 342.20 721.01 342.81 699.55 341.71 C 697.95 355.75 698.63 369.89 698.51 384.00 C 698.56 416.32 698.49 448.65 698.46 480.98 C 698.39 486.84 698.84 492.69 698.90 498.56 C 716.37 498.64 733.84 498.64 751.31 498.49 C 751.23 507.64 751.27 516.80 751.19 525.95 C 750.19 559.96 751.09 594.01 750.63 628.03 C 749.50 642.48 743.60 656.43 735.05 668.05 C 729.55 675.52 722.10 681.12 715.51 687.53 C 694.30 707.39 673.33 727.52 652.21 747.48 C 647.03 751.88 642.38 756.87 637.40 761.49 C 623.12 774.20 610.08 788.22 595.65 800.77 C 589.32 806.42 583.72 812.85 577.28 818.38 C 574.84 820.29 572.57 822.39 570.48 824.66 C 569.82 821.47 569.62 818.21 569.76 814.97 C 569.76 648.66 569.60 482.35 569.83 316.04 C 569.90 306.68 569.64 297.32 570.02 287.96 C 569.54 267.42 569.87 246.86 569.78 226.32 C 591.18 226.10 612.61 226.81 633.99 225.69 C 606.88 177.99 578.85 130.82 552.00 82.97 C 550.22 79.86 548.26 76.83 546.94 73.49 C 545.27 73.19 543.59 72.92 541.92 72.74 C 521.48 109.15 500.47 145.22 479.58 181.36 C 471.17 196.06 462.39 210.54 454.24 225.38 C 475.57 226.78 496.96 226.11 518.33 226.33 C 518.06 334.90 518.42 443.46 518.31 552.03 C 518.18 657.03 518.36 762.03 518.31 867.02 C 518.33 917.54 518.15 968.06 518.25 1018.59 C 517.94 1018.60 517.31 1018.62 517.00 1018.64 C 487.36 990.06 457.03 962.21 427.42 933.59 C 411.65 919.03 396.27 904.04 380.52 889.46 C 370.39 879.26 357.78 871.49 349.48 859.55 C 343.16 850.41 338.81 839.93 336.74 829.01 C 334.55 819.50 335.33 809.69 335.30 800.03 C 334.35 780.05 335.03 760.03 334.80 740.03 C 335.65 726.72 335.49 713.35 334.59 700.04 C 334.43 696.37 334.54 692.69 334.60 689.02 C 347.22 683.30 358.93 675.52 368.90 665.88 C 382.00 652.47 389.14 633.67 388.77 614.98 C 389.08 598.55 384.05 581.91 373.98 568.84 C 369.86 563.08 364.07 558.88 358.76 554.32 C 345.39 543.25 328.26 537.12 310.99 536.36 C 283.95 536.00 256.83 550.24 242.78 573.53 C 238.73 579.75 236.00 586.71 233.90 593.80 C 230.27 607.65 230.13 622.50 234.18 636.29 C 239.12 652.92 249.79 667.71 263.85 677.83 C 269.79 681.82 276.13 685.21 282.77 687.87 C 282.89 726.93 282.74 765.99 282.83 805.04 C 283.23 812.47 283.59 819.91 283.78 827.36 C 284.04 826.04 284.28 824.75 284.56 823.46 C 283.84 829.35 285.02 835.22 286.26 840.96 C 291.33 861.92 301.23 881.59 314.35 898.65 C 320.54 907.10 328.22 914.27 335.73 921.51 C 346.53 930.53 355.70 941.33 366.74 950.07 C 379.36 959.73 389.89 971.73 401.71 982.28 C 409.85 989.47 417.20 997.49 425.47 1004.53 C 443.20 1021.84 461.27 1038.80 479.25 1055.87 C 489.72 1065.70 501.48 1074.89 508.06 1088.00 L 0.00 1088.00 L 0.00 0.00 Z" />
</g>
<g id="#ffffffff">
<path fill="#ffffff" stroke="#ffffff" stroke-width="0.09375" opacity="1.00" d=" M 541.92 72.74 C 543.59 72.92 545.27 73.19 546.94 73.49 C 548.26 76.83 550.22 79.86 552.00 82.97 C 578.85 130.82 606.88 177.99 633.99 225.69 C 612.61 226.81 591.18 226.10 569.78 226.32 C 569.87 246.86 569.54 267.42 570.02 287.96 C 569.64 297.32 569.90 306.68 569.83 316.04 C 569.60 482.35 569.76 648.66 569.76 814.97 C 569.62 818.21 569.82 821.47 570.48 824.66 C 572.57 822.39 574.84 820.29 577.28 818.38 C 583.72 812.85 589.32 806.42 595.65 800.77 C 610.08 788.22 623.12 774.20 637.40 761.49 C 642.38 756.87 647.03 751.88 652.21 747.48 C 673.33 727.52 694.30 707.39 715.51 687.53 C 722.10 681.12 729.55 675.52 735.05 668.05 C 743.60 656.43 749.50 642.48 750.63 628.03 C 751.09 594.01 750.19 559.96 751.19 525.95 C 751.27 516.80 751.23 507.64 751.31 498.49 C 733.84 498.64 716.37 498.64 698.90 498.56 C 698.84 492.69 698.39 486.84 698.46 480.98 C 698.49 448.65 698.56 416.32 698.51 384.00 C 698.63 369.89 697.95 355.75 699.55 341.71 C 721.01 342.81 742.51 342.20 763.99 342.37 C 794.18 342.39 824.37 342.35 854.56 342.34 C 854.80 394.45 854.81 446.57 854.70 498.68 C 837.57 498.69 820.44 498.63 803.32 498.50 C 800.74 522.94 803.72 547.52 803.63 572.02 C 803.31 593.67 804.52 615.39 802.01 636.96 C 801.66 638.98 801.26 641.01 801.10 643.08 C 794.29 672.53 779.22 700.31 756.97 720.95 C 745.49 731.42 734.70 742.60 723.15 752.99 C 707.16 768.39 690.78 783.37 674.85 798.83 C 665.74 806.96 657.35 815.85 648.18 823.93 C 639.32 832.82 629.87 841.07 620.91 849.85 C 611.33 858.28 602.58 867.58 593.15 876.17 C 580.69 887.88 573.11 904.16 570.61 920.95 C 568.80 931.19 569.87 941.63 569.58 951.97 C 569.50 997.31 569.75 1042.66 569.69 1088.00 L 508.06 1088.00 C 501.48 1074.89 489.72 1065.70 479.25 1055.87 C 461.27 1038.80 443.20 1021.84 425.47 1004.53 C 417.20 997.49 409.85 989.47 401.71 982.28 C 389.89 971.73 379.36 959.73 366.74 950.07 C 355.70 941.33 346.53 930.53 335.73 921.51 C 328.22 914.27 320.54 907.10 314.35 898.65 C 301.23 881.59 291.33 861.92 286.26 840.96 C 285.02 835.22 283.84 829.35 284.56 823.46 C 284.28 824.75 284.04 826.04 283.78 827.36 C 283.59 819.91 283.23 812.47 282.83 805.04 C 282.74 765.99 282.89 726.93 282.77 687.87 C 276.13 685.21 269.79 681.82 263.85 677.83 C 249.79 667.71 239.12 652.92 234.18 636.29 C 230.13 622.50 230.27 607.65 233.90 593.80 C 236.00 586.71 238.73 579.75 242.78 573.53 C 256.83 550.24 283.95 536.00 310.99 536.36 C 328.26 537.12 345.39 543.25 358.76 554.32 C 364.07 558.88 369.86 563.08 373.98 568.84 C 384.05 581.91 389.08 598.55 388.77 614.98 C 389.14 633.67 382.00 652.47 368.90 665.88 C 358.93 675.52 347.22 683.30 334.60 689.02 C 334.54 692.69 334.43 696.37 334.59 700.04 C 335.49 713.35 335.65 726.72 334.80 740.03 C 335.03 760.03 334.35 780.05 335.30 800.03 C 335.33 809.69 334.55 819.50 336.74 829.01 C 338.81 839.93 343.16 850.41 349.48 859.55 C 357.78 871.49 370.39 879.26 380.52 889.46 C 396.27 904.04 411.65 919.03 427.42 933.59 C 457.03 962.21 487.36 990.06 517.00 1018.64 C 517.31 1018.62 517.94 1018.60 518.25 1018.59 C 518.15 968.06 518.33 917.54 518.31 867.02 C 518.36 762.03 518.18 657.03 518.31 552.03 C 518.42 443.46 518.06 334.90 518.33 226.33 C 496.96 226.11 475.57 226.78 454.24 225.38 C 462.39 210.54 471.17 196.06 479.58 181.36 C 500.47 145.22 521.48 109.15 541.92 72.74 Z" />
</g>
</svg>
