<?xml version="1.0" standalone="no"?>
<!DOCTYPE svg PUBLIC "-//W3C//DTD SVG 20010904//EN"
 "http://www.w3.org/TR/2001/REC-SVG-20010904/DTD/svg10.dtd">
<svg version="1.0" xmlns="http://www.w3.org/2000/svg"
 width="2176.000000pt" height="2176.000000pt" viewBox="0 0 2176.000000 2176.000000"
 preserveAspectRatio="xMidYMid meet">
<metadata>
Created by potrace 1.11, written by Peter Selinger 2001-2013
</metadata>
<g transform="translate(0.000000,2176.000000) scale(0.100000,-0.100000)"
fill="#000000" stroke="none">
<path d="M0 10880 l0 -10880 5080 0 5080 0 -18 33 c-45 82 -151 226 -217 293
-16 17 -133 127 -260 244 -332 307 -490 458 -734 696 -119 116 -290 280 -381
364 -91 84 -212 199 -270 255 -58 56 -166 157 -240 226 -74 68 -218 205 -320
304 -102 99 -265 247 -363 329 -182 151 -480 429 -802 751 -133 132 -210 219
-289 325 -59 80 -114 153 -122 163 -8 9 -14 20 -14 24 0 9 -62 107 -73 114 -5
3 -7 9 -5 12 1 4 -4 14 -12 24 -19 23 -140 267 -140 282 0 6 -4 11 -10 11 -5
0 -10 7 -10 16 0 9 -7 31 -15 50 -8 19 -22 49 -30 68 -8 19 -15 39 -15 45 0 6
-4 19 -9 29 -15 28 -41 112 -81 262 -12 45 -27 127 -47 265 -14 96 -17 288
-20 1463 l-4 1353 -26 10 c-83 31 -344 174 -363 198 -3 3 -23 20 -45 36 -111
82 -264 250 -342 373 -22 34 -43 59 -47 55 -4 -5 -6 -3 -4 2 3 10 -90 205
-103 215 -3 3 -9 22 -13 44 -4 21 -11 46 -16 55 -11 21 -22 52 -25 71 -1 8 -8
38 -15 65 -18 78 -19 83 -31 200 -13 133 -5 293 23 430 11 55 21 107 23 115 1
8 5 22 8 30 3 8 14 40 23 70 9 30 26 78 38 105 209 491 656 840 1196 934 36 6
76 13 90 16 32 7 277 7 310 0 14 -3 52 -10 85 -15 225 -39 445 -125 623 -244
87 -58 324 -258 383 -323 147 -164 271 -421 313 -648 47 -255 47 -370 1 -655
-8 -51 -43 -166 -66 -218 -11 -24 -17 -47 -14 -52 3 -4 2 -10 -3 -12 -4 -1
-18 -23 -30 -48 -72 -148 -139 -239 -281 -381 -70 -69 -173 -159 -231 -201
-99 -72 -281 -181 -345 -209 -17 -7 -43 -22 -59 -32 l-28 -20 7 -271 c5 -149
9 -746 9 -1326 2 -946 4 -1063 19 -1130 9 -41 21 -97 27 -124 30 -146 110
-342 193 -476 98 -157 206 -272 452 -479 114 -96 253 -224 555 -510 96 -91
220 -209 275 -261 55 -52 235 -223 400 -380 165 -157 379 -359 475 -449 96
-91 211 -199 255 -241 44 -42 163 -154 265 -250 166 -157 452 -428 662 -629
l78 -74 0 7934 0 7934 -518 1 c-505 2 -723 7 -743 20 -10 6 -8 12 116 224 43
74 102 177 132 227 59 104 138 240 221 383 30 52 95 165 144 250 48 85 93 162
98 170 6 8 13 22 17 30 4 8 24 43 45 78 21 34 38 64 38 67 0 2 25 45 55 95 30
50 55 93 55 95 0 4 68 120 90 155 6 8 13 22 17 30 3 8 22 39 40 69 19 30 39
63 44 75 5 12 18 35 28 51 75 122 131 216 131 220 0 2 20 38 45 79 25 42 62
109 83 149 21 39 55 101 76 137 20 36 40 73 43 83 3 9 9 17 14 17 5 0 9 4 9 9
0 5 20 44 45 85 25 42 45 81 45 85 0 5 3 11 8 13 8 3 42 62 73 126 21 41 23
42 69 42 29 0 50 -5 54 -12 3 -7 17 -31 31 -53 13 -22 31 -53 39 -70 18 -36
67 -123 107 -188 16 -26 29 -50 29 -52 0 -3 11 -22 23 -43 25 -38 50 -84 132
-237 27 -49 64 -113 82 -142 18 -29 33 -54 33 -56 0 -4 58 -105 225 -392 83
-143 165 -285 185 -320 9 -16 80 -138 157 -270 78 -132 153 -262 168 -290 15
-27 31 -54 35 -60 6 -8 196 -336 260 -450 9 -16 67 -117 128 -223 94 -164 108
-194 94 -200 -9 -4 -297 -7 -640 -7 l-622 0 0 -5983 0 -5984 41 33 c57 45 165
143 289 263 58 56 179 171 270 256 91 85 235 223 320 306 85 83 259 247 385
365 127 117 275 256 330 309 55 53 134 127 175 166 41 38 125 116 185 174 221
212 332 317 414 395 47 44 132 125 190 180 191 181 275 260 331 311 332 300
406 389 518 615 99 202 131 302 156 489 14 100 16 285 16 1372 0 691 1 1263 2
1270 2 11 -95 13 -514 13 -454 0 -519 1 -525 15 -14 26 -16 2816 -3 2975 6 77
13 141 14 142 4 4 3076 -6 3090 -10 10 -3 22 -3061 12 -3101 l-7 -28 -513 7
-514 8 -7 -74 c-4 -41 -4 -272 -1 -514 21 -1528 18 -1930 -15 -2160 -6 -38
-12 -88 -14 -110 -2 -22 -5 -47 -8 -55 -3 -8 -7 -24 -10 -35 -65 -259 -137
-449 -268 -707 -166 -326 -333 -542 -651 -843 -40 -38 -127 -121 -193 -184
-226 -215 -436 -415 -565 -536 -41 -39 -122 -115 -180 -170 -163 -154 -318
-302 -395 -374 -38 -37 -117 -111 -175 -166 -58 -55 -184 -174 -280 -265 -96
-91 -227 -214 -290 -275 -152 -145 -212 -201 -624 -590 -511 -481 -653 -625
-718 -725 -145 -220 -229 -453 -262 -722 -18 -146 -20 -680 -9 -2311 l6 -977
5179 0 5178 0 0 10880 0 10880 -10880 0 -10880 0 0 -10880z"/>
</g>
</svg>
